<svg xmlns="http://www.w3.org/2000/svg" width="67" height="67" viewBox="0 0 67 67">
  <g id="Grupo_1075886" data-name="Grupo 1075886" transform="translate(-810 -1551.811)">
    <g id="Elipse_4296" data-name="Elipse 4296" transform="translate(810 1551.811)" fill="#3b5620" stroke="#707070" stroke-width="1">
      <circle cx="33.5" cy="33.5" r="33.5" stroke="none"/>
      <circle cx="33.5" cy="33.5" r="33" fill="none"/>
    </g>
    <path id="Trazado_816303" data-name="Trazado 816303" d="M13.972-10.446A6.6,6.6,0,0,1,9.444-8.628a7.31,7.31,0,0,1-5.826-2.486,9.8,9.8,0,0,1-2.152-6.643,9.969,9.969,0,0,1,1.206-4.824,9.05,9.05,0,0,1,3.386-3.525,9.232,9.232,0,0,1,4.815-1.3,8.962,8.962,0,0,1,4.833,1.345,9.057,9.057,0,0,1,3.368,3.8,13.066,13.066,0,0,1,1.243,5.668v2.394a16.24,16.24,0,0,1-1.753,7.756,12.1,12.1,0,0,1-5,5.047A15.625,15.625,0,0,1,5.993.371H5.6v-5.01l1.188-.019Q13.248-4.973,13.972-10.446Zm-2.839-2.69A3.044,3.044,0,0,0,14.064-14.9v-2.6a6.754,6.754,0,0,0-.872-3.841,2.735,2.735,0,0,0-2.356-1.243,2.585,2.585,0,0,0-2.208,1.41,6.265,6.265,0,0,0-.891,3.414,5.617,5.617,0,0,0,.909,3.368A2.908,2.908,0,0,0,11.133-13.137Z" transform="translate(833 1598.811)" fill="#dbf9bd"/>
  </g>
</svg>
