<svg id="Grupo_261915" data-name="Grupo 261915" xmlns="http://www.w3.org/2000/svg" xmlns:xlink="http://www.w3.org/1999/xlink" width="238" height="238" viewBox="0 0 238 238">
  <defs>
    <clipPath id="clip-path">
      <rect id="Rectángulo_326105" data-name="Rectángulo 326105" width="238" height="238" fill="none"/>
    </clipPath>
  </defs>
  <g id="Grupo_261914" data-name="Grupo 261914" clip-path="url(#clip-path)">
    <path id="Trazado_280489" data-name="Trazado 280489" d="M238,119A119,119,0,1,1,119,0,119,119,0,0,1,238,119" fill="#dbf9bd"/>
    <path id="Trazado_280490" data-name="Trazado 280490" d="M372.359,152.068a38.493,38.493,0,0,0,19.009-.458c13.734-3.755,20.026-16.233,24.369-29.19,2-5.972-4.925-5.717-5.835-1.67-1.472,6.548-3.977,12.911-8.671,17.831a25.4,25.4,0,0,1-12.214,7,31.409,31.409,0,0,1-10.68.887c-.677-.043-1.353-.109-2.028-.189-.919-.108.7.105-.149-.02-.234-.034-.467-.073-.7-.112-.465-.079-.932-.165-1.39-.28-4.025-1.013-5.731,5.19-1.71,6.2" transform="translate(-211.362 -67.287)" fill="#3b5620"/>
    <path id="Trazado_280491" data-name="Trazado 280491" d="M229.22,193.4l-1.37-36.727a15.8,15.8,0,0,0-16.327-15.153L174.8,142.891c-8.657.322-20.562,5.782-26.455,12.131L88.955,219.009a15.8,15.8,0,0,0,.83,22.259l47.66,44.233a15.8,15.8,0,0,0,22.26-.83l59.386-63.986c5.894-6.35,10.452-18.628,10.129-27.285m-31.456-6.547a13.612,13.612,0,1,1,13.095-14.109,13.612,13.612,0,0,1-13.095,14.109" transform="translate(-48.415 -80.824)" fill="#e2e8ec"/>
    <path id="Trazado_280492" data-name="Trazado 280492" d="M144.41,288.763a18.387,18.387,0,0,1-12.588-4.932L84.162,239.6a18.559,18.559,0,0,1-.977-26.2l59.387-63.987c6.449-6.948,18.921-12.668,28.394-13.021l36.727-1.369a18.585,18.585,0,0,1,19.216,17.835l1.369,36.726c.353,9.473-4.422,22.337-10.871,29.285l-59.387,63.986a18.409,18.409,0,0,1-12.9,5.9c-.238.009-.477.013-.714.013m63.98-148.179c-.163,0-.326,0-.489.009l-36.727,1.369c-7.906.3-19.133,5.443-24.515,11.242L87.271,217.192a12.978,12.978,0,0,0,.684,18.32l47.66,44.233a13.01,13.01,0,0,0,18.32-.683l59.386-63.986c5.383-5.8,9.681-17.378,9.386-25.285l-1.369-36.727a12.979,12.979,0,0,0-12.948-12.48m-14.875,45.353a16.413,16.413,0,1,1,.627-.012c-.209.008-.419.012-.627.012m.02-27.223q-.2,0-.408.008a10.824,10.824,0,0,0,.807,21.633h0a10.824,10.824,0,0,0-.4-21.641" transform="translate(-44.689 -77.11)" fill="#3b5620"/>
    <path id="Trazado_280493" data-name="Trazado 280493" d="M162.788,323.767l-30.218-28.061a12.473,12.473,0,0,1-.651-17.576l32.566-35.07a12.473,12.473,0,0,1,17.576-.651l30.218,28.061a12.473,12.473,0,0,1,.651,17.576l-32.566,35.07a12.473,12.473,0,0,1-17.576.651" transform="translate(-73.456 -136.563)" fill="#fff"/>
    <path id="Trazado_280494" data-name="Trazado 280494" d="M241.481,308.343l-30.8-28.522a3.083,3.083,0,0,1-.167-4.343l1.323-1.429a3.083,3.083,0,0,1,4.343-.167l30.8,28.522a3.082,3.082,0,0,1,.167,4.343l-1.323,1.429a3.083,3.083,0,0,1-4.343.167" transform="translate(-119.768 -155.962)" fill="#3b5620"/>
    <path id="Trazado_280495" data-name="Trazado 280495" d="M217.221,334.544l-30.8-28.522a3.083,3.083,0,0,1-.167-4.343l1.323-1.429a3.083,3.083,0,0,1,4.343-.167l30.8,28.522a3.083,3.083,0,0,1,.167,4.343l-1.323,1.429a3.083,3.083,0,0,1-4.343.167" transform="translate(-105.912 -170.926)" fill="#3b5620"/>
    <path id="Trazado_280496" data-name="Trazado 280496" d="M193.686,361.07l-30.8-28.522a3.083,3.083,0,0,1-.167-4.343l1.323-1.429a3.083,3.083,0,0,1,4.343-.167l30.8,28.522a3.083,3.083,0,0,1,.167,4.343L198.03,360.9a3.083,3.083,0,0,1-4.343.167" transform="translate(-92.47 -186.077)" fill="#3b5620"/>
    <path id="Trazado_280497" data-name="Trazado 280497" d="M367.06,147.154c.066-.63-.139.987-.061.442.05-.347.111-.692.175-1.037a35.027,35.027,0,0,1,.885-3.577c.237-.793.506-1.576.794-2.353.144-.389.3-.774.455-1.158-.289.71.317-.7.421-.924a35.24,35.24,0,0,1,3.47-5.857,28.446,28.446,0,0,1,11.384-8.931c7.231-3.036,15.21-3.171,22.886-2.224,1.744.215,3.216-1.626,3.216-3.216a3.291,3.291,0,0,0-3.216-3.216c-14.781-1.823-30.083,1.486-39.441,13.83a37.461,37.461,0,0,0-7.4,18.223c-.184,1.747,1.6,3.216,3.216,3.216a3.283,3.283,0,0,0,3.216-3.216" transform="translate(-205.965 -65.474)" fill="#3b5620"/>
  </g>
</svg>
