<svg xmlns="http://www.w3.org/2000/svg" width="67" height="67" viewBox="0 0 67 67">
  <g id="Grupo_1075885" data-name="Grupo 1075885" transform="translate(-286 -8675.008)">
    <g id="Elipse_4299" data-name="Elipse 4299" transform="translate(286 8675.008)" fill="#3b5620" stroke="#707070" stroke-width="1">
      <circle cx="33.5" cy="33.5" r="33.5" stroke="none"/>
      <circle cx="33.5" cy="33.5" r="33" fill="none"/>
    </g>
    <path id="Trazado_816392" data-name="Trazado 816392" d="M7.366-16.124h2.95q3.507,0,3.507-3.433a2.968,2.968,0,0,0-.835-2.18,3.166,3.166,0,0,0-2.356-.844,3.39,3.39,0,0,0-2.162.724,2.208,2.208,0,0,0-.918,1.8H1.3a6.4,6.4,0,0,1,1.188-3.8A7.842,7.842,0,0,1,5.78-26.468a11.26,11.26,0,0,1,4.629-.937,11.064,11.064,0,0,1,7.088,2.06,6.847,6.847,0,0,1,2.579,5.659,5.707,5.707,0,0,1-1.067,3.293A7.6,7.6,0,0,1,15.9-13.879a7.263,7.263,0,0,1,3.377,2.366A6.23,6.23,0,0,1,20.5-7.589,6.971,6.971,0,0,1,17.72-1.8,11.553,11.553,0,0,1,10.409.371,11.981,11.981,0,0,1,5.483-.64a7.718,7.718,0,0,1-3.442-2.8A7.284,7.284,0,0,1,.872-7.515h6.29a2.815,2.815,0,0,0,1,2.152,3.537,3.537,0,0,0,2.468.909,3.705,3.705,0,0,0,2.635-.918,3.07,3.07,0,0,0,.983-2.347,3.589,3.589,0,0,0-1.021-2.895,4.266,4.266,0,0,0-2.82-.854H7.366Z" transform="translate(309 8722.008)" fill="#dbf9bd"/>
  </g>
</svg>
