<svg xmlns="http://www.w3.org/2000/svg" xmlns:xlink="http://www.w3.org/1999/xlink" width="190" height="170" viewBox="0 0 190 170">
  <defs>
    <linearGradient id="linear-gradient" x1="0.5" x2="0.5" y2="1" gradientUnits="objectBoundingBox">
      <stop offset="0" stop-color="#f9fef5"/>
      <stop offset="1" stop-color="#e7f7f8"/>
    </linearGradient>
    <clipPath id="clip-path">
      <rect id="Rect치ngulo_326209" data-name="Rect치ngulo 326209" width="168.117" height="98.806" fill="none"/>
    </clipPath>
  </defs>
  <g id="Grupo_1075885" data-name="Grupo 1075885" transform="translate(-180 -11348.811)">
    <rect id="Rect치ngulo_378350" data-name="Rect치ngulo 378350" width="190" height="170" transform="translate(180 11348.811)" fill="url(#linear-gradient)"/>
    <g id="Grupo_262357" data-name="Grupo 262357" transform="translate(12.297 -573.491)">
      <g id="Grupo_262162" data-name="Grupo 262162" transform="translate(180 11957.899)">
        <g id="Grupo_262161" data-name="Grupo 262161" clip-path="url(#clip-path)">
          <path id="Trazado_280624" data-name="Trazado 280624" d="M249.55,169.567a18,18,0,0,0-2.278-7.824,1.052,1.052,0,0,0-1.945.557c0,.529-.745,1.2-1.993,1.8a14.508,14.508,0,0,1-2.395.875c-6.435.922-10.15,5.928-11.4,7.947a25.439,25.439,0,0,0-8.414-1.409h-.082a25.439,25.439,0,0,0-8.414,1.409c-1.255-2.019-4.972-7.027-11.409-7.948-1.81-.455-4.383-1.657-4.383-2.678a1.052,1.052,0,0,0-1.945-.557,18,18,0,0,0-2.278,7.824c-.25,4.1.83,10.166,7.269,16a15.461,15.461,0,0,0-.556,3.885c-.589,1.445-3.634,9.7.669,16.3,3.428,5.254,10.523,7.917,21.088,7.917,10.686,0,17.832-2.677,21.239-7.957,4.249-6.585,1.128-14.808.518-16.263a15.469,15.469,0,0,0-.556-3.879c6.439-5.837,7.519-11.9,7.269-16m-54.845.221a16.836,16.836,0,0,1,1.131-5.158,8.048,8.048,0,0,0,2.109,1.383,16.411,16.411,0,0,0,2.819,1.019,1.031,1.031,0,0,0,.106.02c5.245.728,8.5,4.778,9.762,6.676q-.645.3-1.267.628c-1.2-1.34-4.409-4.582-7.557-4.816-1.657-.123-3.284-1.146-3.531-1.749a1.052,1.052,0,0,0-1.989.124c-.077.284-1.735,6.825,5.132,13.943a16.382,16.382,0,0,0-.778,1.542c-4.212-4.066-6.212-8.638-5.938-13.612m7.905,10.264a16.327,16.327,0,0,1-4.218-7.755,11.589,11.589,0,0,1-.216-1.8,8.256,8.256,0,0,0,3.477,1.142c1.854.137,4.12,2.04,5.528,3.468a13.257,13.257,0,0,0-4.385,4.7c-.062.08-.125.161-.186.242m37.934,24.529c-3,4.634-9.546,6.984-19.464,6.984-9.8,0-16.3-2.34-19.32-6.953-4.013-6.134-.46-14.437-.424-14.519a1.053,1.053,0,0,0,.089-.424,13.6,13.6,0,0,1,1.893-6.872,1.052,1.052,0,0,0,.521-.508c0-.009.261-.544.708-1.29a18.991,18.991,0,0,1,7.886-5.749,1.068,1.068,0,0,0,.209-.078l.016-.011a23.158,23.158,0,0,1,8.381-1.543h.082a23.157,23.157,0,0,1,8.381,1.543l.017.011a1.068,1.068,0,0,0,.209.078A19,19,0,0,1,237.612,181c.448.746.706,1.284.71,1.293a1.053,1.053,0,0,0,.52.508,13.6,13.6,0,0,1,1.893,6.872,1.059,1.059,0,0,0,.093.433c.037.083,3.678,8.353-.284,14.479m-1.234-24.84c-.273-.446-.6-.944-.975-1.455a10.913,10.913,0,0,0-3.356-3.18c1.408-1.428,3.674-3.33,5.528-3.467a8.253,8.253,0,0,0,3.48-1.145c-.085,2.13-.868,5.7-4.437,9.559-.079-.1-.159-.209-.24-.312m1.429,2.117c6.867-7.118,5.209-13.659,5.132-13.943a1.052,1.052,0,0,0-1.989-.124c-.247.6-1.874,1.626-3.531,1.749-3.148.233-6.358,3.476-7.557,4.816q-.623-.333-1.269-.629c1.253-1.9,4.5-5.943,9.764-6.674a1,1,0,0,0,.106-.02,16.41,16.41,0,0,0,2.819-1.019,8.034,8.034,0,0,0,2.112-1.386,16.8,16.8,0,0,1,1.123,5.068c.305,5.009-1.693,9.613-5.932,13.7a16.445,16.445,0,0,0-.778-1.542" transform="translate(-137.181 -114.862)" fill="#3b5620"/>
          <path id="Trazado_280625" data-name="Trazado 280625" d="M277.243,267.6a9.942,9.942,0,0,0-6.134-1.616c-2.041,0-4.362.167-6.109,1.406-1.832,1.3-2.722,3.516-2.722,6.779,0,3.007,3.267,4.732,8.964,4.732,7.566,0,8.7-2.965,8.7-4.732,0-3.008-.907-5.219-2.7-6.569m-6,9.2c-3.316,0-6.86-.69-6.86-2.628,0-3.762,1.381-4.742,1.835-5.063,1.265-.9,3.182-1.018,4.891-1.018,4.777,0,6.726,1.762,6.726,6.081,0,2.372-4.61,2.628-6.592,2.628" transform="translate(-186.831 -189.468)" fill="#3b5620"/>
          <path id="Trazado_280626" data-name="Trazado 280626" d="M277.087,282.941a1.579,1.579,0,1,0,1.579,1.579,1.579,1.579,0,0,0-1.579-1.579" transform="translate(-196.255 -201.55)" fill="#3b5620"/>
          <path id="Trazado_280627" data-name="Trazado 280627" d="M301.041,282.941a1.579,1.579,0,1,0,1.579,1.579,1.579,1.579,0,0,0-1.579-1.579" transform="translate(-213.318 -201.55)" fill="#3b5620"/>
          <path id="Trazado_280628" data-name="Trazado 280628" d="M254.1,242.409a2.85,2.85,0,1,0-2.85,2.85,2.853,2.853,0,0,0,2.85-2.85m-2.85.746a.746.746,0,1,1,.746-.746.746.746,0,0,1-.746.746" transform="translate(-176.945 -170.647)" fill="#3b5620"/>
          <path id="Trazado_280629" data-name="Trazado 280629" d="M317.958,239.559a2.85,2.85,0,1,0,2.85,2.85,2.853,2.853,0,0,0-2.85-2.85m0,3.6a.746.746,0,1,1,.746-.746.746.746,0,0,1-.746.746" transform="translate(-224.463 -170.647)" fill="#3b5620"/>
          <path id="Trazado_280630" data-name="Trazado 280630" d="M56.972,75.793a18,18,0,0,0-2.278-7.824,1.052,1.052,0,0,0-1.945.557c0,.529-.745,1.2-1.993,1.8a14.505,14.505,0,0,1-2.395.875c-6.435.922-10.15,5.928-11.4,7.947a25.438,25.438,0,0,0-8.414-1.409h-.082a25.438,25.438,0,0,0-8.414,1.409c-1.255-2.019-4.972-7.027-11.409-7.948-1.81-.455-4.383-1.657-4.383-2.678a1.052,1.052,0,0,0-1.945-.557A18,18,0,0,0,.032,75.793c-.25,4.1.83,10.166,7.269,16a15.461,15.461,0,0,0-.556,3.885c-.589,1.446-3.634,9.7.669,16.3,3.428,5.254,10.523,7.917,21.088,7.917,10.686,0,17.832-2.677,21.239-7.957,4.249-6.585,1.128-14.808.518-16.263A15.47,15.47,0,0,0,49.7,91.8c6.439-5.837,7.519-11.9,7.269-16m-54.845.221a16.836,16.836,0,0,1,1.131-5.158,8.047,8.047,0,0,0,2.109,1.383,16.412,16.412,0,0,0,2.819,1.019,1.05,1.05,0,0,0,.106.02c5.245.728,8.5,4.778,9.762,6.675q-.645.3-1.267.628c-1.2-1.34-4.409-4.582-7.558-4.816-1.657-.123-3.284-1.146-3.531-1.749a1.052,1.052,0,0,0-1.989.124c-.077.284-1.735,6.825,5.132,13.943a16.381,16.381,0,0,0-.778,1.542c-4.212-4.066-6.212-8.638-5.938-13.612m7.905,10.264a16.326,16.326,0,0,1-4.218-7.755,11.591,11.591,0,0,1-.216-1.8,8.255,8.255,0,0,0,3.477,1.142C10.929,78,13.2,79.9,14.6,81.333a13.256,13.256,0,0,0-4.385,4.7c-.062.08-.125.161-.186.242m37.934,24.529c-3,4.634-9.546,6.984-19.464,6.984-9.8,0-16.3-2.34-19.32-6.953C5.17,104.7,8.723,96.4,8.759,96.319a1.053,1.053,0,0,0,.089-.424,13.6,13.6,0,0,1,1.893-6.872,1.052,1.052,0,0,0,.521-.508c0-.009.261-.544.708-1.29a18.993,18.993,0,0,1,7.886-5.749,1.07,1.07,0,0,0,.209-.078l.016-.011a23.158,23.158,0,0,1,8.381-1.543h.082a23.157,23.157,0,0,1,8.381,1.543l.017.011a1.07,1.07,0,0,0,.209.078,18.994,18.994,0,0,1,7.884,5.746c.448.746.706,1.284.71,1.293a1.053,1.053,0,0,0,.52.508A13.6,13.6,0,0,1,48.157,95.9a1.059,1.059,0,0,0,.093.433c.037.083,3.678,8.353-.283,14.479m-1.234-24.84c-.273-.446-.6-.944-.975-1.455a10.913,10.913,0,0,0-3.356-3.18C43.81,79.9,46.076,78,47.93,77.864a8.252,8.252,0,0,0,3.48-1.145c-.085,2.13-.868,5.7-4.437,9.559-.079-.1-.159-.209-.24-.312m1.429,2.117c6.867-7.118,5.209-13.659,5.132-13.943a1.052,1.052,0,0,0-1.989-.124c-.247.6-1.874,1.626-3.531,1.749-3.148.233-6.358,3.476-7.557,4.816q-.623-.333-1.269-.629c1.252-1.9,4.5-5.943,9.764-6.674a1.006,1.006,0,0,0,.106-.02,16.411,16.411,0,0,0,2.819-1.019,8.035,8.035,0,0,0,2.112-1.386,16.8,16.8,0,0,1,1.123,5.068c.306,5.009-1.693,9.613-5.932,13.7a16.45,16.45,0,0,0-.778-1.542" transform="translate(0 -48.064)" fill="#3b5620"/>
          <path id="Trazado_280631" data-name="Trazado 280631" d="M84.665,173.822a9.942,9.942,0,0,0-6.134-1.616c-2.04,0-4.362.167-6.108,1.406-1.832,1.3-2.722,3.516-2.722,6.779,0,3.007,3.267,4.732,8.964,4.732,7.566,0,8.7-2.965,8.7-4.732,0-3.008-.907-5.218-2.7-6.569m-6,9.2c-3.316,0-6.86-.69-6.86-2.628,0-3.762,1.381-4.742,1.835-5.063,1.265-.9,3.182-1.018,4.891-1.018,4.777,0,6.726,1.762,6.726,6.081,0,2.372-4.61,2.628-6.592,2.628" transform="translate(-49.651 -122.669)" fill="#3b5620"/>
          <path id="Trazado_280632" data-name="Trazado 280632" d="M84.509,189.168a1.579,1.579,0,1,0,1.579,1.579,1.579,1.579,0,0,0-1.579-1.579" transform="translate(-59.074 -134.752)" fill="#3b5620"/>
          <path id="Trazado_280633" data-name="Trazado 280633" d="M108.463,189.168a1.579,1.579,0,1,0,1.579,1.579,1.579,1.579,0,0,0-1.579-1.579" transform="translate(-76.138 -134.752)" fill="#3b5620"/>
          <path id="Trazado_280634" data-name="Trazado 280634" d="M61.522,148.636a2.85,2.85,0,1,0-2.85,2.85,2.853,2.853,0,0,0,2.85-2.85m-2.85.746a.746.746,0,1,1,.746-.746.746.746,0,0,1-.746.746" transform="translate(-39.765 -103.849)" fill="#3b5620"/>
          <path id="Trazado_280635" data-name="Trazado 280635" d="M125.381,145.786a2.85,2.85,0,1,0,2.85,2.85,2.853,2.853,0,0,0-2.85-2.85m0,3.6a.746.746,0,1,1,.746-.746.746.746,0,0,1-.746.746" transform="translate(-87.283 -103.849)" fill="#3b5620"/>
          <path id="Trazado_280636" data-name="Trazado 280636" d="M443.233,78.69a18,18,0,0,0-2.278-7.824,1.052,1.052,0,0,0-1.945.557c0,.529-.745,1.2-1.993,1.8a14.506,14.506,0,0,1-2.395.875c-6.435.922-10.15,5.928-11.4,7.947a25.438,25.438,0,0,0-8.414-1.409h-.082a25.438,25.438,0,0,0-8.414,1.409c-1.255-2.019-4.972-7.027-11.409-7.948-1.81-.455-4.383-1.657-4.383-2.678a1.052,1.052,0,0,0-1.945-.557,18,18,0,0,0-2.278,7.824c-.25,4.1.83,10.166,7.269,16a15.459,15.459,0,0,0-.556,3.885c-.589,1.446-3.634,9.7.668,16.3,3.428,5.254,10.523,7.917,21.088,7.917,10.686,0,17.832-2.677,21.239-7.957,4.249-6.585,1.128-14.807.518-16.263a15.472,15.472,0,0,0-.556-3.879c6.439-5.837,7.519-11.9,7.269-16m-54.845.221a16.836,16.836,0,0,1,1.131-5.158,8.047,8.047,0,0,0,2.109,1.383,16.386,16.386,0,0,0,2.819,1.019,1.039,1.039,0,0,0,.106.02c5.245.728,8.5,4.778,9.762,6.675q-.645.3-1.267.628c-1.2-1.34-4.409-4.582-7.557-4.816-1.657-.123-3.284-1.146-3.531-1.749a1.052,1.052,0,0,0-1.989.124c-.077.284-1.735,6.825,5.132,13.943a16.387,16.387,0,0,0-.778,1.542c-4.212-4.066-6.212-8.638-5.938-13.612m7.905,10.264a16.327,16.327,0,0,1-4.218-7.755,11.6,11.6,0,0,1-.216-1.8,8.256,8.256,0,0,0,3.477,1.142c1.854.137,4.12,2.04,5.528,3.468a13.262,13.262,0,0,0-4.385,4.7c-.062.081-.125.161-.186.242M434.227,113.7c-3,4.634-9.546,6.984-19.464,6.984-9.8,0-16.3-2.34-19.32-6.953-4.013-6.134-.46-14.437-.424-14.519a1.053,1.053,0,0,0,.089-.424A13.6,13.6,0,0,1,397,91.921a1.052,1.052,0,0,0,.521-.508c0-.009.261-.544.708-1.29a18.991,18.991,0,0,1,7.886-5.749,1.05,1.05,0,0,0,.209-.078l.016-.011a23.158,23.158,0,0,1,8.381-1.543h.082a23.158,23.158,0,0,1,8.381,1.543l.017.011a1.052,1.052,0,0,0,.209.078,18.994,18.994,0,0,1,7.884,5.746c.448.746.706,1.284.71,1.293a1.053,1.053,0,0,0,.52.508,13.6,13.6,0,0,1,1.893,6.872,1.058,1.058,0,0,0,.093.433c.037.083,3.678,8.353-.284,14.479m-1.233-24.84c-.273-.446-.6-.944-.975-1.455a10.914,10.914,0,0,0-3.356-3.18c1.408-1.428,3.674-3.33,5.528-3.467a8.253,8.253,0,0,0,3.48-1.145c-.085,2.13-.869,5.7-4.437,9.559-.079-.1-.159-.209-.24-.312m1.429,2.117c6.867-7.118,5.209-13.659,5.132-13.943a1.052,1.052,0,0,0-1.989-.124c-.247.6-1.874,1.627-3.531,1.749-3.148.233-6.358,3.476-7.557,4.816q-.623-.333-1.269-.629c1.253-1.9,4.5-5.943,9.764-6.674a1.023,1.023,0,0,0,.106-.02,16.384,16.384,0,0,0,2.819-1.019,8.035,8.035,0,0,0,2.112-1.386,16.8,16.8,0,0,1,1.123,5.068c.305,5.009-1.693,9.613-5.932,13.7a16.506,16.506,0,0,0-.778-1.542" transform="translate(-275.148 -50.127)" fill="#3b5620"/>
          <path id="Trazado_280637" data-name="Trazado 280637" d="M470.926,176.719a9.942,9.942,0,0,0-6.134-1.616c-2.041,0-4.362.167-6.108,1.406-1.832,1.3-2.722,3.516-2.722,6.779,0,3.007,3.267,4.732,8.964,4.732,7.566,0,8.7-2.965,8.7-4.732,0-3.008-.907-5.219-2.7-6.569m-6,9.2c-3.316,0-6.86-.69-6.86-2.628,0-3.762,1.381-4.742,1.835-5.063,1.265-.9,3.182-1.018,4.891-1.018,4.778,0,6.726,1.762,6.726,6.081,0,2.372-4.61,2.628-6.592,2.628" transform="translate(-324.799 -124.733)" fill="#3b5620"/>
          <path id="Trazado_280638" data-name="Trazado 280638" d="M470.77,192.065a1.579,1.579,0,1,0,1.579,1.579,1.579,1.579,0,0,0-1.579-1.579" transform="translate(-334.223 -136.815)" fill="#3b5620"/>
          <path id="Trazado_280639" data-name="Trazado 280639" d="M494.724,192.065a1.579,1.579,0,1,0,1.579,1.579,1.579,1.579,0,0,0-1.579-1.579" transform="translate(-351.286 -136.815)" fill="#3b5620"/>
          <path id="Trazado_280640" data-name="Trazado 280640" d="M447.783,151.533a2.85,2.85,0,1,0-2.85,2.85,2.853,2.853,0,0,0,2.85-2.85m-2.85.746a.746.746,0,1,1,.746-.746.746.746,0,0,1-.746.746" transform="translate(-314.913 -105.913)" fill="#3b5620"/>
          <path id="Trazado_280641" data-name="Trazado 280641" d="M511.642,148.683a2.85,2.85,0,1,0,2.85,2.85,2.853,2.853,0,0,0-2.85-2.85m0,3.6a.746.746,0,1,1,.746-.746.746.746,0,0,1-.746.746" transform="translate(-362.432 -105.913)" fill="#3b5620"/>
          <path id="Trazado_280642" data-name="Trazado 280642" d="M249.159,8.32A18.005,18.005,0,0,0,246.881.5a1.052,1.052,0,0,0-1.945.557c0,.529-.745,1.2-1.993,1.8a14.505,14.505,0,0,1-2.395.875c-6.435.922-10.15,5.928-11.4,7.947a25.439,25.439,0,0,0-8.414-1.409h-.082a25.439,25.439,0,0,0-8.414,1.409c-1.255-2.019-4.971-7.027-11.409-7.948-1.81-.455-4.383-1.657-4.383-2.678A1.052,1.052,0,0,0,194.5.5a18,18,0,0,0-2.278,7.824c-.25,4.1.83,10.166,7.269,16a15.463,15.463,0,0,0-.556,3.885c-.589,1.446-3.634,9.7.669,16.3,3.428,5.253,10.523,7.917,21.088,7.917,10.686,0,17.832-2.677,21.239-7.957,4.249-6.585,1.128-14.808.518-16.263a15.469,15.469,0,0,0-.556-3.879c6.439-5.837,7.519-11.9,7.269-16m-54.845.221a16.826,16.826,0,0,1,1.131-5.158,8.04,8.04,0,0,0,2.109,1.383,16.422,16.422,0,0,0,2.819,1.019,1.051,1.051,0,0,0,.106.02c5.245.728,8.5,4.778,9.762,6.675q-.645.3-1.267.628c-1.2-1.34-4.409-4.582-7.558-4.816-1.657-.123-3.284-1.146-3.531-1.749a1.052,1.052,0,0,0-1.989.124c-.077.284-1.735,6.825,5.132,13.943a16.385,16.385,0,0,0-.778,1.542c-4.212-4.066-6.212-8.638-5.938-13.612m7.905,10.264A16.329,16.329,0,0,1,198,11.05a11.59,11.59,0,0,1-.216-1.8,8.255,8.255,0,0,0,3.477,1.142c1.854.137,4.12,2.04,5.528,3.468a13.254,13.254,0,0,0-4.385,4.7c-.062.08-.125.161-.186.242m37.934,24.529c-3,4.634-9.546,6.984-19.464,6.984-9.8,0-16.3-2.34-19.32-6.953-4.013-6.134-.46-14.436-.424-14.518a1.053,1.053,0,0,0,.089-.424,13.6,13.6,0,0,1,1.893-6.872,1.052,1.052,0,0,0,.521-.508c0-.009.261-.544.708-1.29A18.993,18.993,0,0,1,212.042,14a1.069,1.069,0,0,0,.209-.078l.016-.011a23.159,23.159,0,0,1,8.381-1.543h.082a23.157,23.157,0,0,1,8.381,1.543l.017.011a1.069,1.069,0,0,0,.209.078,18.994,18.994,0,0,1,7.884,5.746c.448.746.706,1.284.71,1.293a1.053,1.053,0,0,0,.52.508,13.6,13.6,0,0,1,1.893,6.872,1.059,1.059,0,0,0,.093.433c.037.083,3.678,8.353-.283,14.479m-1.234-24.84c-.273-.446-.6-.944-.975-1.455a10.913,10.913,0,0,0-3.356-3.18c1.408-1.428,3.674-3.33,5.528-3.467a8.252,8.252,0,0,0,3.48-1.145c-.085,2.13-.868,5.7-4.437,9.559-.079-.1-.159-.209-.24-.312m1.429,2.117c6.867-7.118,5.209-13.659,5.132-13.943a1.052,1.052,0,0,0-1.989-.124c-.247.6-1.874,1.626-3.531,1.749-3.148.233-6.358,3.476-7.557,4.816q-.623-.333-1.269-.629c1.252-1.9,4.5-5.943,9.764-6.674a1.007,1.007,0,0,0,.106-.02,16.411,16.411,0,0,0,2.819-1.019,8.03,8.03,0,0,0,2.112-1.386,16.8,16.8,0,0,1,1.123,5.068c.306,5.009-1.693,9.613-5.932,13.7a16.381,16.381,0,0,0-.778-1.542" transform="translate(-136.902 0)" fill="#3b5620"/>
          <path id="Trazado_280643" data-name="Trazado 280643" d="M276.852,106.349a9.942,9.942,0,0,0-6.134-1.616c-2.041,0-4.362.167-6.109,1.406-1.832,1.3-2.722,3.516-2.722,6.779,0,3.007,3.267,4.732,8.964,4.732,7.566,0,8.7-2.965,8.7-4.732,0-3.008-.907-5.219-2.7-6.569m-6,9.2c-3.316,0-6.86-.69-6.86-2.628,0-3.762,1.381-4.742,1.835-5.063,1.265-.9,3.182-1.018,4.891-1.018,4.777,0,6.726,1.762,6.726,6.081,0,2.372-4.61,2.628-6.592,2.628" transform="translate(-186.553 -74.605)" fill="#3b5620"/>
          <path id="Trazado_280644" data-name="Trazado 280644" d="M276.7,121.7a1.579,1.579,0,1,0,1.579,1.579A1.579,1.579,0,0,0,276.7,121.7" transform="translate(-195.976 -86.688)" fill="#3b5620"/>
          <path id="Trazado_280645" data-name="Trazado 280645" d="M300.65,121.7a1.579,1.579,0,1,0,1.579,1.579,1.579,1.579,0,0,0-1.579-1.579" transform="translate(-213.04 -86.688)" fill="#3b5620"/>
          <path id="Trazado_280646" data-name="Trazado 280646" d="M253.709,81.163a2.85,2.85,0,1,0-2.85,2.85,2.853,2.853,0,0,0,2.85-2.85m-2.85.746a.746.746,0,1,1,.746-.746.746.746,0,0,1-.746.746" transform="translate(-176.667 -55.785)" fill="#3b5620"/>
          <path id="Trazado_280647" data-name="Trazado 280647" d="M317.568,78.313a2.85,2.85,0,1,0,2.85,2.85,2.853,2.853,0,0,0-2.85-2.85m0,3.6a.746.746,0,1,1,.746-.746.746.746,0,0,1-.746.746" transform="translate(-224.186 -55.785)" fill="#3b5620"/>
        </g>
      </g>
    </g>
  </g>
</svg>
