<svg xmlns="http://www.w3.org/2000/svg" xmlns:xlink="http://www.w3.org/1999/xlink" width="190" height="195" viewBox="0 0 190 195">
  <defs>
    <linearGradient id="linear-gradient" x1="0.5" x2="0.5" y2="1" gradientUnits="objectBoundingBox">
      <stop offset="0" stop-color="#f9fef5"/>
      <stop offset="1" stop-color="#e7f7f8"/>
    </linearGradient>
    <clipPath id="clip-path">
      <rect id="Rectángulo_326208" data-name="Rectángulo 326208" width="31.745" height="64.173" fill="none"/>
    </clipPath>
    <clipPath id="clip-path-2">
      <rect id="Rectángulo_326208-2" data-name="Rectángulo 326208" width="47.011" height="95.032" fill="none"/>
    </clipPath>
    <clipPath id="clip-path-3">
      <rect id="Rectángulo_326208-3" data-name="Rectángulo 326208" width="44.844" height="90.653" fill="none"/>
    </clipPath>
  </defs>
  <g id="Grupo_1075886" data-name="Grupo 1075886" transform="translate(-180 -11598.811)">
    <g id="Grupo_1075608" data-name="Grupo 1075608">
      <rect id="Rectángulo_378351" data-name="Rectángulo 378351" width="190" height="195" transform="translate(180 11598.811)" fill="url(#linear-gradient)"/>
      <g id="Grupo_262358" data-name="Grupo 262358" transform="translate(0 -565.61)">
        <g id="Grupo_262168" data-name="Grupo 262168">
          <g id="Grupo_262160" data-name="Grupo 262160" transform="translate(243.255 12277.636)">
            <g id="Grupo_262159" data-name="Grupo 262159" clip-path="url(#clip-path)">
              <path id="Trazado_280623" data-name="Trazado 280623" d="M6.883,45.749a1.033,1.033,0,0,0-1.461-.228L.414,49.267a1.033,1.033,0,0,0,1.238,1.655L5.813,47.81l7.11,9.978V63.14a1.033,1.033,0,0,0,2.066,0V60.368L27.374,42.783l2.712,2.063A1.033,1.033,0,1,0,31.337,43.2l-3.565-2.712a1.033,1.033,0,0,0-1.47.227L14.989,56.779V40.15a4.836,4.836,0,0,0,3.192.984,11.994,11.994,0,0,0,4.757-1.119c3.68-1.654,5.133-6.12,5.193-6.309a1.033,1.033,0,0,0-.565-1.256,12.984,12.984,0,0,0-4.776-.985,8.218,8.218,0,0,0-3.389.679,11.634,11.634,0,0,0-4.209,3.065c-.074.091-.136.182-.2.273V30.616a4.836,4.836,0,0,0,3.192.984,11.989,11.989,0,0,0,4.757-1.119c3.68-1.654,5.133-6.119,5.193-6.309a1.033,1.033,0,0,0-.565-1.256,12.99,12.99,0,0,0-4.776-.985,8.218,8.218,0,0,0-3.389.679,11.634,11.634,0,0,0-4.209,3.065c-.074.091-.136.182-.2.273V21.083a4.836,4.836,0,0,0,3.192.984,11.994,11.994,0,0,0,4.757-1.119c3.68-1.654,5.133-6.12,5.193-6.309a1.033,1.033,0,0,0-.565-1.256,12.993,12.993,0,0,0-4.776-.985,8.218,8.218,0,0,0-3.389.679,11.633,11.633,0,0,0-4.209,3.065c-.074.091-.136.182-.2.273v-1.4c2-.689,3.415-3.654,3.415-7.433C18.4,3.551,14.926.4,14.779.264a1.034,1.034,0,0,0-1.378,0C13.253.4,9.775,3.551,9.775,7.586c0,3.607,1.292,6.466,3.148,7.318v1.166a11.713,11.713,0,0,0-4.145-2.992A8.222,8.222,0,0,0,5.389,12.4a13,13,0,0,0-4.776.985A1.034,1.034,0,0,0,.048,14.64c.06.189,1.513,4.655,5.193,6.309A11.991,11.991,0,0,0,10,22.068a5.149,5.149,0,0,0,2.925-.769v4.3a11.71,11.71,0,0,0-4.145-2.992,8.218,8.218,0,0,0-3.389-.679,12.993,12.993,0,0,0-4.776.985,1.034,1.034,0,0,0-.565,1.256c.06.189,1.513,4.655,5.193,6.309A11.991,11.991,0,0,0,10,31.6h0a5.149,5.149,0,0,0,2.925-.769v4.3a11.713,11.713,0,0,0-4.145-2.992,8.218,8.218,0,0,0-3.389-.679,12.986,12.986,0,0,0-4.776.985,1.034,1.034,0,0,0-.565,1.256c.06.189,1.513,4.655,5.193,6.309A12,12,0,0,0,10,41.134h0a5.149,5.149,0,0,0,2.925-.769V54.226Zm9.911-9.234a9.688,9.688,0,0,1,3.455-2.486,6.171,6.171,0,0,1,2.542-.5,10.633,10.633,0,0,1,3,.474,11.749,11.749,0,0,1-.6,1.137,7.439,7.439,0,0,1-3.093,2.987,9.9,9.9,0,0,1-3.91.937c-1.06,0-1.844-.278-2.046-.726-.182-.405.07-1.105.658-1.826m0-9.533A9.689,9.689,0,0,1,20.249,24.5a6.175,6.175,0,0,1,2.542-.5,10.641,10.641,0,0,1,2.994.473A8.314,8.314,0,0,1,22.091,28.6a9.9,9.9,0,0,1-3.91.938c-1.06,0-1.844-.278-2.046-.726-.182-.406.07-1.105.658-1.826m0-9.534a9.688,9.688,0,0,1,3.455-2.486,6.171,6.171,0,0,1,2.542-.5,10.632,10.632,0,0,1,3,.474,11.747,11.747,0,0,1-.6,1.137,7.437,7.437,0,0,1-3.093,2.987,9.893,9.893,0,0,1-3.91.938c-1.06,0-1.844-.278-2.046-.726-.182-.405.07-1.105.658-1.826m-4.751,1.826c-.2.448-.985.726-2.046.726a9.9,9.9,0,0,1-3.91-.938,8.315,8.315,0,0,1-3.695-4.126,10.593,10.593,0,0,1,3-.472,6.175,6.175,0,0,1,2.542.5,9.692,9.692,0,0,1,3.455,2.486c.588.721.84,1.421.658,1.826m0,9.534c-.2.448-.985.726-2.046.726a9.9,9.9,0,0,1-3.91-.938,8.315,8.315,0,0,1-3.694-4.125A10.631,10.631,0,0,1,5.389,24a6.175,6.175,0,0,1,2.542.5,9.689,9.689,0,0,1,3.455,2.486c.588.721.84,1.42.658,1.826m0,9.534c-.2.448-.985.726-2.046.726a9.9,9.9,0,0,1-3.91-.937A8.317,8.317,0,0,1,2.393,34a10.594,10.594,0,0,1,3-.472,6.171,6.171,0,0,1,2.542.5,9.688,9.688,0,0,1,3.455,2.486c.588.721.84,1.421.658,1.827m-.2-30.756a8.317,8.317,0,0,1,2.249-5.061,11.724,11.724,0,0,1,.79,1.016,7.438,7.438,0,0,1,1.457,4.045c0,3.369-1.331,5.519-2.248,5.519s-2.248-2.15-2.248-5.519" transform="translate(0 0)" fill="#3b5620"/>
            </g>
          </g>
          <g id="Grupo_262163" data-name="Grupo 262163" transform="translate(288.39 12207.137)">
            <g id="Grupo_262159-2" data-name="Grupo 262159" clip-path="url(#clip-path-2)">
              <path id="Trazado_280623-2" data-name="Trazado 280623" d="M10.193,67.749a1.53,1.53,0,0,0-2.163-.337L.614,72.959A1.53,1.53,0,0,0,2.447,75.41L8.609,70.8,19.138,85.576V93.5a1.53,1.53,0,0,0,3.06,0V89.4l18.34-26.041,4.016,3.055a1.53,1.53,0,1,0,1.853-2.435L41.127,59.96a1.53,1.53,0,0,0-2.178.336L22.2,84.082V59.457a7.162,7.162,0,0,0,4.727,1.458,17.761,17.761,0,0,0,7.044-1.657c5.45-2.449,7.6-9.062,7.69-9.343a1.529,1.529,0,0,0-.836-1.86A19.228,19.228,0,0,0,33.751,46.6,12.169,12.169,0,0,0,28.731,47.6,17.228,17.228,0,0,0,22.5,52.14c-.11.134-.2.269-.3.4V45.339A7.162,7.162,0,0,0,26.925,46.8a17.754,17.754,0,0,0,7.044-1.657c5.45-2.449,7.6-9.062,7.69-9.342a1.53,1.53,0,0,0-.836-1.86,19.237,19.237,0,0,0-7.072-1.459,12.169,12.169,0,0,0-5.019,1.005A17.228,17.228,0,0,0,22.5,38.022c-.11.135-.2.269-.3.4V31.221a7.162,7.162,0,0,0,4.727,1.458,17.761,17.761,0,0,0,7.044-1.657c5.45-2.449,7.6-9.062,7.69-9.343a1.53,1.53,0,0,0-.836-1.86,19.241,19.241,0,0,0-7.072-1.458,12.169,12.169,0,0,0-5.019,1.005A17.227,17.227,0,0,0,22.5,23.9c-.11.135-.2.27-.3.4V22.241c2.96-1.02,5.057-5.412,5.057-11.007C27.255,5.259,22.1.586,21.886.39a1.531,1.531,0,0,0-2.04,0c-.219.2-5.37,4.869-5.37,10.843,0,5.341,1.914,9.575,4.662,10.837V23.8A17.346,17.346,0,0,0,13,19.365a12.176,12.176,0,0,0-5.019-1A19.245,19.245,0,0,0,.907,19.819a1.531,1.531,0,0,0-.836,1.86c.089.28,2.24,6.894,7.69,9.342a17.758,17.758,0,0,0,7.044,1.657,7.626,7.626,0,0,0,4.332-1.139v6.374A17.341,17.341,0,0,0,13,33.483,12.169,12.169,0,0,0,7.98,32.478,19.241,19.241,0,0,0,.907,33.937,1.531,1.531,0,0,0,.071,35.8c.089.28,2.24,6.894,7.69,9.342A17.757,17.757,0,0,0,14.805,46.8h0a7.625,7.625,0,0,0,4.332-1.139v6.374A17.345,17.345,0,0,0,13,47.6,12.169,12.169,0,0,0,7.98,46.6,19.231,19.231,0,0,0,.907,48.055a1.531,1.531,0,0,0-.836,1.86c.089.28,2.24,6.894,7.69,9.342a17.764,17.764,0,0,0,7.044,1.657h0a7.625,7.625,0,0,0,4.332-1.139V80.3ZM24.87,54.075a14.347,14.347,0,0,1,5.116-3.682,9.138,9.138,0,0,1,3.765-.736,15.747,15.747,0,0,1,4.437.7,17.4,17.4,0,0,1-.893,1.684,11.016,11.016,0,0,1-4.58,4.424,14.656,14.656,0,0,1-5.79,1.388c-1.57,0-2.731-.412-3.029-1.075-.27-.6.1-1.637.974-2.7m0-14.118a14.348,14.348,0,0,1,5.116-3.682,9.145,9.145,0,0,1,3.765-.736,15.759,15.759,0,0,1,4.434.7c-.824,1.78-2.586,4.812-5.47,6.109a14.657,14.657,0,0,1-5.79,1.388c-1.57,0-2.731-.412-3.029-1.075-.27-.6.1-1.637.974-2.7m0-14.118a14.347,14.347,0,0,1,5.116-3.682,9.138,9.138,0,0,1,3.765-.736,15.745,15.745,0,0,1,4.437.7,17.4,17.4,0,0,1-.893,1.684,11.013,11.013,0,0,1-4.58,4.423,14.65,14.65,0,0,1-5.79,1.388c-1.57,0-2.731-.412-3.029-1.075-.27-.6.1-1.637.974-2.7m-7.035,2.7c-.3.663-1.459,1.075-3.03,1.075a14.653,14.653,0,0,1-5.79-1.388C6.13,26.933,4.367,23.9,3.544,22.12a15.687,15.687,0,0,1,4.436-.7,9.145,9.145,0,0,1,3.765.736,14.353,14.353,0,0,1,5.116,3.682c.871,1.067,1.244,2.1.974,2.7m0,14.118c-.3.663-1.459,1.075-3.03,1.075a14.66,14.66,0,0,1-5.79-1.388c-2.884-1.3-4.647-4.329-5.47-6.109a15.744,15.744,0,0,1,4.434-.7,9.145,9.145,0,0,1,3.765.736,14.348,14.348,0,0,1,5.116,3.682c.871,1.067,1.244,2.1.974,2.7m0,14.118c-.3.663-1.459,1.075-3.03,1.075a14.659,14.659,0,0,1-5.79-1.388c-2.886-1.3-4.649-4.332-5.471-6.111a15.689,15.689,0,0,1,4.436-.7,9.138,9.138,0,0,1,3.765.736,14.347,14.347,0,0,1,5.116,3.682c.871,1.067,1.244,2.1.974,2.7m-.3-45.546c0-3.164,2.046-6.015,3.331-7.495a17.362,17.362,0,0,1,1.17,1.5,11.015,11.015,0,0,1,2.158,5.99c0,4.989-1.972,8.172-3.329,8.172s-3.329-3.184-3.329-8.172" transform="translate(0 0)" fill="#3b5620"/>
            </g>
          </g>
          <g id="Grupo_262164" data-name="Grupo 262164" transform="translate(217.311 12182.033)">
            <g id="Grupo_262159-3" data-name="Grupo 262159" clip-path="url(#clip-path-3)">
              <path id="Trazado_280623-3" data-name="Trazado 280623" d="M9.723,64.627a1.46,1.46,0,0,0-2.063-.322L.585,69.6a1.46,1.46,0,0,0,1.749,2.338l5.878-4.4L18.256,81.632v7.561a1.46,1.46,0,0,0,2.919,0V85.277l17.495-24.84L42.5,63.351a1.46,1.46,0,1,0,1.768-2.323L39.232,57.2a1.46,1.46,0,0,0-2.077.321l-15.98,22.69V56.717a6.832,6.832,0,0,0,4.509,1.391,16.943,16.943,0,0,0,6.72-1.581c5.2-2.336,7.251-8.645,7.335-8.912a1.459,1.459,0,0,0-.8-1.774A18.341,18.341,0,0,0,32.2,44.449a11.609,11.609,0,0,0-4.788.959,16.434,16.434,0,0,0-5.946,4.33c-.1.128-.192.257-.287.386V43.249a6.832,6.832,0,0,0,4.509,1.391,16.936,16.936,0,0,0,6.72-1.581c5.2-2.336,7.251-8.644,7.335-8.912a1.459,1.459,0,0,0-.8-1.775A18.35,18.35,0,0,0,32.2,30.982a11.608,11.608,0,0,0-4.788.959,16.434,16.434,0,0,0-5.946,4.33c-.1.129-.192.257-.287.386V29.782a6.832,6.832,0,0,0,4.509,1.391,16.942,16.942,0,0,0,6.72-1.581c5.2-2.336,7.251-8.645,7.335-8.912a1.46,1.46,0,0,0-.8-1.775A18.354,18.354,0,0,0,32.2,17.515a11.609,11.609,0,0,0-4.788.959A16.434,16.434,0,0,0,21.461,22.8c-.1.129-.192.257-.287.386V21.216C24,20.243,26,16.053,26,10.716,26,5.017,21.086.559,20.877.372a1.46,1.46,0,0,0-1.946,0c-.209.187-5.122,4.645-5.122,10.344,0,5.095,1.825,9.134,4.447,10.338V22.7A16.547,16.547,0,0,0,12.4,18.473a11.615,11.615,0,0,0-4.788-.958A18.358,18.358,0,0,0,.866,18.906a1.46,1.46,0,0,0-.8,1.775c.085.267,2.137,6.576,7.335,8.912a16.94,16.94,0,0,0,6.72,1.581,7.274,7.274,0,0,0,4.133-1.087v6.08A16.542,16.542,0,0,0,12.4,31.94a11.609,11.609,0,0,0-4.788-.959A18.354,18.354,0,0,0,.866,32.373a1.46,1.46,0,0,0-.8,1.775c.085.267,2.137,6.576,7.335,8.912a16.939,16.939,0,0,0,6.72,1.581h0a7.274,7.274,0,0,0,4.132-1.087v6.08A16.546,16.546,0,0,0,12.4,45.408a11.609,11.609,0,0,0-4.788-.959A18.345,18.345,0,0,0,.866,45.84a1.46,1.46,0,0,0-.8,1.775c.085.267,2.137,6.576,7.335,8.912a16.946,16.946,0,0,0,6.72,1.581h0a7.274,7.274,0,0,0,4.132-1.087V76.6Zm14-13.044a13.686,13.686,0,0,1,4.88-3.512,8.717,8.717,0,0,1,3.591-.7,15.021,15.021,0,0,1,4.232.669,16.6,16.6,0,0,1-.852,1.606,10.508,10.508,0,0,1-4.369,4.22,13.981,13.981,0,0,1-5.523,1.324c-1.5,0-2.6-.393-2.89-1.026-.257-.573.1-1.562.929-2.58m0-13.467A13.687,13.687,0,0,1,28.6,34.6a8.723,8.723,0,0,1,3.591-.7,15.032,15.032,0,0,1,4.23.669c-.786,1.7-2.466,4.59-5.218,5.827a13.982,13.982,0,0,1-5.523,1.324c-1.5,0-2.6-.393-2.89-1.026-.257-.573.1-1.562.929-2.58m0-13.467a13.686,13.686,0,0,1,4.88-3.512,8.717,8.717,0,0,1,3.591-.7,15.02,15.02,0,0,1,4.232.67,16.594,16.594,0,0,1-.852,1.606,10.505,10.505,0,0,1-4.369,4.22,13.975,13.975,0,0,1-5.523,1.324c-1.5,0-2.6-.393-2.89-1.026-.257-.573.1-1.562.929-2.58m-6.711,2.58c-.285.633-1.392,1.026-2.89,1.026A13.978,13.978,0,0,1,8.6,26.929C5.847,25.692,4.166,22.8,3.381,21.1a14.964,14.964,0,0,1,4.231-.667,8.723,8.723,0,0,1,3.591.7,13.692,13.692,0,0,1,4.88,3.512c.831,1.018,1.187,2.007.929,2.58m0,13.467c-.285.633-1.391,1.026-2.89,1.026A13.985,13.985,0,0,1,8.6,40.4c-2.751-1.237-4.433-4.13-5.218-5.827a15.018,15.018,0,0,1,4.23-.669,8.723,8.723,0,0,1,3.591.7,13.687,13.687,0,0,1,4.88,3.512c.831,1.018,1.187,2.007.929,2.58m0,13.467c-.285.633-1.391,1.025-2.89,1.025A13.984,13.984,0,0,1,8.6,53.864c-2.753-1.237-4.434-4.133-5.219-5.829a14.965,14.965,0,0,1,4.231-.666,8.717,8.717,0,0,1,3.591.7,13.686,13.686,0,0,1,4.88,3.512c.831,1.018,1.187,2.007.929,2.58m-.285-43.447c0-3.018,1.952-5.738,3.177-7.149A16.561,16.561,0,0,1,21.021,5a10.507,10.507,0,0,1,2.058,5.714c0,4.759-1.881,7.8-3.176,7.8s-3.176-3.037-3.176-7.8" transform="translate(0 0)" fill="#3b5620"/>
            </g>
          </g>
        </g>
      </g>
    </g>
  </g>
</svg>
