<svg id="Grupo_262222" data-name="Grupo 262222" xmlns="http://www.w3.org/2000/svg" xmlns:xlink="http://www.w3.org/1999/xlink" width="190.332" height="196.737" viewBox="0 0 190.332 196.737">
  <defs>
    <clipPath id="clip-path">
      <rect id="Rectángulo_326230" data-name="Rectángulo 326230" width="190.332" height="196.737" fill="none"/>
    </clipPath>
    <clipPath id="clip-path-3">
      <rect id="Rectángulo_326211" data-name="Rectángulo 326211" width="163.532" height="94.414" fill="none"/>
    </clipPath>
    <clipPath id="clip-path-5">
      <rect id="Rectángulo_326213" data-name="Rectángulo 326213" width="70.578" height="44.04" fill="none"/>
    </clipPath>
    <clipPath id="clip-path-8">
      <rect id="Rectángulo_326216" data-name="Rectángulo 326216" width="5.683" height="4.02" fill="none"/>
    </clipPath>
    <clipPath id="clip-path-9">
      <rect id="Rectángulo_326217" data-name="Rectángulo 326217" width="2.849" height="2.844" fill="none"/>
    </clipPath>
    <clipPath id="clip-path-10">
      <rect id="Rectángulo_326218" data-name="Rectángulo 326218" width="2.016" height="1.766" fill="none"/>
    </clipPath>
    <clipPath id="clip-path-11">
      <rect id="Rectángulo_326219" data-name="Rectángulo 326219" width="5.332" height="1.67" fill="none"/>
    </clipPath>
    <clipPath id="clip-path-12">
      <rect id="Rectángulo_326220" data-name="Rectángulo 326220" width="2.439" height="3.575" fill="none"/>
    </clipPath>
    <clipPath id="clip-path-13">
      <rect id="Rectángulo_326221" data-name="Rectángulo 326221" width="1.729" height="2.552" fill="none"/>
    </clipPath>
    <clipPath id="clip-path-15">
      <rect id="Rectángulo_326223" data-name="Rectángulo 326223" width="2.848" height="2.844" fill="none"/>
    </clipPath>
    <clipPath id="clip-path-18">
      <rect id="Rectángulo_326226" data-name="Rectángulo 326226" width="2.438" height="3.575" fill="none"/>
    </clipPath>
  </defs>
  <g id="Grupo_262221" data-name="Grupo 262221" clip-path="url(#clip-path)">
    <g id="Grupo_262173" data-name="Grupo 262173">
      <g id="Grupo_262172" data-name="Grupo 262172" clip-path="url(#clip-path)">
        <path id="Trazado_280654" data-name="Trazado 280654" d="M33.154,192.893c0-12.086,7.979-24.159,23.951-33.382,31.929-18.43,83.7-18.43,115.631,0,15.971,9.222,23.951,21.3,23.951,33.382a81.766,81.766,0,1,1-163.532,0" transform="translate(-17.732 -77.921)" fill="#455a64"/>
        <path id="Trazado_280655" data-name="Trazado 280655" d="M197.439,307.771a81.8,81.8,0,0,1-153.555.009c3.96,6.243,10.279,12.1,18.958,17.11,31.932,18.433,83.7,18.433,115.636,0,8.683-5.014,15-10.876,18.962-17.118" transform="translate(-23.471 -164.611)" fill="#37474f"/>
        <path id="Trazado_280656" data-name="Trazado 280656" d="M200.217,370.4a81.767,81.767,0,0,1-116.609,0c.157.1.319.188.48.282,31.932,18.437,83.7,18.437,115.636,0,.166-.094.332-.193.493-.287" transform="translate(-44.718 -198.11)" fill="#263238"/>
        <path id="Trazado_280657" data-name="Trazado 280657" d="M57.1,150.68c-31.931,18.435-31.93,48.325,0,66.761s83.7,18.436,115.635,0,31.93-48.325,0-66.761-83.7-18.435-115.635,0" transform="translate(-17.732 -73.196)" fill="#465729"/>
        <g id="Grupo_262171" data-name="Grupo 262171" transform="translate(15.389 63.675)" opacity="0.5">
          <g id="Grupo_262170" data-name="Grupo 262170">
            <g id="Grupo_262169" data-name="Grupo 262169" clip-path="url(#clip-path-3)">
              <path id="Trazado_280658" data-name="Trazado 280658" d="M57.032,150.719c-31.931,18.436-31.93,48.325,0,66.761s83.7,18.435,115.635,0,31.93-48.325,0-66.761-83.7-18.435-115.635,0" transform="translate(-33.084 -136.892)" fill="#fff"/>
            </g>
          </g>
        </g>
        <path id="Trazado_280659" data-name="Trazado 280659" d="M65.03,231.554a2.9,2.9,0,0,0-.448-.9,3.175,3.175,0,0,0-.427-.446c-.1-.086-.252-.23-.394-.191-.042.012-.04.091-.019.118.094.125.232.207.316.342a1.946,1.946,0,0,1,.152.367,6.7,6.7,0,0,1,.3,1,7.377,7.377,0,0,1,.128.947c.01.159.022.312.04.47a2.066,2.066,0,0,0,.108.428c.016.049.1.135.153.076a1.578,1.578,0,0,0,.284-1.146,3.912,3.912,0,0,0-.2-1.064" transform="translate(-34.085 -123.021)" fill="#909a7f"/>
        <path id="Trazado_280660" data-name="Trazado 280660" d="M68.24,222.889a4.869,4.869,0,0,0-.687,3.061c0,.617,0,1.236.02,1.852a7.308,7.308,0,0,0,.168,1.977c.023.069.165.209.212.08a5.955,5.955,0,0,0,.134-1.829c.011-.607,0-1.215,0-1.822a14.487,14.487,0,0,1,.082-1.644c.059-.514.176-1.02.24-1.533.007-.062-.1-.227-.165-.142" transform="translate(-36.129 -119.199)" fill="#909a7f"/>
        <path id="Trazado_280661" data-name="Trazado 280661" d="M70.981,229.961c-.348.066-.6.464-.756.757a3.709,3.709,0,0,0-.307.842,6.132,6.132,0,0,0-.15,1,1.436,1.436,0,0,0,.144,1.069c.028.035.111.081.155.044.26-.219.195-.647.218-.956a7.171,7.171,0,0,1,.142-1.014,4.649,4.649,0,0,1,.279-.828,3.625,3.625,0,0,0,.347-.786c.007-.042-.009-.144-.074-.131" transform="translate(-37.298 -122.994)" fill="#909a7f"/>
        <path id="Trazado_280662" data-name="Trazado 280662" d="M109.727,176.735a2.9,2.9,0,0,0-.448-.9,3.147,3.147,0,0,0-.427-.446c-.1-.087-.252-.23-.394-.191-.042.012-.04.091-.019.118.094.125.232.207.316.342a1.946,1.946,0,0,1,.152.367,6.706,6.706,0,0,1,.3,1,7.294,7.294,0,0,1,.128.947c.01.159.022.312.04.47a2.065,2.065,0,0,0,.108.428c.016.049.1.134.153.076a1.576,1.576,0,0,0,.284-1.146,3.911,3.911,0,0,0-.2-1.064" transform="translate(-57.991 -93.701)" fill="#909a7f"/>
        <path id="Trazado_280663" data-name="Trazado 280663" d="M112.937,168.07a4.869,4.869,0,0,0-.687,3.061c0,.617,0,1.236.02,1.852a7.308,7.308,0,0,0,.168,1.977c.023.069.165.209.212.08a5.955,5.955,0,0,0,.134-1.829c.011-.607,0-1.215,0-1.822a14.486,14.486,0,0,1,.082-1.644c.059-.514.176-1.02.24-1.533.007-.062-.1-.227-.165-.142" transform="translate(-60.036 -89.88)" fill="#909a7f"/>
        <path id="Trazado_280664" data-name="Trazado 280664" d="M115.678,175.142c-.348.066-.6.464-.756.757a3.71,3.71,0,0,0-.307.842,6.138,6.138,0,0,0-.15,1,1.436,1.436,0,0,0,.144,1.069c.028.035.111.081.155.044.26-.219.195-.647.218-.956a7.225,7.225,0,0,1,.143-1.014,4.641,4.641,0,0,1,.279-.828,3.625,3.625,0,0,0,.347-.786c.007-.042-.009-.144-.074-.131" transform="translate(-61.204 -93.674)" fill="#909a7f"/>
        <path id="Trazado_280665" data-name="Trazado 280665" d="M97.021,183.276a2.554,2.554,0,0,0-.392-.788,2.792,2.792,0,0,0-.374-.39c-.087-.076-.22-.2-.345-.167-.037.01-.034.08-.017.1.082.109.2.181.277.3a1.693,1.693,0,0,1,.133.32,5.771,5.771,0,0,1,.265.874,6.375,6.375,0,0,1,.112.828c.008.139.019.274.035.412a1.818,1.818,0,0,0,.094.374c.014.043.086.118.134.067a1.379,1.379,0,0,0,.248-1,3.414,3.414,0,0,0-.171-.931" transform="translate(-51.283 -97.303)" fill="#909a7f"/>
        <path id="Trazado_280666" data-name="Trazado 280666" d="M99.829,175.7a4.256,4.256,0,0,0-.6,2.678c0,.539,0,1.081.018,1.62a6.372,6.372,0,0,0,.147,1.73c.02.06.144.183.185.069a5.2,5.2,0,0,0,.118-1.6c.009-.531,0-1.062,0-1.594a12.694,12.694,0,0,1,.072-1.438c.052-.45.154-.892.209-1.341.007-.054-.084-.2-.144-.125" transform="translate(-53.071 -93.96)" fill="#909a7f"/>
        <path id="Trazado_280667" data-name="Trazado 280667" d="M102.227,181.883c-.3.059-.526.406-.662.662a3.257,3.257,0,0,0-.268.737,5.425,5.425,0,0,0-.131.878,1.258,1.258,0,0,0,.126.935c.025.031.1.071.136.038.227-.192.171-.566.19-.836a6.326,6.326,0,0,1,.125-.887,4.1,4.1,0,0,1,.244-.725,3.161,3.161,0,0,0,.3-.687c.006-.037-.008-.126-.065-.115" transform="translate(-54.094 -97.28)" fill="#909a7f"/>
        <path id="Trazado_280668" data-name="Trazado 280668" d="M279.017,299.464a2.554,2.554,0,0,0-.392-.788,2.8,2.8,0,0,0-.373-.39c-.087-.075-.221-.2-.345-.167-.037.01-.034.08-.017.1.082.109.2.181.277.3a1.689,1.689,0,0,1,.133.32,5.886,5.886,0,0,1,.265.874,6.391,6.391,0,0,1,.112.828c.008.139.019.274.035.412a1.819,1.819,0,0,0,.094.374c.014.043.086.118.134.067a1.379,1.379,0,0,0,.248-1,3.416,3.416,0,0,0-.171-.931" transform="translate(-148.623 -159.445)" fill="#909a7f"/>
        <path id="Trazado_280669" data-name="Trazado 280669" d="M281.825,291.883a4.259,4.259,0,0,0-.6,2.678c0,.539,0,1.081.018,1.62a6.375,6.375,0,0,0,.147,1.73c.02.06.144.183.186.069a5.216,5.216,0,0,0,.117-1.6c.009-.532,0-1.062,0-1.594a12.689,12.689,0,0,1,.072-1.438c.052-.45.154-.892.209-1.341.007-.054-.084-.2-.144-.124" transform="translate(-150.411 -156.103)" fill="#909a7f"/>
        <path id="Trazado_280670" data-name="Trazado 280670" d="M284.223,298.07c-.3.058-.526.406-.662.662a3.26,3.26,0,0,0-.268.736,5.377,5.377,0,0,0-.131.878,1.258,1.258,0,0,0,.126.935c.025.031.1.071.136.038.227-.192.171-.566.191-.836a6.256,6.256,0,0,1,.124-.887,4.064,4.064,0,0,1,.245-.725,3.17,3.17,0,0,0,.3-.688c.006-.036-.008-.125-.065-.114" transform="translate(-151.434 -159.422)" fill="#909a7f"/>
        <path id="Trazado_280671" data-name="Trazado 280671" d="M298.507,188.72a2.671,2.671,0,0,1,.409-.824,2.946,2.946,0,0,1,.391-.407c.092-.079.23-.21.36-.175.039.011.036.084.018.108-.087.114-.213.19-.289.313a1.772,1.772,0,0,0-.139.335,6.032,6.032,0,0,0-.277.914,6.7,6.7,0,0,0-.117.866c-.009.145-.02.286-.037.43a1.874,1.874,0,0,1-.1.392c-.015.045-.09.123-.14.069a1.44,1.44,0,0,1-.26-1.048,3.577,3.577,0,0,1,.179-.974" transform="translate(-159.559 -100.181)" fill="#909a7f"/>
        <path id="Trazado_280672" data-name="Trazado 280672" d="M296.251,180.8a4.449,4.449,0,0,1,.628,2.8c0,.564,0,1.13-.018,1.693a6.669,6.669,0,0,1-.153,1.809c-.021.063-.151.191-.194.073a5.453,5.453,0,0,1-.123-1.672c-.01-.555,0-1.11,0-1.666a13.3,13.3,0,0,0-.075-1.5c-.054-.471-.161-.932-.219-1.4-.007-.056.088-.207.151-.13" transform="translate(-158.369 -96.687)" fill="#909a7f"/>
        <path id="Trazado_280673" data-name="Trazado 280673" d="M293.254,187.263c.318.061.55.425.692.693a3.375,3.375,0,0,1,.28.77,5.6,5.6,0,0,1,.137.918,1.314,1.314,0,0,1-.132.977c-.026.033-.1.074-.142.04-.238-.2-.178-.592-.2-.874a6.62,6.62,0,0,0-.13-.927,4.272,4.272,0,0,0-.255-.758,3.319,3.319,0,0,1-.318-.719c-.006-.039.008-.132.067-.12" transform="translate(-156.81 -100.157)" fill="#909a7f"/>
        <path id="Trazado_280674" data-name="Trazado 280674" d="M312.732,179.522a2.67,2.67,0,0,1,.409-.824,2.94,2.94,0,0,1,.391-.407c.092-.079.23-.21.36-.175.039.011.036.084.018.108-.087.114-.213.19-.289.313a1.781,1.781,0,0,0-.139.335,6.079,6.079,0,0,0-.276.914,6.707,6.707,0,0,0-.117.866c-.009.145-.02.286-.037.43a1.87,1.87,0,0,1-.1.392c-.015.045-.09.123-.14.069a1.44,1.44,0,0,1-.26-1.048,3.576,3.576,0,0,1,.179-.974" transform="translate(-167.167 -95.262)" fill="#909a7f"/>
        <path id="Trazado_280675" data-name="Trazado 280675" d="M310.477,171.6a4.449,4.449,0,0,1,.628,2.8c0,.564,0,1.13-.018,1.693a6.668,6.668,0,0,1-.154,1.808c-.021.063-.151.191-.194.073a5.452,5.452,0,0,1-.123-1.672c-.01-.555,0-1.11,0-1.666a13.316,13.316,0,0,0-.075-1.5c-.054-.471-.161-.932-.219-1.4-.007-.056.088-.207.151-.13" transform="translate(-165.978 -91.767)" fill="#909a7f"/>
        <path id="Trazado_280676" data-name="Trazado 280676" d="M307.48,178.065c.318.061.55.425.692.693a3.374,3.374,0,0,1,.28.77,5.6,5.6,0,0,1,.137.918,1.312,1.312,0,0,1-.132.977c-.026.033-.1.075-.142.04-.238-.2-.178-.592-.2-.874a6.611,6.611,0,0,0-.13-.927,4.273,4.273,0,0,0-.255-.758,3.316,3.316,0,0,1-.318-.719c-.007-.038.008-.132.067-.12" transform="translate(-164.419 -95.237)" fill="#909a7f"/>
        <path id="Trazado_280677" data-name="Trazado 280677" d="M344.932,230.9a2.539,2.539,0,0,0-.391-.786,2.75,2.75,0,0,0-.373-.389c-.087-.075-.22-.2-.344-.167-.037.01-.034.08-.016.1.082.109.2.181.275.3a1.688,1.688,0,0,1,.133.32,5.776,5.776,0,0,1,.264.872,6.419,6.419,0,0,1,.112.826c.008.139.019.273.035.411a1.785,1.785,0,0,0,.094.374c.014.043.086.118.134.067a1.374,1.374,0,0,0,.248-1,3.416,3.416,0,0,0-.171-.929" transform="translate(-183.879 -122.778)" fill="#909a7f"/>
        <path id="Trazado_280678" data-name="Trazado 280678" d="M347.732,223.344a4.246,4.246,0,0,0-.6,2.67c0,.538,0,1.078.017,1.616a6.358,6.358,0,0,0,.147,1.725c.02.06.144.182.185.069a5.19,5.19,0,0,0,.117-1.6c.009-.53,0-1.06,0-1.589a12.74,12.74,0,0,1,.072-1.435c.052-.449.154-.889.209-1.337.007-.054-.085-.2-.144-.124" transform="translate(-185.663 -119.445)" fill="#909a7f"/>
        <path id="Trazado_280679" data-name="Trazado 280679" d="M350.124,229.515c-.3.058-.525.405-.66.661a3.213,3.213,0,0,0-.267.734,5.394,5.394,0,0,0-.131.875,1.253,1.253,0,0,0,.126.933c.025.031.1.071.135.038.227-.191.17-.565.19-.834a6.226,6.226,0,0,1,.124-.885,4.036,4.036,0,0,1,.244-.722,3.169,3.169,0,0,0,.3-.686c.007-.037-.007-.125-.064-.114" transform="translate(-186.682 -122.756)" fill="#909a7f"/>
        <path id="Trazado_280680" data-name="Trazado 280680" d="M106.427,284.321a2.54,2.54,0,0,0-.391-.786,2.75,2.75,0,0,0-.373-.389c-.087-.075-.22-.2-.344-.167-.037.01-.034.08-.016.1.082.109.2.181.276.3a1.67,1.67,0,0,1,.132.32,5.775,5.775,0,0,1,.264.872,6.33,6.33,0,0,1,.112.826c.008.139.019.273.035.411a1.787,1.787,0,0,0,.094.373c.014.043.086.118.133.067a1.374,1.374,0,0,0,.248-1,3.415,3.415,0,0,0-.171-.929" transform="translate(-56.315 -151.348)" fill="#909a7f"/>
        <path id="Trazado_280681" data-name="Trazado 280681" d="M109.227,276.761a4.247,4.247,0,0,0-.6,2.67c0,.538,0,1.078.017,1.616a6.358,6.358,0,0,0,.147,1.725c.02.06.144.182.185.069a5.192,5.192,0,0,0,.117-1.6c.009-.53,0-1.06,0-1.589a12.74,12.74,0,0,1,.072-1.435c.052-.449.154-.889.209-1.337.007-.054-.085-.2-.144-.124" transform="translate(-58.099 -148.015)" fill="#909a7f"/>
        <path id="Trazado_280682" data-name="Trazado 280682" d="M111.62,282.932c-.3.058-.525.405-.66.661a3.216,3.216,0,0,0-.267.734,5.439,5.439,0,0,0-.131.875,1.253,1.253,0,0,0,.126.933c.025.031.1.071.135.038.227-.191.17-.565.19-.834a6.23,6.23,0,0,1,.124-.885,4.037,4.037,0,0,1,.244-.722,3.192,3.192,0,0,0,.3-.686c.006-.037-.008-.125-.065-.114" transform="translate(-59.118 -151.326)" fill="#909a7f"/>
        <path id="Trazado_280683" data-name="Trazado 280683" d="M293.851,286.967a2.671,2.671,0,0,0-.409-.824,2.943,2.943,0,0,0-.391-.407c-.092-.079-.231-.21-.36-.175-.039.011-.036.084-.018.108.086.114.213.19.289.313a1.751,1.751,0,0,1,.139.335,6.085,6.085,0,0,1,.277.914,6.708,6.708,0,0,1,.117.866c.009.145.02.286.037.43a1.872,1.872,0,0,0,.1.392c.015.045.09.123.14.069a1.441,1.441,0,0,0,.26-1.048,3.576,3.576,0,0,0-.179-.974" transform="translate(-156.529 -152.729)" fill="#909a7f"/>
        <path id="Trazado_280684" data-name="Trazado 280684" d="M296.786,279.043a4.449,4.449,0,0,0-.628,2.8c0,.564,0,1.13.018,1.693a6.67,6.67,0,0,0,.153,1.809c.021.063.151.191.194.073a5.453,5.453,0,0,0,.123-1.672c.01-.555,0-1.11,0-1.666a13.2,13.2,0,0,1,.075-1.5c.054-.471.161-.932.219-1.4.007-.057-.089-.207-.151-.13" transform="translate(-158.399 -149.235)" fill="#909a7f"/>
        <path id="Trazado_280685" data-name="Trazado 280685" d="M299.292,285.511c-.318.061-.55.425-.692.693a3.376,3.376,0,0,0-.281.77,5.654,5.654,0,0,0-.137.918,1.312,1.312,0,0,0,.132.977c.026.033.1.075.142.04.238-.2.178-.592.2-.874a6.615,6.615,0,0,1,.13-.927,4.269,4.269,0,0,1,.255-.758,3.319,3.319,0,0,0,.318-.719c.007-.039-.008-.132-.067-.12" transform="translate(-159.467 -152.705)" fill="#909a7f"/>
      </g>
    </g>
    <g id="Grupo_262178" data-name="Grupo 262178">
      <g id="Grupo_262177" data-name="Grupo 262177" clip-path="url(#clip-path)">
        <path id="Trazado_280686" data-name="Trazado 280686" d="M165.8,87.962c.382,2.978-3.246,5.46-6.4,4.888.191,1.794-2.33,2.825-3.342,1.909,1.012,1.323,2.667,5.5,0,7.778a6.494,6.494,0,0,1-6.1.975s-1.254,3.111-5.99,2.275a6.339,6.339,0,0,1-5.154-7.383c-3.108,1.795-9.426.418-12.259-3.761s-2.6-9.374-.186-11.743a3.915,3.915,0,0,1-.145-5.188,3.023,3.023,0,0,1,2.372-1.054s-1.334-1.54.234-2.585c-2.014-1.175-2.346-4.066-1.743-6.1.661-2.233,3.055-5.16,5.913-4.792a5.052,5.052,0,0,1,2.855-3.894c1.562-.668,3.485-.9,4.8.176a2.483,2.483,0,0,1,.531-3.03,2.583,2.583,0,0,1,3.108-.582c-1.267-1.522-1.3-3.679.57-6.08a9.289,9.289,0,0,1,7.312-3.171,6.267,6.267,0,0,1,3.38.921,2.851,2.851,0,0,1,1.228,3.077,4.908,4.908,0,0,1,9.381,1.595,6.216,6.216,0,0,1,6.492-1.731,5.035,5.035,0,0,1,3.187,5.666c4.669-1.5,7.761,4.823,5.892,8.521,1.647-.951,5.377-.268,5.276,2.876a4.1,4.1,0,0,1,5.108,2.843A4.374,4.374,0,0,1,190.1,75.42c1.592-.232,2.567,2.426,1.5,3.2,3.111,0,5.221,6.515,1.423,8.669,2.182,1.532,3.278,10.839-3.408,14.6s-16.3,1.484-16.787-4.618c-2.833-.7-4.027-3.747-2.123-5.419-1.857.743-4.736-1.579-4.914-3.9" transform="translate(-66.585 -24.922)" fill="#e2f8be"/>
        <g id="Grupo_262176" data-name="Grupo 262176" transform="translate(57.908 36.969)" opacity="0.15">
          <g id="Grupo_262175" data-name="Grupo 262175">
            <g id="Grupo_262174" data-name="Grupo 262174" clip-path="url(#clip-path-5)">
              <path id="Trazado_280687" data-name="Trazado 280687" d="M189.623,119.481c6.687-3.761,5.59-13.068,3.408-14.6,3.8-2.154,1.688-8.669-1.423-8.669,1.064-.778.088-3.436-1.5-3.2a4.375,4.375,0,0,0,2.015-5.051,4.063,4.063,0,0,0-1.969-2.5,4.453,4.453,0,0,1-2.843,6.782,4.809,4.809,0,0,1-4.813-1.573s-.768,1.331-4.187.905a5.032,5.032,0,0,1-4.225-6.514c1.609-2.716-.905-6.034-4.151-5.532.156,6.839-5.761,8.906-11.338,6.236,2.716,6.839-3.219,10.158-6.236,7.141-1.006,2.514-4.325,2.212-5.834.7-1.509,1.609-6.235,0-6.235-3.822-2.816,3.52-7.845,2.514-8.248-1.207-2.143,2.811-4.825,1.233-5.105.127a4.405,4.405,0,0,0,1.894,2.953c-1.568,1.046-.234,2.585-.234,2.585a3.023,3.023,0,0,0-2.372,1.055,3.915,3.915,0,0,0,.145,5.188c-2.415,2.368-2.647,7.563.186,11.742s9.15,5.556,12.259,3.761a6.339,6.339,0,0,0,5.154,7.383c4.736.836,5.99-2.275,5.99-2.275a6.494,6.494,0,0,0,6.1-.975c2.667-2.275,1.012-6.454,0-7.778,1.012.916,3.532-.116,3.342-1.909,3.151.573,6.779-1.91,6.4-4.888.178,2.316,3.057,4.638,4.914,3.9-1.9,1.672-.709,4.722,2.123,5.419.493,6.1,10.1,8.379,16.788,4.618" transform="translate(-124.492 -79.477)"/>
            </g>
          </g>
        </g>
        <path id="Trazado_280688" data-name="Trazado 280688" d="M153.365,114.177s-6.006,1.779-7.674-2.521c-3.061,1.767-8.785,1.335-10.713-2.521-3.262,0-5.216-3.467-5.216-3.467-1.568,1.046-.234,2.585-.234,2.585a3.025,3.025,0,0,0-2.372,1.054,3.916,3.916,0,0,0,.145,5.188,5.25,5.25,0,0,0-.687.849c-1,2.617,2.44,4.61,4.583,3.354-.816,2.669,2.224,10.676,10.676,7.34,5.041,3.188,10.157-.668,9.49-7.71,2.513,0,3.707-2.743,2-4.152" transform="translate(-67.519 -56.516)" fill="#717c5f"/>
        <path id="Trazado_280689" data-name="Trazado 280689" d="M224.519,118.205a7.751,7.751,0,0,0,1.853-6.3s-2.542,3.691-7.858,1.428-2.447-7.507-2.447-7.507-4.078.332-3.336-3.244c-1.317.657-3.336-.092-3.336-2.687-.586,4.493-4.369,6.666-9.119,5.634,3.187,1.186,2.965,3.656.741,5.424-2.515,2.515-2.209,8.82,3.824,8.593a3.806,3.806,0,0,0,1.091-3.076c.178,2.316,3.057,4.638,4.914,3.9,0,0,1.736,1.548,3.812-.454,1.52,1.52,7.269,1.381,9.861-1.705" transform="translate(-106.719 -53.428)" fill="#717c5f"/>
        <path id="Trazado_280690" data-name="Trazado 280690" d="M198.657,145.087s4.752-6.941,4.489-7.482-4.489,6.36-7.108,8.23-7.856,5.05-9.166,5.05-1.4-1.59-.935-4.676.571-3.928,2.717-6.734,8.3-10.4,7.944-10.756-8.159,9.611-10.1,10.849c-1.9,1.209-3.563-6.921-4.209-6.921s1.857,5.819,2.014,8.531-.144,5.966-1.359,6.807-4.536-1.777-6.687-4.115-2.2-12.439-3.04-12.439.542,9.271.542,10.166c0,1.95-8.221-3.39-9.708-3.151s7.569,3.468,11.13,6.921c3.1,3.008,3.631,3.955,4.689,6.182,1.123,2.365,1.45,6.761,1.45,15.459a91.754,91.754,0,0,1-2.343,18.261,2.4,2.4,0,0,0,1.417,1.975,7.563,7.563,0,0,0,6.842,0,2.4,2.4,0,0,0,1.417-1.975,89.721,89.721,0,0,1-2.343-18.261c0-8.7.352-13.29,2.935-15.127s6.992-5.089,8.943-5.672,7.575.375,7.575,0-7.108-1.122-7.108-1.122" transform="translate(-87.656 -68.841)" fill="#37474f"/>
      </g>
    </g>
    <g id="Grupo_262180" data-name="Grupo 262180">
      <g id="Grupo_262179" data-name="Grupo 262179" clip-path="url(#clip-path)">
        <path id="Trazado_280691" data-name="Trazado 280691" d="M267.759,244.715l-12.181,7.032a11.625,11.625,0,0,1-10.521,0l-1.347-.777c-2.906-1.678-2.9-4.4,0-6.07l12.2-7.028a11.641,11.641,0,0,1,10.524,0l1.323.764c2.9,1.678,2.9,4.4,0,6.075" transform="translate(-129.183 -126.555)" fill="#909a7f"/>
        <path id="Trazado_280692" data-name="Trazado 280692" d="M109,228.487l12.18,7.032a11.626,11.626,0,0,0,10.522,0l1.347-.777c2.906-1.678,2.9-4.4,0-6.07l-12.2-7.028a11.643,11.643,0,0,0-10.525,0l-1.323.764c-2.905,1.677-2.905,4.4,0,6.075" transform="translate(-57.131 -117.875)" fill="#909a7f"/>
      </g>
    </g>
    <g id="Grupo_262218" data-name="Grupo 262218">
      <g id="Grupo_262217" data-name="Grupo 262217" clip-path="url(#clip-path)">
        <path id="Trazado_280693" data-name="Trazado 280693" d="M292.974,204.9a3.833,3.833,0,0,1,2.819,3.17c.327,1.9-.52,4.211-.592,5.706s.434,2.536,1.761,2.853c-.849.133-1.935-.487-2.085-2.219-.147-1.687.574-4.173.518-5.476-.06-1.4-.752-2.484-1.336-2.132-.841-.148-1.157-.529-1.084-1.9" transform="translate(-156.692 -109.592)" fill="#ebebeb"/>
        <path id="Trazado_280694" data-name="Trazado 280694" d="M297.885,227.495a1.07,1.07,0,0,1,1.18.321c.411.405.693.9,1.487.877a.763.763,0,0,0,.8-.535,1.418,1.418,0,0,1-.17.885,2.038,2.038,0,0,1-2.3.625c-1.068-.3-1.644-1.484-1.236-1.986.082.053.293-.084.243-.187" transform="translate(-159.123 -121.635)" fill="#263238"/>
        <path id="Trazado_280695" data-name="Trazado 280695" d="M252.1,255.52a.985.985,0,0,1-.141.931,2.393,2.393,0,0,1-1.29.924c-.511.12-.5-.019-.493-.2s.042-.747.042-.747-.237.509-.326.682-.229.026-.3-.4a2.252,2.252,0,0,1,.16-1.318,1.428,1.428,0,0,1,1.6-.737c.408.132.51.367.754.864" transform="translate(-133.474 -136.182)" fill="#263238"/>
        <path id="Trazado_280696" data-name="Trazado 280696" d="M253.683,234.851l-.176,3.35c-.852-.037-1.259.9-1.189,1.537a2.5,2.5,0,0,1-.094,1.3,4.4,4.4,0,0,0-.075,2.087c.126.956.293,1.342.327,1.76a1.708,1.708,0,0,1-1.879.332c-.611-.387-.286-.88-.036-1.906a6.375,6.375,0,0,0,.261-2.641c-.067-.672.237-1.077.271-1.673a39.383,39.383,0,0,1-.375-3.931s.667-.588,2.966-.212" transform="translate(-133.844 -125.543)" fill="#ebebeb"/>
        <path id="Trazado_280697" data-name="Trazado 280697" d="M250.643,251.581a.71.71,0,0,1-.308-.344c.288.314,1.1.149,1.426-.483a2.368,2.368,0,0,0,.069-1.8c-.14-.746-.176-.93-.008-1.282.205-.434.529-.444.582-1.04a2.288,2.288,0,0,1-.133.77,4.4,4.4,0,0,0-.075,2.087c.126.956.293,1.341.327,1.76a1.709,1.709,0,0,1-1.879.332" transform="translate(-133.892 -131.911)" fill="#e0e0e0"/>
        <path id="Trazado_280698" data-name="Trazado 280698" d="M254.223,234.851l-.176,3.35a.989.989,0,0,0-.719.257,8.545,8.545,0,0,1-.952-.59,3.507,3.507,0,0,1-1.12-2.8l.509-.22a6.012,6.012,0,0,1,2.457.008" transform="translate(-134.385 -125.543)" fill="#e0e0e0"/>
        <path id="Trazado_280699" data-name="Trazado 280699" d="M281.723,236.721a.985.985,0,0,1-.221.915,2.394,2.394,0,0,1-1.366.808c-.52.074-.5-.063-.474-.239s.107-.741.107-.741-.28.486-.383.651-.231.007-.267-.428a2.256,2.256,0,0,1,.274-1.3,1.429,1.429,0,0,1,1.655-.594c.395.167.475.487.676.927" transform="translate(-149.28 -126.078)" fill="#263238"/>
        <path id="Trazado_280700" data-name="Trazado 280700" d="M277.535,204.773c.284,2.039,0,3.077-.316,5.617-.2,1.623,1.408,3.784,1.546,4.038.183.337-.018.813-.207,1.282a6.368,6.368,0,0,0-.622,2.657c.042.964.175,1.362.173,1.782a1.709,1.709,0,0,1-1.9.167c-.575-.438-.317-.945.13-1.9,1.132-2.423,1.137-2.735.92-3.374a1.238,1.238,0,0,0-.534-.756c-.528-.44-4.571-1.293-4.368-3.015,0,0,2.923-7.072,5.18-6.5" transform="translate(-145.665 -109.505)" fill="#ebebeb"/>
        <path id="Trazado_280701" data-name="Trazado 280701" d="M280.063,231.846a.922.922,0,0,0,1.308-.006c.326-.41.268-.967.164-2.078a2.491,2.491,0,0,1,.427-1.9c.245-.4.712-.594.96-.971a5.248,5.248,0,0,1-.236.664,6.376,6.376,0,0,0-.622,2.657c.042.964.176,1.362.173,1.782a1.707,1.707,0,0,1-1.9.167.848.848,0,0,1-.272-.32" transform="translate(-149.792 -121.355)" fill="#e0e0e0"/>
        <path id="Trazado_280702" data-name="Trazado 280702" d="M278.785,228.165c1.565,2.314,4.83,1.321,5.683-.839-.04-1.266-2.451-2.41-3.857-1.564a4.425,4.425,0,0,0-1.825,2.4" transform="translate(-149.108 -120.593)" fill="#ba68c8"/>
        <g id="Grupo_262183" data-name="Grupo 262183" transform="translate(129.677 104.878)" opacity="0.6">
          <g id="Grupo_262182" data-name="Grupo 262182">
            <g id="Grupo_262181" data-name="Grupo 262181" clip-path="url(#clip-path-8)">
              <path id="Trazado_280703" data-name="Trazado 280703" d="M278.785,228.165c1.565,2.314,4.83,1.321,5.683-.839-.04-1.266-2.451-2.41-3.857-1.564a4.425,4.425,0,0,0-1.825,2.4" transform="translate(-278.785 -225.472)" fill="#fff"/>
            </g>
          </g>
        </g>
        <path id="Trazado_280704" data-name="Trazado 280704" d="M294.842,244.308a.985.985,0,0,1-.221.915,2.394,2.394,0,0,1-1.366.808c-.52.074-.5-.062-.474-.239s.107-.741.107-.741-.28.486-.384.651-.23.007-.267-.428a2.254,2.254,0,0,1,.274-1.3,1.429,1.429,0,0,1,1.655-.595c.395.167.475.487.676.927" transform="translate(-156.297 -130.136)" fill="#263238"/>
        <path id="Trazado_280705" data-name="Trazado 280705" d="M265.065,262.861a.986.986,0,0,1-.141.931,2.39,2.39,0,0,1-1.29.924c-.511.12-.5-.019-.493-.2s.042-.747.042-.747-.237.509-.326.682-.229.026-.3-.4a2.249,2.249,0,0,1,.16-1.318,1.428,1.428,0,0,1,1.6-.737,1.385,1.385,0,0,1,.754.864" transform="translate(-140.406 -140.108)" fill="#263238"/>
        <path id="Trazado_280706" data-name="Trazado 280706" d="M249.5,209.406c.755.213,2.648.327,5.691-1.555a17.51,17.51,0,0,0,3.69-3.4c1.842-1.953,3.1-2.929,5.685-2.963a6.177,6.177,0,0,1,5.535,3.132,6.254,6.254,0,0,1,.6,1.845h0c.284,2.039-.121,3.172-.438,5.712-.2,1.622,1.408,3.784,1.546,4.037.184.338-.018.814-.207,1.282a6.375,6.375,0,0,0-.622,2.657c.042.964.176,1.362.173,1.782a1.708,1.708,0,0,1-1.9.167c-.575-.438-.317-.945.13-1.9,1.133-2.423,1.138-2.735.92-3.374a1.237,1.237,0,0,0-.534-.755c-.332-.277-2.143-.687-3.392-1.381h0c-2.9-.265-3.076,2.914-5.909,5.459a8.2,8.2,0,0,1-2.109,1.465,8.221,8.221,0,0,0-1.249,3.758,2.5,2.5,0,0,1-.094,1.3,4.4,4.4,0,0,0-.075,2.087c.126.956.293,1.341.327,1.76a1.708,1.708,0,0,1-1.879.332c-.611-.386-.286-.88-.036-1.906a6.375,6.375,0,0,0,.261-2.641c-.067-.672.237-1.077.271-1.673.027-.477-.505-1.63-.693-2.96l-.017,0c-1.642-.29-2.129-.98-3.784-1.659a3.37,3.37,0,0,1-1.964-3.34c-.02-1.1-.657-1.279-1.5-1.073Z" transform="translate(-132.601 -107.768)" fill="#fafafa"/>
        <path id="Trazado_280707" data-name="Trazado 280707" d="M263.653,225.132a.652.652,0,0,0-.186.306c-.021.1,0,.213-.01.318-.032.286-.3.479-.559.608a1.449,1.449,0,0,0-.683.5.878.878,0,0,0,.171.948,3.888,3.888,0,0,0,.8.629,2.64,2.64,0,0,1,.967,1.093c.084.2.131.415.229.61a1.253,1.253,0,0,0,.812.654,1.142,1.142,0,0,0,1.006-.245,2.478,2.478,0,0,0,.538-.907,2.392,2.392,0,0,1,.775-1.066c.257-.173.587-.275.741-.544a.849.849,0,0,0-.154-.923,4.426,4.426,0,0,0-.764-.634,1.338,1.338,0,0,1-.56-.794c-.03-.19.009-.387-.033-.574-.284-1.252-2.536-.571-3.095.017" transform="translate(-140.204 -120.026)" fill="#37474f"/>
        <path id="Trazado_280708" data-name="Trazado 280708" d="M268.72,217.275a.568.568,0,0,0-.235.558.509.509,0,0,0,.354.279,2.315,2.315,0,0,1,.447.137c.437.234.467.9.891,1.162a.89.89,0,0,0,.96-.11,1.1,1.1,0,0,0,.444-.678.8.8,0,0,0-.259-.749c-.133-.108-.3-.164-.434-.273a3.536,3.536,0,0,1-.381-.487c-.534-.631-1.283-.3-1.788.161" transform="translate(-143.589 -115.936)" fill="#37474f"/>
        <path id="Trazado_280709" data-name="Trazado 280709" d="M269.861,204.615c-.57.6-1.022,1.081-1.407,1.474a2.465,2.465,0,0,0,2.489-.664,2.709,2.709,0,0,1,.368-.383,2.146,2.146,0,0,1,1.507-.139,4.916,4.916,0,0,0,1.043-.007,1.26,1.26,0,0,0,.708-.252.741.741,0,0,0,.134-.918c-.132-.21-.379-.373-.382-.62,0-.176.123-.326.172-.494a.727.727,0,0,0-.2-.687.986.986,0,0,0-.166-.133c-1.7.332-2.8,1.266-4.267,2.824" transform="translate(-143.583 -107.928)" fill="#37474f"/>
        <path id="Trazado_280710" data-name="Trazado 280710" d="M285.38,210.144a3.127,3.127,0,0,0-1.825.085,1.715,1.715,0,0,0-.754.484,1.324,1.324,0,0,0,.313,1.861,7.981,7.981,0,0,1,1.11.59c.134.125.234.284.367.41.6.568,1.592.261,2.218.807a.446.446,0,0,0,.267.153c.3,0,.637-.688.773-.908a2.236,2.236,0,0,0,.25-.492c.184-.582-.125-1.215-.032-1.819.037-.242.138-.47.178-.711a1.759,1.759,0,0,0-.749-1.766,1.433,1.433,0,0,0-2.052,1.324l-.063-.017" transform="translate(-151.119 -111.606)" fill="#37474f"/>
        <path id="Trazado_280711" data-name="Trazado 280711" d="M289.554,222.656c.039.076.124.118.172.189.1.149,0,.36.073.524a.423.423,0,0,0,.351.208,3.912,3.912,0,0,1,.425.031.388.388,0,0,0,.238.018.268.268,0,0,0,.124-.176.435.435,0,0,0-.047-.433c-.08-.082-.205-.1-.294-.173-.207-.165-.339-.475-.624-.543-.186-.045-.541.114-.419.354" transform="translate(-154.855 -118.894)" fill="#37474f"/>
        <path id="Trazado_280712" data-name="Trazado 280712" d="M249.418,231.361c-.02-1.1-.661-1.28-1.5-1.073l.249-1.332,1.441.211c0,.828,1.946.864,3.182,1.816a6.3,6.3,0,0,1,2.328,4.361,3.971,3.971,0,0,1,.045,1.015c-1.642-.29-2.129-.979-3.784-1.659a3.371,3.371,0,0,1-1.963-3.34" transform="translate(-132.6 -122.457)" fill="#f0f0f0"/>
        <path id="Trazado_280713" data-name="Trazado 280713" d="M253.061,220.946c.037-.378.008-.761.066-1.135a1.305,1.305,0,0,1,.33-.737,2.832,2.832,0,0,1,1-.466c.344-.139.693-.446.63-.812-.05-.3-.347-.48-.625-.6a4.335,4.335,0,0,0-.812-.242,6.2,6.2,0,0,1-4.154.721l-1.575,6.193c.781-.192,1.379-.038,1.477.864a.788.788,0,0,0,.432.024.751.751,0,0,0,.487-.512,1.618,1.618,0,0,0,.024-.73,1.123,1.123,0,0,1,.017-.681.756.756,0,0,1,.422-.331c.606-.231,1.363-.1,1.846-.536a1.551,1.551,0,0,0,.433-1.024" transform="translate(-132.601 -116.04)" fill="#37474f"/>
        <path id="Trazado_280714" data-name="Trazado 280714" d="M248.381,230.235c.031,0,.064-.006.094-.005a1.251,1.251,0,0,1,.186.019c.017,0,.036,0,.053.007a.881.881,0,0,1,.18.06c.009,0,.02.007.028.012a.739.739,0,0,1,.162.111l.013.011a.8.8,0,0,1,.136.169l0,.007a1.068,1.068,0,0,1,.1.234v0a1.617,1.617,0,0,1,.059.3h0a.788.788,0,0,0,.432.024.751.751,0,0,0,.487-.512,1.618,1.618,0,0,0,.023-.73l-.01-.063c-.428-.182-.72-.384-.72-.7l-1.354-.2-.336,1.32a2.712,2.712,0,0,1,.288-.055c.06-.008.115-.009.171-.012" transform="translate(-132.6 -122.471)" fill="#263238"/>
        <path id="Trazado_280715" data-name="Trazado 280715" d="M284.206,226.935c.141-.544-.211-1.066.088-1.783a2.842,2.842,0,0,0,1.211,2.2,2.64,2.64,0,0,0-1.8.421h0a1.678,1.678,0,0,0,.506-.835" transform="translate(-151.737 -120.422)" fill="#f0f0f0"/>
        <path id="Trazado_280716" data-name="Trazado 280716" d="M263.6,258.921a.707.707,0,0,1-.308-.344c.288.314,1.1.149,1.426-.483a2.369,2.369,0,0,0,.068-1.8c-.14-.746-.176-.929-.008-1.282.205-.434.529-.444.582-1.04a2.288,2.288,0,0,1-.133.77,4.394,4.394,0,0,0-.075,2.087c.126.956.293,1.341.327,1.76a1.709,1.709,0,0,1-1.879.332" transform="translate(-140.824 -135.837)" fill="#f0f0f0"/>
        <path id="Trazado_280717" data-name="Trazado 280717" d="M293.181,239.433a.923.923,0,0,0,1.308-.005c.326-.411.268-.968.164-2.078a2.491,2.491,0,0,1,.427-1.9c.245-.4.712-.593.96-.971a5.239,5.239,0,0,1-.236.664,6.383,6.383,0,0,0-.622,2.657c.042.964.176,1.362.173,1.782a1.708,1.708,0,0,1-1.9.167.849.849,0,0,1-.272-.32" transform="translate(-156.808 -125.413)" fill="#f0f0f0"/>
        <path id="Trazado_280718" data-name="Trazado 280718" d="M271.087,241.4a5.5,5.5,0,0,1-.742.4,11,11,0,0,0,1.2-2.574,7.094,7.094,0,0,1-.459,2.171" transform="translate(-144.594 -127.953)" fill="#f0f0f0"/>
        <path id="Trazado_280719" data-name="Trazado 280719" d="M241.9,215.846c-.7-.589-.485-1.585-.741-1.482a1.781,1.781,0,0,0-.552,1.917c.283.713,1.512.165,1.294-.436" transform="translate(-128.652 -114.649)" fill="#f5f5f5"/>
        <path id="Trazado_280720" data-name="Trazado 280720" d="M239.355,217.388l.042-.161a2.661,2.661,0,0,1-.738.164c-.423.033-1.9.17-2.134,2.493Z" transform="translate(-126.505 -116.184)" fill="#37474f"/>
        <path id="Trazado_280721" data-name="Trazado 280721" d="M239.334,217.574c-.335.271-.983.28-1.351.424a2.261,2.261,0,0,0-1,.88,3.05,3.05,0,0,0-.5,1.407c.012.285.231.052.417-.1s1.122-.3,1.431-.61c.644-.646.459-1.1.82-1.315Z" transform="translate(-126.484 -116.369)" fill="#ba68c8"/>
        <g id="Grupo_262186" data-name="Grupo 262186" transform="translate(110.001 101.205)" opacity="0.5">
          <g id="Grupo_262185" data-name="Grupo 262185">
            <g id="Grupo_262184" data-name="Grupo 262184" clip-path="url(#clip-path-9)">
              <path id="Trazado_280722" data-name="Trazado 280722" d="M239.334,217.574c-.335.271-.983.28-1.351.424a2.261,2.261,0,0,0-1,.88,3.05,3.05,0,0,0-.5,1.407c.012.285.231.052.417-.1s1.122-.3,1.431-.61c.644-.646.459-1.1.82-1.315Z" transform="translate(-236.485 -217.574)" fill="#fff"/>
            </g>
          </g>
        </g>
        <g id="Grupo_262189" data-name="Grupo 262189" transform="translate(110.269 101.834)" opacity="0.2">
          <g id="Grupo_262188" data-name="Grupo 262188">
            <g id="Grupo_262187" data-name="Grupo 262187" clip-path="url(#clip-path-10)">
              <path id="Trazado_280723" data-name="Trazado 280723" d="M237.793,219.391a2.164,2.164,0,0,1,.525-.3,2.189,2.189,0,0,1,.756-.166s.005.008,0,.009a5.228,5.228,0,0,0-.672.263,1.96,1.96,0,0,0-.548.358,2.729,2.729,0,0,0-.662.836,1.3,1.3,0,0,1,.325-.346,1.109,1.109,0,0,1,.25-.135,1.014,1.014,0,0,1,.282-.066c.01,0,.013.021,0,.025a1.968,1.968,0,0,0-.511.3,1.568,1.568,0,0,0-.234.237c-.014.017-.027.036-.04.054a1,1,0,0,1,.122-.054,3.443,3.443,0,0,1,.41-.107,2.082,2.082,0,0,0,.35-.111.739.739,0,0,0,.152-.085.94.94,0,0,1,.118-.1v0a.513.513,0,0,1-.223.27,1.115,1.115,0,0,1-.362.162c-.133.037-.268.064-.4.1a1.063,1.063,0,0,0-.341.15c-.015.01-.023,0-.027-.015,0,0-.009-.009-.008-.013a2.237,2.237,0,0,1,.731-1.268" transform="translate(-237.062 -218.926)" fill="#ba68c8"/>
            </g>
          </g>
        </g>
        <path id="Trazado_280724" data-name="Trazado 280724" d="M240.342,217.128a5.1,5.1,0,0,1,2.3.494c.522.36.374.946.612,1.448a2.858,2.858,0,0,1,.147,1.078,4.025,4.025,0,0,1-.644,2.545,2.586,2.586,0,0,1-1.69,1.121,4.619,4.619,0,0,0-1.648.741,5.477,5.477,0,0,1-1.887,1.267,2.258,2.258,0,0,1-1.86-.5,2.172,2.172,0,0,1-.561-1.472.832.832,0,0,1,.552-.951,6.322,6.322,0,0,0,1.25-2.071,9.534,9.534,0,0,1,.644-3,1.621,1.621,0,0,1,1.451-.972c.408,0,.814.209,1.337.275" transform="translate(-125.744 -115.984)" fill="#455a64"/>
        <path id="Trazado_280725" data-name="Trazado 280725" d="M238.854,229.112a.826.826,0,0,1,.828,1.047c.21-.1.217-.467.158-.683-.1-.377-.264-.349.006-.881s.876-1.855.876-1.855-.778,1.261-1.036,1.667c-.384.6-.761.466-.832.706" transform="translate(-127.751 -121.272)" fill="#37474f"/>
        <path id="Trazado_280726" data-name="Trazado 280726" d="M236.666,232.168c.218.063.32-.051.593.02a.531.531,0,0,1,.406.517c0,.22-.147.256-.249.241-.034-.192-.179-.291-.233-.192s-.02.22-.527.277a1.23,1.23,0,0,1-.495-.59c-.063-.2-.253-.159-.225,0a.468.468,0,0,1-.223-.452.3.3,0,0,1,.388-.206c.283.077.351.325.563.386" transform="translate(-126.07 -123.962)" fill="#263238"/>
        <path id="Trazado_280727" data-name="Trazado 280727" d="M245.033,224.767a1.116,1.116,0,0,1,.418-.1.8.8,0,0,1,.24.022.5.5,0,0,1,.187.09c.008.007.017.036,0,.035a1.823,1.823,0,0,0-.237,0,2.068,2.068,0,0,0-.242.02.918.918,0,0,0-.317.087,1.175,1.175,0,0,0-.282.206c-.123.107-.14.127-.232.2-.007.006-.016-.011-.015-.016a.829.829,0,0,1,.479-.547" transform="translate(-130.8 -120.163)" fill="#263238"/>
        <path id="Trazado_280728" data-name="Trazado 280728" d="M245.424,225.262a.334.334,0,1,0,.334-.334.334.334,0,0,0-.334.334" transform="translate(-131.265 -120.303)" fill="#263238"/>
        <g id="Grupo_262192" data-name="Grupo 262192" transform="translate(112.02 100.869)" opacity="0.1">
          <g id="Grupo_262191" data-name="Grupo 262191">
            <g id="Grupo_262190" data-name="Grupo 262190" clip-path="url(#clip-path-11)">
              <path id="Trazado_280729" data-name="Trazado 280729" d="M240.826,217.517a1.486,1.486,0,0,1,1.241-.664c.408,0,.814.21,1.337.275a5.1,5.1,0,0,1,2.3.494,1.2,1.2,0,0,1,.457.892l0,.009c-.325-.7-.721-.973-2.336-.862-.968.067-1.118.1-1.61-.306a.983.983,0,0,0-1.382.161" transform="translate(-240.826 -216.853)" fill="#fff"/>
            </g>
          </g>
        </g>
        <path id="Trazado_280730" data-name="Trazado 280730" d="M249.874,217.616c.907-.113,1.27-1.066,1.428-.839a1.781,1.781,0,0,1-.581,1.909c-.626.443-1.358-.684-.848-1.07" transform="translate(-133.553 -115.925)" fill="#f5f5f5"/>
        <path id="Trazado_280731" data-name="Trazado 280731" d="M249.65,219.33s-.034-.28.2-.121a1.773,1.773,0,0,0,.725.313,2.071,2.071,0,0,1,1.512,1.082,2.546,2.546,0,0,1-.031,2.252Z" transform="translate(-133.524 -117.218)" fill="#37474f"/>
        <path id="Trazado_280732" data-name="Trazado 280732" d="M249.652,219.525c.2.216,1.334.631,1.733,1.023a2.5,2.5,0,0,1,.657,1.494,2.963,2.963,0,0,1,.013,1.01c-.032.2-.334-.249-.72-.533s-1.143-.721-1.255-1.3-.071-.8-.329-1.095Z" transform="translate(-133.526 -117.413)" fill="#ba68c8"/>
        <path id="Trazado_280733" data-name="Trazado 280733" d="M249.652,219.525c.2.216,1.334.631,1.733,1.023a2.5,2.5,0,0,1,.657,1.494,2.963,2.963,0,0,1,.013,1.01c-.032.2-.334-.249-.72-.533s-1.143-.721-1.255-1.3-.071-.8-.329-1.095Z" transform="translate(-133.526 -117.413)" fill="#ba68c8"/>
        <g id="Grupo_262195" data-name="Grupo 262195" transform="translate(116.126 102.112)" opacity="0.5">
          <g id="Grupo_262194" data-name="Grupo 262194">
            <g id="Grupo_262193" data-name="Grupo 262193" clip-path="url(#clip-path-12)">
              <path id="Trazado_280734" data-name="Trazado 280734" d="M249.652,219.525c.2.216,1.334.631,1.733,1.023a2.5,2.5,0,0,1,.657,1.494,2.963,2.963,0,0,1,.013,1.01c-.032.2-.334-.249-.72-.533s-1.143-.721-1.255-1.3-.071-.8-.329-1.095Z" transform="translate(-249.652 -219.525)" fill="#fff"/>
            </g>
          </g>
        </g>
        <g id="Grupo_262198" data-name="Grupo 262198" transform="translate(116.568 102.71)" opacity="0.2">
          <g id="Grupo_262197" data-name="Grupo 262197">
            <g id="Grupo_262196" data-name="Grupo 262196" clip-path="url(#clip-path-13)">
              <path id="Trazado_280735" data-name="Trazado 280735" d="M250.61,220.836c-.008-.007-.011-.032.006-.024a2.914,2.914,0,0,1,1.263.824,2.64,2.64,0,0,1,.281.561,2.846,2.846,0,0,1,.144.591,3.029,3.029,0,0,1,.025.3c0,.032.013.28-.025.27a.042.042,0,0,1-.023-.02,1.034,1.034,0,0,0-.3-.3c-.125-.079-.259-.14-.378-.229a2.165,2.165,0,0,1-.324-.3,1.448,1.448,0,0,1-.142-.189.276.276,0,0,1-.061-.169s0,0,.005,0c.04.047.065.105.106.153a1.758,1.758,0,0,0,.163.159,2.166,2.166,0,0,0,.386.268,2.728,2.728,0,0,1,.378.229l.013.012c-.011-.023-.021-.047-.033-.069a4.124,4.124,0,0,0-.218-.395,4.985,4.985,0,0,0-.593-.748,1.557,1.557,0,0,1,.7.647,3.015,3.015,0,0,1,.218.428l.016.04a2.778,2.778,0,0,0-.5-1.229,6.3,6.3,0,0,0-1.1-.816" transform="translate(-250.603 -220.81)" fill="#ba68c8"/>
            </g>
          </g>
        </g>
        <path id="Trazado_280736" data-name="Trazado 280736" d="M111.847,188.673a3.832,3.832,0,0,0-2.819,3.17c-.327,1.9.52,4.211.592,5.706s-.434,2.536-1.761,2.853c.849.133,1.935-.487,2.085-2.219.147-1.687-.574-4.173-.518-5.476.06-1.4.752-2.484,1.336-2.132.841-.148,1.157-.529,1.084-1.9" transform="translate(-57.689 -100.912)" fill="#ebebeb"/>
        <path id="Trazado_280737" data-name="Trazado 280737" d="M107.105,211.267a1.07,1.07,0,0,0-1.18.321c-.411.405-.693.9-1.487.877a.763.763,0,0,1-.8-.535,1.418,1.418,0,0,0,.17.885,2.038,2.038,0,0,0,2.3.625c1.068-.3,1.644-1.484,1.236-1.986-.082.053-.293-.084-.243-.187" transform="translate(-55.426 -112.956)" fill="#263238"/>
        <path id="Trazado_280738" data-name="Trazado 280738" d="M154.317,239.292a.986.986,0,0,0,.141.931,2.39,2.39,0,0,0,1.29.924c.511.12.5-.019.493-.2s-.042-.748-.042-.748.237.509.326.682.229.027.3-.4a2.249,2.249,0,0,0-.16-1.318,1.429,1.429,0,0,0-1.6-.737c-.408.132-.51.367-.754.864" transform="translate(-82.507 -127.503)" fill="#263238"/>
        <path id="Trazado_280739" data-name="Trazado 280739" d="M151.784,218.623l.176,3.35c.852-.037,1.259.9,1.189,1.537a2.5,2.5,0,0,0,.094,1.3,4.4,4.4,0,0,1,.075,2.087c-.126.956-.294,1.341-.327,1.76a1.709,1.709,0,0,0,1.879.332c.611-.387.286-.88.036-1.906a6.375,6.375,0,0,1-.261-2.641c.067-.672-.237-1.077-.271-1.673a39.387,39.387,0,0,0,.375-3.931s-.667-.588-2.966-.212" transform="translate(-81.182 -116.863)" fill="#ebebeb"/>
        <path id="Trazado_280740" data-name="Trazado 280740" d="M156.259,235.353a.71.71,0,0,0,.308-.344c-.288.314-1.1.149-1.426-.483a2.366,2.366,0,0,1-.069-1.8c.14-.746.176-.93.008-1.282-.205-.434-.529-.444-.582-1.04a2.288,2.288,0,0,0,.133.77,4.405,4.405,0,0,1,.075,2.087c-.126.956-.294,1.342-.327,1.76a1.709,1.709,0,0,0,1.879.332" transform="translate(-82.57 -123.231)" fill="#e0e0e0"/>
        <path id="Trazado_280741" data-name="Trazado 280741" d="M151.784,218.623l.176,3.35a.991.991,0,0,1,.719.257,8.482,8.482,0,0,0,.952-.591,3.506,3.506,0,0,0,1.12-2.8l-.509-.22a6.012,6.012,0,0,0-2.457.008" transform="translate(-81.182 -116.863)" fill="#e0e0e0"/>
        <path id="Trazado_280742" data-name="Trazado 280742" d="M124.656,220.492a.985.985,0,0,0,.221.915,2.394,2.394,0,0,0,1.366.808c.52.074.5-.062.474-.239s-.107-.741-.107-.741.28.486.384.651.231.007.267-.428a2.254,2.254,0,0,0-.274-1.3,1.429,1.429,0,0,0-1.655-.595c-.395.167-.475.487-.676.927" transform="translate(-66.658 -117.398)" fill="#263238"/>
        <path id="Trazado_280743" data-name="Trazado 280743" d="M124.42,188.545c-.284,2.039,0,3.077.316,5.617.2,1.623-1.408,3.784-1.546,4.037-.183.338.018.813.207,1.282a6.369,6.369,0,0,1,.622,2.657c-.042.964-.175,1.362-.173,1.782a1.709,1.709,0,0,0,1.9.167c.575-.438.317-.945-.13-1.9-1.132-2.423-1.138-2.735-.92-3.374a1.239,1.239,0,0,1,.534-.756c.528-.44,4.571-1.293,4.368-3.015,0,0-2.922-7.072-5.18-6.5" transform="translate(-65.85 -100.825)" fill="#ebebeb"/>
        <path id="Trazado_280744" data-name="Trazado 280744" d="M126.069,215.618a.922.922,0,0,1-1.308-.006c-.326-.41-.268-.968-.164-2.078a2.494,2.494,0,0,0-.426-1.9c-.246-.4-.712-.594-.96-.971a5.245,5.245,0,0,0,.236.664,6.376,6.376,0,0,1,.622,2.657c-.042.964-.176,1.362-.173,1.782a1.707,1.707,0,0,0,1.9.167.848.848,0,0,0,.272-.32" transform="translate(-65.9 -112.676)" fill="#e0e0e0"/>
        <path id="Trazado_280745" data-name="Trazado 280745" d="M124.1,211.937c-1.565,2.314-4.83,1.321-5.683-.839.04-1.265,2.451-2.41,3.857-1.564a4.425,4.425,0,0,1,1.825,2.4" transform="translate(-63.335 -111.914)" fill="#ba68c8"/>
        <g id="Grupo_262201" data-name="Grupo 262201" transform="translate(55.081 97.33)" opacity="0.6">
          <g id="Grupo_262200" data-name="Grupo 262200">
            <g id="Grupo_262199" data-name="Grupo 262199" clip-path="url(#clip-path-8)">
              <path id="Trazado_280746" data-name="Trazado 280746" d="M124.1,211.937c-1.565,2.314-4.83,1.321-5.683-.839.04-1.265,2.451-2.41,3.857-1.564a4.425,4.425,0,0,1,1.825,2.4" transform="translate(-118.416 -209.244)" fill="#fff"/>
            </g>
          </g>
        </g>
        <path id="Trazado_280747" data-name="Trazado 280747" d="M111.538,228.079a.985.985,0,0,0,.221.915,2.394,2.394,0,0,0,1.366.808c.52.074.5-.062.474-.239s-.107-.741-.107-.741.28.486.384.651.23.007.267-.428a2.254,2.254,0,0,0-.274-1.3,1.429,1.429,0,0,0-1.655-.595c-.395.167-.475.487-.676.927" transform="translate(-59.642 -121.456)" fill="#263238"/>
        <path id="Trazado_280748" data-name="Trazado 280748" d="M141.357,246.632a.986.986,0,0,0,.141.931,2.39,2.39,0,0,0,1.29.924c.511.12.5-.019.493-.2s-.042-.747-.042-.747.237.509.326.682.229.027.3-.4a2.249,2.249,0,0,0-.16-1.318,1.428,1.428,0,0,0-1.6-.737,1.386,1.386,0,0,0-.754.864" transform="translate(-75.575 -131.428)" fill="#263238"/>
        <path id="Trazado_280749" data-name="Trazado 280749" d="M132.378,193.179c-.755.213-2.648.327-5.691-1.555a17.511,17.511,0,0,1-3.69-3.4c-1.842-1.953-3.1-2.929-5.685-2.962a6.176,6.176,0,0,0-5.535,3.132,6.252,6.252,0,0,0-.6,1.845h0c-.284,2.039.121,3.172.438,5.712.2,1.622-1.408,3.784-1.546,4.037-.184.338.018.814.207,1.282a6.383,6.383,0,0,1,.622,2.657c-.042.964-.176,1.362-.173,1.782a1.709,1.709,0,0,0,1.9.167c.575-.438.317-.945-.13-1.9-1.133-2.423-1.138-2.735-.92-3.374a1.237,1.237,0,0,1,.534-.755c.332-.277,2.143-.687,3.392-1.38h0c2.9-.265,3.076,2.914,5.909,5.459a8.2,8.2,0,0,0,2.108,1.465,8.217,8.217,0,0,1,1.25,3.757,2.5,2.5,0,0,0,.094,1.3,4.4,4.4,0,0,1,.075,2.087c-.126.956-.294,1.342-.327,1.76a1.708,1.708,0,0,0,1.879.332c.611-.386.286-.88.036-1.906a6.374,6.374,0,0,1-.261-2.641c.067-.672-.237-1.077-.271-1.673-.027-.477.505-1.63.693-2.96l.017,0c1.642-.29,2.129-.98,3.784-1.659a3.37,3.37,0,0,0,1.964-3.34c.02-1.1.657-1.279,1.5-1.073Z" transform="translate(-58.834 -99.089)" fill="#fafafa"/>
        <path id="Trazado_280750" data-name="Trazado 280750" d="M138.637,208.9a.652.652,0,0,1,.186.306c.021.1,0,.213.01.318.032.286.3.479.559.608a1.449,1.449,0,0,1,.683.5.879.879,0,0,1-.171.948,3.905,3.905,0,0,1-.8.629,2.64,2.64,0,0,0-.967,1.093c-.084.2-.131.415-.229.61a1.253,1.253,0,0,1-.812.654,1.142,1.142,0,0,1-1.006-.245,2.49,2.49,0,0,1-.538-.907,2.392,2.392,0,0,0-.775-1.066c-.257-.174-.587-.275-.741-.544a.85.85,0,0,1,.154-.923,4.426,4.426,0,0,1,.764-.634,1.338,1.338,0,0,0,.56-.794c.03-.19-.009-.387.033-.574.284-1.252,2.536-.571,3.095.017" transform="translate(-71.644 -111.346)" fill="#37474f"/>
        <path id="Trazado_280751" data-name="Trazado 280751" d="M137.1,201.047a.568.568,0,0,1,.235.558.509.509,0,0,1-.354.279,2.315,2.315,0,0,0-.447.137c-.437.234-.467.9-.891,1.162a.89.89,0,0,1-.96-.11,1.1,1.1,0,0,1-.444-.678.8.8,0,0,1,.259-.749c.133-.108.3-.164.434-.273a3.537,3.537,0,0,0,.381-.487c.534-.631,1.283-.3,1.788.161" transform="translate(-71.792 -107.257)" fill="#37474f"/>
        <path id="Trazado_280752" data-name="Trazado 280752" d="M132.253,188.386c.57.6,1.022,1.081,1.407,1.474a2.465,2.465,0,0,1-2.49-.664,2.709,2.709,0,0,0-.368-.383,2.146,2.146,0,0,0-1.507-.139,4.947,4.947,0,0,1-1.043-.007,1.265,1.265,0,0,1-.708-.252.741.741,0,0,1-.133-.918c.132-.21.378-.373.382-.62,0-.176-.123-.326-.172-.494a.727.727,0,0,1,.2-.687.973.973,0,0,1,.166-.133c1.7.332,2.8,1.266,4.267,2.824" transform="translate(-68.091 -99.248)" fill="#37474f"/>
        <path id="Trazado_280753" data-name="Trazado 280753" d="M117.458,193.916a3.126,3.126,0,0,1,1.825.085,1.716,1.716,0,0,1,.754.484,1.323,1.323,0,0,1-.313,1.861,7.985,7.985,0,0,0-1.11.59c-.134.125-.234.284-.367.41-.6.568-1.592.261-2.218.807a.447.447,0,0,1-.267.154c-.3,0-.637-.688-.773-.908a2.245,2.245,0,0,1-.25-.492c-.184-.582.125-1.215.032-1.819-.037-.242-.138-.47-.178-.711a1.76,1.76,0,0,1,.749-1.766,1.433,1.433,0,0,1,2.052,1.324l.063-.017" transform="translate(-61.278 -102.927)" fill="#37474f"/>
        <path id="Trazado_280754" data-name="Trazado 280754" d="M118.2,206.428c-.039.076-.124.118-.172.189-.1.149,0,.36-.073.524a.423.423,0,0,1-.351.208,3.916,3.916,0,0,0-.425.031.388.388,0,0,1-.238.018.268.268,0,0,1-.124-.176.435.435,0,0,1,.047-.433c.08-.082.205-.1.294-.173.207-.165.339-.475.624-.543.186-.045.541.114.419.354" transform="translate(-62.462 -110.214)" fill="#37474f"/>
        <path id="Trazado_280755" data-name="Trazado 280755" d="M151.644,215.133c.02-1.1.661-1.28,1.5-1.073l-.249-1.332-1.441.211c0,.828-1.946.864-3.182,1.816a6.3,6.3,0,0,0-2.328,4.361,3.97,3.97,0,0,0-.045,1.015c1.642-.29,2.129-.979,3.784-1.659a3.37,3.37,0,0,0,1.963-3.34" transform="translate(-78.021 -113.777)" fill="#f0f0f0"/>
        <path id="Trazado_280756" data-name="Trazado 280756" d="M148.109,204.718c-.037-.378-.008-.76-.067-1.135a1.305,1.305,0,0,0-.33-.737,2.832,2.832,0,0,0-1-.466c-.344-.139-.693-.446-.63-.812.05-.3.347-.48.625-.6a4.3,4.3,0,0,1,.812-.242,6.2,6.2,0,0,0,4.154.721l1.575,6.193c-.781-.192-1.379-.038-1.477.864a.792.792,0,0,1-.432.024.752.752,0,0,1-.487-.512,1.619,1.619,0,0,1-.024-.73,1.123,1.123,0,0,0-.017-.681.756.756,0,0,0-.422-.331c-.606-.231-1.363-.1-1.846-.536a1.554,1.554,0,0,1-.433-1.024" transform="translate(-78.128 -107.36)" fill="#37474f"/>
        <path id="Trazado_280757" data-name="Trazado 280757" d="M158.22,214.007c-.031,0-.064-.006-.093-.005a1.247,1.247,0,0,0-.186.019c-.017,0-.036,0-.053.007a.88.88,0,0,0-.18.06c-.009,0-.02.007-.028.012a.739.739,0,0,0-.162.111l-.013.011a.8.8,0,0,0-.136.169l0,.007a1.068,1.068,0,0,0-.1.234v0a1.618,1.618,0,0,0-.059.3h0a.788.788,0,0,1-.432.024.751.751,0,0,1-.487-.512,1.618,1.618,0,0,1-.023-.73l.01-.063c.428-.182.72-.384.72-.7l1.355-.2.336,1.32a2.7,2.7,0,0,0-.288-.055c-.06-.008-.115-.009-.171-.012" transform="translate(-83.559 -113.791)" fill="#263238"/>
        <path id="Trazado_280758" data-name="Trazado 280758" d="M123.137,210.707c-.141-.544.211-1.065-.088-1.783a2.842,2.842,0,0,1-1.211,2.2,2.639,2.639,0,0,1,1.8.421h0a1.678,1.678,0,0,1-.506-.835" transform="translate(-65.165 -111.743)" fill="#f0f0f0"/>
        <path id="Trazado_280759" data-name="Trazado 280759" d="M143.3,242.693a.707.707,0,0,0,.308-.344c-.288.314-1.1.149-1.426-.483a2.369,2.369,0,0,1-.068-1.8c.14-.746.175-.929.008-1.282-.206-.434-.529-.444-.582-1.04a2.288,2.288,0,0,0,.133.77,4.4,4.4,0,0,1,.075,2.087c-.126.956-.293,1.341-.327,1.76a1.709,1.709,0,0,0,1.879.332" transform="translate(-75.639 -127.157)" fill="#f0f0f0"/>
        <path id="Trazado_280760" data-name="Trazado 280760" d="M112.95,223.2a.923.923,0,0,1-1.308-.005c-.326-.411-.268-.968-.164-2.078a2.5,2.5,0,0,0-.426-1.9c-.246-.4-.712-.593-.96-.971a5.243,5.243,0,0,0,.236.664,6.383,6.383,0,0,1,.622,2.657c-.042.964-.176,1.362-.173,1.782a1.709,1.709,0,0,0,1.9.167.851.851,0,0,0,.271-.32" transform="translate(-58.883 -116.734)" fill="#f0f0f0"/>
        <path id="Trazado_280761" data-name="Trazado 280761" d="M136.95,225.174a5.5,5.5,0,0,0,.742.4,10.964,10.964,0,0,1-1.2-2.574,7.08,7.08,0,0,0,.459,2.171" transform="translate(-73.002 -119.273)" fill="#f0f0f0"/>
        <path id="Trazado_280762" data-name="Trazado 280762" d="M165.917,199.618c.7-.589.485-1.585.741-1.482a1.781,1.781,0,0,1,.552,1.917c-.283.713-1.512.165-1.294-.436" transform="translate(-88.727 -105.969)" fill="#f5f5f5"/>
        <path id="Trazado_280763" data-name="Trazado 280763" d="M166.76,201.16l-.042-.161a2.661,2.661,0,0,0,.738.164c.423.033,1.9.17,2.134,2.493Z" transform="translate(-89.169 -107.504)" fill="#37474f"/>
        <path id="Trazado_280764" data-name="Trazado 280764" d="M166.809,201.346c.335.271.983.28,1.351.424a2.261,2.261,0,0,1,1,.88,3.05,3.05,0,0,1,.5,1.407c-.012.285-.231.052-.417-.1s-1.122-.3-1.431-.61c-.644-.646-.459-1.1-.82-1.314Z" transform="translate(-89.218 -107.69)" fill="#ba68c8"/>
        <g id="Grupo_262204" data-name="Grupo 262204" transform="translate(77.591 93.656)" opacity="0.5">
          <g id="Grupo_262203" data-name="Grupo 262203">
            <g id="Grupo_262202" data-name="Grupo 262202" clip-path="url(#clip-path-15)">
              <path id="Trazado_280765" data-name="Trazado 280765" d="M166.809,201.346c.335.271.983.28,1.351.424a2.261,2.261,0,0,1,1,.88,3.05,3.05,0,0,1,.5,1.407c-.012.285-.231.052-.417-.1s-1.122-.3-1.431-.61c-.644-.646-.459-1.1-.82-1.314Z" transform="translate(-166.809 -201.346)" fill="#fff"/>
            </g>
          </g>
        </g>
        <g id="Grupo_262207" data-name="Grupo 262207" transform="translate(78.155 94.285)" opacity="0.2">
          <g id="Grupo_262206" data-name="Grupo 262206">
            <g id="Grupo_262205" data-name="Grupo 262205" clip-path="url(#clip-path-10)">
              <path id="Trazado_280766" data-name="Trazado 280766" d="M169.307,203.163a2.175,2.175,0,0,0-.526-.3,2.2,2.2,0,0,0-.756-.166s-.005.008,0,.009a5.231,5.231,0,0,1,.672.263,1.959,1.959,0,0,1,.548.358,2.733,2.733,0,0,1,.662.836,1.305,1.305,0,0,0-.325-.346,1.108,1.108,0,0,0-.25-.135,1.018,1.018,0,0,0-.282-.066c-.01,0-.013.021,0,.025a1.969,1.969,0,0,1,.511.3,1.568,1.568,0,0,1,.234.237c.014.017.027.036.04.054a1.008,1.008,0,0,0-.122-.054,3.464,3.464,0,0,0-.41-.106,2.083,2.083,0,0,1-.35-.111.75.75,0,0,1-.152-.085.9.9,0,0,0-.118-.1v0a.513.513,0,0,0,.223.27,1.115,1.115,0,0,0,.362.161c.133.037.268.064.4.1a1.072,1.072,0,0,1,.341.149c.015.011.023,0,.027-.015,0,0,.009-.009.008-.013a2.239,2.239,0,0,0-.73-1.268" transform="translate(-168.021 -202.697)" fill="#ba68c8"/>
            </g>
          </g>
        </g>
        <path id="Trazado_280767" data-name="Trazado 280767" d="M159.534,200.9a5.1,5.1,0,0,0-2.3.494c-.522.36-.374.946-.612,1.448a2.858,2.858,0,0,0-.147,1.078,4.025,4.025,0,0,0,.644,2.545,2.586,2.586,0,0,0,1.69,1.121,4.625,4.625,0,0,1,1.649.741,5.47,5.47,0,0,0,1.886,1.267,2.258,2.258,0,0,0,1.86-.5,2.172,2.172,0,0,0,.561-1.472.832.832,0,0,0-.552-.951,6.323,6.323,0,0,1-1.25-2.071,9.534,9.534,0,0,0-.644-3,1.621,1.621,0,0,0-1.451-.972c-.408,0-.814.209-1.337.275" transform="translate(-83.692 -107.304)" fill="#455a64"/>
        <path id="Trazado_280768" data-name="Trazado 280768" d="M168.415,212.883a.826.826,0,0,0-.828,1.047c-.21-.1-.217-.467-.158-.683.1-.377.264-.349-.006-.881s-.876-1.855-.876-1.855.778,1.261,1.036,1.667c.384.6.761.466.832.706" transform="translate(-89.078 -112.592)" fill="#37474f"/>
        <path id="Trazado_280769" data-name="Trazado 280769" d="M170.505,215.94c-.218.063-.32-.051-.593.02a.531.531,0,0,0-.406.517c0,.22.147.256.249.242.034-.192.179-.292.233-.192s.02.22.527.277a1.233,1.233,0,0,0,.495-.59c.063-.2.253-.159.225,0a.47.47,0,0,0,.223-.452.3.3,0,0,0-.388-.206c-.283.077-.351.325-.563.386" transform="translate(-90.66 -115.282)" fill="#263238"/>
        <path id="Trazado_280770" data-name="Trazado 280770" d="M162.852,208.539a1.116,1.116,0,0,0-.418-.1.8.8,0,0,0-.24.022.5.5,0,0,0-.187.09c-.008.007-.017.036,0,.035a1.82,1.82,0,0,1,.237,0,2.067,2.067,0,0,1,.242.02.909.909,0,0,1,.317.088,1.163,1.163,0,0,1,.282.206c.123.107.14.127.232.2.007.006.016-.011.015-.016a.828.828,0,0,0-.479-.547" transform="translate(-86.645 -111.483)" fill="#263238"/>
        <path id="Trazado_280771" data-name="Trazado 280771" d="M163.225,209.033a.334.334,0,1,1-.334-.334.334.334,0,0,1,.334.334" transform="translate(-86.944 -111.623)" fill="#263238"/>
        <g id="Grupo_262210" data-name="Grupo 262210" transform="translate(73.088 93.321)" opacity="0.1">
          <g id="Grupo_262209" data-name="Grupo 262209">
            <g id="Grupo_262208" data-name="Grupo 262208" clip-path="url(#clip-path-11)">
              <path id="Trazado_280772" data-name="Trazado 280772" d="M162.46,201.288a1.487,1.487,0,0,0-1.241-.664c-.407,0-.814.21-1.337.275a5.09,5.09,0,0,0-2.3.494,1.2,1.2,0,0,0-.456.891l0,.009c.326-.7.721-.973,2.336-.861.968.067,1.118.1,1.61-.307a.983.983,0,0,1,1.382.161" transform="translate(-157.128 -200.624)" fill="#fff"/>
            </g>
          </g>
        </g>
        <path id="Trazado_280773" data-name="Trazado 280773" d="M157.6,201.388c-.907-.113-1.27-1.066-1.428-.839a1.782,1.782,0,0,0,.581,1.909c.626.443,1.358-.684.848-1.07" transform="translate(-83.476 -107.245)" fill="#f5f5f5"/>
        <path id="Trazado_280774" data-name="Trazado 280774" d="M156.682,203.1s.034-.28-.2-.121a1.774,1.774,0,0,1-.725.313,2.072,2.072,0,0,0-1.512,1.082,2.546,2.546,0,0,0,.031,2.252Z" transform="translate(-82.367 -108.538)" fill="#37474f"/>
        <path id="Trazado_280775" data-name="Trazado 280775" d="M156.962,203.3c-.2.216-1.334.631-1.733,1.023a2.5,2.5,0,0,0-.658,1.494,2.974,2.974,0,0,0-.013,1.01c.032.2.334-.248.72-.533s1.143-.721,1.255-1.3.071-.8.329-1.095Z" transform="translate(-82.646 -108.733)" fill="#ba68c8"/>
        <path id="Trazado_280776" data-name="Trazado 280776" d="M156.962,203.3c-.2.216-1.334.631-1.733,1.023a2.5,2.5,0,0,0-.658,1.494,2.974,2.974,0,0,0-.013,1.01c.032.2.334-.248.72-.533s1.143-.721,1.255-1.3.071-.8.329-1.095Z" transform="translate(-82.646 -108.733)" fill="#ba68c8"/>
        <g id="Grupo_262213" data-name="Grupo 262213" transform="translate(71.876 94.564)" opacity="0.5">
          <g id="Grupo_262212" data-name="Grupo 262212">
            <g id="Grupo_262211" data-name="Grupo 262211" clip-path="url(#clip-path-18)">
              <path id="Trazado_280777" data-name="Trazado 280777" d="M156.962,203.3c-.2.216-1.334.631-1.733,1.023a2.5,2.5,0,0,0-.658,1.494,2.974,2.974,0,0,0-.013,1.01c.032.2.334-.248.72-.533s1.143-.721,1.255-1.3.071-.8.329-1.095Z" transform="translate(-154.523 -203.297)" fill="#fff"/>
            </g>
          </g>
        </g>
        <g id="Grupo_262216" data-name="Grupo 262216" transform="translate(72.144 95.161)" opacity="0.2">
          <g id="Grupo_262215" data-name="Grupo 262215">
            <g id="Grupo_262214" data-name="Grupo 262214" clip-path="url(#clip-path-13)">
              <path id="Trazado_280778" data-name="Trazado 280778" d="M156.821,204.608c.008-.007.011-.032-.006-.024a2.914,2.914,0,0,0-1.263.824,2.64,2.64,0,0,0-.281.561,2.845,2.845,0,0,0-.144.591,3.034,3.034,0,0,0-.025.3c0,.032-.013.28.025.27a.042.042,0,0,0,.023-.02,1.045,1.045,0,0,1,.3-.3c.126-.079.259-.14.378-.229a2.164,2.164,0,0,0,.324-.3,1.451,1.451,0,0,0,.142-.189.276.276,0,0,0,.061-.169s0,0-.005,0c-.04.047-.065.105-.106.153a1.819,1.819,0,0,1-.163.159,2.166,2.166,0,0,1-.386.268,2.728,2.728,0,0,0-.378.229l-.013.012c.011-.023.021-.047.033-.069a4.124,4.124,0,0,1,.218-.395,4.987,4.987,0,0,1,.593-.748,1.56,1.56,0,0,0-.7.647,3.016,3.016,0,0,0-.218.428l-.016.04a2.784,2.784,0,0,1,.505-1.229,6.3,6.3,0,0,1,1.1-.816" transform="translate(-155.099 -204.582)" fill="#ba68c8"/>
            </g>
          </g>
        </g>
      </g>
    </g>
    <g id="Grupo_262220" data-name="Grupo 262220">
      <g id="Grupo_262219" data-name="Grupo 262219" clip-path="url(#clip-path)">
        <path id="Trazado_280779" data-name="Trazado 280779" d="M230.992,3.859a92.219,92.219,0,0,1,49.225,22.712.465.465,0,0,0,.777-.345.472.472,0,0,0-.157-.352,93.162,93.162,0,0,0-49.8-22.951l3.2-2.067a.465.465,0,1,0-.505-.781L229.36,2.9a.465.465,0,0,0-.05.743l3.943,3.388a.465.465,0,0,0,.606-.706Z" transform="translate(-122.56 0)" fill="#572558"/>
        <path id="Trazado_280780" data-name="Trazado 280780" d="M380.153,110.448a92.216,92.216,0,0,1,11.65,52.945.465.465,0,0,0,.744.41.474.474,0,0,0,.185-.338,93.16,93.16,0,0,0-11.809-53.55l3.58,1.3a.465.465,0,1,0,.317-.874l-4.886-1.773a.465.465,0,0,0-.623.409l-.317,5.189a.465.465,0,0,0,.928.056Z" transform="translate(-202.704 -58.052)" fill="#572558"/>
        <path id="Trazado_280781" data-name="Trazado 280781" d="M62.45,33.25A92.216,92.216,0,0,1,110.231,7.64a.465.465,0,0,0,.193-.828.471.471,0,0,0-.375-.087,93.158,93.158,0,0,0-48.32,25.927l.276-3.8a.465.465,0,1,0-.928-.067L60.7,33.972a.465.465,0,0,0,.563.488l5.079-1.107a.465.465,0,1,0-.2-.909Z" transform="translate(-32.464 -3.592)" fill="#572558"/>
        <path id="Trazado_280782" data-name="Trazado 280782" d="M9.757,130.02a.469.469,0,0,0-.434.293A93.3,93.3,0,0,0,3.332,176.9L.807,174.167a.465.465,0,1,0-.683.631l3.529,3.817a.465.465,0,0,0,.341.149l.049,0a.466.466,0,0,0,.351-.224l2.662-4.465a.465.465,0,1,0-.8-.476l-1.983,3.327a92.383,92.383,0,0,1,5.912-46.268.461.461,0,0,0-.428-.636" transform="translate(0 -69.541)" fill="#572558"/>
      </g>
    </g>
  </g>
</svg>
