<svg xmlns="http://www.w3.org/2000/svg" width="208.392" height="208.392" viewBox="0 0 208.392 208.392">
  <g id="Grupo_1075568" data-name="Grupo 1075568" transform="translate(-16968.736 -3945.27)">
    <path id="Trazado_280240" data-name="Trazado 280240" d="M304.249,113.775a104.2,104.2,0,1,1-104.2-104.2,104.2,104.2,0,0,1,104.2,104.2" transform="translate(16872.879 3935.69)" fill="#e2e8ec"/>
    <path id="Trazado_280241" data-name="Trazado 280241" d="M208.472,186.021a31.582,31.582,0,0,1-19.271-7.582,31,31,0,0,1-6.424-39.447,29.793,29.793,0,0,1,9.287-9.82,1.557,1.557,0,0,0,.813-1.435c-.047-5.336-.046-10.673-.061-16.01.158-9.641.1-19.283.033-28.925q0-4.79.005-9.579c.058-3.118-.228-6.255.55-9.332a16.537,16.537,0,0,1,13.7-12.291,22.541,22.541,0,0,1,4.7,1.691c5.644,3.333,8.713,8.2,8.705,14.879q-.025,20.811-.005,41.62,0,8.763-.008,17.524a1.785,1.785,0,0,0,.777,1.753,30.358,30.358,0,0,1,7.225,6.743,30.806,30.806,0,0,1-4.2,42.486,30.649,30.649,0,0,1-15.048,7.182c-.372.067-.747.035-.786.543m-2.454-9.077a18.288,18.288,0,0,0,7.467-.024,22.427,22.427,0,0,0,6.259-41.915c-1.955-1.037-2.619-2.3-2.587-4.565.147-10.578.09-21.159.047-31.739a7.283,7.283,0,0,0-4-6.694,7.083,7.083,0,0,0-7.506.064,7.668,7.668,0,0,0-4.048,7.232q-.015,16.425.015,32.849a1.907,1.907,0,0,1-1.075,1.969,30.454,30.454,0,0,0-3.238,2.04c-6.106,4.333-9.9,10.1-10.2,17.7-.46,11.631,7.357,21.057,18.863,23.088m-10.15-99.1c0,2.463-.008,4.927,0,7.39.007,1.419.759,2.419,1.829,2.484a2.127,2.127,0,0,0,1.982-2.337q.06-7.527,0-15.055a2.232,2.232,0,0,0-1.919-2.294c-1.073.016-1.881,1.025-1.89,2.421-.015,2.463,0,4.927,0,7.391m0,13.556c0,.31-.006.538,0,.765a2.008,2.008,0,0,0,1.639,2.072c1.1.236,1.629-.552,1.988-1.458a3.6,3.6,0,0,0-.052-2.652,1.718,1.718,0,0,0-1.55-1.306,1.822,1.822,0,0,0-1.74,1.08,2.429,2.429,0,0,0-.286,1.5" transform="translate(16872.879 3935.69)" fill="#c3c3fc"/>
    <path id="Trazado_280242" data-name="Trazado 280242" d="M192.849,82.8c.062,9.642.125,19.284-.032,28.926a24.7,24.7,0,0,1-14.292,4.705,24.041,24.041,0,0,1-18.674-39.056,2.656,2.656,0,0,1,.4-.358c.2.31.4.223.681.068.949-.53,1.89-1.087,2.884-1.519,7.817-3.406,15.374-2.825,22.671,1.538a28.9,28.9,0,0,1,6.36,5.7m-35.884,9.93a12.139,12.139,0,0,0,.332,3.437,21.4,21.4,0,0,0,3.3,8.585,1.417,1.417,0,0,0,2.013.55,1.454,1.454,0,0,0,.758-2.049c-.184-.413-.437-.8-.662-1.19a17.935,17.935,0,0,1-2.408-7.46,19.269,19.269,0,0,1,2.391-11.7,1.491,1.491,0,0,0-.6-2.309c-1.016-.549-1.711-.078-2.232.843a22.674,22.674,0,0,0-2.893,11.3" transform="translate(16872.879 3935.69)" fill="#f8b838"/>
    <path id="Trazado_280243" data-name="Trazado 280243" d="M208.472,186.021c.039-.508.414-.477.786-.543a30.649,30.649,0,0,0,15.048-7.182,31.037,31.037,0,0,0-3.027-49.23,1.783,1.783,0,0,1-.777-1.752q.021-8.762.008-17.524,0-20.81.005-41.62c.007-6.677-3.061-11.546-8.705-14.88a22.538,22.538,0,0,0-4.7-1.69c4.027-.885,7.7.244,11.058,2.292,4.931,3,7.338,7.625,7.829,13.309q0,2.31.009,4.618.008,2.66.013,5.319.011,2.348.019,4.694-.018,2.681-.037,5.36,0,2.313,0,4.626.011,2.663.02,5.325,0,2.346.01,4.692-.017,2.676-.032,5.351,0,2.312,0,4.624l.024,5.33q0,2.351,0,4.7c-.013.228-.021.456-.041.683-.322,3.572.158,6.357,3.587,8.893,6.009,4.443,9.376,10.944,10.54,18.368a30.188,30.188,0,0,1-6.1,23.986A30.748,30.748,0,0,1,215.9,185.307a29.041,29.041,0,0,1-7.43.714" transform="translate(16872.879 3935.69)" fill="#b3b3f4"/>
    <path id="Trazado_280244" data-name="Trazado 280244" d="M192.848,82.8a28.869,28.869,0,0,0-6.359-5.7c-7.3-4.363-14.855-4.943-22.672-1.538-.994.432-1.935.989-2.884,1.519-.277.155-.481.242-.681-.068a23.153,23.153,0,0,1,18.383-8.488,23.984,23.984,0,0,1,14.219,4.692l-.006,9.579" transform="translate(16872.879 3935.69)" fill="#ebb022"/>
    <path id="Trazado_280245" data-name="Trazado 280245" d="M145.541,94c-.958,0-1.921.065-2.872-.013a3.145,3.145,0,0,1-2.927-3.071,3.044,3.044,0,0,1,2.72-3.221,25.161,25.161,0,0,1,6.138-.014,3.124,3.124,0,0,1,2.834,3.285A3.29,3.29,0,0,1,148.278,94c-.91.056-1.825.01-2.737.01V94" transform="translate(16872.879 3935.69)" fill="#f8b93b"/>
    <path id="Trazado_280246" data-name="Trazado 280246" d="M154.976,106.205a3.328,3.328,0,0,1-1.617,2.7c-1.482.886-2.965,1.775-4.489,2.583a3.208,3.208,0,1,1-3.139-5.588c1.521-.91,3.04-1.835,4.629-2.611a3.189,3.189,0,0,1,4.616,2.914" transform="translate(16872.879 3935.69)" fill="#f8b93b"/>
    <path id="Trazado_280247" data-name="Trazado 280247" d="M182.878,57.661c-.066,1.457-.1,2.917-.2,4.372-.145,2.1-1.545,3.517-3.342,3.43a3.327,3.327,0,0,1-3.113-3.763c.062-1.5.15-3.007.275-4.506.184-2.191,1.584-3.541,3.475-3.406s3.073,1.7,2.909,3.873" transform="translate(16872.879 3935.69)" fill="#f8ba3b"/>
    <path id="Trazado_280248" data-name="Trazado 280248" d="M156.676,122.211a3.008,3.008,0,0,1,.49-1.732c.843-1.461,1.651-2.942,2.526-4.383a3.176,3.176,0,0,1,5.643,2.91c-.871,1.7-1.84,3.361-2.875,4.968a2.969,2.969,0,0,1-3.577,1.28,3.064,3.064,0,0,1-2.207-3.043" transform="translate(16872.879 3935.69)" fill="#f8b93b"/>
    <path id="Trazado_280249" data-name="Trazado 280249" d="M155.09,77.694a3.07,3.07,0,0,1-4.384,2.892,47.419,47.419,0,0,1-5.22-2.978,3.152,3.152,0,0,1,3.075-5.462c1.793.887,3.516,1.927,5.216,2.986a2.777,2.777,0,0,1,1.313,2.562" transform="translate(16872.879 3935.69)" fill="#f8b93b"/>
    <path id="Trazado_280250" data-name="Trazado 280250" d="M172.549,126.16c.1-1.244.179-2.516.309-3.784a3.124,3.124,0,0,1,3.24-2.864,3.059,3.059,0,0,1,3.03,2.939,53.224,53.224,0,0,1-.316,6.132,3.188,3.188,0,0,1-3.358,2.6,3.149,3.149,0,0,1-2.9-3.085c-.027-.636,0-1.275,0-1.942" transform="translate(16872.879 3935.69)" fill="#f8b93b"/>
    <path id="Trazado_280251" data-name="Trazado 280251" d="M162.657,69.416a2.9,2.9,0,0,1-2.759-1.462c-.979-1.591-1.94-3.2-2.8-4.853a3.07,3.07,0,0,1,1.226-4.15,3.008,3.008,0,0,1,4.214.922,50.084,50.084,0,0,1,2.912,5.1,3.058,3.058,0,0,1-2.79,4.44" transform="translate(16872.879 3935.69)" fill="#f8b93b"/>
    <path id="Trazado_280252" data-name="Trazado 280252" d="M226,71.82q0-2.309-.01-4.618c3.693-.011,7.385-.038,11.077-.026a2.338,2.338,0,1,1,.01,4.662c-3.692.024-7.385-.008-11.077-.018" transform="translate(16872.879 3935.69)" fill="#fb6559"/>
    <path id="Trazado_280253" data-name="Trazado 280253" d="M226,91.818q0-2.313,0-4.626c3.691-.008,7.383-.033,11.074-.017a2.335,2.335,0,1,1,0,4.655c-3.691.021-7.383-.005-11.074-.012" transform="translate(16872.879 3935.69)" fill="#fb6559"/>
    <path id="Trazado_280254" data-name="Trazado 280254" d="M226,111.811q0-2.312,0-4.624c3.691-.01,7.383-.038,11.074-.02a2.337,2.337,0,1,1,0,4.659c-3.691.021-7.382-.007-11.074-.015" transform="translate(16872.879 3935.69)" fill="#fb6559"/>
    <path id="Trazado_280255" data-name="Trazado 280255" d="M226.027,121.843q0-2.351,0-4.7c2.137-.014,4.274-.059,6.41-.033a2.4,2.4,0,1,1,0,4.775c-2.136.03-4.273-.023-6.41-.04" transform="translate(16872.879 3935.69)" fill="#fb6b5f"/>
    <path id="Trazado_280256" data-name="Trazado 280256" d="M226.036,81.833q-.009-2.348-.019-4.694c2.134-.01,4.267-.047,6.4-.022,1.7.019,2.68.955,2.653,2.431a2.348,2.348,0,0,1-2.635,2.318c-2.133.025-4.266-.019-6.4-.033" transform="translate(16872.879 3935.69)" fill="#fb685c"/>
    <path id="Trazado_280257" data-name="Trazado 280257" d="M226.032,101.836q0-2.346-.01-4.693c2.134-.015,4.268-.063,6.4-.034,1.707.023,2.678.965,2.649,2.444a2.359,2.359,0,0,1-2.64,2.321c-2.132.027-4.266-.022-6.4-.038" transform="translate(16872.879 3935.69)" fill="#fb685c"/>
    <path id="Trazado_280258" data-name="Trazado 280258" d="M206.018,176.944c-11.507-2.031-19.323-11.457-18.862-23.088.3-7.592,4.09-13.363,10.2-17.7a30.24,30.24,0,0,1,3.237-2.04,1.9,1.9,0,0,0,1.074-1.969q-.043-16.423-.015-32.849a7.668,7.668,0,0,1,4.049-7.232,8.909,8.909,0,0,1,3.631,7.783c-.12,10.722-.034,21.447-.062,32.17a1.978,1.978,0,0,0,1.148,2.046,28.094,28.094,0,0,1,8.867,7.163,22.126,22.126,0,0,1,4.216,17.912,21.62,21.62,0,0,1-8.4,13.606,25.985,25.985,0,0,1-9.082,4.193m-15.071-23.6c-.036,5.866,1.459,9.755,4.032,13.253a4.5,4.5,0,0,0,1.983,1.829,1.929,1.929,0,0,0,2.431-.714,2.288,2.288,0,0,0-.451-2.862c-3.894-4.687-4.984-9.866-2.629-15.616a16.475,16.475,0,0,1,3.727-5.326,2.111,2.111,0,0,0-.078-3.144,2,2,0,0,0-2.795.273,18.4,18.4,0,0,0-6.22,12.307" transform="translate(16872.879 3935.69)" fill="#fb6559"/>
    <path id="Trazado_280259" data-name="Trazado 280259" d="M206.018,176.944a25.972,25.972,0,0,0,9.081-4.193,21.617,21.617,0,0,0,8.4-13.606,22.128,22.128,0,0,0-4.217-17.912,28.079,28.079,0,0,0-8.866-7.163,1.978,1.978,0,0,1-1.148-2.046c.027-10.723-.058-21.447.062-32.169a8.91,8.91,0,0,0-3.632-7.784,7.084,7.084,0,0,1,7.507-.064,7.285,7.285,0,0,1,4,6.694c.042,10.58.1,21.161-.048,31.739-.031,2.262.633,3.528,2.587,4.565a22.426,22.426,0,0,1-6.259,41.915,18.284,18.284,0,0,1-7.466.024" transform="translate(16872.879 3935.69)" fill="#ef5544"/>
    <path id="Trazado_280260" data-name="Trazado 280260" d="M195.868,77.845c0-2.464-.011-4.927,0-7.39.009-1.4.817-2.4,1.891-2.421a2.232,2.232,0,0,1,1.918,2.294q.062,7.527,0,15.054a2.127,2.127,0,0,1-1.983,2.337c-1.07-.065-1.822-1.065-1.829-2.484-.011-2.463,0-4.926,0-7.39" transform="translate(16872.879 3935.69)" fill="#f1f0fe"/>
    <path id="Trazado_280261" data-name="Trazado 280261" d="M195.869,91.4a2.429,2.429,0,0,1,.286-1.5,1.822,1.822,0,0,1,1.74-1.08,1.718,1.718,0,0,1,1.55,1.306,3.6,3.6,0,0,1,.052,2.652c-.359.906-.888,1.694-1.988,1.458a2.008,2.008,0,0,1-1.639-2.072c-.007-.227,0-.455,0-.765" transform="translate(16872.879 3935.69)" fill="#f1f0fe"/>
    <path id="Trazado_280262" data-name="Trazado 280262" d="M156.965,92.732a22.674,22.674,0,0,1,2.893-11.3c.521-.921,1.216-1.392,2.232-.843a1.491,1.491,0,0,1,.6,2.309,19.269,19.269,0,0,0-2.391,11.7,17.935,17.935,0,0,0,2.408,7.46c.225.394.478.777.662,1.19a1.454,1.454,0,0,1-.758,2.049,1.417,1.417,0,0,1-2.013-.55,21.4,21.4,0,0,1-3.3-8.585,12.139,12.139,0,0,1-.332-3.437" transform="translate(16872.879 3935.69)" fill="#facd71"/>
    <path id="Trazado_280263" data-name="Trazado 280263" d="M190.947,153.344a18.4,18.4,0,0,1,6.22-12.307,2,2,0,0,1,2.795-.273,2.111,2.111,0,0,1,.078,3.144,16.475,16.475,0,0,0-3.727,5.326c-2.355,5.75-1.265,10.929,2.629,15.616a2.288,2.288,0,0,1,.451,2.862,1.929,1.929,0,0,1-2.431.714,4.5,4.5,0,0,1-1.983-1.829c-2.573-3.5-4.068-7.387-4.032-13.253" transform="translate(16872.879 3935.69)" fill="#fc9289"/>
  </g>
</svg>
