<svg xmlns="http://www.w3.org/2000/svg" width="208.392" height="208.392" viewBox="0 0 208.392 208.392">
  <g id="Grupo_1075567" data-name="Grupo 1075567" transform="translate(-17458.503 -3767.27)">
    <path id="Trazado_280265" data-name="Trazado 280265" d="M725.016,113.775a104.2,104.2,0,1,1-104.2-104.2,104.2,104.2,0,0,1,104.2,104.2" transform="translate(16941.879 3757.69)" fill="#e2e8ec"/>
    <path id="Trazado_280266" data-name="Trazado 280266" d="M543.217,96.061c1.236-2.824,3.482-3.537,6.385-3.332,9.5.67,17.7,4.4,24.994,10.339a67.334,67.334,0,0,1,14.333,16.849,79.632,79.632,0,0,1,6.627,15.377,49.581,49.581,0,0,1,2.212,11.969H579.607c-.172-.835-.32-1.675-.518-2.5A32.68,32.68,0,0,0,569.041,127.9a34.027,34.027,0,0,0-5.3-11.116c-4.292-6.171-10.032-10.7-16.471-14.427a8.851,8.851,0,0,1-4.05-3.872Z" transform="translate(16941.879 3757.69)" fill="#59c26a"/>
    <path id="Trazado_280267" data-name="Trazado 280267" d="M579.606,147.261l18.162,0,18.524-.007,4.538.006-.02.038q.011,4.515.02,9.03c-.656.016-1.311.046-1.967.046-23.123,0-46.247-.037-69.37.05-2.879.011-5-.736-6.277-3.382v-2.122c1-2.736,2.977-3.878,5.837-3.645.648.053,1.3-.009,1.956-.018l28.6,0" transform="translate(16941.879 3757.69)" fill="#d0ef5a"/>
    <path id="Trazado_280268" data-name="Trazado 280268" d="M579.606,147.261l-28.6,0a80.991,80.991,0,0,0-7.794-21.5V123.34c1.247-2.822,3.5-3.685,6.4-3.3,1.2.157,2.406.254,3.6.446A33.229,33.229,0,0,1,569.04,127.9a32.683,32.683,0,0,1,10.048,16.858c.2.828.347,1.668.518,2.5" transform="translate(16941.879 3757.69)" fill="#97dd3d"/>
    <path id="Trazado_280269" data-name="Trazado 280269" d="M616.292,147.256l-18.524.007a49.674,49.674,0,0,0-2.212-11.97,79.661,79.661,0,0,0-6.628-15.376,38.68,38.68,0,0,0-9.371-24.373,55.248,55.248,0,0,0-13.386-11.03,29.351,29.351,0,0,1-2.5-1.71,4.451,4.451,0,0,1-1.69-5.216,4.5,4.5,0,0,1,4.583-3.036A49.8,49.8,0,0,1,596.8,84.934a58.169,58.169,0,0,1,10.409,10.717c.145.259.274.53.438.777a50.613,50.613,0,0,1,8.635,29.04c-.046,7.263,0,14.525.012,21.788" transform="translate(16941.879 3757.69)" fill="#97dd3d"/>
    <path id="Trazado_280270" data-name="Trazado 280270" d="M634.362,94.858c.245.927.51.336.756,0a49.742,49.742,0,0,1,7.728-8.281A49.149,49.149,0,0,1,670.809,74.8c1.455-.13,2.918-.228,4.378-.241A4.364,4.364,0,0,1,679.67,77.7,4.255,4.255,0,0,1,678,82.763c-2.789,1.993-5.736,3.77-8.471,5.831-8.448,6.366-14.175,14.539-16.142,25.082-.371,1.988-.891,4-.454,6.058a64.294,64.294,0,0,0-7.256,17.011,41.542,41.542,0,0,0-1.8,10.514l-18.536-.009c.234-9.162-.377-18.337.329-27.491a48.311,48.311,0,0,1,6.021-19.59c.948-1.737,2.428-3.219,2.676-5.311" transform="translate(16941.879 3757.69)" fill="#59c26a"/>
    <path id="Trazado_280271" data-name="Trazado 280271" d="M643.873,147.259a41.579,41.579,0,0,1,1.8-10.513,64.321,64.321,0,0,1,7.257-17.012c6.179-10.265,14.2-18.568,25.266-23.59a37.66,37.66,0,0,1,15.245-3.41,4.567,4.567,0,0,1,2.352,8.673c-10.015,5.534-16.754,13.876-21,24.37a1.058,1.058,0,0,0-.028.3c-.362.336-.707.693-1.088,1a32.7,32.7,0,0,0-6.345,6.826,33.52,33.52,0,0,0-5.309,13.347l-18.149,0" transform="translate(16941.879 3757.69)" fill="#01a66c"/>
    <path id="Trazado_280272" data-name="Trazado 280272" d="M643.873,147.259l18.149,0,28.675.025c1.111,0,2.223-.022,3.333.01a4.539,4.539,0,0,1-.038,9.075q-36.43.022-72.862,0a2.363,2.363,0,0,1-.3-.037q-.011-4.515-.02-9.03l4.527-.049Z" transform="translate(16941.879 3757.69)" fill="#96dd3d"/>
    <path id="Trazado_280273" data-name="Trazado 280273" d="M690.7,147.281l-28.676-.025a33.52,33.52,0,0,1,5.309-13.347,32.728,32.728,0,0,1,6.346-6.826c.381-.312.726-.669,1.088-1a44.415,44.415,0,0,1,8.874-4.423,32.991,32.991,0,0,1,9.632-1.641c4.129-.038,6.287,3.246,4.479,6.957a87.856,87.856,0,0,0-6.714,18.382c-.149.634-.227,1.285-.338,1.928" transform="translate(16941.879 3757.69)" fill="#59c26a"/>
    <path id="Trazado_280274" data-name="Trazado 280274" d="M625.337,147.251l-4.527.05.02-.038V65.5a3.728,3.728,0,0,1,3.782,2c3.308,6.456,7.078,12.717,8.7,19.919a55.49,55.49,0,0,1,1.054,7.438c-.248,2.093-1.728,3.575-2.677,5.312a48.332,48.332,0,0,0-6.021,19.59c-.7,9.154-.095,18.328-.328,27.491" transform="translate(16941.879 3757.69)" fill="#01a66c"/>
    <path id="Trazado_280275" data-name="Trazado 280275" d="M620.83,65.5v81.765l-4.538-.006c-.007-7.263-.058-14.526-.012-21.788a50.619,50.619,0,0,0-8.635-29.04c-.164-.247-.293-.518-.438-.777a49.615,49.615,0,0,1,6.477-21.674c1.058-1.948,1.986-3.965,3.023-5.925A4.318,4.318,0,0,1,620.83,65.5" transform="translate(16941.879 3757.69)" fill="#59c26a"/>
  </g>
</svg>
