<svg xmlns="http://www.w3.org/2000/svg" width="67" height="67" viewBox="0 0 67 67">
  <g id="Grupo_1075883" data-name="Grupo 1075883" transform="translate(-810 -1096.811)">
    <g id="Elipse_4293" data-name="Elipse 4293" transform="translate(810 1096.811)" fill="#3b5620" stroke="#707070" stroke-width="1">
      <circle cx="33.5" cy="33.5" r="33.5" stroke="none"/>
      <circle cx="33.5" cy="33.5" r="33" fill="none"/>
    </g>
    <path id="Trazado_816297" data-name="Trazado 816297" d="M16.755-27.405v4.917h-.278a9.387,9.387,0,0,0-5.761,1.679,7.09,7.09,0,0,0-2.774,4.667,7.312,7.312,0,0,1,5.344-2.078A6.82,6.82,0,0,1,18.87-15.66a10.328,10.328,0,0,1,2.078,6.717,9.457,9.457,0,0,1-1.215,4.731,8.672,8.672,0,0,1-3.4,3.368A9.757,9.757,0,0,1,11.5.371,10.084,10.084,0,0,1,6.364-.937,8.994,8.994,0,0,1,2.839-4.676a12.311,12.311,0,0,1-1.3-5.6v-2.5A15.6,15.6,0,0,1,3.331-20.29a12.981,12.981,0,0,1,5.112-5.223,14.615,14.615,0,0,1,7.366-1.893ZM11.114-13.434a3.578,3.578,0,0,0-2.078.575,3.652,3.652,0,0,0-1.243,1.41v1.874q0,5.121,3.544,5.121a2.875,2.875,0,0,0,2.384-1.28,5.218,5.218,0,0,0,.956-3.21,5.121,5.121,0,0,0-.974-3.238A3.116,3.116,0,0,0,11.114-13.434Z" transform="translate(833 1143.811)" fill="#dbf9bd"/>
  </g>
</svg>
