<svg xmlns="http://www.w3.org/2000/svg" width="67" height="67" viewBox="0 0 67 67">
  <g id="Grupo_1075885" data-name="Grupo 1075885" transform="translate(-810 -1397.811)">
    <g id="Elipse_4295" data-name="Elipse 4295" transform="translate(810 1397.811)" fill="#3b5620" stroke="#707070" stroke-width="1">
      <circle cx="33.5" cy="33.5" r="33.5" stroke="none"/>
      <circle cx="33.5" cy="33.5" r="33" fill="none"/>
    </g>
    <path id="Trazado_816301" data-name="Trazado 816301" d="M19.872-19.8a6.237,6.237,0,0,1-.974,3.47,7.1,7.1,0,0,1-2.681,2.412,7.807,7.807,0,0,1,3.062,2.588A6.679,6.679,0,0,1,20.41-7.44a7.07,7.07,0,0,1-2.5,5.715A10.363,10.363,0,0,1,11.04.371,10.553,10.553,0,0,1,4.1-1.735,7.02,7.02,0,0,1,1.559-7.44a6.763,6.763,0,0,1,1.113-3.841,7.57,7.57,0,0,1,3.154-2.635,7.135,7.135,0,0,1-2.709-2.412,6.193,6.193,0,0,1-.983-3.47,6.932,6.932,0,0,1,2.394-5.566,9.622,9.622,0,0,1,6.457-2.041,9.681,9.681,0,0,1,6.494,2.041A6.932,6.932,0,0,1,19.872-19.8ZM14.139-7.941a3.567,3.567,0,0,0-.863-2.57,3,3,0,0,0-2.273-.9,3.035,3.035,0,0,0-2.282.9,3.543,3.543,0,0,0-.872,2.57A3.574,3.574,0,0,0,8.73-5.39a3.025,3.025,0,0,0,2.31.937,2.907,2.907,0,0,0,2.245-.928A3.638,3.638,0,0,0,14.139-7.941Zm-3.154-14.64a2.311,2.311,0,0,0-1.92.826,3.583,3.583,0,0,0-.659,2.292,3.8,3.8,0,0,0,.668,2.338,2.3,2.3,0,0,0,1.967.891,2.21,2.21,0,0,0,1.92-.891,3.918,3.918,0,0,0,.64-2.338,3.591,3.591,0,0,0-.659-2.282A2.342,2.342,0,0,0,10.984-22.581Z" transform="translate(833 1444.811)" fill="#dbf9bd"/>
  </g>
</svg>
