<svg xmlns="http://www.w3.org/2000/svg" xmlns:xlink="http://www.w3.org/1999/xlink" width="221.829" height="182.217" viewBox="0 0 221.829 182.217">
  <defs>
    <clipPath id="clip-path">
      <rect id="Rectángulo_326316" data-name="Rectángulo 326316" width="221.829" height="182.217" fill="none"/>
    </clipPath>
    <clipPath id="clip-path-3">
      <rect id="Rectángulo_326311" data-name="Rectángulo 326311" width="15.205" height="30.272" transform="translate(40.994 111.463)" fill="none"/>
    </clipPath>
    <clipPath id="clip-path-4">
      <rect id="Rectángulo_326312" data-name="Rectángulo 326312" width="23.892" height="38.879" transform="translate(135.655 103.096)" fill="none"/>
    </clipPath>
    <clipPath id="clip-path-5">
      <rect id="Rectángulo_326313" data-name="Rectángulo 326313" width="24.555" height="45.169" transform="translate(173.414 27.452)" fill="none"/>
    </clipPath>
    <clipPath id="clip-path-6">
      <rect id="Rectángulo_326314" data-name="Rectángulo 326314" width="36.558" height="42.327" transform="translate(157.123 14.308)" fill="none"/>
    </clipPath>
  </defs>
  <g id="Grupo_262388" data-name="Grupo 262388" clip-path="url(#clip-path)">
    <g id="Grupo_262387" data-name="Grupo 262387">
      <g id="Grupo_262386" data-name="Grupo 262386" clip-path="url(#clip-path)">
        <path id="Trazado_280836" data-name="Trazado 280836" d="M202.267,174.12c0,4.472-43.619,8.1-97.425,8.1s-97.425-3.625-97.425-8.1,43.619-8.1,97.425-8.1,97.425,3.625,97.425,8.1" fill="#decec8"/>
        <path id="Trazado_280837" data-name="Trazado 280837" d="M55.309,158.691l-.485,8.155a3.4,3.4,0,0,0,1.9,3.259c3.574,1.753,11.135,4.547,16.62.241,0,0,.613-5.214-7.116-8.588Z" fill="#2e2a29"/>
        <path id="Trazado_280838" data-name="Trazado 280838" d="M66.228,161.758l-2.649-.744c1.308,1.125,2.688,2.17,4.075,3.17,1.54,1.111,2.982,2.449,2.182,4.49-.68,1.735-2.4,2.977-3.963,3.944a11.233,11.233,0,0,0,7.471-2.272s.613-5.214-7.116-8.588" fill="#262322"/>
        <path id="Trazado_280839" data-name="Trazado 280839" d="M53.415,111.56s5.14,39.017,8.878,44.391a9.912,9.912,0,0,1,5.374,3.348,9.76,9.76,0,0,1,2.025,4.517,23.461,23.461,0,0,1-4.985-.224,27.263,27.263,0,0,1-11.292-4.6l.651-1.871a9.28,9.28,0,0,0-.281-6.811c-3.12-7.036-10.23-23.9-12.753-36.877Z" fill="#7f7671"/>
        <g id="Grupo_262376" data-name="Grupo 262376" opacity="0.61" style="mix-blend-mode: multiply;isolation: isolate">
          <g id="Grupo_262375" data-name="Grupo 262375">
            <g id="Grupo_262374" data-name="Grupo 262374" clip-path="url(#clip-path-3)">
              <path id="Trazado_280840" data-name="Trazado 280840" d="M56.2,130.354c-1.641-9.927-2.823-18.891-2.823-18.891l-12.382,1.869c1.776,9.136,5.826,20.2,9.157,28.4.315-.773,3.756-8.822,6.048-11.381" fill="#7f7671"/>
            </g>
          </g>
        </g>
        <path id="Trazado_280841" data-name="Trazado 280841" d="M70.7,112.028,51.78,94.038,34.023,118.8a23.7,23.7,0,0,0,10.106,4.107,11.135,11.135,0,0,0,1.844,4.057,1.772,1.772,0,0,0,3.114-.618,15.269,15.269,0,0,0,.526-3.175,24.62,24.62,0,0,0,3.535-.493,10.266,10.266,0,0,0,1.9,3.035,1.773,1.773,0,0,0,3.041-.913,14.888,14.888,0,0,0,.187-3.775q1.293-.56,2.624-1.29a10.274,10.274,0,0,0,2.219,2.805,1.772,1.772,0,0,0,2.923-1.238,14.2,14.2,0,0,0-.443-4.678,47.266,47.266,0,0,0,5.1-4.6" fill="#e9a3a3"/>
        <path id="Trazado_280842" data-name="Trazado 280842" d="M52.025,110.4c4.465.6,8.844,1.688,13.323,2.189a41.057,41.057,0,0,0,4.422.374c.311-.306.622-.611.935-.935L51.78,94.038,40.009,110.457a44.967,44.967,0,0,1,12.016-.057" fill="#d19292"/>
        <path id="Trazado_280843" data-name="Trazado 280843" d="M70.7,112.183l-2.77-2.633c-12.261,17.352-31.722,7.7-32.468,7.4l-1.443,2.011a23.7,23.7,0,0,0,10.106,4.107,11.135,11.135,0,0,0,1.844,4.057,1.772,1.772,0,0,0,3.114-.618,15.28,15.28,0,0,0,.526-3.175,24.62,24.62,0,0,0,3.535-.493,10.279,10.279,0,0,0,1.9,3.035,1.773,1.773,0,0,0,3.041-.914,14.877,14.877,0,0,0,.187-3.774c.862-.374,1.737-.8,2.624-1.29a10.274,10.274,0,0,0,2.219,2.805,1.772,1.772,0,0,0,2.923-1.239,14.2,14.2,0,0,0-.443-4.677,47.478,47.478,0,0,0,5.1-4.6" fill="#d19292"/>
        <path id="Trazado_280844" data-name="Trazado 280844" d="M152.267,158.691l-.486,8.155a3.4,3.4,0,0,0,1.9,3.259c3.575,1.753,11.136,4.547,16.621.241,0,0,.613-5.214-7.116-8.588Z" fill="#2e2a29"/>
        <path id="Trazado_280845" data-name="Trazado 280845" d="M163.186,161.758l-10.919-3.067-.022.361,7.553,2.122c7.729,3.374,7.116,8.588,7.116,8.588a11.5,11.5,0,0,1-8.213,2.232c3.643.951,8.055,1.136,11.6-1.648,0,0,.613-5.214-7.116-8.588" fill="#262322"/>
        <path id="Trazado_280846" data-name="Trazado 280846" d="M135.212,164.532l-.485,8.155a3.4,3.4,0,0,0,1.9,3.259c3.574,1.753,11.135,4.547,16.62.241,0,0,.613-5.214-7.116-8.588Z" fill="#2e2a29"/>
        <path id="Trazado_280847" data-name="Trazado 280847" d="M146.131,167.6l-10.919-3.067-.022.361,7.553,2.122c7.729,3.374,7.116,8.588,7.116,8.588a11.5,11.5,0,0,1-8.213,2.232c3.643.951,8.055,1.136,11.6-1.648,0,0,.613-5.214-7.116-8.588" fill="#262322"/>
        <path id="Trazado_280848" data-name="Trazado 280848" d="M159.252,108.757s2.1,18.223-4.906,27.8c0,0,.573,10.656,3.965,18.407,1.642.166,6.431,3.788,6.081,7.292,0,0-10.514,1.519-17.289-2.219a24.5,24.5,0,0,0,2.1-14.135s-5.608-38.083-13.551-41.587c0,0,11.448-5.14,23.6,4.439" fill="#7f7671"/>
        <g id="Grupo_262379" data-name="Grupo 262379" opacity="0.61" style="mix-blend-mode: multiply;isolation: isolate">
          <g id="Grupo_262378" data-name="Grupo 262378">
            <g id="Grupo_262377" data-name="Grupo 262377" clip-path="url(#clip-path-4)">
              <path id="Trazado_280849" data-name="Trazado 280849" d="M156.092,133.8c4.885-9.936,3.16-24.89,3.16-24.89-12.149-9.579-23.6-4.439-23.6-4.439,6.334,2.794,11.183,27.576,12.887,37.5,2.511-2.726,5.012-5.468,7.55-8.173" fill="#7f7671"/>
            </g>
          </g>
        </g>
        <path id="Trazado_280850" data-name="Trazado 280850" d="M49.288,35.785c23.127,6.4,40.334,1.977,64.172-2.492,29.905-5.607,40.652-4.2,57.707-6.776,7.911-1.192,24.887,7.955,32.631,9.891l-13.87,36.385s-1.394,66.726-65.565,38.69c0,0-34.89,25.544-76.009-12.461,0,0-19.314-68.844.934-63.237" fill="#c9c2b8"/>
        <path id="Trazado_280851" data-name="Trazado 280851" d="M166.509,107.438c-6.81,2.692-14.48,1.944-21.642.419s-8.981-3.917-16.3-4.162c-11.151-.375-16.485,7.031-39.407,5.918-16.042-.779-29.905-12.928-36.758-6.7,38.783,32.241,71.8,9.034,71.8,9.034,12.744,5.568,28.324,9.939,41.816,4.286,8.889-3.725,15.027-11.485,18.7-20.183a66.549,66.549,0,0,0,4.67-18.188,94.877,94.877,0,0,1-4.9,10.321c-4.223,7.932-9.623,15.949-17.98,19.252" fill="#b3a69f"/>
        <path id="Trazado_280852" data-name="Trazado 280852" d="M191.116,67.862a6.868,6.868,0,0,0-.556,2.626c.282-1.159.59-2.317.89-3.492-.111.288-.223.577-.334.866" fill="#b3a69f"/>
        <path id="Trazado_280853" data-name="Trazado 280853" d="M25.435,163.537l-.485,8.155a3.4,3.4,0,0,0,1.9,3.259c3.574,1.753,11.135,4.547,16.62.241,0,0,.613-5.214-7.116-8.588Z" fill="#2e2a29"/>
        <path id="Trazado_280854" data-name="Trazado 280854" d="M36.2,166.6l-2.564-.72a14.909,14.909,0,0,1,3.334,2.833c.624.722,1.2,1.486,1.768,2.249.254.34.507.681.764,1.019a6.6,6.6,0,0,1,.926,1.174A2.414,2.414,0,0,1,39.957,175a6.943,6.943,0,0,1-3.409,2.466,11.008,11.008,0,0,0,6.766-2.278s.613-5.214-7.116-8.588" fill="#262322"/>
        <path id="Trazado_280855" data-name="Trazado 280855" d="M22.585,46.1a17.82,17.82,0,0,0-7.99,4.241,16.207,16.207,0,0,0-4.617,7.212A23.014,23.014,0,0,0,9.4,66.374c.158,1.55.393,3.13.679,4.734l.931,4.9a129.264,129.264,0,0,1,2.5,20.331c.057,1.725.02,3.456-.044,5.184-.053.866-.082,1.729-.157,2.593-.092.864-.171,1.726-.285,2.585a46.892,46.892,0,0,1-2.4,10.092l-2.257-.6a70.715,70.715,0,0,0,.39-19.544c-.313-3.257-.851-6.5-1.415-9.753-.581-3.25-1.246-6.5-1.927-9.769-.342-1.625-.7-3.281-1.014-4.983a52.838,52.838,0,0,1-.749-5.239,30.555,30.555,0,0,1-.023-5.514,21.17,21.17,0,0,1,1.255-5.584,18.878,18.878,0,0,1,7.042-8.889,17.479,17.479,0,0,1,10.466-3.147Z" fill="#7f7671"/>
        <path id="Trazado_280856" data-name="Trazado 280856" d="M5.184,118.234c-3.558,5.554-4.337,8.357-5.115,17.08a21.293,21.293,0,0,0,5.256,15.311c-1.683-3.76-.738-8.194.966-11.945s4.125-7.165,5.536-11.035c1.13-3.1,1.828-7.573-.052-10.554-1.794-2.846-4.872-1.541-6.591,1.143" fill="#2e2a29"/>
        <path id="Trazado_280857" data-name="Trazado 280857" d="M69.017,69.23C75.226,42.225,42.932,22.8,22.214,41.2q-.4.36-.807.736S-.555,62.263,24.678,99.411c0,0-1.4,15.654-3.037,20.326l-1.77,2.053a7.494,7.494,0,0,0-.659,8.878c6.385,10.178,5.56,14.7,5,33.771,0,0,7.632,7.009,15.575,4.362l-2.959-4.829c-1.627-1.515-3.523-3.671-3.557-5.894l-.415-27.827s5.14-5.607,6.308-12.383c0,0,23.633-21.577,29.854-48.638" fill="#c9c2b8"/>
        <path id="Trazado_280858" data-name="Trazado 280858" d="M27.949,108.99c.818-1.811,1.711-5.614,1.365-6.178a8.69,8.69,0,0,0-1.2-1.015c-1.787-1.685-3.626-3.312-5.362-5.045.578.916,1.176,1.839,1.812,2.776,0,0-1.475,14.312-2.92,20.151a57.917,57.917,0,0,0,6.308-10.689" fill="#b3a69f"/>
        <path id="Trazado_280859" data-name="Trazado 280859" d="M139.938,65.067s-.312,27.413-10.28,37.382c0,0,8.1,38,1.246,60.121,0,0,5.3,1.246,3.427,6.231,0,0,9.968.623,12.149-1.246a9.6,9.6,0,0,0-5.608-6.542l.624-17.445s14.952-25.544,22.74-44.858c0,0,0-25.544-24.3-33.643" fill="#c9c2b8"/>
        <path id="Trazado_280860" data-name="Trazado 280860" d="M69.708,69.125a14.048,14.048,0,0,0-1.952,14.489c1.151,2.527,3.339,4.82,6.1,5.107,1.938.2,3.824-.6,5.608-1.383l9.526-4.182a12.728,12.728,0,0,0,4.974-3.191c2.326-2.843,1.669-7.33-.721-10.12-5.687-6.637-17.78-7.621-23.537-.72" fill="#1a1a1a"/>
        <path id="Trazado_280861" data-name="Trazado 280861" d="M36.094,72.713c1.395,1.771,3.6,2.649,5.528,3.816s3.8,3.017,3.693,5.269c-.154,3.232-4.012,4.817-5.748,7.547-.916,1.44-1.215,3.184-1.959,4.72s-2.245,2.966-3.932,2.71c-1.561-.236-2.579-1.831-2.868-3.383s-.063-3.154-.23-4.724c-.329-3.1-2.147-5.817-3.813-8.458s-3.285-5.544-3.142-8.663c.135-2.922,3.322-6.978,6.574-6.755,3.586.246,4.142,5.692,5.9,7.921" fill="#1a1a1a"/>
        <path id="Trazado_280862" data-name="Trazado 280862" d="M140.1,96.526c-1.4,2.139-1.467,4.895-1.041,7.415s1.293,4.958,1.606,7.495c.254,2.062.319,4.509,2.05,5.659,2.045,1.358,4.792-.2,6.408-2.047a17.774,17.774,0,0,0,4.229-9.424,11.5,11.5,0,0,0-1.283-7.407c-2.4-3.932-8.968-6.275-11.969-1.691" fill="#1a1a1a"/>
        <path id="Trazado_280863" data-name="Trazado 280863" d="M50.089,47.65c-3.768,3.032-9.752,4.761-10.183,9.578-.454,5.088,5.873,7.93,8.075,12.539,1.041,2.178,1.37,5.056,3.544,6.106,2.066,1,4.572-.434,5.856-2.333s1.81-4.212,2.931-6.212c3.746-6.686,12.666-8.047,20.329-8.2s16.331-.25,21.542-5.87c4.036-4.352,4.713-11.061,3-16.745-.158-.522-.337-1.034-.527-1.541-17.752,3.4-32.335,5.9-50.022,2.116a13.058,13.058,0,0,1-4.547,10.56" fill="#1a1a1a"/>
        <path id="Trazado_280864" data-name="Trazado 280864" d="M111.162,52.944c.974,2.387,2.671,4.5,3.479,6.942,1.676,5.061-.72,10.387-2.308,15.471s-2.009,11.379,2.381,14.831c3.014,2.37,7.677,2.554,11.2.864a13.087,13.087,0,0,0,6.825-8.531c.7-2.707.624-5.571,1.634-8.2s3.649-5.082,6.672-4.721c2.97.354,4.8,3.177,5.529,5.827s.878,5.53,2.52,7.815c2.087,2.9,6.25,4.145,10.032,3.76a23.282,23.282,0,0,0,10.311-4.187c5.567-3.694,10.667-9.606,9.025-15.7-1.341-4.978-6.792-8.365-8.145-13.34-2.227-8.185,7.461-15.756,6.461-24.14a10.253,10.253,0,0,0-.809-2.9,15.372,15.372,0,0,0-4.8-.218c-3.094.465-5.979.8-8.809,1.071,1.794,7.71-8.965,15.515-16.081,15.753a7.911,7.911,0,0,1-5.07-1.262c-2.59-1.956-2.666-6.032-1.037-8.84a17.325,17.325,0,0,1,3.672-4.2c-6.6.577-14.278,1.452-24.28,3.161-.653.474-1.292.965-1.906,1.489-5.705,4.861-9.217,12.582-6.494,19.256" fill="#1a1a1a"/>
        <path id="Trazado_280865" data-name="Trazado 280865" d="M16.98,64.856c.656-1.767.847-3.669,1.326-5.492a18.04,18.04,0,0,1,7.715-10.541c2.818-1.782,6.063-2.736,9.186-3.9s6.26-2.646,8.432-5.176a9.694,9.694,0,0,0,2.291-5.281A27.48,27.48,0,0,0,22.215,41.2q-.405.36-.808.736s-10.12,9.375-8.722,27.02a3.288,3.288,0,0,0,.582-.11,6.2,6.2,0,0,0,3.713-3.991" fill="#1a1a1a"/>
        <g id="Grupo_262382" data-name="Grupo 262382" style="mix-blend-mode: multiply;isolation: isolate">
          <g id="Grupo_262381" data-name="Grupo 262381">
            <g id="Grupo_262380" data-name="Grupo 262380" clip-path="url(#clip-path-5)">
              <path id="Trazado_280866" data-name="Trazado 280866" d="M176.073,27.452c-.984,2.57-6.045,16.544,1.09,30.762a37.927,37.927,0,0,0,12.85,14.407c1.492-3.882,3.379-8.665,5.1-13.959,2.576-7.917,4.011-18.282,1.674-27.394Z" fill="#b3a69f"/>
            </g>
          </g>
        </g>
        <path id="Trazado_280867" data-name="Trazado 280867" d="M211.745.531a17.037,17.037,0,0,1-.794,4.341,16.821,16.821,0,0,1-1.959,4.12,17.446,17.446,0,0,1-1.433,1.894,16.674,16.674,0,0,1-1.759,1.67,17.908,17.908,0,0,1-4.223,2.574,3.068,3.068,0,1,1-1.74-5.816l.081-.011a12.548,12.548,0,0,0,3.326-.806,12.172,12.172,0,0,0,1.594-.765,13.524,13.524,0,0,0,1.481-1.054A13.876,13.876,0,0,0,208.9,3.884,15.532,15.532,0,0,0,210.745.379l.016-.045a.508.508,0,0,1,.984.2" fill="#a18b66"/>
        <path id="Trazado_280868" data-name="Trazado 280868" d="M205.549,9.514a19.837,19.837,0,0,1-5.6,2.791,17.875,17.875,0,0,1-2.512.625,3.151,3.151,0,0,0,.2.582,3.068,3.068,0,0,0,4.079,1.479,17.9,17.9,0,0,0,4.222-2.574,16.684,16.684,0,0,0,1.76-1.67,17.442,17.442,0,0,0,1.433-1.894,16.8,16.8,0,0,0,1.958-4.12,17.925,17.925,0,0,0,.669-3,18.714,18.714,0,0,1-6.209,7.783" fill="#8f7b5a"/>
        <path id="Trazado_280869" data-name="Trazado 280869" d="M186.329,55.936s3.086,3.951,6.513,4.673c9.807,2.063,13.31-.708,13.31-.708a5.451,5.451,0,0,0,3.54-5.239Z" fill="#b3a69f"/>
        <path id="Trazado_280870" data-name="Trazado 280870" d="M186.952,53.6s3.086,3.951,6.513,4.672c9.807,2.064,13.31-.707,13.31-.707a5.451,5.451,0,0,0,3.54-5.239Z" fill="#c9c2b8"/>
        <path id="Trazado_280871" data-name="Trazado 280871" d="M202.96,17.784s-.851,5.381,1.981,7.788a11.23,11.23,0,0,0,10.2.424c5.522-2.548,7.546-12.684,6.372-13.451-10.195-5.38-14.443,8.213-18.548,5.239" fill="#121212"/>
        <path id="Trazado_280872" data-name="Trazado 280872" d="M210.5,25.159a9.67,9.67,0,0,1-4.454-1.108,5.963,5.963,0,0,1-1.334-4c1.767-.224,3.3-1.592,4.916-3.034,2.037-1.817,4.346-3.877,7.21-3.877a7.6,7.6,0,0,1,3.138.734c0,2.156-1.9,8.707-5.622,10.425a9.136,9.136,0,0,1-3.853.86Z"/>
        <path id="Trazado_280873" data-name="Trazado 280873" d="M191.5,6.095s-16.991-2.336-18.478,19.54c0,0-4.806,33.013,18.327,32.1a5.35,5.35,0,0,0,1.1-.168c2.408-.613,12.447-2.971,17.1-.923a10.5,10.5,0,0,0-1.911-13.381,23.558,23.558,0,0,1,.212-12.106c1.912-6.159-.85-9.982-2.761-11.894,0,0-2.124-12.318-13.593-13.168" fill="#c9c2b8"/>
        <path id="Trazado_280874" data-name="Trazado 280874" d="M193.8,46.854c-.131,1.831-.01,6.026,3.41,8.524a4.765,4.765,0,0,0,2.884.892l4.838-.075a4.845,4.845,0,0,0,4.5-3.2,14.02,14.02,0,0,0,.779-6.678,1.617,1.617,0,0,0-.958-1.244,17.033,17.033,0,0,0-14.56.446,1.64,1.64,0,0,0-.889,1.333" fill="#d19292"/>
        <path id="Trazado_280875" data-name="Trazado 280875" d="M204.175,32.536a14.419,14.419,0,0,0,4.482,11.825,13.806,13.806,0,0,0-1.018-1.1,26.333,26.333,0,0,1,.676-11.957c1.911-6.159-.85-9.982-2.761-11.894,0,0-1.753-7.616-7.737-11.324,2.85,3.407,7.508,11.137,6.358,24.447" fill="#141414"/>
        <path id="Trazado_280876" data-name="Trazado 280876" d="M189.161,20.255A18.677,18.677,0,0,0,176.969,12.7a25.308,25.308,0,0,0-3.77,8.056c-3.47-2.025-7.8-9.37-15.755-5.174-1.173.767.85,10.9,6.372,13.452a11.1,11.1,0,0,0,8.243.442c-.368,7.071.141,22.034,10.362,26.828a3.489,3.489,0,0,0,1.665.327c7.875-.436,5.858-6.137,9.429-12.73,2.658-4.906,2.726-14.018-4.354-23.646" fill="#1a1a1a"/>
        <path id="Trazado_280877" data-name="Trazado 280877" d="M168.453,28.2a9.137,9.137,0,0,1-3.854-.86c-3.721-1.718-5.619-8.269-5.622-10.425a7.6,7.6,0,0,1,3.137-.734c2.865,0,5.173,2.06,7.21,3.877,1.615,1.442,3.149,2.811,4.917,3.034a5.959,5.959,0,0,1-1.335,4,9.672,9.672,0,0,1-4.453,1.107"/>
        <path id="Trazado_280878" data-name="Trazado 280878" d="M187.081,57.382c1.716.5,3.613-.1,5.434-.529,1.838-.473,3.688-1,5.589-1.4a28.585,28.585,0,0,1,5.848-.687,9.446,9.446,0,0,1,5.7,1.664.24.24,0,0,1-.185.427h-.007a30.58,30.58,0,0,0-11.067.072c-1.861.325-3.727.734-5.635,1.055a24.3,24.3,0,0,1-2.911.336,5.985,5.985,0,0,1-2.97-.52.232.232,0,0,1,.177-.427Z" fill="#8c827c"/>
        <path id="Trazado_280879" data-name="Trazado 280879" d="M209.872,45.753c-.039.506-2.648.234-7.165.428-4.4.19-8.527.343-8.527-.194s3.69-2.337,8.1-2.337,7.634,1.567,7.593,2.1" fill="#d1a3a3"/>
        <path id="Trazado_280880" data-name="Trazado 280880" d="M208.871,26.44a3.278,3.278,0,0,0-.973,6.336c.4-2.133,1.141-4.116.973-6.336"/>
        <path id="Trazado_280881" data-name="Trazado 280881" d="M208.886,27.5a2.218,2.218,0,0,0-.765,4.217,12.557,12.557,0,0,0,.765-4.217" fill="#242424"/>
        <path id="Trazado_280882" data-name="Trazado 280882" d="M208.782,28.279a1.381,1.381,0,0,0-1.285,1.46,1.5,1.5,0,0,0,.876,1.363,3.377,3.377,0,0,0,.47-2.816c-.021,0-.04-.007-.061-.007"/>
        <path id="Trazado_280883" data-name="Trazado 280883" d="M208.282,29.053a.392.392,0,1,1-.116-.578.419.419,0,0,1,.116.578" fill="#ebebeb"/>
        <path id="Trazado_280884" data-name="Trazado 280884" d="M196.732,47.187a4.491,4.491,0,0,1,.987.351,8.389,8.389,0,0,1,.913.523c.3.188.588.4.872.615a7.445,7.445,0,0,1,.824.728.253.253,0,0,1-.186.428,7.626,7.626,0,0,1-1.094-.1c-.355-.058-.705-.128-1.045-.217A8.188,8.188,0,0,1,197,49.2a4.419,4.419,0,0,1-.931-.481.855.855,0,0,1,.665-1.533" fill="#735151"/>
        <path id="Trazado_280885" data-name="Trazado 280885" d="M209.018,48.564a4.444,4.444,0,0,1-.931.481,8.294,8.294,0,0,1-1.005.309c-.341.09-.69.16-1.045.218a7.625,7.625,0,0,1-1.094.1.254.254,0,0,1-.257-.25.257.257,0,0,1,.071-.178,7.527,7.527,0,0,1,.823-.728c.285-.22.575-.427.873-.615a8.282,8.282,0,0,1,.912-.523,4.458,4.458,0,0,1,.987-.351.855.855,0,0,1,.666,1.533" fill="#735151"/>
        <path id="Trazado_280886" data-name="Trazado 280886" d="M187.273,32.091a4.281,4.281,0,0,1-.192-.718,5.46,5.46,0,0,1-.009-1.574,3.164,3.164,0,0,0-.285-1.691,3.286,3.286,0,1,0-2.514,4.607,7.4,7.4,0,0,1,1.543-.1c.35.022.691.058.987.1a.449.449,0,0,0,.47-.615"/>
        <path id="Trazado_280887" data-name="Trazado 280887" d="M181.389,29.379a2.394,2.394,0,1,1,2.394,2.4,2.394,2.394,0,0,1-2.394-2.4" fill="#242424"/>
        <path id="Trazado_280888" data-name="Trazado 280888" d="M181.992,29.379a1.791,1.791,0,1,1,1.791,1.791,1.791,1.791,0,0,1-1.791-1.791"/>
        <path id="Trazado_280889" data-name="Trazado 280889" d="M183.374,28.153a.525.525,0,1,1-.526-.526.526.526,0,0,1,.526.526" fill="#ebebeb"/>
        <path id="Trazado_280890" data-name="Trazado 280890" d="M170.9,2.175a19.676,19.676,0,0,0,.5,3.918,10.526,10.526,0,0,0,1.353,3.39,4.133,4.133,0,0,0,2.149,1.786,5.288,5.288,0,0,0,2.622-.069l.227-.041a2.752,2.752,0,0,1,3.179,2.287,2.761,2.761,0,0,1-2.991,3.288l-1.31-.142a5.226,5.226,0,0,1-1.307-.268c-.442-.143-.877-.27-1.3-.449-.42-.23-.831-.471-1.227-.718a8.263,8.263,0,0,1-3.015-4.295,13.578,13.578,0,0,1-.559-4.554,21.3,21.3,0,0,1,.57-4.287.559.559,0,0,1,.677-.423.573.573,0,0,1,.427.542Z" fill="#c4a97c"/>
        <path id="Trazado_280891" data-name="Trazado 280891" d="M180.928,13.445a2.75,2.75,0,0,0-3.178-2.286l-.228.041a5.621,5.621,0,0,1-2.53.1c.317.223.648.44,1,.655,1.232.75,2.994,1.71,3.15,3.324a2.515,2.515,0,0,1-.291,1.4,2.815,2.815,0,0,0,2.076-3.226" fill="#b59c73"/>
        <g id="Grupo_262385" data-name="Grupo 262385" opacity="0.83" style="mix-blend-mode: multiply;isolation: isolate">
          <g id="Grupo_262384" data-name="Grupo 262384">
            <g id="Grupo_262383" data-name="Grupo 262383" clip-path="url(#clip-path-6)">
              <path id="Trazado_280892" data-name="Trazado 280892" d="M192.223,38.51a10.377,10.377,0,0,0-5.964-3.021c-2.089-.445-4.495-.427-6.374-1.555a7.433,7.433,0,0,1-3.324-6.05,21.2,21.2,0,0,0-1.071-5.473,18.769,18.769,0,0,1-1-5.335,24.727,24.727,0,0,0-1.3,3.68c-3.47-2.025-7.8-9.37-15.755-5.174-1.173.767.849,10.9,6.371,13.452a11.1,11.1,0,0,0,8.244.442c-.368,7.071.141,22.033,10.361,26.827a3.481,3.481,0,0,0,1.669.327c7.985-.443,5.794-6.3,9.585-13.016,0-.013,0-.025.007-.038a18.185,18.185,0,0,0-1.458-5.066" fill="#b3a69f"/>
            </g>
          </g>
        </g>
      </g>
    </g>
  </g>
</svg>
