<svg xmlns="http://www.w3.org/2000/svg" xmlns:xlink="http://www.w3.org/1999/xlink" width="229.295" height="109.421" viewBox="0 0 229.295 109.421">
  <defs>
    <clipPath id="clip-path">
      <rect width="229.295" height="109.421" fill="none"/>
    </clipPath>
    <clipPath id="clip-path-2">
      <rect id="Rectángulo_326317" data-name="Rectángulo 326317" width="229.295" height="109.421" transform="translate(0 0)" fill="none"/>
    </clipPath>
  </defs>
  <g id="Cuadrícula_de_repetición_1" data-name="Cuadrícula de repetición 1" clip-path="url(#clip-path)">
    <g transform="translate(0 0)">
      <g id="Grupo_262390" data-name="Grupo 262390" clip-path="url(#clip-path-2)">
        <path id="Trazado_280893" data-name="Trazado 280893" d="M194.85,101.324c0,4.472-43.619,8.1-97.425,8.1S0,105.8,0,101.324s43.619-8.1,97.425-8.1,97.425,3.625,97.425,8.1" fill="#decec8"/>
        <path id="Trazado_280894" data-name="Trazado 280894" d="M194.178,34.791l18.5.9a1.415,1.415,0,0,1,1.131,2.167c-1.5,2.4-4.977,6.209-12.318,7.544Z" fill="#c48989"/>
        <path id="Trazado_280895" data-name="Trazado 280895" d="M211.432,35.633l-17.34-.843,3.974,5.766a32.16,32.16,0,0,0,13.366-4.923" fill="#b37c7c"/>
        <path id="Trazado_280896" data-name="Trazado 280896" d="M52.511,61.038s-13.3,12.527-23.919,18.185a8.777,8.777,0,0,0-4.637,7.826c.02,3.046,2.106,8.963,3.23,11.292l-7.1-.108c-2.07.073-3.686-3.011-4.084-4.647-1.313-5.4,1.728-10.712.633-16.268-1.572-7.976-3.558-24.017,2.387-36.6Z" fill="#d19292"/>
        <path id="Trazado_280897" data-name="Trazado 280897" d="M21.676,68.187A62.03,62.03,0,0,0,29.988,78.7c10.356-5.947,22.523-17.408,22.523-17.408L19.024,40.969a43.133,43.133,0,0,0-3.661,13.765,57.2,57.2,0,0,0,6.313,13.453" fill="#c48989"/>
        <path id="Trazado_280898" data-name="Trazado 280898" d="M152.728,61.038s-13.295,12.527-23.919,18.185a8.777,8.777,0,0,0-4.637,7.826c.02,3.046,2.106,8.963,3.23,11.292l-7.1-.108c-2.07.073-3.686-3.011-4.084-4.647-1.313-5.4,1.728-10.712.633-16.268-1.572-7.976-3.558-24.017,2.387-36.6Z" fill="#ba7777"/>
        <path id="Trazado_280899" data-name="Trazado 280899" d="M119.241,40.713c-5.944,12.587-3.959,28.628-2.387,36.6.853,4.325-.795,8.5-.949,12.689,1.845-1.1,3.7-2.18,5.539-3.286a27.612,27.612,0,0,1,2.968-1.761,8.736,8.736,0,0,1,4.4-5.738c10.623-5.658,23.918-18.185,23.918-18.185Z" fill="#b07171"/>
        <path id="Trazado_280900" data-name="Trazado 280900" d="M59.552,74.935s-40.718.86-40.718-36.417c0-34.486,29.941-40.5,60.988-33.492a29.621,29.621,0,0,0,14.5-.26C111.032.1,154.2-8.089,183.712,20.74L173.1,66.906s-17.615,8.042-37.043,6.915a40.132,40.132,0,0,0-22.755,5.415c-10.45,6.183-29.021,11.47-53.753-4.3" fill="#e9a3a3"/>
        <path id="Trazado_280901" data-name="Trazado 280901" d="M23.8,29.467c1.313-5.171,6.653-20.3,19.689-25.251-14.552,3.847-24.655,14.271-24.655,34.3,0,9.881,4.113,23.363,12.984,28.14C25.506,61.369,21.07,40.215,23.8,29.467" fill="#d19292"/>
        <path id="Trazado_280902" data-name="Trazado 280902" d="M20.82,21.659a8.805,8.805,0,0,1-3.556-3.229,9.258,9.258,0,0,1-1.393-4.4A8.382,8.382,0,0,1,16.947,9.5a9.251,9.251,0,0,1,3.079-3.245A8.879,8.879,0,0,1,24.32,4.866a6.371,6.371,0,0,1,2.542.371A5.726,5.726,0,0,1,29.1,6.8a8.394,8.394,0,0,1,1.3,1.983,10.11,10.11,0,0,1,.735,2.116,10.515,10.515,0,0,1,.081,4.407,9.932,9.932,0,0,1-1.764,4.049A9.59,9.59,0,0,1,26,22.233,11.623,11.623,0,0,1,17.7,23a11.267,11.267,0,0,1-3.673-1.789,11.567,11.567,0,0,1-2.714-2.838,11.805,11.805,0,0,1-2.05-7.03.436.436,0,0,1,.849-.123l0,.012A13.732,13.732,0,0,0,11.5,14.175a12.185,12.185,0,0,0,1.979,2.376A10.388,10.388,0,0,0,15.9,18.176a8.485,8.485,0,0,0,2.646.711,7.7,7.7,0,0,0,4.949-1.13,6.745,6.745,0,0,0,1.647-1.6,7.973,7.973,0,0,0,1.134-2.086,5.632,5.632,0,0,0,.352-2.366l-.025-.3-.063-.286a4.953,4.953,0,0,0-.16-.563,2.788,2.788,0,0,0-.5-.9,1.209,1.209,0,0,0-.525-.387,2.113,2.113,0,0,0-.818-.088,4.193,4.193,0,0,0-2.109.75,4.486,4.486,0,0,0-1.517,1.713,3.529,3.529,0,0,0-.37,2.053,3.809,3.809,0,0,0,2.393,3.129,2.655,2.655,0,1,1-1.455,5.107,2.692,2.692,0,0,1-.449-.173Z" fill="#d19292"/>
        <path id="Trazado_280903" data-name="Trazado 280903" d="M160.629,62.318s33.764,18.5,52.9,6.667l4.517.86,6.373-11.888a24.772,24.772,0,0,1-10.747-4.478,65.769,65.769,0,0,1-8.96-7.936,46.531,46.531,0,0,0-11.567-18.736,48.78,48.78,0,0,0-17.466-10.942Z" fill="#e9a3a3"/>
        <path id="Trazado_280904" data-name="Trazado 280904" d="M185.324,39.094a7.249,7.249,0,0,1-.189-3.13,10.163,10.163,0,0,1,.959-2.984,12.187,12.187,0,0,1,1.635-2.526,15.232,15.232,0,0,1,2.014-2.024,17.369,17.369,0,0,1,2.226-1.58,24.087,24.087,0,0,1,2.156-1.142c1.386-.651,2.655-1.1,3.755-1.518s2.014-.764,2.792-1.1c.4-.164.726-.329,1.117-.521.368-.2.755-.425,1.139-.684a15.447,15.447,0,0,0,2.339-1.936,22.455,22.455,0,0,0,2.354-2.846l.238-.328a2.358,2.358,0,0,1,3.293-.526,2.383,2.383,0,0,1,.769.948,10.989,10.989,0,0,1,.82,5.391,14.223,14.223,0,0,1-1.611,5.454,15.648,15.648,0,0,1-1.637,2.471,16.289,16.289,0,0,1-2.126,2.148,21.271,21.271,0,0,1-4.6,2.879,37.61,37.61,0,0,1-7.263,2.492l-2.867.717A10.87,10.87,0,0,0,189.53,40l-.711.427a2.376,2.376,0,0,1-3.262-.812,2.49,2.49,0,0,1-.233-.518" fill="#e9a3a3"/>
        <path id="Trazado_280905" data-name="Trazado 280905" d="M198.6,46a2.8,2.8,0,0,0-5.041,0Z" fill="#c48989"/>
        <path id="Trazado_280906" data-name="Trazado 280906" d="M193.837,45.973a2.371,2.371,0,0,0,4.718,0Z" fill="#1a1a1a"/>
        <path id="Trazado_280907" data-name="Trazado 280907" d="M193.752,45.722l4.608-.106a.339.339,0,0,1,.147.03l.071.032a2.66,2.66,0,0,0,.4.262,2.6,2.6,0,0,0,.452.194,1.326,1.326,0,0,0,.935-.007l.008,0a.158.158,0,0,1,.207.083.16.16,0,0,1-.048.188,1.776,1.776,0,0,1-1.2.319,3.181,3.181,0,0,1-.609-.1,3.347,3.347,0,0,1-.6-.205h0l.217.063-4.6-.25a.252.252,0,0,1,.008-.5" fill="#4f3737"/>
        <path id="Trazado_280908" data-name="Trazado 280908" d="M31.127,10.9a10.11,10.11,0,0,0-.735-2.116,8.363,8.363,0,0,0-1.3-1.983,5.729,5.729,0,0,0-2.234-1.568,6.378,6.378,0,0,0-2.543-.372A8.894,8.894,0,0,0,20.026,6.26c-1.262.8.57,2.178,2.926,2.431a5.407,5.407,0,0,1,1.778.49,1.944,1.944,0,0,1,.622.091,1.209,1.209,0,0,1,.525.387,2.806,2.806,0,0,1,.5.9,4.933,4.933,0,0,1,.159.562l.063.287.026.3a5.637,5.637,0,0,1-.353,2.367,8,8,0,0,1-1.134,2.086,6.568,6.568,0,0,1-.768.863,2.594,2.594,0,0,1-.793.769c-.842.518-7.327,1.749-8.322.048a10.822,10.822,0,0,1-1.779-1.289,12.184,12.184,0,0,1-1.98-2.376,13.755,13.755,0,0,1-1.384-2.943l0-.012a.437.437,0,0,0-.85.123,11.8,11.8,0,0,0,2.05,7.029,11.549,11.549,0,0,0,2.714,2.838A11.252,11.252,0,0,0,17.7,23,11.609,11.609,0,0,0,26,22.233a9.58,9.58,0,0,0,3.45-2.872,9.94,9.94,0,0,0,1.763-4.05,10.511,10.511,0,0,0-.081-4.406" fill="#e9a3a3"/>
        <path id="Trazado_280909" data-name="Trazado 280909" d="M210.324,20.13a.326.326,0,0,1,.636.08,15.912,15.912,0,0,1-.441,4.31,15.376,15.376,0,0,1-9.041,10.492c-2.172.8-4.237,1.386-6.409,2.186l-3.357,1.236a13.521,13.521,0,0,1-3.434.779c.127-.576,1.154-1.456,1.8-2.006a28.474,28.474,0,0,1,3.466-2.37c2.39-1.477,4.881-2.786,7.248-4.3a26.311,26.311,0,0,0,6.367-5.432,15.019,15.019,0,0,0,3.162-4.973" fill="#c48989"/>
        <path id="Trazado_280910" data-name="Trazado 280910" d="M185.847,39.085s-.55-8.813,10.47-12.6c4.031-1.386,7.924-2.784,9.772-4.612a.583.583,0,0,1,.894.742c-1.669,2.381-1.837,3.785-8.832,6.77,0,0-9.212,4.1-12.3,9.7" fill="#e9b6b6"/>
        <path id="Trazado_280911" data-name="Trazado 280911" d="M217.571,69.722a9.594,9.594,0,0,1-2.8.441c-.471.02-.935-.011-1.407-.015-.463-.044-.931-.082-1.394-.14a24.04,24.04,0,0,1-5.388-1.4,33,33,0,0,1-4.988-2.385c-.789-.471-1.554-.982-2.316-1.49-.735-.551-1.467-1.1-2.166-1.7l.113-.18c.856.336,1.679.715,2.5,1.094.831.356,1.657.713,2.472,1.085,1.661.675,3.293,1.388,4.975,1.951a47,47,0,0,0,5.071,1.514,24.877,24.877,0,0,0,5.213.722Z" fill="#d19292"/>
        <path id="Trazado_280912" data-name="Trazado 280912" d="M228.006,68.449c-2.3,4.691-5.118,5.459-8.7,3.5-2.921-1.6-4.788-5.036-2.634-9.384s7.128-5.694,9.97-3.922c3.038,1.894,3.433,5.6,1.365,9.809" fill="#de8a8a"/>
        <path id="Trazado_280913" data-name="Trazado 280913" d="M226.476,67.324c-.93,1.954-2.1,3.341-2.611,3.1s-.174-2.025.755-3.98,2.1-3.341,2.611-3.1.175,2.026-.755,3.98" fill="#ab6a6a"/>
        <path id="Trazado_280914" data-name="Trazado 280914" d="M222.017,65.6c-.93,1.954-2.212,3.287-2.863,2.977s-.427-2.145.5-4.1,2.211-3.287,2.863-2.977.427,2.146-.5,4.1" fill="#ab6a6a"/>
        <path id="Trazado_280915" data-name="Trazado 280915" d="M118.482.465s31.859-.6,57.238,17.384a11.455,11.455,0,0,1,6.225.87S161.132-3.459,118.482.465" fill="#d19292"/>
        <path id="Trazado_280916" data-name="Trazado 280916" d="M162.368,60.9c-3.707-4.762-5.353-12.359-5.374-12.411l-2.813,14.17c-8.07-1.4-20.457-6.057-25.952-.058l-2.753-17.268s-4.831,9.025-2.787,23.094c-6.287,5.132-14.949,8.218-24.5,8.771-15.528.9-28.542-11.3-29.414-26.826A40.032,40.032,0,0,0,65.255,35.95c1.115,2.05,0,7.643-.264,10a52.908,52.908,0,0,1-2.31,10.717A46.424,46.424,0,0,1,58.064,66.6a27.368,27.368,0,0,1-3.05,4.31c-1.146,1.225-2.751,1.945-3.819,3.237a31.558,31.558,0,0,0,8.357.79c37.264,26.013,67.8,1.788,71.554-.6,11.763.682,32.755-1.877,40.858-7-5.067-1.948-8.055-4.46-9.6-6.44" fill="#d19292"/>
        <path id="Trazado_280917" data-name="Trazado 280917" d="M125.216,44.54s-4.048,22.01,7.342,39.653c1.558,2.413,2.6,9.563,2.8,12.427a8.945,8.945,0,0,0,9.178,8.617l4.585-.122-3.152-4.515a13.351,13.351,0,0,1-2.4-7.64,16.541,16.541,0,0,1,2.785-9.209c4.155-6.206,11.471-19.443,11.265-35.483Z" fill="#e9a3a3"/>
        <path id="Trazado_280918" data-name="Trazado 280918" d="M55.11,80.444c8.874-10.863,14.06-30.778,12.9-44.74-2.344-.145-39.8-1.631-40.8-1.8a82.086,82.086,0,0,0-1.877,12.155,19.6,19.6,0,0,0,5.291,13.71c1.054,10.779,5.843,20.976,8.9,26.55a20.324,20.324,0,0,1,2.484,10.2l1.089,3.793a6.993,6.993,0,0,0,6.462,5.059l6.549.242c-1.776-1.88-5.726-9.338-6.665-12.236A8.776,8.776,0,0,1,51.5,84.518c1.2-1.23,2.416-2.611,3.611-4.074" fill="#e9a3a3"/>
        <path id="Trazado_280919" data-name="Trazado 280919" d="M211.885,69.728s-11.643,9.3-39.92-2.388c0,0,21.5,8.018,32.243.085,0,0,5.373,2.3,7.677,2.3" fill="#d19292"/>
        <path id="Trazado_280920" data-name="Trazado 280920" d="M144.881,44.041a1.268,1.268,0,0,1,2.1-1.331,20.42,20.42,0,0,1,5.787,18.318A65.513,65.513,0,0,1,141.47,87s9.877-26.283,3.411-42.96" fill="#e9b6b6"/>
        <path id="Trazado_280921" data-name="Trazado 280921" d="M55.838,41.173A1.268,1.268,0,0,1,58.1,40.131,20.42,20.42,0,0,1,61.42,59.052,65.512,65.512,0,0,1,46.793,83.309s13.256-24.752,9.045-42.136" fill="#e9b6b6"/>
        <path id="Trazado_280922" data-name="Trazado 280922" d="M185.05,60.5c-1.947,2.877-8.573,3.336-13.853-.237s-7.214-9.826-5.267-12.7,7.806-2.312,13.086,1.261S187,57.62,185.05,60.5" fill="#e9acac"/>
        <path id="Trazado_280923" data-name="Trazado 280923" d="M112.954,55.453c-.352,6.027-7.8,12.72-16.376,12.219s-15.029-8-14.677-14.031,7.588-10.508,16.163-10.007,15.242,5.792,14.89,11.819" fill="#e9acac"/>
      </g>
    </g>
  </g>
</svg>
