<svg xmlns="http://www.w3.org/2000/svg" width="190" height="161.001" viewBox="0 0 190 161.001">
  <g id="Grupo_1075873" data-name="Grupo 1075873" transform="translate(-14530 3037)">
    <rect id="Rectángulo_378514" data-name="Rectángulo 378514" width="190" height="161" transform="translate(14530 -3037)" fill="none"/>
    <g id="Grupo_1075856" data-name="Grupo 1075856" transform="translate(120.404 69)">
      <path id="Trazado_816227" data-name="Trazado 816227" d="M119.789,234.628l7.5.022c.565,2.008,1.88,2.711,3.959,2.707q37.191-.07,74.383-.027c3.3,0,6.593.037,9.889.056a6.384,6.384,0,0,1,1.069,4.129,82.334,82.334,0,0,1-3.126,13.582,2.779,2.779,0,0,0,1.156,3.462c.561.4,1.174.739,1.773,1.089,1.742,1.018,3.5,2.011,5.231,3.045,4.016,2.4,6.653,8.341,2.23,14.32-2.869-.753-5.138-2.665-7.7-4.014-3.3-1.74-5.9-1.458-8.369,1.241a68.354,68.354,0,0,1-8.169,7.662A60.23,60.23,0,0,1,176.2,293.131c-1.005.243-1.381.068-1.333-1.025.064-1.454.047-2.917-.034-4.371a2.53,2.53,0,0,0-2.08-2.408,2.68,2.68,0,0,0-2.9.954,4.01,4.01,0,0,0-.688,2.7c.009,5.9.032,11.791-.008,17.685-.027,4.063-2.74,6.865-6.537,6.869a6.578,6.578,0,0,1-6.567-6.7c-.073-3.041.011-6.084.009-9.127,0-3.106.018-6.211-.051-9.316-.045-1.978-1.149-3.124-2.833-3.141-1.784-.018-2.8,1.134-2.86,3.269a21.559,21.559,0,0,0,.015,3.04c.2,1.7-.437,1.8-1.916,1.428a60.325,60.325,0,0,1-30.636-18.359c-2.854-3.144-5.42-3.538-9.1-1.413-1.808,1.045-3.594,2.13-5.426,3.13a6.557,6.557,0,0,1-9.2-2.411,6.685,6.685,0,0,1,2.662-9.039c1.729-1.052,3.508-2.021,5.258-3.039,3.827-2.225,4.757-4.544,3.407-8.717a56.126,56.126,0,0,1-2.516-11.475c-.3-2.874,1.039-4.313,3.892-4.331,3.106-.021,6.214-.062,9.319.015,2.008.049,3.282-.713,3.718-2.719m18.96,27.867c5.91.045,9.827-1.559,12.749-4.536,1.548-1.577,1.744-3.251.53-4.5-1.264-1.305-2.831-1.174-4.488.375-4.339,4.056-9.7,4.032-14.091-.063-1.565-1.461-3.09-1.6-4.349-.38s-1.142,2.957.394,4.5c3,3.013,6.63,4.568,9.255,4.608m45.731.025a15.215,15.215,0,0,0,11.458-4.879,2.868,2.868,0,0,0,.187-4.225c-1.205-1.2-2.751-1.131-4.217.183-4.885,4.38-9.607,4.377-14.49-.01-1.453-1.3-3.023-1.366-4.221-.165-1.15,1.154-1.1,2.846.216,4.227a15.086,15.086,0,0,0,11.067,4.869" transform="translate(14338.269 -3264.25)" fill="#fcb8c6"/>
      <path id="Trazado_816226" data-name="Trazado 816226" d="M119.789,234.628c-.436,2.006-1.71,2.768-3.718,2.719-3.1-.077-6.213-.036-9.319-.015-2.853.018-4.191,1.457-3.892,4.331a56.126,56.126,0,0,0,2.516,11.475c1.35,4.173.42,6.492-3.407,8.716-1.75,1.019-3.529,1.988-5.258,3.04a6.685,6.685,0,0,0-2.662,9.039,6.557,6.557,0,0,0,9.2,2.411c1.832-1,3.618-2.085,5.426-3.13,3.679-2.125,6.246-1.731,9.1,1.414a60.33,60.33,0,0,0,30.636,18.358c1.479.372,2.114.27,1.917-1.428a21.411,21.411,0,0,1-.016-3.04c.056-2.135,1.076-3.288,2.86-3.268,1.684.016,2.788,1.162,2.833,3.14.069,3.1.049,6.21.051,9.316,0,3.043-.082,6.087-.009,9.128a6.578,6.578,0,0,0,6.567,6.7c3.8,0,6.51-2.807,6.537-6.868.04-5.9.017-11.79.008-17.687a4.009,4.009,0,0,1,.688-2.7,2.68,2.68,0,0,1,2.9-.954,2.53,2.53,0,0,1,2.08,2.408c.081,1.453.1,2.917.034,4.37-.048,1.094.328,1.27,1.333,1.026A60.23,60.23,0,0,0,199.617,281.9a68.361,68.361,0,0,0,8.17-7.662c2.47-2.7,5.068-2.981,8.369-1.24,2.559,1.348,4.827,3.26,7.7,4.013a6.4,6.4,0,0,0,7.539-3.53,6.543,6.543,0,0,0-2.338-8.225c-1.847-1.214-3.814-2.248-5.728-3.361-3.947-2.293-4.865-4.543-3.478-8.839a65.065,65.065,0,0,0,2.443-10.718c.505-3.5-.8-5.009-4.3-5.011-.822,0-1.645.037-2.467.057-3.3-.019-6.592-.056-9.889-.056q-37.191-.008-74.383.026c-2.078,0-3.394-.7-3.959-2.706.715-2.578,1.307-3.035,4-3.035q43.469,0,86.939,0c6.729,0,10.759,4.815,9.724,11.487a68.192,68.192,0,0,1-2.726,11.816,1.33,1.33,0,0,0,.764,1.938c1.893,1.018,3.746,2.114,5.584,3.232a12.291,12.291,0,0,1-12.114,21.387c-1.9-1-3.773-2.069-5.594-3.21-.954-.6-1.535-.669-2.366.288a47.451,47.451,0,0,1-4.833,4.836c-.956.824-.851,1.409-.289,2.323,1.092,1.779,2.127,3.594,3.125,5.426a12.284,12.284,0,0,1-21.153,12.494c-1.186-1.866-2.3-3.787-3.319-5.75-.527-1.014-1.077-1.089-2.089-.769-2.227.7-4.487,1.327-6.77,1.817-1.03.221-1.341.616-1.317,1.628.056,2.345.069,4.694-.023,7.038a12.134,12.134,0,0,1-11.952,11.651A12.279,12.279,0,0,1,150.4,307.915c-.15-2.4-.113-4.819-.066-7.227.021-1.059-.238-1.542-1.382-1.777a67.75,67.75,0,0,1-6.769-1.825,1.437,1.437,0,0,0-2.052.873c-.957,1.852-2.016,3.656-3.112,5.431-3.762,6.089-11.023,7.965-16.992,4.423-5.835-3.461-7.661-10.733-4.229-16.9,1.015-1.825,2-3.675,3.143-5.415.608-.923.357-1.369-.341-2.022-1.711-1.6-3.41-3.227-4.969-4.973-.771-.863-1.288-.823-2.215-.3-2.743,1.554-5.29,3.537-8.383,4.377A12.262,12.262,0,0,1,93.1,260.471c1.951-1.286,3.995-2.44,6.052-3.553.968-.525,1.154-1.018.785-2.09a67.54,67.54,0,0,1-2.653-11.444c-1.118-7.061,2.83-11.763,9.97-11.77q4.375,0,8.751,0c2.522.007,3.253.6,3.789,3.012m6.861,69.254a6.42,6.42,0,0,0,5.165-2.986c1.115-1.756,2.079-3.607,3.179-5.374.45-.721.329-1.088-.408-1.422a58.893,58.893,0,0,1-9.652-5.575c-.585-.413-.943-.451-1.323.246-1.086,1.994-2.379,3.889-3.3,5.951a6.591,6.591,0,0,0,6.343,9.16m63.038-9.276c1.293,2.207,2.433,4.408,3.812,6.446a6.431,6.431,0,0,0,8.759,1.851,6.515,6.515,0,0,0,2.537-8.455c-.949-1.927-2.133-3.737-3.175-5.62-.355-.641-.694-.788-1.323-.332a70.307,70.307,0,0,1-10.61,6.11" transform="translate(14338.269 -3264.25)" fill="#030303"/>
      <path id="Trazado_816239" data-name="Trazado 816239" d="M215.519,237.386c.822-.021,1.645-.059,2.467-.058,3.5,0,4.81,1.512,4.3,5.012a65.054,65.054,0,0,1-2.443,10.719c-1.387,4.295-.469,6.546,3.478,8.839,1.914,1.112,3.881,2.145,5.728,3.36a6.541,6.541,0,0,1,2.338,8.225,6.406,6.406,0,0,1-7.539,3.531c4.424-5.981,1.786-11.924-2.23-14.321-1.732-1.035-3.489-2.028-5.231-3.045-.6-.35-1.212-.684-1.772-1.088a2.78,2.78,0,0,1-1.157-3.462,82.358,82.358,0,0,0,3.126-13.582,6.381,6.381,0,0,0-1.069-4.13" transform="translate(14338.269 -3264.25)" fill="#fa93b6"/>
      <path id="Trazado_816228" data-name="Trazado 816228" d="M138.749,262.494c-2.625-.039-6.256-1.6-9.255-4.606-1.535-1.543-1.664-3.276-.393-4.5s2.783-1.081,4.348.379c4.388,4.094,9.752,4.12,14.092.063,1.657-1.55,3.223-1.681,4.487-.375,1.215,1.254,1.018,2.928-.53,4.5-2.922,2.976-6.838,4.58-12.749,4.534" transform="translate(14338.269 -3264.25)" fill="#050404"/>
      <path id="Trazado_816229" data-name="Trazado 816229" d="M184.48,262.52a15.086,15.086,0,0,1-11.067-4.869c-1.317-1.381-1.366-3.073-.216-4.227,1.2-1.2,2.768-1.139,4.221.165,4.883,4.387,9.6,4.39,14.49.01,1.466-1.314,3.012-1.382,4.217-.183a2.868,2.868,0,0,1-.187,4.225,15.215,15.215,0,0,1-11.458,4.879" transform="translate(14338.269 -3264.25)" fill="#050404"/>
      <path id="Trazado_816230" data-name="Trazado 816230" d="M126.65,303.882a6.591,6.591,0,0,1-6.343-9.159c.925-2.064,2.218-3.957,3.3-5.951.381-.7.739-.661,1.324-.247a58.819,58.819,0,0,0,9.651,5.576c.738.334.859.7.409,1.422-1.1,1.765-2.064,3.618-3.179,5.373a6.421,6.421,0,0,1-5.165,2.986" transform="translate(14338.269 -3264.25)" fill="#f992b5"/>
      <path id="Trazado_816232" data-name="Trazado 816232" d="M189.688,294.606a70.307,70.307,0,0,0,10.61-6.11c.629-.456.968-.309,1.323.332,1.042,1.883,2.226,3.693,3.175,5.62a6.515,6.515,0,0,1-2.537,8.455,6.431,6.431,0,0,1-8.759-1.851c-1.379-2.038-2.519-4.239-3.812-6.446" transform="translate(14338.269 -3264.25)" fill="#f992b6"/>
      <path id="Trazado_816231" data-name="Trazado 816231" d="M223.705,221.7a1.682,1.682,0,0,1-.279,2.437c-4.254,4.452-8.476,8.935-12.727,13.39a4.927,4.927,0,0,1-7.335.222c-.638-.6-.962-.55-1.5.075-.907,1.059-1.9,2.044-2.868,3.046a1.6,1.6,0,0,1-2.631.079c-1.226-1.13-1.226-1.13-2.4.11q-3.513,3.7-7.025,7.406a1.866,1.866,0,0,1-1.669.8,1.5,1.5,0,0,1-1.21-.978,1.438,1.438,0,0,1,.345-1.6c1.02-1.1,2.053-2.18,3.083-3.267,1.615-1.7,3.218-3.42,4.856-5.1.439-.452.594-.782,0-1.2a5.339,5.339,0,0,1-.67-.626,1.578,1.578,0,0,1-.059-2.56c1.015-1.1,2.039-2.2,3.1-3.253.425-.426.517-.716-.008-1.124-2.245-1.749-2.53-5.3-.112-7.817,9.665-10.057,19.226-20.217,28.838-30.328.516-.543.8-.85.132-1.607a5.011,5.011,0,0,1,7.135-6.953c1.509,1.322,2.951,2.721,4.382,4.129.456.448.705.417,1.128-.037q3.3-3.548,6.674-7.035c.421-.433.341-.66-.054-1.04a12.581,12.581,0,0,1-2.447-2.579,5.085,5.085,0,0,1,.921-6.255,4.879,4.879,0,0,1,6.527-.227c3.163,2.84,6.213,5.8,9.3,8.726.989.936,2,1.848,2.922,2.85a5.015,5.015,0,0,1-.149,6.848,5.077,5.077,0,0,1-6.935.265,19.979,19.979,0,0,1-1.7-1.617c-.446-.5-.7-.382-1.111.056-2.181,2.338-4.376,4.666-6.607,6.957-.5.515-.379.777.078,1.2q2,1.824,3.928,3.719a5.061,5.061,0,0,1,.513,6.987,4.98,4.98,0,0,1-7.024.661c-.634-.479-.825-.028-1.128.289-3.7,3.9-7.417,7.783-11.09,11.709a1.81,1.81,0,0,1-2.511.491c-.687-1.207-.632-1.646.347-2.685q4.638-4.924,9.28-9.849c.571-.579,1.112-1.19,1.721-1.726.589-.519.592-.858-.013-1.418-3.084-2.865-6.113-5.785-9.179-8.668-.659-.619-1.262-1.75-2.029-1.69-.817.066-1.317,1.251-2.022,1.877-.438.39-.4.65.029,1.031,1.109,1,2.16,2.064,3.265,3.067a2.361,2.361,0,0,1,.887,1.644c-.643,1.578-1.684,1.813-2.92.664-.344-.319-.7-.627-1.045-.943-.778-.755-1.576-1.489-2.324-2.272-.385-.4-.623-.345-.961.044-.579.664-1.185,1.307-1.821,1.918-.4.383-.323.622.045.975a6.3,6.3,0,0,1,1.859,2.113c-.145,1.358-.388,1.615-1.732,1.828a5.529,5.529,0,0,1-2.138-1.669c-.422-.41-.692-.526-1.117,0a21.6,21.6,0,0,1-1.747,1.847c-.368.356-.432.6,0,.96.725.612,1.4,1.281,2.1,1.924.533.524,1.084,1.027,1.594,1.572a1.523,1.523,0,0,1-2.1,2.21c-.568-.482-1.1-1-1.654-1.507-.68-.663-1.382-1.3-2.03-1.993-.384-.409-.624-.338-.961.048-.579.663-1.184,1.308-1.82,1.916-.4.387-.32.623.047.979a6.26,6.26,0,0,1,1.858,2.11c-.144,1.357-.387,1.612-1.731,1.826a5.506,5.506,0,0,1-2.138-1.667c-.419-.4-.689-.53-1.117-.006A20.713,20.713,0,0,1,205,215.247c-.371.358-.424.6,0,.959.724.611,1.4,1.28,2.1,1.926.534.521,1.086,1.026,1.6,1.571a1.507,1.507,0,0,1,.009,2.187,1.491,1.491,0,0,1-2.109.027c-.568-.481-1.1-1-1.654-1.509-.68-.661-1.382-1.3-2.03-1.991-.385-.408-.624-.339-.961.048-.579.664-1.184,1.307-1.82,1.917-.4.386-.318.622.047.976a6.255,6.255,0,0,1,1.86,2.11c-.144,1.358-.386,1.613-1.733,1.829-.964-.294-1.5-1.133-2.233-1.729-.186-.152-.294-.464-.662-.295a2.44,2.44,0,0,0-.74,3.931c.31.313.658.585.989.877q3.715,3.557,7.432,7.112c1.447,1.38,2.317,1.355,3.69-.092q6.176-6.5,12.347-13.01c.93-.981,1.459-1.052,2.576-.393m16.57-34.553c-.661.671-1.317,1.35-1.987,2.015-.283.281-.34.485-.037.836,2.24,2.609,2.433,2.621,4.7.1a2.982,2.982,0,0,0,.176-.246c1.06-1.1,2.141-2.177,3.17-3.3.7-.766,2.032-1.463,1.917-2.322-.111-.822-1.359-1.489-2.106-2.222a.992.992,0,0,1-.074-.07c-.3-.376-.557-.36-.894.006-1.609,1.746-3.241,3.47-4.865,5.2m-5.769,8.921q4.074,3.867,8.149,7.727a1.974,1.974,0,1,0,2.667-2.855q-8.1-7.7-16.219-15.387a2.029,2.029,0,0,0-3-.189c-.832.849-.71,2.056.329,3.044q4.03,3.838,8.071,7.66M251.833,177.8c-1.85-1.756-3.694-3.518-5.552-5.264-1.082-1.015-2.041-1.042-2.929-.113a1.906,1.906,0,0,0,.225,2.945q5.541,5.277,11.1,10.53a2.137,2.137,0,0,0,3.011.21c.847-.844.737-2.044-.306-3.043-1.842-1.761-3.7-3.51-5.547-5.265m-55.762,55.869c-1.388,1.465-1.388,1.465.056,2.835,1.474,1.4,1.474,1.4,2.9-.106,1.366-1.439,1.366-1.439-.038-2.771-1.515-1.437-1.515-1.437-2.918.042" transform="translate(14338.269 -3264.25)" fill="#030303"/>
      <path id="Trazado_816235" data-name="Trazado 816235" d="M204.942,220.408c.55.506,1.086,1.027,1.655,1.51a1.525,1.525,0,0,0,2.1-2.214c-.508-.546-1.061-1.051-1.594-1.572q1.45-1.53,2.9-3.059c1.344-.214,1.588-.47,1.731-1.825l2.906-3.062c.55.5,1.086,1.026,1.654,1.508a1.488,1.488,0,0,0,2.107-.025,1.5,1.5,0,0,0-.011-2.185c-.509-.545-1.061-1.049-1.594-1.571l2.9-3.061c1.344-.213,1.587-.469,1.732-1.827a11.573,11.573,0,0,1,3.2-2.777c.349.314.7.624,1.045.942,1.237,1.149,2.277.913,2.92-.664a2.586,2.586,0,0,1,2.168,1c1.753,1.6,3.453,3.254,5.174,4.888q-4.641,4.921-9.281,9.848c-.979,1.039-1.034,1.478-.347,2.685L223.7,221.7c-1.117-.658-1.645-.588-2.576.393q-6.177,6.5-12.347,13.009c-1.373,1.448-2.243,1.473-3.69.093q-3.723-3.546-7.432-7.111,1.323-1.4,2.646-2.785c1.347-.215,1.589-.47,1.734-1.829Z" transform="translate(14338.269 -3264.25)" fill="#f9f7f8"/>
      <path id="Trazado_816242" data-name="Trazado 816242" d="M234.506,196.066q-4.036-3.828-8.071-7.659c-1.039-.988-1.162-2.2-.329-3.044a2.028,2.028,0,0,1,3,.187q8.115,7.688,16.219,15.387a1.975,1.975,0,1,1-2.668,2.857q-4.082-3.856-8.148-7.728" transform="translate(14338.269 -3264.25)" fill="#0c5d7e"/>
      <path id="Trazado_816246" data-name="Trazado 816246" d="M251.832,177.8c1.85,1.756,3.705,3.5,5.547,5.267,1.043,1,1.153,2.2.307,3.043a2.141,2.141,0,0,1-3.011-.21q-5.556-5.256-11.1-10.531a1.907,1.907,0,0,1-.224-2.946c.887-.928,1.846-.9,2.928.114,1.858,1.746,3.7,3.508,5.552,5.263" transform="translate(14338.269 -3264.25)" fill="#0c5d7e"/>
      <path id="Trazado_816243" data-name="Trazado 816243" d="M235.941,206.409c-1.721-1.633-3.42-3.288-5.174-4.887a2.585,2.585,0,0,0-2.167-1,2.369,2.369,0,0,0-.887-1.644c-1.106-1-2.157-2.068-3.266-3.067-.424-.382-.466-.641-.028-1.031.7-.626,1.2-1.812,2.022-1.877.767-.06,1.37,1.07,2.029,1.69,3.065,2.882,6.094,5.8,9.178,8.667.605.561.6.9.014,1.418-.609.537-1.15,1.149-1.721,1.727" transform="translate(14338.269 -3264.25)" fill="#e7e3f5"/>
      <path id="Trazado_816245" data-name="Trazado 816245" d="M240.275,187.144c1.624-1.731,3.256-3.456,4.865-5.2.337-.366.592-.384.894-.008a.7.7,0,0,0,.074.07c.747.735,1.995,1.4,2.106,2.222.115.859-1.217,1.558-1.917,2.322-1.029,1.126-2.11,2.2-3.17,3.3l-2.852-2.708" transform="translate(14338.269 -3264.25)" fill="#cae1fe"/>
      <path id="Trazado_816233" data-name="Trazado 816233" d="M196.071,233.668c1.4-1.479,1.4-1.479,2.918-.042,1.4,1.332,1.4,1.332.038,2.771-1.426,1.5-1.426,1.5-2.9.106-1.444-1.37-1.444-1.37-.056-2.835" transform="translate(14338.269 -3264.25)" fill="#bdd7f9"/>
      <path id="Trazado_816241" data-name="Trazado 816241" d="M224.634,200.247a11.6,11.6,0,0,0-3.2,2.778,6.3,6.3,0,0,0-1.858-2.113c-.368-.353-.447-.592-.045-.976.635-.61,1.241-1.253,1.82-1.917.339-.389.576-.449.961-.044.748.783,1.546,1.517,2.324,2.272" transform="translate(14338.269 -3264.25)" fill="#e7e3f5"/>
      <path id="Trazado_816236" data-name="Trazado 816236" d="M204.942,220.408l-2.9,3.06a6.268,6.268,0,0,0-1.861-2.11c-.364-.354-.449-.591-.047-.976.636-.611,1.241-1.253,1.82-1.917.337-.386.577-.456.961-.047.648.689,1.35,1.33,2.03,1.99" transform="translate(14338.269 -3264.25)" fill="#e7e3f5"/>
      <path id="Trazado_816238" data-name="Trazado 816238" d="M214.64,210.186l-2.906,3.062a6.265,6.265,0,0,0-1.858-2.112c-.366-.354-.449-.592-.046-.977.635-.61,1.24-1.253,1.819-1.916.337-.387.577-.457.961-.048.648.69,1.35,1.33,2.03,1.991" transform="translate(14338.269 -3264.25)" fill="#e7e3f5"/>
      <path id="Trazado_816244" data-name="Trazado 816244" d="M240.275,187.144l2.852,2.708a2.68,2.68,0,0,1-.176.246c-2.267,2.52-2.46,2.508-4.7-.1-.3-.353-.246-.555.037-.836.67-.665,1.325-1.344,1.987-2.017" transform="translate(14338.269 -3264.25)" fill="#b3cbea"/>
      <path id="Trazado_816237" data-name="Trazado 816237" d="M210,215.073q-1.451,1.531-2.9,3.059c-.7-.646-1.371-1.315-2.1-1.925-.428-.362-.375-.6,0-.959a21.012,21.012,0,0,0,1.746-1.848c.427-.523.7-.4,1.116.006A5.511,5.511,0,0,0,210,215.073" transform="translate(14338.269 -3264.25)" fill="#e7e3f5"/>
      <path id="Trazado_816240" data-name="Trazado 816240" d="M219.7,204.852l-2.9,3.061c-.7-.645-1.373-1.314-2.1-1.924-.432-.365-.368-.606,0-.96a21.621,21.621,0,0,0,1.747-1.849c.425-.521.7-.4,1.117,0a5.5,5.5,0,0,0,2.138,1.669" transform="translate(14338.269 -3264.25)" fill="#e7e3f5"/>
      <path id="Trazado_816234" data-name="Trazado 816234" d="M200.3,225.3l-2.646,2.785c-.331-.292-.678-.564-.989-.877a2.439,2.439,0,0,1,.74-3.93c.368-.17.477.142.662.294.729.6,1.269,1.434,2.233,1.728" transform="translate(14338.269 -3264.25)" fill="#e7e3f5"/>
    </g>
  </g>
</svg>
