<svg xmlns="http://www.w3.org/2000/svg" width="190" height="161" viewBox="0 0 190 161">
  <g id="Grupo_1075871" data-name="Grupo 1075871" transform="translate(-14530 393)">
    <rect id="Rectángulo_378516" data-name="Rectángulo 378516" width="190" height="161" transform="translate(14530 -393)" fill="none"/>
    <g id="Grupo_1075858" data-name="Grupo 1075858" transform="translate(160.211 -5.324)">
      <path id="Trazado_816175" data-name="Trazado 816175" d="M97.117,2926.082c-2.437-4.024-4.466-7.819-5.482-12.067-1.225-5.119-.947-10.052,1.719-14.707,2.691-4.693,6.895-4.71,9.583-.015,1.977,3.451,3.077,7.287,4.649,10.917a31.423,31.423,0,0,0,3.782,7.074c1.866,2.385,2.933,2.549,5.545,1.023a41.458,41.458,0,0,1,19.935-5.979c7.38-.207,14.781-.533,21.968,1.826a46.232,46.232,0,0,1,9.788,4.451c1.854,1.133,2.807,1.029,4.348-.5a15.444,15.444,0,0,0,3.141-4.905c1.507-3.462,2.889-6.974,4.371-10.447a29.332,29.332,0,0,1,1.931-3.929c2.471-4,6.354-4.049,8.909-.117a18.027,18.027,0,0,1,2.6,12.8c-.812,5.622-3.339,10.531-6.442,15.187-.368.553-.739,1.1-1.125,1.679.784.352,1.176-.294,1.654-.567a16.582,16.582,0,0,1,21.715,4.466c1.826,2.428,1.836,3.629.052,6.049a16.588,16.588,0,0,1-20.724,5.1c-.481-.235-.96-.479-1.667-.833.765,3.337,1.813,6.47,1.635,9.686-.238,4.316,1.484,7.507,4.007,10.954,13.08,17.875,4.9,43.337-16.013,50.6a9.407,9.407,0,0,0-3.246,1.941c-5.8,5.147-11.988,9.865-19.633,11.664-13.385,3.146-26.1,1.61-37.248-7.181a83.3,83.3,0,0,0-13.595-8.655c-19.274-9.938-23.44-36.077-8.541-51.807a3.7,3.7,0,0,0,1.109-2.906,40.754,40.754,0,0,1,.993-10.55c.316-1.352.07-1.924-1.511-1.586a16.463,16.463,0,0,1-17.148-7.111,3.724,3.724,0,0,1-.022-4.544,16.52,16.52,0,0,1,16.934-7.237c.529.107,1.076.125,2.027.229m47.161,83.756c7.172-.218,16.163.484,25.117-.285,14.737-1.267,26.179-16.183,23.8-30.789-2.309-14.194-13.308-23.61-27.715-23.661q-16.123-.057-32.246,0c-5.678.021-11.362-.244-17.033.167-15.176,1.1-26.982,16.414-24.265,31.422,2.508,13.859,13.545,23.108,27.637,23.139,7.634.017,15.268,0,24.7,0m38.9-55.939c-.071-14.756-10.708-28.866-25.054-33.821-6.7-2.314-13.6-2.214-20.474-1.875-14.659.722-25.326,7.914-32.12,20.836a34.345,34.345,0,0,0-3.758,14.84,8.443,8.443,0,0,0,.808-.336,35.585,35.585,0,0,1,18.1-4.353c14.779.061,29.559.016,44.34.022a41.767,41.767,0,0,1,6.205.423,34.875,34.875,0,0,1,11.955,4.263m-61.981,62.032c10.794,9.741,33,9.149,42.681-.079-2.223-.264-41.215-.192-42.681.079m58.1-88.133a42.44,42.44,0,0,0,7.974-13.528c1.245-3.777,1.56-7.554-.443-11.616-1.193,2.982-2.252,5.685-3.355,8.369-1.828,4.45-3.617,8.938-7.389,12.2-.649.562-.37.836.068,1.276,1.03,1.037,2.019,2.112,3.145,3.3m-73.45-.086c1.067-1.119,2.076-2.182,3.088-3.239.336-.35.769-.617.146-1.152-4.3-3.7-6.062-8.885-8.13-13.9a52.55,52.55,0,0,0-2.758-6.5c-3.757,6.477.655,16.911,7.653,24.791M92.113,2939.2a11.442,11.442,0,0,0,7.184-2.923c.731-.662.826-1.1.054-1.851a10.831,10.831,0,0,0-14.608.019c-.8.788-.631,1.233.1,1.882a11.523,11.523,0,0,0,7.268,2.873m104.367,0a11.491,11.491,0,0,0,7.2-2.962c.7-.633.736-1.056.04-1.753a10.81,10.81,0,0,0-14.6-.09c-.72.693-.815,1.143-.031,1.851a11.529,11.529,0,0,0,7.4,2.955" transform="translate(14294.68 -3263.569)" fill="#040303"/>
      <path id="Trazado_816177" data-name="Trazado 816177" d="M143.469,3006.453c-9.436,0-17.07.013-24.7,0-14.092-.032-25.127-9.28-27.637-23.14-2.716-15.008,9.089-30.318,24.266-31.422,5.671-.41,11.355-.145,17.032-.167q16.123-.059,32.247-.005c14.406.053,25.405,9.469,27.715,23.663,2.376,14.605-9.067,29.521-23.8,30.789-8.953.77-17.946.068-25.117.285M165.2,2988.7a13.018,13.018,0,1,0,.048-26.036,13.018,13.018,0,0,0-.048,26.036m-60.034-13.1a13.022,13.022,0,1,0,26.044.105,13.022,13.022,0,0,0-26.044-.105" transform="translate(14295.488 -3260.184)" fill="#e1e5e8"/>
      <path id="Trazado_816178" data-name="Trazado 816178" d="M181.781,2952.628a34.9,34.9,0,0,0-11.955-4.264,41.9,41.9,0,0,0-6.205-.422c-14.78-.006-29.559.039-44.34-.022a35.57,35.57,0,0,0-18.1,4.352,8.094,8.094,0,0,1-.808.337,34.36,34.36,0,0,1,3.758-14.84c6.794-12.922,17.46-20.114,32.12-20.836,6.873-.339,13.772-.439,20.474,1.875,14.346,4.955,24.983,19.065,25.054,33.821m-33.451-13.05c-.056,2.713.92,4.006,2.633,4.16a2.949,2.949,0,0,0,3.2-2.6c.506-2.92,2-4.027,5.449-4.042,3.427-.014,5.032,1.141,5.545,3.987a2.936,2.936,0,0,0,5.855-.424,8.628,8.628,0,0,0-3.56-7.079,13.6,13.6,0,0,0-15.421-.139,8.4,8.4,0,0,0-3.7,6.143m-25.938-8.493c-.585.061-1.438.115-2.281.239-5.1.757-8.856,4.667-8.827,9.177a2.949,2.949,0,0,0,2.743,3.241c1.678.1,2.877-.967,3.106-2.877a3.356,3.356,0,0,1,.975-2.293c1.992-1.716,4.339-1.766,6.728-1.209a4.023,4.023,0,0,1,3.366,3.978,2.587,2.587,0,0,0,2.952,2.384,2.778,2.778,0,0,0,2.806-2.61,5.922,5.922,0,0,0-.111-2c-.961-4.828-5.4-8-11.456-8.035" transform="translate(14296.072 -3262.298)" fill="#f2b744"/>
      <path id="Trazado_816192" data-name="Trazado 816192" d="M118.691,3009.082c1.465-.271,40.458-.344,42.68-.079-9.678,9.228-31.887,9.82-42.68.079" transform="translate(14297.182 -3256.72)" fill="#c8ced5"/>
      <path id="Trazado_816190" data-name="Trazado 816190" d="M173.675,2927.405c-1.125-1.185-2.115-2.261-3.145-3.3-.438-.44-.718-.714-.068-1.277,3.772-3.264,5.561-7.75,7.389-12.2,1.1-2.687,2.161-5.389,3.355-8.369,2,4.059,1.688,7.839.443,11.613a42.443,42.443,0,0,1-7.974,13.529" transform="translate(14300.295 -3263.176)" fill="#dee2e5"/>
      <path id="Trazado_816179" data-name="Trazado 816179" d="M104.731,2927.3c-7-7.881-11.41-18.315-7.653-24.791a52.579,52.579,0,0,1,2.758,6.506c2.068,5.009,3.831,10.2,8.13,13.894.623.534.19.8-.146,1.152-1.013,1.057-2.021,2.12-3.088,3.24" transform="translate(14295.789 -3263.161)" fill="#dee2e5"/>
      <path id="Trazado_816176" data-name="Trazado 816176" d="M91.723,2937.151a11.528,11.528,0,0,1-7.268-2.873c-.733-.649-.9-1.094-.1-1.88a10.828,10.828,0,0,1,14.608-.02c.771.753.677,1.19-.054,1.851a11.452,11.452,0,0,1-7.184,2.923" transform="translate(14295.069 -3261.523)" fill="#f0b544"/>
      <path id="Trazado_816191" data-name="Trazado 816191" d="M190.132,2937.151a11.529,11.529,0,0,1-7.4-2.955c-.784-.708-.689-1.158.031-1.851a10.81,10.81,0,0,1,14.6.09c.7.7.663,1.12-.04,1.753a11.491,11.491,0,0,1-7.2,2.962" transform="translate(14301.028 -3261.523)" fill="#f0b544"/>
      <path id="Trazado_816184" data-name="Trazado 816184" d="M161.687,2988.07a13.018,13.018,0,1,1,13.072-12.978,13.015,13.015,0,0,1-13.072,12.978m.021-19.991c-3.66-.389-7.048,3.114-7.116,7a7.138,7.138,0,0,0,14.275-.118,6.848,6.848,0,0,0-7.159-6.886" transform="translate(14299.001 -3259.555)" fill="#030303"/>
      <path id="Trazado_816180" data-name="Trazado 816180" d="M104.341,2974.973a13.022,13.022,0,1,1,12.939,13.1,13.019,13.019,0,0,1-12.939-13.1m13.089-6.894a7.022,7.022,0,1,0-.076,14.042,7.022,7.022,0,1,0,.076-14.042" transform="translate(14296.313 -3259.556)" fill="#030303"/>
      <path id="Trazado_816183" data-name="Trazado 816183" d="M145.591,2938.759a8.406,8.406,0,0,1,3.7-6.143,13.6,13.6,0,0,1,15.422.139,8.629,8.629,0,0,1,3.559,7.078,2.935,2.935,0,0,1-5.854.425c-.512-2.845-2.118-4-5.546-3.987-3.449.015-4.942,1.122-5.449,4.042a2.95,2.95,0,0,1-3.2,2.6c-1.713-.154-2.69-1.446-2.633-4.16" transform="translate(14298.811 -3261.479)" fill="#040403"/>
      <path id="Trazado_816181" data-name="Trazado 816181" d="M121.77,2930.267c6.054.031,10.5,3.207,11.456,8.035a5.922,5.922,0,0,1,.111,2,2.778,2.778,0,0,1-2.806,2.61,2.587,2.587,0,0,1-2.952-2.384,4.023,4.023,0,0,0-3.366-3.978c-2.389-.557-4.737-.507-6.728,1.209a3.356,3.356,0,0,0-.975,2.293c-.229,1.91-1.429,2.98-3.106,2.877a2.949,2.949,0,0,1-2.743-3.241c-.029-4.51,3.724-8.42,8.827-9.177.843-.124,1.7-.178,2.281-.239" transform="translate(14296.695 -3261.479)" fill="#040403"/>
      <path id="Trazado_816185" data-name="Trazado 816185" d="M161.373,2967.735a6.849,6.849,0,0,1,7.159,6.887,7.138,7.138,0,0,1-14.275.118c.069-3.89,3.456-7.394,7.116-7" transform="translate(14299.336 -3259.211)" fill="#414751"/>
      <path id="Trazado_816182" data-name="Trazado 816182" d="M117.091,2967.734a7.022,7.022,0,1,1-.076,14.042,7.022,7.022,0,1,1,.076-14.042" transform="translate(14296.651 -3259.21)" fill="#414751"/>
      <path id="Trazado_816189" data-name="Trazado 816189" d="M209.548,2931.153c-.774.161-1.259.852-1.99,1.092a1.7,1.7,0,0,0-2.465-.151c-.48.361-1,.666-1.5,1-1.185.8-1.316,1.287-.694,2.562a2.558,2.558,0,0,0-2.01,1.388c-.913-1.106-1.45-1.207-2.629-.434-2.717,1.781-5.457,3.531-8.131,5.375a16.247,16.247,0,0,1-9.545,2.969,16.224,16.224,0,0,0-8.731,2.535c-1.3.809-2.558,1.7-3.858,2.513a2.362,2.362,0,1,1-2.613-3.924c.613-.432,1.236-.854,1.88-1.235a19.457,19.457,0,0,0,8.3-9.511,12.411,12.411,0,0,1,4.352-5.338c1.918-1.367,3.909-2.627,5.916-3.967.523.784,1.018,1.523,1.509,2.265.9,1.369,1.682,1.706,2.555,1.106.828-.569.82-1.428-.024-2.714-.392-.6-.759-1.212-1.183-1.787-.276-.375-.246-.595.152-.845,1-.628,1.989-1.269,2.952-1.944.4-.28.6-.213.839.175.51.816,1.04,1.623,1.594,2.411a1.5,1.5,0,1,0,2.5-1.642c-.508-.818-1.037-1.627-1.592-2.414-.267-.381-.233-.6.163-.849,1-.627,1.988-1.266,2.952-1.945.4-.282.6-.2.836.186.509.817,1.038,1.624,1.593,2.412a1.5,1.5,0,1,0,2.5-1.643q-.759-1.232-1.589-2.417c-.262-.373-.243-.6.16-.851q1.5-.937,2.953-1.943c.378-.261.588-.237.835.168.5.822,1.035,1.628,1.59,2.416a1.509,1.509,0,0,0,2.206.555,1.485,1.485,0,0,0,.305-2.176c-.488-.792-.993-1.573-1.537-2.324-.319-.441-.335-.695.179-1,.951-.564,1.876-1.179,2.777-1.822.435-.31.681-.339.98.167.489.829,1.029,1.631,1.59,2.417a1.5,1.5,0,1,0,2.47-1.683,22.059,22.059,0,0,0-1.478-2.231c-.477-.6-.281-.851.279-1.207,2.166-1.385,4.317-2.795,6.433-4.252.634-.436.915-.465,1.377.253q3.705,5.767,7.545,11.45c.478.708.368.986-.312,1.429q-9.774,6.386-19.505,12.841c-1.247.822-1.391,1.256-.877,2.563" transform="translate(14299.938 -3263.174)" fill="#e8e8ee"/>
      <path id="Trazado_816187" data-name="Trazado 816187" d="M209.72,2932.229c-.514-1.308-.37-1.741.877-2.563q9.746-6.432,19.505-12.841c.68-.443.79-.721.312-1.429q-3.834-5.684-7.545-11.45c-.461-.718-.742-.689-1.377-.253-2.117,1.457-4.268,2.867-6.433,4.252-.56.356-.756.609-.279,1.207a22.059,22.059,0,0,1,1.478,2.231,1.5,1.5,0,1,1-2.47,1.683c-.561-.786-1.1-1.588-1.59-2.417-.3-.506-.545-.476-.98-.167-.9.643-1.825,1.258-2.777,1.822-.514.306-.5.56-.179,1,.544.751,1.049,1.532,1.537,2.324a1.485,1.485,0,0,1-.305,2.176,1.509,1.509,0,0,1-2.206-.555c-.555-.788-1.088-1.594-1.59-2.416-.247-.4-.457-.429-.835-.168q-1.452,1-2.953,1.943c-.4.255-.422.477-.16.851q.827,1.184,1.589,2.417a1.5,1.5,0,1,1-2.5,1.643c-.555-.788-1.084-1.595-1.593-2.412-.239-.383-.435-.468-.836-.186-.964.679-1.954,1.318-2.952,1.945-.4.25-.431.468-.163.849.555.787,1.084,1.6,1.592,2.414a1.5,1.5,0,1,1-2.5,1.642c-.554-.788-1.084-1.595-1.594-2.411-.241-.388-.44-.455-.839-.175-.963.676-1.955,1.316-2.952,1.944-.4.25-.427.469-.152.845.423.575.79,1.19,1.183,1.787.844,1.286.853,2.146.024,2.714-.873.6-1.65.263-2.555-1.106-.491-.742-.986-1.482-1.509-2.265-2.007,1.339-4,2.6-5.916,3.967a12.411,12.411,0,0,0-4.352,5.338,19.457,19.457,0,0,1-8.3,9.511c-.645.381-1.267.8-1.88,1.235a2.362,2.362,0,1,0,2.613,3.924c1.3-.816,2.555-1.7,3.858-2.513a16.224,16.224,0,0,1,8.731-2.535,16.247,16.247,0,0,0,9.545-2.969c2.675-1.843,5.414-3.594,8.131-5.375,1.179-.773,1.716-.673,2.629.434a1.8,1.8,0,0,1-.942,2.071c-3.052,1.985-6.079,4.011-9.136,5.99a16.866,16.866,0,0,1-9.407,2.811,15.2,15.2,0,0,0-9.138,2.869c-.872.621-1.776,1.2-2.681,1.772a5.365,5.365,0,1,1-5.922-8.947c1.032-.7,2.082-1.382,3.129-2.064a14.6,14.6,0,0,0,5.6-6.6,18.678,18.678,0,0,1,7.2-8.41c13.345-8.754,26.651-17.567,39.994-26.327.8-.522.881-.865.305-1.586a19.515,19.515,0,0,1-1.531-2.323,4.065,4.065,0,0,1,6.684-4.606c.862,1.048,1.168,1.1,2.325.339.777-.507,1.562-1,2.321-1.541a1.553,1.553,0,1,1,1.65,2.529c-.794.479-1.551,1.021-2.328,1.53-2.414,1.581-4.269,1.328-6.216-.858-.457-.516-.98-.782-1.583-.322-.658.5-.482,1.093-.083,1.7q2.577,3.885,5.134,7.781,5.248,7.96,10.5,15.924c.409.622.9,1.106,1.668.682.649-.363.6-.961.308-1.589-1.246-2.642-.747-4.441,1.676-6.049,3.214-2.132,6.462-4.214,9.644-6.4a10.317,10.317,0,0,0-11.458-17.159c-.969.614-1.832.961-2.795.09a1.837,1.837,0,0,1,.93-2.506c4.557-2.87,9.269-3.239,14-.637a12.549,12.549,0,0,1,6.829,12,13.07,13.07,0,0,1-6.231,11.007c-3.059,2.04-6.139,4.046-9.207,6.073-1.211.8-1.28,1.071-.64,2.34a4.069,4.069,0,0,1-6.91,4.271,20.925,20.925,0,0,1-1.529-2.323c-.417-.76-.742-.842-1.509-.332-6.472,4.32-12.984,8.578-19.47,12.878a1.855,1.855,0,0,1-2.52.031" transform="translate(14299.766 -3264.25)" fill="#04203b"/>
      <path id="Trazado_816194" data-name="Trazado 816194" d="M232.571,2889.254c.963.87,1.825.523,2.795-.091a10.318,10.318,0,0,1,11.457,17.162c-3.181,2.18-6.429,4.262-9.643,6.4-2.422,1.609-2.923,3.408-1.676,6.048.3.628.341,1.226-.308,1.588-.766.426-1.259-.059-1.668-.68q-5.242-7.966-10.5-15.926-2.566-3.89-5.134-7.782c-.4-.6-.575-1.2.083-1.694.6-.458,1.126-.192,1.583.321,1.947,2.188,3.8,2.441,6.216.86.776-.51,1.534-1.051,2.328-1.531a1.66,1.66,0,0,0,.75-2.359l3.712-2.311m5.9,19.8a1.13,1.13,0,0,0,.31-.073,38.763,38.763,0,0,0,5.5-3.647,1.235,1.235,0,0,0,.081-1.754,1.287,1.287,0,0,0-1.769-.521c-1.756,1.077-3.474,2.219-5.171,3.386a1.332,1.332,0,0,0-.369,1.656,1.519,1.519,0,0,0,1.423.954" transform="translate(14303.17 -3264.073)" fill="#3ba8fb"/>
      <path id="Trazado_816188" data-name="Trazado 816188" d="M158.694,2967c.712-.995.98-2.265,1.932-3.109a1.85,1.85,0,0,0,2.269-.928,14.225,14.225,0,0,1,1.044-1.358c1.755-2.172,1.781-2.189,3.554,0,2.382,2.944,4.361,6.087,4.7,10a6.5,6.5,0,0,1-12.82,2.008,8.513,8.513,0,0,1,.285-4.329,1.711,1.711,0,0,0-.961-2.287" transform="translate(14299.604 -3259.68)" fill="#e7e8ee"/>
      <path id="Trazado_816186" data-name="Trazado 816186" d="M158.837,2967.224a1.711,1.711,0,0,1,.961,2.287,8.513,8.513,0,0,0-.285,4.329,6.5,6.5,0,0,0,12.82-2.008c-.336-3.914-2.315-7.057-4.7-10-1.773-2.191-1.8-2.174-3.554,0a14.22,14.22,0,0,0-1.044,1.358,1.85,1.85,0,0,1-2.269.928c-1-1.024-1.04-1.484-.245-2.6a31.58,31.58,0,0,1,4.173-4.742,1.447,1.447,0,0,1,2.274-.055c3.865,3.728,7.036,7.9,8.164,13.3,1.336,6.387-3.151,12.041-9.444,11.959a9.568,9.568,0,0,1-9.264-10.916c.115-.811.316-1.61.483-2.413a1.631,1.631,0,0,1,1.927-1.427" transform="translate(14299.462 -3259.909)" fill="#04213b"/>
      <path id="Trazado_816193" data-name="Trazado 816193" d="M200.709,2933.981c-.623-1.275-.491-1.766.693-2.561.5-.335,1.02-.643,1.5-1a1.571,1.571,0,1,1,1.625,2.548,17.908,17.908,0,0,0-1.5.995,1.729,1.729,0,0,1-2.319.019" transform="translate(14302.128 -3261.498)" fill="#06223c"/>
      <path id="Trazado_816195" data-name="Trazado 816195" d="M237.364,2908.174a1.519,1.519,0,0,1-1.423-.953,1.332,1.332,0,0,1,.369-1.656c1.7-1.168,3.415-2.31,5.171-3.386a1.287,1.287,0,0,1,1.769.521,1.235,1.235,0,0,1-.081,1.754,38.721,38.721,0,0,1-5.5,3.647,1.121,1.121,0,0,1-.31.073" transform="translate(14304.276 -3263.192)" fill="#01203c"/>
    </g>
  </g>
</svg>
