<svg xmlns="http://www.w3.org/2000/svg" width="190" height="161" viewBox="0 0 190 161">
  <g id="Grupo_1075870" data-name="Grupo 1075870" transform="translate(-14530 -944)">
    <rect id="Rectángulo_378517" data-name="Rectángulo 378517" width="190" height="161" transform="translate(14530 944)" fill="none"/>
    <g id="Grupo_1075859" data-name="Grupo 1075859" transform="translate(162.271 18.974)">
      <path id="Trazado_816151" data-name="Trazado 816151" d="M233.4,4204.527a2.677,2.677,0,0,1,3.581.55c5.2,5.111,5.3,11.994.154,17.165q-9.878,9.928-19.813,19.8c-.671.666-.956,1.026-.149,1.9a4.391,4.391,0,0,1,.022,5.906,48.3,48.3,0,0,1-4.237,4.243,4.536,4.536,0,0,1-6.277-.227c-1.562-1.482-3.1-3-4.563-4.577a1.463,1.463,0,0,0-2.088-.336c-3.8,2-7.639,3.93-11.47,5.874-2.715,1.377-4.453,1.086-6.629-1.08-.836-.832-1.677-1.66-2.5-2.5-1.905-1.955-2.206-3.715-.99-6.139,1.974-3.931,3.944-7.863,6-11.749a1.437,1.437,0,0,0-.333-2.071c-1.5-1.4-2.933-2.87-4.368-4.337a4.682,4.682,0,0,1-.052-6.97q1.649-1.723,3.376-3.372a4.585,4.585,0,0,1,6.5-.271c.8.7,1.126.395,1.691-.172,5.863-5.891,11.779-11.728,17.606-17.653,2.554-2.6,5.106-5.117,8.793-6.024h3.7c3.453.741,6.058,2.783,8.365,5.342,1.384,1.536,1.524,2.095.535,3.883a2.618,2.618,0,0,1-3.8-.576,29.258,29.258,0,0,0-2.291-2.274,6.626,6.626,0,0,0-8.48-.447c-.972.738-1.769,1.7-2.68,2.525-.5.454-.293.745.083,1.117q7.969,7.893,15.925,15.8a5.25,5.25,0,0,0,.367.481c2.733,2.834,2.734,2.834,5.289-.2a6.687,6.687,0,0,0-.667-9.357c-1.636-1.929-1.723-2.538-.608-4.25m-46.25,33.84q-2.216,4.259-4.434,8.517c-.167.321-.4.666-.1.981.954.993,1.944,1.951,2.911,2.93.37.375.665.051.953-.1q4.209-2.158,8.4-4.341l2.677-1.271-9.267-9.178-1.143,2.458m27.7-6.437q-6.915-6.97-13.831-13.938c-2.664-2.678-2.671-2.67-5.257.316-.231.2-.475.377-.691.588-1.444,1.416-1.44,1.417-.047,2.809q8.036,8.026,16.068,16.056c2,2,2,2,4.029-.025,3.013-3.014,3.013-3.014-.27-5.806m-7.736,15.736c.768.8,1.552,1.595,2.3,2.42.406.447.672.37,1.117,0,3.442-2.872,3.461-3.135.206-6.122a.454.454,0,0,0-.141-.055c-.339-.377-.662-.769-1.02-1.127q-9.835-9.843-19.685-19.67c-1.116-1.109-2.262-3.248-3.4-3.014-1.346.277-2.348,2.233-3.565,3.531,2.572,2.558,5.259,5.23,7.948,7.9q8.119,8.068,16.24,16.134m18.306-26.632c-2.083-2.12-4.156-4.248-6.251-6.356q-4.56-4.586-9.152-9.138c-.323-.32-.562-1.079-1.287-.331-2.108,2.173-4.26,4.3-6.418,6.427-.427.42-.435.693,0,1.119q7.824,7.733,15.618,15.491c.921.957,1.864,1.894,2.753,2.877.411.456.66.417,1.075-.005q3.125-3.185,6.31-6.31c.457-.45.548-.77.022-1.237-.916-.815-1.781-1.687-2.667-2.536" transform="translate(14286.703 -3264.25)" fill="#030304"/>
      <path id="Trazado_816152" data-name="Trazado 816152" d="M119.554,4347.512c-1.162,1.513-1.849,1.741-3.537,1.033-5.892-2.472-11.8-4.912-17.654-7.473-5.109-2.236-6.974-8.357-3.687-12.718,5.216-6.916,10.362-13.918,16.153-20.36,11.57-12.872,26.2-19.28,43.471-19.751,1.333-.037,2.671-.145,4-.069,1.076.06,1.147-.333,1.126-1.292a21.954,21.954,0,0,1,6.6-16.646c3.749-3.718,8.18-3.58,12.024.034a17.157,17.157,0,0,1,1.732,1.952c1.129,1.446,1.1,2.193-.048,3.679-1.718.774-2.385.639-3.545-.808a9.391,9.391,0,0,0-2.394-2.314,2.67,2.67,0,0,0-3.243-.1,4.142,4.142,0,0,0-2.028,1.564,18.683,18.683,0,0,0-4.536,11.3,7.855,7.855,0,0,0,8.113,8.244,6.472,6.472,0,0,0,4.314-1.253,7.862,7.862,0,0,0,3.479-8.383c-.3-1.654-.413-3.187,1.464-4.025,1.983.075,2.706.649,3.02,2.538a17.088,17.088,0,0,1,.3,3.209c-.026,1,.284,1.011,1.143.84a52.218,52.218,0,0,0,26.9-14.233c.477-.466.935-.954,1.433-1.4a5.327,5.327,0,0,1,6.272-.775,5.076,5.076,0,0,1,2.753,5.542c-2.782,11.365-4.528,23.044-9.757,33.692-10.718,21.826-27.505,36.719-50.848,43.82a57.978,57.978,0,0,1-37.029-.888c-2.057-.729-2.445-1.472-1.949-3.613a2.654,2.654,0,0,1,3.293-.838c1.646.559,3.3,1.1,4.986,1.53a34.615,34.615,0,0,0,9.137,1.417c-19-13.612-23.146-30.7-12.274-51.432a53.547,53.547,0,0,0-13.42,10.311,3.467,3.467,0,0,0-.845,1.594,107.39,107.39,0,0,0-2.3,10.816c-.938,6.111-1.338,12.232-.142,18.369a2.125,2.125,0,0,0,1.489,1.871c1.494.522,2.93,1.209,4.39,1.827a2.434,2.434,0,0,1,1.638,3.18m72.3-16.212c.575-.5,1.178-.97,1.72-1.5a80.492,80.492,0,0,0,13.584-17.971c6.385-11.311,8.314-24,11.426-36.334a.885.885,0,0,0-.35-1.084c-.509-.308-.863-.024-1.21.311q-2.155,2.076-4.314,4.148a59.925,59.925,0,0,1-19.363,10.684,56.455,56.455,0,0,1-9.412,2.173c-1.048.148-1.25.962-1.675,1.6-.355.532.284.771.565,1.056,8.937,9.067,12.134,19.9,9.992,32.384q-.588,2.179-1.173,4.357c-.017.131-.086.349-.039.378.18.113.21-.065.249-.194m-17.942-32.9a12.725,12.725,0,0,1-12.145-5.1,1.262,1.262,0,0,0-1.153-.561c-5.693.1-11.4.086-17,1.313-1.731.378-3.483.638-4.93,1.923-9.127,8.089-13.009,18.161-10.422,30.091,2.636,12.154,10.414,19.908,22.385,23.354,1.759.507,3.607,1.094,5.434.715a69.991,69.991,0,0,0,21.92-8.539c1.558-.867,3.231-1.57,4.377-3.031a30.8,30.8,0,0,0-2.236-40.354c-1.027-1.048-1.833-1.717-3.324-.717a10.629,10.629,0,0,1-2.909.908m-66.758,41.419a71.694,71.694,0,0,1,.758-20.765c-3.314,4.046-6.587,8.1-9.67,12.289a3.574,3.574,0,0,0,1.3,5.093c2.388,1.242,4.923,2.2,7.615,3.383" transform="translate(14293.141 -3269.953)" fill="#040403"/>
      <path id="Trazado_816153" data-name="Trazado 816153" d="M121.057,4350.148a2.434,2.434,0,0,0-1.638-3.18c-1.46-.618-2.9-1.3-4.39-1.827a2.125,2.125,0,0,1-1.489-1.871c-1.2-6.136-.8-12.258.142-18.369a107.5,107.5,0,0,1,2.3-10.816,3.462,3.462,0,0,1,.845-1.594,53.52,53.52,0,0,1,13.42-10.31c-10.872,20.729-6.721,37.818,12.274,51.431a34.615,34.615,0,0,1-9.137-1.417c-1.684-.427-3.34-.972-4.986-1.53a2.654,2.654,0,0,0-3.293.838c-1.495-.014-2.725-.814-4.043-1.356" transform="translate(14291.639 -3272.589)" fill="#f7f4f4"/>
      <path id="Trazado_816172" data-name="Trazado 816172" d="M231.9,4218.233q-7.96-7.9-15.925-15.8c-.376-.375-.586-.665-.083-1.119.912-.822,1.708-1.787,2.68-2.526a6.628,6.628,0,0,1,8.48.449,29.07,29.07,0,0,1,2.291,2.273,2.619,2.619,0,0,0,3.8.577l3.141,2.817c-1.116,1.71-1.029,2.321.607,4.25a9.431,9.431,0,0,1-2.929,6.83,9.349,9.349,0,0,0-2.06,2.247" transform="translate(14283.823 -3264.629)" fill="#b1d8fc"/>
      <path id="Trazado_816154" data-name="Trazado 816154" d="M176.924,4273.066a2.669,2.669,0,0,1,3.243.1,9.375,9.375,0,0,1,2.394,2.314c1.161,1.446,1.828,1.581,3.545.808q.811,2.117,1.622,4.231c-1.877.838-1.761,2.371-1.464,4.025a7.862,7.862,0,0,1-3.479,8.382,6.471,6.471,0,0,1-4.314,1.254c.191-.628.749-.957,1.164-1.4a9.192,9.192,0,0,0,2.449-7.186,22.231,22.231,0,0,0-5.161-12.529" transform="translate(14286.764 -3270.337)" fill="#88c5f9"/>
      <path id="Trazado_816170" data-name="Trazado 816170" d="M219.923,4229.265q-7.806-7.749-15.618-15.491c-.431-.427-.424-.7,0-1.119,2.158-2.124,4.311-4.253,6.419-6.427.725-.748.963.011,1.287.331q4.6,4.551,9.151,9.138c2.095,2.108,4.168,4.236,6.252,6.356-2.068,2.512-4.519,4.649-6.8,6.952-.157.16-.46.177-.695.259" transform="translate(14284.706 -3265.271)" fill="#def5fc"/>
      <path id="Trazado_816155" data-name="Trazado 816155" d="M207.541,4249.936,191.3,4233.8c-2.689-2.671-5.376-5.347-7.947-7.9,1.216-1.3,2.218-3.254,3.564-3.53,1.137-.233,2.282,1.9,3.4,3.013q9.867,9.811,19.685,19.671c.358.359.681.75,1.02,1.127-.748,1.634-2.182,2.632-3.481,3.756" transform="translate(14286.274 -3266.52)" fill="#f7f4f4"/>
      <path id="Trazado_816164" data-name="Trazado 816164" d="M216.187,4234.054c3.284,2.792,3.284,2.792.271,5.805-2.026,2.027-2.026,2.027-4.029.026q-8.033-8.029-16.067-16.056c-1.394-1.392-1.4-1.393.047-2.808.215-.212.46-.394.691-.589.366.424.707.873,1.1,1.269q6.025,6.042,12.063,12.07c2.474,2.475,3.291,2.513,5.924.283" transform="translate(14285.365 -3266.375)" fill="#88c5f9"/>
      <path id="Trazado_816167" data-name="Trazado 816167" d="M216.334,4233.866c-2.632,2.23-3.449,2.192-5.924-.282q-6.034-6.034-12.063-12.071c-.394-.4-.735-.845-1.1-1.269,2.585-2.986,2.594-2.994,5.257-.316q6.924,6.96,13.831,13.938" transform="translate(14285.219 -3266.187)" fill="#b1d8fc"/>
      <path id="Trazado_816156" data-name="Trazado 816156" d="M195.277,4250.133c-2.8,1.448-5.6,2.9-8.4,4.341-.288.147-.584.471-.954.1-.967-.98-1.958-1.937-2.911-2.931-.3-.316-.066-.661.1-.981q2.222-4.256,4.434-8.517c2.538,2.156,4.728,4.667,7.129,6.964a1.464,1.464,0,0,1,.6,1.026" transform="translate(14286.313 -3268.025)" fill="#b1d8fc"/>
      <path id="Trazado_816173" data-name="Trazado 816173" d="M221.234,4230.593c.235-.082.538-.1.695-.259,2.279-2.3,4.731-4.44,6.8-6.952.886.848,1.751,1.721,2.667,2.535.525.468.435.789-.022,1.237q-3.182,3.13-6.311,6.311c-.414.421-.663.46-1.075.005-.89-.984-1.831-1.92-2.753-2.877" transform="translate(14283.396 -3266.599)" fill="#c7edfc"/>
      <path id="Trazado_816174" data-name="Trazado 816174" d="M233.243,4219.2a9.342,9.342,0,0,1,2.06-2.248,9.431,9.431,0,0,0,2.929-6.83,6.686,6.686,0,0,1,.667,9.356c-2.555,3.037-2.556,3.038-5.289.2a5.064,5.064,0,0,1-.367-.482" transform="translate(14282.482 -3265.59)" fill="#88c5f9"/>
      <path id="Trazado_816165" data-name="Trazado 816165" d="M195.662,4249.93a1.465,1.465,0,0,0-.6-1.026c-2.4-2.3-4.59-4.808-7.129-6.964l1.143-2.459,9.267,9.179c-.863.408-1.769.84-2.677,1.27" transform="translate(14285.927 -3267.823)" fill="#88c5f9"/>
      <path id="Trazado_816171" data-name="Trazado 816171" d="M209.531,4251.9c1.3-1.124,2.733-2.122,3.481-3.756a.445.445,0,0,1,.141.055c3.255,2.986,3.237,3.249-.206,6.121-.444.371-.711.447-1.117,0-.746-.825-1.53-1.615-2.3-2.42" transform="translate(14284.285 -3268.481)" fill="#e2eaf5"/>
      <path id="Trazado_816157" data-name="Trazado 816157" d="M180.841,4343.666a70,70,0,0,1-21.92,8.539c-1.828.379-3.675-.208-5.434-.715-11.971-3.446-19.75-11.2-22.385-23.354-2.588-11.931,1.294-22,10.421-30.092,1.448-1.284,3.2-1.544,4.931-1.923,5.6-1.227,11.3-1.211,17-1.313a1.262,1.262,0,0,1,1.154.561,12.725,12.725,0,0,0,12.144,5.1.97.97,0,0,0,.1.288,38.926,38.926,0,0,1,7.885,20.875,39.78,39.78,0,0,1-3.381,20.149,2.94,2.94,0,0,0-.512,1.88m-7.846-22.463c-.325-8.025-2.986-14.407-8.142-19.708a5.043,5.043,0,0,0-7.624-.036,28.5,28.5,0,0,0-.036,39.818,5.075,5.075,0,0,0,7.641.026,27.923,27.923,0,0,0,8.161-20.1" transform="translate(14290.307 -3272.028)" fill="#fce77c"/>
      <path id="Trazado_816166" data-name="Trazado 816166" d="M200.153,4327.692c2.142-12.482-1.055-23.316-9.992-32.383-.281-.286-.92-.525-.565-1.055.425-.636.627-1.45,1.676-1.6a56.593,56.593,0,0,0,9.411-2.174,59.921,59.921,0,0,0,19.364-10.684c.6.508.318,1.09.173,1.688-.977,4.005-2.011,8-2.888,12.027a80.253,80.253,0,0,1-14.9,32.054c-.615.8-1.043,1.931-2.275,2.125" transform="translate(14285.809 -3270.887)" fill="#f8f5f5"/>
      <path id="Trazado_816158" data-name="Trazado 816158" d="M184.661,4344.017a2.94,2.94,0,0,1,.512-1.88,39.781,39.781,0,0,0,3.381-20.149,38.926,38.926,0,0,0-7.885-20.876.967.967,0,0,1-.1-.287,10.593,10.593,0,0,0,2.909-.909c1.491-1,2.3-.33,3.324.718a30.8,30.8,0,0,1,2.237,40.354c-1.146,1.46-2.819,2.162-4.377,3.03" transform="translate(14286.486 -3272.379)" fill="#fccf5a"/>
      <path id="Trazado_816168" data-name="Trazado 816168" d="M200.933,4327.315c1.232-.194,1.659-1.321,2.275-2.125a80.253,80.253,0,0,0,14.9-32.054c.878-4.028,1.912-8.022,2.888-12.028.145-.6.428-1.18-.173-1.687q2.157-2.075,4.313-4.148c.347-.335.7-.618,1.211-.31a.884.884,0,0,1,.349,1.083c-3.112,12.33-5.04,25.023-11.425,36.334a80.518,80.518,0,0,1-13.585,17.971c-.541.534-1.146,1-1.72,1.5a1.6,1.6,0,0,0-.211-.186q.588-2.178,1.174-4.356" transform="translate(14285.027 -3270.51)" fill="#e2eaf5"/>
      <path id="Trazado_816159" data-name="Trazado 816159" d="M176.383,4273.108a22.231,22.231,0,0,1,5.161,12.529,9.192,9.192,0,0,1-2.449,7.186c-.415.439-.973.767-1.164,1.4a7.855,7.855,0,0,1-8.113-8.244,18.687,18.687,0,0,1,4.535-11.3,4.148,4.148,0,0,1,2.029-1.564" transform="translate(14287.305 -3270.379)" fill="#b1d8fc"/>
      <path id="Trazado_816160" data-name="Trazado 816160" d="M107.538,4344.057c-2.692-1.179-5.226-2.141-7.615-3.383a3.574,3.574,0,0,1-1.3-5.093c3.083-4.191,6.356-8.243,9.67-12.289a71.691,71.691,0,0,0-.758,20.765" transform="translate(14292.761 -3274.194)" fill="#eb6f7e"/>
      <path id="Trazado_816169" data-name="Trazado 816169" d="M199.965,4336.533c-.039.128-.068.308-.248.194-.048-.03.022-.247.037-.378a1.589,1.589,0,0,1,.211.185" transform="translate(14285.032 -3275.186)" fill="#e2eaf5"/>
      <path id="Trazado_816161" data-name="Trazado 816161" d="M174.54,4321.608a27.919,27.919,0,0,1-8.161,20.1,5.074,5.074,0,0,1-7.641-.025,28.5,28.5,0,0,1,.036-39.819,5.043,5.043,0,0,1,7.624.036c5.156,5.3,7.817,11.683,8.142,19.709m-13.77,15.273c1.69,2.324,1.725,2.327,3.494.3,7.281-8.348,7.457-21.766.38-30.265-2.1-2.519-1.671-2.959-4.167.032a23.605,23.605,0,0,0,.294,29.933" transform="translate(14288.761 -3272.434)" fill="#030302"/>
      <path id="Trazado_816162" data-name="Trazado 816162" d="M161.151,4337.442a23.605,23.605,0,0,1-.294-29.933c.516-.015.677.416.893.743a24.025,24.025,0,0,1,4,11.3,26.193,26.193,0,0,1-4.6,17.891" transform="translate(14288.381 -3272.994)" fill="#796c78"/>
      <path id="Trazado_816163" data-name="Trazado 816163" d="M161.579,4337.271a26.193,26.193,0,0,0,4.6-17.891,24.027,24.027,0,0,0-4-11.3c-.216-.327-.377-.758-.893-.743,2.5-2.992,2.07-2.551,4.167-.032,7.077,8.5,6.9,21.917-.38,30.265-1.769,2.027-1.8,2.024-3.494-.3" transform="translate(14287.952 -3272.822)" fill="#544d55"/>
    </g>
  </g>
</svg>
