<svg xmlns="http://www.w3.org/2000/svg" width="190" height="161" viewBox="0 0 190 161">
  <g id="Grupo_1075869" data-name="Grupo 1075869" transform="translate(-14530 -2295)">
    <rect id="Rectángulo_378518" data-name="Rectángulo 378518" width="190" height="161" transform="translate(14530 2295)" fill="none"/>
    <g id="Grupo_1075860" data-name="Grupo 1075860" transform="translate(329.266 44.883)">
      <g id="Grupo_1075853" data-name="Grupo 1075853" transform="translate(14229.996 2250.121)">
        <path id="Trazado_278505" data-name="Trazado 278505" d="M206.1,5678.029c-.022-.047-.032-.122-.068-.136-6.409-2.7-8-5.1-8-12.121,0-13.534.023-27.068-.013-40.6a15.921,15.921,0,0,1,4.258-11.43,1.563,1.563,0,0,0,.449-1.22c-.062-6.456-.067-12.912-.1-19.367a3.256,3.256,0,0,1,1.825-2.988c3.765-2.247,6.213-5.335,6.359-9.944a2.952,2.952,0,0,1,3.117-2.984q6.431-.061,12.862,0a2.95,2.95,0,0,1,3.155,2.934c.151,4.414,2.43,7.494,6.074,9.6a4.405,4.405,0,0,1,2.465,4.373c-.119,6.143-.085,12.289-.156,18.435a1.584,1.584,0,0,0,.521,1.2,15.859,15.859,0,0,1,4.189,11.151c-.028,14.154,0,28.307-.015,42.461,0,5.487-2.881,9.083-8.253,10.4-.064.015-.1.158-.143.241Zm14.578-46.229c-5.063,0-10.125.028-15.187-.024-1-.009-1.284.232-1.277,1.259q.069,11.312,0,22.625c-.006,1.032.3,1.267,1.29,1.264q15.032-.055,30.064,0c1.017.005,1.286-.265,1.28-1.279q-.065-11.312,0-22.625c.006-1.06-.332-1.251-1.3-1.242-4.958.046-9.918.021-14.877.021m-.19-23.134c3.46,0,6.92-.036,10.379.023,1.018.018,1.434-.156,1.41-1.312-.078-3.819-.05-7.642-.013-11.463a1.91,1.91,0,0,0-.913-1.767,17.324,17.324,0,0,1-7.05-9.851c-.161-.642-.416-.921-1.146-.895-1.805.067-3.615.049-5.421.008-.713-.015-1.055.143-1.25.927a17.5,17.5,0,0,1-6.846,9.824,1.679,1.679,0,0,0-.822,1.5c.038,3.977.045,7.953,0,11.928-.012.907.29,1.106,1.139,1.094,3.51-.042,7.023-.019,10.534-.019m.019,16.932c4.956,0,9.911-.051,14.865.035,1.3.022,1.507-.424,1.464-1.571a9.506,9.506,0,0,0-9.464-9.156q-6.806-.212-13.625,0a9.538,9.538,0,0,0-9.532,9.425c-.013,1,.243,1.305,1.272,1.293,5.006-.054,10.014-.024,15.02-.024m.113,37.509c-5.06,0-10.121.022-15.181-.02-.919-.008-1.3.182-1.222,1.18.094,1.232-.016,2.479.038,3.716a3.777,3.777,0,0,0,3.722,3.809q12.547.087,25.095,0a3.751,3.751,0,0,0,3.734-3.785c.052-1.186-.058-2.382.041-3.56.092-1.091-.262-1.383-1.356-1.369-4.956.061-9.913.026-14.871.026" transform="translate(-100.933 -5519.219)" fill="#020202"/>
        <path id="Trazado_278506" data-name="Trazado 278506" d="M181.6,5644.843c2.436.7,3.079,1.531,3.08,4.067.006,6.493.062,12.985-.022,19.478a18.241,18.241,0,0,0,2.417,9.434c1.441,2.545,1.048,3.964-1.4,5.427h-1.86a8.487,8.487,0,0,1-2.674-3.167c-2.3-4.483-2.829-9.27-2.7-14.243.149-5.665.03-11.338.037-17.008,0-2.577.619-3.351,3.123-3.988" transform="translate(-99.42 -5524.44)" fill="#040303"/>
        <path id="Trazado_278507" data-name="Trazado 278507" d="M175.249,5638.248c-2.5.638-3.119,1.412-3.123,3.988-.006,5.67.112,11.343-.037,17.008-.13,4.973.4,9.76,2.7,14.243-.567.021-1.133.062-1.7.062q-37.5.006-74.99.042c-1.586,0-1.94-.41-1.938-1.958q.078-40.438.042-80.876a5.718,5.718,0,0,0,2.8-1.546c2.659-2.449,5.357-4.858,8.039-7.285,5.669-5.129,11.313-10.289,17.011-15.384A27.47,27.47,0,0,1,163,5568.513c.839.924,1.13,1.509,0,2.424a29.877,29.877,0,0,0-3.187,3.163c-.592.646-.935.611-1.572,0-8.71-8.386-20.567-8.473-29.47-.26q-10.48,9.667-20.966,19.33c-5.507,5.076-5.1,12.767,1,17.161a305.859,305.859,0,0,1,36.754,31.09c3.476,3.449,7.484,4.435,12.045,2.622,4.261-1.694,6.539-5.429,6.54-10.437q.007-22.241.007-44.484a44.191,44.191,0,0,0-.329-4.473c-.167-1.649-1.728-3.247-.894-4.769.809-1.479,2.386-2.538,3.627-3.781a3.669,3.669,0,0,0,.327-.332c.626-.808.943-.54,1.356.256a35.47,35.47,0,0,1,3.885,16.562c.014,6.975,0,13.95.007,20.924,0,2.428.794,3.343,3.163,3.76q0,3.453,0,6.906-3.1.466-3.145,3.13c-.029,1.744.88,2.661,3.127,3.153l-.021,7.792" transform="translate(-93.072 -5517.844)" fill="#de9f82"/>
        <path id="Trazado_278508" data-name="Trazado 278508" d="M175.034,5613.793c-2.37-.417-3.159-1.332-3.163-3.761-.01-6.974.006-13.948-.008-20.925a35.482,35.482,0,0,0-3.884-16.56c-.413-.8-.731-1.064-1.357-.257a3.713,3.713,0,0,1-.326.332c-1.24,1.242-2.818,2.3-3.628,3.781-.833,1.523.727,3.12.893,4.769a44.464,44.464,0,0,1,.33,4.474q-.015,22.241-.008,44.484c0,5.007-2.279,8.742-6.539,10.437-4.561,1.813-8.568.827-12.047-2.623a305.918,305.918,0,0,0-36.754-31.091c-6.1-4.393-6.512-12.083-1-17.159q10.484-9.667,20.967-19.331c8.9-8.212,20.76-8.124,29.47.262.637.612.981.647,1.572,0a29.974,29.974,0,0,1,3.187-3.164c1.133-.914.843-1.5,0-2.424a27.469,27.469,0,0,0-38.948-1.971c-5.7,5.1-11.343,10.254-17.012,15.385-2.682,2.425-5.378,4.834-8.039,7.284a5.723,5.723,0,0,1-2.8,1.545,3.347,3.347,0,0,1-3.038-2.476c-.374-1.559.464-2.62,1.567-3.613q12.44-11.2,24.839-22.435c14.176-12.826,34.939-11.968,47.89,2.035.912.987,1.3.912,2.185.018q9.965-10.085,20.038-20.07a8.645,8.645,0,0,0,1.765-2.5q4.1-8.739,8.272-17.446a11.132,11.132,0,0,1,11.691-6.3,10.9,10.9,0,0,1,9.157,8.851c.782,5.294-1.616,9.989-6.284,12.114-6,2.727-12.023,5.395-18.043,8.071a6.073,6.073,0,0,0-1.9,1.284q-10.56,10.589-21.166,21.134c-.732.726-.907,1.2-.339,2.161a39.3,39.3,0,0,1,5.464,19.9c.083,7.336.031,14.672.021,22.01,0,2.318-.786,3.255-3.034,3.77m-17.777-31.942a3.957,3.957,0,0,0-1.736,2.222c-2.742,6.117-5.4,12.275-8.258,18.337a10.983,10.983,0,0,1-20.62-2.923c-.774-5.2,1.5-9.8,6-11.972q8.361-4.027,16.775-7.951a13.633,13.633,0,0,0,4.019-2.8c.754-.76.787-1.174.022-1.95-5.542-5.618-14.256-5.78-20.389-.205-7.186,6.532-14.3,13.144-21.423,19.744-2.566,2.376-2.361,5.412.508,7.468a311.25,311.25,0,0,1,37.584,31.776c1.52,1.5,3.2,2.069,5.194,1.239s2.761-2.431,2.757-4.568q-.043-22.548-.014-45.1a10.209,10.209,0,0,0-.424-3.315m42.467-47.106.233.275c4.132-1.9,8.312-3.708,12.373-5.755,1.678-.843,2.278-3.1,1.824-5.041a4.8,4.8,0,0,0-8.832-1.252c-.623,1.125-1.145,2.3-1.694,3.467q-1.961,4.148-3.9,8.306m-52.469,52.678c-4.356,2.081-8.4,3.938-12.365,5.936a4.6,4.6,0,0,0-2.186,4.9,4.849,4.849,0,0,0,3.713,3.891,4.6,4.6,0,0,0,5.154-2.256c1.93-4,3.7-8.079,5.684-12.474" transform="translate(-92.814 -5514.371)" fill="#020202"/>
        <path id="Trazado_278509" data-name="Trazado 278509" d="M181.625,5635.874c-2.246-.492-3.155-1.409-3.126-3.153q.044-2.661,3.144-3.13c1.921.408,3.024,1.551,3.034,3.146.009,1.554-.983,2.574-3.053,3.137" transform="translate(-99.426 -5523.263)" fill="#070605"/>
        <path id="Trazado_278510" data-name="Trazado 278510" d="M221.2,5636.364c4.959,0,9.919.025,14.877-.021.966-.009,1.3.184,1.3,1.242q-.076,11.31,0,22.625c.006,1.014-.263,1.284-1.28,1.279q-15.032-.058-30.064,0c-.995,0-1.3-.231-1.29-1.264q.068-11.314,0-22.624c-.006-1.028.281-1.27,1.277-1.26,5.062.052,10.124.024,15.187.024" transform="translate(-101.451 -5523.783)" fill="#fdfdfd"/>
        <path id="Trazado_278511" data-name="Trazado 278511" d="M221.392,5609.184c-3.511,0-7.024-.024-10.534.019-.849.011-1.151-.187-1.139-1.1.048-3.975.041-7.951,0-11.927a1.678,1.678,0,0,1,.822-1.5,17.5,17.5,0,0,0,6.846-9.824c.195-.784.536-.942,1.25-.927,1.806.041,3.616.059,5.421-.008.73-.025.986.252,1.146.895a17.322,17.322,0,0,0,7.05,9.851,1.913,1.913,0,0,1,.913,1.768c-.037,3.821-.066,7.644.013,11.462.024,1.156-.392,1.33-1.41,1.313-3.459-.06-6.919-.024-10.379-.024" transform="translate(-101.835 -5519.738)" fill="#fdfdfd"/>
        <path id="Trazado_278512" data-name="Trazado 278512" d="M221.027,5628.741c-5.007,0-10.014-.029-15.02.024-1.029.012-1.285-.288-1.272-1.293a9.538,9.538,0,0,1,9.532-9.425c4.538-.139,9.087-.139,13.625,0a9.505,9.505,0,0,1,9.464,9.156c.043,1.146-.165,1.593-1.464,1.57-4.954-.086-9.909-.035-14.865-.035" transform="translate(-101.451 -5522.363)" fill="#fbbe44"/>
        <path id="Trazado_278513" data-name="Trazado 278513" d="M221.139,5670.288c4.957,0,9.915.035,14.871-.026,1.094-.014,1.448.278,1.356,1.369-.1,1.178.011,2.374-.041,3.561a3.751,3.751,0,0,1-3.734,3.785q-12.547.081-25.095,0a3.777,3.777,0,0,1-3.722-3.808c-.054-1.238.056-2.485-.038-3.717-.076-1,.3-1.188,1.222-1.18,5.06.042,10.121.02,15.181.02" transform="translate(-101.45 -5526.4)" fill="#fec045"/>
        <path id="Trazado_278514" data-name="Trazado 278514" d="M158.682,5586.544a10.214,10.214,0,0,1,.424,3.315q0,22.549.014,45.1c0,2.139-.757,3.737-2.757,4.57s-3.674.263-5.195-1.24a311.213,311.213,0,0,0-37.584-31.777c-2.869-2.055-3.074-5.091-.508-7.468,7.124-6.6,14.237-13.212,21.423-19.744,6.133-5.574,14.847-5.412,20.389.206.766.776.733,1.191-.022,1.949a13.616,13.616,0,0,1-4.019,2.8q-8.42,3.905-16.775,7.952c-4.5,2.169-6.778,6.772-6,11.969a10.983,10.983,0,0,0,20.62,2.924c2.861-6.062,5.518-12.219,8.259-18.337a3.959,3.959,0,0,1,1.735-2.222" transform="translate(-94.239 -5519.065)" fill="#858dad"/>
        <path id="Trazado_278516" data-name="Trazado 278516" d="M150.583,5593.531c-1.989,4.395-3.754,8.473-5.684,12.474a4.6,4.6,0,0,1-5.154,2.255,4.847,4.847,0,0,1-3.713-3.891,4.6,4.6,0,0,1,2.186-4.9c3.97-2,8.009-3.855,12.365-5.936" transform="translate(-96.143 -5520.479)" fill="#fafafa"/>
      </g>
    </g>
  </g>
</svg>
