<svg xmlns="http://www.w3.org/2000/svg" width="190" height="161" viewBox="0 0 190 161">
  <g id="Grupo_1075867" data-name="Grupo 1075867" transform="translate(-12518 -4893)">
    <rect id="Rectángulo_378520" data-name="Rectángulo 378520" width="190" height="161" transform="translate(12518 4893)" fill="none"/>
    <g id="Grupo_1075862" data-name="Grupo 1075862" transform="translate(90.626 29.358)">
      <path id="Trazado_278569" data-name="Trazado 278569" d="M119.5,8288.892c-.242-.663-.89-.946-1.345-1.4q-12.195-12.242-24.424-24.449c-1.956-1.956-1.949-2.859.024-4.832,5.875-5.875,11.731-11.769,17.652-17.6.851-.839.8-1.261-.031-2-1.256-1.115-2.422-2.335-3.583-3.552-1.269-1.328-1.276-2.543.013-3.859,2.246-2.295,4.5-4.582,6.824-6.8.784-.749.911-1.154.041-1.981q-3.771-3.574-7.339-7.361a6.64,6.64,0,0,1-1.141-7.655,6.869,6.869,0,0,1,6.746-3.831,7.494,7.494,0,0,1,4.777,2.452c3.27,3.29,6.586,6.534,9.816,9.862.823.85,1.252.866,2.107.008q25.905-26,51.848-51.952c2.086-2.1,4.36-3.325,7.317-2.99a4.344,4.344,0,0,0,3.843-1.587q11.01-11.156,22.15-22.181c8.3-8.187,21.627-5.819,26.195,4.69,2.655,6.107,1.707,11.861-2.567,16.961-1.534,1.831-3.321,3.451-5.021,5.138a1.535,1.535,0,0,0-.537,1.832,6.56,6.56,0,0,1-1.494,6.67c-.4.459-.843.885-1.276,1.318l-70.278,70.284c-2.034,2.034-2.034,2.033.053,4.122,3.062,3.063,6.184,6.072,9.169,9.21a6.862,6.862,0,1,1-9.754,9.649c-2.378-2.307-4.743-4.631-7.007-7.048-.838-.894-1.25-.733-2,.049-2.146,2.249-4.369,4.425-6.579,6.611-1.62,1.6-2.668,1.6-4.3,0-1.236-1.213-2.471-2.431-3.664-3.687-.5-.525-.81-.529-1.34,0q-8.242,8.3-16.545,16.541c-.486.481-.446.747.025,1.192,1.221,1.157,2.392,2.365,3.578,3.559,1.849,1.859,1.818,2.964-.12,4.616Zm39.443-28.745c1.169,1.2,2.305,2.434,3.516,3.589a2.345,2.345,0,0,0,3.409.157c.956-.97.915-2.216-.207-3.383-1.16-1.208-2.387-2.353-3.585-3.523-.2-.228-.388-.469-.6-.683q-23.437-23.445-46.879-46.887a8.5,8.5,0,0,0-.664-.63,2.266,2.266,0,0,0-3.2,3.205,12.107,12.107,0,0,0,.952.988q13.827,13.827,27.655,27.654c1.495,1.5,1.577,2.078.635,3.887-1.751.919-2.376.848-3.771-.544q-8.222-8.2-16.406-16.437c-.752-.76-1.162-.79-1.89,0-1.446,1.573-2.952,3.1-4.534,4.538-.887.8-.846,1.258,0,2.094,6.735,6.66,13.414,13.38,20.119,20.072,1.114,1.113,2.269,2.185,3.4,3.275,1.372,1.422,2.763,2.825,4.1,4.274.518.56.812.3,1.215-.107,1.711-1.737,3.428-3.471,5.177-5.17.5-.486.6-.8.037-1.33-1.481-1.388-2.9-2.835-4.351-4.259a2.71,2.71,0,0,1,.043-3.231c1.836-.958,2.379-.882,3.866.59q5.985,5.924,11.961,11.858m-49.888,11.642c1.422,1.451,2.869,2.879,4.256,4.362.56.6.909.538,1.463-.02q8.178-8.234,16.4-16.418c.414-.412.632-.689.082-1.2-1.486-1.383-2.919-2.826-4.373-4.245-3.544-3.581-7.1-7.152-10.623-10.755-.514-.525-.817-.529-1.336-.007q-8.19,8.237-16.43,16.422c-.581.577-.516.915.027,1.447,3.525,3.457,7.023,6.941,10.531,10.416M236.1,8142.562a9.078,9.078,0,0,0-3.843-4c-4.787-2.809-10.135-2.145-14.257,1.909-6.57,6.464-13.051,13.019-19.562,19.542-.2.195-.539.343-.414.757a2.457,2.457,0,0,0,1.453.152c3.87.013,7.741.022,11.611,0,3.2-.014,6.408-.069,9.612-.106,2.744.426,5.582-.364,8.284.641.333.124.565-.123.779-.344a70.208,70.208,0,0,0,5.889-6.15,11.109,11.109,0,0,0,.448-12.407m-86.033,95.668c1.087,1.137,2.234,2.223,3.242,3.425.872,1.04,1.427,1.054,2.439.041q35.61-35.71,71.291-71.346c.288-.288.59-.565.852-.875a2.28,2.28,0,0,0,.523-2.533,2.18,2.18,0,0,0-2.164-1.4c-1.525,0-3.05.025-4.575.04q-16.965-.029-33.929-.061a3.268,3.268,0,0,0-2.414,1.1q-26.31,26.328-52.651,52.624c-.727.725-.693,1.095.01,1.783,3.206,3.134,6.347,6.335,9.53,9.493,2.6,2.581,5.23,5.136,7.846,7.7" transform="translate(12355 -3264.25)" fill="#030404"/>
      <path id="Trazado_278570" data-name="Trazado 278570" d="M150.069,8238.23c-2.616-2.566-5.244-5.121-7.846-7.7-3.183-3.158-6.324-6.359-9.53-9.493-.7-.688-.737-1.059-.01-1.783q26.354-26.285,52.651-52.624a3.268,3.268,0,0,1,2.414-1.1q16.964.039,33.929.061c-.037.826-.735,1.19-1.221,1.676q-34.555,34.582-69.121,69.154c-.519.52-1.277.909-1.266,1.813" transform="translate(12355 -3264.25)" fill="#65fbf0"/>
      <path id="Trazado_278571" data-name="Trazado 278571" d="M150.069,8238.23c-.011-.9.747-1.294,1.266-1.813q34.555-34.582,69.121-69.154c.486-.486,1.184-.85,1.221-1.676,1.525-.015,3.05-.04,4.575-.04a2.18,2.18,0,0,1,2.164,1.4,2.28,2.28,0,0,1-.523,2.533c-.262.31-.564.587-.852.875q-35.658,35.661-71.291,71.346c-1.012,1.013-1.567,1-2.439-.041-1.008-1.2-2.155-2.288-3.242-3.425" transform="translate(12355 -3264.25)" fill="#57cdc8"/>
      <path id="Trazado_278572" data-name="Trazado 278572" d="M220.7,8160.821c-3.2.037-6.408.092-9.612.107q-5.8.026-11.611,0a2.445,2.445,0,0,1-1.452-.152c-.126-.413.218-.562.413-.756,6.511-6.524,12.992-13.078,19.563-19.542,4.121-4.055,9.469-4.719,14.256-1.91a9.075,9.075,0,0,1,3.843,4c-.458.845-.883,1.712-1.381,2.534-2.524,4.16-6.056,7.452-9.406,10.9a46.411,46.411,0,0,0-4.613,4.821" transform="translate(12355 -3264.25)" fill="#fdf7e6"/>
      <path id="Trazado_278573" data-name="Trazado 278573" d="M109.058,8271.788c-3.507-3.475-7.006-6.959-10.531-10.416-.543-.532-.608-.87-.027-1.448q8.246-8.181,16.43-16.421c.519-.521.822-.519,1.337.007,3.523,3.6,7.078,7.173,10.622,10.755a5.4,5.4,0,0,1-.457.6q-8.112,8.125-16.232,16.242a1.71,1.71,0,0,1-1.142.68" transform="translate(12355 -3264.25)" fill="#58cfca"/>
      <path id="Trazado_278574" data-name="Trazado 278574" d="M143.119,8247.7a2.712,2.712,0,0,0-.043,3.231c-.5.562-1,1.122-1.512,1.678-1.525,1.669-3.347,3.054-4.669,4.915-1.137-1.092-2.292-2.163-3.406-3.276-6.705-6.692-13.384-13.41-20.119-20.072-.844-.835-.886-1.289,0-2.094,1.582-1.437,3.088-2.964,4.534-4.537.728-.793,1.139-.763,1.89,0q8.16,8.262,16.407,16.437c1.394,1.392,2.019,1.463,3.77.545a17.962,17.962,0,0,1,3.147,3.176" transform="translate(12355 -3264.25)" fill="#64f7ed"/>
      <path id="Trazado_278575" data-name="Trazado 278575" d="M143.119,8247.7a17.962,17.962,0,0,0-3.147-3.176c.942-1.81.86-2.392-.635-3.887q-13.824-13.831-27.655-27.654a12.289,12.289,0,0,1-.952-.989,2.266,2.266,0,0,1,3.2-3.2,8.153,8.153,0,0,1,.664.63q23.442,23.442,46.879,46.887c.214.214.4.454.6.683a3.68,3.68,0,0,1-3.133,3.16q-5.979-5.931-11.961-11.859c-1.487-1.472-2.03-1.547-3.866-.59" transform="translate(12355 -3264.25)" fill="#58cec9"/>
      <path id="Trazado_278576" data-name="Trazado 278576" d="M109.058,8271.788a1.71,1.71,0,0,0,1.142-.68q8.117-8.12,16.232-16.242a5.4,5.4,0,0,0,.457-.6c1.454,1.419,2.887,2.862,4.373,4.246.55.512.332.789-.082,1.2q-8.217,8.193-16.4,16.418c-.554.559-.9.619-1.464.02-1.387-1.484-2.833-2.912-4.256-4.362" transform="translate(12355 -3264.25)" fill="#4ba5a6"/>
      <path id="Trazado_278577" data-name="Trazado 278577" d="M220.7,8160.821a46.411,46.411,0,0,1,4.613-4.821c3.35-3.452,6.882-6.744,9.406-10.9.5-.822.923-1.689,1.381-2.534a11.105,11.105,0,0,1-.448,12.407,70.052,70.052,0,0,1-5.889,6.149c-.214.221-.445.468-.779.344-2.7-1-5.54-.215-8.284-.641" transform="translate(12355 -3264.25)" fill="#f6e2a3"/>
      <path id="Trazado_278578" data-name="Trazado 278578" d="M136.9,8257.521c1.321-1.861,3.144-3.246,4.668-4.915.508-.556,1.009-1.117,1.513-1.677,1.446,1.423,2.87,2.87,4.351,4.257.566.53.463.847-.037,1.332-1.749,1.7-3.467,3.432-5.177,5.17-.4.408-.7.667-1.215.107-1.342-1.45-2.733-2.853-4.1-4.274" transform="translate(12355 -3264.25)" fill="#57cbc6"/>
      <path id="Trazado_278579" data-name="Trazado 278579" d="M158.946,8260.146a3.681,3.681,0,0,0,3.133-3.16c1.2,1.172,2.425,2.315,3.585,3.523,1.121,1.167,1.163,2.413.207,3.383a2.345,2.345,0,0,1-3.409-.158c-1.212-1.154-2.347-2.39-3.516-3.588" transform="translate(12355 -3264.25)" fill="#4aa3a4"/>
    </g>
  </g>
</svg>
