<svg xmlns="http://www.w3.org/2000/svg" width="190" height="161" viewBox="0 0 190 161">
  <g id="Grupo_1075865" data-name="Grupo 1075865" transform="translate(-12615 -7604)">
    <rect id="Rectángulo_378522" data-name="Rectángulo 378522" width="190" height="161" transform="translate(12615 7604)" fill="none"/>
    <g id="Grupo_1075864" data-name="Grupo 1075864" transform="translate(201.776 -62.547)">
      <path id="Trazado_278545" data-name="Trazado 278545" d="M181.513,11085.263a5.542,5.542,0,0,0-2.522-.714c-13.957-3.308-23.046-18.154-17.114-33.55a63.838,63.838,0,0,1,4.769-9.9c.441-.735.493-.985-.5-1.279a8.444,8.444,0,0,1-6.127-8.52c.117-5.3.653-10.581,1.233-15.853a41.761,41.761,0,0,0-2.087-18.765,1.229,1.229,0,0,0-1.432-.957q-5.59.062-11.182,0c-.883-.011-1.282.159-1.56,1.128a10.709,10.709,0,0,1-20.9-1.536,1.945,1.945,0,0,0-.83-1.547,25.431,25.431,0,0,1-11.1-16.7c-.06-.29.094-.705-.362-.836v-6.886a6.636,6.636,0,0,0,.725-2.676,25.309,25.309,0,0,1,31.754-18.466,20.99,20.99,0,0,0,4.369.724,2.356,2.356,0,0,1,2.565,2.309c-.546,1.71-1.155,2.154-2.931,2a37.708,37.708,0,0,1-5.634-.974c-8.238-2-15.335.034-21.07,6.285a20.932,20.932,0,0,0,2.706,30.71c.9.69,1.306.6,1.92-.318,1.624-2.415,3.361-4.755,5.042-7.134a6.406,6.406,0,0,0,1.4-2.27c.067-.422-1.037-.985-1.543-1.548a8.12,8.12,0,0,1,7.938-13.3c3.884.974,7.743,2.045,11.614,3.066a2.488,2.488,0,0,0,1.648.106c2.04-.754,3.312.128,3.208,2.323a33.889,33.889,0,0,0,4.81,18.7,43.681,43.681,0,0,1,5.213,27.094c-.574,5.081-1.055,10.17-1.2,15.282a4.364,4.364,0,0,0,4.39,4.651,1.855,1.855,0,0,0,1.877-.921,101.326,101.326,0,0,1,7.408-9.477c3.32-3.817,6.534-4.595,11.235-2.742a14.086,14.086,0,0,1,3.061,2.746c2.61,3.053,5.1,6.194,7.433,9.466.258.361.394.825.992.927a4.488,4.488,0,0,0,5.432-4.445c.011-.62.01-1.245-.04-1.863-.373-4.524-.706-9.052-1.153-13.568a46.284,46.284,0,0,1,6.081-28.771,27.657,27.657,0,0,0,2.054-4.4,32.8,32.8,0,0,0,1.885-12.669c-.073-2.2,1.179-3.1,3.193-2.339a2.255,2.255,0,0,0,1.51-.051c3.686-.983,7.366-1.985,11.048-2.981a8.628,8.628,0,0,1,4.528-.208,7.912,7.912,0,0,1,5.972,6.29,7.3,7.3,0,0,1-2.769,7.892c-.734.58-.765.918-.218,1.657,2.129,2.879,4.2,5.8,6.246,8.742.428.611.675.851,1.393.291,5.11-3.977,8.13-9.159,8.452-15.615a21.049,21.049,0,0,0-26.41-21.646,31.292,31.292,0,0,1-25.742-4.277,24.642,24.642,0,0,0-6.328-3.252,5.262,5.262,0,0,0-.638-.308,29.475,29.475,0,0,0-26.552,3.3,34,34,0,0,1-9.8,4.566c-1.858.49-2.4.292-3.47-1.309a2.5,2.5,0,0,1,2.221-2.834,27.588,27.588,0,0,0,8.291-3.764c12.751-8.079,25.623-8.2,38.368-.132,7.116,4.5,14.6,5.921,22.711,3.816,14.9-3.865,27.779,6.161,30.912,18.534a25.29,25.29,0,0,1-10.238,26.9,2.534,2.534,0,0,0-1.3,1.88,10.694,10.694,0,0,1-20.847,1.577c-.292-1.016-.686-1.227-1.643-1.214q-5.521.082-11.044,0a1.315,1.315,0,0,0-1.5,1.056,45.52,45.52,0,0,0-1.861,21.069,130.067,130.067,0,0,1,1,13.58,8.38,8.38,0,0,1-6.251,8.424c-1.209.33-.872.7-.464,1.408a48.132,48.132,0,0,1,5.965,14.476,23.817,23.817,0,0,1-1.688,14.824c-.8,1.777-1.27,2.013-3.244,1.718-1.262-.974-1.338-2.081-.681-3.519a19.048,19.048,0,0,0,1.282-12.707c-2.193-9.035-7.322-16.461-13.008-23.574-1.268-1.55-2.492-3.139-3.814-4.642-2.085-2.372-4.823-2.355-6.9.058-1.808,2.1-3.593,4.227-5.269,6.431-4.436,5.837-8.428,11.945-10.766,18.973-2.942,8.843-.593,17.463,6.234,23.049,6.908,5.65,17.894,6.179,24.584,1.181a9.288,9.288,0,0,0,2.3-1.611,2.458,2.458,0,0,1,3.433-.39c.958,1.693.847,2.414-.662,3.688a24.231,24.231,0,0,1-12.981,5.767c-.2.023-.37.051-.418.28Zm-28.688-102.428a35.082,35.082,0,0,1-1.642-9.811c-.017-.52-.215-.716-.725-.849-4.19-1.1-8.357-2.292-12.56-3.342a3.654,3.654,0,0,0-4.368,2.585,3.6,3.6,0,0,0,1.833,4.473,6.466,6.466,0,0,0,1.317.547,10.788,10.788,0,0,1,6.958,5.726c.2.406.389.689.934.684,2.712-.029,5.425-.013,8.251-.013m64.858,0c2.774,0,5.445-.026,8.114.017.682.012.851-.36,1.107-.853a10.63,10.63,0,0,1,6.115-5.287,15.888,15.888,0,0,0,1.986-.789,3.5,3.5,0,0,0,1.927-4.521,3.689,3.689,0,0,0-4.519-2.521c-4.1,1.057-8.181,2.2-12.278,3.269-.531.14-.82.29-.837.909a36.016,36.016,0,0,1-1.614,9.776m-76.579,10.107c-.2-1.982-.39-4.412-.686-6.828a6.543,6.543,0,0,0-2.49-4.368c-.674-.553-1.056-.48-1.57.259-2.533,3.646-5.128,7.25-7.7,10.865a1.834,1.834,0,0,0-.421,1.31,6.586,6.586,0,0,0,6.729,6.107c3.621-.166,6.3-3.164,6.143-7.345m88.291-.15c-.2,4.17,2.22,7.088,5.824,7.478a6.564,6.564,0,0,0,6.979-5.789,1.973,1.973,0,0,0-.35-1.6c-2.623-3.643-5.239-7.29-7.811-10.97-.5-.716-.88-.66-1.474-.183a6.487,6.487,0,0,0-2.492,4.364c-.294,2.369-.483,4.752-.674,6.7m-15.722-1.352h8.14c3.37,0,3.341,0,3.73-3.335.089-.755-.024-.993-.814-.98-2.669.04-5.338.017-8.008.013-.387,0-.758-.022-.978.4-.655,1.251-1.323,2.5-2.07,3.9m-56.848,0c-.75-1.395-1.39-2.557-2-3.733a.878.878,0,0,0-.871-.573c-2.812.016-5.625.012-8.438,0-.457,0-.7.095-.614.645.139.94.212,1.894.3,2.842.049.539.209.837.863.832,3.52-.033,7.041-.017,10.766-.017" transform="translate(12323 -3264.251)" fill="#040303"/>
      <path id="Trazado_278546" data-name="Trazado 278546" d="M189.452,11023c-4.7-1.853-7.915-1.074-11.235,2.742a101.339,101.339,0,0,0-7.408,9.478,1.855,1.855,0,0,1-1.877.92,4.363,4.363,0,0,1-4.39-4.65c.148-5.113.629-10.2,1.2-15.283a43.682,43.682,0,0,0-5.212-27.093,33.887,33.887,0,0,1-4.811-18.7c.1-2.194-1.168-3.077-3.208-2.323a2.488,2.488,0,0,1-1.648-.106c-3.871-1.021-7.73-2.093-11.614-3.065a8.12,8.12,0,0,0-7.938,13.3c.506.561,1.61,1.124,1.544,1.546a6.422,6.422,0,0,1-1.4,2.27c-1.681,2.379-3.418,4.719-5.042,7.134-.614.915-1.017,1.009-1.92.318a20.931,20.931,0,0,1-2.706-30.709c5.735-6.252,12.832-8.283,21.07-6.286a37.708,37.708,0,0,0,5.634.974c1.776.155,2.386-.288,2.931-2l4.189-.283c1.071,1.6,1.61,1.8,3.469,1.31a34.01,34.01,0,0,0,9.8-4.567,29.478,29.478,0,0,1,26.552-3.3,5.269,5.269,0,0,1,.638.309c-.265.2-.515.42-.8.595a31.253,31.253,0,0,0-12.3,14.107,20.813,20.813,0,0,0-2.077,7.22c-3.112,3.852-3.12,7.4-.024,11.26a12.276,12.276,0,0,0,.1,1.417,31.894,31.894,0,0,0,4.037,10.029,43.732,43.732,0,0,1,5.6,19.84,48.253,48.253,0,0,1-.321,6.841c-.193,2.263-.561,4.511-.851,6.765m-19.312-52.9c.028-1.326.1-2.655.07-3.979a2.152,2.152,0,1,0-4.291.02c-.033,1.042-.042,2.084-.061,3.127a4.92,4.92,0,0,0-2.75.649c-1.788.922-3.3,2.2-3.448,4.4a4.992,4.992,0,0,0,2.679,4.707,8.348,8.348,0,0,0,8.679-.12c1.683-1.2,2.815-2.8,2.363-4.994a4.551,4.551,0,0,0-3.241-3.8" transform="translate(12322.785 -3264.472)" fill="#fdb4bf"/>
      <path id="Trazado_278547" data-name="Trazado 278547" d="M205.7,11080.239a2.458,2.458,0,0,0-3.433.39,9.288,9.288,0,0,1-2.3,1.611,24.315,24.315,0,0,1-9.688-7.555,22.094,22.094,0,0,1-4.109-17.023,32.606,32.606,0,0,1,2.6-8.291,60.058,60.058,0,0,1,7.129-12.18c5.687,7.113,10.815,14.539,13.008,23.575a19.044,19.044,0,0,1-1.282,12.707c-.657,1.437-.581,2.544.681,3.518a28.8,28.8,0,0,1-2.61,3.248" transform="translate(12319.473 -3268.963)" fill="#fd8d9d"/>
      <path id="Trazado_278548" data-name="Trazado 278548" d="M184.134,10966.954a20.773,20.773,0,0,1,2.077-7.22,31.251,31.251,0,0,1,12.294-14.107c.281-.175.533-.4.8-.595a24.6,24.6,0,0,1,6.327,3.251,31.291,31.291,0,0,0,25.743,4.277,21.048,21.048,0,0,1,26.409,21.646c-.322,6.456-3.343,11.638-8.453,15.614-.717.56-.965.32-1.392-.291-2.05-2.937-4.117-5.863-6.246-8.742-.546-.739-.515-1.077.217-1.657a7.3,7.3,0,0,0,2.769-7.892,7.911,7.911,0,0,0-5.971-6.29,8.637,8.637,0,0,0-4.528.209c-3.684,1-7.363,2-11.049,2.98a2.261,2.261,0,0,1-1.51.052c-2.014-.764-3.268.137-3.194,2.339a32.787,32.787,0,0,1-1.884,12.668,27.374,27.374,0,0,1-2.055,4.4,46.29,46.29,0,0,0-6.079,28.771c.446,4.517.779,9.045,1.151,13.569a18.125,18.125,0,0,1,.041,1.862,4.489,4.489,0,0,1-5.433,4.446c-.6-.1-.734-.566-.991-.927-2.33-3.272-4.824-6.414-7.432-9.467a14.116,14.116,0,0,0-3.062-2.746c.291-2.254.657-4.5.851-6.765a48.11,48.11,0,0,0,.32-6.841,43.72,43.72,0,0,0-5.6-19.84,31.868,31.868,0,0,1-4.035-10.029,11.872,11.872,0,0,1-.1-1.417,6.789,6.789,0,0,0,5.972,1.633,7.228,7.228,0,0,0,5.4-6.172,7.6,7.6,0,0,0-3.413-7.518c-2.824-1.689-5.464-1.164-7.941.8m24.154,2.405c-.021-1.04-.029-2.082-.064-3.121a2.152,2.152,0,1,0-4.292-.017c-.034,1.323.027,2.65.046,3.975-3.655,1.534-4.424,5.448-1.606,8.162a8.155,8.155,0,0,0,9.2.923c1.79-1.063,3-2.537,2.92-4.723-.086-2.205-1.539-3.524-3.323-4.476a5.458,5.458,0,0,0-2.877-.724" transform="translate(12319.556 -3264.574)" fill="#fdd9de"/>
      <path id="Trazado_278549" data-name="Trazado 278549" d="M195,11036.871a60.053,60.053,0,0,0-7.129,12.178,32.569,32.569,0,0,0-2.6,8.293,22.093,22.093,0,0,0,4.109,17.023,24.333,24.333,0,0,0,9.689,7.555c-6.689,5-17.676,4.47-24.584-1.181-6.828-5.586-9.176-14.205-6.234-23.049,2.338-7.027,6.329-13.136,10.766-18.973,1.675-2.2,3.461-4.33,5.269-6.431,2.078-2.413,4.816-2.43,6.9-.058,1.322,1.5,2.547,3.092,3.814,4.642" transform="translate(12320.37 -3268.642)" fill="#e85a6f"/>
      <path id="Trazado_278550" data-name="Trazado 278550" d="M141.924,10995.1c.153,4.181-2.522,7.179-6.143,7.345a6.586,6.586,0,0,1-6.728-6.107,1.829,1.829,0,0,1,.421-1.31c2.577-3.615,5.17-7.219,7.7-10.865.513-.739.894-.812,1.57-.259a6.545,6.545,0,0,1,2.49,4.368c.294,2.416.49,4.846.685,6.828" transform="translate(12322.179 -3266.408)" fill="#fbcb6f"/>
      <path id="Trazado_278551" data-name="Trazado 278551" d="M235.274,10994.948c.191-1.946.379-4.329.674-6.7a6.483,6.483,0,0,1,2.492-4.364c.594-.478.974-.533,1.474.183,2.571,3.68,5.188,7.327,7.81,10.97a1.977,1.977,0,0,1,.351,1.6,6.565,6.565,0,0,1-6.979,5.79c-3.6-.391-6.026-3.309-5.824-7.479" transform="translate(12317.12 -3266.407)" fill="#f8e09e"/>
      <path id="Trazado_278552" data-name="Trazado 278552" d="M218.767,10993.885c.748-1.408,1.414-2.652,2.07-3.9.221-.42.592-.4.979-.4,2.669,0,5.338.027,8.007-.013.791-.012.9.226.815.98-.39,3.331-.36,3.335-3.73,3.335Z" transform="translate(12317.905 -3266.695)" fill="#fc8c9c"/>
      <path id="Trazado_278553" data-name="Trazado 278553" d="M158.479,10993.884c-3.725,0-7.246-.017-10.766.017-.654,0-.814-.293-.863-.832-.085-.948-.158-1.9-.3-2.842-.081-.55.157-.646.614-.645,2.813.007,5.626.011,8.438,0a.878.878,0,0,1,.871.573c.611,1.177,1.251,2.339,2,3.733" transform="translate(12321.346 -3266.695)" fill="#fc8c9c"/>
      <path id="Trazado_278554" data-name="Trazado 278554" d="M216.358,10972.938c0,5.72-3.585,10.357-8.006,10.357s-8.007-4.638-8.007-10.357,3.585-10.357,8.007-10.357,8.006,4.638,8.006,10.357" transform="translate(12318.783 -3265.409)" fill="#fdd9de"/>
      <path id="Trazado_278555" data-name="Trazado 278555" d="M197.454,10972.937c0,5.72-3.585,10.357-8.006,10.357s-8.007-4.638-8.007-10.357,3.585-10.356,8.007-10.356,8.006,4.637,8.006,10.356" transform="translate(12319.683 -3265.41)" fill="#fdd9de"/>
      <path id="Trazado_278556" data-name="Trazado 278556" d="M176.682,10972.937c0,5.72-3.585,10.357-8.006,10.357s-8.007-4.638-8.007-10.357,3.585-10.356,8.007-10.356,8.006,4.637,8.006,10.356" transform="translate(12320.673 -3265.41)" fill="#fdb4bf"/>
    </g>
  </g>
</svg>
