<svg xmlns="http://www.w3.org/2000/svg" xmlns:xlink="http://www.w3.org/1999/xlink" width="397.263" height="501.686" viewBox="0 0 397.263 501.686">
  <defs>
    <clipPath id="clip-path">
      <rect id="Rectángulo_325438" data-name="Rectángulo 325438" width="36.528" height="39.257" fill="none"/>
    </clipPath>
    <clipPath id="clip-path-2">
      <rect id="Rectángulo_325439" data-name="Rectángulo 325439" width="28.027" height="51.108" fill="none"/>
    </clipPath>
    <clipPath id="clip-path-3">
      <rect id="Rectángulo_325440" data-name="Rectángulo 325440" width="30.846" height="36.653" fill="none"/>
    </clipPath>
    <clipPath id="clip-path-4">
      <rect id="Rectángulo_325441" data-name="Rectángulo 325441" width="11.346" height="89.385" fill="none"/>
    </clipPath>
    <clipPath id="clip-path-5">
      <rect id="Rectángulo_325442" data-name="Rectángulo 325442" width="42.722" height="35.146" fill="none"/>
    </clipPath>
    <clipPath id="clip-path-6">
      <rect id="Rectángulo_325443" data-name="Rectángulo 325443" width="46.086" height="33.884" fill="none"/>
    </clipPath>
    <clipPath id="clip-path-7">
      <rect id="Rectángulo_325444" data-name="Rectángulo 325444" width="32.381" height="26.899" fill="none"/>
    </clipPath>
    <clipPath id="clip-path-8">
      <rect id="Rectángulo_325445" data-name="Rectángulo 325445" width="18.11" height="16.691" fill="none"/>
    </clipPath>
    <clipPath id="clip-path-9">
      <rect id="Rectángulo_325446" data-name="Rectángulo 325446" width="40.021" height="27.547" fill="none"/>
    </clipPath>
    <clipPath id="clip-path-10">
      <rect id="Rectángulo_325447" data-name="Rectángulo 325447" width="31.329" height="9.58" fill="none"/>
    </clipPath>
    <clipPath id="clip-path-11">
      <rect id="Rectángulo_325448" data-name="Rectángulo 325448" width="49.055" height="25.347" fill="none"/>
    </clipPath>
    <clipPath id="clip-path-12">
      <rect id="Rectángulo_325449" data-name="Rectángulo 325449" width="41.114" height="24.706" fill="none"/>
    </clipPath>
    <clipPath id="clip-path-13">
      <rect id="Rectángulo_325450" data-name="Rectángulo 325450" width="47.559" height="28.148" fill="none"/>
    </clipPath>
    <clipPath id="clip-path-14">
      <rect id="Rectángulo_325451" data-name="Rectángulo 325451" width="33.949" height="11.124" fill="none"/>
    </clipPath>
    <clipPath id="clip-path-15">
      <rect id="Rectángulo_325453" data-name="Rectángulo 325453" width="154.48" height="95.68" fill="none"/>
    </clipPath>
    <clipPath id="clip-path-16">
      <rect id="Rectángulo_325454" data-name="Rectángulo 325454" width="154.485" height="97.266" fill="none"/>
    </clipPath>
    <clipPath id="clip-path-17">
      <rect id="Rectángulo_325455" data-name="Rectángulo 325455" width="154.518" height="89.21" fill="none"/>
    </clipPath>
    <clipPath id="clip-path-18">
      <rect id="Rectángulo_325457" data-name="Rectángulo 325457" width="140.685" height="81.156" fill="none"/>
    </clipPath>
    <clipPath id="clip-path-19">
      <rect id="Rectángulo_325459" data-name="Rectángulo 325459" width="7" height="15.448" fill="none"/>
    </clipPath>
    <clipPath id="clip-path-20">
      <rect id="Rectángulo_325460" data-name="Rectángulo 325460" width="23.344" height="57.303" fill="none"/>
    </clipPath>
    <clipPath id="clip-path-21">
      <rect id="Rectángulo_325461" data-name="Rectángulo 325461" width="23.686" height="60.954" fill="none"/>
    </clipPath>
    <clipPath id="clip-path-22">
      <rect id="Rectángulo_325462" data-name="Rectángulo 325462" width="10.95" height="13.215" fill="none"/>
    </clipPath>
  </defs>
  <g id="Grupo_262369" data-name="Grupo 262369" transform="translate(-1040.722 -13109.199)">
    <path id="Trazado_279195" data-name="Trazado 279195" d="M1107.438,601.331c24.3-14.031,24.3-36.781,0-50.812s-63.706-14.031-88.009,0-24.3,36.781,0,50.812,63.706,14.031,88.009,0" transform="translate(297.29 12987.758)" fill="#e1e1e1"/>
    <path id="Trazado_279196" data-name="Trazado 279196" d="M999.531,529.836c37.461,21.628,37.46,56.693,0,78.321s-98.2,21.627-135.656,0-37.461-56.693,0-78.321,98.2-21.628,135.656,0" transform="translate(289.446 12986.507)" fill="#e1e1e1"/>
    <path id="Trazado_279197" data-name="Trazado 279197" d="M829.4,524.317c11.119,6.493,11.119,17.018,0,23.511s-29.15,6.492-40.269,0-11.12-17.018,0-23.511,29.148-6.492,40.269,0" transform="translate(286.839 12986.784)" fill="#e1e1e1"/>
    <path id="Trazado_279198" data-name="Trazado 279198" d="M790.346,537.076c-10.162-10.487-16.131-36.984-6.22-45.3h50.435c9.909,8.315,3.947,34.8-6.21,45.291-.087.1-.187.193-.278.289-.117.116-.234.234-.351.346-.287.282-.592.557-.919.826-.08.068-.161.128-.243.194-.249.2-.494.395-.767.584a13.986,13.986,0,0,1-1.315.849c-8.359,4.881-21.912,4.881-30.271,0h0a14.021,14.021,0,0,1-1.323-.856c-.253-.177-.482-.361-.714-.546-.1-.08-.2-.155-.3-.238-.316-.261-.61-.526-.887-.8-.135-.129-.269-.265-.4-.4-.076-.082-.161-.16-.235-.243" transform="translate(286.757 12985.472)" fill="#2b454e"/>
    <path id="Trazado_279199" data-name="Trazado 279199" d="M830.144,488.805c11.508,6.719,11.507,17.612,0,24.33s-30.166,6.719-41.672,0-11.508-17.611,0-24.33,30.166-6.718,41.672,0" transform="translate(286.794 12985.092)" fill="#375a64"/>
    <path id="Trazado_279200" data-name="Trazado 279200" d="M824.255,491.829c8.451,4.934,8.451,12.934,0,17.868s-22.153,4.933-30.6,0-8.451-12.933,0-17.868,22.152-4.933,30.6,0" transform="translate(287.149 12985.299)" fill="#1a2e35"/>
    <path id="Trazado_279201" data-name="Trazado 279201" d="M793.6,499.926c8.451-4.934,22.152-4.934,30.6,0a14.121,14.121,0,0,1,5.062,4.695,14.1,14.1,0,0,1-5.062,4.693c-8.451,4.934-22.152,4.934-30.6,0a14.082,14.082,0,0,1-5.062-4.693,14.092,14.092,0,0,1,5.062-4.693" transform="translate(287.206 12985.683)" fill="#fff"/>
    <path id="Trazado_279202" data-name="Trazado 279202" d="M802.762,455.091c-3.4,4.3-13.631,6.2-18.728-4.34-4.781-9.883-9.839-19.21-11.358-22.856s2.086-5.161,2.086-5.161-.132-5.618,9.643-2.55c9.675,3.037,16.905,8.316,21.751,17.31,4.775,8.866,2.86,15.863-3.394,17.6" transform="translate(286.437 12982.033)" fill="#d268cc"/>
    <g id="Grupo_260516" data-name="Grupo 260516" transform="translate(1058.74 13401.301)" opacity="0.5">
      <g id="Grupo_260515" data-name="Grupo 260515" transform="translate(0 0)">
        <g id="Grupo_260514" data-name="Grupo 260514" clip-path="url(#clip-path)">
          <path id="Trazado_279203" data-name="Trazado 279203" d="M802.762,455.091c-3.4,4.3-13.631,6.2-18.728-4.34-4.781-9.883-9.839-19.21-11.358-22.856s2.086-5.161,2.086-5.161-.132-5.618,9.643-2.55c9.675,3.037,16.905,8.316,21.751,17.31,4.775,8.866,2.86,15.863-3.394,17.6" transform="translate(-772.303 -419.267)" fill="#fff"/>
        </g>
      </g>
    </g>
    <path id="Trazado_279204" data-name="Trazado 279204" d="M807.583,468.914a51.156,51.156,0,0,0-1.254-5.6,78.916,78.916,0,0,0-3.979-10.689,80.6,80.6,0,0,0-12.541-19.452,69.684,69.684,0,0,0-9.386-9.141c-.1-.082-.163.14-.092.205a84.19,84.19,0,0,1,24.4,38.263c.623,2.029,1.225,4.069,1.764,6.121.547,2.085.929,4.206,1.448,6.3.051.209.39.313.384.023a39.886,39.886,0,0,0-.744-6.027" transform="translate(286.816 12982.259)" fill="#d268cc"/>
    <g id="Grupo_260519" data-name="Grupo 260519" transform="translate(1067.117 13406.271)" opacity="0.3">
      <g id="Grupo_260518" data-name="Grupo 260518" transform="translate(0 0)">
        <g id="Grupo_260517" data-name="Grupo 260517" clip-path="url(#clip-path-2)">
          <path id="Trazado_279205" data-name="Trazado 279205" d="M807.583,468.914a51.156,51.156,0,0,0-1.254-5.6,78.916,78.916,0,0,0-3.979-10.689,80.6,80.6,0,0,0-12.541-19.452,69.684,69.684,0,0,0-9.386-9.141c-.1-.082-.163.14-.092.205a84.19,84.19,0,0,1,24.4,38.263c.623,2.029,1.225,4.069,1.764,6.121.547,2.085.929,4.206,1.448,6.3.051.209.39.313.384.023a39.886,39.886,0,0,0-.744-6.027" transform="translate(-780.301 -424.012)"/>
        </g>
      </g>
    </g>
    <path id="Trazado_279206" data-name="Trazado 279206" d="M812.588,447.894c-8.875,2.744-15.468-4.182-13.186-15.046s13.693-22.923,18-19.683c2.691-2.691,8.621-1.725,11.411,7.1s.255,31.481-16.229,27.632" transform="translate(287.7 12981.682)" fill="#d268cc"/>
    <g id="Grupo_260522" data-name="Grupo 260522" transform="translate(1086.647 13393.523)" opacity="0.3">
      <g id="Grupo_260521" data-name="Grupo 260521" transform="translate(0 0)">
        <g id="Grupo_260520" data-name="Grupo 260520" clip-path="url(#clip-path-3)">
          <path id="Trazado_279207" data-name="Trazado 279207" d="M812.588,447.894c-8.875,2.744-15.468-4.182-13.186-15.046s13.693-22.923,18-19.683c2.691-2.691,8.621-1.725,11.411,7.1s.255,31.481-16.229,27.632" transform="translate(-798.947 -411.842)" fill="#fff"/>
        </g>
      </g>
    </g>
    <path id="Trazado_279208" data-name="Trazado 279208" d="M817.445,419.419a119.066,119.066,0,0,0-5.9,19.518,190.739,190.739,0,0,0-3.426,20.438c-1.591,13.274-1.863,12.538-1.779,25.893q.036,5.543.147,11.086c.073,3.8.011,7.65.338,11.438.126,1.453,2.19,1.066,2.217-.265.131-6.653-.235-13.335-.3-19.99-.065-6.579-.043,1,.124-5.577a277.568,277.568,0,0,1,3.594-40c.634-3.682,1.334-7.358,2.193-11,.9-3.827,2.011-7.6,3.017-11.4.039-.15-.136-.349-.221-.145" transform="translate(288.05 12982.037)" fill="#d268cc"/>
    <g id="Grupo_260525" data-name="Grupo 260525" transform="translate(1094.376 13401.368)" opacity="0.3">
      <g id="Grupo_260524" data-name="Grupo 260524" transform="translate(0 0)">
        <g id="Grupo_260523" data-name="Grupo 260523" clip-path="url(#clip-path-4)">
          <path id="Trazado_279209" data-name="Trazado 279209" d="M817.445,419.419a119.066,119.066,0,0,0-5.9,19.518,190.739,190.739,0,0,0-3.426,20.438c-1.591,13.274-1.863,12.538-1.779,25.893q.036,5.543.147,11.086c.073,3.8.011,7.65.338,11.438.126,1.453,2.19,1.066,2.217-.265.131-6.653-.235-13.335-.3-19.99-.065-6.579-.043,1,.124-5.577a277.568,277.568,0,0,1,3.594-40c.634-3.682,1.334-7.358,2.193-11,.9-3.827,2.011-7.6,3.017-11.4.039-.15-.136-.349-.221-.145" transform="translate(-806.326 -419.331)"/>
        </g>
      </g>
    </g>
    <path id="Trazado_279210" data-name="Trazado 279210" d="M794.128,475.543c-1.139,5.746-9.009,9.889-18.1,6.125s-27.026-27.4-18.837-30c-.446-4.292,24.327-7.815,36.58,7.288,8.908,10.98.359,16.59.359,16.59" transform="translate(285.621 12983.395)" fill="#d268cc"/>
    <g id="Grupo_260528" data-name="Grupo 260528" transform="translate(1040.722 13431.36)" opacity="0.7">
      <g id="Grupo_260527" data-name="Grupo 260527" transform="translate(0 0)">
        <g id="Grupo_260526" data-name="Grupo 260526" clip-path="url(#clip-path-5)">
          <path id="Trazado_279211" data-name="Trazado 279211" d="M794.128,475.543c-1.139,5.746-9.009,9.889-18.1,6.125s-27.026-27.4-18.837-30c-.446-4.292,24.327-7.815,36.58,7.288,8.908,10.98.359,16.59.359,16.59" transform="translate(-755.101 -447.966)" fill="#fff"/>
        </g>
      </g>
    </g>
    <path id="Trazado_279212" data-name="Trazado 279212" d="M806.714,483.757a42.034,42.034,0,0,0-3.693-4.063q-3.987-3.945-8.349-7.467a112.19,112.19,0,0,0-19.183-12.334,99.724,99.724,0,0,0-11.581-5.266c-.11-.04-.068.172,0,.2,3.311,1.564,6.625,3.083,9.825,4.868,3.312,1.849,6.516,3.908,9.627,6.078a139.832,139.832,0,0,1,16.935,13.859c1.5,1.436,2.919,2.947,4.43,4.369,1.567,1.475,3.254,2.835,4.757,4.379.218.225.609.125.372-.2-1.062-1.463-2.028-2.992-3.138-4.425" transform="translate(286.036 12983.71)" fill="#d268cc"/>
    <g id="Grupo_260531" data-name="Grupo 260531" transform="translate(1049.874 13438.332)" opacity="0.3">
      <g id="Grupo_260530" data-name="Grupo 260530" transform="translate(0 0)">
        <g id="Grupo_260529" data-name="Grupo 260529" clip-path="url(#clip-path-6)">
          <path id="Trazado_279213" data-name="Trazado 279213" d="M806.714,483.757a42.034,42.034,0,0,0-3.693-4.063q-3.987-3.945-8.349-7.467a112.19,112.19,0,0,0-19.183-12.334,99.724,99.724,0,0,0-11.581-5.266c-.11-.04-.068.172,0,.2,3.311,1.564,6.625,3.083,9.825,4.868,3.312,1.849,6.516,3.908,9.627,6.078a139.832,139.832,0,0,1,16.935,13.859c1.5,1.436,2.919,2.947,4.43,4.369,1.567,1.475,3.254,2.835,4.757,4.379.218.225.609.125.372-.2-1.062-1.463-2.028-2.992-3.138-4.425" transform="translate(-763.839 -454.622)"/>
        </g>
      </g>
    </g>
    <path id="Trazado_279214" data-name="Trazado 279214" d="M841.813,467.776c-.15-3.238-16.454-3.064-24.095,3.076s-8.546,12.172-3.785,14.268c-.834,6.832,9.951,11.331,19.605,2.789s11.76-19.461,8.275-20.133" transform="translate(288.272 12984.234)" fill="#d268cc"/>
    <g id="Grupo_260534" data-name="Grupo 260534" transform="translate(1099.28 13449.925)" opacity="0.3">
      <g id="Grupo_260533" data-name="Grupo 260533" transform="translate(0 0)">
        <g id="Grupo_260532" data-name="Grupo 260532" clip-path="url(#clip-path-7)">
          <path id="Trazado_279215" data-name="Trazado 279215" d="M841.813,467.776c-.15-3.238-16.454-3.064-24.095,3.076s-8.546,12.172-3.785,14.268c-.834,6.832,9.951,11.331,19.605,2.789s11.76-19.461,8.275-20.133" transform="translate(-811.008 -465.69)" fill="#fff"/>
        </g>
      </g>
    </g>
    <path id="Trazado_279216" data-name="Trazado 279216" d="M825.9,475.845A40.077,40.077,0,0,0,807.9,491.671c-.245.4.372,1.163.637.732a46.676,46.676,0,0,1,17.377-16.452c.044-.023.063-.138-.007-.106" transform="translate(288.122 12984.716)" fill="#d268cc"/>
    <g id="Grupo_260537" data-name="Grupo 260537" transform="translate(1095.961 13460.555)" opacity="0.3">
      <g id="Grupo_260536" data-name="Grupo 260536" transform="translate(0 0)">
        <g id="Grupo_260535" data-name="Grupo 260535" clip-path="url(#clip-path-8)">
          <path id="Trazado_279217" data-name="Trazado 279217" d="M825.9,475.845A40.077,40.077,0,0,0,807.9,491.671c-.245.4.372,1.163.637.732a46.676,46.676,0,0,1,17.377-16.452c.044-.023.063-.138-.007-.106" transform="translate(-807.839 -475.839)"/>
        </g>
      </g>
    </g>
    <path id="Trazado_279218" data-name="Trazado 279218" d="M814.829,494.739c-5.521,5.423.582,12.143,9.534,15.467s18.857,1.079,23.177-1.077,5.207-3.235,5.207-3.235-2.111-7.118-4.569-10.959A22.955,22.955,0,0,0,825.6,484.561c-11.465,1.466-12.4,6.232-10.767,10.179" transform="translate(288.353 12985.119)" fill="#d268cc"/>
    <g id="Grupo_260540" data-name="Grupo 260540" transform="translate(1101.078 13469.468)" opacity="0.5">
      <g id="Grupo_260539" data-name="Grupo 260539" transform="translate(0 0)">
        <g id="Grupo_260538" data-name="Grupo 260538" clip-path="url(#clip-path-9)">
          <path id="Trazado_279219" data-name="Trazado 279219" d="M814.829,494.739c-5.521,5.423.582,12.143,9.534,15.467s18.857,1.079,23.177-1.077,5.207-3.235,5.207-3.235-2.111-7.118-4.569-10.959A22.955,22.955,0,0,0,825.6,484.561c-11.465,1.466-12.4,6.232-10.767,10.179" transform="translate(-812.725 -484.349)" fill="#fff"/>
        </g>
      </g>
    </g>
    <path id="Trazado_279220" data-name="Trazado 279220" d="M838.273,498.417c-4.491-2.163-9.109-4.249-14.033-5.2-4.8-.924-10.711-.965-14.6,2.454-1.506,1.325-3.511,4.2-2.284,6.236.121.2.727.579.862.175a19.576,19.576,0,0,1,1.236-3.772,7.68,7.68,0,0,1,3-2.821,17.814,17.814,0,0,1,10.168-1.726c5.466.524,10.607,2.717,15.638,4.776.054.023.053-.1.008-.127" transform="translate(288.081 12985.515)" fill="#d268cc"/>
    <g id="Grupo_260543" data-name="Grupo 260543" transform="translate(1095.058 13478.201)" opacity="0.3">
      <g id="Grupo_260542" data-name="Grupo 260542" transform="translate(0 0)">
        <g id="Grupo_260541" data-name="Grupo 260541" clip-path="url(#clip-path-10)">
          <path id="Trazado_279221" data-name="Trazado 279221" d="M838.273,498.417c-4.491-2.163-9.109-4.249-14.033-5.2-4.8-.924-10.711-.965-14.6,2.454-1.506,1.325-3.511,4.2-2.284,6.236.121.2.727.579.862.175a19.576,19.576,0,0,1,1.236-3.772,7.68,7.68,0,0,1,3-2.821,17.814,17.814,0,0,1,10.168-1.726c5.466.524,10.607,2.717,15.638,4.776.054.023.053-.1.008-.127" transform="translate(-806.977 -492.686)"/>
        </g>
      </g>
    </g>
    <path id="Trazado_279222" data-name="Trazado 279222" d="M816.39,462.453c-1.38,4.851,4.81,9.379,12.511,6.785s15.7-5,22.265-5.082,10.727-4.4,9.374-7.315-2.943-9.827-19.67-11.8-24.272,3.929-27.764,8.548.5,9.677,3.284,8.866" transform="translate(288.307 12983.237)" fill="#d268cc"/>
    <g id="Grupo_260546" data-name="Grupo 260546" transform="translate(1100.049 13427.885)" opacity="0.7">
      <g id="Grupo_260545" data-name="Grupo 260545" transform="translate(0 0)">
        <g id="Grupo_260544" data-name="Grupo 260544" clip-path="url(#clip-path-11)">
          <path id="Trazado_279223" data-name="Trazado 279223" d="M816.39,462.453c-1.38,4.851,4.81,9.379,12.511,6.785s15.7-5,22.265-5.082,10.727-4.4,9.374-7.315-2.943-9.827-19.67-11.8-24.272,3.929-27.764,8.548.5,9.677,3.284,8.866" transform="translate(-811.742 -444.647)" fill="#fff"/>
        </g>
      </g>
    </g>
    <path id="Trazado_279224" data-name="Trazado 279224" d="M847.7,451.936a20.6,20.6,0,0,0-5.4-.493,33.974,33.974,0,0,0-5.216.427,40.716,40.716,0,0,0-9.828,3.056c-5.879,2.608-11.713,6.011-15.534,11.308a37.548,37.548,0,0,0-4.922,9.215c-.222.624.988.977,1.262.418a68.537,68.537,0,0,1,4.18-8.02,24.848,24.848,0,0,1,6.408-6.674,50.866,50.866,0,0,1,17.743-8.12,34.575,34.575,0,0,1,5.661-.834,52.289,52.289,0,0,1,5.686.213c.252.014.134-.449-.044-.5" transform="translate(288.072 12983.559)" fill="#d268cc"/>
    <g id="Grupo_260549" data-name="Grupo 260549" transform="translate(1094.851 13434.999)" opacity="0.3">
      <g id="Grupo_260548" data-name="Grupo 260548" transform="translate(0 0)">
        <g id="Grupo_260547" data-name="Grupo 260547" clip-path="url(#clip-path-12)">
          <path id="Trazado_279225" data-name="Trazado 279225" d="M847.7,451.936a20.6,20.6,0,0,0-5.4-.493,33.974,33.974,0,0,0-5.216.427,40.716,40.716,0,0,0-9.828,3.056c-5.879,2.608-11.713,6.011-15.534,11.308a37.548,37.548,0,0,0-4.922,9.215c-.222.624.988.977,1.262.418a68.537,68.537,0,0,1,4.18-8.02,24.848,24.848,0,0,1,6.408-6.674,50.866,50.866,0,0,1,17.743-8.12,34.575,34.575,0,0,1,5.661-.834,52.289,52.289,0,0,1,5.686.213c.252.014.134-.449-.044-.5" transform="translate(-806.78 -451.44)"/>
        </g>
      </g>
    </g>
    <path id="Trazado_279226" data-name="Trazado 279226" d="M804.949,488.134c-1.306-4.989-7.628-7.788-15.893-8.405a21.613,21.613,0,0,0-20.558,10.55c-4.323,7.393-6.118,13.277-3.491,14.244s13.731,2.5,20.9,3.14,16.12-.653,21.965-6.1,3.918-12.281-2.923-13.428" transform="translate(286.033 12984.897)" fill="#d268cc"/>
    <g id="Grupo_260552" data-name="Grupo 260552" transform="translate(1049.814 13464.562)" opacity="0.3">
      <g id="Grupo_260551" data-name="Grupo 260551" transform="translate(0 0)">
        <g id="Grupo_260550" data-name="Grupo 260550" clip-path="url(#clip-path-13)">
          <path id="Trazado_279227" data-name="Trazado 279227" d="M804.949,488.134c-1.306-4.989-7.628-7.788-15.893-8.405a21.613,21.613,0,0,0-20.558,10.55c-4.323,7.393-6.118,13.277-3.491,14.244s13.731,2.5,20.9,3.14,16.12-.653,21.965-6.1,3.918-12.281-2.923-13.428" transform="translate(-763.781 -479.664)" fill="#fff"/>
        </g>
      </g>
    </g>
    <path id="Trazado_279228" data-name="Trazado 279228" d="M804.9,487.153a21.77,21.77,0,0,0-8.925-.416,39.614,39.614,0,0,0-8.425,1.941,54.15,54.15,0,0,0-8.345,3.753q-2.1,1.15-4.121,2.437a31.009,31.009,0,0,0-3.7,2.554c-.043.038-.036.212.047.175,1.357-.607,2.628-1.465,3.923-2.194,1.4-.788,2.807-1.557,4.238-2.282a60.191,60.191,0,0,1,8.268-3.508,39.424,39.424,0,0,1,8.768-1.877,53.362,53.362,0,0,1,8.364.214c.577.038.25-.685-.094-.8" transform="translate(286.392 12985.22)" fill="#d268cc"/>
    <g id="Grupo_260555" data-name="Grupo 260555" transform="translate(1057.751 13471.697)" opacity="0.3">
      <g id="Grupo_260554" data-name="Grupo 260554" transform="translate(0 0)">
        <g id="Grupo_260553" data-name="Grupo 260553" clip-path="url(#clip-path-14)">
          <path id="Trazado_279229" data-name="Trazado 279229" d="M804.9,487.153a21.77,21.77,0,0,0-8.925-.416,39.614,39.614,0,0,0-8.425,1.941,54.15,54.15,0,0,0-8.345,3.753q-2.1,1.15-4.121,2.437a31.009,31.009,0,0,0-3.7,2.554c-.043.038-.036.212.047.175,1.357-.607,2.628-1.465,3.923-2.194,1.4-.788,2.807-1.557,4.238-2.282a60.191,60.191,0,0,1,8.268-3.508,39.424,39.424,0,0,1,8.768-1.877,53.362,53.362,0,0,1,8.364.214c.577.038.25-.685-.094-.8" transform="translate(-771.359 -486.477)"/>
        </g>
      </g>
    </g>
    <path id="Trazado_279230" data-name="Trazado 279230" d="M1087.046,555.741c-13.735-7.93-36-7.93-49.737,0-6.867,3.965-10.293,9.162-10.292,14.358,0,.537-.01,3.761,0,4.381.107,5.114,3.532,10.208,10.29,14.11,13.735,7.93,36,7.93,49.737,0,6.792-3.922,10.218-9.047,10.291-14.186.008-.594.005-3.822,0-4.387-.035-5.169-3.461-10.332-10.292-14.276" transform="translate(298.514 12988.223)" fill="#2b454e"/>
    <path id="Trazado_279231" data-name="Trazado 279231" d="M1037.308,584.457c-13.735-7.93-13.735-20.787,0-28.716s36-7.93,49.737,0,13.735,20.786,0,28.716-36,7.93-49.737,0" transform="translate(298.514 12988.223)" fill="#375a64"/>
    <path id="Trazado_279232" data-name="Trazado 279232" d="M1064.89,576.434h.017V356.387h-8.268V576.434h.035a1.93,1.93,0,0,0,1.179,1.9,6.479,6.479,0,0,0,5.858,0,1.93,1.93,0,0,0,1.179-1.9" transform="translate(299.918 12979.053)" fill="#2b454e"/>
    <path id="Trazado_279233" data-name="Trazado 279233" d="M1009.485,327.173c30.171-17.42,79.088-17.42,109.26,0,15.086,8.709,22.616,24.378,22.611,35.793,0,2.343,0-.128,0,2.216.005,11.416-7.525,22.832-22.612,31.542-30.172,17.419-79.088,17.419-109.26,0-15.086-8.71-22.616-20.126-22.611-31.542,0-2.343,0,.127,0-2.217-.005-11.415,7.526-27.082,22.612-35.792" transform="translate(296.611 12977.048)" fill="#d268cc"/>
    <g id="Grupo_260560" data-name="Grupo 260560" transform="translate(1283.484 13291.156)" opacity="0.2">
      <g id="Grupo_260559" data-name="Grupo 260559" transform="translate(0 0)">
        <g id="Grupo_260558" data-name="Grupo 260558" clip-path="url(#clip-path-15)">
          <path id="Trazado_279234" data-name="Trazado 279234" d="M1009.485,327.173c30.171-17.42,79.088-17.42,109.26,0,15.086,8.709,22.616,24.378,22.611,35.793,0,2.343,0-.128,0,2.216.005,11.416-7.525,22.832-22.612,31.542-30.172,17.419-79.088,17.419-109.26,0-15.086-8.71-22.616-20.126-22.611-31.542,0-2.343,0,.127,0-2.217-.005-11.415,7.526-27.082,22.612-35.792" transform="translate(-986.873 -314.108)"/>
        </g>
      </g>
    </g>
    <path id="Trazado_279235" data-name="Trazado 279235" d="M1009.42,321.645c30.172-17.42,79.088-17.42,109.26,0,15.086,8.71,22.616,20.125,22.611,31.541,0,2.344,0,1.459,0,3.8.005,11.416-7.525,27.083-22.612,35.793-30.171,17.42-79.088,17.42-109.26,0-15.086-8.71-22.616-25.964-22.611-37.38,0-2.344,0,.128,0-2.216-.005-11.416,7.526-22.831,22.612-31.541" transform="translate(296.607 12976.785)" fill="#d268cc"/>
    <g id="Grupo_260563" data-name="Grupo 260563" transform="translate(1283.416 13285.366)" opacity="0.4">
      <g id="Grupo_260562" data-name="Grupo 260562" transform="translate(0 0)">
        <g id="Grupo_260561" data-name="Grupo 260561" clip-path="url(#clip-path-16)">
          <path id="Trazado_279236" data-name="Trazado 279236" d="M1009.42,321.645c30.172-17.42,79.088-17.42,109.26,0,15.086,8.71,22.616,20.125,22.611,31.541,0,2.344,0,1.459,0,3.8.005,11.416-7.525,27.083-22.612,35.793-30.171,17.42-79.088,17.42-109.26,0-15.086-8.71-22.616-25.964-22.611-37.38,0-2.344,0,.128,0-2.216-.005-11.416,7.526-22.831,22.612-31.541" transform="translate(-986.808 -308.581)" fill="#fff"/>
        </g>
      </g>
    </g>
    <path id="Trazado_279237" data-name="Trazado 279237" d="M1009.42,321.645c30.172-17.42,79.088-17.42,109.26,0,15.086,8.71,22.616,20.125,22.611,31.541,0,2.344,0,1.459,0,3.8.005,11.416-7.525,27.083-22.612,35.793-30.171,17.42-79.088,17.42-109.26,0-15.086-8.71-22.616-25.964-22.611-37.38,0-2.344,0,.128,0-2.216-.005-11.416,7.526-22.831,22.612-31.541" transform="translate(296.607 12976.785)" fill="#632059"/>
    <path id="Trazado_279238" data-name="Trazado 279238" d="M1118.679,384.726c30.172-17.42,30.172-45.662,0-63.081s-79.088-17.42-109.259,0-30.172,45.661,0,63.081,79.087,17.42,109.259,0" transform="translate(296.607 12976.785)" fill="#d268cc"/>
    <g id="Grupo_260566" data-name="Grupo 260566" transform="translate(1283.467 13285.366)" opacity="0.85">
      <g id="Grupo_260565" data-name="Grupo 260565" transform="translate(0 0)">
        <g id="Grupo_260564" data-name="Grupo 260564" clip-path="url(#clip-path-17)">
          <path id="Trazado_279239" data-name="Trazado 279239" d="M1118.744,384.726c30.171-17.42,30.172-45.662,0-63.081s-79.088-17.42-109.259,0-30.172,45.661,0,63.081,79.087,17.42,109.259,0" transform="translate(-986.857 -308.581)" fill="#fff"/>
        </g>
      </g>
    </g>
    <g id="Grupo_260571" data-name="Grupo 260571" transform="translate(1282.73 13286.18)" opacity="0.2">
      <g id="Grupo_260570" data-name="Grupo 260570" transform="translate(0 0)">
        <g id="Grupo_260569" data-name="Grupo 260569" clip-path="url(#clip-path-18)">
          <path id="Trazado_279240" data-name="Trazado 279240" d="M1126.841,338.764l-50.269-29.02a2.887,2.887,0,0,0-2.889,0L986.475,360.1a.642.642,0,0,0,0,1.112l50.74,29.3Z" transform="translate(-986.154 -309.357)" fill="#d268cc"/>
        </g>
      </g>
    </g>
    <path id="Trazado_279241" data-name="Trazado 279241" d="M1121.237,334.023v1.111a4.577,4.577,0,0,1-2.283,3.957l-79.918,46.139a4.515,4.515,0,0,1-2.275.6,4.592,4.592,0,0,1-2.3-.609L990.9,360.157a4.585,4.585,0,0,1-2.277-3.957v-1.538h.009v.016a.574.574,0,0,0,.289.5l47.84,27.626Z" transform="translate(296.694 12977.992)" fill="#2b454e"/>
    <path id="Trazado_279242" data-name="Trazado 279242" d="M1121.244,335.274l-47.386-27.356a2.723,2.723,0,0,0-2.723,0l-82.208,47.469a.6.6,0,0,0,0,1.048l47.83,27.619Z" transform="translate(296.694 12976.736)" fill="#375a64"/>
    <path id="Trazado_279243" data-name="Trazado 279243" d="M1035.318,379.371l-25.559-14.741,74.734-43.147,25.691,14.664Z" transform="translate(297.696 12977.397)" fill="#2b454e"/>
    <path id="Trazado_279244" data-name="Trazado 279244" d="M1110.183,336.146l-.976.561-24.717-14.1-73.751,42.589-.976-.561,74.727-43.151Z" transform="translate(297.696 12977.397)" fill="#1a2e35"/>
    <path id="Trazado_279245" data-name="Trazado 279245" d="M1022.168,338.2l.471.271,12.527,7.231,22.279-12.862.463-.264-13-7.5Z" transform="translate(298.284 12977.567)" fill="#1a2e35"/>
    <path id="Trazado_279246" data-name="Trazado 279246" d="M1022.618,338.443l12.527,7.231,22.277-12.862-12.534-7.231Z" transform="translate(298.305 12977.592)" fill="#2b454e"/>
    <path id="Trazado_279247" data-name="Trazado 279247" d="M1034.578,382.8v3.04a4.555,4.555,0,0,0,2.28-.608l79.919-46.14a4.573,4.573,0,0,0,2.287-3.959v-1.112Z" transform="translate(298.872 12977.991)" fill="#1a2e35"/>
    <path id="Trazado_279248" data-name="Trazado 279248" d="M1035.807,386.067a5.41,5.41,0,0,0,4.664-.36l79.567-45.939a5.413,5.413,0,0,0,2.631-3.784l8.711-51.947a5.518,5.518,0,0,0,.072-.887,5.415,5.415,0,0,0-1.6-3.847l-82.686,47.746a4.017,4.017,0,0,0-1.944,2.8Z" transform="translate(298.931 12975.397)" fill="#2b454e"/>
    <path id="Trazado_279249" data-name="Trazado 279249" d="M1034.578,385.434l.545.311a6.3,6.3,0,0,0,.743.361l9.415-56.219a4.015,4.015,0,0,1,1.944-2.8l82.687-47.747a5.451,5.451,0,0,0-1.1-.84l-82.855,47.834a4.019,4.019,0,0,0-1.944,2.8Z" transform="translate(298.872 12975.359)" fill="#375a64"/>
    <path id="Trazado_279250" data-name="Trazado 279250" d="M1046.048,325.933l-1.282-.74a4,4,0,0,0-.758,1.728l-9.431,56.3.545.311a6.319,6.319,0,0,0,.744.36l9.415-56.218a3.977,3.977,0,0,1,.768-1.74" transform="translate(298.872 12977.573)" fill="#1a2e35"/>
    <path id="Trazado_279251" data-name="Trazado 279251" d="M1078.6,335.971c.583-3.477,4.174-8.1,8.019-10.318s6.492-1.2,5.908,2.277-4.174,8.1-8.02,10.318-6.491,1.2-5.907-2.277" transform="translate(300.956 12977.54)" fill="#d268cc"/>
    <path id="Trazado_279252" data-name="Trazado 279252" d="M946.992,546.32l5.41-2.664-5.41-1.364Z" transform="translate(294.72 12987.867)" fill="#1a2e35"/>
    <path id="Trazado_279253" data-name="Trazado 279253" d="M1001.8,555.658s-64.87-27.029-65.6-22.835a5.948,5.948,0,0,0,.074,2.514c-.057-.076-.125-.148-.177-.223l1.32,7.784s4.669,3.715,10.092,3.892v-4.027a33.169,33.169,0,0,1,5.729,2.819c4.172,2.57,6.9,7.133,11.375,12.414,3.258,3.849,8.979,5.582,17.433,6.609,9.1,1.105,17.068-.7,19.283-3.077,1.765-1.9.809-5.33.472-5.87" transform="translate(294.203 12987.396)" fill="#1a2e35"/>
    <path id="Trazado_279254" data-name="Trazado 279254" d="M1000,556.631c-.631-.616-2.968-3.02-6.12-5.63-2.757-2.282-5.974-5.17-9.422-7.489a35.851,35.851,0,0,1-4.677-3.6c-1.143-1.145-2.239-2.333-3.26-3.579a67.019,67.019,0,0,1-7.985-12.587c-1.052-2.106-2.958-6.743-2.579-15.405.574-13.12,1.6-17.865,1.513-26.387l-30.649,4.5c.973,4.71,2.108,15.234,2.668,20.594.852,8.154,2.107,8.91-1.062,17.105-.933,2.411-2.347,4.739-2.43,7.31-.135,4.179,3.33,7.735,7.172,9.72,3.183,1.644,6.828,2.317,9.919,4.074,3.253,1.849,5.8,4.674,8.145,7.468,2.212,2.637,4,5.769,7.076,7.6,3.406,2.031,6.63,2.631,10.552,3.336a58.618,58.618,0,0,0,14.106.471c6.679-.605,11.62-3.023,7.034-7.506" transform="translate(294.198 12985.006)" fill="#ffbea8"/>
    <path id="Trazado_279255" data-name="Trazado 279255" d="M996.258,550.3c-2.811-2.208-6.8-5.368-11.607-8.919a12.539,12.539,0,0,0-9.977,1.026c-9.49,4.991-11.005,11.883-11.005,11.883a13.555,13.555,0,0,0,7.919,6.466c11.132,4.486,30.89,2.709,31-2.2.071-3.128-2.919-5.575-6.334-8.257m-57.22-29.753s-.617,1.62-2.253,4.8-1.9,6.335.252,9.458c2.849,4.133,6.291,5.366,9.8,6.2,2.914-9.351-3.923-18.5-7.8-20.456" transform="translate(294.174 12986.836)" fill="#2b454e"/>
    <path id="Trazado_279256" data-name="Trazado 279256" d="M891.756,542.85c.039,3.185-.848,12.64-.577,19.765.246,6.472,1.536,16.584-.456,24.127-2.039,7.728-9.616,15.812-19.655,8.543-6.223-4.5-8.656-9.846-9.307-19.17-.451-6.48,2.71-15.377,5.43-23.271,3.178-9.218,4.42-14.156,4.42-14.156Z" transform="translate(290.676 12987.696)" fill="#1a2e35"/>
    <path id="Trazado_279257" data-name="Trazado 279257" d="M871.819,496.775c-1.07,15.072-.262,23.193-.364,32.856-.216,4.5-.487,10.793-1.714,15.522-1.591,6.138-3.446,14.665-4.573,18.641-1.574,5.557-2.75,9.056-.682,15.354a6.988,6.988,0,0,0,.691,1.426c2.97,5.213,10.732,9.244,13.26,8.664.679,1.03,2.447,1.673,4.389,1.423a6.557,6.557,0,0,0,.84-.163,6.774,6.774,0,0,0,.845-.281,7.837,7.837,0,0,0,4.287-4.67,12.393,12.393,0,0,0,.435-1.358c2-7.739,1.353-12.136,1.354-15.181,0-3.7.176-8.978.658-14.63s3.578-22.142,5.608-30.709c1.807-7.624,2.7-14.087,5.083-21.979Z" transform="translate(290.755 12985.708)" fill="#ffbea8"/>
    <path id="Trazado_279258" data-name="Trazado 279258" d="M863.5,567.728c6.246-2.276,24.773-1.968,27.462,5.7-.089,7.179-.723,11.714-6.059,17.87-7.091,8.18-15.9-.773-19.225-6.42s-3.109-13.3-2.178-17.155" transform="translate(290.732 12989.015)" fill="#2b454e"/>
    <path id="Trazado_279259" data-name="Trazado 279259" d="M899.738,293.63c-8.247,13.524-20.988,32.64-22.017,63.265-1.371,40.819-3.527,70.221-3.832,75.138s-2.307,12.925-5.619,37.1,1.7,70.906,1.7,70.906,2.831,5.5,12.487,6.58c8.907,1,13.09-3,13.09-3s14.106-64.717,17.9-79.233,16.763-78.008,16.763-78.008l4.739,39.095s-3.1,13.31-.979,34.641,9.166,62.487,9.166,62.487,4.042,4.089,13.517,3.731C965.328,526,969.7,521.4,969.7,521.4s8.3-81.214,8.984-105.313-.019-84.278-6.929-120.163Z" transform="translate(290.933 12976.077)" fill="#2b454e"/>
    <path id="Trazado_279260" data-name="Trazado 279260" d="M937.144,346.138l-7.76,38.575,4.737,39.095.166-37.113,7.7-36.751c6.105-1.236,21.808-11.407,23.15-21.206-8.483,12.718-27.993,17.4-27.993,17.4M891.759,491.1q-3.8,18.784-7.084,37.663,4.822-18.583,9.132-37.252c2.912-12.452,5.664-24.882,8.4-37.414,2.567-12.566,5.9-40.991,7.359-53.676,1.487-12.683,2.622-25.393,3.6-38.121-2.01,12.616-3.835,25.251-5.671,37.871-1.88,12.612-5.322,40.969-7.922,53.427-2.665,12.44-5.322,24.982-7.814,37.5m74.474-90.423c.107,5.534.293,11.1.044,16.565-.274,5.486-.783,11.038-1.232,16.563L963.7,450.4q-1.359,16.607-2.319,33.259,2.512-16.5,4.4-33.072c1.261-11.058,2.461-22.072,3.169-33.244.28-11.236-.4-22.3-1.125-33.408-.759-11.094-1.837-22.171-3.315-33.2l1.233,33.3c.163,5.547.377,11.091.485,16.634" transform="translate(291.765 12977.741)" fill="#1a2e35"/>
    <path id="Trazado_279261" data-name="Trazado 279261" d="M904.637,154.686c-10.01,3.226-12.25,12.989-12.67,29.755-.161,6.5.015,12.276-5.535,16.641-2.969,2.335-6.467,4.039-9,6.839-4.2,4.645-4.655,12.686-.061,16.946a10.273,10.273,0,0,0-6.443,8.409,15.257,15.257,0,0,0,2.921,10.507c4.405,6.309,13.09,8.769,20.512,7.489,1.76,4.99,7.016,8.2,12.294,8.592s10.486-1.656,14.893-4.585c2.719,5.306,9.68,7.087,15.163,6.291a19.93,19.93,0,0,0,13.924-8.857,2.109,2.109,0,0,1,.772-.851,1.961,1.961,0,0,1,.843-.135c3.769-.039,7.354-.01,10.767-1.734,3.072-1.552,5.816-3.332,7.736-6.282a13.5,13.5,0,0,0,2.177-6.556,10.505,10.505,0,0,0-.913-5.72c3.229-2.491,3.614-9.893,2.639-13.853s-3.542-7.332-6.327-10.312-5.862-5.714-8.223-9.038c-2.2-3.1-2.736-5.871-2.681-9.536.032-2-.86-5.658.545-7.36,0,0,6.155-7.454,5.889-15.48s-4.712-20.112-19.459-23.975c-12.285-3.217-34.611-2.2-39.761,12.806" transform="translate(291.108 12968.811)" fill="#1a2e35"/>
    <path id="Trazado_279262" data-name="Trazado 279262" d="M1025.726,250.123a43.557,43.557,0,0,0,5.117-8.309c3.4-7.6,6.16-9.062,12.733-13.881,1.126-.825,2.263-1.637,3.4-2.447a15.745,15.745,0,0,0,1.617-1.223c.467-.434.88-.785,1.575-.371a2.327,2.327,0,0,1,.939,1.383,6.813,6.813,0,0,1-1.039,5.412,33.052,33.052,0,0,1-3.643,4.347c-.964,1.084.684,1.231,1.472,1.185,3.869-.227,8.913-3.748,12.052-5.9,2.06-1.414,3.854-3.205,6.123-4.308a7.661,7.661,0,0,1,4.506-.823c1.039.168,1.936.677,1.6,1.948a5.325,5.325,0,0,1-1.372,2.009c-1.119,1.263-2.1,2.407-2,4.2a13.12,13.12,0,0,1,.128,3.364c-.287,1.406-1.357,2.527-1.8,3.892.624.489.638,1.79-.287,3.07a36.03,36.03,0,0,1-8.271,8.681,34.959,34.959,0,0,1-11.3,5.536,19.378,19.378,0,0,0-9.264,5.962c-3.6,4.094-6.986,8.978-14.655,18.732-10.833,13.776-14.518,19.842-21.744,22.024-5.367,1.619-9.611-2.217-20.38-11.419a307.539,307.539,0,0,1-30.87-30.667l8.583-42.558c6.669,3.487,11.862,12.068,19.388,23.882,13.975,21.936,19.418,29.277,19.418,29.277s25.265-19.61,27.971-22.993" transform="translate(294.88 12972.583)" fill="#ffbea8"/>
    <path id="Trazado_279263" data-name="Trazado 279263" d="M1040.673,236.986c.008,9.348-4.622,13.33-7.479,15.906,0,0,5.23-1.6,7.205-5.839a11.836,11.836,0,0,0,.273-10.067" transform="translate(298.807 12973.391)" fill="#ff9b79"/>
    <path id="Trazado_279264" data-name="Trazado 279264" d="M1008.585,260.027l4.545-3.824a30.835,30.835,0,0,0,4.085,11.237,20.594,20.594,0,0,0,8.6,7.81l-4.235,5.229a24.875,24.875,0,0,1-8.91-6.7c-3.468-4.436-4.087-13.755-4.087-13.755" transform="translate(297.64 12974.302)" fill="#f0f0f0"/>
    <path id="Trazado_279265" data-name="Trazado 279265" d="M948.577,217.029c17.746,2.387,22.583,12.766,27.368,20.267,6.675,10.466,21.928,33.521,21.928,33.521l15.288-10.795a21.247,21.247,0,0,0,3.665,11.274,28.955,28.955,0,0,0,9.637,8.8s-10.7,14.327-16.861,20.753-9.845,8.286-20.458.857C976,292.5,948.22,262.359,948.22,262.359Z" transform="translate(294.778 12972.444)" fill="#aa3da0"/>
    <g id="Grupo_260576" data-name="Grupo 260576" transform="translate(1285.651 13241.36)" opacity="0.15">
      <g id="Grupo_260575" data-name="Grupo 260575" transform="translate(0 0)">
        <g id="Grupo_260574" data-name="Grupo 260574" clip-path="url(#clip-path-19)">
          <path id="Trazado_279266" data-name="Trazado 279266" d="M995.942,268.469c-3.072,2.56-6.187,9.328-6.966,13.546-.3-4.6,1.422-11.719,5.709-15.448Z" transform="translate(-988.942 -266.567)"/>
        </g>
      </g>
    </g>
    <path id="Trazado_279267" data-name="Trazado 279267" d="M889.641,313.214c.892-6.479,5.413-7.437,3.213-22.912-1.089-7.662-4.933-27.483-4.933-27.483s13.178-10.165,8.947-39.8L910.4,216.7l8.371-2.119,21.6.9,11.091,3.041c3.805,3.27,10.768,8.424,16.371,16.338,8.085,11.419,9.537,23.988,1.276,33.38-.088,1.825.244,30.077,2.373,36.954.845,2.731,2,6.448.215,10.117-7.953,13.048-55.116,26.34-82.06-2.1" transform="translate(291.919 12972.328)" fill="#fafafa"/>
    <path id="Trazado_279268" data-name="Trazado 279268" d="M938,215.447l11.062,1.657c10.631,8.033,23.279,22.52,23.988,33.672a30.141,30.141,0,0,1-4.958,18.689s-.157,22.67,2.437,34.642,5.461,44.022,5.461,44.022.23,2-8.656,4.5c-2.724-15.361-9.466-71.715-9.093-85.243s.625-34.89-20.241-51.938" transform="translate(294.293 12972.369)" fill="#d268cc"/>
    <path id="Trazado_279269" data-name="Trazado 279269" d="M938,215.447l11.062,1.657c10.631,8.033,23.279,22.52,23.988,33.672a30.141,30.141,0,0,1-4.958,18.689s-.157,22.67,2.437,34.642,5.461,44.022,5.461,44.022.23,2-8.656,4.5c-2.724-15.361-9.466-71.715-9.093-85.243s.625-34.89-20.241-51.938" transform="translate(294.293 12972.369)" fill="#632059"/>
    <g id="Grupo_260579" data-name="Grupo 260579" transform="translate(1238.546 13188.753)" opacity="0.2">
      <g id="Grupo_260578" data-name="Grupo 260578" transform="translate(0 0)">
        <g id="Grupo_260577" data-name="Grupo 260577" clip-path="url(#clip-path-20)">
          <path id="Trazado_279270" data-name="Trazado 279270" d="M959.624,273.644c.876-3.592,1.84-7.16,2.819-10.72s1.914-7.133,2.8-10.7a42.53,42.53,0,0,0,1.013-5.364c.27-1.693-.934-3.106-2.127-4.436a49.519,49.519,0,0,0-8.5-6.855l-.281-.187.061-.335a17.738,17.738,0,0,0-.025-5.867,15.249,15.249,0,0,0-2.037-5.522,17.62,17.62,0,0,0-4.158-4.256,28.03,28.03,0,0,0-5.218-3.058,25.03,25.03,0,0,1,5.448,2.733,16.465,16.465,0,0,1,4.489,4.2,16.032,16.032,0,0,1,2.354,5.737,17.451,17.451,0,0,1,.119,6.235l-.22-.523a47.891,47.891,0,0,1,8.772,6.953,12.64,12.64,0,0,1,1.736,2.308,4.118,4.118,0,0,1,.324.685,2.522,2.522,0,0,1,.235.746,4.938,4.938,0,0,1,.055,1.529,43.11,43.11,0,0,1-1.1,5.5c-.9,3.6-2.036,7.119-3.128,10.65s-2.283,7.027-3.427,10.541" transform="translate(-943.97 -216.341)"/>
        </g>
      </g>
    </g>
    <path id="Trazado_279271" data-name="Trazado 279271" d="M910.9,216.609s4.539,5.2,10.7,19.28,12.1,26.879,12,39.921-4.369,80.478-4.369,80.478-18.7,2.818-35.635-4l1.383-26.12-6.41,24.891s-8.1-2.908-11.1-5.609c4.411-27.156,14.3-40.045,14.787-50.07.338-6.885-5.509-25.97-6.628-43.173a132.213,132.213,0,0,1,2.057-30.133Z" transform="translate(291.423 12972.425)" fill="#d268cc"/>
    <path id="Trazado_279272" data-name="Trazado 279272" d="M910.9,216.609s4.539,5.2,10.7,19.28,12.1,26.879,12,39.921-4.369,80.478-4.369,80.478-18.7,2.818-35.635-4l1.383-26.12-6.41,24.891s-8.1-2.908-11.1-5.609c4.411-27.156,14.3-40.045,14.787-50.07.338-6.885-5.509-25.97-6.628-43.173a132.213,132.213,0,0,1,2.057-30.133Z" transform="translate(291.423 12972.425)" fill="#632059"/>
    <g id="Grupo_260582" data-name="Grupo 260582" transform="translate(1198.863 13191.165)" opacity="0.2">
      <g id="Grupo_260581" data-name="Grupo 260581" transform="translate(0 0)">
        <g id="Grupo_260580" data-name="Grupo 260580" clip-path="url(#clip-path-21)">
          <path id="Trazado_279273" data-name="Trazado 279273" d="M929.769,279.6a30,30,0,0,0-5.139-9.011c-2.1-2.775-4.394-5.394-6.752-7.956-1.162-1.3-2.35-2.57-3.545-3.842l-1.8-1.912c-.3-.335-.595-.627-.907-1.009a1.869,1.869,0,0,1-.235-.306,4.376,4.376,0,0,1-.221-.5,3.579,3.579,0,0,1-.1-.878,15.778,15.778,0,0,1,1.823-5.2c.828-1.577,1.719-3.091,2.685-4.587l.087.866-5.343-5.4-2.658-2.72-.659-.687-.33-.344a2.665,2.665,0,0,1-.451-.548,2.783,2.783,0,0,1-.139-1.19c.02-.343.058-.672.1-1a58.736,58.736,0,0,1,1.823-7.473c.748-2.439,1.515-4.869,2.388-7.264-.6,2.475-1.235,4.941-1.789,7.422a74.342,74.342,0,0,0-1.42,7.437,4.766,4.766,0,0,0,.023,1.6c-.09-.132.064.071.181.162l.347.33.693.66,2.751,2.667,5.477,5.373.39.382-.3.485c-.907,1.455-1.769,2.969-2.543,4.5a15.408,15.408,0,0,0-1.73,4.6,3.319,3.319,0,0,0,.032.417.2.2,0,0,1,.037.108c0,.045.11.145.16.214.236.3.554.635.832.952l1.767,1.931c1.18,1.294,2.358,2.592,3.508,3.917a104.631,104.631,0,0,1,6.457,8.324,41.183,41.183,0,0,1,2.707,4.531,18.391,18.391,0,0,1,1.79,4.942" transform="translate(-906.083 -218.644)"/>
        </g>
      </g>
    </g>
    <path id="Trazado_279274" data-name="Trazado 279274" d="M793.05,240.129c-2.54-1.658-4.655-3.309-7.81-5.387-3.221-2.121-5.745-2.922-7.037-1.518-1.188,1.293.441,3.582,4.338,6.757,6.233,5.075,10.7,8.734,10.418,9.439-3.568.207-4.536.39-4.661,3.088-.085,1.821,2.149,3.028,2.149,3.028a2.4,2.4,0,0,0-2.116,2.509,3.379,3.379,0,0,0,1.943,2.97s-1.537.349-1.131,2.394a5.633,5.633,0,0,0,2.751,3.806l.316-1.608a3.632,3.632,0,0,0,1.614-.069c.895-.238,2.7.337,4.2.775s3.184,1.145,4.259.172a1.993,1.993,0,0,0,.3-2.953,6.2,6.2,0,0,0-1.606-.96s2.255.561,3.067-1.252-.708-2.79-1.641-3.491c1.017-.694,1.944-1.516,1.54-2.537s-3.678-3.139-3.678-3.139l1.2-2.99s1.266-2.543-.5-3.756c-3.184-2.181-5.065-3.418-7.915-5.279" transform="translate(286.698 12973.18)" fill="#ffbea8"/>
    <path id="Trazado_279275" data-name="Trazado 279275" d="M871.219,285.01a13.485,13.485,0,0,0-2.094-2.258c-7.217-6.353-16.744-9.273-25.29-13.33-5.574-2.648-11.235-5.658-16.77-8.43-6.656-3.332-7.671-3.732-10.221-7.959-1.376-2.283-2.767-4.476-4.323-6.648a12.935,12.935,0,0,0-2.5-2.819,7.263,7.263,0,0,0-4.214-1.608,16.9,16.9,0,0,0-3.529.084,8.874,8.874,0,0,0-2.841.536,9.727,9.727,0,0,0-2.045,1.366,7.624,7.624,0,0,0-2,2.535l.348,6.714s1.516.973,2.672.2a3.436,3.436,0,0,0,1.416-1.618s3.109,1.868,3.289,2.934.033,1.693-1.617,2.16c1,.892,2.58,2.207,1.923,3.619s-3.058,1.64-3.058,1.64,2.8,2.2,2.224,3.2-11.621-2.8-11.621-2.8l.313,4.244c2.843,1.2,12.246,5.571,17.947,6.585,2,.355,5.752,2.35,10.873,6.1,5.837,4.278,10.665,9.545,16.222,14.063a51.386,51.386,0,0,0,17.85,9.407,13.049,13.049,0,0,0,4.392.694,10.4,10.4,0,0,0,4.422-1.434c3.054-1.709,6.437-6.042,8.534-8.817,2.642-3.5,2.069-5.035-.3-8.363" transform="translate(287.321 12973.624)" fill="#ffbea8"/>
    <path id="Trazado_279276" data-name="Trazado 279276" d="M800.371,248.319a17.412,17.412,0,0,1-1.572,3.916,2.038,2.038,0,0,1-2.62.839c-.582-.3-.644-6.9-.644-6.9l1.666-2.32c-1.439,1.291-1.78,1.576-2.072,2.23-.4.9,0,5.739.127,6.9s3.042,1.877,4.257-.708c.044-.093.077-.169.119-.258.029.017.054.04.085.056a6.4,6.4,0,0,1,2.444,2.134c.369.556.8,1.224.268,1.806a1.8,1.8,0,0,1-.936.487,3.441,3.441,0,0,1-.835.1,1.906,1.906,0,0,0-.762.08.1.1,0,0,0-.044.027c-.032.044.02.1.067.134.335.219.69.4,1.032.611,1.035.622,2.384,1.92,1.6,3.162a2.146,2.146,0,0,1-1.744,1.043c-.539.041-1.087-.025-1.621.051-.1.014-.218.079-.18.168a.17.17,0,0,0,.083.072,8.537,8.537,0,0,1,2.318,1.455,1.964,1.964,0,0,1,.662,1.556c-.139.683-1.109,1.189-1.727,1.335l-.31.073c-.029.043-.018.059,0,.068a.257.257,0,0,0,.1.032,3.71,3.71,0,0,0,.627.057,2.052,2.052,0,0,0,1.946-1.923,2.32,2.32,0,0,0-1.194-2.255,2.589,2.589,0,0,0,2.246-1.389c1.1-1.736-.076-2.823-1.479-3.734a2.21,2.21,0,0,0,1.009-.719,16.026,16.026,0,0,0,4.115,7.051,25.5,25.5,0,0,1-3.26-8.6,22.553,22.553,0,0,1,.052-7.194s-2.809,1.088-3.824.562m2.049,3.5a.967.967,0,0,1-.219.078,2.506,2.506,0,0,1-.847-.039,12.562,12.562,0,0,0-1.5-.321c.921-2,1.135-2.648,1.135-2.648a2.282,2.282,0,0,0,1.389-.255,20.749,20.749,0,0,0,.043,3.184" transform="translate(287.511 12973.717)" fill="#ff9b79"/>
    <path id="Trazado_279277" data-name="Trazado 279277" d="M834.835,264.392l-7.511-3.964s-3.335,1.281-7.143,8.172a21.486,21.486,0,0,0-2.888,9.406l8.293,6.746Z" transform="translate(288.57 12974.502)" fill="#f0f0f0"/>
    <path id="Trazado_279278" data-name="Trazado 279278" d="M850.049,272.638c5.908-9.272,16.115-25.155,22.746-34.44,8.476-11.867,9.653-14.744,21.509-17.341,8.765,23.324,2.479,39.316-.831,43.676s-14.95,21.415-20.437,28.589-9.98,11.943-14.961,12.671-10.528-1.786-18.4-6.969c-6.158-4.056-18.564-15.435-18.564-15.435a27.53,27.53,0,0,1,5.475-13.372,19.642,19.642,0,0,1,5.6-5.378Z" transform="translate(288.751 12972.626)" fill="#aa3da0"/>
    <g id="Grupo_260585" data-name="Grupo 260585" transform="translate(1138.8 13242.605)" opacity="0.15">
      <g id="Grupo_260584" data-name="Grupo 260584" transform="translate(0 0)">
        <g id="Grupo_260583" data-name="Grupo 260583" clip-path="url(#clip-path-22)">
          <path id="Trazado_279279" data-name="Trazado 279279" d="M848.739,270.414c2.458,1.132,9.744,6.418,10.94,10.557.288-4.5-6-10.428-9.243-13.215Z" transform="translate(-848.739 -267.756)"/>
        </g>
      </g>
    </g>
    <path id="Trazado_279280" data-name="Trazado 279280" d="M899.907,182.051c2.165-2.524,6.624-3.626,8.84-.227,1.378,2.114,1.772,5.664,3.822,5.111,1.244-.335,1.674-1.83,1.18-4.546.027.15,1.627-.844,1.745-.947,1.54-1.334,1.184-3.338,1.683-5.112.554-1.966,2.121-3.451,3.061-5.222,1.476-2.782.9-6.224.317-9.182-.251-1.281-.423-2.8.5-3.719a3.605,3.605,0,0,1,2.662-.765c2.981.057,5.862,1,8.774,1.645s6.048.963,8.8-.183c1.175-.489,2.229-1.227,3.367-1.8a5.846,5.846,0,0,1,3.677-.726,6.091,6.091,0,0,1,2.888,1.715c3.848,3.645,5.089,9.389,6.058,14.439.723,3.767.527,7.677.6,11.491.322,16.4-2.576,20.44-6,23.289-2.937,2.449-7.525,3.748-12.9,3.741l.064,9.324s7.817,14.646,4.059,23.19c0,0-12.474-5.207-20.058-11.487-9.307-7.707-10.866-12.41-10.866-12.41l-.078-24.864s-3.962,5.7-9.694,1.348c-4.73-3.592-5.747-10.338-2.515-14.108" transform="translate(292.398 12969.565)" fill="#ffbea8"/>
    <path id="Trazado_279281" data-name="Trazado 279281" d="M938.228,209.195c-10.293.059-20.305-4.329-24.016-13.6,0,0,.365,6.158,4.255,9.934,7.763,7.532,19.784,6.913,19.784,6.913Z" transform="translate(293.165 12971.429)" fill="#ff9b79"/>
    <path id="Trazado_279282" data-name="Trazado 279282" d="M926.3,177.024a2.529,2.529,0,1,0,2.811-2.212,2.53,2.53,0,0,0-2.811,2.212" transform="translate(293.738 12970.441)" fill="#1a2e35"/>
    <path id="Trazado_279283" data-name="Trazado 279283" d="M945.044,177.874a2.53,2.53,0,1,0,1.663-3.166,2.529,2.529,0,0,0-1.663,3.166" transform="translate(294.622 12970.433)" fill="#1a2e35"/>
    <path id="Trazado_279284" data-name="Trazado 279284" d="M930.8,166.99l-6.056,2.376a3.413,3.413,0,0,1,1.905-4.323,3.175,3.175,0,0,1,4.151,1.947" transform="translate(293.655 12969.97)" fill="#1a2e35"/>
    <path id="Trazado_279285" data-name="Trazado 279285" d="M944.418,167.46l6.413,1.091a3.413,3.413,0,0,0-2.746-3.844,3.174,3.174,0,0,0-3.667,2.753" transform="translate(294.598 12969.962)" fill="#1a2e35"/>
    <path id="Trazado_279286" data-name="Trazado 279286" d="M941.666,192.963l-9.054-2.576a4.939,4.939,0,0,0,3.349,5.96,4.593,4.593,0,0,0,5.705-3.384" transform="translate(294.031 12971.181)" fill="#c76668"/>
    <path id="Trazado_279287" data-name="Trazado 279287" d="M938.808,196.137a5.474,5.474,0,0,0-5.615-4.13,5.166,5.166,0,0,0-.691.109,4.882,4.882,0,0,0,3.456,4.154,4.477,4.477,0,0,0,2.85-.133" transform="translate(294.033 12971.258)" fill="#ff9b79"/>
    <path id="Trazado_279288" data-name="Trazado 279288" d="M922.538,171.987,906.6,179.458a4.76,4.76,0,0,1,2.117,2.238l14.671-7.005Z" transform="translate(292.805 12970.309)" fill="#1a2e35"/>
    <path id="Trazado_279289" data-name="Trazado 279289" d="M957.8,169.981c-.326-.031-.666-.061-1.017-.086-3.279-.234-7.558-.176-10.128.715-3.23,1.126-4.368,2.294-6.169,2.372-1.928.065-3.147-1.016-6.614-1.89-2.759-.689-7.36-.412-10.894.082-.38.053-.748.11-1.1.167a1.9,1.9,0,0,0-1.265,1.888,3.918,3.918,0,0,0,1,2.116,2.517,2.517,0,0,1,.338.858c.339,1.494.507,4.394,1.206,5.993a7.139,7.139,0,0,0,1.376,2.143,5.489,5.489,0,0,0,.714.624c.135.1.271.186.416.277a6.031,6.031,0,0,0,1.241.567c.069.023.139.046.209.064.106.029.219.062.331.089s.228.05.348.074a7.718,7.718,0,0,0,1.1.136c.152.014.311.019.472.023.19,0,.389,0,.593-.007,4.581-.162,6.5-2.5,7.627-4.854,1.126-2.337.831-5.544,2.905-5.615a1.535,1.535,0,0,1,.2,0,1.27,1.27,0,0,1,.183.023c1.534.308,1.37,3.263,2.359,5.367a8.575,8.575,0,0,0,1.508,2.3c.115.123.232.239.359.351.063.06.126.113.192.165s.131.107.2.158.12.09.183.133c.107.072.152.1.2.132s.1.066.157.1c.035.023.071.044.109.065a6.346,6.346,0,0,0,1.827.686l.169.034a9.29,9.29,0,0,0,2.225.143,6.475,6.475,0,0,0,6.3-4.492c.64-1.647.808-4.537,1.1-6.056a1.839,1.839,0,0,1,.355-.794,4.1,4.1,0,0,0,.868-2.216,1.79,1.79,0,0,0-1.18-1.833m-21.386,9.236a7.228,7.228,0,0,1-1.584,3.267h0a6.556,6.556,0,0,1-4.988,2.041,5.2,5.2,0,0,1-4.747-2.17c-.053-.075-.1-.152-.147-.225s-.094-.15-.135-.224-.079-.139-.113-.211-.064-.127-.092-.19a1.5,1.5,0,0,1-.07-.151c-.023-.047-.043-.092-.06-.136-.033-.075-.064-.153-.092-.227v0c-.089-.228-.162-.449-.224-.664a.054.054,0,0,1-.005-.017c-.04-.136-.075-.27-.109-.4-.059-.231-.1-.449-.142-.641-.007-.042-.016-.085-.023-.124l-.025-.117c-.314-1.583-.657-4.68.133-5.407.759-.7,2.842-1.523,6.174-1.319.113,0,.232.01.355.022a13.738,13.738,0,0,1,1.522.208c.2.038.4.081.59.126a12.829,12.829,0,0,1,1.483.435c.158.057.31.116.453.176.173.069.337.145.491.221a.962.962,0,0,1,.1.049,1.625,1.625,0,0,1,.18.1,2.924,2.924,0,0,1,1,.787c.667.942.465,3.005.08,4.794M956,177.78c-.223,1.254-.7,3.976-3.04,5.259a5.773,5.773,0,0,1-2.5.669,5.33,5.33,0,0,1-5.094-2.222.106.106,0,0,1-.014-.023c-.036-.05-.067-.1-.1-.145s-.072-.114-.1-.168c-.017-.027-.035-.058-.051-.088-.046-.082-.092-.167-.132-.248-.049-.1-.1-.193-.138-.292-.023-.046-.044-.094-.064-.141-.012-.027-.021-.053-.031-.08-.018-.042-.032-.081-.047-.12s-.025-.064-.034-.092a8.28,8.28,0,0,1-.338-1.18c-.362-1.758-.566-3.8.053-4.793s3.057-2.135,5.411-2.522a14.336,14.336,0,0,1,1.523-.174l.181-.009.194-.007c.181-.006.359-.005.529,0,.064,0,.128,0,.193,0,.086,0,.17.006.25.013.142.005.281.018.415.032q.41.039.769.11c.061.013.123.025.181.039a.168.168,0,0,1,.047.01c.04.008.082.017.124.029.062.013.126.031.184.047.076.02.153.044.222.066.132.042.252.085.366.133a.663.663,0,0,1,.065.027,2.931,2.931,0,0,1,.834.5c.735.663.424,3.775.145,5.373" transform="translate(293.469 12970.204)" fill="#2b454e"/>
    <path id="Trazado_279290" data-name="Trazado 279290" d="M937.424,179.229l2.959,9.889,8-3.889c-.308-.464-7.747-9.165-8.345-9.759a1.515,1.515,0,0,0-1.561.581,8.89,8.89,0,0,0-1.057,3.178" transform="translate(294.266 12970.473)" fill="#ff9b79"/>
  </g>
</svg>
