<svg xmlns="http://www.w3.org/2000/svg" xmlns:xlink="http://www.w3.org/1999/xlink" width="190" height="339" viewBox="0 0 190 339">
  <defs>
    <clipPath id="clip-path">
      <rect id="Rectángulo_324275" data-name="Rectángulo 324275" width="146.101" height="327" fill="none"/>
    </clipPath>
    <clipPath id="clip-path-3">
      <rect id="Rectángulo_324266" data-name="Rectángulo 324266" width="135.524" height="128.614" fill="none"/>
    </clipPath>
    <clipPath id="clip-path-4">
      <rect id="Rectángulo_324267" data-name="Rectángulo 324267" width="112.032" height="13.489" fill="none"/>
    </clipPath>
    <clipPath id="clip-path-5">
      <rect id="Rectángulo_324268" data-name="Rectángulo 324268" width="11.209" height="11.334" fill="none"/>
    </clipPath>
    <clipPath id="clip-path-6">
      <rect id="Rectángulo_324269" data-name="Rectángulo 324269" width="5.795" height="11.297" fill="none"/>
    </clipPath>
    <clipPath id="clip-path-7">
      <rect id="Rectángulo_324270" data-name="Rectángulo 324270" width="8.084" height="33.527" fill="none"/>
    </clipPath>
    <clipPath id="clip-path-8">
      <rect id="Rectángulo_324271" data-name="Rectángulo 324271" width="18.616" height="23.955" fill="none"/>
    </clipPath>
    <clipPath id="clip-path-9">
      <rect id="Rectángulo_324272" data-name="Rectángulo 324272" width="3.424" height="5.689" fill="none"/>
    </clipPath>
    <clipPath id="clip-path-10">
      <rect id="Rectángulo_324273" data-name="Rectángulo 324273" width="4.006" height="5.323" fill="none"/>
    </clipPath>
  </defs>
  <g id="Grupo_262342" data-name="Grupo 262342" transform="translate(-180 -398.811)">
    <rect id="Rectángulo_326287" data-name="Rectángulo 326287" width="190" height="339" transform="translate(180 398.811)" fill="#fff"/>
    <g id="Grupo_258484" data-name="Grupo 258484" transform="translate(201.5 409)">
      <g id="Grupo_258483" data-name="Grupo 258483" clip-path="url(#clip-path)">
        <g id="Grupo_258482" data-name="Grupo 258482">
          <g id="Grupo_258481" data-name="Grupo 258481" clip-path="url(#clip-path)">
            <g id="Grupo_258459" data-name="Grupo 258459" transform="translate(1.738)" opacity="0.35">
              <g id="Grupo_258458" data-name="Grupo 258458">
                <g id="Grupo_258457" data-name="Grupo 258457" clip-path="url(#clip-path-3)">
                  <path id="Trazado_277045" data-name="Trazado 277045" d="M137.625,59.005c0,.981-.141,3.414-.386,7.3a67.838,67.838,0,0,1-2.486,13.471,84.5,84.5,0,0,1-6.58,16.23,56.094,56.094,0,0,1-12.494,15.868,65.327,65.327,0,0,1-20.406,12.019q-12.337,4.739-30.031,4.72a90.485,90.485,0,0,1-25.8-3.449A54.3,54.3,0,0,1,19.6,114.6,48.041,48.041,0,0,1,6.721,96.369Q2.1,85.258,2.1,69.608A82.541,82.541,0,0,1,6.161,43.9a63.64,63.64,0,0,1,12.5-22.4A59.236,59.236,0,0,1,40.6,5.846Q54.095.019,72.558,0q31.974,0,48.511,15.287,16.539,15.3,16.556,43.718" transform="translate(-2.101)" fill="#efdbb9"/>
                </g>
              </g>
            </g>
            <g id="Grupo_258462" data-name="Grupo 258462" transform="translate(0 313.511)" opacity="0.04" style="mix-blend-mode: darken;isolation: isolate">
              <g id="Grupo_258461" data-name="Grupo 258461">
                <g id="Grupo_258460" data-name="Grupo 258460" clip-path="url(#clip-path-4)">
                  <path id="Trazado_277046" data-name="Trazado 277046" d="M111.923,377.529c.039-.132.072-.271.109-.4-5.368-2.371-11.469-1.941-17.237-1.514-12.258.9-24.535,1.3-36.812,1.352Q29,377.093.055,374.725c-.57,4.043,3.436,6.235,6.527,6.865,23.36,4.758,47.2,9.518,70.519,4.453,5.693-1.237,11.315-3.053,17.05-3.882a83.713,83.713,0,0,1,16.5-.382q.647-2.122,1.272-4.251" transform="translate(0 -374.725)"/>
                </g>
              </g>
            </g>
            <path id="Trazado_277047" data-name="Trazado 277047" d="M88.448,46.677s-11.7-6.489-6.013-25.206c6.013-19.788,13.12,3.1,13.12,3.1Z" transform="translate(-13.955 -2.191)"/>
            <path id="Trazado_277048" data-name="Trazado 277048" d="M116.93,28.242c-1.2-7.687-8.773-20.54-22.224-12.629-4.231,2.488-6.035,7.027-6.894,11.74-.6,3.29.553,33.748.553,33.748.938,11.962,19.405,13.769,20.6-.085l-.361-8.607c9.744-3.165,9.68-15.536,8.33-24.166" transform="translate(-15.122 -2.145)" fill="#fdd4c5"/>
            <path id="Trazado_277049" data-name="Trazado 277049" d="M109.658,59.167s-5.5,1.862-15.887-4.663a34.069,34.069,0,0,0,16.206,12.02Z" transform="translate(-16.181 -8.904)" fill="#552516"/>
            <path id="Trazado_277050" data-name="Trazado 277050" d="M79.42,35.117a5.4,5.4,0,0,1,5.954-4.729,5.319,5.319,0,0,1,4.721,5.9,5.4,5.4,0,0,1-5.954,4.729,5.32,5.32,0,0,1-4.721-5.9" transform="translate(-13.698 -4.959)" fill="#fdd4c5"/>
            <path id="Trazado_277051" data-name="Trazado 277051" d="M84.72,33.927a1.908,1.908,0,0,1,1.355-.136,2.728,2.728,0,0,1,1.964,1.887,1.909,1.909,0,0,1-.084,1.376,5.524,5.524,0,0,0-.554-1.09,5.341,5.341,0,0,0-1.58-1.519,5.939,5.939,0,0,0-1.1-.519" transform="translate(-14.619 -5.51)" fill="#251b2d"/>
            <path id="Trazado_277052" data-name="Trazado 277052" d="M104.453,28.963c.229.421,1.016.426,1.757.01s1.154-1.1.924-1.516-1.016-.426-1.757-.01-1.154,1.094-.923,1.516" transform="translate(-18.013 -4.433)" fill="#371c09"/>
            <path id="Trazado_277053" data-name="Trazado 277053" d="M116.376,26.811c-.3.379,0,1.107.668,1.628s1.449.637,1.748.259,0-1.107-.668-1.628-1.45-.637-1.748-.259" transform="translate(-20.061 -4.343)" fill="#371c09"/>
            <g id="Grupo_258465" data-name="Grupo 258465" transform="translate(77.052 31.051)" opacity="0.46" style="mix-blend-mode: soft-light;isolation: isolate">
              <g id="Grupo_258464" data-name="Grupo 258464">
                <g id="Grupo_258463" data-name="Grupo 258463" clip-path="url(#clip-path-5)">
                  <path id="Trazado_277054" data-name="Trazado 277054" d="M93.121,42.781a5.605,5.605,0,1,0,5.6-5.667,5.636,5.636,0,0,0-5.6,5.667" transform="translate(-93.121 -37.114)" fill="#0f0f0f"/>
                </g>
              </g>
            </g>
            <path id="Trazado_277055" data-name="Trazado 277055" d="M118.007,33.517c.038.588-.2,1.083-.54,1.105s-.64-.436-.679-1.024.2-1.083.539-1.105.641.436.679,1.024" transform="translate(-20.151 -5.308)"/>
            <path id="Trazado_277056" data-name="Trazado 277056" d="M118.007,33.517c.038.588-.2,1.083-.54,1.105s-.64-.436-.679-1.024.2-1.083.539-1.105S117.969,32.929,118.007,33.517Z" transform="translate(-20.151 -5.308)" fill="none" stroke="#000" stroke-miterlimit="10" stroke-width="0.485"/>
            <path id="Trazado_277057" data-name="Trazado 277057" d="M107.568,33.877c.038.588-.2,1.083-.54,1.105s-.64-.436-.678-1.024.2-1.083.539-1.105.641.436.679,1.024" transform="translate(-18.35 -5.367)"/>
            <path id="Trazado_277058" data-name="Trazado 277058" d="M107.568,33.877c.038.588-.2,1.083-.54,1.105s-.64-.436-.678-1.024.2-1.083.539-1.105S107.53,33.289,107.568,33.877Z" transform="translate(-18.35 -5.367)" fill="none" stroke="#000" stroke-miterlimit="10" stroke-width="0.485"/>
            <g id="Grupo_258468" data-name="Grupo 258468" transform="translate(96.657 29.565)" opacity="0.46" style="mix-blend-mode: soft-light;isolation: isolate">
              <g id="Grupo_258467" data-name="Grupo 258467">
                <g id="Grupo_258466" data-name="Grupo 258466" clip-path="url(#clip-path-6)">
                  <path id="Trazado_277059" data-name="Trazado 277059" d="M122.4,35.338a33.666,33.666,0,0,1-.6,11.3,5.669,5.669,0,0,1,.6-11.3" transform="translate(-116.813 -35.338)" fill="#0f0f0f"/>
                </g>
              </g>
            </g>
            <path id="Trazado_277060" data-name="Trazado 277060" d="M109.171,43.24c.5.22.914.479,1.331.648a2.79,2.79,0,0,0,1.157.287,2.551,2.551,0,0,0,1.127-.292,14.418,14.418,0,0,0,1.262-.745,2.6,2.6,0,0,1-.761,1.441,2.351,2.351,0,0,1-1.63.7,2.431,2.431,0,0,1-1.618-.673,2.969,2.969,0,0,1-.867-1.365" transform="translate(-18.838 -7.047)"/>
            <path id="Trazado_277061" data-name="Trazado 277061" d="M112.712,30.369a23.324,23.324,0,0,1,.928,3.672c.106.618.21,1.237.282,1.862s.14,1.247.189,1.875l.03.375-.32.043a19.826,19.826,0,0,1-2.838.216,19.9,19.9,0,0,1,2.687-.948l-.29.417c-.123-.616-.238-1.233-.328-1.855s-.168-1.244-.233-1.868a23.38,23.38,0,0,1-.105-3.788" transform="translate(-19.15 -4.961)" fill="#251b2d"/>
            <path id="Trazado_277062" data-name="Trazado 277062" d="M90.082,12.324s4.322,8.53,11,10.568,1-2.563.066-3.629,8.878,3.909,14.038,2.427-.261-14.2-11.843-14.415-13.258,5.048-13.258,5.048" transform="translate(-15.544 -1.188)"/>
            <path id="Trazado_277063" data-name="Trazado 277063" d="M93.153,17.2s-1.045,13.18-3.062,12.161A22.038,22.038,0,0,0,84.7,27.874s4.407-12.33,8.452-10.672" transform="translate(-14.615 -2.785)"/>
            <path id="Trazado_277064" data-name="Trazado 277064" d="M109.171,43.24c.5.22.914.479,1.331.648a2.79,2.79,0,0,0,1.157.287,2.551,2.551,0,0,0,1.127-.292,14.418,14.418,0,0,0,1.262-.745,2.6,2.6,0,0,1-.761,1.441,2.351,2.351,0,0,1-1.63.7,2.431,2.431,0,0,1-1.618-.673,2.969,2.969,0,0,1-.867-1.365" transform="translate(-18.838 -7.047)"/>
            <path id="Trazado_277065" data-name="Trazado 277065" d="M164.556,84.373c-.405-11.747-1.173-.391-11.955-4.786l-.72.225L145.7,114.076,133.991,96.62q-2.733,20.374-6.686,40.529c9.517,11.789,22.59,16.993,30.743,7.775,5.222-5.9,7.181-41.036,6.508-60.55" transform="translate(-21.967 -12.881)" fill="#fdd4c5"/>
            <path id="Trazado_277066" data-name="Trazado 277066" d="M135.811,148.66l8.931-34.03-18.65-31.759L122.109,141Z" transform="translate(-21.07 -13.538)" fill="#622258"/>
            <path id="Trazado_277067" data-name="Trazado 277067" d="M154.944,62.293c1.11-2.994,4.255,4.338,4.22,5.689,0,0,.035-14.3,2.362-14.671,1.321-.209.874,10.7.874,10.7s1.889-12.112,3.057-11.977,0,11.756,0,11.756,1.937-10.192,3.254-9.946c1.12.209.239,10.719.239,10.719s2.386-7.232,3.493-6.952c1,.254-.611,6.789-.651,8.929a36.911,36.911,0,0,1-3.226,15.082l-12.167-2.6s-2.875-12.9-1.453-16.73" transform="translate(-26.668 -8.501)" fill="#fdd4c5"/>
            <path id="Trazado_277068" data-name="Trazado 277068" d="M160.126,71.1a4.3,4.3,0,0,1,2.281,1.172,5.77,5.77,0,0,1,1.444,2.218,7.172,7.172,0,0,1,.374,2.6,12,12,0,0,1-.156,1.285c-.115.417-.228.829-.381,1.227-.046-.433-.054-.849-.064-1.263-.047-.413-.063-.822-.109-1.223A11.1,11.1,0,0,0,163,74.8a7.47,7.47,0,0,0-2.871-3.7" transform="translate(-27.63 -11.614)" fill="#251b2d"/>
            <g id="Grupo_258471" data-name="Grupo 258471" transform="translate(115.235 102.601)" opacity="0.46" style="mix-blend-mode: soft-light;isolation: isolate">
              <g id="Grupo_258470" data-name="Grupo 258470">
                <g id="Grupo_258469" data-name="Grupo 258469" clip-path="url(#clip-path-7)">
                  <path id="Trazado_277069" data-name="Trazado 277069" d="M147.35,122.634l-1.779,33.526a25.7,25.7,0,0,1-6.305-2.853Z" transform="translate(-139.266 -122.634)" fill="#0f0f0f"/>
                </g>
              </g>
            </g>
            <path id="Trazado_277070" data-name="Trazado 277070" d="M77.317,73.847h0L108.148,72.2c31.918,31.688,10.081,82.177,10.081,82.177H68.4C54.957,156,59.489,72.435,77.317,73.847" transform="translate(-10.456 -11.794)" fill="#622258"/>
            <path id="Trazado_277071" data-name="Trazado 277071" d="M42.937,99.935c-4.547,3.989-8.809,7.9-12.026,11.183-12.413,12.676-17.02,30.216-4.693,36.416,8.361,4.2,27.118-18.856,27.118-18.856l5.347-5.728c-4.958-7.905-10.1-15.677-15.745-23.015" transform="translate(-3.273 -16.325)" fill="#fdd4c5"/>
            <path id="Trazado_277072" data-name="Trazado 277072" d="M26.666,109.6,47.825,133.98,80.545,98.408,72.61,71.887S53.483,81.492,26.666,109.6" transform="translate(-4.601 -11.743)" fill="#622258"/>
            <path id="Trazado_277073" data-name="Trazado 277073" d="M56.143,185.526c1.182-.776,2.413-1.5,3.625-2.255L46.961,157.02l.027,0S34.166,124.61,25.75,128.143a9.814,9.814,0,0,0-4.246,3.738,15.111,15.111,0,0,0-1.292,13.972c4.646,11.634,18.3,32.268,28,44.744,2.657-1.672,5.311-3.347,7.934-5.071" transform="translate(-3.293 -20.889)" fill="#fdd4c5"/>
            <line id="Línea_991" data-name="Línea 991" x2="6.397" y2="5.472" transform="translate(31.905 119.003)" fill="none" stroke="#000" stroke-linecap="round" stroke-miterlimit="10" stroke-width="1.152"/>
            <g id="Grupo_258474" data-name="Grupo 258474" transform="translate(23.52 99.538)" opacity="0.46" style="mix-blend-mode: soft-light;isolation: isolate">
              <g id="Grupo_258473" data-name="Grupo 258473">
                <g id="Grupo_258472" data-name="Grupo 258472" clip-path="url(#clip-path-8)">
                  <path id="Trazado_277074" data-name="Trazado 277074" d="M28.425,118.973l15.966,23.955,2.65-2.507Z" transform="translate(-28.425 -118.973)" fill="#0f0f0f"/>
                </g>
              </g>
            </g>
            <path id="Trazado_277075" data-name="Trazado 277075" d="M89.24,69.341,80.8,73.461l2.745,2.161a20.142,20.142,0,0,0,28.534-3.658l-4.71-2.6s-11.672,3.112-18.127-.024" transform="translate(-13.942 -11.327)" fill="#fdd4c5"/>
            <path id="Trazado_277076" data-name="Trazado 277076" d="M77.892,73.761l5.546-3.245L97.846,80.06l-2.524,5.689Z" transform="translate(-13.44 -11.519)" fill="#aa3c9d"/>
            <path id="Trazado_277077" data-name="Trazado 277077" d="M104.262,80.058l11.64-7.89,3.851,3.3-11.761,9.909Z" transform="translate(-17.991 -11.789)" fill="#aa3c9d"/>
            <g id="Grupo_258477" data-name="Grupo 258477" transform="translate(81.882 68.541)" opacity="0.46" style="mix-blend-mode: soft-light;isolation: isolate">
              <g id="Grupo_258476" data-name="Grupo 258476">
                <g id="Grupo_258475" data-name="Grupo 258475" clip-path="url(#clip-path-9)">
                  <path id="Trazado_277078" data-name="Trazado 277078" d="M98.957,87.613l3.424-3.1-.9-2.587Z" transform="translate(-98.957 -81.924)" fill="#0f0f0f"/>
                </g>
              </g>
            </g>
            <g id="Grupo_258480" data-name="Grupo 258480" transform="translate(85.995 68.269)" opacity="0.46" style="mix-blend-mode: soft-light;isolation: isolate">
              <g id="Grupo_258479" data-name="Grupo 258479">
                <g id="Grupo_258478" data-name="Grupo 258478" clip-path="url(#clip-path-10)">
                  <path id="Trazado_277079" data-name="Trazado 277079" d="M104.2,81.6a26.232,26.232,0,0,1-.276,2.65l4.006,2.673Z" transform="translate(-103.928 -81.599)" fill="#0f0f0f"/>
                </g>
              </g>
            </g>
            <line id="Línea_992" data-name="Línea 992" x1="3.807" y2="13.641" transform="translate(120.009 100.61)" fill="none" stroke="#000" stroke-linecap="round" stroke-miterlimit="10" stroke-width="1.152"/>
            <path id="Trazado_277080" data-name="Trazado 277080" d="M60.11,172.616c-3.266,9.083-5.96,21.087-2.285,52.05,4.678,39.416-14.719,57.818-21.012,65.393-8.575,10.321-19.9,21.619-19.9,21.619A104.871,104.871,0,0,0,30.55,327.062S75.841,301.008,90.1,264.526l.039,79.644s14.436.662,22.4-1.049c0,0,13.314-56.581,9.918-107.237-2.923-43.586-15.314-66-15.314-66s-43.631-6.746-47.04,2.732" transform="translate(-2.919 -27.372)" fill="#1c2443"/>
            <path id="Trazado_277081" data-name="Trazado 277081" d="M67.856,175.17l-.923-6.761,53.494-.466-1.844,8.043Z" transform="translate(-11.55 -27.435)" fill="#1c2443"/>
            <path id="Trazado_277082" data-name="Trazado 277082" d="M111.141,231.093c1.117,14.682.333,31.1-5.773,43.812" transform="translate(-18.182 -37.751)" fill="none" stroke="#4a4d4f" stroke-linecap="round" stroke-miterlimit="10" stroke-width="1.285"/>
            <line id="Línea_993" data-name="Línea 993" x2="50.727" y2="0.816" transform="translate(56.306 147.735)" fill="none" stroke="#4a4d4f" stroke-linecap="round" stroke-miterlimit="10" stroke-width="1.285"/>
            <path id="Trazado_277083" data-name="Trazado 277083" d="M117.565,177.658s2.253,26.008,17.461,28.1" transform="translate(-20.286 -29.022)" fill="none" stroke="#4a4d4f" stroke-linecap="round" stroke-miterlimit="10" stroke-width="1.285"/>
            <path id="Trazado_277084" data-name="Trazado 277084" d="M81.517,176.977s1.314,30.753-11.828,33.98" transform="translate(-12.025 -28.911)" fill="none" stroke="#4a4d4f" stroke-linecap="round" stroke-miterlimit="10" stroke-width="1.285"/>
            <path id="Trazado_277085" data-name="Trazado 277085" d="M63.458,177.431s-5.069,28.855-1.5,40.435,6.179,37.4,3.943,44.611c-4.939,15.929-27.168,37.9-45.38,53.463" transform="translate(-3.54 -28.985)" fill="none" stroke="#4a4d4f" stroke-linecap="round" stroke-miterlimit="10" stroke-width="1.285"/>
            <path id="Trazado_277086" data-name="Trazado 277086" d="M122.651,156.294c.988.056,1.975.128,2.961.2,2.882-40.33-4.137-79.627-4.137-79.627l-3.051,2.452c5.524,26.586,4.759,62.511,4.227,76.97" transform="translate(-20.434 -12.558)" fill="#1c2443"/>
            <path id="Trazado_277087" data-name="Trazado 277087" d="M77.974,155.962q1.473-.005,2.943.048c2.534-49.021-4.337-81.25-4.337-81.25l-2.82,1.817c5.614,27.021,4.777,65.145,4.213,79.385" transform="translate(-12.728 -12.213)" fill="#1c2443"/>
            <path id="Trazado_277088" data-name="Trazado 277088" d="M104.971,326.626l30.01,1.4-4.942,36.487s8.251,5.578,8.078,10.108l-33.939-.424Z" transform="translate(-17.976 -53.357)" fill="#3c5523"/>
            <path id="Trazado_277089" data-name="Trazado 277089" d="M112.611,381.331s4.831-10.134,18.882-9.43" transform="translate(-19.431 -60.747)" fill="none" stroke="#000" stroke-linecap="round" stroke-miterlimit="10" stroke-width="1.039"/>
            <path id="Trazado_277090" data-name="Trazado 277090" d="M39.436,305.181l19.724,22.04-29.311,22.5s1.753,9.878-1.594,12.9L5.008,337.61Z" transform="translate(-0.864 -49.854)" fill="#3c5523"/>
            <path id="Trazado_277091" data-name="Trazado 277091" d="M11.078,349.7s10.57-3.515,19.818,7.205" transform="translate(-1.912 -57.035)" fill="none" stroke="#000" stroke-linecap="round" stroke-miterlimit="10" stroke-width="1.039"/>
            <path id="Trazado_277092" data-name="Trazado 277092" d="M37.278,244.037s3.4-39.276,24.976-40.325c18.978-.923,18.555,40.308,18.555,40.308" transform="translate(-6.432 -33.275)" fill="none" stroke="#263d48" stroke-miterlimit="10" stroke-width="2.644"/>
            <path id="Trazado_277093" data-name="Trazado 277093" d="M33.646,251.8s4.126-5.235,24.563-3.768,27.563,2.159,25.9,3.768-31.211,3.116-50.468,0" transform="translate(-5.806 -40.476)" fill="#384d55"/>
            <path id="Trazado_277094" data-name="Trazado 277094" d="M71.492,196.9c3.9,1.082-.609,4.432-4.918,2.657,0,0,5.652,6.062,3.981,7.741-.948.952-2.483.012-2.483.012s.509,1.785-.515,2.368-2.439-1-2.439-1,.961,2.485-.249,3.067c-1.028.494-4.236-3.616-4.236-3.616s1.691,2.745.633,3.175c-.959.39-2.871-1.333-4.082-3.09a36.762,36.762,0,0,1-6.139-14.128l11.56-6.047a12.667,12.667,0,0,0,8.887,8.863" transform="translate(-8.808 -30.718)" fill="#fdd4c5"/>
            <path id="Trazado_277095" data-name="Trazado 277095" d="M74.514,232.043a17.509,17.509,0,0,1,3.306,6.012c.041.13.244.074.2-.057a17.786,17.786,0,0,0-3.359-6.106c-.088-.1-.236.047-.149.151" transform="translate(-12.853 -37.876)" fill="#c97420"/>
            <path id="Trazado_277096" data-name="Trazado 277096" d="M80.473,242.063a6.54,6.54,0,0,1-3.349-3.445,12.9,12.9,0,0,1-.944-4.718,5.41,5.41,0,0,1,3.565,3.124,9.041,9.041,0,0,1,.544,4.728" transform="translate(-13.145 -38.209)" fill="#fab553"/>
            <path id="Trazado_277097" data-name="Trazado 277097" d="M94.242,239.127a18.824,18.824,0,0,0-7.32,2.394.106.106,0,0,0,.106.184,18.554,18.554,0,0,1,7.215-2.364c.132-.017.134-.23,0-.213" transform="translate(-14.99 -39.063)" fill="#c97420"/>
            <path id="Trazado_277098" data-name="Trazado 277098" d="M81.352,242.863a8.233,8.233,0,0,0,5.632-.3,11.332,11.332,0,0,0,3.954-3.053,7.1,7.1,0,0,0-5.654-.115,7.7,7.7,0,0,0-3.548,3.35" transform="translate(-14.038 -39.021)" fill="#fab553"/>
            <path id="Trazado_277099" data-name="Trazado 277099" d="M76.909,224.434A17.513,17.513,0,0,1,80.3,230.54c.041.13.244.074.2-.057a17.792,17.792,0,0,0-3.441-6.2c-.089-.1-.237.047-.149.151" transform="translate(-13.266 -36.633)" fill="#c97420"/>
            <path id="Trazado_277100" data-name="Trazado 277100" d="M82.965,234.567a6.54,6.54,0,0,1-3.349-3.445,12.88,12.88,0,0,1-.944-4.718,5.409,5.409,0,0,1,3.565,3.125,9.037,9.037,0,0,1,.544,4.727" transform="translate(-13.575 -36.985)" fill="#fab553"/>
            <path id="Trazado_277101" data-name="Trazado 277101" d="M96.734,231.632a18.809,18.809,0,0,0-7.32,2.394.106.106,0,0,0,.106.184,18.57,18.57,0,0,1,7.215-2.365c.132-.016.134-.229,0-.212" transform="translate(-15.42 -37.839)" fill="#c97420"/>
            <path id="Trazado_277102" data-name="Trazado 277102" d="M83.844,235.367a8.233,8.233,0,0,0,5.632-.3,11.327,11.327,0,0,0,3.955-3.053,7.1,7.1,0,0,0-5.654-.115,7.7,7.7,0,0,0-3.548,3.35" transform="translate(-14.468 -37.796)" fill="#fab553"/>
            <path id="Trazado_277103" data-name="Trazado 277103" d="M79.31,216.94a17.533,17.533,0,0,1,3.492,6.229c.041.131.244.074.2-.056a17.8,17.8,0,0,0-3.546-6.323c-.089-.1-.238.048-.149.151" transform="translate(-13.681 -35.409)" fill="#c97420"/>
            <path id="Trazado_277104" data-name="Trazado 277104" d="M85.494,227.219a6.54,6.54,0,0,1-3.349-3.445,12.88,12.88,0,0,1-.944-4.718,5.41,5.41,0,0,1,3.565,3.125,9.037,9.037,0,0,1,.544,4.727" transform="translate(-14.011 -35.784)" fill="#fab553"/>
            <path id="Trazado_277105" data-name="Trazado 277105" d="M99.263,224.283a18.811,18.811,0,0,0-7.32,2.394.106.106,0,0,0,.106.184,18.555,18.555,0,0,1,7.214-2.365c.132-.017.134-.229,0-.213" transform="translate(-15.856 -36.638)" fill="#c97420"/>
            <path id="Trazado_277106" data-name="Trazado 277106" d="M86.373,228.019a8.233,8.233,0,0,0,5.632-.3,11.335,11.335,0,0,0,3.955-3.053,7.1,7.1,0,0,0-5.654-.115,7.7,7.7,0,0,0-3.548,3.35" transform="translate(-14.904 -36.596)" fill="#fab553"/>
            <path id="Trazado_277107" data-name="Trazado 277107" d="M82.69,210.944a15.084,15.084,0,0,1,3.186,5.562c.041.131.244.075.2-.056a15.351,15.351,0,0,0-3.241-5.657c-.091-.1-.24.049-.149.151" transform="translate(-14.264 -34.429)" fill="#c97420"/>
            <path id="Trazado_277108" data-name="Trazado 277108" d="M88.249,220.031a5.623,5.623,0,0,1-2.881-2.964,11.075,11.075,0,0,1-.813-4.06,4.654,4.654,0,0,1,3.068,2.689,7.776,7.776,0,0,1,.468,4.068" transform="translate(-14.59 -34.796)" fill="#fab553"/>
            <path id="Trazado_277109" data-name="Trazado 277109" d="M100.306,217.459a16.282,16.282,0,0,0-6.519,2.086.106.106,0,0,0,.107.184,16.033,16.033,0,0,1,6.413-2.057c.133-.014.135-.228,0-.212" transform="translate(-16.174 -35.523)" fill="#c97420"/>
            <path id="Trazado_277110" data-name="Trazado 277110" d="M89,220.72a7.077,7.077,0,0,0,4.846-.255,9.748,9.748,0,0,0,3.4-2.626,6.11,6.11,0,0,0-4.865-.1,6.618,6.618,0,0,0-3.053,2.882" transform="translate(-15.358 -35.495)" fill="#fab553"/>
            <path id="Trazado_277111" data-name="Trazado 277111" d="M86.983,207.17a12,12,0,0,1,2.424,4.3c.041.131.244.074.2-.056a12.259,12.259,0,0,0-2.478-4.395c-.09-.1-.238.049-.149.151" transform="translate(-15.004 -33.813)" fill="#c97420"/>
            <path id="Trazado_277112" data-name="Trazado 277112" d="M91.3,214.255a4.485,4.485,0,0,1-2.3-2.364,8.848,8.848,0,0,1-.648-3.236A3.709,3.709,0,0,1,90.8,210.8a6.2,6.2,0,0,1,.374,3.242" transform="translate(-15.246 -34.085)" fill="#fab553"/>
            <path id="Trazado_277113" data-name="Trazado 277113" d="M101.234,212.141a13.123,13.123,0,0,0-5.534,1.7.106.106,0,0,0,.106.184,12.876,12.876,0,0,1,5.428-1.668c.134-.012.135-.224,0-.213" transform="translate(-16.505 -34.655)" fill="#c97420"/>
            <path id="Trazado_277114" data-name="Trazado 277114" d="M91.9,214.8a5.646,5.646,0,0,0,3.863-.2,7.771,7.771,0,0,0,2.713-2.094,4.874,4.874,0,0,0-3.878-.079,5.286,5.286,0,0,0-2.434,2.3" transform="translate(-15.858 -34.642)" fill="#fab553"/>
            <path id="Trazado_277115" data-name="Trazado 277115" d="M90.349,202.4a10.462,10.462,0,0,1,2.275,3.927c.041.131.244.074.2-.055a10.709,10.709,0,0,0-2.328-4.023c-.093-.1-.241.05-.149.151" transform="translate(-15.585 -33.033)" fill="#c97420"/>
            <path id="Trazado_277116" data-name="Trazado 277116" d="M94.325,208.787a3.917,3.917,0,0,1-2-2.062,7.721,7.721,0,0,1-.565-2.825,3.235,3.235,0,0,1,2.135,1.87,5.416,5.416,0,0,1,.326,2.83" transform="translate(-15.833 -33.309)" fill="#fab553"/>
            <path id="Trazado_277117" data-name="Trazado 277117" d="M103.08,206.917a11.492,11.492,0,0,0-4.924,1.491.106.106,0,0,0,.107.184,11.252,11.252,0,0,1,4.817-1.462c.134-.011.135-.223,0-.213" transform="translate(-16.928 -33.801)" fill="#c97420"/>
            <path id="Trazado_277118" data-name="Trazado 277118" d="M94.851,209.266a4.93,4.93,0,0,0,3.372-.177,6.78,6.78,0,0,0,2.368-1.827,4.252,4.252,0,0,0-3.385-.069,4.606,4.606,0,0,0-2.124,2.005" transform="translate(-16.367 -33.794)" fill="#fab553"/>
            <path id="Trazado_277119" data-name="Trazado 277119" d="M71.967,239.291a17.623,17.623,0,0,1,3.84,5.941c.049.126.252.071.2-.056a17.884,17.884,0,0,0-3.894-6.036c-.1-.1-.244.053-.149.151" transform="translate(-12.413 -39.06)" fill="#c97420"/>
            <path id="Trazado_277120" data-name="Trazado 277120" d="M78.751,249.106a6.58,6.58,0,0,1-3.569-3.234,12.912,12.912,0,0,1-1.254-4.651,5.442,5.442,0,0,1,3.764,2.9,9.058,9.058,0,0,1,.856,4.685" transform="translate(-12.757 -39.405)" fill="#fab553"/>
            <path id="Trazado_277121" data-name="Trazado 277121" d="M91.879,245.354a18.494,18.494,0,0,0-6.685,2.748c-.112.075-.007.26.106.183a18.371,18.371,0,0,1,6.635-2.727c.132-.027.076-.233-.056-.2" transform="translate(-14.692 -40.08)" fill="#c97420"/>
            <path id="Trazado_277122" data-name="Trazado 277122" d="M79.739,249.773a8.212,8.212,0,0,0,5.6-.641,11.265,11.265,0,0,0,3.744-3.29,7.091,7.091,0,0,0-5.648.232,7.639,7.639,0,0,0-3.319,3.562" transform="translate(-13.759 -40.082)" fill="#fab553"/>
            <path id="Trazado_277123" data-name="Trazado 277123" d="M70.969,248.1a15.458,15.458,0,0,1,3.669,4.76c.061.122.242.015.182-.108a15.617,15.617,0,0,0-3.7-4.8c-.1-.09-.252.06-.149.151" transform="translate(-12.24 -40.5)" fill="#c97420"/>
            <path id="Trazado_277124" data-name="Trazado 277124" d="M77.473,255.958a5.766,5.766,0,0,1-3.343-2.534,11.335,11.335,0,0,1-1.455-3.932,4.761,4.761,0,0,1,3.485,2.231,7.893,7.893,0,0,1,1.112,3.991" transform="translate(-12.54 -40.756)" fill="#fab553"/>
            <path id="Trazado_277125" data-name="Trazado 277125" d="M88.945,251.512a16.135,16.135,0,0,0-5.958,2.991c-.105.085.045.235.149.151A15.891,15.891,0,0,1,89,251.717a.106.106,0,0,0-.055-.2" transform="translate(-14.314 -41.086)" fill="#c97420"/>
            <path id="Trazado_277126" data-name="Trazado 277126" d="M78.456,256.365a7.1,7.1,0,0,0,4.792-.968,9.672,9.672,0,0,0,2.976-3.122,6.145,6.145,0,0,0-4.865.617,6.571,6.571,0,0,0-2.587,3.327" transform="translate(-13.538 -41.171)" fill="#fab553"/>
            <path id="Trazado_277127" data-name="Trazado 277127" d="M70.206,255.006a14.449,14.449,0,0,1,3.642,4.393c.065.12.246.013.182-.107a14.6,14.6,0,0,0-3.676-4.437c-.105-.084-.255.064-.149.151" transform="translate(-12.108 -41.628)" fill="#c97420"/>
            <path id="Trazado_277128" data-name="Trazado 277128" d="M76.608,262.215a5.389,5.389,0,0,1-3.187-2.265,10.556,10.556,0,0,1-1.471-3.619,4.449,4.449,0,0,1,3.31,1.98,7.371,7.371,0,0,1,1.156,3.683" transform="translate(-12.415 -41.874)" fill="#fab553"/>
            <path id="Trazado_277129" data-name="Trazado 277129" d="M87.168,257.715a14.988,14.988,0,0,0-5.456,2.952c-.1.09.046.239.149.151a14.735,14.735,0,0,1,5.363-2.9c.129-.039.074-.245-.056-.2" transform="translate(-14.094 -42.099)" fill="#c97420"/>
            <path id="Trazado_277130" data-name="Trazado 277130" d="M77.564,262.534a6.6,6.6,0,0,0,4.429-1.036,8.967,8.967,0,0,0,2.675-2.989,5.717,5.717,0,0,0-4.509.71,6.1,6.1,0,0,0-2.307,3.169" transform="translate(-13.384 -42.2)" fill="#fab553"/>
            <path id="Trazado_277131" data-name="Trazado 277131" d="M93.913,203.68c.266.158-1.527,3.527-3.9,9.194L89.09,215.1l-.933,2.441c-.674,1.674-1.269,3.513-1.964,5.419-1.289,3.852-2.6,8.122-3.833,12.651-1.207,4.538-2.227,8.9-3.1,12.874-.838,3.986-1.573,7.583-2.124,10.619-1.135,6.066-1.787,9.838-2.069,9.8-.248-.029-.076-3.868.718-10.023.381-3.081.981-6.727,1.729-10.764.786-4.029,1.763-8.44,2.982-13.023,1.242-4.576,2.624-8.88,4.021-12.745.749-1.914,1.408-3.752,2.156-5.422L87.72,214.5l1.053-2.2c2.721-5.593,4.95-8.74,5.14-8.62" transform="translate(-12.935 -33.272)" fill="#c97420"/>
            <path id="Trazado_277132" data-name="Trazado 277132" d="M46.31,248.749a17.335,17.335,0,0,1,5.392,4.239c.088.1.237-.047.149-.151a17.486,17.486,0,0,0-5.435-4.273c-.121-.061-.228.123-.106.184" transform="translate(-7.982 -40.603)" fill="#c97420"/>
            <path id="Trazado_277133" data-name="Trazado 277133" d="M55.689,255.62a6.468,6.468,0,0,1-4.416-1.845,12.8,12.8,0,0,1-2.7-3.967,5.349,5.349,0,0,1,4.491,1.463,8.962,8.962,0,0,1,2.332,4.135" transform="translate(-8.382 -40.797)" fill="#fab553"/>
            <path id="Trazado_277134" data-name="Trazado 277134" d="M67.429,246.963a18.957,18.957,0,0,0-5.8,5.1c-.081.11.1.216.182.107a18.711,18.711,0,0,1,5.728-5.027.106.106,0,0,0-.106-.184" transform="translate(-10.63 -40.341)" fill="#c97420"/>
            <path id="Trazado_277135" data-name="Trazado 277135" d="M57.151,255.419a8.284,8.284,0,0,0,5.068-2.5,11.482,11.482,0,0,0,2.458-4.374,7.133,7.133,0,0,0-5.248,2.131,7.787,7.787,0,0,0-1.968,4.488" transform="translate(-9.862 -40.601)" fill="#fab553"/>
            <path id="Trazado_277136" data-name="Trazado 277136" d="M45.535,240.81a17.33,17.33,0,0,1,5.5,4.294c.089.1.237-.047.149-.151a17.479,17.479,0,0,0-5.545-4.328c-.121-.06-.228.124-.106.184" transform="translate(-7.848 -39.306)" fill="#c97420"/>
            <path id="Trazado_277137" data-name="Trazado 277137" d="M55.047,247.747a6.461,6.461,0,0,1-4.415-1.845,12.768,12.768,0,0,1-2.7-3.967,5.352,5.352,0,0,1,4.491,1.463,8.969,8.969,0,0,1,2.332,4.135" transform="translate(-8.272 -39.511)" fill="#fab553"/>
            <path id="Trazado_277138" data-name="Trazado 277138" d="M66.788,239.09a18.958,18.958,0,0,0-5.8,5.1c-.081.11.1.216.182.107a18.712,18.712,0,0,1,5.728-5.027.106.106,0,0,0-.106-.184" transform="translate(-10.52 -39.055)" fill="#c97420"/>
            <path id="Trazado_277139" data-name="Trazado 277139" d="M56.51,247.546a8.282,8.282,0,0,0,5.068-2.5,11.482,11.482,0,0,0,2.458-4.374,7.133,7.133,0,0,0-5.247,2.131,7.782,7.782,0,0,0-1.968,4.488" transform="translate(-9.751 -39.315)" fill="#fab553"/>
            <path id="Trazado_277140" data-name="Trazado 277140" d="M44.81,232.974a17.348,17.348,0,0,1,5.647,4.366c.088.1.237-.048.148-.151a17.487,17.487,0,0,0-5.69-4.4c-.121-.059-.228.125-.106.184" transform="translate(-7.723 -38.026)" fill="#c97420"/>
            <path id="Trazado_277141" data-name="Trazado 277141" d="M54.5,239.995a6.461,6.461,0,0,1-4.415-1.845,12.767,12.767,0,0,1-2.7-3.967,5.352,5.352,0,0,1,4.491,1.463,8.97,8.97,0,0,1,2.332,4.135" transform="translate(-8.177 -38.244)" fill="#fab553"/>
            <path id="Trazado_277142" data-name="Trazado 277142" d="M66.238,231.338a18.958,18.958,0,0,0-5.8,5.1c-.081.11.1.216.182.107a18.712,18.712,0,0,1,5.728-5.027.106.106,0,0,0-.106-.184" transform="translate(-10.425 -37.788)" fill="#c97420"/>
            <path id="Trazado_277143" data-name="Trazado 277143" d="M55.96,239.794a8.282,8.282,0,0,0,5.068-2.5,11.482,11.482,0,0,0,2.458-4.374,7.133,7.133,0,0,0-5.247,2.131,7.782,7.782,0,0,0-1.969,4.488" transform="translate(-9.656 -38.049)" fill="#fab553"/>
            <path id="Trazado_277144" data-name="Trazado 277144" d="M45.572,226.133a14.922,14.922,0,0,1,5.108,3.874c.089.1.237-.047.149-.151a15.093,15.093,0,0,0-5.151-3.905c-.122-.056-.229.127-.106.183" transform="translate(-7.854 -36.909)" fill="#c97420"/>
            <path id="Trazado_277145" data-name="Trazado 277145" d="M54.223,232.307a5.559,5.559,0,0,1-3.8-1.587,11,11,0,0,1-2.32-3.414,4.6,4.6,0,0,1,3.864,1.26,7.717,7.717,0,0,1,2.007,3.557" transform="translate(-8.301 -37.122)" fill="#fab553"/>
            <path id="Trazado_277146" data-name="Trazado 277146" d="M64.5,224.715a16.4,16.4,0,0,0-5.186,4.5c-.081.11.1.216.181.107a16.169,16.169,0,0,1,5.11-4.427.106.106,0,0,0-.106-.184" transform="translate(-10.232 -36.707)" fill="#c97420"/>
            <path id="Trazado_277147" data-name="Trazado 277147" d="M55.481,232.134a7.13,7.13,0,0,0,4.361-2.153,9.878,9.878,0,0,0,2.115-3.764,6.137,6.137,0,0,0-4.515,1.834,6.7,6.7,0,0,0-1.693,3.861" transform="translate(-9.573 -36.954)" fill="#fab553"/>
            <path id="Trazado_277148" data-name="Trazado 277148" d="M48.046,220.98a11.866,11.866,0,0,1,3.917,3.014c.089.1.237-.047.149-.151a12.025,12.025,0,0,0-3.96-3.047c-.122-.059-.228.126-.106.184" transform="translate(-8.281 -36.067)" fill="#c97420"/>
            <path id="Trazado_277149" data-name="Trazado 277149" d="M54.776,225.8a4.431,4.431,0,0,1-3.028-1.265,8.753,8.753,0,0,1-1.849-2.722,3.668,3.668,0,0,1,3.081,1,6.154,6.154,0,0,1,1.6,2.835" transform="translate(-8.61 -36.228)" fill="#fab553"/>
            <path id="Trazado_277150" data-name="Trazado 277150" d="M63.243,219.538a13.221,13.221,0,0,0-4.43,3.756c-.08.11.1.217.182.108a12.975,12.975,0,0,1,4.354-3.68c.12-.064.014-.248-.106-.184" transform="translate(-10.145 -35.861)" fill="#c97420"/>
            <path id="Trazado_277151" data-name="Trazado 277151" d="M55.779,225.665a5.677,5.677,0,0,0,3.476-1.716,7.877,7.877,0,0,0,1.686-3,4.893,4.893,0,0,0-3.6,1.462,5.34,5.34,0,0,0-1.35,3.079" transform="translate(-9.625 -36.093)" fill="#fab553"/>
            <path id="Trazado_277152" data-name="Trazado 277152" d="M49.274,215.269A10.369,10.369,0,0,1,52.909,218c.089.1.237-.047.149-.15a10.51,10.51,0,0,0-3.678-2.763c-.122-.055-.229.128-.106.184" transform="translate(-8.493 -35.134)" fill="#c97420"/>
            <path id="Trazado_277153" data-name="Trazado 277153" d="M55.422,219.589a3.871,3.871,0,0,1-2.644-1.1,7.653,7.653,0,0,1-1.614-2.375,3.2,3.2,0,0,1,2.688.876,5.369,5.369,0,0,1,1.4,2.475" transform="translate(-8.829 -35.296)" fill="#fab553"/>
            <path id="Trazado_277154" data-name="Trazado 277154" d="M62.879,214.059a11.579,11.579,0,0,0-3.949,3.324c-.081.11.1.217.182.108a11.342,11.342,0,0,1,3.872-3.248c.12-.064.014-.248-.106-.184" transform="translate(-10.165 -34.966)" fill="#c97420"/>
            <path id="Trazado_277155" data-name="Trazado 277155" d="M56.3,219.47a4.957,4.957,0,0,0,3.034-1.5,6.865,6.865,0,0,0,1.471-2.619,4.272,4.272,0,0,0-3.141,1.276,4.661,4.661,0,0,0-1.178,2.687" transform="translate(-9.714 -35.179)" fill="#fab553"/>
            <path id="Trazado_277156" data-name="Trazado 277156" d="M46.83,256.425a17.407,17.407,0,0,1,5.831,3.952c.094.1.243-.053.149-.151a17.661,17.661,0,0,0-5.924-4.007c-.126-.052-.18.154-.056.205" transform="translate(-8.069 -41.854)" fill="#c97420"/>
            <path id="Trazado_277157" data-name="Trazado 277157" d="M56.863,262.762a6.51,6.51,0,0,1-4.536-1.562,12.81,12.81,0,0,1-2.955-3.783,5.388,5.388,0,0,1,4.587,1.178,8.986,8.986,0,0,1,2.6,3.971" transform="translate(-8.519 -42.03)" fill="#fab553"/>
            <path id="Trazado_277158" data-name="Trazado 277158" d="M67.746,253.651a18.73,18.73,0,0,0-5.106,5.193c-.074.115.108.223.182.108a18.454,18.454,0,0,1,5.03-5.117c.111-.078.006-.262-.106-.184" transform="translate(-10.806 -41.433)" fill="#c97420"/>
            <path id="Trazado_277159" data-name="Trazado 277159" d="M58.4,262.4a8.274,8.274,0,0,0,4.9-2.807,11.408,11.408,0,0,0,2.172-4.51,7.137,7.137,0,0,0-5.108,2.449,7.726,7.726,0,0,0-1.675,4.592" transform="translate(-10.078 -41.669)" fill="#fab553"/>
            <path id="Trazado_277160" data-name="Trazado 277160" d="M49.361,264.923a15.257,15.257,0,0,1,5.2,2.913c.1.088.252-.062.149-.151a15.494,15.494,0,0,0-5.289-2.968c-.129-.043-.185.163-.056.2" transform="translate(-8.505 -43.243)" fill="#c97420"/>
            <path id="Trazado_277161" data-name="Trazado 277161" d="M58.374,269.552a5.713,5.713,0,0,1-4.057-1.009,11.163,11.163,0,0,1-2.86-3.043,4.724,4.724,0,0,1,4.071.674,7.823,7.823,0,0,1,2.568,3.231" transform="translate(-8.879 -43.338)" fill="#fab553"/>
            <path id="Trazado_277162" data-name="Trazado 277162" d="M67.457,260.546a16.252,16.252,0,0,0-4.308,5.088c-.063.121.118.228.182.108a16.1,16.1,0,0,1,4.275-5.045c.106-.085-.044-.234-.149-.151" transform="translate(-10.894 -42.558)" fill="#c97420"/>
            <path id="Trazado_277163" data-name="Trazado 277163" d="M59.8,269.045a7.171,7.171,0,0,0,4.035-2.787,9.8,9.8,0,0,0,1.53-4.052,6.193,6.193,0,0,0-4.239,2.494,6.635,6.635,0,0,0-1.092,4.084" transform="translate(-10.319 -42.833)" fill="#fab553"/>
            <path id="Trazado_277164" data-name="Trazado 277164" d="M51.362,271.573a14.249,14.249,0,0,1,5.03,2.587c.1.085.255-.065.149-.151a14.508,14.508,0,0,0-5.123-2.641.106.106,0,0,0-.056.2" transform="translate(-8.85 -44.329)" fill="#c97420"/>
            <path id="Trazado_277165" data-name="Trazado 277165" d="M60.031,275.643a5.338,5.338,0,0,1-3.81-.822,10.439,10.439,0,0,1-2.755-2.747,4.415,4.415,0,0,1,3.812.51,7.3,7.3,0,0,1,2.49,2.932" transform="translate(-9.226 -44.408)" fill="#fab553"/>
            <path id="Trazado_277166" data-name="Trazado 277166" d="M68.248,266.991a15.1,15.1,0,0,0-3.862,4.853c-.06.123.122.231.181.108a14.949,14.949,0,0,1,3.829-4.811c.1-.088-.046-.238-.149-.151" transform="translate(-11.108 -43.611)" fill="#c97420"/>
            <path id="Trazado_277167" data-name="Trazado 277167" d="M61.383,275.111a6.67,6.67,0,0,0,3.675-2.706,9.08,9.08,0,0,0,1.3-3.81,5.76,5.76,0,0,0-3.874,2.439,6.156,6.156,0,0,0-.9,3.828" transform="translate(-10.592 -43.877)" fill="#fab553"/>
            <path id="Trazado_277168" data-name="Trazado 277168" d="M56.379,213.525c.306.04-.04,3.851-.026,10q0,1.155.009,2.414.042,1.259.088,2.615c.027,1.806.191,3.735.29,5.764.305,4.055.75,8.5,1.372,13.159.646,4.653,1.4,9.067,2.129,13.074.773,4,1.489,7.6,2.157,10.613,1.3,6.031,2.165,9.76,1.893,9.84-.24.071-1.568-3.529-3.22-9.508-.842-2.984-1.7-6.578-2.577-10.589-.837-4.018-1.646-8.464-2.3-13.164-.629-4.7-1.024-9.211-1.235-13.319-.052-2.058-.157-4.011-.116-5.843q.012-1.372.024-2.649.06-1.271.116-2.441c.339-6.225,1.171-10,1.393-9.967" transform="translate(-9.462 -34.881)" fill="#c97420"/>
            <path id="Trazado_277169" data-name="Trazado 277169" d="M56.374,255.886a17.452,17.452,0,0,1,4.4,5.283c.065.12.247.013.181-.107a17.591,17.591,0,0,0-4.43-5.327c-.105-.085-.255.065-.149.151" transform="translate(-9.721 -41.772)" fill="#c97420"/>
            <path id="Trazado_277170" data-name="Trazado 277170" d="M64.131,264.592a6.5,6.5,0,0,1-3.937-2.737,12.842,12.842,0,0,1-1.816-4.449,5.379,5.379,0,0,1,4.089,2.38,9.012,9.012,0,0,1,1.426,4.535" transform="translate(-10.073 -42.049)" fill="#fab553"/>
            <path id="Trazado_277171" data-name="Trazado 277171" d="M77.193,258.8a18.877,18.877,0,0,0-6.732,3.764c-.1.09.048.24.149.15a18.628,18.628,0,0,1,6.639-3.709c.128-.042.073-.247-.056-.2" transform="translate(-12.152 -42.276)" fill="#c97420"/>
            <path id="Trazado_277172" data-name="Trazado 277172" d="M65.312,264.943a8.246,8.246,0,0,0,5.473-1.376,11.414,11.414,0,0,0,3.307-3.759,7.109,7.109,0,0,0-5.572.976,7.737,7.737,0,0,0-2.851,3.972" transform="translate(-11.27 -42.41)" fill="#fab553"/>
            <path id="Trazado_277173" data-name="Trazado 277173" d="M57.274,247.96a17.443,17.443,0,0,1,4.495,5.361c.065.12.247.013.182-.108a17.613,17.613,0,0,0-4.528-5.4c-.105-.084-.255.066-.149.151" transform="translate(-9.877 -40.477)" fill="#c97420"/>
            <path id="Trazado_277174" data-name="Trazado 277174" d="M65.148,256.758a6.5,6.5,0,0,1-3.937-2.736,12.842,12.842,0,0,1-1.816-4.449,5.38,5.38,0,0,1,4.089,2.38,9.012,9.012,0,0,1,1.426,4.535" transform="translate(-10.249 -40.77)" fill="#fab553"/>
            <path id="Trazado_277175" data-name="Trazado 277175" d="M78.21,250.969a18.877,18.877,0,0,0-6.732,3.764c-.1.09.048.24.149.15a18.627,18.627,0,0,1,6.639-3.709c.128-.042.073-.247-.056-.2" transform="translate(-12.328 -40.997)" fill="#c97420"/>
            <path id="Trazado_277176" data-name="Trazado 277176" d="M66.329,257.11a8.241,8.241,0,0,0,5.473-1.377,11.4,11.4,0,0,0,3.307-3.758,7.109,7.109,0,0,0-5.571.976,7.739,7.739,0,0,0-2.852,3.973" transform="translate(-11.445 -41.13)" fill="#fab553"/>
            <path id="Trazado_277177" data-name="Trazado 277177" d="M58.2,240.145a17.457,17.457,0,0,1,4.621,5.461c.065.12.247.013.182-.107a17.6,17.6,0,0,0-4.654-5.5c-.106-.083-.256.067-.149.151" transform="translate(-10.037 -39.201)" fill="#c97420"/>
            <path id="Trazado_277178" data-name="Trazado 277178" d="M66.229,249.063a6.5,6.5,0,0,1-3.937-2.737,12.842,12.842,0,0,1-1.816-4.449,5.378,5.378,0,0,1,4.089,2.38,9.012,9.012,0,0,1,1.426,4.535" transform="translate(-10.435 -39.512)" fill="#fab553"/>
            <path id="Trazado_277179" data-name="Trazado 277179" d="M79.292,243.273a18.877,18.877,0,0,0-6.732,3.764c-.1.09.048.24.149.15a18.628,18.628,0,0,1,6.639-3.709c.128-.042.073-.247-.056-.2" transform="translate(-12.515 -39.74)" fill="#c97420"/>
            <path id="Trazado_277180" data-name="Trazado 277180" d="M67.41,249.414a8.246,8.246,0,0,0,5.473-1.376,11.414,11.414,0,0,0,3.307-3.759,7.109,7.109,0,0,0-5.571.976,7.739,7.739,0,0,0-2.852,3.973" transform="translate(-11.632 -39.873)" fill="#fab553"/>
            <path id="Trazado_277181" data-name="Trazado 277181" d="M60.4,233.629a14.978,14.978,0,0,1,4.175,4.848c.065.12.247.013.181-.107a15.213,15.213,0,0,0-4.251-4.925c-.108-.082-.213.1-.106.184" transform="translate(-10.415 -38.132)" fill="#c97420"/>
            <path id="Trazado_277182" data-name="Trazado 277182" d="M67.566,241.483a5.591,5.591,0,0,1-3.388-2.354,11.054,11.054,0,0,1-1.563-3.829,4.626,4.626,0,0,1,3.518,2.047,7.758,7.758,0,0,1,1.228,3.9" transform="translate(-10.804 -38.438)" fill="#fab553"/>
            <path id="Trazado_277183" data-name="Trazado 277183" d="M79,236.407a16.325,16.325,0,0,0-6,3.307c-.1.09.047.24.148.151a16.081,16.081,0,0,1,5.911-3.253c.129-.04.074-.246-.056-.2" transform="translate(-12.59 -38.618)" fill="#c97420"/>
            <path id="Trazado_277184" data-name="Trazado 277184" d="M68.582,241.785a7.092,7.092,0,0,0,4.709-1.185,9.813,9.813,0,0,0,2.846-3.234,6.114,6.114,0,0,0-4.794.84,6.663,6.663,0,0,0-2.454,3.419" transform="translate(-11.834 -38.748)" fill="#fab553"/>
            <path id="Trazado_277185" data-name="Trazado 277185" d="M63.9,229.1a11.909,11.909,0,0,1,3.188,3.757c.065.12.247.013.182-.107A12.147,12.147,0,0,0,64,228.921c-.107-.083-.212.1-.106.184" transform="translate(-11.018 -37.393)" fill="#c97420"/>
            <path id="Trazado_277186" data-name="Trazado 277186" d="M69.463,235.232a4.456,4.456,0,0,1-2.7-1.877,8.816,8.816,0,0,1-1.246-3.051,3.684,3.684,0,0,1,2.805,1.632,6.185,6.185,0,0,1,.979,3.111" transform="translate(-11.305 -37.622)" fill="#fab553"/>
            <path id="Trazado_277187" data-name="Trazado 277187" d="M78.884,231.048a13.144,13.144,0,0,0-5.109,2.736c-.1.09.047.24.149.151a12.912,12.912,0,0,1,5.017-2.681.106.106,0,0,0-.056-.205" transform="translate(-12.724 -37.743)" fill="#c97420"/>
            <path id="Trazado_277188" data-name="Trazado 277188" d="M70.273,235.473a5.654,5.654,0,0,0,3.754-.945A7.822,7.822,0,0,0,76.3,231.95a4.877,4.877,0,0,0-3.822.67,5.3,5.3,0,0,0-1.956,2.725" transform="translate(-12.126 -37.869)" fill="#fab553"/>
            <path id="Trazado_277189" data-name="Trazado 277189" d="M66.291,223.777a10.388,10.388,0,0,1,2.971,3.419c.065.12.247.013.182-.107a10.619,10.619,0,0,0-3.047-3.5c-.109-.08-.214.1-.106.184" transform="translate(-11.431 -36.522)" fill="#c97420"/>
            <path id="Trazado_277190" data-name="Trazado 277190" d="M71.392,229.289a3.887,3.887,0,0,1-2.357-1.638,7.7,7.7,0,0,1-1.088-2.664,3.217,3.217,0,0,1,2.448,1.425,5.391,5.391,0,0,1,.854,2.715" transform="translate(-11.724 -36.753)" fill="#fab553"/>
            <path id="Trazado_277191" data-name="Trazado 277191" d="M79.692,225.593a11.517,11.517,0,0,0-4.549,2.415c-.1.09.047.24.148.15a11.292,11.292,0,0,1,4.457-2.36.106.106,0,0,0-.056-.2" transform="translate(-12.96 -36.852)" fill="#c97420"/>
            <path id="Trazado_277192" data-name="Trazado 277192" d="M72.1,229.5a4.937,4.937,0,0,0,3.277-.824,6.835,6.835,0,0,0,1.98-2.251,4.254,4.254,0,0,0-3.335.585,4.631,4.631,0,0,0-1.708,2.379" transform="translate(-12.441 -36.969)" fill="#fab553"/>
            <path id="Trazado_277193" data-name="Trazado 277193" d="M55.279,263.5a17.494,17.494,0,0,1,4.888,5.094c.072.115.255.009.182-.107a17.752,17.752,0,0,0-4.964-5.171c-.112-.077-.217.107-.106.184" transform="translate(-9.53 -43.012)" fill="#c97420"/>
            <path id="Trazado_277194" data-name="Trazado 277194" d="M63.785,271.833a6.546,6.546,0,0,1-4.113-2.486,12.878,12.878,0,0,1-2.108-4.325,5.411,5.411,0,0,1,4.241,2.121,9.025,9.025,0,0,1,1.724,4.434" transform="translate(-9.933 -43.293)" fill="#fab553"/>
            <path id="Trazado_277195" data-name="Trazado 277195" d="M76.1,265.379a18.623,18.623,0,0,0-6.068,4c-.1.1.053.248.149.151a18.35,18.35,0,0,1,5.975-3.944c.123-.052.069-.258-.056-.2" transform="translate(-12.079 -43.35)" fill="#c97420"/>
            <path id="Trazado_277196" data-name="Trazado 277196" d="M65.062,272.028a8.235,8.235,0,0,0,5.376-1.709,11.33,11.33,0,0,0,3.056-3.951,7.108,7.108,0,0,0-5.5,1.316,7.692,7.692,0,0,0-2.586,4.137" transform="translate(-11.227 -43.496)" fill="#fab553"/>
            <path id="Trazado_277197" data-name="Trazado 277197" d="M55.979,272.34a15.322,15.322,0,0,1,4.482,3.945c.081.107.264,0,.181-.108a15.575,15.575,0,0,0-4.558-4.021.106.106,0,0,0-.106.184" transform="translate(-9.651 -44.456)" fill="#c97420"/>
            <path id="Trazado_277198" data-name="Trazado 277198" d="M63.839,278.8a5.74,5.74,0,0,1-3.76-1.844,11.267,11.267,0,0,1-2.169-3.579,4.742,4.742,0,0,1,3.843,1.519,7.87,7.87,0,0,1,1.844,3.7" transform="translate(-9.993 -44.654)" fill="#fab553"/>
            <path id="Trazado_277199" data-name="Trazado 277199" d="M74.382,272.026a16.145,16.145,0,0,0-5.264,4.065c-.087.1.061.255.149.15a16,16,0,0,1,5.221-4.031c.122-.061.016-.244-.106-.184" transform="translate(-11.922 -44.435)" fill="#c97420"/>
            <path id="Trazado_277200" data-name="Trazado 277200" d="M65.057,278.775a7.134,7.134,0,0,0,4.521-1.874,9.731,9.731,0,0,0,2.333-3.639,6.159,6.159,0,0,0-4.66,1.544,6.608,6.608,0,0,0-1.913,3.764" transform="translate(-11.226 -44.636)" fill="#fab553"/>
            <path id="Trazado_277201" data-name="Trazado 277201" d="M56.547,279.261a14.363,14.363,0,0,1,4.4,3.612c.086.106.234-.045.149-.151a14.523,14.523,0,0,0-4.446-3.645c-.119-.064-.226.12-.106.184" transform="translate(-9.748 -45.587)" fill="#c97420"/>
            <path id="Trazado_277202" data-name="Trazado 277202" d="M64.184,285.1a5.358,5.358,0,0,1-3.556-1.609,10.5,10.5,0,0,1-2.127-3.269,4.425,4.425,0,0,1,3.623,1.3,7.343,7.343,0,0,1,1.829,3.393" transform="translate(-10.095 -45.771)" fill="#fab553"/>
            <path id="Trazado_277203" data-name="Trazado 277203" d="M73.819,278.473a15,15,0,0,0-4.78,3.93c-.083.107.065.259.149.151a14.843,14.843,0,0,1,4.737-3.9c.12-.064.014-.249-.106-.184" transform="translate(-11.909 -45.489)" fill="#c97420"/>
            <path id="Trazado_277204" data-name="Trazado 277204" d="M65.352,285.016a6.63,6.63,0,0,0,4.153-1.87,9.047,9.047,0,0,0,2.062-3.451,5.735,5.735,0,0,0-4.292,1.567,6.138,6.138,0,0,0-1.667,3.556" transform="translate(-11.277 -45.689)" fill="#fab553"/>
            <path id="Trazado_277205" data-name="Trazado 277205" d="M72.292,223.607c.291.1-.834,3.757-2.091,9.776q-.235,1.131-.49,2.362-.22,1.241-.455,2.576c-.346,1.773-.584,3.694-.906,5.7-.539,4.03-1.024,8.475-1.376,13.158-.329,4.687-.509,9.162-.619,13.236-.07,4.074-.114,7.748-.083,10.835.03,6.173.1,10-.181,10.023-.25.018-.8-3.782-1.185-9.979-.207-3.1-.306-6.793-.333-10.9.012-4.107.139-8.625.472-13.36.356-4.731.9-9.223,1.544-13.287.374-2.024.675-3.955,1.094-5.739q.3-1.338.57-2.584.323-1.232.618-2.364c1.617-6.015,3.211-9.534,3.421-9.453" transform="translate(-11.142 -36.528)" fill="#c97420"/>
            <path id="Trazado_277206" data-name="Trazado 277206" d="M47.634,233.8a17.81,17.81,0,0,0-2.411,6.521c-.021.134.183.192.2.055a17.668,17.668,0,0,1,2.39-6.468c.072-.116-.111-.223-.181-.108" transform="translate(-7.803 -38.186)" fill="#c97420"/>
            <path id="Trazado_277207" data-name="Trazado 277207" d="M43.25,244.722a6.568,6.568,0,0,0,2.8-3.912A12.914,12.914,0,0,0,46.289,236a5.433,5.433,0,0,0-3.064,3.629,9.044,9.044,0,0,0,.16,4.756" transform="translate(-7.415 -38.553)" fill="#fab553"/>
            <path id="Trazado_277208" data-name="Trazado 277208" d="M28.38,244.311a18.589,18.589,0,0,1,7.509,1.25c.126.051.18-.155.056-.205A18.749,18.749,0,0,0,28.38,244.1c-.135,0-.136.217,0,.213" transform="translate(-4.88 -39.874)" fill="#c97420"/>
            <path id="Trazado_277209" data-name="Trazado 277209" d="M41.242,245.816a8.23,8.23,0,0,1-5.613.558,11.291,11.291,0,0,1-4.362-2.42,7.107,7.107,0,0,1,5.573-.969,7.659,7.659,0,0,1,4,2.776" transform="translate(-5.395 -39.66)" fill="#fab553"/>
            <path id="Trazado_277210" data-name="Trazado 277210" d="M44.114,226.639a17.828,17.828,0,0,0-2.477,6.625c-.021.135.182.192.2.057a17.659,17.659,0,0,1,2.455-6.575c.072-.116-.11-.223-.182-.107" transform="translate(-7.184 -37.015)" fill="#c97420"/>
            <path id="Trazado_277211" data-name="Trazado 277211" d="M39.665,237.684a6.568,6.568,0,0,0,2.8-3.912,12.914,12.914,0,0,0,.237-4.808,5.432,5.432,0,0,0-3.064,3.629,9.044,9.044,0,0,0,.16,4.756" transform="translate(-6.797 -37.403)" fill="#fab553"/>
            <path id="Trazado_277212" data-name="Trazado 277212" d="M24.795,237.272a18.589,18.589,0,0,1,7.509,1.25c.126.051.18-.155.056-.2a18.749,18.749,0,0,0-7.565-1.257c-.135,0-.136.217,0,.213" transform="translate(-4.261 -38.724)" fill="#c97420"/>
            <path id="Trazado_277213" data-name="Trazado 277213" d="M37.658,238.777a8.23,8.23,0,0,1-5.613.558,11.291,11.291,0,0,1-4.362-2.42,7.107,7.107,0,0,1,5.573-.969,7.656,7.656,0,0,1,4,2.777" transform="translate(-4.777 -38.51)" fill="#fab553"/>
            <path id="Trazado_277214" data-name="Trazado 277214" d="M40.6,219.587a17.83,17.83,0,0,0-2.563,6.763c-.021.134.182.192.2.057a17.691,17.691,0,0,1,2.542-6.712c.073-.115-.109-.223-.182-.107" transform="translate(-6.564 -35.863)" fill="#c97420"/>
            <path id="Trazado_277215" data-name="Trazado 277215" d="M36.067,230.8a6.568,6.568,0,0,0,2.8-3.912,12.91,12.91,0,0,0,.237-4.807,5.429,5.429,0,0,0-3.064,3.628,9.047,9.047,0,0,0,.16,4.757" transform="translate(-6.176 -36.278)" fill="#fab553"/>
            <path id="Trazado_277216" data-name="Trazado 277216" d="M21.2,230.384a18.589,18.589,0,0,1,7.509,1.25c.126.051.18-.155.056-.2a18.749,18.749,0,0,0-7.565-1.257c-.135,0-.136.217,0,.213" transform="translate(-3.64 -37.599)" fill="#c97420"/>
            <path id="Trazado_277217" data-name="Trazado 277217" d="M34.059,231.889a8.23,8.23,0,0,1-5.613.558,11.291,11.291,0,0,1-4.362-2.42,7.107,7.107,0,0,1,5.573-.969,7.656,7.656,0,0,1,4,2.777" transform="translate(-4.156 -37.385)" fill="#fab553"/>
            <path id="Trazado_277218" data-name="Trazado 277218" d="M36.407,214.165a15.359,15.359,0,0,0-2.359,6.057c-.022.134.181.192.2.057a15.207,15.207,0,0,1,2.338-6.007c.075-.114-.108-.221-.182-.107" transform="translate(-5.875 -34.977)" fill="#c97420"/>
            <path id="Trazado_277219" data-name="Trazado 277219" d="M32.367,224.1a5.654,5.654,0,0,0,2.411-3.367,11.119,11.119,0,0,0,.2-4.137,4.677,4.677,0,0,0-2.637,3.122,7.78,7.78,0,0,0,.138,4.093" transform="translate(-5.544 -35.383)" fill="#fab553"/>
            <path id="Trazado_277220" data-name="Trazado 277220" d="M19.31,223.765a16.07,16.07,0,0,1,6.672,1.067c.126.051.18-.155.056-.205a16.215,16.215,0,0,0-6.728-1.074c-.135.005-.136.218,0,.213" transform="translate(-3.314 -36.516)" fill="#c97420"/>
            <path id="Trazado_277221" data-name="Trazado 277221" d="M30.639,225.041a7.086,7.086,0,0,1-4.83.48,9.706,9.706,0,0,1-3.753-2.082,6.114,6.114,0,0,1,4.8-.834,6.586,6.586,0,0,1,3.445,2.389" transform="translate(-3.806 -36.335)" fill="#fab553"/>
            <path id="Trazado_277222" data-name="Trazado 277222" d="M31.716,211.074a12.256,12.256,0,0,0-1.791,4.694c-.022.134.181.192.2.057a12.1,12.1,0,0,1,1.771-4.644c.074-.115-.108-.222-.182-.107" transform="translate(-5.163 -34.473)" fill="#c97420"/>
            <path id="Trazado_277223" data-name="Trazado 277223" d="M28.61,218.843a4.509,4.509,0,0,0,1.922-2.684,8.863,8.863,0,0,0,.162-3.3,3.725,3.725,0,0,0-2.1,2.489,6.209,6.209,0,0,0,.109,3.263" transform="translate(-4.904 -34.772)" fill="#fab553"/>
            <path id="Trazado_277224" data-name="Trazado 277224" d="M17.8,218.612a12.9,12.9,0,0,1,5.64.832c.127.05.181-.156.056-.206a13.055,13.055,0,0,0-5.7-.838c-.135.008-.136.221,0,.212" transform="translate(-3.054 -35.672)" fill="#c97420"/>
            <path id="Trazado_277225" data-name="Trazado 277225" d="M27.232,219.593a5.647,5.647,0,0,1-3.85.383,7.739,7.739,0,0,1-2.992-1.661,4.873,4.873,0,0,1,3.823-.664,5.252,5.252,0,0,1,2.746,1.9" transform="translate(-3.518 -35.532)" fill="#fab553"/>
            <path id="Trazado_277226" data-name="Trazado 277226" d="M27.693,206.858a10.722,10.722,0,0,0-1.7,4.3c-.021.134.182.192.2.057a10.567,10.567,0,0,1,1.678-4.253c.076-.113-.106-.22-.182-.107" transform="translate(-4.485 -33.784)" fill="#c97420"/>
            <path id="Trazado_277227" data-name="Trazado 277227" d="M24.862,213.889a3.934,3.934,0,0,0,1.677-2.343,7.726,7.726,0,0,0,.141-2.878,3.254,3.254,0,0,0-1.834,2.172,5.415,5.415,0,0,0,.1,2.848" transform="translate(-4.262 -34.088)" fill="#fab553"/>
            <path id="Trazado_277228" data-name="Trazado 277228" d="M15.321,213.7a11.275,11.275,0,0,1,5.006.72c.126.05.18-.156.056-.206a11.428,11.428,0,0,0-5.062-.726c-.134.009-.136.222,0,.212" transform="translate(-2.626 -34.87)" fill="#c97420"/>
            <path id="Trazado_277229" data-name="Trazado 277229" d="M23.661,214.543a4.928,4.928,0,0,1-3.36.334,6.748,6.748,0,0,1-2.611-1.449,4.258,4.258,0,0,1,3.336-.58,4.584,4.584,0,0,1,2.4,1.662" transform="translate(-3.052 -34.75)" fill="#fab553"/>
            <path id="Trazado_277230" data-name="Trazado 277230" d="M51.122,240.591a17.925,17.925,0,0,0-2.949,6.531c-.03.133.173.19.2.057A17.772,17.772,0,0,1,51.3,240.7c.079-.11-.1-.217-.182-.107" transform="translate(-8.312 -39.295)" fill="#c97420"/>
            <path id="Trazado_277231" data-name="Trazado 277231" d="M45.928,251.432a6.612,6.612,0,0,0,3.051-3.736,12.959,12.959,0,0,0,.553-4.788,5.467,5.467,0,0,0-3.293,3.435,9.073,9.073,0,0,0-.154,4.762" transform="translate(-7.91 -39.681)" fill="#fab553"/>
            <path id="Trazado_277232" data-name="Trazado 277232" d="M31.745,250.1a18.263,18.263,0,0,1,6.936,1.686c.122.058.228-.126.106-.184a18.52,18.52,0,0,0-7.042-1.714c-.136-.008-.135.206,0,.212" transform="translate(-5.46 -40.82)" fill="#c97420"/>
            <path id="Trazado_277233" data-name="Trazado 277233" d="M43.913,252.413a8.209,8.209,0,0,1-5.632.212,11.209,11.209,0,0,1-4.189-2.686,7.1,7.1,0,0,1,5.619-.625,7.606,7.606,0,0,1,3.808,3.02" transform="translate(-5.883 -40.675)" fill="#fab553"/>
            <path id="Trazado_277234" data-name="Trazado 277234" d="M53.442,249.13a15.782,15.782,0,0,0-2.965,5.331c-.041.131.161.187.2.057a15.5,15.5,0,0,1,2.911-5.237c.087-.1-.061-.255-.149-.151" transform="translate(-8.709 -40.692)" fill="#c97420"/>
            <path id="Trazado_277235" data-name="Trazado 277235" d="M48.2,258.014A5.787,5.787,0,0,0,51.128,255a11.324,11.324,0,0,0,.856-4.107,4.785,4.785,0,0,0-3.116,2.733,7.925,7.925,0,0,0-.51,4.113" transform="translate(-8.317 -40.986)" fill="#fab553"/>
            <path id="Trazado_277236" data-name="Trazado 277236" d="M35.719,255.724a15.833,15.833,0,0,1,6.228,2.022.106.106,0,0,0,.107-.183,16.088,16.088,0,0,0-6.335-2.051c-.134-.016-.133.2,0,.212" transform="translate(-6.146 -41.74)" fill="#c97420"/>
            <path id="Trazado_277237" data-name="Trazado 277237" d="M46.485,258.719a7.1,7.1,0,0,1-4.88-.233A9.65,9.65,0,0,1,38.2,255.85a6.143,6.143,0,0,1,4.9-.126,6.542,6.542,0,0,1,3.05,2.9" transform="translate(-6.591 -41.701)" fill="#fab553"/>
            <path id="Trazado_277238" data-name="Trazado 277238" d="M55.221,255.841a14.739,14.739,0,0,0-2.992,4.965c-.046.129.157.184.2.056a14.473,14.473,0,0,1,2.938-4.871c.092-.1-.057-.252-.149-.151" transform="translate(-9.011 -41.788)" fill="#c97420"/>
            <path id="Trazado_277239" data-name="Trazado 277239" d="M50,264.072a5.413,5.413,0,0,0,2.817-2.721,10.589,10.589,0,0,0,.92-3.8,4.467,4.467,0,0,0-2.98,2.457,7.379,7.379,0,0,0-.6,3.816" transform="translate(-8.628 -42.073)" fill="#fab553"/>
            <path id="Trazado_277240" data-name="Trazado 277240" d="M38.477,261.574a14.749,14.749,0,0,1,5.756,2.063c.115.073.221-.111.107-.184a14.874,14.874,0,0,0-5.806-2.084c-.133-.02-.19.185-.056.2" transform="translate(-6.626 -42.696)" fill="#c97420"/>
            <path id="Trazado_277241" data-name="Trazado 277241" d="M48.425,264.676a6.592,6.592,0,0,1-4.532-.355A8.934,8.934,0,0,1,40.8,261.77a5.71,5.71,0,0,1,4.564.021,6.076,6.076,0,0,1,2.749,2.784" transform="translate(-7.041 -42.686)" fill="#fab553"/>
            <path id="Trazado_277242" data-name="Trazado 277242" d="M21.017,209.364c.17-.148,2.839,2.627,6.357,7.746l1.365,2.017,1.4,2.241c.985,1.539,1.91,3.256,2.933,5.036,1.953,3.61,3.955,7.658,5.86,11.995,1.882,4.347,3.5,8.561,4.874,12.426,1.336,3.879,2.47,7.394,3.3,10.382,1.7,5.966,2.433,9.735,2.192,9.8-.274.077-1.476-3.556-3.494-9.381-.994-2.919-2.252-6.364-3.671-10.179-1.454-3.8-3.107-7.956-4.97-12.26-1.885-4.293-3.816-8.315-5.66-11.93-.968-1.78-1.829-3.508-2.743-5.062l-1.283-2.272-1.244-2.06c-3.18-5.244-5.452-8.3-5.212-8.5" transform="translate(-3.624 -34.2)" fill="#c97420"/>
            <path id="Trazado_277243" data-name="Trazado 277243" d="M58.891,253.8c-12.868,0-25.473-1.2-25.473-1.2l5.364,46.125c.347,2.978,2.253,5.287,4.65,5.627a117.184,117.184,0,0,0,15.459,1.271,117.184,117.184,0,0,0,15.459-1.271c2.4-.341,4.3-2.65,4.65-5.627L84.364,252.6s-12.605,1.2-25.473,1.2" transform="translate(-5.766 -41.265)" fill="#465d69"/>
            <path id="Trazado_277244" data-name="Trazado 277244" d="M58.891,261.054c9.943,0,19.736-.654,24.611-1.037l.862-7.413s-12.605,1.2-25.473,1.2-25.473-1.2-25.473-1.2l.862,7.413c4.874.382,14.667,1.037,24.611,1.037" transform="translate(-5.766 -41.265)" fill="#648090"/>
          </g>
        </g>
      </g>
    </g>
  </g>
</svg>
