<svg xmlns="http://www.w3.org/2000/svg" width="673.827" height="595.404" viewBox="0 0 673.827 595.404">
  <g id="Grupo_258444" data-name="Grupo 258444" transform="translate(-495 -781.11)">
    <rect id="Rect치ngulo_324202" data-name="Rect치ngulo 324202" width="673.827" height="595.404" transform="translate(495 781.11)" fill="none"/>
    <path id="Trazado_276541" data-name="Trazado 276541" d="M253.111,256.4a7.88,7.88,0,0,1-2.863,3.392,10.377,10.377,0,0,1-5.177.976c-3.107.045-5.963.5-8.975.771-3.6.325-7.275-.514-10.876-.514a5.556,5.556,0,0,1-1.947-.292c-2.091-.86-3.192-3.17-4.416-4.888-1.677-2.356-3.618-4.563-5.494-6.762a105.857,105.857,0,0,0-9.171-10.069c-3.215-2.9-6.628-5.342-9.263-8.848a19.469,19.469,0,0,1-4.282-12.018,4.14,4.14,0,0,1,.3-1.634,3.611,3.611,0,0,1,3.224-1.762c3.178-.127,14.677,3.837,24.055,18.938-1.659-6.368-4.866-12.282-8.134-17.948-1.6-2.767-3.261-5.492-4.887-8.24-1.593-2.692-3.4-5.342-4.343-8.354-1.3-4.152-.465-11.536,5.358-11.5a8.11,8.11,0,0,1,4.246,1.627c6.058,3.964,17.784,20.543,22.5,41.111-1.764-21.421-13.361-36.167-15.849-52.816-.389-2.606-.507-5.543,1.172-7.574,2.1-2.535,6.14-2.465,9.075-.98,5.592,2.83,8.669,8.762,10.728,14.459,6.805,18.825,8.159,45.5,8.159,45.5s1.322-13.141,3.8-19.205a4.194,4.194,0,0,1,2.112-2.6c1.621-.585,3.272.854,4.117,2.357,2.252,4,2.471,8.828,2.692,13.306.245,4.976.733,9.939.248,14.916-.572,5.871-2.931,11.4-5.262,16.817-.263.611-.537,1.234-.843,1.837" transform="translate(495 781.11)" fill="#9caa8c"/>
    <path id="Trazado_276542" data-name="Trazado 276542" d="M197.1,221.327c9.457,9.135,18.939,18.483,26.042,29.631,2.075,3.257,3.854,6.657,5.645,10.073.13.25.573.075.464-.2a74.45,74.45,0,0,0-10.508-17.294,148.553,148.553,0,0,0-13.324-14.725c-2.656-2.615-5.4-5.14-8.142-7.667-.118-.109-.293.065-.177.177" transform="translate(495 781.11)" fill="#cfd8c3"/>
    <path id="Trazado_276543" data-name="Trazado 276543" d="M206.689,194.89A163.8,163.8,0,0,1,218.65,217.2a177.419,177.419,0,0,1,8.486,25.334c1.606,6.123,2.862,12.331,4.462,18.453.109.416.7.235.633-.174-.954-5.628-2.355-11.2-3.782-16.722-1.2-4.646-2.512-9.265-4.008-13.826a143.74,143.74,0,0,0-9.831-23.107c-2.3-4.289-4.831-8.448-7.469-12.535-.182-.282-.633-.023-.452.264" transform="translate(495 781.11)" fill="#cfd8c3"/>
    <path id="Trazado_276544" data-name="Trazado 276544" d="M225.98,176.962a105.572,105.572,0,0,1,5.62,15.57c1.7,5.952,3.061,12,4.2,18.079q1.727,9.242,2.712,18.6c.6,5.705,1,11.435,1.094,17.171a122.366,122.366,0,0,1-.532,13.713q-.066.682-.15,1.364c-.046.37.578.453.652.089a65.577,65.577,0,0,0,.987-13.231c-.018-5.684-.38-11.367-.937-17.023q-.918-9.336-2.574-18.584c-1.107-6.189-2.454-12.345-4.162-18.4a120.008,120.008,0,0,0-5.593-15.95q-.38-.861-.781-1.713c-.169-.359-.7-.046-.533.312" transform="translate(495 781.11)" fill="#cfd8c3"/>
    <path id="Trazado_276545" data-name="Trazado 276545" d="M253.2,219.133a143.125,143.125,0,0,1-2.137,16.692c-1.02,5.7-2.276,11.375-3.832,16.957-.752,2.7-1.594,5.371-2.455,8.037-.107.331.431.57.571.241a88.406,88.406,0,0,0,4.494-15.233,179.12,179.12,0,0,0,3.116-17.664c.369-3,.654-6.011.79-9.03.016-.353-.526-.35-.547,0" transform="translate(495 781.11)" fill="#cfd8c3"/>
    <path id="Trazado_276546" data-name="Trazado 276546" d="M408.6,305.005c7.622-2.474,16.953-3.061,22.173-7.637,18.653-16.354-39-15.518-45.206-15.95-16.516-1.148-33.051-2.12-49.606-2.555-32.861-.86-65.942.341-98.272,6.392-7.9,1.479-20.58,3.386-26.342,8.781-5.956,5.577-1.16,10.172-12.768,12.79-4.8,1.082-17.371,2.565-20.019,7.79-6.242,12.342,6.946,14.221,37.313,15.923,33.146,1.858,66.366,1.412,99.53.335,16.327-.53,32.648-1.219,48.97-1.858,11.737-.46,28.523.234,32.718-13.99,1.659-5.62,6.164-8.284,11.509-10.021" transform="translate(495 781.11)" fill="#f2d6bb"/>
    <path id="Trazado_276547" data-name="Trazado 276547" d="M349.348,243.535c-.271-.317-.542-.635-.813-.951-4.119-4.807-8.423-9.7-10.486-15.689-1.256-3.64-1.419-8.174,1.359-10.84,3.175-3.048,8.406-2.094,12.4-.253,12.794,5.891,21.313,18.1,29.209,29.763a196.189,196.189,0,0,0-13.809-31.739c-2.918-5.358-6.173-10.87-6.36-16.968a11.538,11.538,0,0,1,2.536-8.08c3.465-3.867,9.947-3.621,14.257-.724s6.871,7.737,8.877,12.527c4.522,10.8,7.091,22.3,9.638,33.722-2.541-22.3-8.8-44.053-16.815-65.021-2.087-5.46-4.312-10.94-5.114-16.73-.7-5.072-.469-12.844,3.421-16.8,3.959-4.027,11.265-1,14.615,2.255,4.4,4.277,6.594,10.287,8.4,16.149a339.863,339.863,0,0,1,14.2,85.936c3-17.415-5.031-43.91-.266-49.144,3.646-4.006,8.837,3.417,10.184,6.186,12.552,25.786,11.379,55.977,7.906,84.444-.376,3.081-.972,6.508-3.474,8.346A11.3,11.3,0,0,1,424,291.588a215.088,215.088,0,0,1-35.046,2.077c-2.56-.058-5.294-.221-7.346-1.751-1.885-1.406-2.838-3.7-3.779-5.855-6.855-15.692-17.369-29.485-28.484-42.524" transform="translate(495 781.11)" fill="#9caa8c"/>
    <path id="Trazado_276548" data-name="Trazado 276548" d="M346.965,226.017a166.632,166.632,0,0,1,22.6,22.717,172.994,172.994,0,0,1,18.314,27.24q2.2,4.039,4.182,8.188c1.361,2.844,2.564,5.764,3.938,8.6a.251.251,0,0,0,.457-.193,81.7,81.7,0,0,0-3.285-7.6q-1.787-3.783-3.75-7.48-3.89-7.324-8.46-14.262a165.8,165.8,0,0,0-20.41-25.237A154.329,154.329,0,0,0,347.087,225.9c-.086-.068-.208.051-.122.122" transform="translate(495 781.11)" fill="#cfd8c3"/>
    <path id="Trazado_276549" data-name="Trazado 276549" d="M370.143,193.992a147.8,147.8,0,0,1,10.121,17.373,155.548,155.548,0,0,1,7.418,17.809c2.106,6.072,3.863,12.26,5.4,18.5,1.626,6.62,3.006,13.3,4.292,19.992,1.418,7.384,2.692,14.8,4.1,22.183.183.958.367,1.913.592,2.863.072.3.6.248.56-.076-.5-3.851-1.3-7.675-1.984-11.5q-.988-5.5-2.046-10.986c-1.3-6.792-2.687-13.571-4.3-20.3-1.515-6.308-3.24-12.569-5.307-18.719a154.4,154.4,0,0,0-7.174-17.723,143.37,143.37,0,0,0-9.934-17.354q-.739-1.108-1.5-2.2c-.1-.139-.325-.009-.229.134" transform="translate(495 781.11)" fill="#cfd8c3"/>
    <path id="Trazado_276550" data-name="Trazado 276550" d="M384.8,142.907a309.14,309.14,0,0,1,10.813,34.161q4.038,15.884,6.47,32.118c1.5,9.907,2.572,19.875,3.329,29.865.681,8.981,1.093,17.977,1.424,26.977.293,7.964.485,15.932.93,23.889.05.907.112,1.813.18,2.719.023.3.475.305.469,0-.149-7.862-.419-15.725-.685-23.583-.3-8.919-.7-17.836-1.333-26.739-.7-9.824-1.685-19.63-3.07-29.382-1.518-10.693-3.51-21.321-6.072-31.814a298.827,298.827,0,0,0-10.464-34q-.81-2.16-1.652-4.307c-.081-.208-.42-.119-.339.093" transform="translate(495 781.11)" fill="#cfd8c3"/>
    <path id="Trazado_276551" data-name="Trazado 276551" d="M420.217,211.5a290.586,290.586,0,0,1,.928,31.781,254.729,254.729,0,0,1-2.791,31.344q-.674,4.423-1.474,8.829c-.555,3.035-1.236,6.059-1.707,9.108-.052.334.422.485.52.143.754-2.649,1.267-5.385,1.784-8.089.5-2.624.974-5.256,1.388-7.9q1.22-7.765,1.966-15.6a245.619,245.619,0,0,0,.963-31.411c-.206-6.082-.618-12.155-1.194-18.212-.023-.242-.4-.247-.383,0" transform="translate(495 781.11)" fill="#cfd8c3"/>
    <path id="Trazado_276552" data-name="Trazado 276552" d="M277.569,191.545l1.365,27.415,6.125.144,5.42-29.443" transform="translate(495 781.11)" fill="#f48f73"/>
    <path id="Trazado_276553" data-name="Trazado 276553" d="M288.9,129.975s-12.141,2.982-13.982,17.908c-1.17,9.491,1.3,31.4,1.4,33.212.019.345.051.942.092,1.68a7.687,7.687,0,0,1-.727,1.141c-.422.6-.723,1.484-.227,2.029.249.273.691.469.659.837a.843.843,0,0,1-.1.278,6.383,6.383,0,0,0,.132,5.636,1.528,1.528,0,0,0,.634.711,1.783,1.783,0,0,0,.925.073,24.052,24.052,0,0,1,11.784,1.844c.664.292,1.487.6,2.06.157.8-.621.234-1.931.565-2.888.317-.917,1.426-1.382,1.732-2.3a3.358,3.358,0,0,0-.417-2.282,26.035,26.035,0,0,1-1.269-4.081,25.9,25.9,0,0,0,.218-3.9c-.209-3.8,1.59-24.057,1.59-24.057" transform="translate(495 781.11)" fill="#3b5620"/>
    <path id="Trazado_276554" data-name="Trazado 276554" d="M296.019,236.174,293.638,263.7a16.322,16.322,0,0,1-19.3,1.375l-6.261-26.909" transform="translate(495 781.11)" fill="#e8b78b"/>
    <path id="Trazado_276555" data-name="Trazado 276555" d="M296.019,236.174c.125,1.747-6.03,3.609-13.746,4.159s-14.072-.421-14.2-2.168,6.03-3.608,13.746-4.158,14.073.42,14.2,2.167" transform="translate(495 781.11)" fill="#c1875d"/>
    <path id="Trazado_276556" data-name="Trazado 276556" d="M292.8,238.47a51.41,51.41,0,0,1-21.275,1.5,51.409,51.409,0,0,1,21.275-1.5" transform="translate(495 781.11)" fill="#fff"/>
    <path id="Trazado_276557" data-name="Trazado 276557" d="M289.986,239.972c.974-5.311.455-13.133-4.426-16.745-3.43-2.538-8.125-1.275-10.471,2.137-1.972,2.869-1.878,6.526-1.428,9.829l-.72.181c-.514-3.5-.579-7.65,1.653-10.714a8.408,8.408,0,0,1,8.969-3.469c7.585,2.156,8.538,13.092,6.971,19-.066.249-.6.045-.548-.22" transform="translate(495 781.11)" fill="#6d3b2d"/>
    <path id="Trazado_276558" data-name="Trazado 276558" d="M282.294,215.3c1.148-.186,2.7,1.152,3.245,2.285a6.946,6.946,0,0,1,.254,4.62,6.474,6.474,0,0,0-1.126-.591,1.586,1.586,0,0,0-.027,1.038c.088.079.588.334.747.453a3.323,3.323,0,0,1-.829,1.164A2.806,2.806,0,0,1,283,224.9a1.151,1.151,0,0,1-.674-.175c-.1-.064-.488-.369-.439-.519a1.17,1.17,0,0,1-1.048.827,1.192,1.192,0,0,1-1.084-.795.947.947,0,0,1-1.029.689,1.055,1.055,0,0,1-.791-1.021c-.225.453-.892.372-1.2-.025a2.737,2.737,0,0,1-.37-1.106,7.384,7.384,0,0,1-.161-1.382c-.054-2.533,1.349-6.01,4.206-6.417" transform="translate(495 781.11)" fill="#f48f73"/>
    <path id="Trazado_276559" data-name="Trazado 276559" d="M301.773,316c1.2-.732,10.392-6.131,10.391-7.413s-2.027-14.561-2.027-14.561l11.954-.8s-.963,14.876-.7,16.208,2.017,6.543.718,7.87-6.274,2.362-8.129,3.235-5.436,1.257-8.261,1.265a5.972,5.972,0,0,1-4.54-1.664c-.394-.4-1.011-3.159.6-4.138" transform="translate(495 781.11)" fill="#533d3d"/>
    <path id="Trazado_276560" data-name="Trazado 276560" d="M310.181,188.811s-8.513,38.726-8.513,62.455c0,10.777,2.173,44.086,4.335,46.247,3.067,3.067,16.341,3.733,18.241-1.038,1.685-4.231-.59-40.077,2.41-47.4s10.311-43.867,10.311-61.642" transform="translate(495 781.11)" fill="#a77661"/>
    <path id="Trazado_276561" data-name="Trazado 276561" d="M354.276,315.568c.878-1.107,7.652-9.374,7.213-10.578s-6.887-12.961-6.887-12.961l10.942-4.916s4.189,14.3,4.889,15.46,4.133,5.439,3.368,7.136-5.078,4.4-6.52,5.868-4.671,3.073-7.319,4.064a5.95,5.95,0,0,1-4.83.018c-.507-.238-2.029-2.612-.856-4.091" transform="translate(495 781.11)" fill="#533d3d"/>
    <path id="Trazado_276562" data-name="Trazado 276562" d="M331.379,189.661s-2.025,49.28,2.987,66.57c5,17.253,13.064,38.972,17.262,41.249,3.8,2.062,16.356-2.073,16.824-7.2.415-4.543-8.336-33.424-9.607-41.252-1.173-7.231-.4-18.932.968-31.116.675-6,4.063-28.747-5.77-38.137" transform="translate(495 781.11)" fill="#a77661"/>
    <path id="Trazado_276563" data-name="Trazado 276563" d="M344.2,191.133s1.241,3.262,5.922,4.389a29.407,29.407,0,0,0,6.677.859" transform="translate(495 781.11)" fill="none" stroke="#7a4c3c" stroke-miterlimit="10" stroke-width="0.609"/>
    <path id="Trazado_276564" data-name="Trazado 276564" d="M331.378,229.833s-.851-11.8-.806-19.655" transform="translate(495 781.11)" fill="none" stroke="#7a4c3c" stroke-miterlimit="10" stroke-width="0.609"/>
    <path id="Trazado_276565" data-name="Trazado 276565" d="M309.742,197.984s7.106,1.92,8.795-6.375" transform="translate(495 781.11)" fill="none" stroke="#7a4c3c" stroke-miterlimit="10" stroke-width="0.609"/>
    <path id="Trazado_276566" data-name="Trazado 276566" d="M279.553,152.063l9.346-22.088,18.26-3.9s13.231-2.121,23.955,6.357,18.887,40.283,21.41,42.544c1.479,1.325,3.775,2.607,3.914,5.137.06,1.086-6.726,13.065-31.8,14.444-11.052.608-14.549-1.286-16.735-3.431s.751-3.882-.122-5.253c-1.941-3.048-15.262-27.815-28.219-31.635" transform="translate(495 781.11)" fill="#3b5620"/>
    <path id="Trazado_276567" data-name="Trazado 276567" d="M288.9,129.975s6.142-2.77,18.26-3.9c2.01,7.306-5.605,12.432-10.9,11.8-8.453-1-7.355-7.908-7.355-7.908" transform="translate(495 781.11)" fill="#f48f73"/>
    <path id="Trazado_276568" data-name="Trazado 276568" d="M295.817,108.287a2.959,2.959,0,0,0,1.012.4,6.28,6.28,0,0,0,2.248-.138,12.73,12.73,0,0,1,4.032-.219,4.427,4.427,0,0,0-2.659-1.9,6.614,6.614,0,0,0-1.644-.15,5.371,5.371,0,0,0-1.332.151,3.386,3.386,0,0,0-2.188,1.888" transform="translate(495 781.11)" fill="#ed8945"/>
    <path id="Trazado_276569" data-name="Trazado 276569" d="M295.552,108.778a6.625,6.625,0,0,0,1.895,2.818,7.744,7.744,0,0,0,3.434,1.2l1.543.278a1.771,1.771,0,0,0-.117-.993,5.993,5.993,0,0,0-2.376-2.745,7,7,0,0,0-2.376-1.094,6.873,6.873,0,0,0-2.593-.013" transform="translate(495 781.11)" fill="#ed8945"/>
    <path id="Trazado_276570" data-name="Trazado 276570" d="M296.171,116.559l7.079,9.253c1.318,2.112-1.432,5.754-4.744,6.517-4.064.937-6.137-.3-6.913-.958l-3.877-7.89" transform="translate(495 781.11)" fill="#f48f73"/>
    <path id="Trazado_276571" data-name="Trazado 276571" d="M282.212,120.283c-.3-.569-1.78-.177-2.206.35a1.706,1.706,0,0,0-.076,1.869,3.291,3.291,0,0,0,1.429,1.2,3.544,3.544,0,0,0,1.633.465,1.849,1.849,0,0,0,1.528-.788" transform="translate(495 781.11)" fill="#c9634b"/>
    <path id="Trazado_276572" data-name="Trazado 276572" d="M277.338,115.837s5.036,10.394,9.2,11.2c1.467.284,4.4-.669,5.7-1.428,2.05-1.2,3.779-2.909,4.086-4.287.8-3.577-3.185-9.424-3.185-9.424s.314-3.267-1.1-4.444c-1.334-1.109-4.353-.148-5.859.343-3.1,1.013-8.593,5.223-8.834,8.038" transform="translate(495 781.11)" fill="#f48f73"/>
    <path id="Trazado_276573" data-name="Trazado 276573" d="M278.284,116.054a15.261,15.261,0,0,1-4.488.8,3.914,3.914,0,0,1-3.406-1.267,3.567,3.567,0,0,1-.05-3.3,8.125,8.125,0,0,1,4.092-4.3c.381-.176.838-.4.867-.823.013-.183,2.693-4.539,4.335-5.105a19.6,19.6,0,0,1,5.126-.838,12.468,12.468,0,0,1,3.986.194,10,10,0,0,1,4.559,3,10.439,10.439,0,0,1,3.032,5.761c.127,1.148-.109,4.828-2.062,4.291-1.067-.294-1.886-1.77-2.713-2.43a4.773,4.773,0,0,0-4.452-.487,20.569,20.569,0,0,0-4.082,2.248,22.579,22.579,0,0,1-4.744,2.258" transform="translate(495 781.11)" fill="#59281b"/>
    <path id="Trazado_276574" data-name="Trazado 276574" d="M287.045,116.838a.382.382,0,1,0-.092-.6.441.441,0,0,0,.092.6" transform="translate(495 781.11)" fill="#35140e"/>
    <path id="Trazado_276575" data-name="Trazado 276575" d="M281.755,119.337a.382.382,0,1,0-.092-.6.441.441,0,0,0,.092.6" transform="translate(495 781.11)" fill="#35140e"/>
    <path id="Trazado_276576" data-name="Trazado 276576" d="M289.432,126.971s5.375-2.226,6.6-4.684a10.471,10.471,0,0,0,.485-3.428" transform="translate(495 781.11)" fill="none" stroke="#c9634b" stroke-miterlimit="10" stroke-width="0.609"/>
    <path id="Trazado_276577" data-name="Trazado 276577" d="M283.9,117.8s.4,4.315,1.523,4.6c1.283.323,2.532-1.246,2.532-1.246" transform="translate(495 781.11)" fill="#f48f73"/>
    <path id="Trazado_276578" data-name="Trazado 276578" d="M283.9,117.8s.4,4.315,1.523,4.6c1.283.323,2.532-1.246,2.532-1.246" transform="translate(495 781.11)" fill="none" stroke="#c9634b" stroke-miterlimit="10" stroke-width="0.609"/>
    <path id="Trazado_276579" data-name="Trazado 276579" d="M290.29,121.2s1.043,1.159-1.682,3" transform="translate(495 781.11)" fill="none" stroke="#c9634b" stroke-miterlimit="10" stroke-width="0.609"/>
    <path id="Trazado_276580" data-name="Trazado 276580" d="M284.782,115.175a.764.764,0,0,1,.337-.449,3.7,3.7,0,0,1,1.739-.668,3.154,3.154,0,0,1,1.015-.028,1.136,1.136,0,0,1,.6.353c.306.361-.428.4-.628.426a6.369,6.369,0,0,0-1.724.4,4.573,4.573,0,0,0-.638.464.44.44,0,0,1-.373.092.559.559,0,0,1-.329-.594" transform="translate(495 781.11)" fill="#35140e"/>
    <path id="Trazado_276581" data-name="Trazado 276581" d="M282.147,116.732a.771.771,0,0,0-.56.069,4.289,4.289,0,0,0-1.876,1.708,1.118,1.118,0,0,0,.006.7c.161.445.56-.173.684-.333a4.431,4.431,0,0,1,1.107-.961,4.48,4.48,0,0,1,.724-.322.444.444,0,0,0,.265-.278.555.555,0,0,0-.35-.581" transform="translate(495 781.11)" fill="#35140e"/>
    <path id="Trazado_276582" data-name="Trazado 276582" d="M296.647,112.968c-4.306-7.352-19.653-6.387-22.126-5.01a10.4,10.4,0,0,1,8.256-8.981c7.97-1.675,15.665,4.886,13.7,13.806" transform="translate(495 781.11)" fill="#ed8945"/>
    <path id="Trazado_276583" data-name="Trazado 276583" d="M292.938,114.194a5.39,5.39,0,0,1-.254-1.382,2.047,2.047,0,0,1,.441-1.358,1.723,1.723,0,0,1,1.755-.44,3.622,3.622,0,0,1,2.378,3.444,3.537,3.537,0,0,1-.529,2.138c-.434.634-.589.814-1.25.647" transform="translate(495 781.11)" fill="#f48f73"/>
    <path id="Trazado_276584" data-name="Trazado 276584" d="M336.406,187.477l-1.831,30.713,4.782-.884s10.584-28.959,8.629-35.705" transform="translate(495 781.11)" fill="#f48f73"/>
    <path id="Trazado_276585" data-name="Trazado 276585" d="M314.32,149.9c3.177,5.351,11.153,20.226,12.575,23.05,1.318,2.617,2.91,4.81,2.268,7.806-.221,1.034-.083,2.389.952,2.705.407.124.888.051,1.239.283.643.424.325,1.4.548,2.125.37,1.2,2.054,1.358,3.345,1.149,4.35-.7,8.258-2.982,12.042-5.214.806-.476,2.531-2.066,1.171-2.844a3,3,0,0,1-.97-.6c-.382-.5-.107-1.2.112-1.785s.288-1.4-.283-1.678a5.556,5.556,0,0,0-.677-.179,1.846,1.846,0,0,1-.967-1.213c-1.814-4.762-4.483-21.72-8-30.311" transform="translate(495 781.11)" fill="#3b5620"/>
    <path id="Trazado_276586" data-name="Trazado 276586" d="M324.131,238.436l6.165,26.931A16.32,16.32,0,0,0,349.6,264.06l2.479-27.516" transform="translate(495 781.11)" fill="#e8b78b"/>
    <path id="Trazado_276587" data-name="Trazado 276587" d="M324.131,238.436c.118,1.747,6.471,2.74,14.189,2.218s13.879-2.362,13.76-4.11-6.47-2.74-14.188-2.218-13.879,2.363-13.761,4.11" transform="translate(495 781.11)" fill="#c1875d"/>
    <path id="Trazado_276588" data-name="Trazado 276588" d="M327.638,240.264a51.428,51.428,0,0,0,21.278-1.457,51.427,51.427,0,0,0-21.278,1.457" transform="translate(495 781.11)" fill="#fff"/>
    <path id="Trazado_276589" data-name="Trazado 276589" d="M330.631,241.363c-1.7-5.125-2.267-12.944,2.068-17.2,3.046-2.988,7.871-2.387,10.666.668,2.35,2.569,2.762,6.2,2.773,9.538l.738.079c.024-3.54-.484-7.657-3.118-10.382a8.409,8.409,0,0,0-9.363-2.2c-7.214,3.185-6.646,14.147-4.277,19.782.1.238.6-.037.513-.293" transform="translate(495 781.11)" fill="#6d3b2d"/>
    <path id="Trazado_276590" data-name="Trazado 276590" d="M335.723,215.659c-1.163-.025-2.867,2.248-3.253,3.445a7.122,7.122,0,0,0-.143,4.081,6.487,6.487,0,0,1,1.033-.741,1.585,1.585,0,0,1,.17,1.025c-.076.09-.536.412-.677.552a3.322,3.322,0,0,0,.982,1.038,2.8,2.8,0,0,0,1.632.412,1.161,1.161,0,0,0,.644-.266c.092-.078.431-.433.362-.575a1.169,1.169,0,0,0,1.152.674,1.191,1.191,0,0,0,.964-.937.947.947,0,0,0,1.114.54,1.053,1.053,0,0,0,.642-1.12c.286.418.936.244,1.185-.191a2.744,2.744,0,0,0,.213-1.146,7.359,7.359,0,0,0-.031-1.392c-.3-2.516-1.661-4.8-3.606-5.477" transform="translate(495 781.11)" fill="#f48f73"/>
    <path id="Trazado_276591" data-name="Trazado 276591" d="M293.812,165.287s-4.652-6.461-7.716-7.525" transform="translate(495 781.11)" fill="#59281b"/>
    <path id="Trazado_276592" data-name="Trazado 276592" d="M293.812,165.287s-4.652-6.461-7.716-7.525" transform="translate(495 781.11)" fill="none" stroke="#3a1912" stroke-miterlimit="10" stroke-width="0.609"/>
    <path id="Trazado_276593" data-name="Trazado 276593" d="M232.432,294.855l37.829,10.773v-5.109l-37.829-10.861Z" transform="translate(495 781.11)" fill="#63362c"/>
    <path id="Trazado_276594" data-name="Trazado 276594" d="M232.432,294.855l-37.848,7.872v-5.109l37.848-7.96Z" transform="translate(495 781.11)" fill="#63362c"/>
    <path id="Trazado_276595" data-name="Trazado 276595" d="M232.432,304.6l-37.848,7.871v-5.109l37.848-7.959Z" transform="translate(495 781.11)" fill="#63362c"/>
    <path id="Trazado_276596" data-name="Trazado 276596" d="M232.432,304.6l37.829,10.773V310.26L232.432,299.4Z" transform="translate(495 781.11)" fill="#63362c"/>
    <path id="Trazado_276597" data-name="Trazado 276597" d="M232.432,285.671l-37.848,8.29v-5.109l37.848-7.96Z" transform="translate(495 781.11)" fill="#63362c"/>
    <path id="Trazado_276598" data-name="Trazado 276598" d="M232.432,285.671l37.829,11.191v-5.109l-37.829-10.861Z" transform="translate(495 781.11)" fill="#63362c"/>
    <path id="Trazado_276599" data-name="Trazado 276599" d="M233.534,274.9a3.923,3.923,0,0,1-.069,4.9c-.4.406-.908.715-1.258,1.155a1.151,1.151,0,0,0-.09,1.5,3.261,3.261,0,0,0,1.054.506c1.4.619,1.62,2.336,1.583,3.758s-.134,2.815-.291,4.217a2.6,2.6,0,0,1-.44,1.379c-.374.465-1.063,1.1-.555,1.443.2.135.5.1.683.258a.66.66,0,0,1,.151.544c-.164,5.006.178,10.011-.115,15.013a2.614,2.614,0,0,1-.369,1.43,2.837,2.837,0,0,1-1.738.887,34.142,34.142,0,0,1-13.339,0A2.837,2.837,0,0,1,217,311a2.614,2.614,0,0,1-.369-1.43c-.293-5,.049-10.007-.115-15.013a.66.66,0,0,1,.151-.544c.18-.157.483-.123.683-.258.509-.344-.181-.978-.555-1.443a2.6,2.6,0,0,1-.44-1.379q-.235-2.1-.291-4.217c-.037-1.422.179-3.139,1.583-3.758a3.267,3.267,0,0,0,1.055-.506,1.152,1.152,0,0,0-.091-1.5c-.349-.44-.862-.749-1.258-1.155a3.923,3.923,0,0,1-.069-4.9,10.745,10.745,0,0,1,3.584-3.065c1.111-.632,2.783-1.1,2.524-2.631-.034-.2-.082-.438.093-.556a.571.571,0,0,1,.324-.062c1.316.009,2.657-.053,3.967.012.2.01.422.122.413.3a.558.558,0,0,1-.075.2,1.376,1.376,0,0,0,.057.973,1.272,1.272,0,0,0,.181.407,1.393,1.393,0,0,0,.269.25c.877.682,1.744,1.427,2.613,2.137a10.993,10.993,0,0,1,2.3,2.032" transform="translate(495 781.11)" fill="#fff"/>
    <path id="Trazado_276600" data-name="Trazado 276600" d="M228.984,268.895H222.7V266.21a.466.466,0,0,1,.466-.466h5.357a.466.466,0,0,1,.465.466Z" transform="translate(495 781.11)" fill="#ea8378"/>
    <path id="Trazado_276601" data-name="Trazado 276601" d="M232.689,284.6c-.068-.028-.14-.052-.212-.077a3.6,3.6,0,0,1-1.438-.808,2.593,2.593,0,0,1-.028-3.568,6.385,6.385,0,0,1,1-.943,4.866,4.866,0,0,0,.42-.359c.743-.747.526-2.148-.113-3.07a5.963,5.963,0,0,0-1.321-1.162c-.25-.185-.5-.367-.736-.557l-.557-.452h-8.761a8.507,8.507,0,0,0-2.435,2.169c-.64.924-.856,2.325-.116,3.071a5.036,5.036,0,0,0,.422.36,6.345,6.345,0,0,1,1,.943,2.6,2.6,0,0,1-.028,3.568,3.6,3.6,0,0,1-1.437.808c-.072.025-.145.049-.212.077-.328.143-.666.832-.626,2.337.037,1.389.137,2.795.294,4.174a2.758,2.758,0,0,0,.116.614l.16.185a2.782,2.782,0,0,1,.935,2.2,1.969,1.969,0,0,1-.9,1.341c-.04.027-.08.051-.121.076.054,2.1.029,4.212,0,6.259-.034,2.764-.07,5.621.1,8.4a3.826,3.826,0,0,0,.068.63,1.887,1.887,0,0,0,.738.246,34.105,34.105,0,0,0,13.019,0,2.887,2.887,0,0,0,.715-.217,2.564,2.564,0,0,0,.09-.658c.167-2.789.132-5.652.1-8.421-.026-2.03-.052-4.125,0-6.245-.04-.022-.078-.047-.118-.073a1.972,1.972,0,0,1-.9-1.343,2.783,2.783,0,0,1,.932-2.2l.155-.179a2.52,2.52,0,0,0,.124-.623c.158-1.383.257-2.788.292-4.174.042-1.505-.3-2.194-.623-2.337" transform="translate(495 781.11)" fill="#ccdbe2"/>
    <path id="Trazado_276602" data-name="Trazado 276602" d="M246.2,277.361a3.923,3.923,0,0,1-.069,4.9c-.4.406-.908.714-1.258,1.155a1.151,1.151,0,0,0-.09,1.5,3.261,3.261,0,0,0,1.054.506c1.4.619,1.62,2.336,1.583,3.757s-.134,2.816-.291,4.218a2.59,2.59,0,0,1-.44,1.378c-.374.466-1.064,1.1-.555,1.444.2.135.5.1.683.258a.66.66,0,0,1,.151.544c-.164,5.006.178,10.011-.115,15.013a2.609,2.609,0,0,1-.369,1.429,2.833,2.833,0,0,1-1.738.888,34.143,34.143,0,0,1-13.339,0,2.833,2.833,0,0,1-1.738-.888,2.609,2.609,0,0,1-.369-1.429c-.293-5,.049-10.007-.115-15.013a.66.66,0,0,1,.151-.544c.18-.157.483-.123.683-.258.509-.344-.181-.978-.555-1.444a2.59,2.59,0,0,1-.44-1.378q-.235-2.1-.291-4.218c-.037-1.421.179-3.138,1.583-3.757a3.267,3.267,0,0,0,1.055-.506,1.152,1.152,0,0,0-.091-1.5,16.9,16.9,0,0,0-1.258-1.155,3.923,3.923,0,0,1-.069-4.9,10.734,10.734,0,0,1,3.584-3.065c1.111-.632,2.783-1.1,2.524-2.631-.033-.2-.082-.438.093-.556a.571.571,0,0,1,.324-.062c1.316.009,2.657-.053,3.967.012.2.009.422.122.413.3a.563.563,0,0,1-.075.2,1.375,1.375,0,0,0,.057.973,1.272,1.272,0,0,0,.181.407,1.358,1.358,0,0,0,.269.249c.877.683,1.744,1.428,2.613,2.138a10.993,10.993,0,0,1,2.3,2.032" transform="translate(495 781.11)" fill="#fff"/>
    <path id="Trazado_276603" data-name="Trazado 276603" d="M241.648,271.358H235.36v-2.685a.466.466,0,0,1,.466-.466h5.357a.466.466,0,0,1,.465.466Z" transform="translate(495 781.11)" fill="#ea8378"/>
    <path id="Trazado_276604" data-name="Trazado 276604" d="M245.353,287.064c-.068-.029-.14-.053-.212-.077a3.612,3.612,0,0,1-1.438-.809,2.593,2.593,0,0,1-.028-3.568,6.33,6.33,0,0,1,1-.942,5.063,5.063,0,0,0,.42-.36c.743-.747.526-2.148-.113-3.07a5.963,5.963,0,0,0-1.321-1.162c-.25-.184-.5-.367-.736-.557l-.557-.452H233.6a8.509,8.509,0,0,0-2.435,2.17c-.64.923-.856,2.324-.116,3.07a5.033,5.033,0,0,0,.422.36,6.348,6.348,0,0,1,1,.943,2.6,2.6,0,0,1-.028,3.568,3.611,3.611,0,0,1-1.437.809c-.072.024-.145.048-.212.077-.328.142-.666.831-.626,2.336.037,1.389.137,2.8.294,4.174a2.758,2.758,0,0,0,.116.614l.16.185a2.784,2.784,0,0,1,.935,2.2,1.967,1.967,0,0,1-.9,1.341c-.04.027-.08.052-.121.076.054,2.1.028,4.212,0,6.259-.034,2.764-.07,5.622.1,8.405a3.84,3.84,0,0,0,.068.631,1.93,1.93,0,0,0,.738.246,34.157,34.157,0,0,0,13.019,0,2.905,2.905,0,0,0,.715-.218,2.564,2.564,0,0,0,.09-.658c.167-2.789.132-5.652.1-8.421-.026-2.03-.052-4.125,0-6.245-.04-.022-.078-.047-.118-.073a1.972,1.972,0,0,1-.9-1.343,2.783,2.783,0,0,1,.932-2.2l.155-.179a2.476,2.476,0,0,0,.123-.623c.159-1.383.258-2.788.293-4.174.042-1.505-.3-2.194-.623-2.336" transform="translate(495 781.11)" fill="#ccdbe2"/>
    <path id="Trazado_276605" data-name="Trazado 276605" d="M261.109,279.526a3.923,3.923,0,0,1-.069,4.9c-.4.406-.909.715-1.258,1.155a1.151,1.151,0,0,0-.09,1.5,3.261,3.261,0,0,0,1.054.506c1.4.619,1.62,2.336,1.583,3.758s-.134,2.815-.291,4.217a2.6,2.6,0,0,1-.44,1.379c-.374.465-1.063,1.1-.555,1.443.2.135.5.1.683.258a.66.66,0,0,1,.151.544c-.164,5.006.178,10.011-.115,15.013a2.609,2.609,0,0,1-.369,1.429,2.833,2.833,0,0,1-1.738.888,34.142,34.142,0,0,1-13.339,0,2.833,2.833,0,0,1-1.738-.888,2.609,2.609,0,0,1-.369-1.429c-.293-5,.049-10.007-.115-15.013a.66.66,0,0,1,.151-.544c.18-.157.483-.123.683-.258.509-.344-.181-.978-.555-1.443a2.6,2.6,0,0,1-.44-1.379q-.235-2.1-.291-4.217c-.037-1.422.179-3.139,1.583-3.758a3.267,3.267,0,0,0,1.055-.506,1.152,1.152,0,0,0-.091-1.5c-.349-.44-.862-.749-1.258-1.155a3.923,3.923,0,0,1-.069-4.9,10.734,10.734,0,0,1,3.584-3.065c1.111-.632,2.783-1.1,2.524-2.631-.034-.2-.081-.438.093-.556a.571.571,0,0,1,.324-.062c1.316.009,2.657-.053,3.967.012.195.009.422.122.413.3a.564.564,0,0,1-.075.2,1.376,1.376,0,0,0,.057.973,1.272,1.272,0,0,0,.181.407,1.357,1.357,0,0,0,.269.249c.877.683,1.744,1.428,2.613,2.138a10.993,10.993,0,0,1,2.3,2.032" transform="translate(495 781.11)" fill="#fff"/>
    <path id="Trazado_276606" data-name="Trazado 276606" d="M256.558,273.523H250.27v-2.685a.466.466,0,0,1,.466-.465h5.357a.465.465,0,0,1,.465.465Z" transform="translate(495 781.11)" fill="#ea8378"/>
    <path id="Trazado_276607" data-name="Trazado 276607" d="M260.264,289.229c-.068-.029-.14-.053-.212-.077a3.6,3.6,0,0,1-1.438-.809,2.593,2.593,0,0,1-.028-3.568,6.329,6.329,0,0,1,1-.942,4.876,4.876,0,0,0,.42-.36c.743-.747.526-2.148-.113-3.07a5.962,5.962,0,0,0-1.321-1.162c-.25-.184-.5-.367-.736-.557l-.557-.451h-8.761a8.492,8.492,0,0,0-2.435,2.169c-.64.923-.857,2.325-.116,3.07a4.992,4.992,0,0,0,.421.36,6.308,6.308,0,0,1,1,.943,2.6,2.6,0,0,1-.028,3.568,3.612,3.612,0,0,1-1.437.809c-.072.024-.145.048-.212.077-.328.142-.666.831-.626,2.336.037,1.39.137,2.795.294,4.174a2.758,2.758,0,0,0,.116.614l.16.185a2.784,2.784,0,0,1,.935,2.2,1.97,1.97,0,0,1-.9,1.341c-.04.027-.08.052-.121.076.054,2.1.028,4.212,0,6.259-.034,2.765-.07,5.623.1,8.4a3.839,3.839,0,0,0,.068.631,1.92,1.92,0,0,0,.738.246,34.157,34.157,0,0,0,13.019,0,2.9,2.9,0,0,0,.715-.218,2.563,2.563,0,0,0,.09-.658c.167-2.789.132-5.652.1-8.421-.026-2.03-.052-4.125,0-6.245-.04-.022-.078-.047-.118-.073a1.972,1.972,0,0,1-.9-1.343,2.783,2.783,0,0,1,.932-2.2l.155-.179a2.521,2.521,0,0,0,.123-.623c.159-1.383.258-2.788.293-4.174.042-1.505-.3-2.194-.623-2.336" transform="translate(495 781.11)" fill="#ccdbe2"/>
    <path id="Trazado_276608" data-name="Trazado 276608" d="M218.945,278.115a3.923,3.923,0,0,1-.069,4.9c-.4.406-.909.715-1.258,1.155a1.151,1.151,0,0,0-.09,1.5,3.261,3.261,0,0,0,1.054.506c1.4.619,1.62,2.336,1.583,3.758s-.134,2.815-.291,4.217a2.6,2.6,0,0,1-.44,1.379c-.374.465-1.063,1.1-.555,1.443.2.135.5.1.683.258a.66.66,0,0,1,.151.544c-.164,5.006.178,10.011-.115,15.013a2.614,2.614,0,0,1-.369,1.43,2.837,2.837,0,0,1-1.738.887,34.143,34.143,0,0,1-13.339,0,2.837,2.837,0,0,1-1.738-.887,2.614,2.614,0,0,1-.369-1.43c-.293-5,.049-10.007-.115-15.013a.66.66,0,0,1,.151-.544c.18-.157.483-.123.683-.258.509-.344-.181-.978-.555-1.443a2.6,2.6,0,0,1-.44-1.379q-.235-2.1-.291-4.217c-.037-1.422.179-3.139,1.583-3.758a3.267,3.267,0,0,0,1.055-.506,1.152,1.152,0,0,0-.091-1.5c-.349-.44-.862-.749-1.258-1.155a3.923,3.923,0,0,1-.069-4.9,10.734,10.734,0,0,1,3.584-3.065c1.111-.632,2.783-1.1,2.524-2.631-.034-.2-.082-.438.093-.556a.571.571,0,0,1,.324-.062c1.316.009,2.657-.053,3.967.012.195.009.422.122.413.3a.565.565,0,0,1-.075.2,1.375,1.375,0,0,0,.057.973,1.272,1.272,0,0,0,.181.407,1.394,1.394,0,0,0,.269.25c.877.682,1.744,1.427,2.613,2.137a10.993,10.993,0,0,1,2.3,2.032" transform="translate(495 781.11)" fill="#fff"/>
    <path id="Trazado_276609" data-name="Trazado 276609" d="M214.4,272.112h-6.288v-2.685a.466.466,0,0,1,.466-.466h5.357a.466.466,0,0,1,.465.466Z" transform="translate(495 781.11)" fill="#ea8378"/>
    <path id="Trazado_276610" data-name="Trazado 276610" d="M218.1,287.818c-.068-.029-.14-.053-.212-.077a3.612,3.612,0,0,1-1.438-.809,2.593,2.593,0,0,1-.028-3.568,6.33,6.33,0,0,1,1-.942,5.058,5.058,0,0,0,.42-.36c.743-.748.526-2.148-.113-3.07a5.964,5.964,0,0,0-1.321-1.162c-.25-.184-.5-.367-.736-.557l-.557-.452h-8.761a8.494,8.494,0,0,0-2.435,2.17c-.64.923-.857,2.324-.116,3.07a5.185,5.185,0,0,0,.421.36,6.307,6.307,0,0,1,1,.943,2.6,2.6,0,0,1-.028,3.568,3.611,3.611,0,0,1-1.437.809c-.072.024-.145.048-.212.077-.328.142-.666.831-.626,2.336.037,1.389.137,2.8.294,4.174a2.758,2.758,0,0,0,.116.614l.16.185a2.784,2.784,0,0,1,.935,2.2,1.97,1.97,0,0,1-.9,1.341c-.04.027-.08.051-.121.076.054,2.1.028,4.212,0,6.259-.034,2.764-.07,5.622.1,8.4a3.838,3.838,0,0,0,.068.631,1.93,1.93,0,0,0,.738.246,34.157,34.157,0,0,0,13.019,0,2.905,2.905,0,0,0,.715-.218,2.564,2.564,0,0,0,.09-.658c.167-2.789.132-5.652.1-8.421-.026-2.03-.052-4.125,0-6.245-.04-.022-.078-.047-.118-.073a1.972,1.972,0,0,1-.9-1.343,2.782,2.782,0,0,1,.932-2.2l.155-.179a2.521,2.521,0,0,0,.123-.623c.159-1.383.258-2.788.293-4.174.042-1.505-.3-2.194-.623-2.336" transform="translate(495 781.11)" fill="#ccdbe2"/>
    <path id="Trazado_276611" data-name="Trazado 276611" d="M230.819,281.617a3.923,3.923,0,0,1-.069,4.9c-.4.406-.908.715-1.258,1.155a1.151,1.151,0,0,0-.09,1.5,3.261,3.261,0,0,0,1.054.506c1.4.619,1.62,2.336,1.583,3.758s-.134,2.815-.291,4.217a2.6,2.6,0,0,1-.44,1.379c-.374.465-1.063,1.1-.555,1.443.2.135.5.1.683.258a.66.66,0,0,1,.151.544c-.164,5.006.178,10.011-.115,15.013a2.614,2.614,0,0,1-.369,1.43,2.837,2.837,0,0,1-1.738.887,34.142,34.142,0,0,1-13.339,0,2.837,2.837,0,0,1-1.738-.887,2.614,2.614,0,0,1-.369-1.43c-.293-5,.049-10.007-.115-15.013a.66.66,0,0,1,.151-.544c.18-.157.483-.123.683-.258.509-.344-.181-.978-.555-1.443a2.6,2.6,0,0,1-.44-1.379q-.236-2.1-.291-4.217c-.037-1.422.179-3.139,1.583-3.758a3.267,3.267,0,0,0,1.055-.506,1.152,1.152,0,0,0-.091-1.5c-.349-.44-.862-.749-1.258-1.155a3.923,3.923,0,0,1-.069-4.9,10.733,10.733,0,0,1,3.584-3.065c1.111-.632,2.783-1.1,2.524-2.631-.034-.2-.082-.438.093-.556a.571.571,0,0,1,.324-.062c1.316.009,2.657-.053,3.967.012.2.009.422.122.413.3a.565.565,0,0,1-.075.2,1.375,1.375,0,0,0,.057.973,1.272,1.272,0,0,0,.181.407,1.393,1.393,0,0,0,.269.25c.877.682,1.744,1.427,2.613,2.137a10.993,10.993,0,0,1,2.3,2.032" transform="translate(495 781.11)" fill="#fff"/>
    <path id="Trazado_276612" data-name="Trazado 276612" d="M226.269,275.614h-6.288v-2.685a.466.466,0,0,1,.466-.466H225.8a.466.466,0,0,1,.465.466Z" transform="translate(495 781.11)" fill="#ea8378"/>
    <path id="Trazado_276613" data-name="Trazado 276613" d="M229.974,291.32c-.068-.029-.14-.053-.212-.077a3.612,3.612,0,0,1-1.438-.809,2.593,2.593,0,0,1-.028-3.568,6.327,6.327,0,0,1,1-.942,5.064,5.064,0,0,0,.42-.36c.743-.747.526-2.148-.113-3.07a5.963,5.963,0,0,0-1.321-1.162c-.25-.184-.5-.367-.736-.557l-.557-.452h-8.761a8.494,8.494,0,0,0-2.435,2.17c-.64.923-.856,2.324-.116,3.07a5.031,5.031,0,0,0,.422.36,6.344,6.344,0,0,1,1,.943,2.6,2.6,0,0,1-.028,3.568,3.611,3.611,0,0,1-1.437.809c-.072.024-.145.048-.212.077-.328.142-.666.831-.626,2.336.037,1.389.137,2.795.294,4.174a2.758,2.758,0,0,0,.116.614l.16.185a2.784,2.784,0,0,1,.935,2.2,1.967,1.967,0,0,1-.9,1.341c-.04.027-.08.052-.121.076.054,2.1.029,4.212,0,6.259-.034,2.764-.07,5.622.1,8.4a3.839,3.839,0,0,0,.068.631,1.931,1.931,0,0,0,.738.246,34.159,34.159,0,0,0,13.019,0,2.906,2.906,0,0,0,.715-.218,2.563,2.563,0,0,0,.09-.658c.167-2.789.132-5.652.1-8.421-.026-2.03-.052-4.125,0-6.245-.04-.022-.078-.047-.118-.073a1.972,1.972,0,0,1-.9-1.343,2.783,2.783,0,0,1,.932-2.2l.155-.179a2.521,2.521,0,0,0,.124-.623c.158-1.383.257-2.788.292-4.174.042-1.505-.3-2.194-.623-2.336" transform="translate(495 781.11)" fill="#ccdbe2"/>
    <path id="Trazado_276614" data-name="Trazado 276614" d="M244.837,283.777a3.923,3.923,0,0,1-.069,4.9c-.4.406-.909.715-1.258,1.155a1.152,1.152,0,0,0-.091,1.5,3.277,3.277,0,0,0,1.055.506c1.4.619,1.62,2.336,1.583,3.758s-.134,2.815-.291,4.217a2.6,2.6,0,0,1-.44,1.379c-.374.465-1.064,1.1-.555,1.443.2.135.5.1.683.258a.66.66,0,0,1,.151.544c-.164,5.006.178,10.011-.115,15.013a2.609,2.609,0,0,1-.369,1.429,2.836,2.836,0,0,1-1.738.888,34.143,34.143,0,0,1-13.339,0,2.833,2.833,0,0,1-1.738-.888,2.609,2.609,0,0,1-.369-1.429c-.293-5,.049-10.007-.115-15.013a.66.66,0,0,1,.151-.544c.18-.157.483-.123.683-.258.509-.344-.181-.978-.555-1.443a2.6,2.6,0,0,1-.44-1.379q-.235-2.1-.291-4.217c-.037-1.422.179-3.139,1.583-3.758a3.277,3.277,0,0,0,1.055-.506,1.152,1.152,0,0,0-.091-1.5c-.349-.44-.862-.749-1.258-1.155a3.923,3.923,0,0,1-.069-4.9,10.734,10.734,0,0,1,3.584-3.065c1.111-.632,2.783-1.1,2.524-2.631-.034-.2-.081-.438.093-.556a.571.571,0,0,1,.324-.062c1.316.009,2.657-.053,3.967.012.195.009.422.122.413.3a.562.562,0,0,1-.075.2,1.375,1.375,0,0,0,.057.973,1.272,1.272,0,0,0,.181.407,1.358,1.358,0,0,0,.269.249c.877.683,1.744,1.428,2.613,2.138a10.992,10.992,0,0,1,2.3,2.032" transform="translate(495 781.11)" fill="#fff"/>
    <path id="Trazado_276615" data-name="Trazado 276615" d="M240.286,277.775H234V275.09a.466.466,0,0,1,.466-.465h5.357a.465.465,0,0,1,.465.465Z" transform="translate(495 781.11)" fill="#ea8378"/>
    <path id="Trazado_276616" data-name="Trazado 276616" d="M243.991,293.48c-.068-.029-.14-.053-.212-.077a3.612,3.612,0,0,1-1.438-.809,2.593,2.593,0,0,1-.028-3.568,6.327,6.327,0,0,1,1-.942,5.064,5.064,0,0,0,.42-.36c.744-.747.526-2.148-.113-3.07a5.963,5.963,0,0,0-1.321-1.162c-.25-.184-.5-.367-.736-.557l-.557-.452h-8.761a8.509,8.509,0,0,0-2.435,2.17c-.64.923-.856,2.325-.115,3.07a4.866,4.866,0,0,0,.421.36,6.345,6.345,0,0,1,1,.943,2.6,2.6,0,0,1-.028,3.568,3.605,3.605,0,0,1-1.437.809c-.072.024-.145.048-.212.077-.328.142-.666.831-.626,2.336.037,1.389.137,2.795.294,4.174a2.758,2.758,0,0,0,.116.614l.16.185a2.784,2.784,0,0,1,.935,2.2,1.967,1.967,0,0,1-.9,1.341c-.04.027-.08.052-.121.076.054,2.1.029,4.212,0,6.259-.034,2.765-.07,5.622.1,8.4a3.839,3.839,0,0,0,.068.631,1.932,1.932,0,0,0,.738.246,34.159,34.159,0,0,0,13.019,0,2.906,2.906,0,0,0,.715-.218,2.606,2.606,0,0,0,.091-.658c.167-2.789.131-5.652.1-8.421-.026-2.03-.052-4.125,0-6.245-.04-.022-.078-.047-.118-.073a1.972,1.972,0,0,1-.9-1.343,2.783,2.783,0,0,1,.932-2.2l.155-.179a2.477,2.477,0,0,0,.123-.623c.159-1.383.258-2.788.293-4.174.042-1.505-.3-2.194-.623-2.336" transform="translate(495 781.11)" fill="#ccdbe2"/>
    <path id="Trazado_276617" data-name="Trazado 276617" d="M194.593,312.466l37.829,10.861v-5.109l-37.829-10.861Z" transform="translate(495 781.11)" fill="#724235"/>
    <path id="Trazado_276618" data-name="Trazado 276618" d="M270.27,315.367l-37.848,7.96v-5.109l37.848-7.96Z" transform="translate(495 781.11)" fill="#845444"/>
    <path id="Trazado_276619" data-name="Trazado 276619" d="M194.593,302.725l37.829,10.861v-5.109l-37.829-10.861Z" transform="translate(495 781.11)" fill="#724235"/>
    <path id="Trazado_276620" data-name="Trazado 276620" d="M270.27,305.626l-37.848,7.96v-5.109l37.848-7.96Z" transform="translate(495 781.11)" fill="#845444"/>
    <path id="Trazado_276621" data-name="Trazado 276621" d="M194.593,293.959l37.829,10.861v-5.109L194.593,288.85Z" transform="translate(495 781.11)" fill="#724235"/>
    <path id="Trazado_276622" data-name="Trazado 276622" d="M270.27,296.86l-37.848,7.96v-5.109l37.848-7.96Z" transform="translate(495 781.11)" fill="#845444"/>
    <path id="Trazado_276623" data-name="Trazado 276623" d="M199.018,289.626V313.8l3.972,1.14v-24.1Z" transform="translate(495 781.11)" fill="#542d26"/>
    <path id="Trazado_276624" data-name="Trazado 276624" d="M221.09,295.984v24.173l3.972,1.141V297.2Z" transform="translate(495 781.11)" fill="#542d26"/>
    <path id="Trazado_276625" data-name="Trazado 276625" d="M242.047,297.186v24.173l-3.972.824v-24.1Z" transform="translate(495 781.11)" fill="#542d26"/>
    <path id="Trazado_276626" data-name="Trazado 276626" d="M267.134,291.912v24.173l-3.972.824v-24.1Z" transform="translate(495 781.11)" fill="#542d26"/>
    <rect id="Rect치ngulo_324203" data-name="Rect치ngulo 324203" width="673.827" height="595.404" transform="translate(495 781.11)" fill="none"/>
  </g>
</svg>
