<svg xmlns="http://www.w3.org/2000/svg" xmlns:xlink="http://www.w3.org/1999/xlink" width="738.557" height="2501.106" viewBox="0 0 738.557 2501.106">
  <defs>
    <clipPath id="clip-path">
      <rect id="Rectángulo_324219" data-name="Rectángulo 324219" width="245.799" height="21.06" transform="translate(228.736 332.93)" fill="none"/>
    </clipPath>
    <clipPath id="clip-path-2">
      <rect id="Rectángulo_324220" data-name="Rectángulo 324220" width="104.147" height="18.38" transform="translate(231.173 326.83)" fill="none"/>
    </clipPath>
    <clipPath id="clip-path-3">
      <rect id="Rectángulo_324221" data-name="Rectángulo 324221" width="28.909" height="66.12" transform="translate(349.266 233.65)" fill="none"/>
    </clipPath>
    <clipPath id="clip-path-4">
      <rect id="Rectángulo_324222" data-name="Rectángulo 324222" width="12.243" height="22.81" transform="translate(280.685 165)" fill="none"/>
    </clipPath>
    <clipPath id="clip-path-5">
      <rect id="Rectángulo_324223" data-name="Rectángulo 324223" width="24.712" height="5.18" transform="translate(299.96 104.87)" fill="none"/>
    </clipPath>
    <clipPath id="clip-path-6">
      <rect id="Rectángulo_324229" data-name="Rectángulo 324229" width="3.908" height="18.99" transform="translate(517.05 292.47)" fill="none"/>
    </clipPath>
    <clipPath id="clip-path-7">
      <rect id="Rectángulo_324230" data-name="Rectángulo 324230" width="4.285" height="13.41" transform="translate(473.343 305.58)" fill="none"/>
    </clipPath>
    <clipPath id="clip-path-8">
      <rect id="Rectángulo_324231" data-name="Rectángulo 324231" width="7.935" height="2.54" transform="translate(435.975 296.59)" fill="none"/>
    </clipPath>
    <clipPath id="clip-path-9">
      <rect id="Rectángulo_324232" data-name="Rectángulo 324232" width="4.882" height="6.39" transform="translate(427.135 306.78)" fill="none"/>
    </clipPath>
  </defs>
  <g id="Grupo_1075639" data-name="Grupo 1075639" transform="translate(-3909.438 10958.696)">
    <path id="Trazado_276823" data-name="Trazado 276823" d="M573.482,334.028c0-9.912-81.764-17.948-182.625-17.948s-182.625,8.036-182.625,17.948c0,5.3,23.419,10.07,60.643,13.356-17.808,1.6-28.982,3.9-28.982,6.461,0,4.836,39.885,8.755,89.084,8.755s89.084-3.919,89.084-8.755c0-.7-.861-1.381-2.443-2.034,89.147-1.188,157.864-8.7,157.864-17.783" transform="translate(3909.438 -10958.7)" fill="#c9c250"/>
    <g id="Grupo_258373" data-name="Grupo 258373" transform="translate(3909.438 -10958.7)" style="mix-blend-mode: multiply;isolation: isolate">
      <g id="Grupo_258372" data-name="Grupo 258372">
        <g id="Grupo_258371" data-name="Grupo 258371" clip-path="url(#clip-path)">
          <path id="Trazado_276824" data-name="Trazado 276824" d="M228.736,335.632a3.884,3.884,0,0,1,2.808-2.281,12.46,12.46,0,0,1,3.64-.425,9.187,9.187,0,0,1,3.62.785,4.707,4.707,0,0,1,2.555,2.6,6.359,6.359,0,0,0-2.893-1.719,12.82,12.82,0,0,0-3.317-.458,22.555,22.555,0,0,0-3.4.136,4.67,4.67,0,0,0-3.009,1.365" fill="#c9c250"/>
          <path id="Trazado_276825" data-name="Trazado 276825" d="M358.444,353.991a4.433,4.433,0,0,1,4.056-3.832,4.017,4.017,0,0,1,1.58.159c.494.146.934.335,1.349.461a5.681,5.681,0,0,0,2.557.12,14.363,14.363,0,0,1,2.926-.11,25.807,25.807,0,0,1,2.849.453q2.787.539,5.539,1.309-2.857-.075-5.679-.379c-.946-.084-1.871-.222-2.779-.244a14.405,14.405,0,0,0-2.729.169,6.614,6.614,0,0,1-3.052-.241,6.594,6.594,0,0,0-2.52-.761,4.423,4.423,0,0,0-4.1,2.9" fill="#c9c250"/>
          <path id="Trazado_276826" data-name="Trazado 276826" d="M459.943,347.291a3.909,3.909,0,0,1,2.379-3.509,6.6,6.6,0,0,1,4.431-.09c2.843.836,4.941,2.641,7.782,2.846a7.274,7.274,0,0,1-4.235-.309c-1.362-.425-2.607-1.039-3.875-1.378a6.829,6.829,0,0,0-3.771-.193,4.214,4.214,0,0,0-2.711,2.633" fill="#c9c250"/>
        </g>
      </g>
    </g>
    <path id="Trazado_276827" data-name="Trazado 276827" d="M235.569,326.527s0-22.9-22-34.958c0,0,25.615,6.931,25.314,33.15Z" transform="translate(3909.438 -10958.7)" fill="#c9c250"/>
    <path id="Trazado_276828" data-name="Trazado 276828" d="M237.076,326.527s1.205-21.7-20.493-23.506c0,0,16.877,11.452,15.671,24.41Z" transform="translate(3909.438 -10958.7)" fill="#c9c250"/>
    <g id="Grupo_258376" data-name="Grupo 258376" transform="translate(3909.438 -10958.7)" opacity="0.3" style="mix-blend-mode: multiply;isolation: isolate">
      <g id="Grupo_258375" data-name="Grupo 258375">
        <g id="Grupo_258374" data-name="Grupo 258374" clip-path="url(#clip-path-2)">
          <path id="Trazado_276829" data-name="Trazado 276829" d="M335.32,335.869c0,3.5-5.053,9.342-32.848,9.342s-67.807-5.846-67.807-9.342-13.932-9.04,13.863-9.04,86.792,5.546,86.792,9.04" fill="#c9c250"/>
        </g>
      </g>
    </g>
    <path id="Trazado_276830" data-name="Trazado 276830" d="M343.344,209.176l-12.449-11.3,1.731-45.864c.176-4.685-6.078-7.1-9.673-3.729a9.164,9.164,0,0,0-2.467,3.312c-3.207,9.128-4.185,21.081-3.992,33.2.048,3.181.175,6.375.363,9.531a13.492,13.492,0,0,0,6.392,10.667c2.643,1.632,5.079,3.087,7.214,4.339,4.864,2.84,8.171,4.624,8.854,4.984l.133.069,4.073-5.038Z" transform="translate(3909.438 -10958.7)" fill="#e38759"/>
    <path id="Trazado_276831" data-name="Trazado 276831" d="M338.8,213.037s2.2,6.179,5.81,8.6a.387.387,0,0,0,.616-.419L344,217.454s3.369,4.419,5.15,4.462a.265.265,0,0,0,.2-.436l-2.84-3.958s4.284,3.266,5.616,2.919-4.145-4.927-4.145-4.927,4.979,2.766,5.8,2.37-6.866-5.742-6.866-5.742,3.13-1,3.119-1.9-7.232-1.484-8.331-.752Z" transform="translate(3909.438 -10958.7)" fill="#e38759"/>
    <path id="Trazado_276832" data-name="Trazado 276832" d="M325.871,142.809s6.2,3.1,7.287,8.527-1.4,45.116-1.4,45.116l9.3,9.612-5.582,6.821s-16.9-7.441-18.449-14.108-4.651-46.046,8.837-55.968" transform="translate(3909.438 -10958.7)" fill="#ad49a4"/>
    <path id="Trazado_276833" data-name="Trazado 276833" d="M325.871,189.94l-42.318-3.513s-10.394,14.055-11.324,30.179-1.706,49.147-1.706,49.147L257.567,295.02A31.381,31.381,0,0,0,255.2,302.2l-.494,2.47,9.768,5.736,2.91-2.2a31.384,31.384,0,0,0,6.951-7.274l18.819-26.884a13.886,13.886,0,0,0,2.309-5.971l5.444-39.686-2.969,75.286a15.051,15.051,0,0,0,.377,3.8l1.119,4.87,14.341.543,2.142-4.9a14.978,14.978,0,0,0,1.1-3.823c2.009-13.616,12.137-88.39,12.421-92.357.31-4.341-3.566-21.86-3.566-21.86" transform="translate(3909.438 -10958.7)" fill="#36312e"/>
    <path id="Trazado_276834" data-name="Trazado 276834" d="M298.274,308.853s-.155,17.054-.775,20.31c-.559,2.934-1.593,5.315-1.368,8.041a.888.888,0,0,0,.895.8h27.158a.9.9,0,0,0,.546-1.62,20.565,20.565,0,0,0-7.387-3.652c-5.271-1.24-4.5-3.875-4.031-6.046s2.636-16.589,2.636-16.589Z" transform="translate(3909.438 -10958.7)" fill="#ad49a4"/>
    <path id="Trazado_276835" data-name="Trazado 276835" d="M255.136,299.094s-7.33,15.4-9.265,18.091c-1.744,2.425-3.684,4.148-4.63,6.715a.888.888,0,0,0,.476,1.1l24.31,12.769a.9.9,0,0,0,1.177-1.239,27.938,27.938,0,0,0-4.666-7.366c-3.627-4.02-2.618-5.788-1.281-7.561s9.383-13.931,9.383-13.931Z" transform="translate(3909.438 -10958.7)" fill="#ad49a4"/>
    <path id="Trazado_276836" data-name="Trazado 276836" d="M316.635,143.827l3.49-3.221c-4.576-2.236-3.727-11.951-3.727-11.951l-11.551-8.334s-1.827,16.149-6.759,17.421l7.862,1.931Z" transform="translate(3909.438 -10958.7)" fill="#ed8d5d"/>
    <path id="Trazado_276837" data-name="Trazado 276837" d="M316.413,132.5a5.887,5.887,0,0,1-1.132.2,5.251,5.251,0,0,1-1.277-.02c-4.008-.65-7.567-4.526-9.249-11.643.059-.457.092-.717.092-.717l.1.074c1.764,6.5,5.182,10.055,9.008,10.674a5.334,5.334,0,0,0,1.276.021,5.213,5.213,0,0,0,1.106-.2c.009.483.031,1.032.075,1.608" transform="translate(3909.438 -10958.7)" fill="#e6794e"/>
    <path id="Trazado_276838" data-name="Trazado 276838" d="M325.871,189.94s-.465-10,.814-15.465,6.395-21.046,3.721-26.86-12.791-9.767-12.791-9.767l-1.395,4.767-11.628-5-3.78-1.855s-13.2,3.948-15.638,10.46,2.326,22.79.7,26.743-2.319,13.464-2.319,13.464Z" transform="translate(3909.438 -10958.7)" fill="#ad49a4"/>
    <path id="Trazado_276839" data-name="Trazado 276839" d="M300.812,135.76l18.78,28.367-1.977-26.279-1.395,4.767Z" transform="translate(3909.438 -10958.7)" fill="#f2d6bb"/>
    <path id="Trazado_276840" data-name="Trazado 276840" d="M300.812,135.76l-6.918,13.251,11.279,3.837-3.139,6.163,17.558,5.116,6.627-11.046-3.6-1.628,3.953-7.791-8.953-5.814,1.977,25.349Z" transform="translate(3909.438 -10958.7)" fill="#efb1ec"/>
    <path id="Trazado_276841" data-name="Trazado 276841" d="M295.522,187.847l4.535.349s3.721-27.558,1.977-36.046a106.106,106.106,0,0,0-4.535-15.581l-4.826,2.442s4.012,8.837,5.058,15.93c1.168,7.916-2.209,32.906-2.209,32.906" transform="translate(3909.438 -10958.7)" fill="#36312e"/>
    <path id="Trazado_276842" data-name="Trazado 276842" d="M320.638,189.94l4.418.465s5.349-40.93,2.791-46.627l-5.232-3.953s2.209,11.627-1.977,50.115" transform="translate(3909.438 -10958.7)" fill="#36312e"/>
    <path id="Trazado_276843" data-name="Trazado 276843" d="M343.237,231.377l-10.328-5.844-9.025-5.1L317,216.542h0c-.872-.358.492-5.708,3.047-11.952s5.334-11.016,6.206-10.66l.007.007,7.63,2.044,10.009,2.692,11.462,3.073Z" transform="translate(3909.438 -10958.7)" fill="#c46d3b"/>
    <path id="Trazado_276844" data-name="Trazado 276844" d="M355.389,201.752c-.584-.239-1.559.573-2.717,2.169a26.8,26.8,0,0,0-1.495,2.265,68.006,68.006,0,0,0-4.017,8.059c-.066.163-.143.32-.2.5-.108.234-.21.482-.312.731-.765,1.87-1.43,3.68-1.994,5.367-.227.677-.429,1.326-.612,1.957a37.06,37.06,0,0,0-1.194,5.139c-.032.2-.06.392-.072.576-.2,1.623-.03,2.663.489,2.876.346.141.831-.089,1.4-.625,1.326-1.236,3.157-4.108,5.024-7.9.412-.853.842-1.75,1.253-2.692.369-.808.72-1.636,1.074-2.5.208-.508.416-1.016.6-1.507.1-.274.21-.545.3-.808.446-1.181.847-2.316,1.194-3.411,1.8-5.546,2.393-9.733,1.269-10.193" transform="translate(3909.438 -10958.7)" fill="#8c4e2a"/>
    <path id="Trazado_276845" data-name="Trazado 276845" d="M342.281,230.982a38.467,38.467,0,0,1-7.659-9.246,20.181,20.181,0,0,1-2.317-5.658,10.237,10.237,0,0,1,.381-6.219,10.454,10.454,0,0,1,4.118-4.674,20.051,20.051,0,0,1,5.632-2.377,46.867,46.867,0,0,1,11.934-1.368q-1.486.214-2.968.391c-.989.11-1.963.329-2.942.488A42.729,42.729,0,0,0,342.7,203.7a21.31,21.31,0,0,0-5.268,2.443,9.393,9.393,0,0,0-3.63,4.176,9.185,9.185,0,0,0-.382,5.528,21.537,21.537,0,0,0,2.013,5.448,38.313,38.313,0,0,0,3.128,5.022,54.361,54.361,0,0,0,3.719,4.667" transform="translate(3909.438 -10958.7)" fill="#8c4e2a"/>
    <path id="Trazado_276846" data-name="Trazado 276846" d="M384.341,288.556c.742-4.824-7.836-21.756-11.464-25.021-5.054-4.549-10.177-9.874-11.038-16.619-.3-2.352-.073-4.843-1.077-6.991-.9-1.926-2.655-3.283-4.1-4.842-4.494-4.851-3.919-9.494-8.356-14.3v0l-.024-.024c-.038-.041-.068-.081-.107-.121l0,.013c-.1-.1-.2-.192-.292-.288-.748-.756-1.51-1.5-2.272-2.234-.345.931-.665,1.84-.956,2.713-.233.677-.429,1.326-.616,1.952a37.624,37.624,0,0,0-1.194,5.144c-.02.156-.042.295-.057.436.089-.068.183-.151.281-.241l.018-.018c0,.027-.009.054-.01.082a4.009,4.009,0,0,0,.428,1.686c1.416,3.191,4.109,5.766,5.075,9.12,1.084,3.763-.2,7.744-1.2,11.531s-1.656,8.094.453,11.394c.79,1.235,1.911,2.222,2.8,3.387,3.878,5.079,12.615,21.232,11.7,30.637-.514,5.255,8.217,17.278,13.293,18.732s18.948.668,24.186,0c-2.4-5.472-17.475-13.069-15.466-26.128" transform="translate(3909.438 -10958.7)" fill="#ffddaf"/>
    <g id="Grupo_258379" data-name="Grupo 258379" transform="translate(3909.438 -10958.7)" style="mix-blend-mode: multiply;isolation: isolate">
      <g id="Grupo_258378" data-name="Grupo 258378">
        <g id="Grupo_258377" data-name="Grupo 258377" clip-path="url(#clip-path-3)">
          <path id="Trazado_276847" data-name="Trazado 276847" d="M351.641,233.655a1.272,1.272,0,0,1,.574.951c.058.37.058.726.077,1.03a1.213,1.213,0,0,0,.676,1.165,11.285,11.285,0,0,1,1.747,1.061,2.279,2.279,0,0,1,.635,1,1.021,1.021,0,0,1-.269,1.094c.09-.727-.469-1.057-.935-1.347a17.539,17.539,0,0,1-1.826-.793,2.321,2.321,0,0,1-.877-.983,2.142,2.142,0,0,1-.086-1.267c.12-.736.514-1.229.284-1.912" fill="#ffddaf"/>
          <path id="Trazado_276848" data-name="Trazado 276848" d="M350.317,248.259c.29.116.38.547.329.84a5.874,5.874,0,0,1-.193.8.988.988,0,0,0-.048.519.509.509,0,0,0,.174.295c.222.247.682.5,1.1.848a2.11,2.11,0,0,1,.922,1.419,5.507,5.507,0,0,0-1.386-.6,3.879,3.879,0,0,1-1.5-.834,1.609,1.609,0,0,1-.441-1.087,1.7,1.7,0,0,1,.342-.967c.161-.24.344-.42.486-.6a.7.7,0,0,0,.222-.634" fill="#ffddaf"/>
          <path id="Trazado_276849" data-name="Trazado 276849" d="M360.04,254.791a2.06,2.06,0,0,1,1.8,3.026,7.16,7.16,0,0,1-1.084-1.4,7.473,7.473,0,0,1-.713-1.623" fill="#ffddaf"/>
          <path id="Trazado_276850" data-name="Trazado 276850" d="M358.273,273.079a3.132,3.132,0,0,1,2.928,4.029c-.584-.787-.976-1.406-1.442-2.031-.448-.637-.916-1.2-1.486-2" fill="#ffddaf"/>
          <path id="Trazado_276851" data-name="Trazado 276851" d="M375.709,278.3a3.907,3.907,0,0,1,2.137,5.131c-.475-.946-.759-1.74-1.109-2.549-.325-.819-.689-1.581-1.028-2.582" fill="#ffddaf"/>
          <path id="Trazado_276852" data-name="Trazado 276852" d="M373.556,296.991a5.307,5.307,0,0,0,.62.806,6.979,6.979,0,0,0,.594.559,7.334,7.334,0,0,0,.639.505,5.385,5.385,0,0,0,.887.5,1.375,1.375,0,0,1-1.159.4,2.068,2.068,0,0,1-1.81-1.567,1.375,1.375,0,0,1,.229-1.2" fill="#ffddaf"/>
        </g>
      </g>
    </g>
    <path id="Trazado_276853" data-name="Trazado 276853" d="M319.6,212.446s3.074-1.163,3.016-2.061c-.045-.685-4.269-.968-6.74-.713l-4.886-4c-1,2.442-2.018,4.876-3.085,7.287,2.311,1.147,3.8,1.85,4.224,2.046.947,1.891,2.989,5.445,5.665,7.047a.388.388,0,0,0,.594-.451l-1.424-3.7s3.593,4.239,5.374,4.189a.265.265,0,0,0,.18-.446l-3.041-3.805s4.447,3.04,5.759,2.624-4.394-4.706-4.394-4.706,5.116,2.505,5.912,2.067-7.154-5.379-7.154-5.379" transform="translate(3909.438 -10958.7)" fill="#e38759"/>
    <path id="Trazado_276854" data-name="Trazado 276854" d="M287.6,185.3l7.361-28.2c-2.037-2.107-5.926-13.464-3.836-15.952a8.293,8.293,0,0,1,1.551-1.433,9.543,9.543,0,0,0-2.13.312c-6.751,1.767-14.729,20-17.364,33.644s-1.706,17.673,2.635,22.169,32.558,18.76,32.558,18.76l5.116-7.6Z" transform="translate(3909.438 -10958.7)" fill="#ad49a4"/>
    <g id="Grupo_258382" data-name="Grupo 258382" transform="translate(3909.438 -10958.7)" style="mix-blend-mode: multiply;isolation: isolate">
      <g id="Grupo_258381" data-name="Grupo 258381">
        <g id="Grupo_258380" data-name="Grupo 258380" clip-path="url(#clip-path-4)">
          <path id="Trazado_276855" data-name="Trazado 276855" d="M290.889,175.39A97.1,97.1,0,0,0,292.928,165a97.106,97.106,0,0,0-3.184,10.1q-.681,2.554-1.255,5.136c-.385,1.7-.727,3.413-1.014,5.139L286,185.336a18.357,18.357,0,0,0-2.662.091,11.358,11.358,0,0,0-2.651.578,11.306,11.306,0,0,0,2.671.478c.4.032.79.039,1.184.038a10.136,10.136,0,0,0-1.043,1.292,11.981,11.981,0,0,0,2.856-1.455l1.1-.733.094.06c.685.44,1.357.9,2.062,1.312-.525-.546-1.079-1.055-1.625-1.576.564-1.628,1.075-3.269,1.544-4.921q.736-2.539,1.357-5.11" fill="#8dccf8"/>
        </g>
      </g>
    </g>
    <path id="Trazado_276856" data-name="Trazado 276856" d="M334.588,108.294c.592,3.117-8.463,7.453-20.223,9.686S292.59,119.5,292,116.38s8.463-7.453,20.224-9.686,21.774-1.516,22.366,1.6" transform="translate(3909.438 -10958.7)" fill="#d98334"/>
    <path id="Trazado_276857" data-name="Trazado 276857" d="M319.948,106.248a13.335,13.335,0,0,0-13.621,1.181s-2.921,2.019-2.189,8.76a2.223,2.223,0,0,0-1.794-.134c-1.821.522-1.307,5.784,2.744,4.821,1.806,6.186,5.143,9.592,8.866,10.2a5.882,5.882,0,0,0,1.279.018,5.6,5.6,0,0,0,1.258-.238c2.423-.839,4.457-2.923,5.723-6.189A19.233,19.233,0,0,0,323.222,121a26.293,26.293,0,0,0,.423-4c.308-8.935-3.7-10.753-3.7-10.753" transform="translate(3909.438 -10958.7)" fill="#ed8d5d"/>
    <path id="Trazado_276858" data-name="Trazado 276858" d="M316.815,116.358c.128.486.223.958.324,1.425s.213.913.308,1.413a2.449,2.449,0,0,1-.184,1.584,1.331,1.331,0,0,1-.609.593,1.3,1.3,0,0,1-.79-.062,1.774,1.774,0,0,0,.643-.217,1.228,1.228,0,0,0,.3-.515,2.7,2.7,0,0,0,.01-1.279,9.244,9.244,0,0,1-.17-1.459,5.061,5.061,0,0,1,.169-1.483" transform="translate(3909.438 -10958.7)" fill="#051934"/>
    <path id="Trazado_276859" data-name="Trazado 276859" d="M313.007,121.269a7.4,7.4,0,0,0,.805.886,3.855,3.855,0,0,0,.931.647,2.806,2.806,0,0,0,1.076.3,5.762,5.762,0,0,0,1.188-.037,2.615,2.615,0,0,1-1.191.384,2.381,2.381,0,0,1-1.268-.247,2.97,2.97,0,0,1-1.541-1.932" transform="translate(3909.438 -10958.7)" fill="#051934"/>
    <path id="Trazado_276860" data-name="Trazado 276860" d="M302.1,117.876a.976.976,0,0,1,.719-.629,1.341,1.341,0,0,1,1.007.171,1.614,1.614,0,0,1,.641.761,1.639,1.639,0,0,1,.093.935,2.935,2.935,0,0,0-1-1.253,1.332,1.332,0,0,0-.683-.214,1.309,1.309,0,0,0-.773.229" transform="translate(3909.438 -10958.7)" fill="#051934"/>
    <path id="Trazado_276861" data-name="Trazado 276861" d="M303.249,119.63a.626.626,0,0,1-.347-.472.958.958,0,0,1,.09-.6,1,1,0,0,1,.416-.436.541.541,0,0,1,.593.022.853.853,0,0,0-.345.3,2.681,2.681,0,0,0-.2.348,2.055,2.055,0,0,0-.15.366,1.423,1.423,0,0,0-.056.474" transform="translate(3909.438 -10958.7)" fill="#051934"/>
    <path id="Trazado_276862" data-name="Trazado 276862" d="M314.049,117.209c-.071.7-.443,1.231-.831,1.192s-.646-.637-.575-1.335.443-1.231.831-1.191.646.636.575,1.334" transform="translate(3909.438 -10958.7)" fill="#051934"/>
    <path id="Trazado_276863" data-name="Trazado 276863" d="M311.668,121.437a2.489,2.489,0,1,1-2.225-2.727,2.489,2.489,0,0,1,2.225,2.727" transform="translate(3909.438 -10958.7)" fill="#e6794e"/>
    <path id="Trazado_276864" data-name="Trazado 276864" d="M323.222,121a19.234,19.234,0,0,1-1.007,3.666,2.431,2.431,0,0,1-1.294.215,2.489,2.489,0,1,1,.5-4.952,2.462,2.462,0,0,1,1.8,1.071" transform="translate(3909.438 -10958.7)" fill="#e6794e"/>
    <path id="Trazado_276865" data-name="Trazado 276865" d="M313.782,123.42a2.41,2.41,0,0,1,.534.251c.152.111.293.186.475.323a.682.682,0,0,1-.631-.072.863.863,0,0,1-.378-.5" transform="translate(3909.438 -10958.7)" fill="#051934"/>
    <path id="Trazado_276866" data-name="Trazado 276866" d="M318.562,117.667c-.071.7.187,1.295.575,1.334s.76-.494.831-1.191-.187-1.295-.575-1.335-.76.494-.831,1.192" transform="translate(3909.438 -10958.7)" fill="#051934"/>
    <path id="Trazado_276867" data-name="Trazado 276867" d="M310.648,115.163a2.005,2.005,0,0,1,.554-1.04,2.315,2.315,0,0,1,1.053-.629,2.2,2.2,0,0,1,1.232.016,2.1,2.1,0,0,1,1,.625c-.4-.01-.749-.058-1.086-.045a3.344,3.344,0,0,0-.944.129,5.809,5.809,0,0,0-1.807.944" transform="translate(3909.438 -10958.7)" fill="#051934"/>
    <path id="Trazado_276868" data-name="Trazado 276868" d="M321.431,116.15a5.839,5.839,0,0,0-1.619-1.239,3.391,3.391,0,0,0-.909-.288c-.33-.069-.679-.081-1.078-.141a2.115,2.115,0,0,1,1.091-.446,2.208,2.208,0,0,1,1.216.195,2.322,2.322,0,0,1,.931.8,2.005,2.005,0,0,1,.368,1.12" transform="translate(3909.438 -10958.7)" fill="#051934"/>
    <path id="Trazado_276869" data-name="Trazado 276869" d="M323.88,105.383a5.95,5.95,0,0,0-4.028-2.819,16.406,16.406,0,0,0-5.051-.1c-3.432.308-6.977.772-9.888,2.6a6.116,6.116,0,0,0-2.809,3.255,7.553,7.553,0,0,0,.027,3.442c.242,1.405.54,2.809.912,4.186a1.924,1.924,0,0,1,1.1.251c0-.022,0-.041-.005-.064l1.192,1.41h1.706l1.705-6.976s7.364,3.72,13.023,2.093l1.886,2.505-.132-1.7c.061.533.111,1.09.132,1.7a46.339,46.339,0,0,0,.753-5.293,8.144,8.144,0,0,0-.521-4.484" transform="translate(3909.438 -10958.7)" fill="#051934"/>
    <path id="Trazado_276870" data-name="Trazado 276870" d="M333.443,110.7c-3.023-1.85-11.525-2.018-21.218-.176-8.94,1.7-16.307,4.613-19.079,7.274A2.24,2.24,0,0,1,292,116.378c-.6-3.116,8.455-7.451,20.223-9.682s21.767-1.518,22.362,1.6a2.829,2.829,0,0,1-1.144,2.409" transform="translate(3909.438 -10958.7)" fill="#ffc474"/>
    <path id="Trazado_276871" data-name="Trazado 276871" d="M299.767,112.616s-.988-11.744,8.2-15.523,17.383,6.395,17.556,10.232Z" transform="translate(3909.438 -10958.7)" fill="#ffc474"/>
    <g id="Grupo_258385" data-name="Grupo 258385" transform="translate(3909.438 -10958.7)" style="mix-blend-mode: multiply;isolation: isolate">
      <g id="Grupo_258384" data-name="Grupo 258384">
        <g id="Grupo_258383" data-name="Grupo 258383" clip-path="url(#clip-path-5)">
          <path id="Trazado_276872" data-name="Trazado 276872" d="M299.96,110.049a56.208,56.208,0,0,1,12.024-4.133,42.309,42.309,0,0,1,6.316-.968,20.584,20.584,0,0,1,6.372.38,38.059,38.059,0,0,0-6.265.554c-2.064.323-4.117.741-6.159,1.209-2.049.442-4.086.954-6.13,1.456Z" fill="#ffc474"/>
        </g>
      </g>
    </g>
    <rect id="Rectángulo_324224" data-name="Rectángulo 324224" width="118.864" height="23.686" transform="translate(4283.466 -10644.941)" fill="#82431f"/>
    <rect id="Rectángulo_324225" data-name="Rectángulo 324225" width="40.918" height="23.855" transform="translate(4242.56 -10645.026)" fill="#82431f"/>
    <rect id="Rectángulo_324226" data-name="Rectángulo 324226" width="121.5" height="6.639" transform="translate(4283.466 -10645.031)" fill="#c46d3b"/>
    <rect id="Rectángulo_324227" data-name="Rectángulo 324227" width="121.5" height="6.639" transform="translate(4283.466 -10636.418)" fill="#c46d3b"/>
    <rect id="Rectángulo_324228" data-name="Rectángulo 324228" width="121.5" height="6.639" transform="translate(4283.466 -10627.804)" fill="#c46d3b"/>
    <path id="Trazado_276873" data-name="Trazado 276873" d="M522.22,300.39a18.073,18.073,0,0,0-1.18-14.217c.1-1.264,1.074-1.729-.024-2.363a7.347,7.347,0,0,0-3.677-.791,17.617,17.617,0,0,0-14.4,7.665c-3.155,4.7-4.809,11.377-1.646,16.075a38.356,38.356,0,0,1,6.143,26.187c.075.124.146.338.228.518h7.46c.993-1.919,1.1-4.4,2.186-6.255a14.681,14.681,0,0,0,1.844-4.036c.852-3.705-1.232-7.479-1.089-11.278.154-4.1,2.835-7.621,4.159-11.5" transform="translate(3909.438 -10958.7)" fill="#de8044"/>
    <path id="Trazado_276874" data-name="Trazado 276874" d="M504.565,337.093s1.74-3.481,2.859-3.728h7.707s-1.243,3.355-1.989,2.733l-.622,1.119Z" transform="translate(3909.438 -10958.7)" fill="#82431f"/>
    <path id="Trazado_276875" data-name="Trazado 276875" d="M447.273,299.349a4.064,4.064,0,0,0-.99,2.2,26.365,26.365,0,0,0,2.878,15.352,53.577,53.577,0,0,1,5.55,16.584h7.557s.267-10.164,1.872-12.572,4.815-12.572.8-19.259c-3.821-6.369-12.253-8.37-17.669-2.306" transform="translate(3909.438 -10958.7)" fill="#de8044"/>
    <path id="Trazado_276876" data-name="Trazado 276876" d="M454.711,333.487a5.309,5.309,0,0,0-1.605,3.946h7.356l.8-1,1.008.593a.106.106,0,0,0,.159-.073,8.1,8.1,0,0,0-.163-3.462Z" transform="translate(3909.438 -10958.7)" fill="#82431f"/>
    <path id="Trazado_276877" data-name="Trazado 276877" d="M455.7,299.349a4.064,4.064,0,0,0-.99,2.2,26.365,26.365,0,0,0,2.878,15.352,53.577,53.577,0,0,1,5.55,16.584h7.557s.267-10.164,1.872-12.572,4.815-12.572.8-19.259c-3.821-6.369-12.253-8.37-17.669-2.306" transform="translate(3909.438 -10958.7)" fill="#f7975c"/>
    <path id="Trazado_276878" data-name="Trazado 276878" d="M463.137,333.487a5.309,5.309,0,0,0-1.6,3.946h7.356l.8-1,1.008.593a.106.106,0,0,0,.159-.073,8.1,8.1,0,0,0-.163-3.462Z" transform="translate(3909.438 -10958.7)" fill="#82431f"/>
    <path id="Trazado_276879" data-name="Trazado 276879" d="M538.136,300.39a18.073,18.073,0,0,0-1.18-14.217c.1-1.264,1.074-1.729-.024-2.363a7.347,7.347,0,0,0-3.677-.791,17.618,17.618,0,0,0-14.4,7.665c-3.155,4.7-4.809,11.377-1.646,16.075a38.351,38.351,0,0,1,6.143,26.187c.075.124.146.338.228.518h7.46c.993-1.919,1.1-4.4,2.186-6.255a14.678,14.678,0,0,0,1.844-4.036c.853-3.705-1.232-7.479-1.089-11.278.154-4.1,2.835-7.621,4.159-11.5" transform="translate(3909.438 -10958.7)" fill="#f7975c"/>
    <path id="Trazado_276880" data-name="Trazado 276880" d="M520.48,337.093s1.74-3.481,2.859-3.728h7.707s-1.243,3.355-1.989,2.733l-.621,1.119Z" transform="translate(3909.438 -10958.7)" fill="#82431f"/>
    <path id="Trazado_276881" data-name="Trazado 276881" d="M450.024,272.133l-14.809,2.1a1.309,1.309,0,0,0-.711,2.252c2.217,2.086,4.076,5.2,6.174,6.983a8,8,0,0,0,5.374,1.735,14.189,14.189,0,0,0,5.546-1.454,13.614,13.614,0,0,0,2.323-1.348,4.53,4.53,0,0,0,1.116-6.11l-1.71-2.646a3.37,3.37,0,0,0-3.3-1.507" transform="translate(3909.438 -10958.7)" fill="#de8044"/>
    <path id="Trazado_276882" data-name="Trazado 276882" d="M537.122,273.55A14.972,14.972,0,0,0,540.349,277a5.462,5.462,0,0,0,3.821,1.111,3.045,3.045,0,0,0,2.528-2.121,1.858,1.858,0,0,0-.294-1.451,1.744,1.744,0,0,0-1.159-.817,1.147,1.147,0,0,0-.58.068.706.706,0,0,0-.347.341,3.744,3.744,0,0,0-.271,1.9,7.909,7.909,0,0,0,1.57,4.24,7.492,7.492,0,0,0,3.628,2.681c1.407.433,3.063.23,3.7-.773a.936.936,0,0,1,1.591.987l-.008.014a4.259,4.259,0,0,1-2.749,1.858,6.76,6.76,0,0,1-3.084-.091,9.6,9.6,0,0,1-4.87-3.285,10.256,10.256,0,0,1-2.237-5.444,6.1,6.1,0,0,1,.446-3.259,3.327,3.327,0,0,1,1.468-1.511,3.721,3.721,0,0,1,1.987-.378,4.411,4.411,0,0,1,3.177,1.892,4.681,4.681,0,0,1,.834,3.561,5.948,5.948,0,0,1-4.813,4.593,8.559,8.559,0,0,1-6.164-1.428,18.135,18.135,0,0,1-4.143-4.044,1.724,1.724,0,1,1,2.7-2.15l.044.056" transform="translate(3909.438 -10958.7)" fill="#de8044"/>
    <path id="Trazado_276883" data-name="Trazado 276883" d="M539.715,277.35c-.906-3.352-5-6.247-8.074-7.858-6.446-3.379-14.279-2.63-21.3-.726s-13.805,4.874-21.03,5.747c-9.21,1.113-18.446-1.255-27.7-1.9s-19.574.932-25.585,8c.535,2.211,1.062,4.5,1.593,6.828-.443,1.381-.839,2.779-1.186,4.18a33.94,33.94,0,0,1-2.335,7.369c-1.866,3.662-5.185,6.375-8.684,8.532a1.959,1.959,0,0,0-.855.8,1.937,1.937,0,0,0,.243,1.525c.732,1.573,1.551,3.244,3.058,4.1a8.472,8.472,0,0,0,2.74.823c5.865,1.057,11.92,2.112,17.736.809a24.171,24.171,0,0,0,2.341-.657c10.471,3.5,25.428,5.01,35.784,5.357,13.571.455,26.618-4.746,39.2-9.858,3.091-1.256,6.263-2.564,8.665-4.88,4.611-4.446,5.348-11.452,5.809-17.841.25-3.463.493-7-.413-10.355" transform="translate(3909.438 -10958.7)" fill="#f7975c"/>
    <path id="Trazado_276884" data-name="Trazado 276884" d="M445.435,277.379l-14.879,1.527a1.308,1.308,0,0,0-.8,2.222c2.136,2.17,3.873,5.355,5.9,7.216a8,8,0,0,0,5.3,1.938,14.176,14.176,0,0,0,5.6-1.24,13.428,13.428,0,0,0,2.373-1.258,4.531,4.531,0,0,0,1.35-6.062l-1.608-2.71a3.375,3.375,0,0,0-3.243-1.633" transform="translate(3909.438 -10958.7)" fill="#de8044"/>
    <g id="Grupo_258388" data-name="Grupo 258388" transform="translate(3909.438 -10958.7)" style="mix-blend-mode: multiply;isolation: isolate">
      <g id="Grupo_258387" data-name="Grupo 258387">
        <g id="Grupo_258386" data-name="Grupo 258386" clip-path="url(#clip-path-6)">
          <path id="Trazado_276885" data-name="Trazado 276885" d="M518.246,292.473a32.329,32.329,0,0,0-.193,4.853,37.749,37.749,0,0,0,.443,4.777,41.506,41.506,0,0,0,1.018,4.7c.416,1.556.936,3.087,1.444,4.661-.463-.679-.893-1.386-1.3-2.105a21.539,21.539,0,0,1-1.034-2.26,22.71,22.71,0,0,1-1.316-4.806,21.732,21.732,0,0,1-.189-4.986,14.856,14.856,0,0,1,1.13-4.829" fill="#f7975c"/>
        </g>
      </g>
    </g>
    <g id="Grupo_258391" data-name="Grupo 258391" transform="translate(3909.438 -10958.7)" style="mix-blend-mode: multiply;isolation: isolate">
      <g id="Grupo_258390" data-name="Grupo 258390">
        <g id="Grupo_258389" data-name="Grupo 258389" clip-path="url(#clip-path-7)">
          <path id="Trazado_276886" data-name="Trazado 276886" d="M473.343,318.993A22.169,22.169,0,0,0,475,315.851a19.937,19.937,0,0,0,1.1-3.28,21.551,21.551,0,0,0,.557-3.42c.121-1.165.1-2.34.156-3.569a11.268,11.268,0,0,1,.785,3.581,12.3,12.3,0,0,1-.329,3.7,11.92,11.92,0,0,1-1.438,3.427,8.754,8.754,0,0,1-2.484,2.706" fill="#f7975c"/>
        </g>
      </g>
    </g>
    <g id="Grupo_258394" data-name="Grupo 258394" transform="translate(3909.438 -10958.7)" style="mix-blend-mode: multiply;isolation: isolate">
      <g id="Grupo_258393" data-name="Grupo 258393">
        <g id="Grupo_258392" data-name="Grupo 258392" clip-path="url(#clip-path-8)">
          <path id="Trazado_276887" data-name="Trazado 276887" d="M435.974,297.7a18.717,18.717,0,0,0,4.128.213,7.2,7.2,0,0,0,1.9-.418,14.1,14.1,0,0,0,1.909-.9,4.005,4.005,0,0,1-1.477,1.736,4.718,4.718,0,0,1-2.216.781,5.794,5.794,0,0,1-2.3-.267,4.856,4.856,0,0,1-1.946-1.145" fill="#f7975c"/>
        </g>
      </g>
    </g>
    <g id="Grupo_258397" data-name="Grupo 258397" transform="translate(3909.438 -10958.7)" style="mix-blend-mode: multiply;isolation: isolate">
      <g id="Grupo_258396" data-name="Grupo 258396">
        <g id="Grupo_258395" data-name="Grupo 258395" clip-path="url(#clip-path-9)">
          <path id="Trazado_276888" data-name="Trazado 276888" d="M427.135,306.838a3.181,3.181,0,0,1,2.21.445,5.006,5.006,0,0,1,1.653,1.6,6.518,6.518,0,0,1,.869,2.076,6.191,6.191,0,0,1,.09,2.209,8.594,8.594,0,0,1-.513-.964c-.162-.314-.326-.622-.464-.932a18.735,18.735,0,0,0-.989-1.728,7.4,7.4,0,0,0-2.856-2.7" fill="#f7975c"/>
        </g>
      </g>
    </g>
    <rect id="Rectángulo_324256" data-name="Rectángulo 324256" width="738.557" height="2501.106" transform="translate(3909.438 -10958.696)" fill="none"/>
  </g>
</svg>
