<svg xmlns="http://www.w3.org/2000/svg" xmlns:xlink="http://www.w3.org/1999/xlink" width="96" height="96" viewBox="0 0 96 96">
  <defs>
    <clipPath id="clip-path">
      <rect id="Rectángulo_326335" data-name="Rectángulo 326335" width="60.192" height="59.7" transform="translate(0 0)" fill="none"/>
    </clipPath>
  </defs>
  <g id="Grupo_1075516" data-name="Grupo 1075516" transform="translate(11576 12044)">
    <g id="Grupo_262435" data-name="Grupo 262435">
      <g id="Grupo_262334" data-name="Grupo 262334" transform="translate(-12927.333 -12339)">
        <circle id="Elipse_4282" data-name="Elipse 4282" cx="48" cy="48" r="48" transform="translate(1351.333 295)" fill="#fffad0"/>
      </g>
      <g id="Grupo_262424" data-name="Grupo 262424" transform="translate(-11559.525 -12025.85)">
        <g id="Grupo_262423" data-name="Grupo 262423" clip-path="url(#clip-path)">
          <path id="Trazado_280990" data-name="Trazado 280990" d="M8.181,36.8a2.5,2.5,0,1,1-2.525,2.5,2.553,2.553,0,0,1,2.525-2.5" fill="#d7deed"/>
          <path id="Trazado_280991" data-name="Trazado 280991" d="M39.59,3a3.8,3.8,0,1,1-3.838,3.8A3.819,3.819,0,0,1,39.59,3" fill="#d7deed"/>
          <path id="Trazado_280992" data-name="Trazado 280992" d="M53.426,15.5A2.5,2.5,0,1,1,50.9,18a2.488,2.488,0,0,1,2.525-2.5" fill="#d7deed"/>
          <path id="Trazado_280993" data-name="Trazado 280993" d="M58.98,39.7V43l-4.948,1.1a13.887,13.887,0,0,1-1.617,4l2.728,4.2L52.82,54.6l-4.242-2.7a11.024,11.024,0,0,1-4.04,1.6l-1.212,5H39.994l-1.111-4.9a14.186,14.186,0,0,1-4.04-1.6L30.6,54.7l-2.323-2.3L31,48.2a10.791,10.791,0,0,1-1.616-4L24.44,43.1V39.8l4.949-1.1A13.885,13.885,0,0,1,31,34.7l-2.727-4.2L30.6,28.2l4.242,2.7a13.256,13.256,0,0,1,4.04-1.7l1.111-4.9h3.332l1.111,4.9a11.978,11.978,0,0,1,4.04,1.7l4.242-2.7,2.322,2.3-2.726,4.2a10.808,10.808,0,0,1,1.616,4Zm-10.5,1.7a6.767,6.767,0,1,0-6.767,6.7,6.734,6.734,0,0,0,6.767-6.7" fill="#57606f"/>
          <path id="Trazado_280994" data-name="Trazado 280994" d="M30.905,14.7v2.8l-4.141,1a12.773,12.773,0,0,1-1.414,3.4l2.323,3.6-2.02,2-3.636-2.3a13.011,13.011,0,0,1-3.434,1.4l-1.01,4.1H14.746l-.909-4.2A13.011,13.011,0,0,1,10.4,25.1L6.767,27.5l-2.02-2L7.07,21.9a10.152,10.152,0,0,1-1.414-3.4l-4.241-1V14.7l4.241-.9A12.773,12.773,0,0,1,7.07,10.4L4.747,6.8l2.02-2L10.4,7.1a10.346,10.346,0,0,1,3.434-1.4l.909-4.2h2.827l.909,4.2a13.011,13.011,0,0,1,3.434,1.4l3.636-2.3,2.02,2-2.324,3.6a10.154,10.154,0,0,1,1.415,3.4Zm-8.989,1.4a5.757,5.757,0,0,0-11.513,0,5.792,5.792,0,0,0,5.757,5.7,5.662,5.662,0,0,0,5.756-5.7" fill="#2f4a5f"/>
          <rect id="Rectángulo_326331" data-name="Rectángulo 326331" width="2.525" height="2.5" transform="translate(20.805 54.3)"/>
          <rect id="Rectángulo_326332" data-name="Rectángulo 326332" width="2.525" height="2.5" transform="translate(18.28 56.8)"/>
          <rect id="Rectángulo_326333" data-name="Rectángulo 326333" width="2.525" height="2.5" transform="translate(18.28 51.8)"/>
          <rect id="Rectángulo_326334" data-name="Rectángulo 326334" width="2.525" height="2.5" transform="translate(15.755 54.3)"/>
          <path id="Trazado_280995" data-name="Trazado 280995" d="M41.71,49.3a7.9,7.9,0,1,1,7.979-7.9,7.956,7.956,0,0,1-7.979,7.9m0-13.4a5.4,5.4,0,1,0,5.454,5.4,5.469,5.469,0,0,0-5.454-5.4"/>
          <path id="Trazado_280996" data-name="Trazado 280996" d="M41.71,44.3a2.9,2.9,0,1,1,2.929-2.9,2.917,2.917,0,0,1-2.929,2.9"/>
          <path id="Trazado_280997" data-name="Trazado 280997" d="M43.326,59.7H39.993a1.2,1.2,0,0,1-1.212-1l-.909-4.1a15.019,15.019,0,0,1-2.929-1.2l-3.635,2.3a1.4,1.4,0,0,1-1.616-.2l-2.323-2.3a1.348,1.348,0,0,1-.2-1.6L29.49,48a14.682,14.682,0,0,1-1.212-2.9l-4.141-.9a1.191,1.191,0,0,1-1.01-1.2V39.7a1.191,1.191,0,0,1,1.01-1.2l4.141-.9a14.681,14.681,0,0,1,1.212-2.9l-2.323-3.6a1.366,1.366,0,0,1,.2-1.6l2.323-2.3a1.382,1.382,0,0,1,1.616-.2l3.635,2.3a15.019,15.019,0,0,1,2.929-1.2l.909-4.2a1.2,1.2,0,0,1,1.212-1h3.333a1.2,1.2,0,0,1,1.212,1l.909,4.2a15.019,15.019,0,0,1,2.929,1.2L52.011,27a1.4,1.4,0,0,1,1.616.2l2.323,2.3a1.348,1.348,0,0,1,.2,1.6l-2.323,3.6a14.681,14.681,0,0,1,1.212,2.9l4.141.9a1.191,1.191,0,0,1,1.01,1.2V43a1.191,1.191,0,0,1-1.01,1.2l-4.141.9A14.682,14.682,0,0,1,53.829,48l2.323,3.6a1.366,1.366,0,0,1-.2,1.6l-2.323,2.3a1.382,1.382,0,0,1-1.616.2l-3.635-2.3a15.019,15.019,0,0,1-2.929,1.2l-.909,4.1a1.2,1.2,0,0,1-1.212,1M41,57.2h1.313l.909-3.9a1.188,1.188,0,0,1,.909-.9,11.625,11.625,0,0,0,3.636-1.5,1.07,1.07,0,0,1,1.313,0l3.433,2.2.909-.9L51.2,48.8a1.043,1.043,0,0,1,0-1.3,11.385,11.385,0,0,0,1.515-3.6,1.188,1.188,0,0,1,.909-.9l3.939-.9V40.8l-3.939-.9a1.188,1.188,0,0,1-.909-.9A11.385,11.385,0,0,0,51.2,35.4a1.043,1.043,0,0,1,0-1.3l2.222-3.4-.909-.9L49.083,32a1.07,1.07,0,0,1-1.313,0,11.625,11.625,0,0,0-3.636-1.5,1.188,1.188,0,0,1-.909-.9l-.909-4.1H41l-.909,3.9a1.188,1.188,0,0,1-.909.9,11.625,11.625,0,0,0-3.636,1.5,1.07,1.07,0,0,1-1.313,0L30.8,29.6l-.909.9,2.222,3.4a1.046,1.046,0,0,1,0,1.3A11.386,11.386,0,0,0,30.6,38.8a1.188,1.188,0,0,1-.909.9l-4.04,1V42l3.939.9a1.188,1.188,0,0,1,.909.9,11.386,11.386,0,0,0,1.515,3.6,1.046,1.046,0,0,1,0,1.3l-2.222,3.4.909.9,3.433-2.2a1.07,1.07,0,0,1,1.313,0,11.625,11.625,0,0,0,3.636,1.5,1.188,1.188,0,0,1,.909.9Z"/>
          <path id="Trazado_280998" data-name="Trazado 280998" d="M16.159,23.1a7,7,0,1,1,7.069-7,7.055,7.055,0,0,1-7.069,7m0-11.4A4.5,4.5,0,1,0,20.7,16.2a4.5,4.5,0,0,0-4.544-4.5"/>
          <path id="Trazado_280999" data-name="Trazado 280999" d="M16.159,18.1a2,2,0,1,1,2.02-2,2.016,2.016,0,0,1-2.02,2"/>
          <path id="Trazado_281000" data-name="Trazado 281000" d="M17.573,32H14.745a1.2,1.2,0,0,1-1.212-1l-.808-3.4a9.609,9.609,0,0,1-2.323-1L7.373,28.5a1.4,1.4,0,0,1-1.616-.2l-2.02-2a1.348,1.348,0,0,1-.2-1.6l1.919-3a15.874,15.874,0,0,1-1.01-2.3L1.01,18.6A1.191,1.191,0,0,1,0,17.4V14.6a1.191,1.191,0,0,1,1.01-1.2l3.434-.8a9.384,9.384,0,0,1,1.01-2.3l-1.919-3a1.366,1.366,0,0,1,.2-1.6l2.02-2a1.382,1.382,0,0,1,1.616-.2L10.4,5.4a16.3,16.3,0,0,1,2.323-1L13.533,1a1.2,1.2,0,0,1,1.212-1h2.828a1.2,1.2,0,0,1,1.212,1l.808,3.4a9.576,9.576,0,0,1,2.323,1l3.029-1.9a1.4,1.4,0,0,1,1.617.2l2.02,2a1.349,1.349,0,0,1,.2,1.6l-1.919,3a15.877,15.877,0,0,1,1.011,2.3l3.433.8a1.191,1.191,0,0,1,1.01,1.2v2.9a1.191,1.191,0,0,1-1.01,1.2l-3.535.8a9.346,9.346,0,0,1-1.01,2.3l1.919,3a1.367,1.367,0,0,1-.2,1.6l-2.02,2a1.382,1.382,0,0,1-1.616.2l-3.03-1.9a16.2,16.2,0,0,1-2.323,1l-.808,3.4a1.025,1.025,0,0,1-1.111.9m-1.818-2.5h.808l.707-3.2a1.188,1.188,0,0,1,.909-.9,10.084,10.084,0,0,0,3.03-1.2,1.07,1.07,0,0,1,1.313,0L25.35,26l.606-.6-1.717-2.9a1.043,1.043,0,0,1,0-1.3,7.847,7.847,0,0,0,1.212-3,1.187,1.187,0,0,1,.909-.9l3.333-.8v-.8L26.461,15a1.189,1.189,0,0,1-.91-.9,9.843,9.843,0,0,0-1.211-3,1.043,1.043,0,0,1,0-1.3L26.157,7l-.606-.6L22.623,8.1a1.07,1.07,0,0,1-1.313,0,8.016,8.016,0,0,0-3.03-1.2,1.188,1.188,0,0,1-.909-.9l-.808-3.2h-.808L15.048,6a1.188,1.188,0,0,1-.909.9A10.078,10.078,0,0,0,11.11,8.1,1.07,1.07,0,0,1,9.8,8.1L6.969,6.3l-.606.6L8.181,9.7a1.043,1.043,0,0,1,0,1.3,7.847,7.847,0,0,0-1.212,3,1.188,1.188,0,0,1-.909.9l-3.232.7v.9l3.232.7a1.188,1.188,0,0,1,.909.9,9.87,9.87,0,0,0,1.212,3,1.043,1.043,0,0,1,0,1.3L6.363,25.2l.606.6L9.8,24a1.07,1.07,0,0,1,1.313,0,8.011,8.011,0,0,0,3.029,1.2,1.188,1.188,0,0,1,.909.9Z"/>
          <path id="Trazado_281001" data-name="Trazado 281001" d="M53.426,21.8A3.8,3.8,0,1,1,57.263,18a3.817,3.817,0,0,1-3.837,3.8m0-5a1.3,1.3,0,1,0,1.313,1.3,1.33,1.33,0,0,0-1.313-1.3"/>
          <path id="Trazado_281002" data-name="Trazado 281002" d="M8.181,43a3.8,3.8,0,1,1,3.838-3.8A3.817,3.817,0,0,1,8.181,43m0-5a1.3,1.3,0,1,0,1.313,1.3A1.33,1.33,0,0,0,8.181,38"/>
          <path id="Trazado_281003" data-name="Trazado 281003" d="M39.59,11.8a5,5,0,1,1,5.049-5,5.039,5.039,0,0,1-5.049,5m0-7.5a2.5,2.5,0,1,0,2.525,2.5A2.554,2.554,0,0,0,39.59,4.3"/>
        </g>
      </g>
    </g>
  </g>
</svg>
