<svg id="Grupo_261911" data-name="Grupo 261911" xmlns="http://www.w3.org/2000/svg" xmlns:xlink="http://www.w3.org/1999/xlink" width="245.153" height="245.847" viewBox="0 0 245.153 245.847">
  <defs>
    <clipPath id="clip-path">
      <rect id="Rectángulo_326103" data-name="Rectángulo 326103" width="245.153" height="245.847" fill="none"/>
    </clipPath>
    <clipPath id="clip-path-2">
      <path id="Trazado_280311" data-name="Trazado 280311" d="M121.218,64.755C88.877,114.648,97.451,185.446,137.543,221.2c20.827,18.573,44.35,22.51,52.93,23.832C243.2,253.154,304.01,223.044,326.836,169.3,341.713,134.268,340,90.82,320.057,59.634a109.087,109.087,0,0,0-22.188-25.175C268.782,10.475,235.684,9.108,227.047,8.886c-.959-.025-1.916-.037-2.878-.037-39.222,0-79.976,20.461-102.951,55.906" transform="translate(-101.421 -8.849)" fill="none"/>
    </clipPath>
    <linearGradient id="linear-gradient" x1="0.15" y1="0.85" x2="0.15" y2="0.85" gradientUnits="objectBoundingBox">
      <stop offset="0" stop-color="#dae3fe"/>
      <stop offset="1" stop-color="#e9effd"/>
    </linearGradient>
    <clipPath id="clip-path-4">
      <path id="Trazado_280315" data-name="Trazado 280315" d="M868.013,0a5.951,5.951,0,0,0-5.855,5.015l-23.64,148.5a5.951,5.951,0,0,0,5.732,6.884l123.487,3.012a5.951,5.951,0,0,0,6.077-5.478L985.637,9.007a5.951,5.951,0,0,0-5.794-6.42L868.172,0l-.12,0Z" transform="translate(-838.442)" fill="none"/>
    </clipPath>
    <linearGradient id="linear-gradient-2" x1="-0.494" y1="1.504" x2="-0.494" y2="1.504" gradientUnits="objectBoundingBox">
      <stop offset="0" stop-color="#4f52ff"/>
      <stop offset="1" stop-color="#4042e2"/>
    </linearGradient>
    <clipPath id="clip-path-6">
      <path id="Trazado_280317" data-name="Trazado 280317" d="M1687.868,900.482a9.719,9.719,0,0,1-2.484.537,18.241,18.241,0,0,1-2.287-.551,3.988,3.988,0,0,0-2.445.311c-.747.338-1.39.858-2.142,1.188a3.6,3.6,0,0,1-2.048.1c-1.567-.237-3.076-.37-4.151.9-.5.585-.807,1.34-1.535,1.672a11.487,11.487,0,0,0-2.178,1.083,7.037,7.037,0,0,0-2.081,8.2.8.8,0,0,0,.371.405c-.023.127-.042.255-.052.385a5.374,5.374,0,0,0,1.562,4.084,8.936,8.936,0,0,0,4.4,2.287,2.12,2.12,0,0,1,1.862,1.563,6.193,6.193,0,0,0,1.367,2.228,5.993,5.993,0,0,0,2.188,1.158c.945.308,1.9.577,2.851.863s1.907.578,2.862.861a8.775,8.775,0,0,0,2.482.456,3.534,3.534,0,0,0,2.33-.815,5.913,5.913,0,0,1,1.071-.9,3.561,3.561,0,0,1,1.222-.234,5.9,5.9,0,0,0,4.241-2.307c.424-.561.61-1.485,1.167-1.915a5.312,5.312,0,0,1,1.223-.482,4.58,4.58,0,0,0,.993-.595c1.416-1.083,1.746-2.771,1.871-4.518a16.993,16.993,0,0,0-.27-5.408,7.656,7.656,0,0,0-1.073-2.448,6.167,6.167,0,0,0-.865-1.033,13.313,13.313,0,0,1-1.023-.916,2.092,2.092,0,0,1-.394-1.1,5.034,5.034,0,0,0-2.083-3.409,8.686,8.686,0,0,0-4.635-1.784c-.242-.02-.487-.031-.73-.031a7.994,7.994,0,0,0-1.582.154" transform="translate(-1665.996 -900.328)" fill="none"/>
    </clipPath>
    <linearGradient id="linear-gradient-3" x1="-3.173" y1="3.903" x2="-3.171" y2="3.903" xlink:href="#linear-gradient-2"/>
    <clipPath id="clip-path-7">
      <path id="Trazado_280318" data-name="Trazado 280318" d="M1234.2,544.21a5.436,5.436,0,0,0-4.309,3.761,9.1,9.1,0,0,0,.165,5.276c-2.865.718-4.5,3.85-4.211,6.866.353,3.654,2.988,6.527,5.734,8.816,1.592,1.327,3.266,2.344,5.314,2.1a19.478,19.478,0,0,0,4.958-1.337,11.787,11.787,0,0,0,7.045-6.98,9.2,9.2,0,0,0,.471-2.721c0-.127.01-.28,0-.416a7.689,7.689,0,0,0,.787-.158,3.163,3.163,0,0,0,2.285-2.294.783.783,0,0,0,.171-1.056l-.012-.019c0-.1,0-.2,0-.295a1.462,1.462,0,0,0-.919-1.183,17.755,17.755,0,0,0-4.343-5.018,11.023,11.023,0,0,0-3.325-1.645c-1.186-.362-2.417-.545-3.576-1.015-1.258-.509-2.137-1.558-3.324-2.194a4.668,4.668,0,0,0-2.19-.544,4.438,4.438,0,0,0-.718.058" transform="translate(-1225.813 -544.152)" fill="none"/>
    </clipPath>
    <linearGradient id="linear-gradient-4" x1="-2.663" y1="5.318" x2="-2.661" y2="5.318" xlink:href="#linear-gradient-2"/>
    <clipPath id="clip-path-8">
      <path id="Trazado_280319" data-name="Trazado 280319" d="M1752.472,642.616a5.639,5.639,0,0,0-1.809,6.339,9.087,9.087,0,0,0-5.605,3.376c-3.363,4.253-3.928,11.709-1.018,16.788a10.163,10.163,0,0,0,6.526,4.976,7.6,7.6,0,0,0,5.581-.72,10.582,10.582,0,0,0,7.234,3.755,9.159,9.159,0,0,0,7.867-3.586,13.321,13.321,0,0,1,2.977-3.218,37.813,37.813,0,0,0,3.486-2.433,6.9,6.9,0,0,0,2.041-7.614,7.523,7.523,0,0,0-4.9-4.64,11.479,11.479,0,0,0-6.493-12.938,10.646,10.646,0,0,0-7.282-.409,11.486,11.486,0,0,0-4.437-1.006,6.825,6.825,0,0,0-4.165,1.33" transform="translate(-1742.159 -641.286)" fill="none"/>
    </clipPath>
    <linearGradient id="linear-gradient-5" x1="-3.832" y1="5.261" x2="-3.829" y2="5.261" xlink:href="#linear-gradient-2"/>
    <clipPath id="clip-path-9">
      <path id="Trazado_280320" data-name="Trazado 280320" d="M1295.893,669.417c-2.9-.477-5.843-.038-7.7,2.325a5.615,5.615,0,0,0-.172,6.373,8.587,8.587,0,0,0-4.287,4.484c-2.058,4.781-.847,11.91,2.956,15.993a9.369,9.369,0,0,0,7.048,3.137,6.926,6.926,0,0,0,4.877-1.987,9.631,9.631,0,0,0,7.405,1.825,8.558,8.558,0,0,0,6.282-5.213,12.956,12.956,0,0,1,1.948-3.719,35.966,35.966,0,0,0,2.589-3.1,6.878,6.878,0,0,0,.087-7.624,7,7,0,0,0-5.5-3.2,11.055,11.055,0,0,0-8.855-10.616,9.324,9.324,0,0,0-1.576-.133,9.616,9.616,0,0,0-5.1,1.46" transform="translate(-1282.741 -667.957)" fill="none"/>
    </clipPath>
    <linearGradient id="linear-gradient-6" x1="-3.132" y1="4.932" x2="-3.13" y2="4.932" xlink:href="#linear-gradient-2"/>
    <clipPath id="clip-path-10">
      <path id="Trazado_280321" data-name="Trazado 280321" d="M1337.784,376.3c-3.715.087-7.208,2.311-8.662,3.2-.651.4-1.572.077-2.754-.244a7.894,7.894,0,0,0-5.536.16c-4.034,1.72-3.586,5.326-5.109,6.255-8,1.645-9.929,7.934-9.932,12.081,0,5.2,2.745,6.768,3.163,7.61.436,1.707-1.769,3.562-2.487,4.722-1.669,2.7-.519,7.105,2.273,10.317,1.929,2.218,4.7,3.058,5.708,4.233s.942,5.8,3.373,8.1c2.307,2.181,6.5,3.413,7.977,3.628s1.111,1.917,1.98,2.725c1.922,1.786,4.835,3,6.94,2.341,1.975,1.572,3.314,1.276,5.614,1.935,4.252,1.218,7.239,1.395,9.782-1.088,2.342-2.286,1.668-7.462,3.187-8.533s7.456-2.458,9.568-3.517c4.791-2.4,7.187-6.962,7.018-12.5-.133-4.356-4.1-7.925-4.556-9.015s2.7-7.591,2.211-11.227a14.909,14.909,0,0,0-6.763-10.418,15.615,15.615,0,0,0-6.283-1.8c-.57-.063-1.11-.057-1.67-.085-.474-.024-.55-.175-.819-.591a18.58,18.58,0,0,0-2.216-2.825,16.527,16.527,0,0,0-11.7-5.458q-.155,0-.309,0" transform="translate(-1305.693 -376.298)" fill="none"/>
    </clipPath>
    <linearGradient id="linear-gradient-7" x1="-1.625" y1="3.218" x2="-1.624" y2="3.218" xlink:href="#linear-gradient-2"/>
    <clipPath id="clip-path-11">
      <path id="Trazado_280322" data-name="Trazado 280322" d="M1398.129,835.134c-1.413,1.763-.318,7.542-4.276,14.137a39.462,39.462,0,0,0-.965-13.075c-.969-2.594-1.95-.341-1.95-.341.487,9.274.822,17.487-4.19,29.275a98.558,98.558,0,0,0-4.894-15.506c-1.01-2.553-2.571-1.489-2.5-.013.3,6.051,11.186,20.511-6.011,42.147l14.259,8.7s8.557-37.372,22.407-49.2c.65-1.561-.251-2.681-1.813-1.291s-2.281,2.377-6.7,6.475a45.807,45.807,0,0,1,4.545-7.645c.679-1.571-.059-2.425-1-1.752-5.006,3.7-13.237,20.1-13.237,20.1a110.732,110.732,0,0,0,8.267-32.436,4.444,4.444,0,0,0-.478-.024,1.991,1.991,0,0,0-1.469.447" transform="translate(-1373.347 -834.687)" fill="none"/>
    </clipPath>
    <linearGradient id="linear-gradient-8" x1="-1.334" y1="2.509" x2="-1.333" y2="2.509" xlink:href="#linear-gradient-2"/>
    <clipPath id="clip-path-12">
      <path id="Trazado_280323" data-name="Trazado 280323" d="M1248.082,585.622a3.908,3.908,0,0,0-3.24,2.372,9.772,9.772,0,0,0-10.82,4.509,9.931,9.931,0,0,0-1.074,7.046,5.453,5.453,0,0,0,3.815,4.142c.665,3.182,3.62,5.791,6.343,7.4a9.69,9.69,0,0,0,4.271,1.51,5.224,5.224,0,0,0,2.244-.346,4.863,4.863,0,0,0,1.037-.606c.341-.25.708-.706,1.124-.829a3.744,3.744,0,0,1,1.337-.034,4.827,4.827,0,0,0,1.125.014,5.838,5.838,0,0,0,1.928-.661,6.346,6.346,0,0,0,2.936-3.493,7.411,7.411,0,0,0,.293-2.337c.01-.844.744-.954,1.262-1.5,1.246-1.307,1.361-3.308,1.111-5.1-.35-2.511-1.879-5.631-4.4-6.542a4.773,4.773,0,0,0-3.587-3.92,7.741,7.741,0,0,0-2.236-.215,4.368,4.368,0,0,0-3.158-1.424q-.153,0-.307.012" transform="translate(-1232.706 -585.61)" fill="none"/>
    </clipPath>
    <linearGradient id="linear-gradient-9" x1="-3.619" y1="7.157" x2="-3.616" y2="7.157" xlink:href="#linear-gradient-2"/>
    <clipPath id="clip-path-13">
      <path id="Trazado_280324" data-name="Trazado 280324" d="M1771.176,689.214a17.3,17.3,0,0,0-5.259,2.823,7.244,7.244,0,0,0-1.789,2.249,5.95,5.95,0,0,0-.5,1.37,13.24,13.24,0,0,1-.284,1.476,2,2,0,0,1-.856.919,5.4,5.4,0,0,0-1.072.981,5.466,5.466,0,0,0-1.055,2.751,9.859,9.859,0,0,0,1.09,5.572,10.889,10.889,0,0,0,1.56,2.3,13.258,13.258,0,0,1,2.083,2.283,21.769,21.769,0,0,1,.869,2.594,5.322,5.322,0,0,0,1.831,2.349c.8.6,1.724,1.015,2.523,1.627a4.715,4.715,0,0,1,1.376,2.042c.736,1.712,1.54,3.315,3.479,3.815a6.806,6.806,0,0,1,2.632.78,16.043,16.043,0,0,0,2.44,1.714,8.01,8.01,0,0,0,9.524-1.74.783.783,0,0,0,.176-.57c.141-.037.281-.078.419-.128a5.156,5.156,0,0,0,3.127-3.519,9.708,9.708,0,0,0-.437-5.565,3.264,3.264,0,0,1-.245-1.411,2.751,2.751,0,0,1,.657-1.227,5.864,5.864,0,0,0,1.386-2.445,6.491,6.491,0,0,0-.2-2.779c-.278-1.11-.6-2.213-.906-3.317s-.6-2.219-.915-3.328a10.694,10.694,0,0,0-1.084-2.748,4.871,4.871,0,0,0-2.265-1.995,8.155,8.155,0,0,1-1.565-.671,4.826,4.826,0,0,1-.994-1.137,8.171,8.171,0,0,0-4.95-3.242c-.827-.169-1.869.077-2.646-.289a7.409,7.409,0,0,1-1.243-1.022,6.4,6.4,0,0,0-1.214-.734,5.365,5.365,0,0,0-2.344-.527,9.536,9.536,0,0,0-3.352.746" transform="translate(-1760.299 -688.468)" fill="none"/>
    </clipPath>
    <linearGradient id="linear-gradient-10" x1="-4.423" y1="4.631" x2="-4.42" y2="4.631" xlink:href="#linear-gradient-2"/>
    <clipPath id="clip-path-14">
      <path id="Trazado_280325" data-name="Trazado 280325" d="M1446.975,470.557a10.933,10.933,0,0,0-6.778-2.219c-5.77.082-11.892,4.372-13.6,9.857a9.878,9.878,0,0,0,1.083,8.233,9.091,9.091,0,0,0,4.73,3.884,10.848,10.848,0,0,0,2.547,8.009,11.049,11.049,0,0,0,8.632,3.844,15.3,15.3,0,0,1,4.69.274,45.348,45.348,0,0,0,4.471,1.168,6.864,6.864,0,0,0,7.349-3.242,7.11,7.11,0,0,0-.124-6.757,10.356,10.356,0,0,0,5.029-13.257,12.322,12.322,0,0,0-5.141-5.923c-1.224-3.032-3.351-5.708-6.69-6.485a5.937,5.937,0,0,0-1.346-.156,5.589,5.589,0,0,0-4.855,2.769" transform="translate(-1426.151 -467.788)" fill="none"/>
    </clipPath>
    <linearGradient id="linear-gradient-11" x1="-3.016" y1="5.643" x2="-3.014" y2="5.643" xlink:href="#linear-gradient-2"/>
    <clipPath id="clip-path-15">
      <path id="Trazado_280326" data-name="Trazado 280326" d="M1368.438,1481.726c-3.56,3.169,14.16,13.509,14.259,8.7.087-4.228-9.6-8.984-13.172-8.983a1.653,1.653,0,0,0-1.087.285" transform="translate(-1367.965 -1481.441)" fill="none"/>
    </clipPath>
    <linearGradient id="linear-gradient-12" x1="-5.082" y1="5.417" x2="-5.078" y2="5.417" gradientUnits="objectBoundingBox">
      <stop offset="0" stop-color="#41a362"/>
      <stop offset="1" stop-color="#204f2e"/>
    </linearGradient>
    <clipPath id="clip-path-17">
      <path id="Trazado_280330" data-name="Trazado 280330" d="M1100.971,1065.809c-10.125,3.43-50.588,20.077-66.319,26.578a1.187,1.187,0,0,0,.427,2.317c18.464-.8,69.1-2.983,77.24-3.273,9.986-.356,15.965-10.166,12.639-19.586-2.1-5.941-6.061-8.493-11.873-8.493a39.1,39.1,0,0,0-12.114,2.457" transform="translate(-1033.827 -1063.352)" fill="none"/>
    </clipPath>
    <linearGradient id="linear-gradient-13" x1="-2.706" y1="1.894" x2="-2.704" y2="1.894" gradientUnits="objectBoundingBox">
      <stop offset="0" stop-color="#e1473d"/>
      <stop offset="1" stop-color="#e9605a"/>
    </linearGradient>
    <clipPath id="clip-path-18">
      <path id="Trazado_280331" data-name="Trazado 280331" d="M1868.586,1086.447c-1.4.58-1.665.7.026,3.75s3.295,6.689,4.9,6c1.545-.658-2.625-9.8-4.687-9.8a.624.624,0,0,0-.243.047" transform="translate(-1867.44 -1086.4)" fill="none"/>
    </clipPath>
    <linearGradient id="linear-gradient-14" x1="-13.137" y1="14.133" x2="-13.13" y2="14.133" xlink:href="#linear-gradient-13"/>
    <clipPath id="clip-path-19">
      <path id="Trazado_280332" data-name="Trazado 280332" d="M1799.529,1190.3a1.876,1.876,0,0,0-1.618,2.543,36.5,36.5,0,0,1,2.166,7.474,1.709,1.709,0,0,0,1.782,1.358h0a1.964,1.964,0,0,0,1.891-1.664c.454-3.653-1.494-7.3-2.526-8.934a1.744,1.744,0,0,0-1.491-.788,1.969,1.969,0,0,0-.205.011" transform="translate(-1797.766 -1190.291)" fill="none"/>
    </clipPath>
    <linearGradient id="linear-gradient-15" x1="-12.146" y1="14.991" x2="-12.139" y2="14.991" xlink:href="#linear-gradient-13"/>
    <clipPath id="clip-path-20">
      <path id="Trazado_280333" data-name="Trazado 280333" d="M1686.02,1153.528l-.331.112a1.085,1.085,0,0,0-.551,1.722,8.82,8.82,0,0,1,2.236,5.943,1.04,1.04,0,0,0,1.316.984l.036-.008a1.168,1.168,0,0,0,.918-1.078,10.091,10.091,0,0,0-2.439-7.391,1.081,1.081,0,0,0-.805-.348,1.189,1.189,0,0,0-.381.063" transform="translate(-1684.891 -1153.465)" fill="none"/>
    </clipPath>
    <linearGradient id="linear-gradient-16" x1="-14.597" y1="20.162" x2="-14.588" y2="20.162" xlink:href="#linear-gradient-13"/>
    <clipPath id="clip-path-21">
      <path id="Trazado_280334" data-name="Trazado 280334" d="M1639.665,1271.272l-.287.025a.94.94,0,0,0-.818,1.3,7.528,7.528,0,0,1,.46,5.315.844.844,0,0,0,.827,1.071h.031a1,1,0,0,0,.967-.7,8.637,8.637,0,0,0-.3-6.54.875.875,0,0,0-.794-.476c-.028,0-.056,0-.084,0" transform="translate(-1638.478 -1271.268)" fill="none"/>
    </clipPath>
    <linearGradient id="linear-gradient-17" x1="-16.877" y1="20.201" x2="-16.867" y2="20.201" xlink:href="#linear-gradient-13"/>
    <clipPath id="clip-path-22">
      <path id="Trazado_280335" data-name="Trazado 280335" d="M1562.444,1208.66l-.166.1a.586.586,0,0,0-.052.993,4.962,4.962,0,0,1,2.1,2.879.606.606,0,0,0,.868.351l.019-.009a.627.627,0,0,0,.349-.7,5.654,5.654,0,0,0-2.419-3.625.623.623,0,0,0-.338-.1.673.673,0,0,0-.357.1" transform="translate(-1561.975 -1208.557)" fill="none"/>
    </clipPath>
    <linearGradient id="linear-gradient-18" x1="-36.287" y1="30.211" x2="-36.263" y2="30.211" xlink:href="#linear-gradient-13"/>
    <clipPath id="clip-path-23">
      <path id="Trazado_280336" data-name="Trazado 280336" d="M1501.641,1272.722l-.307.035a1,1,0,0,0-.834,1.412,8.03,8.03,0,0,1,.669,5.667.906.906,0,0,0,.922,1.12h.033a1.069,1.069,0,0,0,1.014-.774,9.212,9.212,0,0,0-.539-6.981.94.94,0,0,0-.838-.485,1.045,1.045,0,0,0-.12.007" transform="translate(-1500.401 -1272.715)" fill="none"/>
    </clipPath>
    <linearGradient id="linear-gradient-19" x1="-14.563" y1="17.218" x2="-14.553" y2="17.218" gradientUnits="objectBoundingBox">
      <stop offset="0" stop-color="#ff928e"/>
      <stop offset="1" stop-color="#fe7062"/>
    </linearGradient>
    <clipPath id="clip-path-24">
      <path id="Trazado_280337" data-name="Trazado 280337" d="M1395.163,1275.275a.938.938,0,0,0-.809,1.272,18.258,18.258,0,0,1,1.083,3.737.855.855,0,0,0,.891.679h0a.982.982,0,0,0,.945-.832,7.332,7.332,0,0,0-1.263-4.467.873.873,0,0,0-.746-.394.971.971,0,0,0-.1.005" transform="translate(-1394.281 -1275.27)" fill="none"/>
    </clipPath>
    <linearGradient id="linear-gradient-20" x1="-18.363" y1="25.155" x2="-18.35" y2="25.155" xlink:href="#linear-gradient-19"/>
    <clipPath id="clip-path-25">
      <path id="Trazado_280338" data-name="Trazado 280338" d="M1266.688,1324.641a.938.938,0,0,0-.809,1.272,18.234,18.234,0,0,1,1.083,3.737.855.855,0,0,0,.891.679h0a.982.982,0,0,0,.945-.832,7.334,7.334,0,0,0-1.263-4.467.872.872,0,0,0-.745-.394.944.944,0,0,0-.1.005" transform="translate(-1265.807 -1324.636)" fill="none"/>
    </clipPath>
    <linearGradient id="linear-gradient-21" x1="-16.646" y1="24.339" x2="-16.633" y2="24.339" xlink:href="#linear-gradient-19"/>
    <clipPath id="clip-path-26">
      <path id="Trazado_280339" data-name="Trazado 280339" d="M1345.493,1342.287a.529.529,0,0,0-.456.718,10.314,10.314,0,0,1,.611,2.109.482.482,0,0,0,.5.383h0a.554.554,0,0,0,.534-.47,4.137,4.137,0,0,0-.713-2.521.492.492,0,0,0-.421-.222.548.548,0,0,0-.058,0" transform="translate(-1344.996 -1342.284)" fill="none"/>
    </clipPath>
    <linearGradient id="linear-gradient-22" x1="-31.574" y1="42.635" x2="-31.551" y2="42.635" xlink:href="#linear-gradient-19"/>
    <clipPath id="clip-path-28">
      <path id="Trazado_280343" data-name="Trazado 280343" d="M1211.572,1248.555c-9.108,2.069-45.806,12.914-60.075,17.156a1.046,1.046,0,0,0,.134,2.071c16.056,1.01,60.089,3.785,67.159,4.285,8.676.613,14.845-7.433,12.923-16-1.374-6.123-5.263-8.652-11.525-8.652a39.707,39.707,0,0,0-8.617,1.139" transform="translate(-1150.657 -1247.416)" fill="none"/>
    </clipPath>
    <linearGradient id="linear-gradient-23" x1="-1.527" y1="2.012" x2="-1.525" y2="2.012" xlink:href="#linear-gradient-19"/>
    <clipPath id="clip-path-29">
      <path id="Trazado_280344" data-name="Trazado 280344" d="M1904.34,1263.891c-1.266.38-1.512.461-.358,3.29s2.172,6.169,3.633,5.717c1.419-.439-1.339-9.029-3.121-9.029a.529.529,0,0,0-.154.022" transform="translate(-1903.24 -1263.869)" fill="none"/>
    </clipPath>
    <linearGradient id="linear-gradient-24" x1="-26.859" y1="14.225" x2="-26.845" y2="14.225" xlink:href="#linear-gradient-13"/>
    <clipPath id="clip-path-30">
      <path id="Trazado_280345" data-name="Trazado 280345" d="M1831.5,1351.107a32.348,32.348,0,0,1,1.116,6.753,1.475,1.475,0,0,0,1.4,1.355h0a1.736,1.736,0,0,0,1.805-1.284c.764-3.16-.552-6.537-1.279-8.066a1.516,1.516,0,0,0-1.389-.838h0a1.669,1.669,0,0,0-1.657,2.08" transform="translate(-1831.43 -1349.027)" fill="none"/>
    </clipPath>
    <linearGradient id="linear-gradient-25" x1="-29.7" y1="12.43" x2="-29.684" y2="12.43" xlink:href="#linear-gradient-13"/>
    <clipPath id="clip-path-31">
      <path id="Trazado_280346" data-name="Trazado 280346" d="M1739.388,1305.876l-.3.068a.968.968,0,0,0-.651,1.459,7.786,7.786,0,0,1,1.332,5.417.9.9,0,0,0,1.039.984l.032,0a1.038,1.038,0,0,0,.9-.86,8.918,8.918,0,0,0-1.36-6.7.935.935,0,0,0-.768-.385,1.044,1.044,0,0,0-.229.026" transform="translate(-1738.287 -1305.85)" fill="none"/>
    </clipPath>
    <linearGradient id="linear-gradient-26" x1="-37.408" y1="16.341" x2="-37.387" y2="16.341" xlink:href="#linear-gradient-13"/>
    <clipPath id="clip-path-32">
      <path id="Trazado_280347" data-name="Trazado 280347" d="M1684.91,1405.586a6.714,6.714,0,0,1-.141,4.7.736.736,0,0,0,.607,1.015l.026,0a.881.881,0,0,0,.908-.522,7.711,7.711,0,0,0,.4-5.761.758.758,0,0,0-.712-.5l-.251,0h-.017a.836.836,0,0,0-.823,1.062" transform="translate(-1684.714 -1404.524)" fill="none"/>
    </clipPath>
    <linearGradient id="linear-gradient-27" x1="-54.125" y1="17.94" x2="-54.092" y2="17.94" xlink:href="#linear-gradient-13"/>
    <clipPath id="clip-path-33">
      <path id="Trazado_280348" data-name="Trazado 280348" d="M1627.44,1342.128l-.154.076a.521.521,0,0,0-.146.866,4.324,4.324,0,0,1,1.522,2.718.521.521,0,0,0,.715.388l.017-.006a.561.561,0,0,0,.373-.58,4.935,4.935,0,0,0-1.725-3.4.537.537,0,0,0-.343-.12.588.588,0,0,0-.259.061" transform="translate(-1626.966 -1342.067)" fill="none"/>
    </clipPath>
    <linearGradient id="linear-gradient-28" x1="-29.375" y1="32.799" x2="-29.357" y2="32.799" xlink:href="#linear-gradient-19"/>
    <clipPath id="clip-path-34">
      <path id="Trazado_280349" data-name="Trazado 280349" d="M1567.987,1393.147l-.27,0a.893.893,0,0,0-.865,1.16,7.156,7.156,0,0,1,0,5.03.789.789,0,0,0,.684,1.067l.028,0a.942.942,0,0,0,.956-.585,8.216,8.216,0,0,0,.242-6.17.815.815,0,0,0-.772-.508h-.009" transform="translate(-1566.803 -1393.147)" fill="none"/>
    </clipPath>
    <linearGradient id="linear-gradient-29" x1="-18.442" y1="17.706" x2="-18.43" y2="17.706" xlink:href="#linear-gradient-19"/>
    <clipPath id="clip-path-35">
      <path id="Trazado_280350" data-name="Trazado 280350" d="M1474.891,1386.2a16.162,16.162,0,0,1,.558,3.376.738.738,0,0,0,.7.677h0a.868.868,0,0,0,.9-.642,6.5,6.5,0,0,0-.64-4.033.758.758,0,0,0-.695-.419.834.834,0,0,0-.829,1.04" transform="translate(-1474.858 -1385.165)" fill="none"/>
    </clipPath>
    <linearGradient id="linear-gradient-30" x1="-22.065" y1="25.667" x2="-22.05" y2="25.667" xlink:href="#linear-gradient-19"/>
    <clipPath id="clip-path-36">
      <path id="Trazado_280351" data-name="Trazado 280351" d="M1358.728,1417.58a16.182,16.182,0,0,1,.558,3.376.738.738,0,0,0,.7.678h0a.868.868,0,0,0,.9-.642,6.5,6.5,0,0,0-.64-4.033.758.758,0,0,0-.695-.419.835.835,0,0,0-.829,1.04" transform="translate(-1358.694 -1416.54)" fill="none"/>
    </clipPath>
    <linearGradient id="linear-gradient-31" x1="-20.304" y1="25.097" x2="-20.289" y2="25.097" xlink:href="#linear-gradient-19"/>
    <clipPath id="clip-path-37">
      <path id="Trazado_280352" data-name="Trazado 280352" d="M1425.932,1439.5a9.138,9.138,0,0,1,.315,1.906.416.416,0,0,0,.4.382h0a.49.49,0,0,0,.509-.362,3.666,3.666,0,0,0-.361-2.276.427.427,0,0,0-.392-.236.471.471,0,0,0-.468.587" transform="translate(-1425.914 -1438.917)" fill="none"/>
    </clipPath>
    <linearGradient id="linear-gradient-32" x1="-38.002" y1="43.769" x2="-37.975" y2="43.769" xlink:href="#linear-gradient-19"/>
    <clipPath id="clip-path-38">
      <path id="Trazado_280353" data-name="Trazado 280353" d="M998.8,1168.679a12.926,12.926,0,0,1-8.62.123c-3.119-1.044-8.181-1.268-15.852,2.17-15.04,6.741-14.509,36.153,6.84,40.552,27.882,5.745,40.961-8.066,43.369-18s-3.962-22.569-16.337-25.269a19.658,19.658,0,0,0-4.193-.474,14.779,14.779,0,0,0-5.207.9" transform="translate(-963.961 -1167.779)" fill="none"/>
    </clipPath>
    <linearGradient id="linear-gradient-33" x1="-0.932" y1="2.253" x2="-0.931" y2="2.253" xlink:href="#linear-gradient-19"/>
    <clipPath id="clip-path-40">
      <rect id="Rectángulo_326051" data-name="Rectángulo 326051" width="18.161" height="28.59" fill="none"/>
    </clipPath>
    <clipPath id="clip-path-41">
      <path id="Trazado_280355" data-name="Trazado 280355" d="M1228.781,1209.742c-4.432,0-8.025-1.394-8.025,0s3.593,2.524,8.025,2.524,8.025-1.13,8.025-2.524c0-.465-.4-.62-1.1-.62-1.393,0-3.975.62-6.93.62" transform="translate(-1220.755 -1209.122)" fill="none"/>
    </clipPath>
    <linearGradient id="linear-gradient-34" x1="-11.236" y1="8.987" x2="-11.227" y2="8.987" xlink:href="#linear-gradient-19"/>
    <clipPath id="clip-path-43">
      <path id="Trazado_280358" data-name="Trazado 280358" d="M1229.4,1106.509c-4.046,1.165,3.49,5.294,4.346,11.248.2,1.411,1.4-.145.841-2.947-.519-2.581-1.05-8.436-4.29-8.437a3.234,3.234,0,0,0-.9.135" transform="translate(-1228.218 -1106.374)" fill="none"/>
    </clipPath>
    <linearGradient id="linear-gradient-35" x1="-10.718" y1="11.622" x2="-10.709" y2="11.622" xlink:href="#linear-gradient-2"/>
    <clipPath id="clip-path-45">
      <rect id="Rectángulo_326056" data-name="Rectángulo 326056" width="100.351" height="7.553" fill="none"/>
    </clipPath>
    <clipPath id="clip-path-46">
      <path id="Trazado_280361" data-name="Trazado 280361" d="M1.222,2388.475A1.222,1.222,0,0,0,0,2389.7a4.021,4.021,0,0,0,4.021,4.021H114.267c2.824,0,5.113,3.032,5.113,6.773V2411.1c0,3.2-1.961,5.8-4.38,5.8H3.387A3.387,3.387,0,0,0,0,2420.292a1.855,1.855,0,0,0,1.856,1.855H122c2.605,0,6.864-4.1,6.864-9.149v-14.82c0-5.359-4.387-9.7-7.15-9.7Z" transform="translate(0 -2388.475)" fill="none"/>
    </clipPath>
    <linearGradient id="linear-gradient-36" x1="0.001" y1="1.064" x2="0.001" y2="1.064" xlink:href="#linear-gradient-2"/>
    <clipPath id="clip-path-48">
      <path id="Rectángulo_326061" data-name="Rectángulo 326061" d="M12.014,0H92.227a12.014,12.014,0,0,1,12.014,12.014v1.135A12.013,12.013,0,0,1,92.228,25.162H12.014A12.014,12.014,0,0,1,0,13.148V12.014A12.014,12.014,0,0,1,12.014,0Z" fill="none"/>
    </clipPath>
    <linearGradient id="linear-gradient-37" x1="-1.155" y1="0.957" x2="-1.153" y2="0.957" xlink:href="#linear-gradient-2"/>
    <clipPath id="clip-path-50">
      <path id="Trazado_280369" data-name="Trazado 280369" d="M2434.335,1590.539l1.078,16.352s5.261,9.365,10.529,6.585c2.351-1.24,2.756-2.809,2.484-4.166a2.7,2.7,0,0,1,2.049-3.121c1.908-.468,3.726-1.82,3.219-5.386-.664-4.672-4.81-6.069-7.5-6.481a2.411,2.411,0,0,1-2.017-2.119c-.26-2.1-2.9-2.239-3.247-3.307-.438-1.332-2.821-2.49-2.821-2.49Z" transform="translate(-2434.335 -1586.404)" fill="none"/>
    </clipPath>
    <linearGradient id="linear-gradient-38" x1="-7.08" y1="3.112" x2="-7.077" y2="3.112" gradientUnits="objectBoundingBox">
      <stop offset="0" stop-color="#09005d"/>
      <stop offset="1" stop-color="#1a0f91"/>
    </linearGradient>
    <clipPath id="clip-path-51">
      <path id="Trazado_280370" data-name="Trazado 280370" d="M2143.628,1544.619c3.954,12.383,19.342,25.221,19.342,25.221,1.881-.795,4.318-7.736,4.318-7.736-12.507-3.213-23.025-19.85-23.025-19.85Z" transform="translate(-2143.628 -1542.255)" fill="none"/>
    </clipPath>
    <linearGradient id="linear-gradient-39" x1="-5.161" y1="3.168" x2="-5.158" y2="3.168" gradientUnits="objectBoundingBox">
      <stop offset="0" stop-color="#febbba"/>
      <stop offset="1" stop-color="#ff928e"/>
    </linearGradient>
    <clipPath id="clip-path-52">
      <path id="Trazado_280371" data-name="Trazado 280371" d="M2724.8,2741.915a.958.958,0,0,0-.951,1.073l.341,2.8a1.158,1.158,0,0,0,1.016,1.013,17.907,17.907,0,0,0,3.75.059.99.99,0,0,0,.879-.979v-.012a.977.977,0,0,0-.047-.294,10.2,10.2,0,0,0-1.88-3.662Z" transform="translate(-2723.841 -2741.915)" fill="none"/>
    </clipPath>
    <linearGradient id="linear-gradient-40" x1="-34.114" y1="0.839" x2="-34.101" y2="0.839" xlink:href="#linear-gradient-38"/>
    <clipPath id="clip-path-53">
      <path id="Trazado_280372" data-name="Trazado 280372" d="M2421.821,2383.344s1.757,17.8,2.07,24.917a5.579,5.579,0,0,1-.825,3.171l-3.055,4.961,7.765-4.582.155-.948-1.271-1.748,1.665-19.938a6.12,6.12,0,0,0-.7-3.384l-1.606-3.017-3.675-2.519Z" transform="translate(-2420.01 -2380.257)" fill="none"/>
    </clipPath>
    <linearGradient id="linear-gradient-41" x1="-5.401" y1="2.139" x2="-5.399" y2="2.139" xlink:href="#linear-gradient-39"/>
    <clipPath id="clip-path-54">
      <path id="Trazado_280373" data-name="Trazado 280373" d="M2413.46,2718.605c-1.277.77-5.2,3.529-5.2,3.529a3.541,3.541,0,0,0-1.007.027.655.655,0,0,0,.122,1.3h2.478a1.493,1.493,0,0,0,1.184-.581c.772-1,2.373-2.962,3.138-3.013,1.03-.069.9,3.594.9,3.594h.577l.731-4.551a2.694,2.694,0,0,0-1.414-2.816,3.81,3.81,0,0,1-1.512,2.512" transform="translate(-2406.724 -2716.093)" fill="none"/>
    </clipPath>
    <linearGradient id="linear-gradient-42" x1="-19.859" y1="0.804" x2="-19.851" y2="0.804" xlink:href="#linear-gradient-38"/>
    <clipPath id="clip-path-55">
      <path id="Trazado_280374" data-name="Trazado 280374" d="M2567.745,2383.627s10.294,19.526,11.93,23.984a42.867,42.867,0,0,1,2.231,8.529c.034.55.719,1.078,2.605,1.078a1.811,1.811,0,0,0,1.684-.768,1.1,1.1,0,0,0,.042-1.066c-.6-1.205-2.485-5.056-3.185-6.8-.835-2.085-2.633-11.536-3.618-14.822s-2.1-6.85-6.393-10.133a4.734,4.734,0,0,0-2.879-1.283,3.056,3.056,0,0,0-2.418,1.283" transform="translate(-2567.745 -2382.344)" fill="none"/>
    </clipPath>
    <linearGradient id="linear-gradient-43" x1="-5.961" y1="1.392" x2="-5.959" y2="1.392" xlink:href="#linear-gradient-39"/>
    <clipPath id="clip-path-56">
      <path id="Trazado_280375" data-name="Trazado 280375" d="M2328.815,1774.04c.513,2.475,5.187,14.824,5.187,14.824a10.268,10.268,0,0,0,9.223-.9c-2.656-11.252,4.071-17.615,4.071-17.615-4.244-4.074-11.978-5.928-11.978-5.928s-7.379,5.395-6.5,9.617" transform="translate(-2328.743 -1764.422)" fill="none"/>
    </clipPath>
    <linearGradient id="linear-gradient-44" x1="-6.012" y1="3.031" x2="-6.009" y2="3.031" xlink:href="#linear-gradient-19"/>
    <clipPath id="clip-path-57">
      <path id="Trazado_280376" data-name="Trazado 280376" d="M2383.074,2033.46a18.5,18.5,0,0,0-.3,7.148c.669,3.443,4.866,25.569,4.866,25.569,6.613,1.34,16.784-1.348,16.784-1.348-4.212-7.479-5.159-23.441-6.239-26.7s-5.887-5.57-5.887-5.57a10.268,10.268,0,0,1-9.223.9" transform="translate(-2382.538 -2032.562)" fill="none"/>
    </clipPath>
    <linearGradient id="linear-gradient-45" x1="-4.803" y1="1.833" x2="-4.801" y2="1.833" xlink:href="#linear-gradient-2"/>
    <clipPath id="clip-path-58">
      <path id="Trazado_280377" data-name="Trazado 280377" d="M2413.572,1669.312l-1.79.794a1.208,1.208,0,0,0-.707,1.27l.927,6.724a1.05,1.05,0,0,0,.11.365c.609,1.1,2.432,1.65,3.846,1.916.864.163,1.642.3,1.436-.552l-2.159-9.7a1.207,1.207,0,0,0-1.664-.82" transform="translate(-2411.063 -1669.208)" fill="none"/>
    </clipPath>
    <linearGradient id="linear-gradient-46" x1="-17.026" y1="12.059" x2="-17.019" y2="12.059" xlink:href="#linear-gradient-39"/>
    <clipPath id="clip-path-59">
      <path id="Trazado_280378" data-name="Trazado 280378" d="M2437.914,1835.614c-.181.348-.268,1.379.013,1.652,7.966,7.725,3.867,5.481-5.932,4.5-.45-.045-.105,2.563-.105,2.563,30.219,8.234,9.382-12.393,9.382-12.393-1.545.512-2.806,2.616-3.358,3.676" transform="translate(-2431.764 -1831.938)" fill="none"/>
    </clipPath>
    <linearGradient id="linear-gradient-47" x1="-6.915" y1="2.566" x2="-6.913" y2="2.566" xlink:href="#linear-gradient-39"/>
    <clipPath id="clip-path-60">
      <path id="Trazado_280379" data-name="Trazado 280379" d="M2374.2,1575.472a9.565,9.565,0,0,0-3.286,5.518c-.988,3.962.617,5.383,2.262,5.3a7.632,7.632,0,0,0,6.1-3.438c1.808-2.486-1.125-7.721-3.9-7.721a2.156,2.156,0,0,0-1.17.346" transform="translate(-2370.615 -1575.126)" fill="none"/>
    </clipPath>
    <linearGradient id="linear-gradient-48" x1="-14.546" y1="7.728" x2="-14.54" y2="7.728" xlink:href="#linear-gradient-39"/>
    <clipPath id="clip-path-61">
      <path id="Trazado_280380" data-name="Trazado 280380" d="M2380.9,1537.622c-2.553,1.964-.246,4.562-.246,4.562l.953-.992c4.713-.868,3.871,4.809,3.871,4.809l.324.094s.807-1.305,1.432-.48-.128,2.748-.128,2.748,1.236,1.906,2.879-.316.932-4.734-1.028-8.31a5.6,5.6,0,0,0-4.855-3.252,5.254,5.254,0,0,0-3.2,1.137" transform="translate(-2379.7 -1536.485)" fill="none"/>
    </clipPath>
    <linearGradient id="linear-gradient-49" x1="-10.993" y1="6.037" x2="-10.988" y2="6.037" xlink:href="#linear-gradient-38"/>
    <clipPath id="clip-path-62">
      <path id="Trazado_280381" data-name="Trazado 280381" d="M2452.873,1627.17l.556,1.287c.813-.644,2.843-2.538,1.351-3.373a1.046,1.046,0,0,0-.51-.15c-1.079,0-1.4,2.236-1.4,2.236" transform="translate(-2452.873 -1624.934)" fill="none"/>
    </clipPath>
    <linearGradient id="linear-gradient-50" x1="-48.771" y1="23.939" x2="-48.751" y2="23.939" xlink:href="#linear-gradient-39"/>
    <clipPath id="clip-path-63">
      <path id="Trazado_280382" data-name="Trazado 280382" d="M2077.32,1472.987l2.309,1.558a9.347,9.347,0,0,0-.632,2.414,2.7,2.7,0,0,0,.683,1.888c.459.525,1.078,1.2,1.636,1.718a2.668,2.668,0,0,0,2.209.734c-.032.343,1.245.58,1.651-.883-.112-.635-.31-3.417-.8-3.849a51.436,51.436,0,0,0-7.219-4.89.946.946,0,0,0,.161,1.31" transform="translate(-2076.964 -1471.677)" fill="none"/>
    </clipPath>
    <linearGradient id="linear-gradient-51" x1="-13.95" y1="8.906" x2="-13.943" y2="8.906" xlink:href="#linear-gradient-39"/>
    <clipPath id="clip-path-64">
      <path id="Trazado_280383" data-name="Trazado 280383" d="M2114.816,1514.313a.829.829,0,0,0-.349.595,1.135,1.135,0,0,0,.4.829,18.811,18.811,0,0,1,1.614,3.248l.353-.145a19.719,19.719,0,0,0-1.691-3.367.812.812,0,0,1-.293-.541.387.387,0,0,1,.118-.238l1.868,1,.825,1.292.322-.206-.879-1.376-2.188-1.17Z" transform="translate(-2114.466 -1514.233)" fill="none"/>
    </clipPath>
    <linearGradient id="linear-gradient-52" x1="-52.58" y1="23.76" x2="-52.555" y2="23.76" xlink:href="#linear-gradient-39"/>
    <clipPath id="clip-path-65">
      <path id="Trazado_280384" data-name="Trazado 280384" d="M2184.653,1804.388a.515.515,0,0,0-.421.741c1.453,2.94,7.43,14.9,10.423,18.814a.517.517,0,0,0,.416.2l11.7-.109a.515.515,0,0,0,.491-.657l-5.043-17.611a.513.513,0,0,0-.434-.37c-.914-.107-3.561-.406-6.618-.664-2.727-.231-5.781-.429-8.219-.429-.854,0-1.631.024-2.294.08" transform="translate(-2184.178 -1804.308)" fill="none"/>
    </clipPath>
    <linearGradient id="linear-gradient-53" x1="-7.722" y1="3.342" x2="-7.718" y2="3.342" xlink:href="#linear-gradient-38"/>
    <clipPath id="clip-path-67">
      <path id="Trazado_280387" data-name="Trazado 280387" d="M2366.213,1904.743a26.781,26.781,0,0,0-3.989,1.064,1.048,1.048,0,0,0,1.5.9l-.862.667s.123,1.069,1.3.5l-.8.885a.935.935,0,0,0,1.369.315c.447-.292.775.25,1.326.791a2.658,2.658,0,0,0,2.4.84s.7-2.889.419-3.913c-.256-.926-.729-2.091-2.168-2.091a3.134,3.134,0,0,0-.494.042" transform="translate(-2362.224 -1904.701)" fill="none"/>
    </clipPath>
    <linearGradient id="linear-gradient-54" x1="-29.91" y1="12.736" x2="-29.898" y2="12.736" xlink:href="#linear-gradient-39"/>
    <clipPath id="clip-path-68">
      <path id="Trazado_280388" data-name="Trazado 280388" d="M618.634,1959.141l-4.478.534-5.26,11.38,8.763-5.1c-.867,6,10.391,14.909,14.251,18.162a.887.887,0,0,1,.07,1.292l-1.541,1.614a17.7,17.7,0,0,0,8.747,4.974l-.812-1.5c-.03-.011-16.072-28.1-18.24-30.749a1.68,1.68,0,0,0-1.3-.615,1.73,1.73,0,0,0-.2.012" transform="translate(-608.896 -1959.129)" fill="none"/>
    </clipPath>
    <linearGradient id="linear-gradient-55" x1="-1.111" y1="1.818" x2="-1.109" y2="1.818" xlink:href="#linear-gradient-39"/>
    <clipPath id="clip-path-69">
      <path id="Trazado_280389" data-name="Trazado 280389" d="M848.8,2268.035a1,1,0,0,0,.377,1.155c1.62,1.161,6.963,4.907,9.429,5.641a.279.279,0,0,0,.349-.329,8.885,8.885,0,0,0-1.855-3.391l.118.239a.343.343,0,0,1-.474.452c-1.649-.931-5.008-2.969-6.628-4.962a2.272,2.272,0,0,0-1.317,1.194" transform="translate(-848.739 -2266.841)" fill="none"/>
    </clipPath>
    <linearGradient id="linear-gradient-56" x1="-7.184" y1="5.815" x2="-7.175" y2="5.815" xlink:href="#linear-gradient-38"/>
    <clipPath id="clip-path-70">
      <path id="Trazado_280390" data-name="Trazado 280390" d="M589.482,2005.395l9.615-3.225c-2.063,5.7,7.158,16.7,10.281,20.67a.887.887,0,0,1-.193,1.279l-1.836,1.268a17.7,17.7,0,0,0,7.559,6.641l-.492-1.632c-.027-.017-2.434-5.816-2.461-5.833a102.106,102.106,0,0,0-9.179-27.97,1.68,1.68,0,0,0-1.347-.894l-4.493-.384Z" transform="translate(-589.482 -1995.315)" fill="none"/>
    </clipPath>
    <linearGradient id="linear-gradient-57" x1="-1.071" y1="1.672" x2="-1.069" y2="1.672" xlink:href="#linear-gradient-39"/>
    <clipPath id="clip-path-71">
      <path id="Trazado_280391" data-name="Trazado 280391" d="M785.991,2331.065a1,1,0,0,0,.135,1.208c1.352,1.464,5.826,6.215,8.092,7.433a.279.279,0,0,0,.408-.251,8.88,8.88,0,0,0-1.13-3.7l.067.258a.343.343,0,0,1-.556.347c-1.427-1.246-4.3-3.921-5.486-6.2a2.271,2.271,0,0,0-1.531.9" transform="translate(-785.847 -2330.162)" fill="none"/>
    </clipPath>
    <linearGradient id="linear-gradient-58" x1="-7.76" y1="4.278" x2="-7.75" y2="4.278" xlink:href="#linear-gradient-38"/>
    <clipPath id="clip-path-72">
      <path id="Trazado_280392" data-name="Trazado 280392" d="M388.69,1969.287s-4.064,6.045-4.4,8.8,1.124,3.711,5.378,4.063c12.659,1.047,18.9-2.748,18.9-2.748.866-5.521,1.482-6.926,8.715-9.928,0,0-9.148.726-10.989.012-.756-.293-3.859-.38-7.254-.38-4.875,0-10.352.178-10.352.178" transform="translate(-384.247 -1969.109)" fill="none"/>
    </clipPath>
    <linearGradient id="linear-gradient-59" x1="-1.024" y1="2.432" x2="-1.022" y2="2.432" xlink:href="#linear-gradient-38"/>
    <clipPath id="clip-path-73">
      <path id="Trazado_280393" data-name="Trazado 280393" d="M331.33,1598.653c-.8,1.094-3.881.192-5.009,2.483a2.908,2.908,0,0,1-3.138,1.616c-3.23-.6-8.509-.646-11.115,4.415-1.99,3.863-.453,6.124,1.535,7.413a3.26,3.26,0,0,1,1.1,4.368c-.847,1.439-1.006,3.387,1.181,5.732,4.9,5.254,14.607-3.334,14.607-3.334l7.705-18.207,1.726-5.6a5.66,5.66,0,0,0-3.869-1.892c-1.393,0-3.037.712-4.72,3.01" transform="translate(-311.138 -1595.643)" fill="none"/>
    </clipPath>
    <linearGradient id="linear-gradient-60" x1="-0.406" y1="2.468" x2="-0.404" y2="2.468" xlink:href="#linear-gradient-38"/>
    <clipPath id="clip-path-74">
      <path id="Trazado_280394" data-name="Trazado 280394" d="M402.518,1712.444s-10.443,6.778-14.546,18.259l4.608,1.435a53.852,53.852,0,0,1,5.421-7.483s-4.662,6.158-4.826,8.679l9.906,1.024a92.829,92.829,0,0,0,7.063-7.492,6.334,6.334,0,0,0,1.073-5.7,78.638,78.638,0,0,0-3.126-7.873c-.244-.818-4.784-.849-5.482-.849h-.09" transform="translate(-387.972 -1712.444)" fill="none"/>
    </clipPath>
    <linearGradient id="linear-gradient-61" x1="-1.125" y1="3.364" x2="-1.122" y2="3.364" xlink:href="#linear-gradient-19"/>
    <clipPath id="clip-path-75">
      <path id="Trazado_280395" data-name="Trazado 280395" d="M375.91,1923.146a1.655,1.655,0,0,0,.6,1.9,10.948,10.948,0,0,0,1.564.974c.816.357,18.788.113,18.788.113l4.143-.3-3.556-3.87-4.107,1.106s-4.788.742-7.529,0l-2.741-.742-6.193-1.928Z" transform="translate(-375.815 -1920.397)" fill="none"/>
    </clipPath>
    <linearGradient id="linear-gradient-62" x1="-1.296" y1="12.912" x2="-1.292" y2="12.912" xlink:href="#linear-gradient-39"/>
    <clipPath id="clip-path-76">
      <path id="Trazado_280396" data-name="Trazado 280396" d="M558.125,1634.436l-3.567,6.633c.235,1.448,3.882,1.489,4.445.624a.857.857,0,0,0,.112-.293l2.134-4.432c.092-.432-1.093-1.888-1.483-2.1l-1.155-.615c-.12.052-.279.112-.486.178m.223-.318.262.14c.545-.238.294-.336.016-.336-.243,0-.506.075-.279.2" transform="translate(-554.558 -1633.922)" fill="none"/>
    </clipPath>
    <linearGradient id="linear-gradient-63" x1="-6.613" y1="11.334" x2="-6.601" y2="11.334" xlink:href="#linear-gradient-39"/>
    <clipPath id="clip-path-77">
      <path id="Trazado_280397" data-name="Trazado 280397" d="M579.667,1583.107a6.262,6.262,0,0,0,4.822,3.117c1.343.153,2.727-.932,2.115-4.225a7.848,7.848,0,0,0-2.418-4.681,1.768,1.768,0,0,0-1.052-.344c-2.25,0-4.8,4.042-3.467,6.132" transform="translate(-579.298 -1576.975)" fill="none"/>
    </clipPath>
    <linearGradient id="linear-gradient-64" x1="-4.45" y1="9.55" x2="-4.442" y2="9.55" xlink:href="#linear-gradient-39"/>
    <clipPath id="clip-path-78">
      <path id="Trazado_280398" data-name="Trazado 280398" d="M555.459,1547.471c-1.782,2.831-2.489,4.853-1.253,6.754s2.342.4,2.342.4-.522-1.612.031-2.257,1.149.464,1.149.464l.27-.061s-.409-4.69,3.408-3.746l.731.86s2.018-2.013.024-3.748a4.268,4.268,0,0,0-2.8-1.1,4.653,4.653,0,0,0-3.9,2.429" transform="translate(-553.585 -1545.042)" fill="none"/>
    </clipPath>
    <linearGradient id="linear-gradient-65" x1="-2.944" y1="7.217" x2="-2.939" y2="7.217" xlink:href="#linear-gradient-38"/>
    <clipPath id="clip-path-79">
      <path id="Trazado_280399" data-name="Trazado 280399" d="M575.974,1615.708c-1.263.61.305,2.261.94,2.829l.519-1.026s-.155-1.9-1.073-1.9a.884.884,0,0,0-.386.1" transform="translate(-575.496 -1615.609)" fill="none"/>
    </clipPath>
    <linearGradient id="linear-gradient-66" x1="-14.645" y1="29.615" x2="-14.619" y2="29.615" xlink:href="#linear-gradient-39"/>
    <clipPath id="clip-path-80">
      <path id="Trazado_280400" data-name="Trazado 280400" d="M537.846,1982.848l-16.358.018a.732.732,0,0,0-.036,1.463h.038l16.358-.018a.732.732,0,0,0,.011-1.464h-.013" transform="translate(-520.757 -1982.848)" fill="none"/>
    </clipPath>
    <linearGradient id="linear-gradient-67" x1="-7.346" y1="4.581" x2="-7.334" y2="4.581" xlink:href="#linear-gradient-2"/>
    <clipPath id="clip-path-81">
      <path id="Trazado_280401" data-name="Trazado 280401" d="M637.905,1830.569a2.6,2.6,0,0,0-2.348,1.489l-6.3,13.354h16.93a1.578,1.578,0,0,0,1.468-1l4.884-12.357a1.088,1.088,0,0,0-1.012-1.488Z" transform="translate(-629.259 -1830.569)" fill="none"/>
    </clipPath>
    <linearGradient id="linear-gradient-68" x1="-3.498" y1="3.642" x2="-3.493" y2="3.642" xlink:href="#linear-gradient-38"/>
    <clipPath id="clip-path-83">
      <rect id="Rectángulo_326095" data-name="Rectángulo 326095" width="32.426" height="32.436" fill="none"/>
    </clipPath>
    <clipPath id="clip-path-84">
      <rect id="Rectángulo_326096" data-name="Rectángulo 326096" width="20.688" height="18.27" fill="none"/>
    </clipPath>
    <clipPath id="clip-path-85">
      <rect id="Rectángulo_326097" data-name="Rectángulo 326097" width="32.426" height="32.435" fill="none"/>
    </clipPath>
    <clipPath id="clip-path-86">
      <rect id="Rectángulo_326098" data-name="Rectángulo 326098" width="22.85" height="14.348" fill="none"/>
    </clipPath>
    <clipPath id="clip-path-88">
      <rect id="Rectángulo_326100" data-name="Rectángulo 326100" width="8.851" height="8.851" fill="none"/>
    </clipPath>
    <clipPath id="clip-path-89">
      <rect id="Rectángulo_326101" data-name="Rectángulo 326101" width="13.775" height="13.775" fill="none"/>
    </clipPath>
  </defs>
  <g id="Grupo_261910" data-name="Grupo 261910" clip-path="url(#clip-path)">
    <g id="Grupo_261726" data-name="Grupo 261726" transform="translate(8.905 0.777)">
      <g id="Grupo_261725" data-name="Grupo 261725" clip-path="url(#clip-path-2)">
        <rect id="Rectángulo_326014" data-name="Rectángulo 326014" width="350.352" height="351.155" transform="matrix(0.659, -0.753, 0.753, 0.659, -133.616, 138.368)" fill="url(#linear-gradient)"/>
      </g>
    </g>
    <g id="Grupo_261728" data-name="Grupo 261728">
      <g id="Grupo_261727" data-name="Grupo 261727" clip-path="url(#clip-path)">
        <path id="Trazado_280312" data-name="Trazado 280312" d="M2023.57,488.777a3.365,3.365,0,0,0,3.345-3.747l-21.109-183.7a3.363,3.363,0,1,0-6.681.769l21.109,183.7a3.363,3.363,0,0,0,3.337,2.979" transform="translate(-1823.576 -272.158)" fill="#7d97f4"/>
        <path id="Trazado_280313" data-name="Trazado 280313" d="M921.2,488.774a3.364,3.364,0,0,0,3.278-2.628l41.188-183.7a3.363,3.363,0,1,0-6.563-1.471l-41.187,183.7a3.363,3.363,0,0,0,2.546,4.017,3.411,3.411,0,0,0,.739.082" transform="translate(-837.247 -272.154)" fill="#7d97f4"/>
        <path id="Trazado_280314" data-name="Trazado 280314" d="M1713.433,1455.381a3.363,3.363,0,0,0,3.363-3.363V1361.36a3.363,3.363,0,0,0-6.726,0v90.658a3.363,3.363,0,0,0,3.363,3.363" transform="translate(-1559.922 -1238.761)" fill="#7d97f4"/>
      </g>
    </g>
    <g id="Grupo_261730" data-name="Grupo 261730" transform="translate(73.617)">
      <g id="Grupo_261729" data-name="Grupo 261729" clip-path="url(#clip-path-4)">
        <rect id="Rectángulo_326016" data-name="Rectángulo 326016" width="147.956" height="163.484" transform="translate(-0.491 0)" fill="url(#linear-gradient-2)"/>
      </g>
    </g>
    <g id="Grupo_261732" data-name="Grupo 261732">
      <g id="Grupo_261731" data-name="Grupo 261731" clip-path="url(#clip-path)">
        <path id="Trazado_280316" data-name="Trazado 280316" d="M1026.281,51.229l-103.555-2.4a5.951,5.951,0,0,0-6.014,5.014L894.4,193.967a5.951,5.951,0,0,0,5.732,6.884l114.7,2.8a5.951,5.951,0,0,0,6.077-5.478l11.157-140.523a5.951,5.951,0,0,0-5.794-6.42" transform="translate(-815.805 -44.542)" fill="#bdd0fb"/>
      </g>
    </g>
    <g id="Grupo_261734" data-name="Grupo 261734" transform="translate(146.278 79.051)">
      <g id="Grupo_261733" data-name="Grupo 261733" clip-path="url(#clip-path-6)">
        <rect id="Rectángulo_326018" data-name="Rectángulo 326018" width="44.47" height="44.918" transform="matrix(0.676, -0.737, 0.737, 0.676, -14.545, 15.123)" fill="url(#linear-gradient-3)"/>
      </g>
    </g>
    <g id="Grupo_261736" data-name="Grupo 261736" transform="translate(107.629 47.778)">
      <g id="Grupo_261735" data-name="Grupo 261735" clip-path="url(#clip-path-7)">
        <rect id="Rectángulo_326019" data-name="Rectángulo 326019" width="38.264" height="38.292" transform="translate(-13.522 16.385) rotate(-51.009)" fill="url(#linear-gradient-4)"/>
      </g>
    </g>
    <g id="Grupo_261738" data-name="Grupo 261738" transform="translate(152.966 56.306)">
      <g id="Grupo_261737" data-name="Grupo 261737" clip-path="url(#clip-path-8)">
        <rect id="Rectángulo_326020" data-name="Rectángulo 326020" width="39.653" height="36.03" transform="translate(-1.029 0)" fill="url(#linear-gradient-5)"/>
      </g>
    </g>
    <g id="Grupo_261740" data-name="Grupo 261740" transform="translate(112.628 58.648)">
      <g id="Grupo_261739" data-name="Grupo 261739" clip-path="url(#clip-path-9)">
        <rect id="Rectángulo_326021" data-name="Rectángulo 326021" width="35.785" height="38.391" transform="translate(-2.648 34.035) rotate(-87.336)" fill="url(#linear-gradient-6)"/>
      </g>
    </g>
    <g id="Grupo_261742" data-name="Grupo 261742" transform="translate(114.643 33.04)">
      <g id="Grupo_261741" data-name="Grupo 261741" clip-path="url(#clip-path-10)">
        <rect id="Rectángulo_326022" data-name="Rectángulo 326022" width="68.869" height="65.691" transform="translate(-1.327 68.454) rotate(-89.637)" fill="url(#linear-gradient-7)"/>
      </g>
    </g>
    <g id="Grupo_261744" data-name="Grupo 261744" transform="translate(120.583 73.288)">
      <g id="Grupo_261743" data-name="Grupo 261743" clip-path="url(#clip-path-11)">
        <rect id="Rectángulo_326023" data-name="Rectángulo 326023" width="75.925" height="69.804" transform="matrix(0.596, -0.803, 0.803, 0.596, -31.991, 42.034)" fill="url(#linear-gradient-8)"/>
      </g>
    </g>
    <g id="Grupo_261746" data-name="Grupo 261746" transform="translate(108.235 51.418)">
      <g id="Grupo_261745" data-name="Grupo 261745" clip-path="url(#clip-path-12)">
        <rect id="Rectángulo_326024" data-name="Rectángulo 326024" width="29.793" height="27.176" transform="translate(-0.476 0.001) rotate(-0.285)" fill="url(#linear-gradient-9)"/>
      </g>
    </g>
    <g id="Grupo_261748" data-name="Grupo 261748" transform="translate(154.559 60.449)">
      <g id="Grupo_261747" data-name="Grupo 261747" clip-path="url(#clip-path-13)">
        <rect id="Rectángulo_326025" data-name="Rectángulo 326025" width="34.906" height="40.037" transform="translate(-0.178 0)" fill="url(#linear-gradient-10)"/>
      </g>
    </g>
    <g id="Grupo_261750" data-name="Grupo 261750" transform="translate(125.219 41.073)">
      <g id="Grupo_261749" data-name="Grupo 261749" clip-path="url(#clip-path-14)">
        <rect id="Rectángulo_326026" data-name="Rectángulo 326026" width="41.383" height="36.287" transform="translate(-0.392 0)" fill="url(#linear-gradient-11)"/>
      </g>
    </g>
    <g id="Grupo_261752" data-name="Grupo 261752" transform="translate(120.111 130.074)">
      <g id="Grupo_261751" data-name="Grupo 261751" clip-path="url(#clip-path-15)">
        <rect id="Rectángulo_326027" data-name="Rectángulo 326027" width="22.569" height="22.139" transform="translate(-9.909 5.88) rotate(-40.76)" fill="url(#linear-gradient-12)"/>
      </g>
    </g>
    <g id="Grupo_261754" data-name="Grupo 261754">
      <g id="Grupo_261753" data-name="Grupo 261753" clip-path="url(#clip-path)">
        <path id="Trazado_280327" data-name="Trazado 280327" d="M2026.189,1060.009s16.713-6.525,20.189-7.951,9.055,2.309,1.941,6.418-19.968,4.988-19.968,4.988Z" transform="translate(-1848.285 -959.403)" fill="#91b3fa"/>
        <path id="Trazado_280328" data-name="Trazado 280328" d="M2049.613,1127.684s14.833-3.848,18.942-4.678,9.334,4.335,1.393,7.776-20.528-.454-20.528-.454Z" transform="translate(-1869.476 -1024.323)" fill="#7d97f4"/>
        <path id="Trazado_280329" data-name="Trazado 280329" d="M2023.423,998.645s13.419-11.362,17.864-12.274,6.841,3.364.97,8.286-17.1,7.388-17.1,7.388Z" transform="translate(-1845.762 -899.653)" fill="#7d97f4"/>
      </g>
    </g>
    <g id="Grupo_261756" data-name="Grupo 261756" transform="translate(90.773 93.365)">
      <g id="Grupo_261755" data-name="Grupo 261755" clip-path="url(#clip-path-17)">
        <rect id="Rectángulo_326029" data-name="Rectángulo 326029" width="42.971" height="98.114" transform="matrix(0.124, -0.992, 0.992, 0.124, -4.363, 30.928)" fill="url(#linear-gradient-13)"/>
      </g>
    </g>
    <g id="Grupo_261758" data-name="Grupo 261758" transform="translate(163.966 95.389)">
      <g id="Grupo_261757" data-name="Grupo 261757" clip-path="url(#clip-path-18)">
        <rect id="Rectángulo_326030" data-name="Rectángulo 326030" width="12.284" height="10.652" transform="matrix(0.268, -0.963, 0.963, 0.268, -3.226, 9.734)" fill="url(#linear-gradient-14)"/>
      </g>
    </g>
    <g id="Grupo_261760" data-name="Grupo 261760" transform="translate(157.848 104.51)">
      <g id="Grupo_261759" data-name="Grupo 261759" clip-path="url(#clip-path-19)">
        <rect id="Rectángulo_326031" data-name="Rectángulo 326031" width="12.723" height="9.36" transform="translate(-3.04 10.742) rotate(-75.941)" fill="url(#linear-gradient-15)"/>
      </g>
    </g>
    <g id="Grupo_261762" data-name="Grupo 261762" transform="translate(147.938 101.277)">
      <g id="Grupo_261761" data-name="Grupo 261761" clip-path="url(#clip-path-20)">
        <rect id="Rectángulo_326032" data-name="Rectángulo 326032" width="9.952" height="7.124" transform="matrix(0.243, -0.97, 0.97, 0.243, -2.364, 8.453)" fill="url(#linear-gradient-16)"/>
      </g>
    </g>
    <g id="Grupo_261764" data-name="Grupo 261764" transform="translate(143.862 111.62)">
      <g id="Grupo_261763" data-name="Grupo 261763" clip-path="url(#clip-path-21)">
        <rect id="Rectángulo_326033" data-name="Rectángulo 326033" width="8.363" height="6.617" transform="matrix(0.481, -0.877, 0.877, 0.481, -3.439, 5.937)" fill="url(#linear-gradient-17)"/>
      </g>
    </g>
    <g id="Grupo_261766" data-name="Grupo 261766" transform="translate(137.145 106.114)">
      <g id="Grupo_261765" data-name="Grupo 261765" clip-path="url(#clip-path-22)">
        <rect id="Rectángulo_326034" data-name="Rectángulo 326034" width="3.776" height="4.626" transform="translate(-0.128 0) rotate(-0.296)" fill="url(#linear-gradient-18)"/>
      </g>
    </g>
    <g id="Grupo_261768" data-name="Grupo 261768" transform="translate(131.739 111.747)">
      <g id="Grupo_261767" data-name="Grupo 261767" clip-path="url(#clip-path-23)">
        <rect id="Rectángulo_326035" data-name="Rectángulo 326035" width="8.854" height="7.775" transform="translate(-4.099 5.482) rotate(-54.616)" fill="url(#linear-gradient-19)"/>
      </g>
    </g>
    <g id="Grupo_261770" data-name="Grupo 261770" transform="translate(122.421 111.972)">
      <g id="Grupo_261769" data-name="Grupo 261769" clip-path="url(#clip-path-24)">
        <rect id="Rectángulo_326036" data-name="Rectángulo 326036" width="6.571" height="5.314" transform="translate(-2.186 4.878) rotate(-67.596)" fill="url(#linear-gradient-20)"/>
      </g>
    </g>
    <g id="Grupo_261772" data-name="Grupo 261772" transform="translate(111.141 116.306)">
      <g id="Grupo_261771" data-name="Grupo 261771" clip-path="url(#clip-path-25)">
        <rect id="Rectángulo_326037" data-name="Rectángulo 326037" width="6.571" height="5.314" transform="translate(-2.186 4.879) rotate(-67.596)" fill="url(#linear-gradient-21)"/>
      </g>
    </g>
    <g id="Grupo_261774" data-name="Grupo 261774" transform="translate(118.094 117.856)">
      <g id="Grupo_261773" data-name="Grupo 261773" clip-path="url(#clip-path-26)">
        <rect id="Rectángulo_326038" data-name="Rectángulo 326038" width="3.709" height="2.999" transform="matrix(0.381, -0.925, 0.925, 0.381, -1.234, 2.754)" fill="url(#linear-gradient-22)"/>
      </g>
    </g>
    <g id="Grupo_261776" data-name="Grupo 261776">
      <g id="Grupo_261775" data-name="Grupo 261775" clip-path="url(#clip-path)">
        <path id="Trazado_280340" data-name="Trazado 280340" d="M2035.853,1274.775s15.122-4.172,18.274-5.1,7.6,2.863,1.028,5.806-17.782,2.523-17.782,2.523Z" transform="translate(-1857.1 -1158.065)" fill="#91b3fa"/>
        <path id="Trazado_280341" data-name="Trazado 280341" d="M2050.146,1334.55s13.223-2,16.863-2.346,7.635,4.664.417,6.946-17.715-2.3-17.715-2.3Z" transform="translate(-1869.741 -1215.218)" fill="#7d97f4"/>
        <path id="Trazado_280342" data-name="Trazado 280342" d="M2035.324,1218s12.763-8.717,16.7-9.1,5.577,3.583,0,7.354-15.546,4.892-15.546,4.892Z" transform="translate(-1856.618 -1102.73)" fill="#7d97f4"/>
      </g>
    </g>
    <g id="Grupo_261778" data-name="Grupo 261778" transform="translate(101.031 109.526)">
      <g id="Grupo_261777" data-name="Grupo 261777" clip-path="url(#clip-path-28)">
        <rect id="Rectángulo_326040" data-name="Rectángulo 326040" width="70.24" height="81.803" transform="translate(-12.483 16.153) rotate(-53.094)" fill="url(#linear-gradient-23)"/>
      </g>
    </g>
    <g id="Grupo_261780" data-name="Grupo 261780" transform="translate(167.109 110.971)">
      <g id="Grupo_261779" data-name="Grupo 261779" clip-path="url(#clip-path-29)">
        <rect id="Rectángulo_326041" data-name="Rectángulo 326041" width="6.206" height="9.481" transform="translate(-0.411)" fill="url(#linear-gradient-24)"/>
      </g>
    </g>
    <g id="Grupo_261782" data-name="Grupo 261782" transform="translate(160.804 118.448)">
      <g id="Grupo_261781" data-name="Grupo 261781" clip-path="url(#clip-path-30)">
        <rect id="Rectángulo_326042" data-name="Rectángulo 326042" width="5.406" height="10.249" transform="translate(-0.249 0)" fill="url(#linear-gradient-25)"/>
      </g>
    </g>
    <g id="Grupo_261784" data-name="Grupo 261784" transform="translate(152.626 114.657)">
      <g id="Grupo_261783" data-name="Grupo 261783" clip-path="url(#clip-path-31)">
        <rect id="Rectángulo_326043" data-name="Rectángulo 326043" width="4.074" height="8.028" transform="translate(-0.217 0)" fill="url(#linear-gradient-26)"/>
      </g>
    </g>
    <g id="Grupo_261786" data-name="Grupo 261786" transform="translate(147.922 123.321)">
      <g id="Grupo_261785" data-name="Grupo 261785" clip-path="url(#clip-path-32)">
        <rect id="Rectángulo_326044" data-name="Rectángulo 326044" width="2.731" height="6.83" transform="translate(-0.126 0)" fill="url(#linear-gradient-27)"/>
      </g>
    </g>
    <g id="Grupo_261788" data-name="Grupo 261788" transform="translate(142.852 117.837)">
      <g id="Grupo_261787" data-name="Grupo 261787" clip-path="url(#clip-path-33)">
        <rect id="Rectángulo_326045" data-name="Rectángulo 326045" width="4.827" height="3.898" transform="matrix(0.248, -0.969, 0.969, 0.248, -1.128, 3.968)" fill="url(#linear-gradient-28)"/>
      </g>
    </g>
    <g id="Grupo_261790" data-name="Grupo 261790" transform="translate(137.569 122.322)">
      <g id="Grupo_261789" data-name="Grupo 261789" clip-path="url(#clip-path-34)">
        <rect id="Rectángulo_326046" data-name="Rectángulo 326046" width="7.329" height="6.967" transform="translate(-3.78 4.068) rotate(-48.28)" fill="url(#linear-gradient-29)"/>
      </g>
    </g>
    <g id="Grupo_261792" data-name="Grupo 261792" transform="translate(129.496 121.621)">
      <g id="Grupo_261791" data-name="Grupo 261791" clip-path="url(#clip-path-35)">
        <rect id="Rectángulo_326047" data-name="Rectángulo 326047" width="5.793" height="4.834" transform="translate(-2.285 3.939) rotate(-61.259)" fill="url(#linear-gradient-30)"/>
      </g>
    </g>
    <g id="Grupo_261794" data-name="Grupo 261794" transform="translate(119.297 124.376)">
      <g id="Grupo_261793" data-name="Grupo 261793" clip-path="url(#clip-path-36)">
        <rect id="Rectángulo_326048" data-name="Rectángulo 326048" width="5.793" height="4.834" transform="translate(-2.285 3.939) rotate(-61.259)" fill="url(#linear-gradient-31)"/>
      </g>
    </g>
    <g id="Grupo_261796" data-name="Grupo 261796" transform="translate(125.199 126.34)">
      <g id="Grupo_261795" data-name="Grupo 261795" clip-path="url(#clip-path-37)">
        <rect id="Rectángulo_326049" data-name="Rectángulo 326049" width="3.27" height="2.729" transform="matrix(0.481, -0.877, 0.877, 0.481, -1.29, 2.223)" fill="url(#linear-gradient-32)"/>
      </g>
    </g>
    <g id="Grupo_261798" data-name="Grupo 261798" transform="translate(84.638 102.534)">
      <g id="Grupo_261797" data-name="Grupo 261797" clip-path="url(#clip-path-38)">
        <rect id="Rectángulo_326050" data-name="Rectángulo 326050" width="79.441" height="67.707" transform="translate(-18.879 4.21) rotate(-17.418)" fill="url(#linear-gradient-33)"/>
      </g>
    </g>
    <g id="Grupo_261803" data-name="Grupo 261803">
      <g id="Grupo_261802" data-name="Grupo 261802" clip-path="url(#clip-path)">
        <g id="Grupo_261801" data-name="Grupo 261801" transform="translate(86.576 107.917)" opacity="0.23">
          <g id="Grupo_261800" data-name="Grupo 261800">
            <g id="Grupo_261799" data-name="Grupo 261799" clip-path="url(#clip-path-40)">
              <path id="Trazado_280354" data-name="Trazado 280354" d="M999.665,1229.105c2.45.159,7.017,1.2,2.83,6.558s-7.7,14.194-5.91,19.927-9.842-1.353-10.505-8.977,5.977-18,13.586-17.508" transform="translate(-986.033 -1229.089)" fill="#fff"/>
            </g>
          </g>
        </g>
      </g>
    </g>
    <g id="Grupo_261805" data-name="Grupo 261805" transform="translate(107.185 106.164)">
      <g id="Grupo_261804" data-name="Grupo 261804" clip-path="url(#clip-path-41)">
        <rect id="Rectángulo_326053" data-name="Rectángulo 326053" width="9.817" height="16.318" transform="translate(-1.397 2.559) rotate(-67.267)" fill="url(#linear-gradient-34)"/>
      </g>
    </g>
    <g id="Grupo_261807" data-name="Grupo 261807">
      <g id="Grupo_261806" data-name="Grupo 261806" clip-path="url(#clip-path)">
        <path id="Trazado_280356" data-name="Trazado 280356" d="M1286.122,969.6s-2.553-10.6,9.553-17.385,11.833-7.4,12.494-3.81,4.314,16.309-8.952,21.774-13.1-.579-13.1-.579" transform="translate(-1172.993 -863.156)" fill="#7d97f4"/>
        <path id="Trazado_280357" data-name="Trazado 280357" d="M1322.7,973.865c-1.9,3.092-10.718,17.048-18.479,22.565,0,0,9.2,1.188,15.807-5,5.647-5.288,3.862-14.83,3.226-17.482a.3.3,0,0,0-.554-.087" transform="translate(-1189.707 -888.224)" fill="#91b3fa"/>
      </g>
    </g>
    <g id="Grupo_261809" data-name="Grupo 261809" transform="translate(107.841 97.142)">
      <g id="Grupo_261808" data-name="Grupo 261808" clip-path="url(#clip-path-43)">
        <rect id="Rectángulo_326055" data-name="Rectángulo 326055" width="9.795" height="12.794" transform="translate(-2.86)" fill="url(#linear-gradient-35)"/>
      </g>
    </g>
    <g id="Grupo_261814" data-name="Grupo 261814">
      <g id="Grupo_261813" data-name="Grupo 261813" clip-path="url(#clip-path)">
        <g id="Grupo_261812" data-name="Grupo 261812" transform="translate(106.362 14.796)" opacity="0.67">
          <g id="Grupo_261811" data-name="Grupo 261811">
            <g id="Grupo_261810" data-name="Grupo 261810" clip-path="url(#clip-path-45)">
              <path id="Trazado_280359" data-name="Trazado 280359" d="M1310.613,176.062h-98.119a1.116,1.116,0,0,1-1.116-1.116v-5.32a1.116,1.116,0,0,1,1.116-1.116h98.119a1.116,1.116,0,0,1,1.116,1.116v5.32a1.116,1.116,0,0,1-1.116,1.116" transform="translate(-1211.378 -168.509)" fill="#fff"/>
            </g>
          </g>
        </g>
        <path id="Trazado_280360" data-name="Trazado 280360" d="M40.235,2471.374H156.082v-23.187H40.235c2.48,0,2.48,23.187,0,23.187" transform="translate(-36.702 -2233.23)" fill="#91b3fa"/>
      </g>
    </g>
    <g id="Grupo_261816" data-name="Grupo 261816" transform="translate(0 209.714)">
      <g id="Grupo_261815" data-name="Grupo 261815" clip-path="url(#clip-path-46)">
        <rect id="Rectángulo_326058" data-name="Rectángulo 326058" width="129.007" height="34.232" transform="matrix(1, -0.004, 0.004, 1, -0.146, 0.001)" fill="url(#linear-gradient-36)"/>
      </g>
    </g>
    <g id="Grupo_261818" data-name="Grupo 261818">
      <g id="Grupo_261817" data-name="Grupo 261817" clip-path="url(#clip-path)">
        <path id="Trazado_280362" data-name="Trazado 280362" d="M191.461,2499.58H82.838a.3.3,0,0,1,0-.594H191.461a.3.3,0,0,1,0,.594" transform="translate(-75.294 -2279.569)" fill="#fff"/>
        <path id="Trazado_280363" data-name="Trazado 280363" d="M191.461,2538.778H82.838a.3.3,0,0,1,0-.594H191.461a.3.3,0,0,1,0,.594" transform="translate(-75.294 -2315.325)" fill="#fff"/>
        <path id="Trazado_280364" data-name="Trazado 280364" d="M191.461,2577.976H82.838a.3.3,0,0,1,0-.594H191.461a.3.3,0,1,1,0,.594" transform="translate(-75.294 -2351.082)" fill="#fff"/>
        <path id="Trazado_280365" data-name="Trazado 280365" d="M191.461,2617.175H82.838a.3.3,0,0,1,0-.594H191.461a.3.3,0,0,1,0,.594" transform="translate(-75.294 -2386.839)" fill="#fff"/>
        <path id="Trazado_280366" data-name="Trazado 280366" d="M191.461,2656.373H82.838a.3.3,0,0,1,0-.594H191.461a.3.3,0,1,1,0,.594" transform="translate(-75.294 -2422.595)" fill="#fff"/>
      </g>
    </g>
    <g id="Grupo_261820" data-name="Grupo 261820" transform="translate(14.976 184.446)">
      <g id="Grupo_261819" data-name="Grupo 261819" clip-path="url(#clip-path-48)">
        <rect id="Rectángulo_326060" data-name="Rectángulo 326060" width="40.548" height="106.839" transform="translate(-3.74 24.593) rotate(-81.353)" fill="url(#linear-gradient-37)"/>
      </g>
    </g>
    <g id="Grupo_261822" data-name="Grupo 261822">
      <g id="Grupo_261821" data-name="Grupo 261821" clip-path="url(#clip-path)">
        <path id="Trazado_280367" data-name="Trazado 280367" d="M1084.769,2153.013h10.974a.636.636,0,0,0,.636-.636v-18.106a.636.636,0,0,0-.636-.636h-10.974a.636.636,0,0,0-.636.636v18.106a.636.636,0,0,0,.636.636" transform="translate(-988.944 -1946.297)" fill="#91b3fa"/>
        <path id="Trazado_280368" data-name="Trazado 280368" d="M1011.609,2153.013h3.95a.322.322,0,0,0,.322-.322v-18.734a.322.322,0,0,0-.322-.322h-3.95a.322.322,0,0,0-.322.322v18.734a.322.322,0,0,0,.322.322" transform="translate(-922.494 -1946.297)" fill="#91b3fa"/>
      </g>
    </g>
    <g id="Grupo_261824" data-name="Grupo 261824" transform="translate(213.74 139.29)">
      <g id="Grupo_261823" data-name="Grupo 261823" clip-path="url(#clip-path-50)">
        <rect id="Rectángulo_326063" data-name="Rectángulo 326063" width="29.508" height="35.085" transform="matrix(0.929, -0.37, 0.37, 0.929, -10.268, 4.093)" fill="url(#linear-gradient-38)"/>
      </g>
    </g>
    <g id="Grupo_261826" data-name="Grupo 261826" transform="translate(188.216 135.414)">
      <g id="Grupo_261825" data-name="Grupo 261825" clip-path="url(#clip-path-51)">
        <rect id="Rectángulo_326064" data-name="Rectángulo 326064" width="35.338" height="36.218" transform="matrix(0.81, -0.586, 0.586, 0.81, -13.1, 9.477)" fill="url(#linear-gradient-39)"/>
      </g>
    </g>
    <g id="Grupo_261828" data-name="Grupo 261828" transform="translate(239.16 240.747)">
      <g id="Grupo_261827" data-name="Grupo 261827" clip-path="url(#clip-path-52)">
        <rect id="Rectángulo_326065" data-name="Rectángulo 326065" width="6.995" height="7.525" transform="matrix(0.375, -0.927, 0.927, 0.375, -1.834, 4.38)" fill="url(#linear-gradient-40)"/>
      </g>
    </g>
    <g id="Grupo_261830" data-name="Grupo 261830" transform="translate(212.483 208.992)">
      <g id="Grupo_261829" data-name="Grupo 261829" clip-path="url(#clip-path-53)">
        <rect id="Rectángulo_326066" data-name="Rectángulo 326066" width="36.721" height="11.461" transform="translate(-3.069 35.873) rotate(-85.11)" fill="url(#linear-gradient-41)"/>
      </g>
    </g>
    <g id="Grupo_261832" data-name="Grupo 261832" transform="translate(211.316 238.48)">
      <g id="Grupo_261831" data-name="Grupo 261831" clip-path="url(#clip-path-54)">
        <rect id="Rectángulo_326067" data-name="Rectángulo 326067" width="10.615" height="12.121" transform="translate(-2.809 6.331) rotate(-67.977)" fill="url(#linear-gradient-42)"/>
      </g>
    </g>
    <g id="Grupo_261834" data-name="Grupo 261834" transform="translate(225.454 209.176)">
      <g id="Grupo_261833" data-name="Grupo 261833" clip-path="url(#clip-path-55)">
        <rect id="Rectángulo_326068" data-name="Rectángulo 326068" width="36.338" height="21.565" transform="translate(-2.962 34.621) rotate(-85.11)" fill="url(#linear-gradient-43)"/>
      </g>
    </g>
    <g id="Grupo_261836" data-name="Grupo 261836" transform="translate(204.469 154.921)">
      <g id="Grupo_261835" data-name="Grupo 261835" clip-path="url(#clip-path-56)">
        <rect id="Rectángulo_326069" data-name="Rectángulo 326069" width="32.762" height="30.693" transform="matrix(0.547, -0.837, 0.837, 0.547, -12.932, 18.561)" fill="url(#linear-gradient-44)"/>
      </g>
    </g>
    <g id="Grupo_261838" data-name="Grupo 261838" transform="translate(209.193 178.464)">
      <g id="Grupo_261837" data-name="Grupo 261837" clip-path="url(#clip-path-57)">
        <rect id="Rectángulo_326070" data-name="Rectángulo 326070" width="41.471" height="37.452" transform="matrix(0.53, -0.848, 0.848, 0.53, -16.144, 25.136)" fill="url(#linear-gradient-45)"/>
      </g>
    </g>
    <g id="Grupo_261840" data-name="Grupo 261840" transform="translate(211.697 146.561)">
      <g id="Grupo_261839" data-name="Grupo 261839" clip-path="url(#clip-path-58)">
        <rect id="Rectángulo_326071" data-name="Rectángulo 326071" width="12.264" height="8.093" transform="translate(-1.602 11.265) rotate(-82.216)" fill="url(#linear-gradient-46)"/>
      </g>
    </g>
    <g id="Grupo_261842" data-name="Grupo 261842" transform="translate(213.515 160.849)">
      <g id="Grupo_261841" data-name="Grupo 261841" clip-path="url(#clip-path-59)">
        <rect id="Rectángulo_326072" data-name="Rectángulo 326072" width="30.825" height="36.156" transform="translate(-7.562 17.555) rotate(-67.299)" fill="url(#linear-gradient-47)"/>
      </g>
    </g>
    <g id="Grupo_261844" data-name="Grupo 261844" transform="translate(208.146 138.3)">
      <g id="Grupo_261843" data-name="Grupo 261843" clip-path="url(#clip-path-60)">
        <rect id="Rectángulo_326073" data-name="Rectángulo 326073" width="14.159" height="14.1" transform="translate(-4.01 10.158) rotate(-71.873)" fill="url(#linear-gradient-48)"/>
      </g>
    </g>
    <g id="Grupo_261846" data-name="Grupo 261846" transform="translate(208.943 134.907)">
      <g id="Grupo_261845" data-name="Grupo 261845" clip-path="url(#clip-path-61)">
        <rect id="Rectángulo_326074" data-name="Rectángulo 326074" width="18.641" height="18.789" transform="translate(-7.641 4.075) rotate(-32.939)" fill="url(#linear-gradient-49)"/>
      </g>
    </g>
    <g id="Grupo_261848" data-name="Grupo 261848" transform="translate(215.368 142.673)">
      <g id="Grupo_261847" data-name="Grupo 261847" clip-path="url(#clip-path-62)">
        <rect id="Rectángulo_326075" data-name="Rectángulo 326075" width="4.406" height="4.327" transform="translate(-1.042 3.182) rotate(-71.873)" fill="url(#linear-gradient-50)"/>
      </g>
    </g>
    <g id="Grupo_261850" data-name="Grupo 261850" transform="translate(182.363 129.217)">
      <g id="Grupo_261849" data-name="Grupo 261849" clip-path="url(#clip-path-63)">
        <rect id="Rectángulo_326076" data-name="Rectángulo 326076" width="12.894" height="13.268" transform="matrix(0.81, -0.586, 0.586, 0.81, -5.168, 3.505)" fill="url(#linear-gradient-51)"/>
      </g>
    </g>
    <g id="Grupo_261852" data-name="Grupo 261852" transform="translate(185.655 132.953)">
      <g id="Grupo_261851" data-name="Grupo 261851" clip-path="url(#clip-path-64)">
        <rect id="Rectángulo_326077" data-name="Rectángulo 326077" width="3.531" height="4.751" transform="translate(-0.015)" fill="url(#linear-gradient-52)"/>
      </g>
    </g>
    <g id="Grupo_261854" data-name="Grupo 261854" transform="translate(191.776 158.423)">
      <g id="Grupo_261853" data-name="Grupo 261853" clip-path="url(#clip-path-65)">
        <rect id="Rectángulo_326078" data-name="Rectángulo 326078" width="24.728" height="27.272" transform="translate(-4.61 18.761) rotate(-76.504)" fill="url(#linear-gradient-53)"/>
      </g>
    </g>
    <g id="Grupo_261856" data-name="Grupo 261856">
      <g id="Grupo_261855" data-name="Grupo 261855" clip-path="url(#clip-path)">
        <path id="Trazado_280385" data-name="Trazado 280385" d="M2262.2,1785.438l-3.656-.609a.262.262,0,0,0-.292.341l.362,1.1a.261.261,0,0,0,.214.178l3.519.47a.263.263,0,0,0,.29-.32l-.224-.957a.262.262,0,0,0-.212-.2" transform="translate(-2059.963 -1628.113)" fill="#91b3fa"/>
        <path id="Trazado_280386" data-name="Trazado 280386" d="M2247.226,1799.915l-.3-1.569a.363.363,0,0,0-.32-.293l-7.385-.749a.363.363,0,0,0-.389.445l.47,1.955a.362.362,0,0,0,.334.278l7.216.363a.363.363,0,0,0,.374-.431" transform="translate(-2042.247 -1639.495)" fill="#91b3fa"/>
      </g>
    </g>
    <g id="Grupo_261858" data-name="Grupo 261858" transform="translate(207.409 167.237)">
      <g id="Grupo_261857" data-name="Grupo 261857" clip-path="url(#clip-path-67)">
        <rect id="Rectángulo_326080" data-name="Rectángulo 326080" width="6.934" height="6.172" transform="translate(0 0)" fill="url(#linear-gradient-54)"/>
      </g>
    </g>
    <g id="Grupo_261860" data-name="Grupo 261860" transform="translate(53.463 172.016)">
      <g id="Grupo_261859" data-name="Grupo 261859" clip-path="url(#clip-path-68)">
        <rect id="Rectángulo_326081" data-name="Rectángulo 326081" width="42.597" height="43.556" transform="matrix(0.868, -0.496, 0.496, 0.868, -14.148, 8.076)" fill="url(#linear-gradient-55)"/>
      </g>
    </g>
    <g id="Grupo_261862" data-name="Grupo 261862" transform="translate(74.521 199.034)">
      <g id="Grupo_261861" data-name="Grupo 261861" clip-path="url(#clip-path-69)">
        <rect id="Rectángulo_326082" data-name="Rectángulo 326082" width="10.36" height="8.05" transform="translate(-0.1)" fill="url(#linear-gradient-56)"/>
      </g>
    </g>
    <g id="Grupo_261864" data-name="Grupo 261864" transform="translate(51.758 175.193)">
      <g id="Grupo_261863" data-name="Grupo 261863" clip-path="url(#clip-path-70)">
        <rect id="Rectángulo_326083" data-name="Rectángulo 326083" width="41.032" height="44.61" transform="matrix(0.848, -0.531, 0.531, 0.848, -16.512, 10.337)" fill="url(#linear-gradient-57)"/>
      </g>
    </g>
    <g id="Grupo_261866" data-name="Grupo 261866" transform="translate(68.999 204.594)">
      <g id="Grupo_261865" data-name="Grupo 261865" clip-path="url(#clip-path-71)">
        <rect id="Rectángulo_326084" data-name="Rectángulo 326084" width="8.88" height="9.643" transform="translate(-0.097)" fill="url(#linear-gradient-58)"/>
      </g>
    </g>
    <g id="Grupo_261868" data-name="Grupo 261868" transform="translate(33.738 172.893)">
      <g id="Grupo_261867" data-name="Grupo 261867" clip-path="url(#clip-path-72)">
        <rect id="Rectángulo_326085" data-name="Rectángulo 326085" width="32.872" height="34.115" transform="matrix(0.674, -0.739, 0.739, 0.674, -7.304, 7.689)" fill="url(#linear-gradient-59)"/>
      </g>
    </g>
    <g id="Grupo_261870" data-name="Grupo 261870" transform="translate(27.319 140.101)">
      <g id="Grupo_261869" data-name="Grupo 261869" clip-path="url(#clip-path-73)">
        <rect id="Rectángulo_326086" data-name="Rectángulo 326086" width="45.458" height="45.008" transform="translate(-18.032 19.591) rotate(-49.1)" fill="url(#linear-gradient-60)"/>
      </g>
    </g>
    <g id="Grupo_261872" data-name="Grupo 261872" transform="translate(34.065 150.357)">
      <g id="Grupo_261871" data-name="Grupo 261871" clip-path="url(#clip-path-74)">
        <rect id="Rectángulo_326087" data-name="Rectángulo 326087" width="28.3" height="29.514" transform="translate(-6.548 19.742) rotate(-71.65)" fill="url(#linear-gradient-61)"/>
      </g>
    </g>
    <g id="Grupo_261874" data-name="Grupo 261874" transform="translate(32.997 168.615)">
      <g id="Grupo_261873" data-name="Grupo 261873" clip-path="url(#clip-path-75)">
        <rect id="Rectángulo_326088" data-name="Rectángulo 326088" width="25.346" height="5.982" transform="translate(-0.152)" fill="url(#linear-gradient-62)"/>
      </g>
    </g>
    <g id="Grupo_261876" data-name="Grupo 261876" transform="translate(48.692 143.462)">
      <g id="Grupo_261875" data-name="Grupo 261875" clip-path="url(#clip-path-76)">
        <rect id="Rectángulo_326089" data-name="Rectángulo 326089" width="7.322" height="9.052" transform="translate(-0.552 0.035) rotate(-3.672)" fill="url(#linear-gradient-63)"/>
      </g>
    </g>
    <g id="Grupo_261878" data-name="Grupo 261878" transform="translate(50.864 138.462)">
      <g id="Grupo_261877" data-name="Grupo 261877" clip-path="url(#clip-path-77)">
        <rect id="Rectángulo_326090" data-name="Rectángulo 326090" width="10.977" height="11.347" transform="translate(-3.271 0.603) rotate(-14.676)" fill="url(#linear-gradient-64)"/>
      </g>
    </g>
    <g id="Grupo_261880" data-name="Grupo 261880" transform="translate(48.606 135.658)">
      <g id="Grupo_261879" data-name="Grupo 261879" clip-path="url(#clip-path-78)">
        <rect id="Rectángulo_326091" data-name="Rectángulo 326091" width="15.557" height="15.579" transform="translate(-5.908 7.182) rotate(-53.609)" fill="url(#linear-gradient-65)"/>
      </g>
    </g>
    <g id="Grupo_261882" data-name="Grupo 261882" transform="translate(50.53 141.854)">
      <g id="Grupo_261881" data-name="Grupo 261881" clip-path="url(#clip-path-79)">
        <rect id="Rectángulo_326092" data-name="Rectángulo 326092" width="3.374" height="3.521" transform="translate(-1.502 0.188) rotate(-14.676)" fill="url(#linear-gradient-66)"/>
      </g>
    </g>
    <g id="Grupo_261884" data-name="Grupo 261884" transform="translate(45.724 174.099)">
      <g id="Grupo_261883" data-name="Grupo 261883" clip-path="url(#clip-path-80)">
        <rect id="Rectángulo_326093" data-name="Rectángulo 326093" width="6.963" height="17.398" transform="matrix(0.312, -0.95, 0.95, 0.312, -0.439, 1.338)" fill="url(#linear-gradient-67)"/>
      </g>
    </g>
    <g id="Grupo_261886" data-name="Grupo 261886" transform="translate(55.25 160.728)">
      <g id="Grupo_261885" data-name="Grupo 261885" clip-path="url(#clip-path-81)">
        <rect id="Rectángulo_326094" data-name="Rectángulo 326094" width="16.766" height="24.725" transform="translate(-1.24 14.739) rotate(-85.191)" fill="url(#linear-gradient-68)"/>
      </g>
    </g>
    <g id="Grupo_261909" data-name="Grupo 261909">
      <g id="Grupo_261908" data-name="Grupo 261908" clip-path="url(#clip-path)">
        <path id="Trazado_280402" data-name="Trazado 280402" d="M772.213,1894.377c-.3.917-.077,1.808.487,1.99s1.261-.415,1.556-1.332.077-1.808-.487-1.99-1.261.415-1.556,1.332" transform="translate(-704.291 -1726.802)" fill="#7d97f4"/>
        <path id="Trazado_280403" data-name="Trazado 280403" d="M329.641,27.715c0,10.916,10.238,19.764,21.154,19.764a19.764,19.764,0,1,0,0-39.528c-10.916,0-21.154,8.849-21.154,19.764" transform="translate(-300.698 -7.253)" fill="#91b3fa"/>
        <g id="Grupo_261889" data-name="Grupo 261889" transform="translate(33.267 4.244)" opacity="0.65">
          <g id="Grupo_261888" data-name="Grupo 261888">
            <g id="Grupo_261887" data-name="Grupo 261887" clip-path="url(#clip-path-83)">
              <path id="Trazado_280404" data-name="Trazado 280404" d="M380.059,58.494a16.208,16.208,0,0,1,30.922,2.833,16.256,16.256,0,0,1,0,6.471,16.213,16.213,0,1,1-30.922-9.3m1.266,8.734a12.857,12.857,0,0,0,.831,2.553,13.31,13.31,0,0,0,3.154,4.369,14.115,14.115,0,0,0,4.654,2.824,14.5,14.5,0,0,0,5.38.867,14.213,14.213,0,0,0,9.619-4.087,13.3,13.3,0,0,0,2.875-4.247,12.739,12.739,0,0,0,0-9.889,13.3,13.3,0,0,0-2.875-4.247,14.213,14.213,0,0,0-9.619-4.088,14.5,14.5,0,0,0-5.38.867,14.113,14.113,0,0,0-4.654,2.824,13.31,13.31,0,0,0-3.154,4.369,12.86,12.86,0,0,0-.831,2.553,12.741,12.741,0,0,0,0,5.332" transform="translate(-378.881 -48.344)" fill="#fff"/>
            </g>
          </g>
        </g>
        <g id="Grupo_261892" data-name="Grupo 261892" transform="translate(39.058 12.665)" opacity="0.84">
          <g id="Grupo_261891" data-name="Grupo 261891">
            <g id="Grupo_261890" data-name="Grupo 261890" clip-path="url(#clip-path-84)">
              <path id="Trazado_280405" data-name="Trazado 280405" d="M450.644,144.241a5.581,5.581,0,0,1,4.542,2.469,5.582,5.582,0,0,1,4.542-2.469c3.2,0,5.8,2.922,5.8,6.527a3.766,3.766,0,0,1-.133.937h-1.258l-3.005-3.292a.8.8,0,0,0-1.314.208l-2.432,5.35-2.476-4.48a.8.8,0,0,0-1.432.076l-1.03,2.446h-2.844a.8.8,0,0,0,0,1.594h3.373a.8.8,0,0,0,.735-.488l.6-1.42,2.448,4.43a.8.8,0,0,0,.7.412h.031a.8.8,0,0,0,.694-.467l2.588-5.694,2.428,2.659a.8.8,0,0,0,.589.26h.969a28.362,28.362,0,0,1-8.4,8.9,1.994,1.994,0,0,1-2.289-.1c-3.107-2.381-9.226-8.158-9.226-11.331,0-3.6,2.6-6.527,5.8-6.527" transform="translate(-444.842 -144.241)" fill="#fff"/>
            </g>
          </g>
        </g>
        <path id="Trazado_280406" data-name="Trazado 280406" d="M69.266,529.928c0,10.915,10.238,19.764,21.154,19.764a19.764,19.764,0,0,0,0-39.529c-10.916,0-21.154,8.849-21.154,19.764" transform="translate(-63.184 -465.37)" fill="#91b3fa"/>
        <g id="Grupo_261895" data-name="Grupo 261895" transform="translate(10.405 48.341)" opacity="0.65">
          <g id="Grupo_261894" data-name="Grupo 261894">
            <g id="Grupo_261893" data-name="Grupo 261893" clip-path="url(#clip-path-85)">
              <path id="Trazado_280407" data-name="Trazado 280407" d="M119.684,560.707a16.208,16.208,0,0,1,30.922,2.833,16.253,16.253,0,0,1,0,6.47,16.213,16.213,0,1,1-30.922-9.3m1.266,8.734a12.855,12.855,0,0,0,.831,2.553,13.309,13.309,0,0,0,3.154,4.369,14.115,14.115,0,0,0,4.654,2.824,14.5,14.5,0,0,0,5.38.867,14.213,14.213,0,0,0,9.619-4.088,13.3,13.3,0,0,0,2.875-4.247,12.738,12.738,0,0,0,0-9.889,13.294,13.294,0,0,0-2.875-4.247,14.213,14.213,0,0,0-9.619-4.088,14.5,14.5,0,0,0-5.38.867,14.112,14.112,0,0,0-4.654,2.824,13.309,13.309,0,0,0-3.154,4.369,12.859,12.859,0,0,0-.831,2.553,12.742,12.742,0,0,0,0,5.332" transform="translate(-118.506 -550.558)" fill="#fff"/>
            </g>
          </g>
        </g>
        <g id="Grupo_261898" data-name="Grupo 261898" transform="translate(15.125 57.833)" opacity="0.89">
          <g id="Grupo_261897" data-name="Grupo 261897">
            <g id="Grupo_261896" data-name="Grupo 261896" clip-path="url(#clip-path-86)">
              <path id="Trazado_280408" data-name="Trazado 280408" d="M369.181,673.015h3.281a.22.22,0,0,0,.219-.22V658.886a.22.22,0,0,0-.219-.219h-3.281a.219.219,0,0,0-.22.219V672.8a.219.219,0,0,0,.22.22" transform="translate(-351.69 -658.667)" fill="#fff"/>
              <path id="Trazado_280409" data-name="Trazado 280409" d="M418.043,716.672h0a.664.664,0,0,0,.664-.664v-3.72a.664.664,0,1,0-1.328,0v3.72a.664.664,0,0,0,.664.664" transform="translate(-395.857 -706.974)" fill="#fff"/>
              <path id="Trazado_280410" data-name="Trazado 280410" d="M196.944,673.015h-3.281a.219.219,0,0,1-.219-.22V658.886a.22.22,0,0,1,.219-.219h3.281a.22.22,0,0,1,.22.219V672.8a.22.22,0,0,1-.22.22" transform="translate(-191.584 -658.667)" fill="#fff"/>
              <path id="Trazado_280411" data-name="Trazado 280411" d="M172.926,716.672h0a.664.664,0,0,1-.664-.664v-3.72a.664.664,0,1,1,1.328,0v3.72a.664.664,0,0,1-.664.664" transform="translate(-172.262 -706.974)" fill="#fff"/>
              <path id="Trazado_280412" data-name="Trazado 280412" d="M242.058,730.136H252.3a.2.2,0,0,0,.195-.195v-1.63a.2.2,0,0,0-.195-.195H242.058a.2.2,0,0,0-.195.195v1.63a.2.2,0,0,0,.195.195" transform="translate(-235.752 -722.019)" fill="#fff"/>
            </g>
          </g>
        </g>
        <path id="Trazado_280413" data-name="Trazado 280413" d="M299.379,1065.681c0,10.916,10.238,19.764,21.154,19.764a19.764,19.764,0,1,0,0-39.528c-10.916,0-21.154,8.849-21.154,19.764" transform="translate(-273.093 -954.083)" fill="#91b3fa"/>
        <g id="Grupo_261901" data-name="Grupo 261901" transform="translate(30.61 95.381)" opacity="0.65">
          <g id="Grupo_261900" data-name="Grupo 261900">
            <g id="Grupo_261899" data-name="Grupo 261899" clip-path="url(#clip-path-85)">
              <path id="Trazado_280414" data-name="Trazado 280414" d="M349.8,1096.461a16.208,16.208,0,0,1,30.922,2.833,16.254,16.254,0,0,1,0,6.47,16.213,16.213,0,1,1-30.922-9.3m1.266,8.734a12.852,12.852,0,0,0,.831,2.553,13.308,13.308,0,0,0,3.154,4.369,14.112,14.112,0,0,0,4.654,2.824,14.5,14.5,0,0,0,5.38.867,14.213,14.213,0,0,0,9.619-4.088,13.3,13.3,0,0,0,2.875-4.247,12.739,12.739,0,0,0,0-9.889,13.3,13.3,0,0,0-2.875-4.247,14.213,14.213,0,0,0-9.619-4.088,14.5,14.5,0,0,0-5.38.867,14.112,14.112,0,0,0-4.654,2.824,13.311,13.311,0,0,0-3.154,4.369,12.861,12.861,0,0,0-.831,2.553,12.741,12.741,0,0,0,0,5.332" transform="translate(-348.62 -1086.312)" fill="#fff"/>
            </g>
          </g>
        </g>
        <g id="Grupo_261904" data-name="Grupo 261904" transform="translate(46.482 102.252)" opacity="0.65">
          <g id="Grupo_261903" data-name="Grupo 261903">
            <g id="Grupo_261902" data-name="Grupo 261902" clip-path="url(#clip-path-88)">
              <path id="Trazado_280415" data-name="Trazado 280415" d="M572.289,1206.64a.732.732,0,1,1-.541.147.733.733,0,0,1,.541-.147" transform="translate(-567.771 -1202.941)" fill="#fff"/>
              <path id="Trazado_280416" data-name="Trazado 280416" d="M530.05,1166.756l.452.7a3.638,3.638,0,0,0-.317,1.135l-.751.365a.069.069,0,0,0-.038.07l.12.994a.069.069,0,0,0,.054.059l.816.176a3.639,3.639,0,0,0,.578,1.027l-.273.788a.069.069,0,0,0,.022.077l.788.618a.069.069,0,0,0,.079,0l.7-.453a3.634,3.634,0,0,0,1.135.317l.365.751a.069.069,0,0,0,.07.038l.994-.12a.069.069,0,0,0,.059-.054l.176-.816a3.636,3.636,0,0,0,1.027-.578l.788.273a.069.069,0,0,0,.076-.022l.618-.788a.069.069,0,0,0,0-.079l-.453-.7a3.634,3.634,0,0,0,.317-1.135l.751-.365a.069.069,0,0,0,.038-.07l-.12-.994a.069.069,0,0,0-.054-.059l-.816-.176a3.639,3.639,0,0,0-.578-1.027l.273-.789a.068.068,0,0,0-.023-.076l-.788-.618a.069.069,0,0,0-.08,0l-.7.453a3.639,3.639,0,0,0-1.135-.317l-.365-.751a.069.069,0,0,0-.07-.038l-.994.12a.069.069,0,0,0-.059.054l-.176.816a3.633,3.633,0,0,0-1.027.578l-.788-.273a.068.068,0,0,0-.076.022l-.618.788a.068.068,0,0,0,0,.079m1.47,1.134a.143.143,0,0,1,.007-.018l.021-.042.005-.01.014-.026h0a2.573,2.573,0,0,1,.228-.355l.023-.03a2.572,2.572,0,1,1-.379,2.51.157.157,0,0,1,.293-.112,2.26,2.26,0,1,0,.332-2.2,2.29,2.29,0,0,0-.256.408.157.157,0,0,1-.289-.119m1.661.28a1.046,1.046,0,1,1-.188,1.468,1.039,1.039,0,0,1,.188-1.468" transform="translate(-529.396 -1164.571)" fill="#fff"/>
            </g>
          </g>
        </g>
        <g id="Grupo_261907" data-name="Grupo 261907" transform="translate(36.757 108.119)" opacity="0.65">
          <g id="Grupo_261906" data-name="Grupo 261906">
            <g id="Grupo_261905" data-name="Grupo 261905" clip-path="url(#clip-path-89)">
              <path id="Trazado_280417" data-name="Trazado 280417" d="M484.712,1296.553a1.181,1.181,0,0,1,.237-.024,1.17,1.17,0,1,1-.237.024" transform="translate(-478.059 -1290.81)" fill="#fff"/>
              <path id="Trazado_280418" data-name="Trazado 280418" d="M418.672,1236.84l1.044.824a5.8,5.8,0,0,0,.107,1.875l-.945.938a.109.109,0,0,0-.021.125l.693,1.438a.109.109,0,0,0,.111.061l1.322-.156a5.8,5.8,0,0,0,1.4,1.252l-.005,1.33a.11.11,0,0,0,.073.1l1.507.526a.109.109,0,0,0,.122-.035l.824-1.044a5.8,5.8,0,0,0,1.876-.107l.937.945a.109.109,0,0,0,.125.021l1.438-.693a.109.109,0,0,0,.061-.111l-.156-1.322a5.793,5.793,0,0,0,1.251-1.4l1.33.005a.11.11,0,0,0,.1-.073l.527-1.507a.11.11,0,0,0-.035-.122l-1.044-.824a5.8,5.8,0,0,0-.107-1.875l.945-.937a.11.11,0,0,0,.021-.125l-.693-1.438a.109.109,0,0,0-.111-.061l-1.322.156a5.8,5.8,0,0,0-1.4-1.251l.005-1.33a.109.109,0,0,0-.073-.1l-1.507-.526a.109.109,0,0,0-.122.036l-.824,1.044a5.8,5.8,0,0,0-1.876.107l-.937-.945a.109.109,0,0,0-.125-.021l-1.438.694a.109.109,0,0,0-.061.111l.156,1.322a5.8,5.8,0,0,0-1.252,1.4l-1.33-.005a.11.11,0,0,0-.1.073l-.527,1.507a.109.109,0,0,0,.035.122m2.8.952a.248.248,0,0,1,0-.031q0-.037.01-.074l0-.017.007-.047h0a4.139,4.139,0,0,1,.16-.653l.019-.057a4.1,4.1,0,1,1,.723,3.982.25.25,0,0,1,.384-.32,3.6,3.6,0,1,0-.635-3.5,3.636,3.636,0,0,0-.175.747.25.25,0,0,1-.5-.031m2.651-.435a1.667,1.667,0,1,1,.473,2.311,1.657,1.657,0,0,1-.473-2.311" transform="translate(-418.63 -1231.388)" fill="#fff"/>
            </g>
          </g>
        </g>
        <path id="Trazado_280419" data-name="Trazado 280419" d="M708.033,413.651l.407.69a.182.182,0,1,0,.313-.185v0l0,0-.409-.679,0,0a.178.178,0,0,0-.306.182" transform="translate(-645.844 -377.087)" fill="#fff"/>
        <path id="Trazado_280420" data-name="Trazado 280420" d="M724.073,439.107l.458.658a.194.194,0,1,0,.319-.222h0l0,0-.459-.647,0,0a.191.191,0,0,0-.312.219" transform="translate(-660.466 -400.279)" fill="#fff"/>
        <path id="Trazado_280421" data-name="Trazado 280421" d="M741.939,463.315l.5.624a.207.207,0,0,0,.323-.259v0l0,0-.5-.613,0,0a.2.2,0,0,0-.316.256" transform="translate(-676.754 -422.333)" fill="#fff"/>
        <path id="Trazado_280422" data-name="Trazado 280422" d="M761.379,486.246l.54.591a.22.22,0,1,0,.324-.3h0l0,0-.54-.58,0,0a.216.216,0,0,0-.318.293" transform="translate(-694.477 -443.223)" fill="#fff"/>
        <path id="Trazado_280423" data-name="Trazado 280423" d="M782.214,507.94l.574.559a.232.232,0,0,0,.324-.333h0l0,0-.574-.548,0,0a.229.229,0,0,0-.317.329" transform="translate(-713.47 -462.983)" fill="#fff"/>
        <path id="Trazado_280424" data-name="Trazado 280424" d="M804.262,528.408l.6.527a.245.245,0,0,0,.322-.369l0,0,0,0-.6-.516,0,0a.241.241,0,0,0-.315.365" transform="translate(-733.57 -481.627)" fill="#fff"/>
        <path id="Trazado_280425" data-name="Trazado 280425" d="M827.373,547.673l.629.5a.258.258,0,0,0,.319-.4h0l0,0-.628-.485,0,0a.254.254,0,0,0-.312.4" transform="translate(-754.64 -499.173)" fill="#fff"/>
        <path id="Trazado_280426" data-name="Trazado 280426" d="M851.419,565.758l.652.465a.27.27,0,0,0,.314-.44l0,0,0,0-.651-.454,0,0a.266.266,0,0,0-.307.436" transform="translate(-776.561 -515.642)" fill="#fff"/>
        <path id="Trazado_280427" data-name="Trazado 280427" d="M876.3,582.686l.673.435a.283.283,0,1,0,.307-.475h0l0,0-.671-.424,0,0a.279.279,0,0,0-.3.47" transform="translate(-799.238 -531.056)" fill="#fff"/>
        <path id="Trazado_280428" data-name="Trazado 280428" d="M901.915,598.472l.691.4a.3.3,0,0,0,.3-.51h0l0,0-.688-.394,0,0a.292.292,0,0,0-.292.505" transform="translate(-822.593 -545.429)" fill="#fff"/>
        <path id="Trazado_280429" data-name="Trazado 280429" d="M928.2,613.125l.708.375a.308.308,0,1,0,.288-.545h0l0,0-.7-.365,0,0a.3.3,0,0,0-.282.539" transform="translate(-846.554 -558.768)" fill="#fff"/>
        <path id="Trazado_280430" data-name="Trazado 280430" d="M955.089,626.647l.723.345a.321.321,0,1,0,.276-.579h0l0,0-.719-.335,0,0a.317.317,0,0,0-.27.574" transform="translate(-871.065 -571.075)" fill="#fff"/>
        <path id="Trazado_280431" data-name="Trazado 280431" d="M982.527,639.026l.737.314a.333.333,0,1,0,.262-.613h0l0,0-.732-.3,0,0a.33.33,0,0,0-.256.608" transform="translate(-896.076 -582.34)" fill="#fff"/>
        <path id="Trazado_280432" data-name="Trazado 280432" d="M1010.464,650.242l.75.283a.346.346,0,1,0,.245-.648h-.007l-.744-.273h0a.342.342,0,0,0-.239.642" transform="translate(-921.541 -592.545)" fill="#fff"/>
        <path id="Trazado_280433" data-name="Trazado 280433" d="M1038.857,660.26l.762.251a.359.359,0,1,0,.224-.681h-.008l-.755-.241h0a.355.355,0,0,0-.219.675" transform="translate(-947.42 -601.656)" fill="#fff"/>
        <path id="Trazado_280434" data-name="Trazado 280434" d="M1067.664,669.033l.772.217a.371.371,0,1,0,.2-.715h-.008l-.765-.207h0a.368.368,0,0,0-.2.709" transform="translate(-973.676 -609.632)" fill="#fff"/>
        <path id="Trazado_280435" data-name="Trazado 280435" d="M1096.845,676.489l.782.181a.384.384,0,0,0,.173-.748h-.009l-.773-.171h-.005a.38.38,0,0,0-.168.742" transform="translate(-1000.27 -616.407)" fill="#fff"/>
        <path id="Trazado_280436" data-name="Trazado 280436" d="M1126.357,682.539l.791.142a.4.4,0,0,0,.14-.781h-.01l-.78-.132h-.006a.393.393,0,0,0-.135.774" transform="translate(-1027.165 -621.899)" fill="#fff"/>
        <path id="Trazado_280437" data-name="Trazado 280437" d="M591.482,726.968l.8,0a.288.288,0,0,0,0-.575h0l-.8.007a.286.286,0,0,0,0,.571" transform="translate(-539.287 -662.611)" fill="#fff"/>
        <path id="Trazado_280438" data-name="Trazado 280438" d="M621.651,726.784h.8a.294.294,0,1,0,0-.588h0l-.8,0a.292.292,0,0,0,0,.584" transform="translate(-566.802 -662.434)" fill="#fff"/>
        <path id="Trazado_280439" data-name="Trazado 280439" d="M651.84,726.682l.8,0a.3.3,0,1,0,0-.6h0l-.8,0a.3.3,0,0,0,0,.6" transform="translate(-594.335 -662.332)" fill="#fff"/>
        <path id="Trazado_280440" data-name="Trazado 280440" d="M682.034,726.657l.8,0a.306.306,0,1,0,0-.612h-.8a.3.3,0,0,0,0,.609" transform="translate(-621.873 -662.299)" fill="#fff"/>
        <path id="Trazado_280441" data-name="Trazado 280441" d="M712.225,726.684l.8.005a.312.312,0,1,0,0-.625h-.8a.311.311,0,0,0,0,.621" transform="translate(-649.408 -662.313)" fill="#fff"/>
        <path id="Trazado_280442" data-name="Trazado 280442" d="M742.419,726.775l.8.007a.319.319,0,0,0,.006-.637h0l-.8,0a.317.317,0,0,0,0,.634" transform="translate(-676.946 -662.384)" fill="#fff"/>
        <path id="Trazado_280443" data-name="Trazado 280443" d="M772.612,726.929l.8.008a.325.325,0,0,0,.007-.65h0l-.8,0a.323.323,0,0,0-.005.646" transform="translate(-704.483 -662.514)" fill="#fff"/>
        <path id="Trazado_280444" data-name="Trazado 280444" d="M802.805,727.145l.8.01a.331.331,0,1,0,.009-.662h0l-.8-.006a.329.329,0,0,0-.007.658" transform="translate(-732.02 -662.7)" fill="#fff"/>
        <path id="Trazado_280445" data-name="Trazado 280445" d="M833,727.421l.8.012a.337.337,0,1,0,.01-.674h0l-.8-.008a.335.335,0,0,0-.008.671" transform="translate(-759.557 -662.939)" fill="#fff"/>
        <path id="Trazado_280446" data-name="Trazado 280446" d="M863.19,727.759l.8.013a.343.343,0,0,0,.012-.687h0l-.8-.01a.342.342,0,0,0-.01.683" transform="translate(-787.093 -663.237)" fill="#fff"/>
        <path id="Trazado_280447" data-name="Trazado 280447" d="M893.384,728.158l.8.015a.35.35,0,1,0,.014-.7h0l-.8-.011a.348.348,0,0,0-.011.7" transform="translate(-814.631 -663.59)" fill="#fff"/>
        <path id="Trazado_280448" data-name="Trazado 280448" d="M923.579,728.621l.8.017a.356.356,0,1,0,.015-.712h0l-.8-.013a.354.354,0,0,0-.013.708" transform="translate(-842.17 -664.001)" fill="#fff"/>
        <path id="Trazado_280449" data-name="Trazado 280449" d="M953.774,729.152l.8.019a.362.362,0,1,0,.017-.724h0l-.8-.015a.36.36,0,0,0-.015.72" transform="translate(-869.709 -664.473)" fill="#fff"/>
        <path id="Trazado_280450" data-name="Trazado 280450" d="M983.971,729.754l.8.02a.368.368,0,1,0,.02-.737h0l-.8-.017a.366.366,0,0,0-.017.733" transform="translate(-897.25 -665.011)" fill="#fff"/>
        <path id="Trazado_280451" data-name="Trazado 280451" d="M1014.168,730.432l.8.023a.375.375,0,0,0,.022-.749h0l-.8-.019a.373.373,0,0,0-.019.745" transform="translate(-924.791 -665.618)" fill="#fff"/>
        <path id="Trazado_280452" data-name="Trazado 280452" d="M1044.363,731.193l.8.025a.381.381,0,0,0,.025-.761h0l-.8-.021a.379.379,0,0,0-.022.758" transform="translate(-952.33 -666.301)" fill="#fff"/>
        <path id="Trazado_280453" data-name="Trazado 280453" d="M1074.554,732.048l.8.028a.387.387,0,0,0,.028-.773h0l-.8-.024a.385.385,0,0,0-.025.77" transform="translate(-979.866 -667.07)" fill="#fff"/>
        <path id="Trazado_280454" data-name="Trazado 280454" d="M1104.74,733.01l.8.031a.393.393,0,1,0,.031-.786h0l-.8-.027a.391.391,0,0,0-.028.782" transform="translate(-1007.398 -667.936)" fill="#fff"/>
        <path id="Trazado_280455" data-name="Trazado 280455" d="M1134.916,734.094l.432.018a.4.4,0,0,0,.035-.8h0l-.432-.016a.4.4,0,0,0-.032.794" transform="translate(-1034.92 -668.914)" fill="#fff"/>
        <path id="Trazado_280456" data-name="Trazado 280456" d="M757.74,1092.074l.5-.615v0a.215.215,0,1,0-.333-.272h0l-.5.623a.212.212,0,0,0,.329.266Z" transform="translate(-690.865 -995.304)" fill="#fff"/>
        <path id="Trazado_280457" data-name="Trazado 280457" d="M776.946,1068.85l.523-.6v0a.227.227,0,1,0-.342-.3v0l-.521.606a.223.223,0,0,0,.338.292Z" transform="translate(-708.37 -974.112)" fill="#fff"/>
        <path id="Trazado_280458" data-name="Trazado 280458" d="M796.9,1046.275l.542-.581,0,0a.238.238,0,0,0-.349-.325h0l-.54.589a.235.235,0,0,0,.345.319Z" transform="translate(-726.558 -953.512)" fill="#fff"/>
        <path id="Trazado_280459" data-name="Trazado 280459" d="M817.577,1024.368l.561-.563,0,0a.25.25,0,1,0-.355-.353l0,0-.559.572a.247.247,0,0,0,.351.346Z" transform="translate(-745.406 -933.521)" fill="#fff"/>
        <path id="Trazado_280460" data-name="Trazado 280460" d="M838.952,1003.147l.578-.545,0,0a.262.262,0,0,0-.359-.381l0,0-.577.553a.258.258,0,0,0,.356.375Z" transform="translate(-764.891 -914.157)" fill="#fff"/>
        <path id="Trazado_280461" data-name="Trazado 280461" d="M861,982.632l.6-.526,0,0a.274.274,0,0,0-.362-.41l0,0-.595.535a.27.27,0,0,0,.359.4Z" transform="translate(-784.99 -895.437)" fill="#fff"/>
        <path id="Trazado_280462" data-name="Trazado 280462" d="M883.693,962.843l.612-.507,0,0a.285.285,0,1,0-.364-.44l0,0-.611.516a.282.282,0,0,0,.361.433Z" transform="translate(-805.68 -877.378)" fill="#fff"/>
        <path id="Trazado_280463" data-name="Trazado 280463" d="M907.008,943.8l.628-.487,0,0a.3.3,0,1,0-.364-.469l0,0-.628.5a.294.294,0,0,0,.362.462Z" transform="translate(-826.936 -859.997)" fill="#fff"/>
        <path id="Trazado_280464" data-name="Trazado 280464" d="M930.921,925.509l.643-.467,0,0a.309.309,0,0,0-.363-.5l0,0-.643.476a.305.305,0,0,0,.361.492Z" transform="translate(-848.74 -843.31)" fill="#fff"/>
        <path id="Trazado_280465" data-name="Trazado 280465" d="M955.406,908l.657-.446,0,0a.32.32,0,0,0-.36-.53l0,0-.658.455a.317.317,0,0,0,.358.523Z" transform="translate(-871.065 -827.335)" fill="#fff"/>
        <path id="Trazado_280466" data-name="Trazado 280466" d="M980.441,891.291l.671-.425,0,0a.332.332,0,1,0-.355-.561l0,0-.673.434a.329.329,0,0,0,.354.554Z" transform="translate(-893.893 -812.086)" fill="#fff"/>
        <path id="Trazado_280467" data-name="Trazado 280467" d="M1006,875.4l.684-.4,0,0a.344.344,0,0,0-.349-.593l0,0-.686.412a.34.34,0,0,0,.348.585Z" transform="translate(-917.196 -797.583)" fill="#fff"/>
        <path id="Trazado_280468" data-name="Trazado 280468" d="M1032.049,860.341l.7-.381,0,0a.356.356,0,1,0-.341-.624h0l-.7.39a.352.352,0,0,0,.34.616Z" transform="translate(-940.954 -783.843)" fill="#fff"/>
        <path id="Trazado_280469" data-name="Trazado 280469" d="M1058.573,846.137l.708-.358,0,0a.367.367,0,1,0-.331-.655h0l-.711.368a.364.364,0,0,0,.331.648Z" transform="translate(-965.143 -770.882)" fill="#fff"/>
        <path id="Trazado_280470" data-name="Trazado 280470" d="M1085.544,832.8l.719-.335,0,0a.379.379,0,1,0-.32-.687h0l-.723.344a.375.375,0,0,0,.32.679Z" transform="translate(-989.741 -758.715)" fill="#fff"/>
        <path id="Trazado_280471" data-name="Trazado 280471" d="M1112.938,820.362l.73-.311h0a.391.391,0,1,0-.307-.719h0l-.734.321a.387.387,0,0,0,.307.711Z" transform="translate(-1014.725 -747.363)" fill="#fff"/>
      </g>
    </g>
  </g>
</svg>
