<svg xmlns="http://www.w3.org/2000/svg" xmlns:xlink="http://www.w3.org/1999/xlink" width="295" height="391" viewBox="0 0 295 391">
  <defs>
    <clipPath id="clip-path">
      <rect id="Rectángulo_323862" data-name="Rectángulo 323862" width="191.767" height="381.05" fill="none"/>
    </clipPath>
    <clipPath id="clip-path-3">
      <rect id="Rectángulo_323851" data-name="Rectángulo 323851" width="158.435" height="150.014" fill="none"/>
    </clipPath>
    <clipPath id="clip-path-4">
      <rect id="Rectángulo_323852" data-name="Rectángulo 323852" width="130.11" height="14.131" fill="none"/>
    </clipPath>
    <clipPath id="clip-path-5">
      <rect id="Rectángulo_323853" data-name="Rectángulo 323853" width="12.774" height="12.886" fill="none"/>
    </clipPath>
    <clipPath id="clip-path-6">
      <rect id="Rectángulo_323854" data-name="Rectángulo 323854" width="6.231" height="12.772" fill="none"/>
    </clipPath>
    <clipPath id="clip-path-7">
      <path id="Trazado_276121" data-name="Trazado 276121" d="M118.533,87.559c-.42.624-3.951,4.591-10.831,4.65-9.03.077-12.65-4.121-12.65-4.121L93.683,87.9h0c-18.435-3.2-55.973,45.844-55.973,45.844l31.6,5.93c-.7,5.978-1.315,11.543-2.325,18.122-3.451,22.468,3.235,28.211,6.277,27.358,0,0,36.092,9.57,46.731,8.147,4.1-.548,14.213-5.065,14.213-5.065s6.87-13.267,6.559-26.352c-.137-5.795-.441-12.272-1.028-18.9l27.635-4.52c-16.1-46.2-36.7-51.327-45.061-51.327a14.357,14.357,0,0,0-3.773.418" transform="translate(-37.709 -87.141)" fill="none"/>
    </clipPath>
    <clipPath id="clip-path-9">
      <rect id="Rectángulo_323856" data-name="Rectángulo 323856" width="68.488" height="23.066" fill="none"/>
    </clipPath>
    <clipPath id="clip-path-10">
      <rect id="Rectángulo_323857" data-name="Rectángulo 323857" width="2.451" height="2.458" fill="none"/>
    </clipPath>
    <clipPath id="clip-path-11">
      <rect id="Rectángulo_323858" data-name="Rectángulo 323858" width="7.343" height="7.289" fill="none"/>
    </clipPath>
    <clipPath id="clip-path-12">
      <rect id="Rectángulo_323859" data-name="Rectángulo 323859" width="4.42" height="10.011" fill="none"/>
    </clipPath>
    <clipPath id="clip-path-13">
      <rect id="Rectángulo_323860" data-name="Rectángulo 323860" width="2.4" height="8.947" fill="none"/>
    </clipPath>
  </defs>
  <g id="Grupo_262335" data-name="Grupo 262335" transform="translate(-180 -377.811)">
    <rect id="Rectángulo_326285" data-name="Rectángulo 326285" width="295" height="391" transform="translate(180 377.811)" fill="#fff"/>
    <g id="Grupo_257737" data-name="Grupo 257737" transform="translate(225.5 384.761)">
      <g id="Grupo_257736" data-name="Grupo 257736" clip-path="url(#clip-path)">
        <g id="Grupo_257716" data-name="Grupo 257716">
          <g id="Grupo_257715" data-name="Grupo 257715" clip-path="url(#clip-path)">
            <g id="Grupo_257705" data-name="Grupo 257705" transform="translate(26.132)" opacity="0.35">
              <g id="Grupo_257704" data-name="Grupo 257704">
                <g id="Grupo_257703" data-name="Grupo 257703" clip-path="url(#clip-path-3)">
                  <path id="Trazado_276090" data-name="Trazado 276090" d="M185.45,68.824c0,1.144-.163,3.981-.45,8.512a79.015,79.015,0,0,1-2.906,15.713,98.558,98.558,0,0,1-7.692,18.932,65.437,65.437,0,0,1-14.608,18.508,76.4,76.4,0,0,1-23.855,14.019q-14.424,5.527-35.108,5.506a106.006,106.006,0,0,1-30.157-4.023,63.518,63.518,0,0,1-23.2-12.325A56.028,56.028,0,0,1,32.416,112.4q-5.4-12.96-5.4-31.214A96.069,96.069,0,0,1,31.761,51.2,74.186,74.186,0,0,1,46.368,25.074c6.589-7.666,15.14-13.722,25.656-18.254S94.98,0,109.382,0q37.379,0,56.713,17.83Q185.43,35.683,185.45,68.824" transform="translate(-27.014 0)" fill="#efdbb9"/>
                </g>
              </g>
            </g>
            <g id="Grupo_257708" data-name="Grupo 257708" transform="translate(0 366.919)" opacity="0.04" style="mix-blend-mode: darken;isolation: isolate">
              <g id="Grupo_257707" data-name="Grupo 257707">
                <g id="Grupo_257706" data-name="Grupo 257706" clip-path="url(#clip-path-4)">
                  <path id="Trazado_276091" data-name="Trazado 276091" d="M129.382,387.35q.379-1.379.728-2.764c-6.1-.346-12.207-1.329-18.284-2.227A590.2,590.2,0,0,0,8.812,376.234c-2.223.063-4.565.181-6.456,1.631s-3.063,4.723-1.881,7.057c.871,1.721,2.625,2.336,4.228,2.76a73.133,73.133,0,0,0,30.492,1.5c4.21-.686,8.4-1.744,12.65-1.744,4.319,0,8.581,1.093,12.867,1.757,22.739,3.523,46.17-5.022,68.67-1.843" transform="translate(0 -375.999)"/>
                </g>
              </g>
            </g>
            <path id="Trazado_276092" data-name="Trazado 276092" d="M114.081,78.151l23.649-.908s3.815-16.342-2.86-19.973-.763-20.879-18.119-25.056q-.464-.111-.924-.207C101.5,29.039,91.1,45.581,99.583,57.6Z" transform="translate(-3.153 -0.764)"/>
            <path id="Trazado_276093" data-name="Trazado 276093" d="M87.537,51.083c1.372-8.74,10-23.352,25.326-14.358,4.82,2.828,6.877,7.988,7.856,13.347C121.4,53.811,120.088,87,120.088,87c-1.3,14.717-22.755,18.454-23.507.535l.449-8.974C85.926,74.96,86,60.894,87.537,51.083" transform="translate(-2.836 -0.819)" fill="#f99ea0"/>
            <path id="Trazado_276094" data-name="Trazado 276094" d="M97.362,79.532s6.272,2.117,18.1-5.3A38.762,38.762,0,0,1,96.973,88.018Z" transform="translate(-3.168 -1.792)" fill="#552516"/>
            <g id="Grupo_257711" data-name="Grupo 257711" transform="translate(100.549 57.061)" opacity="0.46" style="mix-blend-mode: soft-light;isolation: isolate">
              <g id="Grupo_257710" data-name="Grupo 257710">
                <g id="Grupo_257709" data-name="Grupo 257709" clip-path="url(#clip-path-5)">
                  <path id="Trazado_276095" data-name="Trazado 276095" d="M116.719,64.917a6.387,6.387,0,1,1-6.386-6.443,6.415,6.415,0,0,1,6.386,6.443" transform="translate(-103.945 -58.473)" fill="#0f0f0f"/>
                </g>
              </g>
            </g>
            <g id="Grupo_257714" data-name="Grupo 257714" transform="translate(83.969 54.136)" opacity="0.46" style="mix-blend-mode: soft-light;isolation: isolate">
              <g id="Grupo_257713" data-name="Grupo 257713">
                <g id="Grupo_257712" data-name="Grupo 257712" clip-path="url(#clip-path-6)">
                  <path id="Trazado_276096" data-name="Trazado 276096" d="M87.046,55.476a38.5,38.5,0,0,0,.64,12.773,6.441,6.441,0,0,0-.64-12.773" transform="translate(-86.804 -55.476)" fill="#0f0f0f"/>
                </g>
              </g>
            </g>
            <path id="Trazado_276097" data-name="Trazado 276097" d="M128.814,55.9a4.71,4.71,0,1,1-5.686-3.495,4.752,4.752,0,0,1,5.686,3.495" transform="translate(-3.905 -1.262)" fill="#f99ea0"/>
            <path id="Trazado_276098" data-name="Trazado 276098" d="M122.142,58.441a2.694,2.694,0,0,1,.546-1.354,2.734,2.734,0,0,1,1.221-.945,1.988,1.988,0,0,1,1.621.116,2.071,2.071,0,0,1,.978,1.124,7.249,7.249,0,0,0-1.246-.359,1.945,1.945,0,0,0-1.009.1,10.9,10.9,0,0,0-2.111,1.318" transform="translate(-3.99 -1.353)"/>
            <path id="Trazado_276099" data-name="Trazado 276099" d="M98.844,50.143a20.8,20.8,0,0,1-1.328,3.91A34.758,34.758,0,0,1,95.648,57.7L95.4,57.1a33.433,33.433,0,0,1,3.611,1.626,33.005,33.005,0,0,1-3.872-.806L94.68,57.8l.208-.487c.267-.627.541-1.253.84-1.865s.608-1.219.929-1.821a28.33,28.33,0,0,1,2.188-3.482" transform="translate(-3.093 -1.211)"/>
            <path id="Trazado_276100" data-name="Trazado 276100" d="M104.286,52.058a13.406,13.406,0,0,0,.113,2.46c.125.778.434,1.481.864,1.583.376.17,1.031-.22,1.578-.776a14.513,14.513,0,0,0,1.523-1.909l.014-.02a.409.409,0,0,1,.573-.1.418.418,0,0,1,.144.486,8.22,8.22,0,0,1-1.372,2.364,4.217,4.217,0,0,1-1.129.973,2.115,2.115,0,0,1-1.75.2A2.208,2.208,0,0,1,103.6,56.1a4.167,4.167,0,0,1-.314-1.454,8.1,8.1,0,0,1,.321-2.71.346.346,0,0,1,.429-.24.353.353,0,0,1,.252.345Z" transform="translate(-3.374 -1.248)"/>
            <path id="Trazado_276101" data-name="Trazado 276101" d="M90.773,50.531a20.3,20.3,0,0,0,.029,2.332,4.822,4.822,0,0,0,.2,1.03c.106.31.251.453.327.45.049.028.265-.023.512-.238a4.984,4.984,0,0,0,.716-.768c.459-.588.876-1.27,1.289-1.927l.01-.016a.409.409,0,0,1,.567-.129.417.417,0,0,1,.173.471,9.334,9.334,0,0,1-1.061,2.3,4.929,4.929,0,0,1-.871,1.05,2.525,2.525,0,0,1-.682.43,1.522,1.522,0,0,1-1,.069,1.549,1.549,0,0,1-.814-.582,2.245,2.245,0,0,1-.347-.742A4.618,4.618,0,0,1,89.68,52.9a9.191,9.191,0,0,1,.413-2.5.348.348,0,0,1,.436-.231.352.352,0,0,1,.245.344Z" transform="translate(-2.929 -1.211)"/>
            <path id="Trazado_276102" data-name="Trazado 276102" d="M95.458,64.458c.595.259,1.079.564,1.571.763a3.292,3.292,0,0,0,1.364.338,3.013,3.013,0,0,0,1.329-.343,17.063,17.063,0,0,0,1.489-.876,3.058,3.058,0,0,1-.9,1.7,2.77,2.77,0,0,1-1.922.82,2.87,2.87,0,0,1-1.91-.79,3.49,3.49,0,0,1-1.022-1.606" transform="translate(-3.118 -1.554)"/>
            <path id="Trazado_276103" data-name="Trazado 276103" d="M89.955,43.8S103.74,43.091,111.9,36c0,0-3.8,23.84,8.862,16.319,0,0,6.612-18.022-13.927-21,0,0-13.785.852-16.88,12.488" transform="translate(-2.939 -0.756)"/>
            <path id="Trazado_276104" data-name="Trazado 276104" d="M102.976,32.851a33.47,33.47,0,0,0,7.683.124c-.229-.074-.459-.148-.7-.218,0,0,15.535-7.464,13.643-18.242,0,0-10.584,1.4-17.035,18.128,0,0-4.5-15.835-15.1-16.982A35.66,35.66,0,0,0,94.13,26.44c2.334,5.361,9.742,6.267,9.742,6.267a8.669,8.669,0,0,0-.9.144" transform="translate(-2.988 -0.351)" fill="#fa4d37"/>
            <path id="Trazado_276105" data-name="Trazado 276105" d="M89.955,43.829s8.3-12.063,18.006-10.076,11.113,19.3,11.113,19.3l1.688-.709s3.094-16.319-11.816-19.583c0,0-11.394-2.838-18.991,11.069" transform="translate(-2.939 -0.785)" fill="#fa4d37"/>
            <path id="Trazado_276106" data-name="Trazado 276106" d="M143.679,96.111s21.353,30.192,27.328,48.668,1.961,37.071-13.055,37.778c-8.544.4-37.515-16.938-50.749-25.661a9.807,9.807,0,0,1-4.412-6.764c-1.574-9.033,8.207-15.763,16.174-11.343L140.617,150.8,130.04,102.663Z" transform="translate(-3.352 -2.321)" fill="#ef9196"/>
            <line id="Línea_957" data-name="Línea 957" x2="14.05" y2="6.125" transform="translate(136.72 148.144)" fill="none" stroke="#000" stroke-linecap="round" stroke-miterlimit="10" stroke-width="1.076"/>
            <path id="Trazado_276107" data-name="Trazado 276107" d="M81.613,94.956s-29.633,21.952-41.03,37.62-13.343,34.6.7,40c7.993,3.075,40.883-4.267,56.156-8.383a9.734,9.734,0,0,0,6.286-5.035c4.292-8.085-2.915-17.56-11.851-15.873l-24.29,4.587L92.54,105.478Z" transform="translate(-1.025 -2.293)" fill="#f99ea0"/>
            <line id="Línea_958" data-name="Línea 958" x1="15.243" y2="1.392" transform="translate(51.938 145.433)" fill="none" stroke="#000" stroke-linecap="round" stroke-miterlimit="10" stroke-width="1.076"/>
            <path id="Trazado_276108" data-name="Trazado 276108" d="M139.732,142.989l27.635-4.521c-20.693-59.383-48.833-50.909-48.833-50.909-.422.624-3.952,4.591-10.832,4.65-9.03.077-12.649-4.122-12.649-4.122l-1.37-.182h0c-18.435-3.2-55.973,45.844-55.973,45.844l31.6,5.93c-.7,5.978-1.169,11.71-2.178,18.288-3.451,22.467,3.089,28.043,6.131,27.19,0,0,36.092,9.57,46.731,8.148,4.1-.549,14.213-5.066,14.213-5.066s6.87-13.267,6.559-26.351c-.138-5.8-.442-12.273-1.029-18.9" transform="translate(-1.232 -2.104)" fill="#312d45"/>
          </g>
        </g>
        <g id="Grupo_257718" data-name="Grupo 257718" transform="translate(36.477 85.037)">
          <g id="Grupo_257717" data-name="Grupo 257717" clip-path="url(#clip-path-7)">
            <path id="Trazado_276109" data-name="Trazado 276109" d="M89.53,98.529c-.252.337-4.235-2.258-8.9-5.795s-8.24-6.678-7.989-7.014,4.234,2.257,8.9,5.8,8.239,6.677,7.988,7.013" transform="translate(-38.85 -87.106)" fill="#fdddcf"/>
            <path id="Trazado_276110" data-name="Trazado 276110" d="M89.368,108.958c-.145.176-1.613-.85-4.05-2.367s-5.887-3.481-9.72-5.684a69.336,69.336,0,0,1-9.465-6.321c-2.259-1.876-3.418-3.292-3.288-3.426.158-.17,1.556.948,3.926,2.561,2.362,1.63,5.758,3.665,9.58,5.865A91.449,91.449,0,0,1,85.92,105.7c2.328,1.776,3.571,3.113,3.448,3.258" transform="translate(-38.53 -87.238)" fill="#fdddcf"/>
            <path id="Trazado_276111" data-name="Trazado 276111" d="M88.427,121.469c-.137.191-2.238-1.169-5.765-3.11-3.517-1.964-8.521-4.4-14.038-7.2-2.753-1.417-5.345-2.849-7.65-4.252a59.146,59.146,0,0,1-5.893-4.1c-3.2-2.562-4.822-4.541-4.7-4.658.172-.181,2.034,1.5,5.334,3.789,1.639,1.158,3.675,2.415,5.967,3.755,2.309,1.316,4.89,2.694,7.629,4.1,5.49,2.794,10.474,5.406,13.894,7.633,3.433,2.206,5.332,3.892,5.222,4.039" transform="translate(-38.123 -87.406)" fill="#fdddcf"/>
            <path id="Trazado_276112" data-name="Trazado 276112" d="M94.615,133.993c-.066.189-3.27-.718-8.343-2.509s-12-4.5-19.489-7.889-14.1-6.809-18.8-9.443-7.5-4.444-7.4-4.62c.106-.192,3.088,1.283,7.9,3.663S59.947,118.827,67.4,122.2s14.287,6.231,19.249,8.272,8.037,3.309,7.964,3.517" transform="translate(-37.803 -87.681)" fill="#fdddcf"/>
            <path id="Trazado_276113" data-name="Trazado 276113" d="M91.424,140c-.055.2-3.568-.577-9.194-2.042s-13.358-3.629-21.847-6.195-16.131-5.05-21.628-6.947-8.855-3.2-8.791-3.395,3.538.734,9.112,2.366l21.74,6.515,21.706,6.618c5.546,1.73,8.958,2.874,8.9,3.08" transform="translate(-37.456 -87.968)" fill="#fdddcf"/>
            <path id="Trazado_276114" data-name="Trazado 276114" d="M150.9,85.387c.164.381-5,3.01-11.649,5.581s-12.229,4.112-12.36,3.718,5.2-2.575,11.818-5.142,12.022-4.549,12.19-4.157" transform="translate(-40.622 -87.097)" fill="#fdddcf"/>
            <path id="Trazado_276115" data-name="Trazado 276115" d="M167.337,90.6c.072.193-2,1.185-5.431,2.555s-8.24,3.1-13.624,4.78-10.324,2.976-13.927,3.8-5.864,1.176-5.912.976c-.1-.424,8.672-2.883,19.393-6.23,10.724-3.328,19.348-6.284,19.5-5.877" transform="translate(-40.673 -87.224)" fill="#fdddcf"/>
            <path id="Trazado_276116" data-name="Trazado 276116" d="M169.3,102.771c.107.415-8.584,3.06-19.312,6.26s-19.454,5.732-19.587,5.325,8.4-3.588,19.159-6.788,19.636-5.2,19.739-4.8" transform="translate(-40.737 -87.517)" fill="#fdddcf"/>
            <path id="Trazado_276117" data-name="Trazado 276117" d="M178.611,113.833c.052.2-2.647,1.134-7.08,2.4s-10.6,2.849-17.476,4.346-13.144,2.622-17.7,3.31-7.4.959-7.431.756,2.742-.859,7.241-1.818l17.572-3.739,17.535-3.9c4.49-1,7.285-1.563,7.34-1.355" transform="translate(-40.689 -87.785)" fill="#fdddcf"/>
            <path id="Trazado_276118" data-name="Trazado 276118" d="M196.091,123.01c.045.2-3.469,1.182-9.193,2.563s-13.662,3.155-22.461,4.955-16.8,3.285-22.6,4.263-9.417,1.457-9.455,1.252,3.5-1.063,9.254-2.312,13.708-2.9,22.5-4.7,16.759-3.4,22.537-4.515,9.372-1.716,9.417-1.508" transform="translate(-40.802 -88.006)" fill="#fdddcf"/>
            <path id="Trazado_276119" data-name="Trazado 276119" d="M126.182,96.162c.037.189-2.029.82-5.464,1.31a94.212,94.212,0,0,1-13.493.8c-2.637,0-5.138-.065-7.419-.138a32.9,32.9,0,0,1-6.107-.649,13.3,13.3,0,0,1-3.916-1.474c-.849-.518-1.231-.922-1.181-1,.125-.211,1.941.968,5.287,1.41a42.036,42.036,0,0,0,5.941.305l7.4.018c5.239.018,9.964-.113,13.381-.349,3.419-.21,5.534-.461,5.575-.236" transform="translate(-39.371 -87.331)" fill="#fdddcf"/>
            <path id="Trazado_276120" data-name="Trazado 276120" d="M130.263,109.4c.026.193-2.438.751-6.487,1.229a107.346,107.346,0,0,1-15.91.591,107.212,107.212,0,0,1-15.828-1.741c-4.006-.768-6.423-1.5-6.383-1.694.09-.459,9.945,1.5,22.266,1.911,12.315.477,22.285-.76,22.342-.3" transform="translate(-39.275 -87.638)" fill="#fdddcf"/>
          </g>
        </g>
        <g id="Grupo_257735" data-name="Grupo 257735">
          <g id="Grupo_257734" data-name="Grupo 257734" clip-path="url(#clip-path)">
            <path id="Trazado_276122" data-name="Trazado 276122" d="M123.263,87.211a15.984,15.984,0,0,1,3.476-.143s5.945,20.834,5.172,30.858c-.773.488-1.915-.852-1.915-.852l-1.808-4.379s-1.478-17.609-4.925-25.484" transform="translate(-4.027 -2.101)" fill="#9ab2cd"/>
            <path id="Trazado_276123" data-name="Trazado 276123" d="M92.633,87.805a18.92,18.92,0,0,0-3.569.694s-5.94,20.26-5.167,30.284c.774.488,1.915-.852,1.915-.852l1.808-4.379s1.567-17.872,5.014-25.747" transform="translate(-2.738 -2.12)" fill="#9ab2cd"/>
            <path id="Trazado_276124" data-name="Trazado 276124" d="M138.215,164.084l-8.361-51.51C105.748,117.091,83.3,111.8,83.3,111.8l-8.822,49.131c-11.216,47.438-12.228,186.09-12.4,198.228,9.543.2,17.942.026,27.481.266,18.376-63.7,17-126.095,17-126.095l2.825-.137c2.375,35.843,1.127,106.208.748,124.492,9.18-.2,18.348-.834,27.521-1.252,18.1-133.583.56-192.347.56-192.347" transform="translate(-2.028 -2.7)" fill="#9ab2cd"/>
            <path id="Trazado_276125" data-name="Trazado 276125" d="M71.209,183.671s34.739,6.065,70.736,1.158" transform="translate(-2.326 -4.435)" fill="none" stroke="#6693b9" stroke-linecap="round" stroke-miterlimit="10" stroke-width="1.2"/>
            <line id="Línea_959" data-name="Línea 959" x1="0.408" y2="47.637" transform="translate(107.358 182.854)" fill="none" stroke="#6693b9" stroke-linecap="round" stroke-miterlimit="10" stroke-width="1.2"/>
            <path id="Trazado_276126" data-name="Trazado 276126" d="M103.21,186.934s-5.452,47.332,7.6,44.582" transform="translate(-3.335 -4.514)" fill="none" stroke="#6693b9" stroke-linecap="round" stroke-miterlimit="10" stroke-width="1.2"/>
            <path id="Trazado_276127" data-name="Trazado 276127" d="M84.45,186.044s-3.642,33.844-16.413,31.818" transform="translate(-2.223 -4.493)" fill="none" stroke="#6693b9" stroke-linecap="round" stroke-miterlimit="10" stroke-width="1.2"/>
            <path id="Trazado_276128" data-name="Trazado 276128" d="M132.022,186.637s-1.148,30.976,15.353,33.291" transform="translate(-4.312 -4.507)" fill="none" stroke="#6693b9" stroke-linecap="round" stroke-miterlimit="10" stroke-width="1.2"/>
            <path id="Trazado_276129" data-name="Trazado 276129" d="M71.763,179.1s37.157,4.743,69.765.918" transform="translate(-2.344 -4.325)" fill="none" stroke="#6693b9" stroke-linecap="round" stroke-miterlimit="10" stroke-width="1.2"/>
            <line id="Línea_960" data-name="Línea 960" x1="0.607" y2="4.437" transform="translate(74.272 175.544)" fill="none" stroke="#6693b9" stroke-linecap="round" stroke-miterlimit="10" stroke-width="1.2"/>
            <line id="Línea_961" data-name="Línea 961" x1="0.607" y2="4.437" transform="translate(78.215 175.85)" fill="none" stroke="#6693b9" stroke-linecap="round" stroke-miterlimit="10" stroke-width="1.2"/>
            <line id="Línea_962" data-name="Línea 962" x2="0.607" y2="4.437" transform="translate(129.477 177.074)" fill="none" stroke="#6693b9" stroke-linecap="round" stroke-miterlimit="10" stroke-width="1.2"/>
            <line id="Línea_963" data-name="Línea 963" x2="0.607" y2="4.437" transform="translate(132.662 177.074)" fill="none" stroke="#6693b9" stroke-linecap="round" stroke-miterlimit="10" stroke-width="1.2"/>
            <g id="Grupo_257721" data-name="Grupo 257721" transform="translate(70.027 148.853)" opacity="0.46" style="mix-blend-mode: soft-light;isolation: isolate">
              <g id="Grupo_257720" data-name="Grupo 257720">
                <g id="Grupo_257719" data-name="Grupo 257719" clip-path="url(#clip-path-9)">
                  <path id="Trazado_276130" data-name="Trazado 276130" d="M74.811,161.912l34.741-9.376,29.086,12.7L140.88,175.6s-27.754-.4-33.37-5.555-35.118,3.481-35.118,3.481Z" transform="translate(-72.392 -152.536)" fill="#0f0f0f"/>
                </g>
              </g>
            </g>
            <path id="Trazado_276131" data-name="Trazado 276131" d="M140.617,151.821l-21.654-12.011c-7.967-4.42-17.747,2.31-16.173,11.343a9.806,9.806,0,0,0,4.412,6.764c13.234,8.723,42.2,26.063,50.749,25.661,11.987-.565,16.956-12.533,15.435-26.736-.176-.06-32.769-5.021-32.769-5.021" transform="translate(-3.352 -3.343)" fill="#ef9196"/>
            <line id="Línea_964" data-name="Línea 964" x2="14.05" y2="6.125" transform="translate(136.72 148.144)" fill="none" stroke="#000" stroke-linecap="round" stroke-miterlimit="10" stroke-width="1.076"/>
            <path id="Trazado_276132" data-name="Trazado 276132" d="M126.137,145.828l13.524-6.273s-7.289-2.932-32.685-3.392-32.854-2.086-31.33.414,44.712,10.938,50.491,9.251" transform="translate(-2.465 -3.265)" fill="#b89467"/>
            <path id="Trazado_276133" data-name="Trazado 276133" d="M97.807,122.259c8.89-3.264,19.3,16.787,7.608,21.082s-17.278-17.531-7.608-21.082" transform="translate(-3.034 -2.944)" fill="#e6c89f"/>
            <g id="Grupo_257724" data-name="Grupo 257724" transform="translate(95.314 121.054)" opacity="0.28" style="mix-blend-mode: overlay;isolation: isolate">
              <g id="Grupo_257723" data-name="Grupo 257723">
                <g id="Grupo_257722" data-name="Grupo 257722" clip-path="url(#clip-path-10)">
                  <path id="Trazado_276134" data-name="Trazado 276134" d="M98.858,126.506c-.18-.026-.33-.25-.325-.624a1.9,1.9,0,0,1,.582-1.259,1.874,1.874,0,0,1,1.254-.574c.37,0,.59.152.614.334.023.383-.471.741-.916,1.211-.469.444-.83.939-1.209.911" transform="translate(-98.533 -124.049)" fill="#fdddcf"/>
                </g>
              </g>
            </g>
            <path id="Trazado_276135" data-name="Trazado 276135" d="M138.353,138.266c-1.588,8.644-22.233,7.606-20.143-3.767s21.87-5.636,20.143,3.767" transform="translate(-3.857 -3.096)" fill="#fdc4a5"/>
            <g id="Grupo_257727" data-name="Grupo 257727" transform="translate(123.867 128.206)" opacity="0.28" style="mix-blend-mode: overlay;isolation: isolate">
              <g id="Grupo_257726" data-name="Grupo 257726">
                <g id="Grupo_257725" data-name="Grupo 257725" clip-path="url(#clip-path-11)">
                  <path id="Trazado_276136" data-name="Trazado 276136" d="M134.971,138.669c-.2,0-.328-.641-.531-1.58a5.86,5.86,0,0,0-.515-1.487,3.916,3.916,0,0,0-1.229-1.319c-2.384-1.565-4.758-2.386-4.643-2.766.071-.336,2.668-.146,5.429,1.653a4.431,4.431,0,0,1,1.573,1.9,4.866,4.866,0,0,1,.338,1.926c-.034,1.068-.246,1.672-.422,1.676" transform="translate(-128.05 -131.379)" fill="#fdddcf"/>
                </g>
              </g>
            </g>
            <path id="Trazado_276137" data-name="Trazado 276137" d="M114.773,119.64c10.483,0,13.793,24.861,0,24.861s-11.4-24.861,0-24.861" transform="translate(-3.44 -2.889)" fill="#fddcaf"/>
            <g id="Grupo_257730" data-name="Grupo 257730" transform="translate(106.947 118.952)" opacity="0.28" style="mix-blend-mode: overlay;isolation: isolate">
              <g id="Grupo_257729" data-name="Grupo 257729">
                <g id="Grupo_257728" data-name="Grupo 257728" clip-path="url(#clip-path-12)">
                  <path id="Trazado_276138" data-name="Trazado 276138" d="M111.043,131.907c-.179.011-.405-.62-.469-1.68a11.547,11.547,0,0,1,.567-4.094,12.025,12.025,0,0,1,.9-2.1,5.592,5.592,0,0,1,1.16-1.561,2.044,2.044,0,0,1,1.279-.575c.346,0,.508.127.5.213-.027.2-.6.275-1.079,1.021a15.8,15.8,0,0,0-1.471,3.426c-.932,2.832-1,5.325-1.385,5.352" transform="translate(-110.559 -121.896)" fill="#fdddcf"/>
                </g>
              </g>
            </g>
            <path id="Trazado_276139" data-name="Trazado 276139" d="M81.41,124.9c8.506-6.181,25.6,12.038,14.4,20.172S72.157,131.625,81.41,124.9" transform="translate(-2.554 -2.986)" fill="#bad2c8"/>
            <g id="Grupo_257733" data-name="Grupo 257733" transform="translate(79.464 123.592)" opacity="0.28" style="mix-blend-mode: overlay;isolation: isolate">
              <g id="Grupo_257732" data-name="Grupo 257732">
                <g id="Grupo_257731" data-name="Grupo 257731" clip-path="url(#clip-path-13)">
                  <path id="Trazado_276140" data-name="Trazado 276140" d="M83.97,135.58c-.143.1-.615-.253-1.071-1.064a6.8,6.8,0,0,1,.413-6.916c.548-.75,1.057-1.042,1.187-.927.3.256-.878,1.976-.99,4.41-.18,2.429.782,4.279.46,4.5" transform="translate(-82.147 -126.65)" fill="#fdddcf"/>
                </g>
              </g>
            </g>
            <path id="Trazado_276141" data-name="Trazado 276141" d="M103.133,153.894a38.2,38.2,0,0,0,19.708-.992c6.3-2.146,13.074-6.69,16.826-13.313-20.428,3.368-43.591.409-64.015-2.978,0,0,8.006,13.385,27.481,17.283" transform="translate(-2.471 -3.299)" fill="#b89467"/>
            <path id="Trazado_276142" data-name="Trazado 276142" d="M94.5,146.091c-.567.023-26.914,3.008-26.914,3.008s-14.914-3.945-21.462-3.313a88.14,88.14,0,0,0-12.862,1.922c-3.87,11.517-1.989,22.244,8.023,26.1,7.993,3.075,40.159-9.062,55.432-13.177.027-.008-1.3-8.64-2.217-14.535" transform="translate(-1.025 -3.519)" fill="#f99ea0"/>
            <line id="Línea_965" data-name="Línea 965" x1="14.777" y2="2.129" transform="translate(52.731 144.989)" fill="none" stroke="#000" stroke-linecap="round" stroke-miterlimit="10" stroke-width="1.076"/>
            <path id="Trazado_276143" data-name="Trazado 276143" d="M93.338,146.64s2.211,14.669,4.79,14.057c7.593-1.37,19.487,2.8,20.933.966,1.567-1.982-6.878-3.324-6.878-3.324,2.872-.417,13.459,2.647,13.233.568-.136-1.252-11.006-4.1-11.006-4.1a65.336,65.336,0,0,1,9.471.966c3.777.663,3.735-.669,3.735-.669-.368-2.49-12.718-4.182-12.718-4.182a33.03,33.03,0,0,1,5.259,0c2.221.251,5.182-.652,4.833-1.531-.937-2.353-16.421-2.14-16.421-2.14s-1.62.123,2.084-2.861,1.976-4.313,1.976-4.313a95.511,95.511,0,0,1-9.285,3.841c-1.14.327-10.006,2.729-10.006,2.729" transform="translate(-3.049 -3.382)" fill="#f99ea0"/>
            <path id="Trazado_276144" data-name="Trazado 276144" d="M61.87,362.576l-3.248,24.5,41.941,1.127s-1.118-6.766-13.861-9.7l3.607-16.442Z" transform="translate(-1.915 -8.743)" fill="#f99c3c"/>
            <path id="Trazado_276145" data-name="Trazado 276145" d="M78.174,383.194a10.1,10.1,0,0,1,9.166-4.285" transform="translate(-2.554 -9.149)" fill="none" stroke="#000" stroke-linecap="round" stroke-miterlimit="10" stroke-width="1.076"/>
            <path id="Trazado_276146" data-name="Trazado 276146" d="M111.541,363.086l-3.193,24.376,41.755.634s-1.117-6.767-13.861-9.7l3.263-16.547Z" transform="translate(-3.539 -8.738)" fill="#f99c3c"/>
            <path id="Trazado_276147" data-name="Trazado 276147" d="M127.708,383.092a10.1,10.1,0,0,1,9.166-4.285" transform="translate(-4.172 -9.147)" fill="none" stroke="#000" stroke-linecap="round" stroke-miterlimit="10" stroke-width="1.076"/>
          </g>
        </g>
      </g>
    </g>
  </g>
</svg>
