<svg xmlns="http://www.w3.org/2000/svg" xmlns:xlink="http://www.w3.org/1999/xlink" width="190" height="106" viewBox="0 0 190 106">
  <defs>
    <clipPath id="clip-path">
      <rect id="Rect치ngulo_326104" data-name="Rect치ngulo 326104" width="105.518" height="105.6" fill="none"/>
    </clipPath>
  </defs>
  <g id="Grupo_262353" data-name="Grupo 262353" transform="translate(-180 -1998.811)">
    <rect id="Rect치ngulo_326298" data-name="Rect치ngulo 326298" width="190" height="106" transform="translate(180 1998.811)" fill="#fff"/>
    <g id="Grupo_261913" data-name="Grupo 261913" transform="translate(224.482 1999.211)">
      <g id="Grupo_261912" data-name="Grupo 261912" clip-path="url(#clip-path)">
        <path id="Trazado_280472" data-name="Trazado 280472" d="M3.8,53.194V90.136c0,.439-.014.878,0,1.316.089,2.761,1.3,3.9,4.067,3.847,17.95-.309,35.9-.028,53.852-.14a5.394,5.394,0,0,1,1.683.294,1.763,1.763,0,0,1,1.269,2.038,1.657,1.657,0,0,1-1.644,1.6,9,9,0,0,1-1.314.04q-27.536-.005-55.071-.021A6.739,6.739,0,0,1,.119,92.756c-.095-5.732-.058-11.466-.1-17.2C-.019,68.879.147,62.2.008,55.522c-.043-2.056.09-4.115.065-6.172C-.071,37.714.093,26.079.036,14.443A7.106,7.106,0,0,1,7.355,7.233c1.108.077,2.227-.024,3.339,0,.625.015.919-.1,1.057-.838a8.549,8.549,0,0,1,2.659-5.1,4.743,4.743,0,0,1,7.178.79A8.27,8.27,0,0,1,23.2,6.182c.078.787.429,1.041,1.155,1.038q2.378-.011,4.757.034c.488.009.724-.136.8-.659a11.259,11.259,0,0,1,1.579-4.019A4.835,4.835,0,0,1,39.82,2.21a9.173,9.173,0,0,1,1.822,4.227c.069.578.311.805.913.8,1.551-.024,3.1,0,4.656.029.632.013.946-.13,1.02-.876a8.378,8.378,0,0,1,1.93-4.6,4.741,4.741,0,0,1,7.066-.395,7.99,7.99,0,0,1,2.391,4.8c.11.862.454,1.052,1.22,1.031,1.213-.033,2.43-.014,3.643.031a7.024,7.024,0,0,1,7.075,7.277c.012,2.834.015,5.668-.02,8.5-.016,1.349-.587,1.923-1.793,1.963a1.668,1.668,0,0,1-1.981-1.855c-.067-2.866-.051-5.735-.176-8.6a3.334,3.334,0,0,0-3.493-3.438c-1.043-.056-2.092,0-3.137-.015-.834-.011-1.186.277-1.327,1.209a6.966,6.966,0,0,1-4.976,5.911,2.1,2.1,0,0,1-2.663-1.48,1.929,1.929,0,0,1,1.762-2.213,1.4,1.4,0,0,0,.918-.551,8.876,8.876,0,0,0,.24-9.288c-.765-1.1-1.13-1.109-1.928-.016A5.44,5.44,0,0,0,52.327,5.8c-.425,1.041-.341,1.175.756,1.477a2.122,2.122,0,0,1,1.428,1.992,2.054,2.054,0,0,1-1.86,1.787c-3.239.031-6.479.052-9.718.025-.876-.007-1.248.16-1.417,1.169a7.87,7.87,0,0,1-2.589,4.8A4.458,4.458,0,0,1,35.676,18.2a1.942,1.942,0,0,1-1.789-1.634A1.6,1.6,0,0,1,35.181,14.6a3.027,3.027,0,0,0,2.328-2.37,9.216,9.216,0,0,0-.13-6.332,4.246,4.246,0,0,0-.94-1.543c-.268-.257-.534-.526-.972-.346a4.531,4.531,0,0,0-1.535,2.532c.029.462.4.484.706.592.159.055.321.107.474.178a1.939,1.939,0,0,1,1.305,2.054,1.905,1.905,0,0,1-2.058,1.695c-2.362.031-4.724.017-7.086.028-.911,0-1.822.028-2.733.039-.745.009-1.112.19-1.288,1.112-.526,2.752-1.888,4.955-4.74,5.92a1.991,1.991,0,0,1-2.364-.637,2.241,2.241,0,0,1-.1-2.31.906.906,0,0,1,.889-.562,2.08,2.08,0,0,0,1.9-1.434c1.186-2.88,1.437-5.749-.271-8.529-.686-1.117-1.18-1.1-1.935-.009a6.187,6.187,0,0,0-.629,1.147c-.448,1.085-.4,1.159.736,1.483A1.946,1.946,0,0,1,18.114,9.5a1.715,1.715,0,0,1-1.779,1.553c-2.7.019-5.4.009-8.1.029-3.055.023-4.3,1.134-4.358,4.16C3.792,19.7,3.826,24.151,3.833,28.6c.006,4.116-.009,8.231-.085,12.347-.075,4.08-.016,8.162-.016,12.243H3.8" transform="translate(0 -0.001)" fill="#3b5620"/>
        <path id="Trazado_280473" data-name="Trazado 280473" d="M383.933,231.624c.411-7.638.73-14.776,1.126-21.911.292-5.249.983-10.475.923-15.745a1.883,1.883,0,0,0-.775-1.753c-4.084-2.615-5.3-6.354-4.529-11.006a50.771,50.771,0,0,1,3.62-13.094,12.651,12.651,0,0,1,2.858-4.128,3.893,3.893,0,0,1,5.317-.2,11.851,11.851,0,0,1,3.276,5.031,45.729,45.729,0,0,1,3.557,14.967c.208,3.679-1.54,6.316-4.552,8.22a1.955,1.955,0,0,1-2.285-.019,1.861,1.861,0,0,1-.859-1.816,1.414,1.414,0,0,1,.7-1.167c2.947-1.723,3.5-4.319,3-7.481A41.412,41.412,0,0,0,391.086,168c-.271-.5-.435-1.3-1.156-1.252s-1.119.706-1.432,1.314a41.864,41.864,0,0,0-3.6,10.9,23.6,23.6,0,0,0-.646,4.7,5.186,5.186,0,0,0,2.251,4.72c3.221,2.039,3.693,5.008,3.413,8.451-.7,8.635-1.408,17.27-1.63,25.939-.093,3.635-.452,7.268-.543,10.909a9.077,9.077,0,0,0,.013,1.314,1.937,1.937,0,0,0,2.322,1.938c1.217-.05,1.766-.635,1.759-2.1-.025-4.621-.226-9.237-.482-13.85q-.371-6.667-.763-13.332c-.066-1.144-.175-2.288-.185-3.432a1.881,1.881,0,0,1,1.732-2.1,2.037,2.037,0,0,1,2.089,2c.221,5.289.955,10.548.957,15.846,0,5,.757,9.955.643,14.956a6.2,6.2,0,0,1-6.228,6,5.9,5.9,0,0,1-5.668-5.745c-.025-1.349,0-2.7,0-3.546" transform="translate(-316.166 -135.319)" fill="#3b5620"/>
        <path id="Trazado_280474" data-name="Trazado 280474" d="M523.958,230.425c-.52-7.645-.812-15.3-1.42-22.931-.091-1.142-.233-2.283-.269-3.427a2.049,2.049,0,0,1,1.9-2.183,2.133,2.133,0,0,1,2.128,2.127c-.025,3.885.534,7.733.67,11.61.169,4.846.473,9.689.809,14.527.1,1.449.153,2.893.153,4.341a6.328,6.328,0,0,1-5.774,6.19,5.954,5.954,0,0,1-6.285-5.893c-.119-3.847.378-7.678.459-11.521.147-7.018.856-14,1.18-21.012.081-1.749.446-3.475.439-5.239a3.1,3.1,0,0,0-1.633-2.916,14.782,14.782,0,0,1-1.851-1.231,5.211,5.211,0,0,1-2.057-4.211c-.018-3.109.453-6.186.63-9.279.257-4.482.9-8.924,1.179-13.4a13.625,13.625,0,0,1,.231-1.7c.267-1.4.892-1.859,2.253-1.689,1.067.134,1.609.928,1.466,2.24-.784,7.21-1.432,14.431-1.847,21.673-.031.539-.042,1.079-.077,1.617a1.846,1.846,0,0,0,1.044,1.928c4.053,1.892,4.867,5.27,4.355,9.288-.653,5.127-.684,10.3-1.033,15.442-.423,6.227-.569,12.465-.9,18.7a5.193,5.193,0,0,0,.07,1.61,2.03,2.03,0,0,0,2.245,1.6,1.834,1.834,0,0,0,1.926-2.005c.018-1.416,0-2.832,0-4.249" transform="translate(-425.818 -135.082)" fill="#3b5620"/>
        <path id="Trazado_280475" data-name="Trazado 280475" d="M85.667,353.614q7.282,0,14.565,0a13.141,13.141,0,0,1,1.514.059c1.4.164,1.794.542,1.822,1.679.035,1.378-.334,1.825-1.789,2.057a10.86,10.86,0,0,1-1.711.115q-14.361,0-28.723-.028a16.069,16.069,0,0,1-2.116-.11,1.724,1.724,0,0,1-1.483-1.762,1.66,1.66,0,0,1,1.347-1.86,7.864,7.864,0,0,1,1.605-.144q7.485-.015,14.969-.006Z" transform="translate(-56.296 -293.856)" fill="#3b5620"/>
        <path id="Trazado_280476" data-name="Trazado 280476" d="M85.642,178.111q8.042,0,16.083,0a1.583,1.583,0,0,1,1.73,1.365,1.874,1.874,0,0,1-1.015,2.289,2.73,2.73,0,0,1-.98.2c-1.347.042-2.7.076-4.043.07q-13.755-.06-27.509-.13a2.111,2.111,0,0,1-2.072-1.163,1.893,1.893,0,0,1,.226-2,1.685,1.685,0,0,1,1.6-.658q4.5-.022,9-.031c2.326,0,4.652,0,6.978,0v.056" transform="translate(-56.212 -147.964)" fill="#3b5620"/>
        <path id="Trazado_280477" data-name="Trazado 280477" d="M85.713,412q7.286,0,14.573,0a13.022,13.022,0,0,1,1.716.068c1.254.168,1.679.742,1.63,2.1-.04,1.115-.5,1.536-1.725,1.668a55.717,55.717,0,0,1-5.863.04q-12.5.024-24.995.009c-.539,0-1.08-.025-1.616-.078a1.885,1.885,0,0,1-.4-3.633,4.034,4.034,0,0,1,1.5-.172q7.59,0,15.18,0" transform="translate(-56.352 -342.377)" fill="#3b5620"/>
        <path id="Trazado_280478" data-name="Trazado 280478" d="M85.092,295.626H100.16c.27,0,.541,0,.809.022,1.77.133,2.176.505,2.157,1.966-.014,1.1-.769,1.749-2.211,1.826-1.077.057-2.158.06-3.237.057q-13.867-.027-27.735-.068a2.851,2.851,0,0,1-1.757-.326A1.833,1.833,0,0,1,69,295.644c1.652-.047,3.306-.064,4.959-.068,3.71-.009,7.42,0,11.13,0,0,.017,0,.035,0,.053" transform="translate(-55.826 -245.622)" fill="#3b5620"/>
        <path id="Trazado_280479" data-name="Trazado 280479" d="M85.7,473.85q-7.841,0-15.682,0c-1.444,0-2.139-.532-2.24-1.647a1.942,1.942,0,0,1,1.668-2.158,11.04,11.04,0,0,1,1.713-.1c9.712.1,19.424.072,29.136-.005a12.419,12.419,0,0,1,1.412.084,1.813,1.813,0,0,1,1.889,2.108c-.052,1.2-.586,1.7-2.012,1.712-4.485.027-8.971.014-13.456.017q-1.214,0-2.428,0" transform="translate(-56.32 -390.518)" fill="#3b5620"/>
        <path id="Trazado_280480" data-name="Trazado 280480" d="M85.257,237.01c5.23,0,10.46-.01,15.69.006,1.713.005,2.273.606,2.229,2.137-.032,1.107-.8,1.409-1.644,1.6a7.194,7.194,0,0,1-1.612.1c-8.5.006-17,.029-25.507-.013-1.782-.009-3.569.346-5.348-.036a2.08,2.08,0,0,1-1.746-1.49,1.8,1.8,0,0,1,.732-1.868,2.216,2.216,0,0,1,1.624-.4q7.791,0,15.581,0c0-.014,0-.027,0-.041" transform="translate(-55.892 -196.955)" fill="#3b5620"/>
        <path id="Trazado_280481" data-name="Trazado 280481" d="M590.866,188.614c.14,3.1-2.3,5.015-4.1,5.852-.475.221-.761-.1-1.014-.429-.5-.638-.955-1.307-1.474-1.927-.382-.456-.264-.736.235-.894,2.172-.685,2.682-2.108,2.468-4.329-.627-6.5-.918-13.035-1.815-19.514a10.635,10.635,0,0,1-.112-2.919,1.668,1.668,0,0,1,1.606-1.543,1.755,1.755,0,0,1,2.026,1.13c.63,1.581.423,3.26.591,4.889.513,4.956.922,9.924,1.369,14.887.154,1.713.006,3.439.218,4.8" transform="translate(-485.354 -135.367)" fill="#3b5620"/>
        <path id="Trazado_280482" data-name="Trazado 280482" d="M560.254,175.243c0,3.778.013,7.556-.007,11.334-.008,1.454-.659,2.063-2.042,2.021-1.155-.035-1.779-.764-1.784-2.1q-.038-10.323-.068-20.646a17.012,17.012,0,0,1,.094-2.021,1.976,1.976,0,0,1,1.919-1.856c1.239.06,1.848.7,1.854,2.039.015,3.744.005,7.488.005,11.232h.029" transform="translate(-462.335 -134.599)" fill="#3b5620"/>
        <path id="Trazado_280483" data-name="Trazado 280483" d="M319.253,353.426c.666.054,1.269.1,1.87.152a1.654,1.654,0,0,1,1.577,1.668,1.727,1.727,0,0,1-1.185,1.909,8.029,8.029,0,0,1-4.477-.081,1.637,1.637,0,0,1-1.029-1.892,1.571,1.571,0,0,1,1.4-1.6c.63-.088,1.269-.111,1.847-.158" transform="translate(-262.598 -293.7)" fill="#3b5620"/>
        <path id="Trazado_280484" data-name="Trazado 280484" d="M319.35,473.712c-.506,0-1.014.036-1.516-.008a1.922,1.922,0,0,1-1.83-2.01,1.972,1.972,0,0,1,1.816-1.812,13.73,13.73,0,0,1,3.029.014,1.944,1.944,0,0,1,1.812,2.034c-.024,1.066-.6,1.662-1.794,1.787a14.637,14.637,0,0,1-1.516.009v-.013" transform="translate(-262.602 -390.412)" fill="#3b5620"/>
        <path id="Trazado_280485" data-name="Trazado 280485" d="M319.656,411.9a13.286,13.286,0,0,1,1.676.138,1.824,1.824,0,0,1,1.47,1.9,1.887,1.887,0,0,1-1.62,1.789,11.448,11.448,0,0,1-3.523-.042,1.87,1.87,0,0,1-.146-3.639,11.135,11.135,0,0,1,2.142-.144" transform="translate(-262.716 -342.289)" fill="#3b5620"/>
        <path id="Trazado_280486" data-name="Trazado 280486" d="M319.423,178.347c.539,0,1.08-.025,1.618.005a1.734,1.734,0,0,1,1.711,1.854,1.871,1.871,0,0,1-1.664,1.937,16.806,16.806,0,0,1-3.232,0,1.913,1.913,0,0,1,.151-3.817c.471-.016.944,0,1.416,0v.02" transform="translate(-262.701 -148.188)" fill="#3b5620"/>
        <path id="Trazado_280487" data-name="Trazado 280487" d="M319.477,237.041c.437,0,.874,0,1.311,0a1.694,1.694,0,0,1,1.885,1.622,1.84,1.84,0,0,1-1.567,2.113,12.017,12.017,0,0,1-3.518-.027,1.868,1.868,0,0,1-1.544-2.045,1.793,1.793,0,0,1,1.821-1.655c.537-.023,1.075,0,1.613,0v0" transform="translate(-262.628 -196.981)" fill="#3b5620"/>
        <path id="Trazado_280488" data-name="Trazado 280488" d="M319.247,295.955a13.92,13.92,0,0,1,1.709.013,1.7,1.7,0,0,1,1.635,1.718,1.952,1.952,0,0,1-1.621,2,13,13,0,0,1-3.514-.026,1.811,1.811,0,0,1-1.549-1.833,1.842,1.842,0,0,1,1.63-1.871,14.232,14.232,0,0,1,1.709-.012v.012" transform="translate(-262.522 -245.913)" fill="#3b5620"/>
      </g>
    </g>
  </g>
</svg>
