<svg id="Grupo_262407" data-name="Grupo 262407" xmlns="http://www.w3.org/2000/svg" xmlns:xlink="http://www.w3.org/1999/xlink" width="101.585" height="137.685" viewBox="0 0 101.585 137.685">
  <defs>
    <clipPath id="clip-path">
      <rect id="Rectángulo_326323" data-name="Rectángulo 326323" width="101.585" height="137.685" fill="none"/>
    </clipPath>
    <clipPath id="clip-path-3">
      <rect id="Rectángulo_326318" data-name="Rectángulo 326318" width="0.099" height="0.182" transform="translate(6.02 12.549)" fill="none"/>
    </clipPath>
    <clipPath id="clip-path-4">
      <rect id="Rectángulo_326319" data-name="Rectángulo 326319" width="80.766" height="94.117" transform="translate(7.858 18.404)" fill="none"/>
    </clipPath>
    <clipPath id="clip-path-5">
      <rect id="Rectángulo_326320" data-name="Rectángulo 326320" width="23.08" height="35.853" transform="translate(78.505 36.482)" fill="none"/>
    </clipPath>
    <clipPath id="clip-path-6">
      <rect id="Rectángulo_326321" data-name="Rectángulo 326321" width="38.049" height="13.102" transform="translate(36.941 62.454)" fill="none"/>
    </clipPath>
  </defs>
  <g id="Grupo_262406" data-name="Grupo 262406" clip-path="url(#clip-path)">
    <g id="Grupo_262405" data-name="Grupo 262405">
      <g id="Grupo_262404" data-name="Grupo 262404" clip-path="url(#clip-path)">
        <path id="Trazado_280924" data-name="Trazado 280924" d="M97.921,129.588c0,4.472-18.1,8.1-40.425,8.1s-40.425-3.625-40.425-8.1,18.1-8.1,40.425-8.1,40.425,3.625,40.425,8.1" fill="#decec8"/>
        <path id="Trazado_280925" data-name="Trazado 280925" d="M9.11,15.894S3.462,17.82,6.163,23.739s7.864,4.53,7.388-.807c-.369-4.141-4.441-7.038-4.441-7.038" fill="#c92121"/>
        <path id="Trazado_280926" data-name="Trazado 280926" d="M9.055,15.74s-5.527,1.65-2.841,6.847,7.741,4.013,7.241-.66c-.388-3.626-4.4-6.187-4.4-6.187" fill="#e82626"/>
        <path id="Trazado_280927" data-name="Trazado 280927" d="M74.051,115.42a13.4,13.4,0,0,1-6.428-3.993l.525-10.812-3.3-1.55-.764,12.944c-2.55,6.852-11.309,6-11.309,6,2.834,1.749,8.084.816,8.084.816l-8.932,5.911c9.547-1.018,13.8-6.076,13.8-6.076l4.548,7.158-2.2-10.521c2.628,1.4,5.978.127,5.978.127" fill="#de8a8a"/>
        <path id="Trazado_280928" data-name="Trazado 280928" d="M58.227,125.3A13.4,13.4,0,0,1,51.8,121.3l.525-10.812-3.3-1.55-.764,12.944c-2.55,6.852-11.31,6-11.31,6,2.835,1.748,8.084.815,8.084.815L36.1,134.608c9.548-1.018,13.8-6.076,13.8-6.076l4.548,7.158-2.2-10.521c2.627,1.4,5.978.127,5.978.127" fill="#e9a3a3"/>
        <path id="Trazado_280929" data-name="Trazado 280929" d="M7.2,12.789S2.57,11.894,0,17.164c0,0,7.885.352,9.11-1.27Z" fill="#e8c431"/>
        <path id="Trazado_280930" data-name="Trazado 280930" d="M8.277,14.537l.833,1.357C7.886,17.515.017,17.165,0,17.164a54.88,54.88,0,0,1,8.276-2.627" fill="#e89931"/>
        <path id="Trazado_280931" data-name="Trazado 280931" d="M6.02,12.625l.037-.059c3.281-5.1,9.186-4.379,13.9-1.463,9.754,6.032,15.234,18.453,19.1,28.694C42.45,48.731,66.672,51.666,73,31.257c0,0,10.1-38.543,22.047-1.637a46.647,46.647,0,0,1,2.09,19.359c-.755,7-3.047,15.848-9.122,23.507,2.585,12.626-1.687,29.736-36.373,40.035A33.128,33.128,0,0,1,26.147,90.237S1.555,81.1,9.4,51.15c1.6-6.088,3.963-11.872,4.7-18.181a24.989,24.989,0,0,0-.761-10.938c-1.4-4.088-4.559-6.312-7.321-9.406" fill="#cc6101"/>
        <path id="Trazado_280932" data-name="Trazado 280932" d="M14.656,13.793a1.578,1.578,0,1,0-1.67,1.483A1.58,1.58,0,0,0,14.656,13.793Z" fill="none" stroke="#4f4b47" stroke-miterlimit="10" stroke-width="0.902"/>
        <path id="Trazado_280933" data-name="Trazado 280933" d="M5.072,12.8a2.066,2.066,0,0,1-1.625-.92,1.267,1.267,0,0,1,.377-1.7c.479-.261,1.131-.122,1.549-.473.539-.452.294-1.309.063-1.974s-.273-1.617.39-1.851c.681-.24,1.33.588,2.048.52.7-.066,1.028-.921.977-1.619A7.62,7.62,0,0,1,8.669,2.7c.141-.684,1.013-1.269,1.532-.8.556.5.126,1.647.77,2.03.427.254,1-.1,1.189-.56A4.742,4.742,0,0,0,12.343,1.9,2.206,2.206,0,0,1,13.209.2a1.2,1.2,0,0,1,1.7.378c.4.91-.756,1.977-.333,2.877a1.317,1.317,0,0,0,1.723.436,5.656,5.656,0,0,0,1.5-1.266A3.39,3.39,0,0,1,21.132,1.5a2.55,2.55,0,0,1,1.556,2.219A4.016,4.016,0,0,1,21.8,6.378C20.153,8.546,17.243,9.237,14.562,9.7a22.094,22.094,0,0,0-4.986,1.242c-1.639.7-2.571,2.036-4.5,1.86" fill="#e82626"/>
        <path id="Trazado_280934" data-name="Trazado 280934" d="M80.549,56.4a41.489,41.489,0,0,1,7.462,16.086c-.309.39-.62.781-.95,1.164Z" fill="#cc6101"/>
        <path id="Trazado_280935" data-name="Trazado 280935" d="M13.341,22.031c-1.4-4.088-4.559-6.311-7.321-9.406l.038-.058c3.28-5.1,9.185-4.38,13.9-1.464,9.754,6.032,15.234,18.453,19.1,28.694a8.819,8.819,0,0,0,3.59,4.1,13.764,13.764,0,0,1-5.9-2.079,9.489,9.489,0,0,1,.992,7.737,9.12,9.12,0,0,0-2.2-3.715,9.464,9.464,0,0,1-1.934,8.874A7.982,7.982,0,0,0,32.027,49.8,23.5,23.5,0,0,1,28.5,58.834a8.972,8.972,0,0,0-1.373-5.611,14.346,14.346,0,0,0-1.386,7.257,12.361,12.361,0,0,1-4.215-8.038,7.743,7.743,0,0,0-1.353,4.572A33.309,33.309,0,0,1,16.7,44.342a9.235,9.235,0,0,1-3.32,6.98,21.434,21.434,0,0,0,.718-6.8,7.91,7.91,0,0,1-3.875,3.726c1.5-5.051,3.262-9.982,3.881-15.282a24.993,24.993,0,0,0-.761-10.939" fill="#964801"/>
        <path id="Trazado_280936" data-name="Trazado 280936" d="M60.524,45.221c5.3-2.028,10.123-6.383,12.472-13.964,0,0,10.1-38.544,22.047-1.637a46.647,46.647,0,0,1,2.09,19.359c-.75,6.952-3.021,15.732-9.008,23.356C83.5,59.848,73.524,48,60.524,45.221" fill="#964801"/>
        <path id="Trazado_280937" data-name="Trazado 280937" d="M95.426,47.263a2.281,2.281,0,0,0-3.088-.011c.342-1.145-.7-3.375-2.023-2.181.836-1.557-.164-5.31-1.68-4.5,1.817-4,.9-7.589-1.363-7.535.508-1.354.017-3.718-1.229-4.453a3.209,3.209,0,0,0-3.94.659c-1.131-1.735-4.176-.414-4.8,1.438-1.25-1.5-3.5-.433-4.4.843.029-.092.065-.177.094-.27,0,0,6.62-25.436,14.982-15.821a3.626,3.626,0,0,1,3.219-1.7c1.614.33,2.356,2.888,1.856,4.458,1.421-.8,3.317.285,3.929,1.8a7.514,7.514,0,0,1-.147,4.794c.711-.922,2.295-.639,3.017.275a4.905,4.905,0,0,1,.734,3.334,20.374,20.374,0,0,1-1.7,7.138,1.381,1.381,0,0,1,1.185-.344,2.035,2.035,0,0,1,1.425,1.572,5.253,5.253,0,0,1-.088,2.219,30.96,30.96,0,0,1-4.35,10.606c-.035.291-.076.589-.116.885-.012-.061-.018-.124-.031-.186a5.234,5.234,0,0,0-1.488-3.016" fill="#1c2124"/>
        <path id="Trazado_280938" data-name="Trazado 280938" d="M6.133,12.632A12.02,12.02,0,0,1,12.742,10.5c2.105.079,4.182.937,4.105,3.48-.066,2.2-1.882,3.208-3.8,3.22A13.734,13.734,0,0,1,8.224,16.1a3.359,3.359,0,0,1-2.091-3.473" fill="#c92121"/>
        <path id="Trazado_280939" data-name="Trazado 280939" d="M6.125,12.758a11.413,11.413,0,0,1,5.962-1.731c1.9.075,3.784.793,3.727,2.894-.05,1.816-1.687,2.642-3.423,2.642a13.447,13.447,0,0,1-4.361-.925,2.794,2.794,0,0,1-1.9-2.88" fill="#e82626"/>
        <path id="Trazado_280940" data-name="Trazado 280940" d="M14.063,13.626a1.353,1.353,0,1,0-1.43,1.271,1.353,1.353,0,0,0,1.43-1.271" fill="#e8c431"/>
        <path id="Trazado_280941" data-name="Trazado 280941" d="M13.425,13.589a.714.714,0,1,0-.755.671.714.714,0,0,0,.755-.671" fill="#1c2124"/>
        <g id="Grupo_262394" data-name="Grupo 262394" style="mix-blend-mode: multiply;isolation: isolate">
          <g id="Grupo_262393" data-name="Grupo 262393">
            <g id="Grupo_262392" data-name="Grupo 262392" clip-path="url(#clip-path-3)">
              <path id="Trazado_280942" data-name="Trazado 280942" d="M6.058,12.566c0-.006.01-.023.01-.016a1.146,1.146,0,0,0,.051.18c-.032-.036-.066-.069-.1-.1.012-.02.024-.04.037-.059" fill="#dbccc3"/>
            </g>
          </g>
        </g>
        <g id="Grupo_262397" data-name="Grupo 262397" style="mix-blend-mode: multiply;isolation: isolate">
          <g id="Grupo_262396" data-name="Grupo 262396">
            <g id="Grupo_262395" data-name="Grupo 262395" clip-path="url(#clip-path-4)">
              <path id="Trazado_280943" data-name="Trazado 280943" d="M11.374,18.4c5.045,5.459,11.137,14.786,5.855,30.271C5.395,83.366,31.669,87.249,31.669,87.249s4.368,12.757,20.059,18.652c0,0,30.332-6.193,31.13-29.939,0,0-14.292,4.88-28.433-3.032l3.093-24.364s22.762-.39,30.443,23.857a43.135,43.135,0,0,1,.645,5.021c.426,11.868-6.645,26.074-36.968,35.077A33.128,33.128,0,0,1,26.147,90.237S1.555,81.1,9.4,51.15c1.6-6.088,3.963-11.872,4.7-18.181a24.989,24.989,0,0,0-.761-10.938A13.019,13.019,0,0,0,11.374,18.4" fill="#dbccc3"/>
            </g>
          </g>
        </g>
        <g id="Grupo_262400" data-name="Grupo 262400" style="mix-blend-mode: multiply;isolation: isolate">
          <g id="Grupo_262399" data-name="Grupo 262399">
            <g id="Grupo_262398" data-name="Grupo 262398" clip-path="url(#clip-path-5)">
              <path id="Trazado_280944" data-name="Trazado 280944" d="M101.4,36.482a2.554,2.554,0,0,1,.1.273,5.253,5.253,0,0,1-.088,2.219,30.973,30.973,0,0,1-4.35,10.607v.009a45.34,45.34,0,0,1-8.935,22.746A50.591,50.591,0,0,0,78.5,56.26c4.553,6.123,13.4,9.243,17.631-8.406,3.09-4.447,4.976-9.307,5.264-11.372" fill="#d1c4ba"/>
            </g>
          </g>
        </g>
        <path id="Trazado_280945" data-name="Trazado 280945" d="M40.653,62.243A3.437,3.437,0,0,0,42.522,58.7,3.053,3.053,0,0,0,46.99,54.63a2.9,2.9,0,0,0,2.833-1.254,1.686,1.686,0,0,0-1.181-2.466A2.714,2.714,0,0,0,50.4,49.615a1.087,1.087,0,0,0-.362-1.159c8.7-.893,26.614-1.092,37.149,10.292,0,0-1.006,1.748-5.067,1.659,0,0,0,5.12-6.436,7,0,0-6.287,9.569-18.089,7.968C44.816,73.642,40.325,70.441,36.828,62.2a4.437,4.437,0,0,0,3.825.039" fill="#964801"/>
        <path id="Trazado_280946" data-name="Trazado 280946" d="M61.068,71.364c8.3,1.054,5.1-4.217,5.1-4.217,8.488-.29,2.6-5.72,2.6-5.72,7.17-.932.106-5.64.106-5.64,8.628-1.171,2.677-4.843-1.532-6.887,7.062,1.209,14.426,4,19.842,9.849,0,0-1.006,1.747-5.067,1.659,0,0,0,5.12-6.436,7,0,0-5.742,8.727-16.546,8.111,4.727-1.243,1.931-4.154,1.931-4.154" fill="#542801"/>
        <g id="Grupo_262403" data-name="Grupo 262403" style="mix-blend-mode: multiply;isolation: isolate">
          <g id="Grupo_262402" data-name="Grupo 262402">
            <g id="Grupo_262401" data-name="Grupo 262401" clip-path="url(#clip-path-6)">
              <path id="Trazado_280947" data-name="Trazado 280947" d="M74.99,68.321a19.15,19.15,0,0,1-17.4,7.054C44.95,73.66,40.422,70.5,36.941,62.454c2.7,4.484,25.358,14.855,38.049,5.867" fill="#dbccc3"/>
            </g>
          </g>
        </g>
      </g>
    </g>
  </g>
</svg>
