<svg xmlns="http://www.w3.org/2000/svg" xmlns:xlink="http://www.w3.org/1999/xlink" width="205.495" height="176.813" viewBox="0 0 205.495 176.813">
  <defs>
    <clipPath id="clip-path">
      <rect id="Rect치ngulo_326326" data-name="Rect치ngulo 326326" width="205.495" height="176.813" fill="none"/>
    </clipPath>
    <clipPath id="clip-path-3">
      <rect id="Rect치ngulo_326324" data-name="Rect치ngulo 326324" width="7.851" height="9.896" transform="translate(9.228 65.206)" fill="none"/>
    </clipPath>
  </defs>
  <g id="Grupo_262413" data-name="Grupo 262413" clip-path="url(#clip-path)">
    <g id="Grupo_262412" data-name="Grupo 262412">
      <g id="Grupo_262411" data-name="Grupo 262411" clip-path="url(#clip-path)">
        <path id="Trazado_280948" data-name="Trazado 280948" d="M204.846,168.716c0,4.472-38.395,8.1-85.758,8.1s-85.758-3.625-85.758-8.1,38.395-8.1,85.758-8.1,85.758,3.625,85.758,8.1" fill="#decec8"/>
        <path id="Trazado_280949" data-name="Trazado 280949" d="M2.539,7.433l13.826,7.262A34.965,34.965,0,0,1,31.5,30.247l.961,1.958-9.8,1.6a16.969,16.969,0,0,0-9.2-11.647A36.444,36.444,0,0,1,1.5,12.642S-1.036,9.229.489,7.679a1.749,1.749,0,0,1,2.05-.246" fill="#6b6561"/>
        <path id="Trazado_280950" data-name="Trazado 280950" d="M23.463,21.972A35,35,0,0,0,16.2,16.89L2.377,9.628s-.539,3.856,15.438,11.907c0,0,5.488,3.5,7.065,8.355,1.231,3.8,3.292-.271.288-5.779Z" fill="#4f4b47"/>
        <path id="Trazado_280951" data-name="Trazado 280951" d="M24.416,22.872q-.468-.459-.952-.9l1.7,2.14q-.333-.61-.753-1.24" fill="#d19292"/>
        <path id="Trazado_280952" data-name="Trazado 280952" d="M81.883,40.053c-1.107-1.214-2.4-2.5-3.85-3.831-.241.215-.481.432-.712.659s-.7-.033-.56-.35a10.317,10.317,0,0,1,.518-.99c-1.664-1.484-3.525-3.011-5.528-4.534a5.9,5.9,0,0,1-1.578,1.018.348.348,0,0,1-.488-.4,9.719,9.719,0,0,1,.648-1.678,104.767,104.767,0,0,0-9.652-6.288,13.268,13.268,0,0,1-1.963,2.153.346.346,0,0,1-.56-.35c.3-.913.564-1.837.814-2.764a82.675,82.675,0,0,0-13.953-6.155c-.3-.1-.589-.186-.882-.276.043.6.1,1.2.189,1.8a.348.348,0,0,1-.344.419h-.114a.347.347,0,0,1-.324-.265c-.172-.786-.511-1.561-.756-2.347-25.1-6.978-32.742,12.257-32.742,12.257a9.65,9.65,0,0,1,8.9-1.712c-5.008-.942-7.918,2.4-8.475,4.365,3.21-2.867,9.115-2.58,7.276-2.14-3.937.942-6.548,5.478-6.548,5.478a46.352,46.352,0,0,1,7.4-3.424c6.163-9.929,15.99-7.44,19.452-7.076,17.805,3.424,22.6,14.609,35.609,19.516,9.472.685,8.217-3.081,8.217-3.081" fill="#5e5955"/>
        <path id="Trazado_280953" data-name="Trazado 280953" d="M81.883,39.915c-1.107-1.213-2.4-2.5-3.85-3.83-.241.214-.481.432-.712.658s-.7-.032-.56-.349a10.069,10.069,0,0,1,.518-.989c-1.663-1.485-3.525-3.012-5.528-4.535a5.867,5.867,0,0,1-1.578,1.017.347.347,0,0,1-.488-.4,9.688,9.688,0,0,1,.648-1.678,104.767,104.767,0,0,0-9.652-6.288,13.227,13.227,0,0,1-1.963,2.153.346.346,0,0,1-.56-.35c.3-.913.564-1.838.814-2.764a82.675,82.675,0,0,0-13.953-6.155c-.3-.1-.589-.186-.882-.276.043.6.1,1.2.189,1.8a.349.349,0,0,1-.344.42h-.114a.348.348,0,0,1-.324-.267c-.172-.785-.511-1.56-.756-2.347-11.5-3.2-19.332-.89-24.447,2.545,5.069-.4,11.731.694,20.039,5.272C55.915,27.047,60.735,38.12,73.666,43c9.472.685,8.217-3.082,8.217-3.082" fill="#4f4c48"/>
        <path id="Trazado_280954" data-name="Trazado 280954" d="M193.88,63.763c4.261,6.735,4.676,17.964,4.643,21.941,0,.621-.035,1.208-.081,1.784q1.971-.1,3.945-.159c0-.341,0-.689.017-1.054,1.826-7.3-5.363-35.706-14.434-36.943l-1.176,3.011c3.09,2.767,5.457,7.92,7.086,11.42" fill="#736c68"/>
        <path id="Trazado_280955" data-name="Trazado 280955" d="M194,110.541c1.132,3.2,2.861,6.163,4,9.361s1.643,6.823.29,9.936c3.449-2.06,5.073-6.242,5.493-10.238s-.118-8.038.189-12.043c.334-4.37,1.671-8.661,1.514-13.04-.1-2.925-1.17-7.034-3.761-8.8-3.133-2.131-5.42,1.731-6.58,4.188A27.466,27.466,0,0,0,194,110.541" fill="#4f4b47"/>
        <path id="Trazado_280956" data-name="Trazado 280956" d="M111.212,145.242a15.641,15.641,0,0,1-1.374,15.284,9.88,9.88,0,0,0-4.78,6.952c4.908-.114,8.7-.268,13.605-.382l.167-6.5c-.205-1.556.227-4.5,1.417-5.527a4.743,4.743,0,0,0,1.27-5.461L115.6,135.765a58.649,58.649,0,0,1-3.822-12.841c-.694-3.922-1.83-9.805-3.636-17.931C104.373,88.044,80.171,90.1,80.171,90.1Z" fill="#736c68"/>
        <path id="Trazado_280957" data-name="Trazado 280957" d="M100.326,119.989a60.233,60.233,0,0,1,9.015,4.8c1.128.721,2.231,1.477,3.323,2.248-.366-1.43-.683-2.873-.941-4.329-.694-3.923-1.831-9.806-3.637-17.932C104.32,87.83,80.118,89.884,80.118,89.884l16.1,28.6q2.089.654,4.109,1.5" fill="#66615c"/>
        <path id="Trazado_280958" data-name="Trazado 280958" d="M151.452,97.631l4.622,28.247c.571,5.478-.342,13.695-3.2,25.793,0,0-2.055,6.163-5.022,9.245a7.24,7.24,0,0,0-3.2,3.423,7.037,7.037,0,0,0-.57,3.139c4.907-.114,7.915-.018,12.822-.132l.25-6.75a8.339,8.339,0,0,1,2.168-5.573,4.741,4.741,0,0,0,1.218-5.415l10.933-37.426s7.012-16.092,3.245-33.04-27.9,6.677-27.9,6.677Z" fill="#736c68"/>
        <path id="Trazado_280959" data-name="Trazado 280959" d="M153.481,111.986q6.5,8.993,12.51,18.326l5.216-17.854s7.012-16.093,3.245-33.041-27.9,6.677-27.9,6.677l4.622,11.812Z" fill="#66615c"/>
        <path id="Trazado_280960" data-name="Trazado 280960" d="M31.627,20.537s-13.239-.228-17.119,15.978L3.312,59.557a9.758,9.758,0,0,0,.238,9.107c1.363,2.433,3.3,5.113,5.708,6.427l2.282-2.055a37.632,37.632,0,0,0,7.533-1.255c5.021-1.6,6.343-14.63,19.744-15.293,11.527-.571,12.544,23.829,28.647,37.776,24.569,21.282,63.684,24.424,90.618,3.424l31.271-10.5s13.924-29.445-2.967-41.086-30.355-2.966-38.3-1.712c-19.516,3.081-61.63,3.937-74.747-4.39-7.478-4.747-28.874-20.407-41.715-19.463" fill="#8f8681"/>
        <path id="Trazado_280961" data-name="Trazado 280961" d="M38.159,24C49.038,27.689,54.8,33.2,65.113,38.159c6.64,3.193,13.782,5.9,21.016,6.252-5.228-1.021-9.591-2.419-12.512-4.273C66.139,35.39,44.743,19.73,31.9,20.674a15.234,15.234,0,0,0-4.588.85C29.637,22.168,36.1,23.3,38.159,24" fill="#7d7571"/>
        <path id="Trazado_280962" data-name="Trazado 280962" d="M17.885,42.022h0a1.979,1.979,0,0,0,1.359-.218l.674-.381s3.309,1.37,4.964-.8a3.232,3.232,0,0,0,.344-1.084l1.768-.114a9.16,9.16,0,0,0-5.74-1.707,2.832,2.832,0,0,0-1.681,1.12Z" fill="#3b3835"/>
        <path id="Trazado_280963" data-name="Trazado 280963" d="M20.753,38.971a.618.618,0,0,0-.648.9,2.411,2.411,0,0,0,4.381.28.652.652,0,0,0-.516-.943c-1.072-.107-2.149-.185-3.217-.234" fill="#242120"/>
        <path id="Trazado_280964" data-name="Trazado 280964" d="M24.083,62.353c-.791-2.668-3.148-4.546-5.5-6.035s-6.676-2.863-8.328-5.1a5.774,5.774,0,0,1-1.044-3.868L3.29,59.534a9.755,9.755,0,0,0,.237,9.107c1.362,2.433,3.3,5.113,5.708,6.427l2.283-2.055s4.559.325,7.674-1.118a8.979,8.979,0,0,0,5.041-5.521,8.758,8.758,0,0,0-.15-4.021" fill="#baafa8"/>
        <path id="Trazado_280965" data-name="Trazado 280965" d="M5.3,66.617A4.285,4.285,0,0,1,4.1,63.376c.084-1.258.989-3.122,2.662-3.122a2.245,2.245,0,0,1,.994.241,2.208,2.208,0,0,1,.879.792,4.2,4.2,0,0,1,.375.776l.021.052a5.431,5.431,0,0,1,.4,1.955A6.036,6.036,0,0,1,8.4,67.387c-.049.082-.093.153-.127.215l-.7,1.285Z" fill="#a69c96"/>
        <path id="Trazado_280966" data-name="Trazado 280966" d="M7.715,61.887a1.1,1.1,0,0,0-.442-.405c-1.195-.589-2.009,1-2.074,1.97a3.19,3.19,0,0,0,.875,2.387l1.233,1.234a5.478,5.478,0,0,0,1.028-2.989,4.365,4.365,0,0,0-.323-1.562,3.547,3.547,0,0,0-.3-.635" fill="#7d7571"/>
        <path id="Trazado_280967" data-name="Trazado 280967" d="M159.382,95.787c-2.749-5.91-4.537-11.126-4.387-14.525-.487,4.933-6.847,20.958-32.661,22.184C107.063,104.171,96.1,96.81,94.1,94.29c-2.138-2.693-2.953-7.009-3.436-10.369l-.519,14.551C76.231,93.643,61.066,88.045,52.636,72.1,58.684,86.3,65.052,92.367,67.572,94.55c23.258,20.146,61.848,26.3,93.551,1.374-.489.1-1.238-.238-1.741-.137" fill="#7d7571"/>
        <path id="Trazado_280968" data-name="Trazado 280968" d="M154.995,81.261q.081-.824.127-1.692s-.081.646-.127,1.692" fill="#7d7571"/>
        <path id="Trazado_280969" data-name="Trazado 280969" d="M68.594,90.27,80.75,131.316c.6,2.027,2.466,4.49,3.423,6.375a48.787,48.787,0,0,1,4.508,19.417,5.447,5.447,0,0,1-1.706,4.119c-2.323,2.177-6.359,6.482-7.082,10.7l14.894-.513-.682-7.636a3.3,3.3,0,0,1,1.456-3.038,5.061,5.061,0,0,0,1.926-6.029,65.478,65.478,0,0,1-4.512-23.489C93,129.192,91,92.139,90.662,83.921c0,0-7-5.635-25.663-7Z" fill="#8f8681"/>
        <path id="Trazado_280970" data-name="Trazado 280970" d="M159.041,94.721h0l19.174,36.749s-2.283,23.968-5.935,28.3c0,0-8.674,3.88-9.815,11.641h15.293v-9.131l1.527-.132a4.556,4.556,0,0,0,4.133-4.015c.812-7.028,2.712-22.059,4.612-26.9,0,0,5.25-3.88,1.6-11.869,0,0-5.284-13.439-.079-32.594a6.135,6.135,0,0,0-.475-4.465l-.018-.033c-4.933-9.373-16.8-13.331-26.177-8.395a17.1,17.1,0,0,0-2.426,1.54c-6.158,4.709-6.981,6.892-1.412,19.295" fill="#8f8681"/>
        <path id="Trazado_280971" data-name="Trazado 280971" d="M60.837,83,62.8,84.6a1.5,1.5,0,0,0,2.257-1.078l.318-8.075,3.436,16.768s-2.473-.55-7.971-9.209" fill="#7d7571"/>
        <path id="Trazado_280972" data-name="Trazado 280972" d="M201.487,111.939c-1.137-3.2-2.866-6.161-4-9.361-2.339-6.612-1.517-10.931,1.431-17.278-1.711.676-3,2.958-3.779,4.609A27.467,27.467,0,0,0,194,110.54c1.132,3.2,2.861,6.163,4,9.361s1.643,6.824.29,9.936a10.556,10.556,0,0,0,4.143-4.957c-.1.064-.193.132-.294.193,1.353-3.113.489-9.936-.648-13.134" fill="#403d39"/>
        <path id="Trazado_280973" data-name="Trazado 280973" d="M23.568,39.459a1.329,1.329,0,1,1-1.329-1.329,1.329,1.329,0,0,1,1.329,1.329" fill="#1a1817"/>
        <path id="Trazado_280974" data-name="Trazado 280974" d="M21.6,39.31a.607.607,0,1,1-.607-.607.607.607,0,0,1,.607.607" fill="#baafa8"/>
        <path id="Trazado_280975" data-name="Trazado 280975" d="M179.674,119.654l-.068-.02c.125.172.068.02.068.02" fill="#998f8a"/>
        <path id="Trazado_280976" data-name="Trazado 280976" d="M182.12,59.127a18.319,18.319,0,0,0-3.854-4.406c-8.166-6.805-20.557-1.089-21.032,9.531-.3,6.611,1.351,15.8,7.729,28.008,3.127,5.984,5.589,10.668,7.532,14.338.11-5.783,2.277-14.049,8.616-25.819,3.642-6.762,5.058-15.125,1.009-21.652" fill="#998f8a"/>
        <path id="Trazado_280977" data-name="Trazado 280977" d="M86.685,65.388a18.141,18.141,0,0,0-2.577-4.406c-5.461-6.805-13.747-1.088-14.065,9.531-.2,6.611.9,15.8,5.169,28.008,2.091,5.984,3.738,10.668,5.037,14.338.073-5.783,1.522-14.049,5.762-25.819,2.435-6.762,3.381-15.125.674-21.652" fill="#998f8a"/>
        <path id="Trazado_280978" data-name="Trazado 280978" d="M13.969.385l12.471,9.4A34.971,34.971,0,0,1,38.86,27.58l.631,2.087H29.562c-.279-5.2-2.232-7.789-6.255-11.555C20.5,15.484,15.43,10.933,12.1,5.358c0,0-1.95-3.778-.194-5.062a1.75,1.75,0,0,1,2.063.089" fill="#8f8681"/>
        <path id="Trazado_280979" data-name="Trazado 280979" d="M32.1,19.313a34.943,34.943,0,0,0-6.342-6.188l-12.471-9.4s-.592,2.4,12.761,14.218c0,0,4.794,4.707,5.564,9.758.6,3.945,3.9-.078,1.825-6Z" fill="#736c68"/>
        <path id="Trazado_280980" data-name="Trazado 280980" d="M32.1,19.233a34.943,34.943,0,0,0-6.342-6.188l-12.471-9.4s-.592,2.4,12.761,14.218c0,0,4.794,4.707,5.564,9.758.6,3.945,3.9-.078,1.825-6Z" fill="#736c68"/>
        <path id="Trazado_280981" data-name="Trazado 280981" d="M33.379,28.73a3.734,3.734,0,0,1-.094-.455c-.81-5.306-5.637-10.1-5.842-10.3l-.037-.034A105.61,105.61,0,0,1,17.612,8.37L25.9,14.616a34,34,0,0,1,6.119,5.958l1.257,2.244c1,2.91.549,5.083.105,5.912" fill="#4f4b47"/>
        <path id="Trazado_280982" data-name="Trazado 280982" d="M145.546,82c0,7.439-10.133,13.469-22.632,13.469S100.282,89.436,100.282,82s10.133-13.469,22.632-13.469S145.546,74.558,145.546,82" fill="#998f8a"/>
        <path id="Trazado_280983" data-name="Trazado 280983" d="M94.509,161.9H86.28c-2.356,2.316-5.731,6.207-6.387,10.033l14.894-.513-.682-7.636a3.289,3.289,0,0,1,.4-1.884" fill="#4f4b47"/>
        <path id="Trazado_280984" data-name="Trazado 280984" d="M168.8,161.9c-2.552,1.9-5.682,5.07-6.336,9.52h15.293l-.176-9.116Z" fill="#4f4b47"/>
        <path id="Trazado_280985" data-name="Trazado 280985" d="M109.841,160.521l0,0a9.939,9.939,0,0,0-3.3,3.129,18.792,18.792,0,0,0-2.1,5.117l14.722-.342-.249-7.908Z" fill="#403d39"/>
        <path id="Trazado_280986" data-name="Trazado 280986" d="M148.174,160.521l0,0a9.939,9.939,0,0,0-3.3,3.129,18.792,18.792,0,0,0-2.1,5.117l14.722-.342-.249-7.908Z" fill="#403d39"/>
        <g id="Grupo_262410" data-name="Grupo 262410" opacity="0.76">
          <g id="Grupo_262409" data-name="Grupo 262409">
            <g id="Grupo_262408" data-name="Grupo 262408" clip-path="url(#clip-path-3)">
              <path id="Trazado_280987" data-name="Trazado 280987" d="M9.228,75.1a60.224,60.224,0,0,0,6.8-9.9,12.928,12.928,0,0,1-.7,2.887,13.027,13.027,0,0,1-.632,1.435,1.8,1.8,0,0,0,.229,2.061l.014.015a2.55,2.55,0,0,0,2.141,1.007,30.336,30.336,0,0,1-5.562.4S10.278,74.242,9.228,75.1" fill="#7d7571"/>
            </g>
          </g>
        </g>
        <path id="Trazado_280988" data-name="Trazado 280988" d="M49.694,43.769a19,19,0,0,0-1.64-11.743A15.929,15.929,0,0,0,46.817,30c-.275-.382-.572-.747-.878-1.1.418,3.166.965,6.735.085,9.793a14.75,14.75,0,0,1-7.141,9.029,34.85,34.85,0,0,1-8.226,2.848c-2.572,3.794-5.468,7.088-7.543,9.758a10.057,10.057,0,0,1,1.215,5.841L26.1,63.64a18.142,18.142,0,0,1,5.721-5.275,27.428,27.428,0,0,1,7-1.831c4.573-.227,7.491,3.478,10.354,8.9-2.587-8.991.472-18.46.523-21.664" fill="#7d7571"/>
        <path id="Trazado_280989" data-name="Trazado 280989" d="M24.083,62.353a7.378,7.378,0,0,0-1.037-2.112c-.966,2-2.006,3-2.965,4.8,1.319,5.8-2.143,7.071-2.328,7.381a9.877,9.877,0,0,0,1.439-.522,8.977,8.977,0,0,0,5.041-5.521,8.758,8.758,0,0,0-.15-4.021" fill="#a69c96"/>
      </g>
    </g>
  </g>
</svg>
