<svg xmlns="http://www.w3.org/2000/svg" width="190" height="161" viewBox="0 0 190 161">
  <g id="Grupo_1075872" data-name="Grupo 1075872" transform="translate(-14530 1823)">
    <rect id="Rectángulo_378515" data-name="Rectángulo 378515" width="190" height="161" transform="translate(14530 -1823)" fill="none"/>
    <g id="Grupo_1075857" data-name="Grupo 1075857" transform="translate(124.899 -8.187)">
      <path id="Trazado_816197" data-name="Trazado 816197" d="M201.648,1558.185a16.021,16.021,0,0,0-.687,4.185,63.54,63.54,0,0,1-123.992,7.854c-8.875-30.864,7.479-64.249,37.251-76.12a65.346,65.346,0,0,1,18.093-4.392c.221-.022.515.093.607-.253h9.925c.054.193.2.223.374.23a44.493,44.493,0,0,1,6.016.746,63.058,63.058,0,0,1,35.941,19.857,2.021,2.021,0,0,1,.278,2.79c-1.327.908-1.976.837-3.1-.351a48.248,48.248,0,0,0-6.409-5.981h-.01c-.1-.085-.206-.173-.309-.258-.3-.274-.592-.573-.919-.817-13-9.753-27.564-13.966-43.736-12.009-17.23,2.083-31.118,10.246-41.21,24.282-12.005,16.694-14.428,35.09-8.127,54.6a52.761,52.761,0,0,0,10.01,17.929l.251.315,0,.014a32.12,32.12,0,0,0,3.526,3.982c15.228,14.946,33.41,20.643,54.354,16.788,14.926-2.749,26.97-10.559,36.091-22.639,9.933-13.159,13.607-28.071,11.456-44.382a57.445,57.445,0,0,0-9.188-24.347c-.742-1.124-.851-2.111.161-3.094,1.567-.506,2.066-.328,2.978,1.07a63.145,63.145,0,0,1,9.7,25.533,19.4,19.4,0,0,0,.675,4.3Z" transform="translate(14358.221 -3270.273)" fill="#040303"/>
      <path id="Trazado_816198" data-name="Trazado 816198" d="M188.524,1516.144c.668,1.539,2.023,2.594,2.836,4.029-1.011.982-.9,1.97-.161,3.095a57.44,57.44,0,0,1,9.188,24.346c2.151,16.31-1.523,31.224-11.456,44.382-9.12,12.081-21.164,19.89-36.091,22.638-20.944,3.856-39.126-1.842-54.354-16.786a32.074,32.074,0,0,1-3.526-3.983c.352-.154.637.044.929.181,1.482.7,2.934,1.47,4.451,2.079,1.176.473,2.266,1.278,3.638,1.152a3.812,3.812,0,0,1,.405.274,53.778,53.778,0,0,0,35.684,13.94c16.541.265,30.581-5.754,41.9-17.839a55.484,55.484,0,0,0,9.04-62.151,62.376,62.376,0,0,0-8.579-12.682c.364-.42-.015-.792-.136-1.13a53.4,53.4,0,0,0-2.853-6.514c-.216-.421-.59-.816-.426-1.363a48.37,48.37,0,0,1,6.409,5.981c1.125,1.186,1.773,1.257,3.1.35" transform="translate(14355.15 -3273.337)" fill="#f9969d"/>
      <path id="Trazado_816199" data-name="Trazado 816199" d="M176.6,1507.411c-.164.549.21.943.426,1.364a53.667,53.667,0,0,1,2.853,6.514c.12.338.5.709.135,1.131-.292-.291-.59-.576-.875-.873-9.625-10.019-21.328-15.9-35.168-17.141a54.369,54.369,0,0,0-39.522,11.646,55.533,55.533,0,0,0-14.5,69.979c.8,1.455,1.236,1.657,2.905,1.33l2.727,4.01c-1.007,1.332-1,1.842.031,3.139a67.628,67.628,0,0,0,5.947,6.367c-1.371.126-2.462-.679-3.638-1.152-1.517-.609-2.969-1.381-4.451-2.079-.292-.138-.578-.335-.929-.181l0-.013a.269.269,0,0,0-.251-.315,52.759,52.759,0,0,1-10.009-17.929c-6.3-19.508-3.879-37.9,8.126-54.6,10.093-14.035,23.98-22.2,41.211-24.282,16.172-1.956,30.736,2.257,43.735,12.008.327.245.614.544.92.817a.282.282,0,0,0,.309.26Z" transform="translate(14357.565 -3270.936)" fill="#f9b1b7"/>
      <path id="Trazado_816210" data-name="Trazado 816210" d="M193.84,1509.767a.28.28,0,0,1-.309-.259l.309.259" transform="translate(14340.314 -3273.291)" fill="#f9969d"/>
      <path id="Trazado_816217" data-name="Trazado 816217" d="M94.669,1608.37a.269.269,0,0,1,.251.315l-.251-.315" transform="translate(14355.194 -3288.171)" fill="#f9969d"/>
      <path id="Trazado_816200" data-name="Trazado 816200" d="M102.337,1595.636a67.392,67.392,0,0,1-5.946-6.366c-1.027-1.3-1.038-1.807-.031-3.138,1.255-.6,2.154-.175,3,.86a48.427,48.427,0,0,0,13.672,11.811c.234.164.456.348.7.488a51.818,51.818,0,0,0,67.921-14.883c8.456-11.775,11.279-24.964,8.81-39.252A46.733,46.733,0,0,0,184,1528.028a4.939,4.939,0,0,0-.313-.663c-11.924-17.955-28.588-26.342-50.111-24.309-12.12,1.144-22.4,6.519-30.965,15.146-1.442,1.452-1.42,1.474-.173,3.012.26.321.528.637.774.968,3.434,4.621,5.291,9.682,4.349,15.53a21.917,21.917,0,0,1-3.52,8.385,22.141,22.141,0,0,0-3.066,6.592c-.806,3.224.193,5.365,3.168,6.831a21.608,21.608,0,0,0,5.319,1.595c5.124,1.043,10.583,1.024,14.859,4.77.363-1.23.652-2.349,1.024-3.439.674-1.972.695-1.964-1.477-2.088a5.9,5.9,0,0,1-5.892-6.3,5.824,5.824,0,0,1,6.458-5.405c2.391.142,4.778.445,7.17.5.975.023,2.123.852,2.977-.3a8.044,8.044,0,0,0,1.222-2.955c.068-.281.059-.581.142-.855.229-.762-.019-1.04-.761-.739-3.147,1.272-6.463,1.029-9.751,1.277-4.795.362-7.734-1.621-9.249-6.036-.04-.116-.109-.223-.155-.336a6.054,6.054,0,0,1,.821-6.419,16.446,16.446,0,0,0,3.118-6.934,34.141,34.141,0,0,1,1.98-6.5c3.913-9.03,11.765-13.432,20.211-12.963a25.373,25.373,0,0,1,18.986,9.884,68.565,68.565,0,0,1,12.41,24.6c.4,1.406.118,1.944-1.238,2.689-1.618-.064-1.99-.354-2.453-2.033a63.406,63.406,0,0,0-6.262-14.853,41.422,41.422,0,0,0-5.4-8.081,21.815,21.815,0,0,0-11.668-7.725c-7.036-1.887-13.285-.593-18.211,5.1a22.061,22.061,0,0,0-4.624,10.276,18.039,18.039,0,0,1-3.3,7.925c-1.3,1.6-1.492,3.029-.409,4.716a9.789,9.789,0,0,1,.607,1.217,2.835,2.835,0,0,0,2.761,1.7,31.618,31.618,0,0,0,13.142-1.758,5.5,5.5,0,0,1,.832-.239,1.867,1.867,0,0,1,2.543,1.974c.021,1.055,0,2.11,0,3.248a13.406,13.406,0,0,0,1.031-2.522c.51-1.2,1.388-1.685,2.419-1.318,1.1.391,1.5,1.339,1.06,2.638-.314.937-.674,1.86-1.014,2.79-1.789,4.884-5.226,6.985-10.359,6.448-2.959-.309-5.93-.5-8.9-.7a2.09,2.09,0,0,0-2.42,1.923,2.135,2.135,0,0,0,2.066,2.323c3.583.3,7.165.652,10.756.792a12.819,12.819,0,0,0,12.489-8.253c.533-1.341.974-2.718,1.512-4.056a1.845,1.845,0,1,1,3.462,1.272c-.453,1.368-.941,2.729-1.482,4.065a16.55,16.55,0,0,1-11.729,10.274,21.348,21.348,0,0,1-7.516.245c-.469-.044-1.043-.381-1.4.342a17.165,17.165,0,0,0-1.372,12.527,3.891,3.891,0,0,0,1.577-2.123,12.875,12.875,0,0,1,5.6-6.709c1.2-.783,2.262-.742,2.931.214a1.883,1.883,0,0,1-.713,2.763,12.211,12.211,0,0,0-4.687,5.721,9.119,9.119,0,0,1-9.491,5.331,18.528,18.528,0,0,1-6.005-1.835,2.127,2.127,0,0,0-3.047.951,2.1,2.1,0,0,0,1.158,2.876,20.569,20.569,0,0,0,8.748,2.441c5.571.277,10.565-1.488,15.25-4.319a35.353,35.353,0,0,0,6.286-4.812,1.854,1.854,0,0,1,3.135,1.777,2.374,2.374,0,0,1-.861,1.182,39.937,39.937,0,0,1-11.761,7.683c-.276.116-1.047-.08-.709.784.716,1.824.239,2.667-1.681,3.057a24.983,24.983,0,0,1-9.973-.025,30.051,30.051,0,0,1-12.392-5.918c-.081-.058-.2-.183-.234-.161-.175.1-.079.24,0,.364a19.611,19.611,0,0,0,2.91,4.582l.282.373.067.087c.505.6.969,1.236,1.521,1.788,6.161,6.172,13.777,8.671,22.32,8.771a28.089,28.089,0,0,0,14.641-3.456c6.3-3.611,10.331-9.163,13.167-15.646a61.736,61.736,0,0,0,5.079-28.373c-.1-1.854.165-2.3,1.693-2.811a1.985,1.985,0,0,1,2.012,2.057,61.964,61.964,0,0,1-.652,14.053,99.451,99.451,0,0,1-2.1,9.77,5.643,5.643,0,0,0-.245.556,51.244,51.244,0,0,1-6.025,12.968c-5.083,7.657-11.968,12.689-21.158,14.148a38.789,38.789,0,0,1-21.462-2.559c-1.2-.635-2.444-1.212-3.606-1.916-8.319-5.038-12.924-12.628-15.045-21.932-.262-1.149-.184-2.1.951-2.621,1.158-.527,1.935.121,2.6,1.042.629.868,1.349,1.67,2.027,2.5.311.383.475.382.787-.087,2.2-3.314,4.807-4.026,8.4-2.333a12.9,12.9,0,0,0,4.371,1.287c.423.037.834.116.7-.6-.738-3.969-2.819-6.815-6.746-8.112a41.175,41.175,0,0,0-6.178-1.276c-3.256-.546-6.54-.995-9.544-2.492a8.93,8.93,0,0,1-5.222-10.188,18.337,18.337,0,0,1,1.354-4.235,71.575,71.575,0,0,1,3.657-6.46c3.748-6.7,1.658-14-3.5-19.244a51.678,51.678,0,0,0-4.633,56.335,2.2,2.2,0,0,1-.4,3.086c-1.669.328-2.109.126-2.9-1.33a55.532,55.532,0,0,1,14.495-69.979,54.371,54.371,0,0,1,39.522-11.646c13.84,1.241,25.543,7.122,35.168,17.141.285.3.583.582.875.873a62.351,62.351,0,0,1,8.58,12.681,55.485,55.485,0,0,1-9.04,62.151c-11.319,12.086-25.36,18.1-41.9,17.839a53.775,53.775,0,0,1-35.685-13.94,3.86,3.86,0,0,0-.405-.275" transform="translate(14356.791 -3271.697)" fill="#040202"/>
      <path id="Trazado_816201" data-name="Trazado 816201" d="M94.293,1586.333a2.2,2.2,0,0,0,.4-3.085,51.678,51.678,0,0,1,4.633-56.335c5.162,5.245,7.252,12.544,3.5,19.243a71.505,71.505,0,0,0-3.657,6.462,18.317,18.317,0,0,0-1.354,4.234,8.927,8.927,0,0,0,5.222,10.187c3,1.5,6.288,1.946,9.544,2.493a41.175,41.175,0,0,1,6.178,1.276c3.926,1.3,6.007,4.143,6.746,8.112.133.719-.278.64-.7.6a12.9,12.9,0,0,1-4.371-1.287c-3.59-1.692-6.2-.979-8.4,2.333-.312.469-.476.47-.787.087-.679-.832-1.4-1.634-2.027-2.5-.669-.921-1.446-1.568-2.6-1.041-1.136.516-1.214,1.47-.951,2.621,2.121,9.3,6.726,16.893,15.044,21.931,1.163.7,2.4,1.28,3.607,1.916a4.691,4.691,0,0,1-2.425.14c-2.738-.207-5.473-.465-8.209-.7a48.427,48.427,0,0,1-13.672-11.811c-.842-1.034-1.741-1.463-3-.86l-2.727-4.012" transform="translate(14356.131 -3275.911)" fill="#fb636e"/>
      <path id="Trazado_816203" data-name="Trazado 816203" d="M119.4,1589.612a19.679,19.679,0,0,1-2.91-4.581l.239-.2a30.063,30.063,0,0,0,12.392,5.917,24.972,24.972,0,0,0,9.973.025c1.92-.389,2.4-1.233,1.681-3.058-.339-.862.433-.667.709-.784a39.857,39.857,0,0,0,11.76-7.683,2.372,2.372,0,0,0,.861-1.18,1.854,1.854,0,0,0-3.135-1.777,35.315,35.315,0,0,1-6.287,4.811c-4.685,2.83-9.678,4.595-15.249,4.319a20.58,20.58,0,0,1-8.748-2.44,2.1,2.1,0,0,1-1.158-2.878,2.128,2.128,0,0,1,3.047-.951,18.485,18.485,0,0,0,6,1.835,9.118,9.118,0,0,0,9.491-5.33,12.209,12.209,0,0,1,4.687-5.721,1.882,1.882,0,0,0,.714-2.763c-.669-.957-1.73-1-2.932-.214a12.871,12.871,0,0,0-5.6,6.708,3.886,3.886,0,0,1-1.578,2.123,17.155,17.155,0,0,1,1.373-12.525c.358-.725.932-.386,1.4-.342a21.387,21.387,0,0,0,7.516-.246A16.553,16.553,0,0,0,155.38,1552.4c.541-1.336,1.03-2.7,1.482-4.065a1.844,1.844,0,1,0-3.461-1.272c-.539,1.338-.98,2.715-1.512,4.055a12.819,12.819,0,0,1-12.49,8.255c-3.59-.139-7.173-.5-10.756-.793a2.133,2.133,0,0,1-2.066-2.322,2.092,2.092,0,0,1,2.421-1.925c2.969.2,5.94.39,8.9.7,5.133.537,8.571-1.563,10.36-6.447.34-.929.7-1.853,1.013-2.792.436-1.3.042-2.245-1.059-2.638-1.032-.368-1.911.115-2.42,1.318a13.421,13.421,0,0,1-1.031,2.521c0-1.137.017-2.193,0-3.248a1.868,1.868,0,0,0-2.543-1.974,5.477,5.477,0,0,0-.832.239,31.653,31.653,0,0,1-13.143,1.759,2.84,2.84,0,0,1-2.76-1.7,9.8,9.8,0,0,0-.607-1.217c-1.082-1.687-.887-3.118.409-4.718a18.021,18.021,0,0,0,3.3-7.925,22.069,22.069,0,0,1,4.625-10.275c4.925-5.7,11.173-6.988,18.21-5.1a21.82,21.82,0,0,1,11.669,7.724,1.906,1.906,0,0,0,.266,1.185c.991,2.173,1.961,4.353,2.83,6.582a52.153,52.153,0,0,1,3.284,25.321,66.382,66.382,0,0,1-3.671,15.8c-2.554,6.784-6.1,12.87-11.835,17.475a25.724,25.724,0,0,1-10.7,5.172,36.494,36.494,0,0,1-10.625.777,36.021,36.021,0,0,1-10.45-2.177c-.764-.3-1.486-.951-2.427-.624l-.068-.086c.143-.3-.076-.335-.282-.374m27.983-59.176a5.385,5.385,0,0,0,4.277-1.888c.892-1.045.923-2.085.1-2.859-.841-.789-1.834-.71-2.808.31a1.654,1.654,0,0,1-2.306.4,1.628,1.628,0,0,1-.466-2.288c.572-1.247.253-2.251-.779-2.717a1.9,1.9,0,0,0-2.552,1.073,5.363,5.363,0,0,0,4.532,7.967m-11.237-7.775a1.919,1.919,0,0,0-1.865,1.9,1.858,1.858,0,0,0,3.714,0,1.891,1.891,0,0,0-1.848-1.9" transform="translate(14351.909 -3273.67)" fill="#fcd0a2"/>
      <path id="Trazado_816202" data-name="Trazado 816202" d="M175.264,1544.234c1.356-.746,1.634-1.284,1.238-2.689a68.562,68.562,0,0,0-12.41-24.6,25.379,25.379,0,0,0-18.986-9.885c-8.447-.469-16.3,3.933-20.211,12.964a34.155,34.155,0,0,0-1.98,6.5,16.427,16.427,0,0,1-3.118,6.934,6.054,6.054,0,0,0-.821,6.419c.046.116.115.222.155.337,1.515,4.417,4.455,6.4,9.249,6.036,3.288-.248,6.6,0,9.751-1.277.742-.3.99-.021.761.739-.082.275-.074.575-.142.855a8.056,8.056,0,0,1-1.222,2.956c-.854,1.158-2,.327-2.977.306-2.392-.055-4.778-.359-7.17-.5a5.825,5.825,0,0,0-6.458,5.405,5.9,5.9,0,0,0,5.892,6.3c2.172.126,2.151.118,1.477,2.088-.372,1.091-.661,2.21-1.024,3.439-4.276-3.745-9.735-3.727-14.859-4.768a21.676,21.676,0,0,1-5.319-1.594c-2.975-1.467-3.974-3.607-3.168-6.831a22.131,22.131,0,0,1,3.066-6.594,21.912,21.912,0,0,0,3.52-8.385c.942-5.848-.915-10.908-4.349-15.528-.246-.332-.514-.648-.774-.969-1.247-1.537-1.269-1.56.173-3.012,8.57-8.625,18.845-14,30.965-15.146,21.523-2.031,38.186,6.356,50.111,24.309a5.062,5.062,0,0,1,.313.665c-.116,1.656.454,3.251.459,4.889a80.32,80.32,0,0,1,.082,8.244c-.258,2.611-.409,5.242-.894,7.816a61.057,61.057,0,0,1-6.443,18.188,39.093,39.093,0,0,1-4.649,7.086,99.654,99.654,0,0,0,2.1-9.77,61.966,61.966,0,0,0,.652-14.053,1.985,1.985,0,0,0-2.012-2.057,36.943,36.943,0,0,0-.977-4.819" transform="translate(14353.842 -3272.378)" fill="#fb636e"/>
      <path id="Trazado_816204" data-name="Trazado 816204" d="M177.686,1579.41a39.036,39.036,0,0,0,4.649-7.087,61,61,0,0,0,6.442-18.187c.486-2.572.636-5.2.895-7.815a80.3,80.3,0,0,0-.082-8.243c0-1.64-.574-3.234-.459-4.89a46.738,46.738,0,0,1,6.464,17.127c2.468,14.288-.354,27.478-8.81,39.252a51.821,51.821,0,0,1-67.921,14.883c-.247-.14-.468-.324-.7-.489,2.736.239,5.471.5,8.209.7a4.673,4.673,0,0,0,2.425-.141,38.781,38.781,0,0,0,21.462,2.559c9.19-1.46,16.075-6.491,21.158-14.147a51.306,51.306,0,0,0,6.025-12.968,5.643,5.643,0,0,1,.245-.556" transform="translate(14351.658 -3276.855)" fill="#fa4654"/>
      <path id="Trazado_816205" data-name="Trazado 816205" d="M177.773,1547.038a36.943,36.943,0,0,1,.977,4.819c-1.528.51-1.791.956-1.693,2.809a61.747,61.747,0,0,1-5.079,28.375c-2.836,6.483-6.87,12.035-13.167,15.646a28.1,28.1,0,0,1-14.641,3.454c-8.543-.1-16.16-2.6-22.32-8.769-.551-.552-1.015-1.19-1.521-1.789.942-.327,1.663.326,2.428.624a36.009,36.009,0,0,0,10.45,2.177,36.5,36.5,0,0,0,10.625-.777,25.721,25.721,0,0,0,10.7-5.172c5.734-4.605,9.282-10.691,11.836-17.475a66.381,66.381,0,0,0,3.671-15.8,52.163,52.163,0,0,0-3.283-25.321c-.87-2.229-1.839-4.409-2.831-6.582a1.906,1.906,0,0,1-.266-1.185,41.477,41.477,0,0,1,5.4,8.081A63.467,63.467,0,0,1,175.32,1545c.464,1.679.835,1.971,2.453,2.034" transform="translate(14351.332 -3275.182)" fill="#fdbb85"/>
      <path id="Trazado_816211" data-name="Trazado 816211" d="M119.918,1603.357c.206.041.425.07.282.374l-.282-.374" transform="translate(14351.394 -3287.416)" fill="#fdbb85"/>
      <path id="Trazado_816212" data-name="Trazado 816212" d="M116.476,1597.9c-.074-.125-.171-.264.005-.365.035-.02.154.1.234.163l-.239.2" transform="translate(14351.926 -3286.54)" fill="#fcd0a2"/>
      <path id="Trazado_816207" data-name="Trazado 816207" d="M151.934,1532.064a5.364,5.364,0,0,1-4.533-7.967,1.9,1.9,0,0,1,2.553-1.074c1.032.465,1.351,1.471.779,2.718a1.628,1.628,0,0,0,.466,2.289,1.654,1.654,0,0,0,2.306-.4c.973-1.019,1.967-1.1,2.808-.309.821.773.79,1.815-.1,2.859a5.381,5.381,0,0,1-4.277,1.888" transform="translate(14347.36 -3275.298)" fill="#050403"/>
      <path id="Trazado_816206" data-name="Trazado 816206" d="M139.3,1524.545a1.891,1.891,0,0,1,1.849,1.9,1.858,1.858,0,0,1-3.714,0,1.919,1.919,0,0,1,1.865-1.9" transform="translate(14348.757 -3275.554)" fill="#0a0806"/>
      <path id="Trazado_816208" data-name="Trazado 816208" d="M214.848,1494.493a1.428,1.428,0,0,1-.237,2.069c-3.614,3.783-7.2,7.591-10.811,11.376a4.186,4.186,0,0,1-6.231.187c-.542-.51-.817-.466-1.273.065-.77.9-1.612,1.736-2.436,2.587a1.358,1.358,0,0,1-2.235.067c-1.041-.96-1.041-.96-2.04.094q-2.984,3.144-5.968,6.29a1.582,1.582,0,0,1-1.418.676,1.272,1.272,0,0,1-1.028-.83,1.221,1.221,0,0,1,.293-1.36c.866-.932,1.744-1.853,2.619-2.776,1.372-1.448,2.734-2.9,4.125-4.332.373-.383.5-.663,0-1.015a4.538,4.538,0,0,1-.569-.532,1.34,1.34,0,0,1-.05-2.175c.862-.936,1.732-1.865,2.63-2.763.361-.362.439-.608-.007-.956a4.434,4.434,0,0,1-.1-6.639c8.21-8.545,16.332-17.174,24.5-25.764.438-.461.678-.722.112-1.366a4.21,4.21,0,0,1,.376-5.666,4.254,4.254,0,0,1,5.685-.24c1.282,1.123,2.507,2.311,3.722,3.507.387.38.6.355.958-.031q2.807-3.015,5.669-5.975c.358-.37.29-.562-.046-.884a10.738,10.738,0,0,1-2.079-2.193,4.318,4.318,0,0,1,.782-5.313,4.146,4.146,0,0,1,5.545-.194c2.687,2.412,5.278,4.932,7.9,7.414.84.794,1.7,1.57,2.482,2.42a4.262,4.262,0,0,1-.127,5.819,4.315,4.315,0,0,1-5.891.224,17.114,17.114,0,0,1-1.443-1.374c-.379-.424-.6-.325-.944.047-1.853,1.987-3.717,3.964-5.613,5.91-.428.438-.322.66.066,1.016q1.7,1.549,3.337,3.16a4.3,4.3,0,0,1,.436,5.935,4.23,4.23,0,0,1-5.967.561c-.539-.406-.7-.024-.958.246-3.147,3.311-6.3,6.613-9.421,9.946a1.537,1.537,0,0,1-2.133.419c-.584-1.025-.537-1.4.295-2.283l7.883-8.365c.485-.493.945-1.013,1.462-1.467.5-.442.5-.728-.011-1.205-2.62-2.432-5.193-4.913-7.8-7.363-.56-.527-1.072-1.487-1.724-1.436-.694.056-1.119,1.063-1.718,1.594-.372.331-.336.551.025.876.942.849,1.835,1.753,2.774,2.605a2,2,0,0,1,.754,1.4c-.546,1.339-1.431,1.539-2.481.564-.292-.272-.592-.534-.888-.8-.661-.641-1.339-1.265-1.974-1.93-.327-.343-.529-.293-.816.037-.492.564-1.007,1.11-1.547,1.628-.341.326-.274.529.038.829a5.344,5.344,0,0,1,1.579,1.8c-.123,1.153-.33,1.371-1.471,1.553a4.7,4.7,0,0,1-1.816-1.419c-.358-.347-.587-.446-.949,0a18.347,18.347,0,0,1-1.484,1.57c-.313.3-.367.505,0,.815.616.52,1.19,1.088,1.782,1.634.453.445.921.873,1.354,1.335a1.294,1.294,0,0,1-1.781,1.878c-.483-.41-.938-.854-1.405-1.281-.578-.562-1.174-1.105-1.724-1.692-.326-.348-.53-.287-.816.04-.492.563-1.006,1.111-1.546,1.629-.342.328-.272.529.04.83a5.336,5.336,0,0,1,1.578,1.792c-.122,1.154-.329,1.371-1.47,1.553a4.687,4.687,0,0,1-1.816-1.417c-.356-.344-.585-.451-.949-.005a17.721,17.721,0,0,1-1.483,1.569c-.315.3-.36.508,0,.814.615.521,1.189,1.088,1.78,1.637.454.443.923.872,1.355,1.334a1.3,1.3,0,0,1-1.784,1.881c-.482-.409-.938-.854-1.405-1.281-.578-.562-1.174-1.106-1.724-1.693-.327-.347-.53-.287-.816.042-.492.563-1.006,1.111-1.546,1.628-.342.328-.27.528.04.829a5.322,5.322,0,0,1,1.58,1.792c-.122,1.154-.328,1.37-1.472,1.553-.819-.249-1.278-.962-1.9-1.468-.158-.129-.25-.394-.562-.251a2.073,2.073,0,0,0-.629,3.339c.263.266.559.5.84.744q3.156,3.022,6.313,6.043c1.229,1.171,1.968,1.149,3.135-.079q5.246-5.525,10.489-11.052c.79-.833,1.239-.895,2.188-.334m14.076-29.353c-.562.572-1.119,1.148-1.688,1.713-.24.239-.289.412-.031.71,1.9,2.217,2.067,2.227,3.993.087a2.242,2.242,0,0,0,.15-.208c.9-.934,1.819-1.849,2.693-2.806.595-.651,1.726-1.243,1.628-1.973-.094-.7-1.154-1.264-1.789-1.888a.7.7,0,0,1-.063-.059c-.257-.32-.473-.306-.759.005-1.366,1.484-2.753,2.947-4.133,4.419m-4.9,7.579q3.461,3.285,6.923,6.564a1.677,1.677,0,1,0,2.266-2.425q-6.885-6.541-13.778-13.071a1.684,1.684,0,1,0-2.266,2.426q3.424,3.258,6.856,6.506m14.719-15.518c-1.572-1.492-3.138-2.988-4.716-4.471-.919-.862-1.734-.885-2.488-.1a1.621,1.621,0,0,0,.191,2.5q4.707,4.48,9.428,8.945a1.819,1.819,0,0,0,2.558.178,1.711,1.711,0,0,0-.26-2.585q-2.347-2.245-4.712-4.474m-47.369,47.461c-1.179,1.244-1.179,1.244.048,2.407,1.252,1.188,1.252,1.188,2.464-.088,1.16-1.224,1.16-1.224-.032-2.355-1.287-1.22-1.287-1.22-2.479.036" transform="translate(14342.189 -3264.25)" fill="#030303"/>
      <path id="Trazado_816213" data-name="Trazado 816213" d="M200.974,1498.153c.467.428.923.871,1.406,1.282a1.3,1.3,0,0,0,1.783-1.881c-.432-.464-.9-.892-1.354-1.335l2.464-2.6c1.142-.182,1.349-.4,1.47-1.552q1.235-1.3,2.469-2.6c.467.428.923.872,1.405,1.282a1.294,1.294,0,0,0,1.781-1.878c-.432-.462-.9-.891-1.354-1.334l2.467-2.6c1.142-.182,1.348-.4,1.471-1.552a9.828,9.828,0,0,1,2.72-2.359c.3.266.6.53.888.8,1.051.975,1.934.774,2.481-.564a2.194,2.194,0,0,1,1.842.846c1.489,1.357,2.933,2.764,4.4,4.151q-3.942,4.182-7.884,8.365c-.832.883-.878,1.257-.295,2.283l-2.216,2.339c-.949-.56-1.4-.5-2.188.334q-5.247,5.522-10.489,11.051c-1.166,1.229-1.905,1.251-3.135.08q-3.163-3.015-6.313-6.042l2.248-2.366c1.144-.183,1.35-.4,1.473-1.553l2.466-2.6" transform="translate(14340.125 -3269.004)" fill="#f9f7f8"/>
      <path id="Trazado_816220" data-name="Trazado 816220" d="M230.286,1475.147q-3.429-3.253-6.856-6.506a1.685,1.685,0,1,1,2.266-2.428q6.894,6.53,13.778,13.071a1.678,1.678,0,1,1-2.266,2.427q-3.467-3.276-6.922-6.564" transform="translate(14335.927 -3266.677)" fill="#0c5d7e"/>
      <path id="Trazado_816224" data-name="Trazado 816224" d="M247.594,1457.665c1.572,1.492,3.147,2.978,4.712,4.475a1.712,1.712,0,0,1,.261,2.586,1.821,1.821,0,0,1-2.558-.178q-4.72-4.467-9.428-8.946a1.621,1.621,0,0,1-.19-2.5c.754-.788,1.568-.765,2.487.1,1.578,1.483,3.145,2.979,4.716,4.47" transform="translate(14333.338 -3264.715)" fill="#0c5d7e"/>
      <path id="Trazado_816221" data-name="Trazado 816221" d="M231.288,1485.155c-1.462-1.387-2.905-2.795-4.4-4.151a2.194,2.194,0,0,0-1.841-.846,2.01,2.01,0,0,0-.753-1.4c-.94-.853-1.832-1.756-2.774-2.605-.36-.325-.4-.544-.024-.876.6-.532,1.024-1.539,1.718-1.594.652-.051,1.164.908,1.724,1.436,2.6,2.448,5.177,4.93,7.8,7.363.514.477.512.765.012,1.2-.517.455-.977.976-1.462,1.468" transform="translate(14336.145 -3267.899)" fill="#e7e3f5"/>
      <path id="Trazado_816225" data-name="Trazado 816225" d="M237.4,1467.1c1.38-1.471,2.766-2.934,4.133-4.417.286-.312.5-.327.759-.006a.59.59,0,0,0,.063.059c.635.625,1.695,1.192,1.789,1.888.1.729-1.034,1.323-1.628,1.972-.874.957-1.792,1.872-2.693,2.807l-2.423-2.3" transform="translate(14333.711 -3266.207)" fill="#cae1fe"/>
      <path id="Trazado_816209" data-name="Trazado 816209" d="M193.042,1514.278c1.192-1.256,1.192-1.256,2.479-.036,1.193,1.131,1.193,1.131.032,2.355-1.211,1.276-1.211,1.276-2.464.088-1.227-1.163-1.227-1.163-.048-2.407" transform="translate(14340.521 -3273.867)" fill="#bdd7f9"/>
      <path id="Trazado_816222" data-name="Trazado 816222" d="M220.953,1480.641a9.852,9.852,0,0,0-2.72,2.36,5.342,5.342,0,0,0-1.578-1.795c-.313-.3-.38-.5-.038-.829.539-.518,1.054-1.064,1.546-1.628.288-.331.489-.381.816-.037.635.665,1.313,1.289,1.974,1.93" transform="translate(14336.874 -3268.621)" fill="#e7e3f5"/>
      <path id="Trazado_816214" data-name="Trazado 816214" d="M201.306,1500.846l-2.466,2.6a5.333,5.333,0,0,0-1.581-1.792c-.309-.3-.381-.5-.04-.829.54-.518,1.054-1.065,1.546-1.628.286-.328.49-.388.816-.041.55.586,1.147,1.131,1.724,1.692" transform="translate(14339.793 -3271.698)" fill="#e7e3f5"/>
      <path id="Trazado_816218" data-name="Trazado 816218" d="M211,1490.623l-2.469,2.6a5.339,5.339,0,0,0-1.578-1.794c-.311-.3-.381-.5-.039-.828.539-.519,1.053-1.065,1.545-1.628.286-.328.49-.388.816-.04.55.585,1.147,1.13,1.724,1.69" transform="translate(14338.334 -3270.159)" fill="#e7e3f5"/>
      <path id="Trazado_816223" data-name="Trazado 816223" d="M237.067,1467.921l2.423,2.3a2.137,2.137,0,0,1-.15.207c-1.926,2.142-2.09,2.131-3.993-.085-.257-.3-.209-.472.031-.711.569-.564,1.126-1.14,1.688-1.713" transform="translate(14334.047 -3267.032)" fill="#b3cbea"/>
      <path id="Trazado_816215" data-name="Trazado 816215" d="M206.334,1495.548l-2.464,2.6c-.591-.549-1.165-1.116-1.78-1.636-.364-.307-.319-.511,0-.814a17.974,17.974,0,0,0,1.483-1.57c.363-.445.592-.338.948.005a4.691,4.691,0,0,0,1.816,1.417" transform="translate(14339.064 -3270.932)" fill="#e7e3f5"/>
      <path id="Trazado_816219" data-name="Trazado 816219" d="M216.03,1485.326l-2.467,2.6c-.592-.548-1.166-1.116-1.782-1.635-.367-.311-.313-.515,0-.815a18.258,18.258,0,0,0,1.484-1.572c.361-.442.59-.342.949,0a4.676,4.676,0,0,0,1.816,1.419" transform="translate(14337.606 -3269.393)" fill="#e7e3f5"/>
      <path id="Trazado_816216" data-name="Trazado 816216" d="M196.781,1505.761q-1.124,1.185-2.248,2.366c-.281-.247-.576-.478-.84-.744a2.072,2.072,0,0,1,.629-3.339c.313-.144.405.121.562.25.619.505,1.078,1.218,1.9,1.467" transform="translate(14340.38 -3272.463)" fill="#e7e3f5"/>
    </g>
  </g>
</svg>
