<svg xmlns="http://www.w3.org/2000/svg" width="190" height="161" viewBox="0 0 190 161">
  <g id="Grupo_1075868" data-name="Grupo 1075868" transform="translate(-12518 -3588)">
    <rect id="Rectángulo_378519" data-name="Rectángulo 378519" width="190" height="161" transform="translate(12518 3588)" fill="none"/>
    <g id="Grupo_1075861" data-name="Grupo 1075861" transform="translate(-75 37.74)">
      <path id="Trazado_278517" data-name="Trazado 278517" d="M159.443,6972.71c-1.552-.631-3.211-.441-4.82-.593-7.655-.726-15.17-2.02-22.262-5.159a39.375,39.375,0,0,1-11.729-7.871c-1.133-1.108-1.474-2.233-.621-3.622,1.682-1.106,2.411-1.016,3.948.472,5.449,5.272,12.072,8.213,19.4,9.75a66.209,66.209,0,0,0,11.654,1.856c8.984.809,17.992.646,26.994.582s17.982-.485,26.788-2.69c16.037-4.018,25.351-14.177,27.809-30.407a87.437,87.437,0,0,0-.025-23.589c-1.8-15.084-6.472-29.119-15.342-41.593a2.738,2.738,0,0,1-.14-3.593c1.958-.934,2.672-.742,3.945,1.049a90.31,90.31,0,0,1,14.829,35.621,102.872,102.872,0,0,1,1.825,27.754c-.718,9.212-3.027,17.912-8.9,25.319-5.765,7.271-13.521,11.336-22.318,13.682a93.838,93.838,0,0,1-19.013,2.744c-.354.02-.827-.242-1.057.288h-1.822a1.009,1.009,0,0,0-1.517,0H172.193a8.111,8.111,0,0,0-4.857,0Z" transform="translate(12512 -3264.25)" fill="#030303"/>
      <path id="Trazado_278518" data-name="Trazado 278518" d="M167.336,6972.71a8.111,8.111,0,0,1,4.857,0Z" transform="translate(12512 -3264.25)" fill="#060606"/>
      <path id="Trazado_278519" data-name="Trazado 278519" d="M187.068,6972.71a1.01,1.01,0,0,1,1.518,0Z" transform="translate(12512 -3264.25)" fill="#777"/>
      <path id="Trazado_278520" data-name="Trazado 278520" d="M221.1,6866.252a2.74,2.74,0,0,0,.14,3.594c8.87,12.474,13.541,26.509,15.342,41.593a87.471,87.471,0,0,1,.026,23.588c-2.458,16.231-11.773,26.39-27.81,30.408-8.806,2.205-17.781,2.628-26.788,2.69s-18.01.227-26.994-.581a66.407,66.407,0,0,1-11.654-1.857c-.041-.583-.539-.734-.943-.859a21.452,21.452,0,0,1-3.774-1.911,32.448,32.448,0,0,1-13.879-14.714,45.782,45.782,0,0,1-4.417-17.912,107.448,107.448,0,0,1,1.21-23.971,102.426,102.426,0,0,1,5.423-19.776,78.655,78.655,0,0,1,14.747-24.315,60.788,60.788,0,0,1,20.678-15.013c.378-.167.964-.125.989-.768a50.9,50.9,0,0,1,25.008.169A54.944,54.944,0,0,1,214.674,6862c1.5,1.518,2.259,1.587,3.951.478.259,1.066,1.2,1.658,1.764,2.516.267.407.717.7.707,1.258m-64.727,58.458a11.234,11.234,0,0,0,6.154,9.726,10.79,10.79,0,0,0,11.627-.526,1.885,1.885,0,0,1,2.454.048c4.051,2.525,8.27,2.651,12.263.008a11.108,11.108,0,0,0,5.261-11.568c-.705-4.694-3.57-8.163-6.873-11.293-.838-.793-.817-1.229-.221-2.178,3.129-4.985,3.281-10.158.144-15.134a13.244,13.244,0,0,0-13.7-6.427,13.934,13.934,0,0,0-9.9,21.407c.762,1.169.61,1.719-.345,2.522a20.854,20.854,0,0,0-3.244,3.6,16.007,16.007,0,0,0-3.612,9.819m-5.749-23.657c-1.06,0-2.12-.029-3.179.007a2.2,2.2,0,0,0-2.294,2.113,2.151,2.151,0,0,0,2.025,2.379c2.317.1,4.644.1,6.959,0a2.148,2.148,0,0,0,2-2.406,2.206,2.206,0,0,0-2.327-2.082c-1.059-.033-2.119-.007-3.179-.006m49.537,0c-1.11,0-2.221-.032-3.329.009a2.069,2.069,0,0,0-2.232,2.142,2.156,2.156,0,0,0,2.053,2.355c2.265.1,4.54.091,6.807.008a2.212,2.212,0,0,0,2.125-2.318,2.243,2.243,0,0,0-2.246-2.184c-1.058-.043-2.119-.008-3.178-.012m-47.3-7.537a19,19,0,0,0-.02-2.411,2.02,2.02,0,0,0-2.149-1.9,1.99,1.99,0,0,0-2.232,1.8,20,20,0,0,0-.008,5.121,2.031,2.031,0,0,0,2.21,1.855,2.055,2.055,0,0,0,2.175-1.9,21.032,21.032,0,0,0,.024-2.562m49.443.119c0-.755.037-1.513-.008-2.266a2.094,2.094,0,0,0-2.069-2.167,2.121,2.121,0,0,0-2.409,1.979,29.815,29.815,0,0,0,.013,4.828,2.117,2.117,0,0,0,2.28,1.98,2.223,2.223,0,0,0,2.187-2.238c.044-.7.008-1.41.006-2.116" transform="translate(12512 -3264.25)" fill="#e9e9e9"/>
      <path id="Trazado_278521" data-name="Trazado 278521" d="M218.626,6862.478c-1.693,1.109-2.454,1.04-3.952-.479a54.945,54.945,0,0,0-26.274-15.382,50.9,50.9,0,0,0-25.007-.169,42.988,42.988,0,0,0-11.656,4.076c-13.144,6.574-22.256,17.052-28.7,30.013-6.975,14.029-9.775,29.011-9.714,44.58.031,8.057,1.185,15.91,4.96,23.18a2.666,2.666,0,0,1-.447,3.077c-2.09.759-2.878.46-3.887-1.539a50.872,50.872,0,0,1-5.111-21.49c-.554-16.27,2-32.017,8.736-46.929,6.239-13.813,15.306-25.254,28.534-33.063,1.388-.818,2.83-1.552,4.286-2.245.763-.363.921-.561.321-1.336a11.954,11.954,0,0,1-1.66-12.946,12.223,12.223,0,0,1,13.575-7.029,1.341,1.341,0,0,0,1.722-.853,12.436,12.436,0,0,1,22.016.031c.4.732.71,1.01,1.587.847a12.359,12.359,0,0,1,12.179,19.739c-.692.9-.6,1.152.408,1.63a61.936,61.936,0,0,1,17.554,12.763,2.6,2.6,0,0,1,.53,3.524m-56.142-33a7.719,7.719,0,0,0-8.728,3.176,7.912,7.912,0,0,0,.59,9.432c1.006,1.209,2.049,1.826,3.632,1.038a19.753,19.753,0,0,1,2.7-.907,4,4,0,0,0,.6-.053,57.931,57.931,0,0,1,32.387,1.226,1.811,1.811,0,0,0,1.993-.612,7.857,7.857,0,0,0-8.287-13.071c-2.878,1.167-3.6.825-4.459-2.1a7.769,7.769,0,0,0-9.715-5.451,7.6,7.6,0,0,0-5.539,5.853c-.573,2.274-1.731,2.839-3.9,1.9-.41-.177-.849-.29-1.274-.432" transform="translate(12512 -3264.25)" fill="#040303"/>
      <path id="Trazado_278522" data-name="Trazado 278522" d="M117.835,6951.374a2.665,2.665,0,0,0,.448-3.077c-3.776-7.271-4.93-15.123-4.961-23.18-.06-15.569,2.739-30.551,9.714-44.58,6.445-12.962,15.556-23.44,28.7-30.014a42.965,42.965,0,0,1,11.656-4.075c-.025.643-.611.6-.989.768a60.808,60.808,0,0,0-20.678,15.012,78.659,78.659,0,0,0-14.747,24.316,102.426,102.426,0,0,0-5.423,19.776,107.44,107.44,0,0,0-1.21,23.97,45.786,45.786,0,0,0,4.417,17.913,32.448,32.448,0,0,0,13.879,14.714,21.381,21.381,0,0,0,3.774,1.91c.4.126.9.277.943.861-7.328-1.538-13.951-4.479-19.4-9.752-1.537-1.487-2.266-1.578-3.947-.471-.251-1.051-1.151-1.7-1.637-2.606-.256-.478-.641-.885-.539-1.485" transform="translate(12512 -3264.25)" fill="#d2d1d7"/>
      <path id="Trazado_278523" data-name="Trazado 278523" d="M156.369,6924.71a16.013,16.013,0,0,1,3.612-9.819,20.888,20.888,0,0,1,3.244-3.6c.955-.8,1.107-1.353.345-2.523a13.934,13.934,0,0,1,9.9-21.407,13.246,13.246,0,0,1,13.705,6.426c3.136,4.977,2.985,10.151-.145,15.135-.6.948-.616,1.385.221,2.179,3.3,3.129,6.168,6.6,6.874,11.292a11.113,11.113,0,0,1-5.261,11.569c-3.994,2.642-8.213,2.517-12.263-.009a1.886,1.886,0,0,0-2.455-.048,10.79,10.79,0,0,1-11.627.526,11.234,11.234,0,0,1-6.154-9.726m12.483,6.4a5.06,5.06,0,0,0,3.064-1.144c3.143-2.22,3.73-2.233,6.821-.026a6.836,6.836,0,0,0,7.7.246,7.114,7.114,0,0,0,3.175-7.332c-.879-3.968-3.553-6.721-6.414-9.338a.69.69,0,0,0-.937-.078,14.614,14.614,0,0,1-11.872,1.012c-.626-.32-1.268-.613-1.873-.969a.774.774,0,0,0-1.069.079c-2.765,2.55-5.363,5.228-6.311,9.029a6.934,6.934,0,0,0,7.721,8.521m6.425-30.059a48.852,48.852,0,0,0,8.433-.858c.76-.152,1.037-.368.877-1.176-.784-3.964-4.88-7.246-9.161-7.295a9.654,9.654,0,0,0-9.274,7.138c-.165.76-.1,1.17.839,1.341a53.349,53.349,0,0,0,8.286.85m-8.571,3.741a9.445,9.445,0,0,0,9.029,5.923c3.827-.227,7.411-2.795,8.151-5.913a47.954,47.954,0,0,1-17.18-.01" transform="translate(12512 -3264.25)" fill="#040302"/>
      <path id="Trazado_278524" data-name="Trazado 278524" d="M150.62,6901.052c1.06,0,2.12-.026,3.179.007a2.205,2.205,0,0,1,2.327,2.082,2.147,2.147,0,0,1-2,2.406c-2.315.107-4.642.1-6.959,0a2.149,2.149,0,0,1-2.024-2.379,2.2,2.2,0,0,1,2.293-2.113c1.059-.036,2.119-.008,3.179-.008" transform="translate(12512 -3264.25)" fill="#fe6f80"/>
      <path id="Trazado_278525" data-name="Trazado 278525" d="M200.157,6901.054c1.059,0,2.12-.032,3.178.011a2.243,2.243,0,0,1,2.247,2.182,2.212,2.212,0,0,1-2.126,2.319c-2.267.083-4.542.089-6.807-.009a2.155,2.155,0,0,1-2.053-2.354,2.07,2.07,0,0,1,2.232-2.143c1.108-.041,2.219-.008,3.329-.006" transform="translate(12512 -3264.25)" fill="#fe6f80"/>
      <path id="Trazado_278526" data-name="Trazado 278526" d="M152.854,6893.514a20.867,20.867,0,0,1-.023,2.564,2.055,2.055,0,0,1-2.175,1.9,2.032,2.032,0,0,1-2.21-1.855,20,20,0,0,1,.008-5.121,1.991,1.991,0,0,1,2.232-1.8,2.021,2.021,0,0,1,2.149,1.9,18.8,18.8,0,0,1,.019,2.41" transform="translate(12512 -3264.25)" fill="#060606"/>
      <path id="Trazado_278527" data-name="Trazado 278527" d="M202.3,6893.634c0,.706.037,1.413-.007,2.116a2.223,2.223,0,0,1-2.187,2.238,2.116,2.116,0,0,1-2.28-1.98,29.815,29.815,0,0,1-.013-4.828,2.121,2.121,0,0,1,2.408-1.979,2.094,2.094,0,0,1,2.07,2.167c.045.753.008,1.511.009,2.266" transform="translate(12512 -3264.25)" fill="#060606"/>
      <path id="Trazado_278528" data-name="Trazado 278528" d="M162.484,6829.474c.425.142.864.255,1.274.432,2.169.936,3.327.371,3.9-1.9a7.6,7.6,0,0,1,5.539-5.853,7.769,7.769,0,0,1,9.715,5.451c.856,2.927,1.581,3.269,4.459,2.1a7.857,7.857,0,0,1,8.287,13.071,1.811,1.811,0,0,1-1.993.612,57.931,57.931,0,0,0-32.387-1.226,4,4,0,0,1-.6.053,10.688,10.688,0,0,1,1.807-12.739" transform="translate(12512 -3264.25)" fill="#fc6d7e"/>
      <path id="Trazado_278529" data-name="Trazado 278529" d="M162.484,6829.474a10.688,10.688,0,0,0-1.807,12.739,19.753,19.753,0,0,0-2.7.907c-1.583.788-2.626.171-3.632-1.038a7.912,7.912,0,0,1-.59-9.432,7.719,7.719,0,0,1,8.728-3.176" transform="translate(12512 -3264.25)" fill="#f4465c"/>
      <path id="Trazado_278530" data-name="Trazado 278530" d="M170.383,6914.45a14.61,14.61,0,0,0,11.872-1.013.693.693,0,0,1,.938.078c2.86,2.618,5.534,5.371,6.413,9.338a7.114,7.114,0,0,1-3.175,7.333,6.836,6.836,0,0,1-7.7-.246c-3.091-2.207-3.678-2.194-6.82.026a5.069,5.069,0,0,1-3.064,1.144c-3.392-3.515-3.714-7.459-1.707-11.772.837-1.8,2.219-3.22,3.238-4.888" transform="translate(12512 -3264.25)" fill="#fd6d7e"/>
      <path id="Trazado_278531" data-name="Trazado 278531" d="M175.275,6901.05a53.228,53.228,0,0,1-8.284-.849c-.941-.172-1.005-.581-.839-1.341a9.653,9.653,0,0,1,9.274-7.138c4.281.049,8.377,3.331,9.161,7.295.16.808-.118,1.024-.878,1.176a48.842,48.842,0,0,1-8.434.857" transform="translate(12512 -3264.25)" fill="#ebb861"/>
      <path id="Trazado_278532" data-name="Trazado 278532" d="M170.383,6914.45c-1.019,1.668-2.4,3.087-3.238,4.888-2.007,4.313-1.685,8.257,1.707,11.772a6.935,6.935,0,0,1-7.722-8.521c.948-3.8,3.546-6.479,6.311-9.03a.775.775,0,0,1,1.07-.078c.6.356,1.246.649,1.872.969" transform="translate(12512 -3264.25)" fill="#f5465c"/>
      <path id="Trazado_278533" data-name="Trazado 278533" d="M166.706,6904.792a47.954,47.954,0,0,0,17.18.01c-.74,3.118-4.324,5.686-8.151,5.913a9.445,9.445,0,0,1-9.029-5.923" transform="translate(12512 -3264.25)" fill="#ee9a17"/>
      <path id="Trazado_278534" data-name="Trazado 278534" d="M216.222,6891.623a1.952,1.952,0,0,1-1.579-2.262c.043-2.92,0-5.841.028-8.761.007-.62-.123-.869-.8-.833-1.059.057-2.124.038-3.185.008a1.6,1.6,0,0,1-1.748-1.784q-.034-3.13,0-6.257a5.128,5.128,0,0,1,4.991-5.287c1.056-.04,1.247-.5,1.36-1.3a12.986,12.986,0,0,0-.512-5.61,19.751,19.751,0,0,1-.867-9.078,11.348,11.348,0,0,1,11.1-9.384,11.556,11.556,0,0,1,11.26,9.4,19.562,19.562,0,0,1-.822,8.971,12.724,12.724,0,0,0-.417,6.276c.1.492.276.649.8.687,3.618.264,5.434,2.262,5.437,5.914,0,1.858.013,3.717,0,5.575-.012,1.292-.587,1.857-1.883,1.884a18.822,18.822,0,0,1-2.5-.015c-1.054-.118-1.38.16-1.372,1.3.058,8.723.032,17.446.032,26.169,0,5.2-.014,10.393.006,15.588a10.231,10.231,0,0,1-1.939,6.639,14.9,14.9,0,0,0-3.307,11.715,9,9,0,0,1-.035,2.271,5.2,5.2,0,0,1-10.377-.6c-.035-2.085-.069-4.174.014-6.257a5.331,5.331,0,0,0-.993-3.394c-.9-1.308-1.7-2.689-2.548-4.032a11.033,11.033,0,0,1-1.707-6.033c0-3.754.025-7.509-.014-11.264a1.955,1.955,0,0,1,1.583-2.261c5.157.017,10.315.021,15.472.062.838.006.658-.525.658-.984,0-9.331-.007-18.662.02-27.993,0-.758-.214-.938-.947-.932-4.21.035-8.421.043-12.632-.005-.848-.009-.975.283-.964,1.034.043,2.882-.018,5.766.034,8.648a1.862,1.862,0,0,1-1.642,2.181m8.885-25.239c1.971,0,3.943-.008,5.914.005.557,0,.889.014.755-.784a14.768,14.768,0,0,1,.578-6.942,19.787,19.787,0,0,0,.943-6.147,8.416,8.416,0,0,0-8.18-8.248,8.24,8.24,0,0,0-8.212,8.267,20.944,20.944,0,0,0,.979,6.254,14.081,14.081,0,0,1,.561,6.717c-.132.747.04.9.749.891,1.97-.038,3.942-.013,5.913-.013m.088,46.465c-2.085,0-4.172.035-6.256-.017-.811-.021-1.126.146-1.109,1.047.058,3.108.02,6.217.024,9.327a7.814,7.814,0,0,0,1.179,4.209c.981,1.575,1.949,3.159,2.961,4.715a6.419,6.419,0,0,1,1.094,3.747c-.045,2.122-.015,4.246-.01,6.37,0,1.678.721,2.619,2,2.639,1.308.021,2.055-.952,2.057-2.692,0-2.048.046-4.1-.014-6.143a6.777,6.777,0,0,1,1.186-4.064c.982-1.484,1.9-3.01,2.845-4.519a7.5,7.5,0,0,0,1.2-3.974c.026-3.261-.013-6.522.026-9.782.009-.735-.253-.888-.921-.876-2.085.036-4.171.013-6.257.013m-.09-36.257c3.9,0,7.806-.029,11.707.021.953.012,1.4-.166,1.286-1.229a27.694,27.694,0,0,1-.02-2.839c0-2.273-.707-2.987-2.978-2.989q-5.739-.007-11.48,0c-2.955,0-5.911-.016-8.866.006-1.836.014-2.62.83-2.628,2.65-.005,1.061.057,2.126-.018,3.181-.066.923.2,1.237,1.176,1.223,3.94-.056,7.881-.023,11.821-.023" transform="translate(12512 -3264.25)" fill="#030303"/>
      <path id="Trazado_278535" data-name="Trazado 278535" d="M216.221,6891.623a1.862,1.862,0,0,0,1.642-2.181c-.052-2.882.009-5.766-.034-8.648-.011-.751.116-1.043.964-1.033,4.211.047,8.422.039,12.632,0,.733-.007.949.173.947.932-.027,9.33-.017,18.661-.02,27.992,0,.459.18.991-.658.984-5.157-.041-10.315-.045-15.472-.062q0-2.569,0-5.138a1.708,1.708,0,0,0,1.635-2.025c-.041-1.057-.058-2.12,0-3.175a1.834,1.834,0,0,0-1.635-2.176q0-2.738,0-5.475m8.866,9.11v0c.642,0,1.288.037,1.927-.009a1.48,1.48,0,0,0,1.522-1.505,1.509,1.509,0,0,0-1.495-1.649c-1.283-.054-2.572-.052-3.855,0a1.582,1.582,0,0,0,.086,3.163c.6.03,1.21.006,1.815.006m.03-12.112v-.017a13.791,13.791,0,0,0,2.035-.02,1.469,1.469,0,0,0,1.381-1.641,1.431,1.431,0,0,0-1.523-1.487c-1.246-.035-2.494-.026-3.74-.006a1.45,1.45,0,0,0-1.6,1.525,1.5,1.5,0,0,0,1.523,1.632,17.345,17.345,0,0,0,1.926.014" transform="translate(12512 -3264.25)" fill="#d9f2fc"/>
      <path id="Trazado_278536" data-name="Trazado 278536" d="M252.348,6922.31a45.1,45.1,0,0,1,3.077,4.393,1.956,1.956,0,0,0-.2,2.663,20.821,20.821,0,0,1,2.8,7.388,6.941,6.941,0,0,1-6.9,8.136c-4.505-.058-7.6-4.2-6.552-8.907,1.191-5.333,4.245-9.645,7.768-13.673" transform="translate(12512 -3264.25)" fill="#6de6c3"/>
      <path id="Trazado_278537" data-name="Trazado 278537" d="M252.348,6922.31c-3.523,4.028-6.577,8.34-7.768,13.673-1.052,4.708,2.047,8.849,6.552,8.907a6.941,6.941,0,0,0,6.9-8.136,20.821,20.821,0,0,0-2.8-7.388,1.956,1.956,0,0,1,.2-2.663c1.416-.4,1.86-.223,2.586,1.067a23.657,23.657,0,0,1,3.166,8.567,9.8,9.8,0,0,1-4.11,9.847,9.455,9.455,0,0,1-10.517.7,9.65,9.65,0,0,1-5.355-9.209,16.454,16.454,0,0,1,1.39-6.053,42.021,42.021,0,0,1,7.229-11.355,1.683,1.683,0,0,1,1.9-.667,1.549,1.549,0,0,1,1.084,1.334,2.205,2.205,0,0,1-.452,1.372" transform="translate(12512 -3264.25)" fill="#030404"/>
      <path id="Trazado_278538" data-name="Trazado 278538" d="M216.223,6897.1a1.835,1.835,0,0,1,1.635,2.176c-.062,1.056-.045,2.119,0,3.176a1.709,1.709,0,0,1-1.635,2.025,1.747,1.747,0,0,1-1.57-1.984c.017-1.053.041-2.109-.007-3.16a1.9,1.9,0,0,1,1.581-2.233" transform="translate(12512 -3264.25)" fill="#060606"/>
      <path id="Trazado_278539" data-name="Trazado 278539" d="M225.107,6866.383c-1.971,0-3.943-.024-5.913.013-.709.015-.882-.144-.749-.891a14.1,14.1,0,0,0-.561-6.716,20.954,20.954,0,0,1-.979-6.254,8.239,8.239,0,0,1,8.212-8.266,8.415,8.415,0,0,1,8.18,8.247,19.783,19.783,0,0,1-.943,6.147,14.751,14.751,0,0,0-.578,6.941c.134.8-.2.789-.756.785-1.971-.014-3.942-.006-5.913-.006" transform="translate(12512 -3264.25)" fill="#1e5a98"/>
      <path id="Trazado_278540" data-name="Trazado 278540" d="M225.2,6912.849c2.085,0,4.171.023,6.256-.014.669-.011.931.142.922.876-.039,3.261,0,6.522-.026,9.783a7.5,7.5,0,0,1-1.2,3.974c-.946,1.509-1.864,3.034-2.846,4.519a6.774,6.774,0,0,0-1.185,4.064c.059,2.046.017,4.1.014,6.142,0,1.741-.749,2.714-2.058,2.693-1.277-.02-1.994-.962-2-2.639,0-2.124-.035-4.248.011-6.371a6.415,6.415,0,0,0-1.1-3.747c-1.012-1.555-1.98-3.139-2.961-4.714a7.834,7.834,0,0,1-1.179-4.209c0-3.11.035-6.22-.024-9.328-.017-.9.3-1.067,1.109-1.046,2.085.052,4.171.017,6.257.017m-.142,8.985v.008c-.641,0-1.285-.033-1.924.009a1.419,1.419,0,0,0-1.458,1.431,1.4,1.4,0,0,0,1.331,1.659,28.7,28.7,0,0,0,4.179,0,1.407,1.407,0,0,0,1.35-1.645,1.451,1.451,0,0,0-1.553-1.461c-.641-.029-1.283-.006-1.925-.006" transform="translate(12512 -3264.25)" fill="#6ce4c1"/>
      <path id="Trazado_278541" data-name="Trazado 278541" d="M225.1,6876.592c-3.94,0-7.881-.033-11.821.023-.977.014-1.242-.3-1.176-1.223.075-1.055.013-2.12.018-3.181.008-1.82.792-2.636,2.628-2.65,2.955-.022,5.911-.006,8.866-.006q5.741,0,11.48,0c2.271,0,2.977.716,2.978,2.989a27.694,27.694,0,0,0,.02,2.839c.111,1.063-.333,1.241-1.286,1.229-3.9-.05-7.8-.021-11.707-.021" transform="translate(12512 -3264.25)" fill="#123f65"/>
      <path id="Trazado_278542" data-name="Trazado 278542" d="M225.087,6900.732c-.605,0-1.211.025-1.815,0a1.583,1.583,0,0,1-.086-3.164c1.284-.05,2.572-.052,3.855,0a1.51,1.51,0,0,1,1.5,1.65,1.481,1.481,0,0,1-1.522,1.505c-.64.046-1.285.009-1.928.009Z" transform="translate(12512 -3264.25)" fill="#040405"/>
      <path id="Trazado_278543" data-name="Trazado 278543" d="M225.117,6888.621a17.345,17.345,0,0,1-1.926-.014,1.5,1.5,0,0,1-1.523-1.632,1.45,1.45,0,0,1,1.6-1.525c1.246-.02,2.494-.029,3.74.006a1.431,1.431,0,0,1,1.523,1.487,1.469,1.469,0,0,1-1.381,1.641,13.791,13.791,0,0,1-2.035.02v.017" transform="translate(12512 -3264.25)" fill="#040505"/>
      <path id="Trazado_278544" data-name="Trazado 278544" d="M225.053,6921.834c.642,0,1.284-.023,1.925.006a1.451,1.451,0,0,1,1.553,1.461,1.407,1.407,0,0,1-1.35,1.645,28.7,28.7,0,0,1-4.179,0,1.4,1.4,0,0,1-1.331-1.659,1.419,1.419,0,0,1,1.458-1.431c.639-.042,1.283-.009,1.924-.009v-.008" transform="translate(12512 -3264.25)" fill="#030706"/>
    </g>
  </g>
</svg>
