<svg xmlns="http://www.w3.org/2000/svg" width="67" height="67" viewBox="0 0 67 67">
  <g id="Grupo_1075884" data-name="Grupo 1075884" transform="translate(-285 -8575.008)">
    <g id="Elipse_4298" data-name="Elipse 4298" transform="translate(285 8575.008)" fill="#3b5620" stroke="#707070" stroke-width="1">
      <circle cx="33.5" cy="33.5" r="33.5" stroke="none"/>
      <circle cx="33.5" cy="33.5" r="33" fill="none"/>
    </g>
    <path id="Trazado_816391" data-name="Trazado 816391" d="M20.5,0H1.651V-4.082l8.684-9.129q3.21-3.655,3.21-5.808a4.04,4.04,0,0,0-.761-2.653,2.716,2.716,0,0,0-2.208-.909,2.75,2.75,0,0,0-2.319,1.215,5,5,0,0,0-.891,3.034H1.095a8.872,8.872,0,0,1,1.243-4.592,8.718,8.718,0,0,1,3.451-3.293,10.252,10.252,0,0,1,4.936-1.187q4.379,0,6.745,2.022a7.22,7.22,0,0,1,2.366,5.808,8.433,8.433,0,0,1-.594,3.108A13.63,13.63,0,0,1,17.4-13.294a46.506,46.506,0,0,1-4.036,4.444L9.871-4.824H20.5Z" transform="translate(308 8622.008)" fill="#dbf9bd"/>
  </g>
</svg>
