<svg xmlns="http://www.w3.org/2000/svg" width="190" height="161" viewBox="0 0 190 161">
  <g id="Grupo_1075866" data-name="Grupo 1075866" transform="translate(-12615 -6336)">
    <rect id="Rectángulo_378521" data-name="Rectángulo 378521" width="190" height="161" transform="translate(12615 6336)" fill="none"/>
    <g id="Grupo_1075863" data-name="Grupo 1075863" transform="translate(-9.023 -2.656)">
      <path id="Trazado_278557" data-name="Trazado 278557" d="M161.263,9615.7c-.1-2.4.553-3.351,2.806-4.053.751-.233,1.506-.457,2.266-.661,2.416-.649,4.207.611,4.306,3.1a18.4,18.4,0,0,0,1.67,7.791c2.173,4.272,6.038,6.257,10.4,7.521,5.243,1.521,10.661,1.853,16.061,2.143,7.249.386,14.52.355,21.751,1.032,6.352.593,12.607,1.644,18.2,5.038a19.681,19.681,0,0,1,9.562,14.979,1.89,1.89,0,0,0,1.461,1.871,12.606,12.606,0,0,1,8.187,8.128c.35,1.01.8,1.354,1.775,1.214a4.081,4.081,0,0,1,.945.006,3.226,3.226,0,0,1,3.116,3.156,3.358,3.358,0,0,1-3.137,3.174c-.625.1-1.672-.729-1.888.607-.426,2.621-.088,3.487,1.52,4.06a13.215,13.215,0,0,1,8.557,12.275c.073,3,.018,6,.019,9,0,12.1.036,24.2-.011,36.3a23.307,23.307,0,0,1-18.61,23.1,24.807,24.807,0,0,1-5.483.512q-56.745-.01-113.49-.01c-12.213,0-21.469-7.711-23.742-19.723-.041-.214-.074-.407-.312-.479v-51.147c.536-.231.449-.786.577-1.2a12.712,12.712,0,0,1,8.079-8.611c1.106-.405,1.693-.874,1.456-2.1a3.272,3.272,0,0,1,0-1.1c.187-1.2-.227-1.591-1.493-1.554a3.172,3.172,0,0,1-3.547-3.172c.035-1.824,1.481-3.126,3.652-3.075a1.989,1.989,0,0,0,2.338-1.579,12.28,12.28,0,0,1,7.939-7.748,1.84,1.84,0,0,0,1.468-1.86,42.294,42.294,0,0,1,7.76-21.485,45.5,45.5,0,0,1,6.14-6.968c1.44-1.352,2.689-1.34,4.685-.1,1.181,2.244,1.04,3.234-.727,5.04-.515.525-1.057,1.028-1.56,1.564A37.089,37.089,0,0,0,134,9652.011c-.168,1.351.047,1.726,1.51,1.721q30.307-.083,60.616-.037,22.257,0,44.516.026c1.188,0,1.516-.188,1.249-1.446a13.768,13.768,0,0,0-7.4-9.834c-4.627-2.42-9.7-3.04-14.766-3.541-7.019-.7-14.079-.7-21.121-1.023a77.706,77.706,0,0,1-16.862-2.155c-8.821-2.393-15.176-7.262-16.956-16.772-.077-.407.01-.952-.723-1.006a3.406,3.406,0,0,1-2.795-2.241M188,9680.215q-33.22,0-66.442,0c-5.346,0-8.055,2.705-8.056,8.04q0,21.7,0,43.4c0,10.732,7.285,18.015,18.019,18.015q56.5,0,113,0c10.726,0,18-7.289,18-18.033q0-21.623,0-43.244c0-5.539-2.658-8.179-8.235-8.18H188m.009-10.1H133.1c-2.735,0-5.469-.008-8.2.009-.4,0-1.1-.2-1.152.183a9.355,9.355,0,0,0-.047,3.266c.145.676,1.1.315,1.675.315q62.639.025,125.279.015c.368,0,.738.018,1.1-.011.194-.015.541-.105.546-.176a12.822,12.822,0,0,0,.023-3.271c-.145-.675-1.1-.312-1.675-.313q-31.32-.029-62.639-.016m63.566-6.37c-1.753-2.905-4.227-3.747-7.212-3.746q-56.351.028-112.7.015a12.626,12.626,0,0,0-1.731.071,6.684,6.684,0,0,0-5.415,3.66Z" transform="translate(12531 -3264.25)" fill="#010101"/>
      <path id="Trazado_278558" data-name="Trazado 278558" d="M158.229,9615.146a3.4,3.4,0,0,0,2.795,2.242c.734.053.646.6.723,1.006,1.781,9.51,8.135,14.38,16.958,16.773a77.755,77.755,0,0,0,16.861,2.154c7.041.327,14.1.33,21.121,1.023,5.065.5,10.14,1.121,14.767,3.539a13.773,13.773,0,0,1,7.4,9.837c.267,1.258-.06,1.448-1.249,1.445q-22.257-.06-44.516-.026-30.307,0-60.616.038c-1.462,0-1.678-.37-1.51-1.72a37.078,37.078,0,0,1,9.957-21.321c.5-.537,1.046-1.039,1.56-1.566,1.767-1.806,1.908-2.8.727-5.04a5.488,5.488,0,0,0,2.329-1.668,3.371,3.371,0,0,0,3.285,1.392c2.154-.426,3.006-2.212,2.252-4.764Z" transform="translate(12534.034 -3263.697)" fill="#fde5c2"/>
      <path id="Trazado_278559" data-name="Trazado 278559" d="M149.445,9618.275c.755,2.555-.1,4.338-2.252,4.764a3.37,3.37,0,0,1-3.285-1.393c-.876-2.932.7-5.171,3.342-4.775a3.953,3.953,0,0,1,2.2,1.4" transform="translate(12535.664 -3263.482)" fill="#060605"/>
      <path id="Trazado_278560" data-name="Trazado 278560" d="M187.288,9672.347h66.284c5.576,0,8.233,2.641,8.235,8.179q0,21.623,0,43.244c0,10.745-7.274,18.032-18,18.034q-56.5,0-113,0c-10.735,0-18.017-7.282-18.019-18.015q-.005-21.7,0-43.4c0-5.336,2.71-8.04,8.056-8.041h66.442m-.006,9.471q-22.247,0-44.5,0c-5.86,0-9.157,3.321-9.159,9.216q-.007,16.014,0,32.03c0,5.984,3.282,9.266,9.268,9.266q44.417,0,88.834,0c5.961,0,9.238-3.3,9.241-9.295q.005-15.937,0-31.874c0-6.089-3.257-9.345-9.349-9.345q-22.168,0-44.338,0" transform="translate(12531.716 -3256.382)" fill="#fe826b"/>
      <path id="Trazado_278561" data-name="Trazado 278561" d="M186.154,9663.4q31.319,0,62.639.017c.577,0,1.529-.362,1.676.313a12.831,12.831,0,0,1-.024,3.272c0,.069-.352.16-.545.175-.367.029-.737.012-1.1.012q-62.639,0-125.278-.016c-.577,0-1.531.36-1.676-.314a9.361,9.361,0,0,1,.047-3.267c.056-.379.752-.18,1.152-.183,2.735-.017,5.47-.009,8.205-.009Z" transform="translate(12532.857 -3257.537)" fill="#b2b2b2"/>
      <path id="Trazado_278562" data-name="Trazado 278562" d="M249.613,9658.166H122.552a6.684,6.684,0,0,1,5.415-3.66,12.626,12.626,0,0,1,1.731-.071q56.351,0,112.7-.015c2.984,0,5.459.841,7.212,3.746" transform="translate(12532.965 -3258.673)" fill="#b2b2b2"/>
      <path id="Trazado_278563" data-name="Trazado 278563" d="M184.92,9680.744q22.169,0,44.338,0c6.092,0,9.348,3.256,9.349,9.346q0,15.936,0,31.873c0,6-3.28,9.295-9.241,9.3q-44.417,0-88.835,0c-5.984,0-9.265-3.282-9.268-9.267q-.005-16.015,0-32.03c0-5.894,3.3-9.214,9.159-9.216q22.247-.009,44.5,0m-.146,44.2q22.327,0,44.653,0c2.314,0,2.864-.555,2.865-2.885q.005-16.015,0-32.03c0-2.447-.517-2.969-2.938-2.969q-44.415,0-88.831,0c-2.428,0-2.944.52-2.944,2.963q0,15.936,0,31.873c0,2.548.5,3.048,3.017,3.048q22.09,0,44.179,0" transform="translate(12534.078 -3255.308)"/>
      <path id="Trazado_278564" data-name="Trazado 278564" d="M184.058,9724.229H139.879c-2.522,0-3.017-.5-3.017-3.048q0-15.937,0-31.873c0-2.444.517-2.964,2.944-2.964q44.417,0,88.831,0c2.422,0,2.938.521,2.938,2.969q0,16.018,0,32.03c0,2.33-.55,2.884-2.865,2.884q-22.327.006-44.653,0m-20.376-25.257q-9.7,0-19.39,0a8.045,8.045,0,0,0-1.873.162,3.067,3.067,0,0,0-.046,5.966,7.673,7.673,0,0,0,1.871.174q19.469.013,38.94,0a7.518,7.518,0,0,0,1.869-.183,3.021,3.021,0,0,0,2.291-3.021,2.972,2.972,0,0,0-2.246-2.9,7.049,7.049,0,0,0-1.867-.2q-9.774-.019-19.548-.007m-10.14-9.474c-3.255,0-6.511-.016-9.766.007-2.272.014-3.747,1.286-3.738,3.164s1.482,3.135,3.761,3.141q9.609.021,19.218,0c2.3,0,3.768-1.215,3.817-3.089.049-1.921-1.466-3.207-3.84-3.218-3.15-.017-6.3-.006-9.452-.006m65.314,25.258c-2,0-3.989-.019-5.983.006-2.258.026-3.733,1.321-3.7,3.2.035,1.831,1.465,3.091,3.634,3.1q5.984.041,11.968,0c2.16-.015,3.6-1.291,3.623-3.118s-1.418-3.145-3.56-3.183c-1.994-.035-3.989-.008-5.983-.008m-15.716.013a3.146,3.146,0,1,0,.116,6.291,3.146,3.146,0,0,0-.116-6.291" transform="translate(12534.794 -3254.591)" fill="#e5e5e5"/>
      <path id="Trazado_278565" data-name="Trazado 278565" d="M163.322,9697.54q9.774,0,19.548.008a7.014,7.014,0,0,1,1.867.2,2.971,2.971,0,0,1,2.246,2.9,3.02,3.02,0,0,1-2.292,3.021,7.417,7.417,0,0,1-1.869.183q-19.469.015-38.939,0a7.673,7.673,0,0,1-1.871-.174,3.067,3.067,0,0,1,.046-5.966,8.093,8.093,0,0,1,1.872-.161q9.7-.016,19.392-.006" transform="translate(12535.154 -3253.161)"/>
      <path id="Trazado_278566" data-name="Trazado 278566" d="M153.182,9689.143c3.15,0,6.3-.012,9.452,0,2.374.014,3.889,1.3,3.84,3.223-.048,1.873-1.514,3.082-3.817,3.088q-9.61.018-19.218,0c-2.279-.006-3.752-1.266-3.761-3.141s1.465-3.15,3.738-3.164c3.255-.021,6.511-.006,9.766-.006" transform="translate(12535.154 -3254.235)" fill="#010101"/>
      <path id="Trazado_278567" data-name="Trazado 278567" d="M210.657,9711.537c1.994,0,3.989-.027,5.983.008,2.142.038,3.584,1.356,3.56,3.183s-1.463,3.1-3.623,3.118q-5.984.041-11.968,0c-2.169-.015-3.6-1.273-3.634-3.1-.035-1.878,1.44-3.172,3.7-3.2,1.994-.024,3.989,0,5.983,0" transform="translate(12542.993 -3251.372)" fill="#020202"/>
      <path id="Trazado_278568" data-name="Trazado 278568" d="M195.98,9711.547a3.146,3.146,0,0,1,.116,6.291,3.146,3.146,0,1,1-.116-6.291" transform="translate(12541.955 -3251.37)" fill="#070707"/>
    </g>
  </g>
</svg>
