<?xml version="1.0" encoding="utf-8"?>
<!-- Generator: Adobe Illustrator 27.5.0, SVG Export Plug-In . SVG Version: 6.00 Build 0)  -->
<svg version="1.1" id="Capa_1" xmlns="http://www.w3.org/2000/svg" xmlns:xlink="http://www.w3.org/1999/xlink" x="0px" y="0px"
	 viewBox="0 0 595.28 841.89" style="enable-background:new 0 0 595.28 841.89;" xml:space="preserve">
<style type="text/css">
	.st0{fill:none;}
	.st1{fill:#CA9E67;}
	.st2{fill:#B17F4A;}
	.st3{fill:#936037;}
	.st4{fill:#EEA1C6;}
	.st5{fill:#D5E29D;}
	.st6{fill:#36A9E1;}
	.st7{fill:#FFFFFF;}
</style>
<g>
	<rect id="Rectángulo_378515" x="81.93" y="163.7" class="st0" width="190" height="161"/>
	<g>
		<path d="M238,273.08c-1.55,0-3.04,0-4.7,0c0-0.59,0-1.12,0-1.65c0-8.11,0.03-16.21-0.01-24.32c-0.03-6.77-4.52-11.74-11.05-12.52
			c0.86,2.76,1.91,5.56,2.6,8.44c1.18,4.95,0.74,9.92-0.3,14.86c-1.24,5.86-0.85,11.7,0.12,17.57c0.7,4.23,1.26,8.52,1.37,12.79
			c0.21,8.55,0.07,17.11,0.06,25.67c-0.01,4.11-3.1,7.26-7.18,7.23c-2.39-0.01-4.78-0.28-7.17-0.28c-2.09-0.01-4.19,0.09-6.27,0.32
			c-4.55,0.5-9.33-2.98-8.05-9.69c0.52-2.73,1.46-5.39,2.01-8.12c0.87-4.35-0.88-8.13-2.88-11.82c-0.13-0.23-0.43-0.41-0.69-0.52
			c-5.21-2.16-8.83-5.89-11.07-11.26c-6.84,3.04-14.06,3.18-21.43,2.9c-0.32,3.46-0.56,6.78-0.96,10.09
			c-0.7,5.7-1.49,11.39-2.25,17.08c-0.23,1.73-0.49,3.46-0.75,5.19c-0.54,3.52-3.51,6.17-7.06,6.11c-2.02-0.04-4.04-0.38-6.06-0.58
			c-0.24-0.02-0.49-0.02-0.74,0.01c-1.97,0.2-3.94,0.54-5.91,0.57c-4.11,0.07-7.19-3.08-7.25-7.17c-0.07-4.75,0-9.51-0.34-14.24
			c-0.16-2.13-0.98-4.28-1.86-6.26c-1.61-3.67-2.66-7.4-2.62-11.43c0.01-0.99-0.11-2-0.3-2.98c-0.08-0.43-0.39-0.92-0.75-1.18
			c-6.42-4.82-9.82-11.28-10.61-19.21c-0.35-3.56-1.77-6.72-3.88-9.84c-1.52,1-3.03,1.93-4.48,2.96c-3.46,2.45-7.2,3.18-10.76,0.72
			c-3.17-2.19-6.24-4.76-7.35-8.79c-0.64-2.3-0.49-4.61,0.64-6.71c3.17-5.85,4.51-12.23,5.63-18.68c0.08-0.47-0.33-1.19-0.72-1.57
			c-3.7-3.5-5.75-7.74-5.85-12.86c-0.04-2,0.82-2.84,2.79-2.85c3.98-0.02,7.69,1.02,11.25,2.73c0.43,0.21,1.23,0.28,1.55,0.03
			c5.44-4.3,13.34-3.39,18.17,1.14c0.11,0.1,0.24,0.17,0.44,0.31c4.96-2.85,9.82-2.12,14.59,0.62c1.59,0.91,2.01,1.9,1.38,3.6
			c-0.42,1.12-0.87,2.22-1.34,3.4c1.71,0.23,3.43,0.22,4.99,0.7c3.72,1.13,7.4,2.38,11.03,3.78c6.72,2.59,13.58,3.35,20.74,2.43
			c6.54-0.84,13.11-1.67,19.69-1.83c8.87-0.23,16.41,3.3,22.65,9.63c0.64,0.65,1.62,1.11,2.52,1.35c1.92,0.52,3.91,0.78,5.85,1.26
			c7.27,1.83,12.64,8.66,12.66,16.14c0.03,8.76,0,17.51,0,26.27C238.1,272.73,238.06,272.82,238,273.08z M163.63,278.13
			c3.89-0.21,7.69-0.2,11.43-0.67c6.13-0.76,11.54-3.36,16.43-7.12c3.08-2.38,6.53-2.75,10.01-1.05c3.48,1.7,5.25,4.61,5.38,8.52
			c0.05,1.34,0.07,2.77,0.54,3.99c1.25,3.25,2.58,6.48,4.14,9.59c2.87,5.72,3.29,11.52,1.19,17.56c-0.5,1.45-0.85,2.98-1.03,4.5
			c-0.21,1.76,0.85,2.86,2.62,2.92c1.3,0.05,2.6,0.02,3.9,0.01c2.1-0.03,3.02-0.92,3.03-3.02c0.02-2.65,0.03-5.3,0-7.96
			c-0.1-9.94,0.54-19.91-1.46-29.77c-0.19-0.95-0.59-1.45-1.39-1.91c-5.57-3.19-8.73-8-9.1-14.42c-0.15-2.66-0.98-4.69-3.19-6.23
			c-2.04-1.42-3.31-3.47-3.79-5.91c-0.77-3.89-0.19-7.71,1.12-11.35c1.14-3.2,2.79-6.21,4.23-9.35c-7.56-4.81-15.92-4.03-24.51-2.55
			c0.57,1.05,1.07,1.97,1.57,2.89c1.91,3.54,2.95,7.3,2.9,11.34c-0.06,4.72-2.26,8.17-6.54,10.06c-4.23,1.87-8.34,1.24-11.69-1.93
			c-4.86-4.6-10.39-7.82-16.77-9.82c-4.92-1.54-8.07-5.04-9.44-10.03c-0.41-1.49-0.64-3.02-0.95-4.54
			c-0.82-3.97-0.82-3.93-4.93-4.01c-1.75-0.04-3.18,0.25-4.63,1.46c-2.77,2.32-6.12,3.4-9.82,3.34c0-1.68,0-3.2,0-4.71
			c6.04-0.82,10.24-4.07,11.01-8.53c-0.14-0.09-0.3-0.21-0.47-0.29c-2.78-1.35-5.4-0.84-8.02,0.55c-2.96,1.57-3.08,1.5-5.44-0.78
			c-1.86-1.8-4.04-2.83-6.78-2.92c0,0.57-0.02,1.06,0,1.56c0.18,3.44-0.16,6.76-1.74,9.92c-0.49,0.98-0.59,2.22-0.64,3.35
			c-0.21,4.72-3.26,8.66-7.81,9.84c-1.06,0.28-2.16,0.47-3.25,0.5c-1.85,0.04-2.61,1.02-2.77,2.82c5.02,2.55,8.49,6.57,10.26,11.72
			c2.1-0.77,4.15-1.39,6.07-2.27c1.89-0.87,3.77-1.84,5.47-3.04c3.14-2.22,5.14-5.39,6.62-9c1.53,0.62,2.98,1.2,4.48,1.81
			c-2.53,6.51-6.85,11.07-12.93,14.07c0.16,0.33,0.25,0.56,0.37,0.76c1.83,3.14,3.12,6.49,3.47,10.12
			c0.55,5.76,2.73,10.71,7.12,14.57c2.42,2.12,5.14,3.67,8.58,4.45c-1.26-5.04-4.06-8.72-7.95-11.74c1.01-1.33,1.93-2.54,2.93-3.86
			c6.44,4.91,10.07,11.23,10.49,19.17c0.21,4.01,0.88,7.79,2.64,11.42c1.56,3.23,2.27,6.69,2.24,10.3c-0.03,3.7-0.02,7.41,0,11.11
			c0.01,1.6,0.79,2.55,2.18,2.79c2.94,0.51,4.86-0.04,5.46-1.59c0.11-0.27,0.14-0.58,0.18-0.87c0.24-1.63,0.45-3.26,0.69-4.89
			c1.51-10.08,3.01-20.16,3.24-30.38c0.06-2.58,0.01-5.17,0.01-7.77c1.93,0,3.44,0,5.05,0
			C163.63,273.23,163.63,275.51,163.63,278.13z M146.84,220.03c0.29,1.43,0.58,2.69,0.81,3.95c0.75,4.2,3.18,6.86,7.25,8.09
			c6.56,1.99,12.32,5.35,17.26,10.12c2.32,2.24,4.89,2.68,7.38,1.39c2.39-1.24,3.53-3.82,3.25-6.85c-0.35-3.79-1.96-7.06-3.75-10.31
			c-1.18-2.14-1.1-2.15-3.46-1.82c-6.1,0.85-12.16,0.77-18.1-1C153.95,222.55,150.49,221.26,146.84,220.03z M211.97,229.52
			c-0.14,0.25-0.23,0.43-0.34,0.6c-3.12,4.37-4.62,9.27-4.73,14.59c-0.04,1.9,0.77,3.51,2.35,4.63c3.21,2.27,4.77,5.33,4.88,9.28
			c0.11,3.73,1.61,6.9,4.54,9.36c0.26-3.14,0.38-6.18,0.78-9.17c0.59-4.35,1.68-8.62,0.97-13.08
			C219.42,239.44,216.72,234.1,211.97,229.52z M132.4,281.17c-0.05,3.44,0.51,6.61,1.96,9.57c2.01,4.12,3,8.43,2.85,13.03
			c-0.1,3.25-0.04,6.5-0.01,9.76c0.01,1.61,0.76,2.62,2.15,2.8c0.96,0.12,1.94,0.02,2.82,0.02c-0.06-1.17-0.16-2.16-0.16-3.15
			c-0.02-3.45,0.19-6.92-0.07-10.35c-0.21-2.7-0.6-5.52-1.6-8.01c-1.61-4.01-3.18-7.96-3.17-12.35
			C135.6,282.05,134.11,281.64,132.4,281.17z M203.98,287.47c-0.53-1.81-1.14-3.45-1.47-5.14c-0.33-1.71-0.24-3.49-0.56-5.2
			c-0.66-3.62-4.46-5.06-7.5-2.93c-1.43,1-2.85,2.03-4.33,2.95c-0.73,0.46-0.73,0.88-0.42,1.59c1.01,2.35,2.53,4.31,4.57,5.84
			C197.1,286.71,200.31,287.69,203.98,287.47z M207.16,316.22c-0.75-3.23,0.02-6.3,1.11-9.32c1.8-4.99,1.01-9.71-1.57-14.21
			c-0.16-0.28-0.58-0.58-0.87-0.57c-1.07,0.05-2.14,0.23-3.29,0.37c0.1,0.28,0.16,0.52,0.25,0.74c1.67,3.86,2.15,7.88,1.33,11.99
			c-0.39,1.94-1.13,3.81-1.64,5.73c-1.16,4.33,0.01,5.76,4.35,5.4C206.93,316.35,207.02,316.28,207.16,316.22z M99.32,226.23
			c4.1-0.25,6.22-2.17,6.66-5.48c0.31-2.29,0.87-4.57,1.6-6.77c0.72-2.17,0.89-4.29,0.66-6.76
			C102.28,212.33,100.03,218.86,99.32,226.23z M102.95,248.7c-1.19-4.63-3.78-8.05-7.99-10.24c-1.4,2.19-1.32,4.26,0.26,6.04
			c1.06,1.19,2.2,2.32,3.38,3.39C99.83,249,101.29,249.28,102.95,248.7z M100.75,207.9c-2.17-0.66-4.23-1.29-6.53-1.99
			c0.6,2.82,1.7,4.9,3.56,6.74C98.74,211.11,99.63,209.69,100.75,207.9z"/>
		<path class="st1" d="M163.63,278.13c0-2.62,0-4.9,0-7.29c-1.61,0-3.13,0-5.05,0c0,2.6,0.05,5.19-0.01,7.77
			c-0.23,10.22-1.73,20.3-3.24,30.38c-0.24,1.63-0.46,3.26-0.69,4.89c-0.04,0.29-0.08,0.6-0.18,0.87c-0.6,1.55-2.52,2.11-5.46,1.59
			c-1.38-0.24-2.17-1.19-2.18-2.79c-0.03-3.7-0.03-7.41,0-11.11c0.03-3.61-0.67-7.08-2.24-10.3c-1.76-3.63-2.43-7.41-2.64-11.42
			c-0.42-7.94-4.05-14.26-10.49-19.17c-1,1.31-1.92,2.53-2.93,3.86c3.89,3.02,6.68,6.7,7.95,11.74c-3.43-0.78-6.16-2.33-8.58-4.45
			c-4.39-3.86-6.56-8.81-7.12-14.57c-0.35-3.64-1.64-6.98-3.47-10.12c-0.12-0.21-0.21-0.43-0.37-0.76c6.08-3,10.4-7.56,12.93-14.07
			c-1.5-0.61-2.95-1.19-4.48-1.81c-1.47,3.61-3.47,6.78-6.62,9c-1.7,1.2-3.58,2.18-5.47,3.04c-1.92,0.88-3.96,1.5-6.07,2.27
			c-1.77-5.15-5.24-9.16-10.26-11.72c0.16-1.8,0.92-2.78,2.77-2.82c1.09-0.02,2.19-0.22,3.25-0.5c4.55-1.18,7.61-5.12,7.81-9.84
			c0.05-1.13,0.15-2.37,0.64-3.35c1.58-3.16,1.92-6.48,1.74-9.92c-0.03-0.49,0-0.99,0-1.56c2.74,0.09,4.92,1.12,6.78,2.92
			c2.36,2.29,2.49,2.35,5.44,0.78c2.62-1.39,5.24-1.89,8.02-0.55c0.17,0.08,0.33,0.2,0.47,0.29c-0.77,4.45-4.97,7.71-11.01,8.53
			c0,1.51,0,3.03,0,4.71c3.7,0.06,7.04-1.01,9.82-3.34c1.45-1.22,2.88-1.5,4.63-1.46c4.12,0.08,4.12,0.04,4.93,4.01
			c0.31,1.51,0.54,3.05,0.95,4.54c1.38,4.99,4.52,8.49,9.44,10.03c6.38,1.99,11.92,5.22,16.77,9.82c3.35,3.18,7.46,3.8,11.69,1.93
			c4.28-1.89,6.47-5.33,6.54-10.06c0.05-4.04-0.99-7.8-2.9-11.34c-0.5-0.92-1-1.84-1.57-2.89c8.59-1.48,16.95-2.26,24.51,2.55
			c-1.44,3.14-3.09,6.16-4.23,9.35c-1.3,3.64-1.89,7.46-1.12,11.35c0.49,2.45,1.75,4.49,3.79,5.91c2.22,1.54,3.04,3.57,3.19,6.23
			c0.37,6.41,3.54,11.22,9.1,14.42c0.81,0.46,1.2,0.96,1.39,1.91c2,9.85,1.36,19.83,1.46,29.77c0.03,2.65,0.02,5.3,0,7.96
			c-0.02,2.1-0.93,3-3.03,3.02c-1.3,0.02-2.6,0.04-3.9-0.01c-1.77-0.07-2.83-1.16-2.62-2.92c0.19-1.52,0.53-3.05,1.03-4.5
			c2.1-6.04,1.69-11.83-1.19-17.56c-1.56-3.11-2.9-6.34-4.14-9.59c-0.47-1.22-0.49-2.65-0.54-3.99c-0.13-3.92-1.91-6.83-5.38-8.52
			c-3.48-1.7-6.93-1.33-10.01,1.05c-4.89,3.77-10.3,6.36-16.43,7.12C171.32,277.92,167.52,277.92,163.63,278.13z M154.22,265.93
			c0.5,0,1,0,1.5,0c3.51-0.01,6.16-1.65,7.34-4.66c1.24-3.17,0.53-5.98-1.83-8.38c-1.72-1.75-3.42-3.52-5.22-5.19
			c-5.94-5.53-12.96-8.32-21.1-8.18c-3.76,0.06-7.1,3.28-7.33,7.01c-0.26,4.12,1.82,7.13,5.81,8.33c2.9,0.87,5.46,2.26,7.33,4.68
			C144.14,263.97,148.58,266.19,154.22,265.93z"/>
		<path class="st2" d="M146.84,220.03c3.65,1.24,7.11,2.53,10.63,3.58c5.94,1.77,12,1.85,18.1,1c2.37-0.33,2.28-0.32,3.46,1.82
			c1.8,3.25,3.4,6.53,3.75,10.31c0.28,3.03-0.85,5.61-3.25,6.85c-2.49,1.29-5.06,0.85-7.38-1.39c-4.94-4.77-10.7-8.13-17.26-10.12
			c-4.07-1.23-6.5-3.89-7.25-8.09C147.42,222.71,147.13,221.46,146.84,220.03z"/>
		<path class="st2" d="M211.97,229.52c4.75,4.58,7.45,9.92,8.45,16.21c0.72,4.46-0.38,8.74-0.97,13.08c-0.4,3-0.52,6.03-0.78,9.17
			c-2.93-2.46-4.44-5.63-4.54-9.36c-0.11-3.96-1.67-7.01-4.88-9.28c-1.58-1.12-2.39-2.74-2.35-4.63c0.1-5.33,1.61-10.23,4.73-14.59
			C211.75,229.95,211.83,229.76,211.97,229.52z"/>
		<path class="st3" d="M132.4,281.17c1.72,0.48,3.2,0.88,4.76,1.32c0,4.4,1.56,8.35,3.17,12.35c1,2.49,1.39,5.3,1.6,8.01
			c0.26,3.43,0.05,6.9,0.07,10.35c0.01,0.99,0.1,1.98,0.16,3.15c-0.88,0-1.87,0.1-2.82-0.02c-1.39-0.17-2.13-1.19-2.15-2.8
			c-0.02-3.25-0.09-6.51,0.01-9.76c0.15-4.6-0.85-8.91-2.85-13.03C132.91,287.78,132.34,284.61,132.4,281.17z"/>
		<path class="st4" d="M203.98,287.47c-3.67,0.22-6.87-0.76-9.72-2.9c-2.04-1.53-3.55-3.48-4.57-5.84
			c-0.31-0.71-0.31-1.13,0.42-1.59c1.48-0.92,2.9-1.95,4.33-2.95c3.05-2.13,6.84-0.69,7.5,2.93c0.31,1.71,0.23,3.5,0.56,5.2
			C202.83,284.02,203.45,285.66,203.98,287.47z"/>
		<path class="st3" d="M207.16,316.22c-0.14,0.06-0.23,0.13-0.32,0.13c-4.34,0.35-5.51-1.08-4.35-5.4c0.51-1.92,1.25-3.79,1.64-5.73
			c0.82-4.11,0.34-8.13-1.33-11.99c-0.1-0.22-0.16-0.46-0.25-0.74c1.15-0.14,2.21-0.32,3.29-0.37c0.29-0.01,0.71,0.29,0.87,0.57
			c2.58,4.5,3.37,9.22,1.57,14.21C207.17,309.92,206.4,312.99,207.16,316.22z"/>
		<path class="st2" d="M99.32,226.23c0.71-7.38,2.95-13.9,8.92-19.01c0.23,2.47,0.07,4.6-0.66,6.76c-0.73,2.19-1.29,4.48-1.6,6.77
			C105.54,224.06,103.42,225.98,99.32,226.23z"/>
		<path class="st2" d="M102.95,248.7c-1.66,0.59-3.12,0.3-4.36-0.82c-1.18-1.07-2.32-2.2-3.38-3.39c-1.57-1.78-1.65-3.84-0.26-6.04
			C99.17,240.65,101.77,244.06,102.95,248.7z"/>
		<path class="st2" d="M100.75,207.9c-1.12,1.79-2.01,3.21-2.97,4.75c-1.86-1.83-2.96-3.92-3.56-6.74
			C96.52,206.61,98.57,207.24,100.75,207.9z"/>
		<path d="M154.22,265.93c-5.63,0.26-10.08-1.96-13.5-6.39c-1.87-2.42-4.43-3.81-7.33-4.68c-3.99-1.2-6.07-4.21-5.81-8.33
			c0.24-3.73,3.57-6.95,7.33-7.01c8.14-0.14,15.16,2.65,21.1,8.18c1.79,1.67,3.5,3.44,5.22,5.19c2.37,2.4,3.08,5.21,1.83,8.38
			c-1.18,3.01-3.83,4.65-7.34,4.66C155.22,265.93,154.72,265.93,154.22,265.93z M154.04,261.13c0.61,0,1.01-0.01,1.41,0
			c1.4,0.03,2.57-0.34,3.14-1.79c0.57-1.42-0.17-2.39-1.1-3.31c-1.64-1.62-3.23-3.29-4.9-4.86c-4.64-4.36-10.19-6.54-16.52-6.85
			c-1.4-0.07-2.59,0.35-3.3,1.63c-0.98,1.79-0.02,3.69,2.25,4.34c3.92,1.12,7.19,3.22,9.69,6.44
			C147.13,259.86,150.33,261.27,154.04,261.13z"/>
		<path class="st2" d="M154.04,261.13c-3.71,0.14-6.9-1.27-9.33-4.39c-2.51-3.22-5.77-5.32-9.69-6.44
			c-2.26-0.65-3.23-2.55-2.25-4.34c0.71-1.29,1.89-1.7,3.3-1.63c6.33,0.3,11.89,2.49,16.52,6.85c1.68,1.58,3.27,3.25,4.9,4.86
			c0.93,0.92,1.66,1.88,1.1,3.31c-0.57,1.44-1.74,1.81-3.14,1.79C155.05,261.12,154.65,261.13,154.04,261.13z"/>
	</g>
	<g>
		<path d="M249.92,173.62c0.47,0.42,0.96,0.81,1.41,1.25c5.95,5.94,11.88,11.88,17.82,17.82c0.25,0.25,0.51,0.49,0.72,0.76
			c0.61,0.78,0.55,1.82-0.12,2.51c-0.7,0.72-1.78,0.81-2.58,0.14c-0.53-0.45-1.01-0.96-1.5-1.46c-0.96-0.97-1.91-1.94-2.79-2.84
			c-4.15,4.17-8.26,8.29-12.44,12.49c0.6,0.59,1.35,1.32,2.08,2.05c1.93,1.93,3.86,3.85,5.78,5.79c1.1,1.1,1.11,2.13,0.04,3.21
			c-1.99,2-3.98,4-5.99,5.99c-1.1,1.1-2.07,1.08-3.2-0.04c-0.52-0.51-1.02-1.04-1.65-1.68c-0.94,0.98-1.81,1.93-2.72,2.84
			c-12.37,12.38-24.75,24.75-37.1,37.15c-0.85,0.86-1.72,1.21-2.93,1.2c-4.63-0.06-9.26-0.05-13.89-0.01
			c-1.4,0.01-2.75,0.05-3.6-1.43c-1.65,1.66-3.2,3.25-4.79,4.79c-0.35,0.34-0.8,0.66-1.26,0.77c-0.84,0.22-1.56-0.1-2.03-0.86
			c-0.44-0.72-0.34-1.68,0.32-2.36c1.39-1.43,2.81-2.84,4.23-4.24c0.25-0.24,0.55-0.43,0.95-0.72c-1.5-0.9-1.57-2.15-1.56-3.51
			c0.05-4.79,0.04-9.58,0-14.36c-0.01-1,0.31-1.73,1.01-2.43c13.11-13.08,26.19-26.18,39.29-39.27c0.25-0.25,0.54-0.45,0.96-0.79
			c-0.71-0.66-1.33-1.19-1.89-1.77c-0.94-0.97-0.96-1.97-0.02-2.93c2.07-2.1,4.16-4.18,6.26-6.25c0.93-0.92,2.01-0.87,3,0.12
			c2.67,2.66,5.33,5.34,7.9,7.93c4.15-4.15,8.26-8.26,12.46-12.47c-1.14-1.13-2.43-2.39-3.7-3.66c-1.45-1.45-1.39-2.48,0.21-3.73
			C249.03,173.62,249.48,173.62,249.92,173.62z M199.87,226.29c0.87,0.83,1.76,1.64,2.61,2.48c1.14,1.12,1.25,2.17,0.38,3.06
			c-0.86,0.88-1.98,0.77-3.06-0.32c-0.86-0.87-1.7-1.77-2.43-2.53c-1.34,1.32-2.54,2.52-3.84,3.8c0.87,0.85,1.88,1.69,2.71,2.67
			c0.4,0.48,0.74,1.26,0.65,1.85c-0.22,1.58-2.07,2.06-3.28,0.91c-0.98-0.93-1.91-1.91-2.93-2.95c-1.12,1.15-2.17,2.16-3.13,3.25
			c-0.32,0.36-0.57,0.91-0.58,1.38c-0.05,3.33-0.03,6.66-0.02,9.99c0,1.27-0.33,2.69,0.14,3.75c0.5,1.14,1.74,1.97,2.71,2.88
			c0.26,0.25,0.7,0.43,1.06,0.44c4.44,0.03,8.88,0.03,13.31,0c0.36,0,0.82-0.17,1.07-0.42c4.68-4.64,9.34-9.31,13.99-13.99
			c0.24-0.24,0.42-0.65,0.42-0.98c0.02-9.42,0.02-18.83,0.01-28.25c0-0.26-0.06-0.6-0.22-0.78c-0.93-1.02-1.9-2.01-2.95-3.11
			c-1.16,1.2-2.19,2.26-3.23,3.33c-0.15,0.16-0.29,0.33-0.52,0.58c0.95,0.92,1.9,1.8,2.81,2.72c0.91,0.91,0.97,2.07,0.2,2.87
			c-0.79,0.82-1.99,0.77-2.94-0.17c-0.91-0.91-1.78-1.87-2.63-2.76c-1.33,1.33-2.53,2.54-3.74,3.77c0-0.01,0.01,0.06,0.05,0.1
			c0.85,0.86,1.7,1.71,2.54,2.57c0.98,0.99,1.08,2.1,0.28,2.93c-0.82,0.85-1.99,0.78-3-0.23c-0.89-0.89-1.75-1.82-2.59-2.71
			C202.42,223.75,201.23,224.94,199.87,226.29z M226.66,193.12c8.03,8.04,16.11,16.12,24.11,24.12c1.15-1.15,2.36-2.35,3.48-3.48
			c-8.02-8.02-16.09-16.09-24.13-24.13C228.98,190.78,227.78,191.98,226.66,193.12z M254.97,184.12c-4.1,4.1-8.19,8.2-12.17,12.18
			c1.6,1.59,3.25,3.23,4.84,4.8c4.01-4.01,8.1-8.1,12.16-12.17C258.2,187.35,256.57,185.72,254.97,184.12z M234.03,227.55
			c-3.5-3.51-7.06-7.07-10.48-10.5c0,6.86,0,13.96,0,20.98C227.1,234.48,230.65,230.93,234.03,227.55z M225.99,213.09
			c1.63,1.63,3.26,3.27,4.79,4.8c2.39-2.39,4.91-4.92,7.3-7.3c-1.58-1.58-3.22-3.22-4.8-4.8
			C230.85,208.22,228.33,210.75,225.99,213.09z M244.58,216.98c-1.14-1.15-2.34-2.35-3.45-3.47c-2.49,2.49-5.03,5.03-7.51,7.51
			c1.13,1.13,2.33,2.33,3.47,3.46C239.58,221.99,242.13,219.44,244.58,216.98z M226.98,199.38c-2.48,2.45-5.05,5-7.48,7.4
			c1.16,1.16,2.36,2.37,3.49,3.51c2.46-2.45,5-4.97,7.47-7.43C229.28,201.68,228.08,200.48,226.98,199.38z"/>
		<path class="st5" d="M199.87,226.29c1.36-1.35,2.54-2.54,3.86-3.85c0.84,0.88,1.7,1.82,2.59,2.71c1.01,1.01,2.18,1.08,3,0.23
			c0.8-0.83,0.7-1.94-0.28-2.93c-0.84-0.86-1.7-1.71-2.54-2.57c-0.04-0.04-0.05-0.11-0.05-0.1c1.22-1.22,2.42-2.43,3.74-3.77
			c0.84,0.89,1.72,1.84,2.63,2.76c0.95,0.94,2.15,0.99,2.94,0.17c0.77-0.8,0.71-1.96-0.2-2.87c-0.91-0.92-1.86-1.8-2.81-2.72
			c0.23-0.26,0.36-0.43,0.52-0.58c1.03-1.07,2.07-2.14,3.23-3.33c1.05,1.1,2.02,2.08,2.95,3.11c0.16,0.18,0.22,0.51,0.22,0.78
			c0.01,9.42,0.01,18.83-0.01,28.25c0,0.33-0.18,0.74-0.42,0.98c-4.65,4.68-9.31,9.34-13.99,13.99c-0.25,0.25-0.71,0.42-1.07,0.42
			c-4.44,0.03-8.88,0.03-13.31,0c-0.36,0-0.8-0.19-1.06-0.44c-0.97-0.91-2.21-1.74-2.71-2.88c-0.47-1.07-0.14-2.49-0.14-3.75
			c-0.01-3.33-0.03-6.66,0.02-9.99c0.01-0.47,0.26-1.02,0.58-1.38c0.96-1.09,2.01-2.1,3.13-3.25c1.02,1.03,1.95,2.02,2.93,2.95
			c1.22,1.15,3.06,0.67,3.28-0.91c0.08-0.58-0.25-1.37-0.65-1.85c-0.83-0.99-1.83-1.83-2.71-2.67c1.3-1.29,2.5-2.48,3.84-3.8
			c0.73,0.76,1.56,1.66,2.43,2.53c1.08,1.09,2.2,1.2,3.06,0.32c0.87-0.89,0.76-1.94-0.38-3.06
			C201.63,227.93,200.75,227.12,199.87,226.29z"/>
		<path class="st6" d="M226.66,193.12c1.13-1.13,2.33-2.34,3.46-3.49c8.04,8.04,16.11,16.11,24.13,24.13
			c-1.13,1.13-2.33,2.33-3.48,3.48C242.77,209.24,234.69,201.16,226.66,193.12z"/>
		<path class="st6" d="M254.97,184.12c1.6,1.6,3.23,3.23,4.83,4.82c-4.06,4.06-8.15,8.16-12.16,12.17c-1.59-1.58-3.24-3.21-4.84-4.8
			C246.78,192.32,250.87,188.22,254.97,184.12z"/>
		<path class="st5" d="M234.03,227.55c-3.38,3.38-6.93,6.93-10.48,10.48c0-7.02,0-14.12,0-20.98
			C226.97,220.49,230.53,224.05,234.03,227.55z"/>
		<path class="st7" d="M225.99,213.09c2.34-2.34,4.86-4.87,7.29-7.31c1.58,1.58,3.22,3.22,4.8,4.8c-2.39,2.39-4.91,4.91-7.3,7.3
			C229.26,216.36,227.62,214.73,225.99,213.09z"/>
		<path class="st7" d="M244.58,216.98c-2.46,2.46-5,5.01-7.49,7.51c-1.14-1.13-2.34-2.33-3.47-3.46c2.48-2.48,5.02-5.02,7.51-7.51
			C242.24,214.63,243.44,215.83,244.58,216.98z"/>
		<path class="st7" d="M226.98,199.38c1.1,1.1,2.3,2.3,3.48,3.48c-2.47,2.46-5.01,4.98-7.47,7.43c-1.14-1.14-2.33-2.34-3.49-3.51
			C221.93,204.37,224.51,201.83,226.98,199.38z"/>
	</g>
</g>
</svg>
