<svg xmlns="http://www.w3.org/2000/svg" xmlns:xlink="http://www.w3.org/1999/xlink" width="335.471" height="242.989" viewBox="0 0 335.471 242.989">
  <defs>
    <clipPath id="clip-path">
      <rect id="Rectángulo_325659" data-name="Rectángulo 325659" width="335.02" height="184.973" fill="none"/>
    </clipPath>
    <clipPath id="clip-path-2">
      <rect id="Rectángulo_325660" data-name="Rectángulo 325660" width="230.642" height="153.48" fill="none"/>
    </clipPath>
    <clipPath id="clip-path-3">
      <rect id="Rectángulo_325661" data-name="Rectángulo 325661" width="79.05" height="46.12" fill="none"/>
    </clipPath>
    <clipPath id="clip-path-4">
      <rect id="Rectángulo_325662" data-name="Rectángulo 325662" width="81.982" height="43.04" fill="none"/>
    </clipPath>
    <clipPath id="clip-path-5">
      <rect id="Rectángulo_325663" data-name="Rectángulo 325663" width="47.268" height="25.144" fill="none"/>
    </clipPath>
    <clipPath id="clip-path-6">
      <rect id="Rectángulo_325664" data-name="Rectángulo 325664" width="45.009" height="34.311" fill="none"/>
    </clipPath>
    <clipPath id="clip-path-7">
      <rect id="Rectángulo_325665" data-name="Rectángulo 325665" width="19.942" height="30.764" fill="none"/>
    </clipPath>
    <clipPath id="clip-path-8">
      <rect id="Rectángulo_325666" data-name="Rectángulo 325666" width="13.84" height="27.924" fill="none"/>
    </clipPath>
    <clipPath id="clip-path-9">
      <rect id="Rectángulo_325667" data-name="Rectángulo 325667" width="15.616" height="20.543" fill="none"/>
    </clipPath>
    <clipPath id="clip-path-10">
      <rect id="Rectángulo_325668" data-name="Rectángulo 325668" width="30.308" height="25.639" fill="none"/>
    </clipPath>
    <clipPath id="clip-path-11">
      <rect id="Rectángulo_325669" data-name="Rectángulo 325669" width="24.865" height="24.237" fill="none"/>
    </clipPath>
    <clipPath id="clip-path-12">
      <rect id="Rectángulo_325670" data-name="Rectángulo 325670" width="18.308" height="19.764" fill="none"/>
    </clipPath>
    <clipPath id="clip-path-13">
      <rect id="Rectángulo_325671" data-name="Rectángulo 325671" width="30.68" height="16.32" fill="none"/>
    </clipPath>
    <clipPath id="clip-path-14">
      <rect id="Rectángulo_325672" data-name="Rectángulo 325672" width="21.271" height="12.728" fill="none"/>
    </clipPath>
    <clipPath id="clip-path-15">
      <rect id="Rectángulo_325673" data-name="Rectángulo 325673" width="19.197" height="8.791" fill="none"/>
    </clipPath>
    <clipPath id="clip-path-16">
      <rect id="Rectángulo_325674" data-name="Rectángulo 325674" width="23.262" height="22.395" fill="none"/>
    </clipPath>
    <clipPath id="clip-path-17">
      <rect id="Rectángulo_325675" data-name="Rectángulo 325675" width="13.011" height="11.318" fill="none"/>
    </clipPath>
    <clipPath id="clip-path-18">
      <rect id="Rectángulo_325676" data-name="Rectángulo 325676" width="16.443" height="17.118" fill="none"/>
    </clipPath>
    <clipPath id="clip-path-19">
      <rect id="Rectángulo_325677" data-name="Rectángulo 325677" width="15.963" height="12.723" fill="none"/>
    </clipPath>
  </defs>
  <g id="Grupo_1075560" data-name="Grupo 1075560" transform="translate(-424.677 -9578.802)">
    <g id="Grupo_261017" data-name="Grupo 261017" transform="translate(425.128 9636.817)" opacity="0.29" style="isolation: isolate">
      <g id="Grupo_261016" data-name="Grupo 261016" transform="translate(0 0)">
        <g id="Grupo_261015" data-name="Grupo 261015" clip-path="url(#clip-path)">
          <path id="Trazado_279866" data-name="Trazado 279866" d="M321.862,336.4c65.417-36.118,65.418-94.678,0-130.8s-171.477-36.119-236.895,0-65.418,94.678,0,130.8,171.478,36.119,236.895,0" transform="translate(-35.904 -178.517)" fill="#3b5620"/>
        </g>
      </g>
    </g>
    <g id="Grupo_261020" data-name="Grupo 261020" transform="translate(477.996 9651.62)" opacity="0.29" style="isolation: isolate">
      <g id="Grupo_261019" data-name="Grupo 261019" transform="translate(0 0)">
        <g id="Grupo_261018" data-name="Grupo 261018" clip-path="url(#clip-path-2)">
          <path id="Trazado_279867" data-name="Trazado 279867" d="M298.714,268.091l-7.214-4.165-.107-.057,8.969-5.178c23.591-13.62,23.591-35.7,0-49.324l-10.742-6.2c-23.591-13.62-61.85-13.638-85.453-.038l-99.044,57.064c-23.6,13.6-23.614,35.665-.023,49.286l10.933,6.312c11.525,6.654,26.55,10.048,41.654,10.2,1.911,3.411,5.2,6.62,9.9,9.331l7.343,4.239c15.842,9.147,41.529,9.147,57.372,0l66.415-38.344c15.842-9.147,15.842-23.977,0-33.124" transform="translate(-87.413 -192.939)" fill="#3b5620"/>
        </g>
      </g>
    </g>
    <path id="Trazado_279868" data-name="Trazado 279868" d="M137.192,283.975c-6.354-25.889-38.565-43.172-59.332-46.121A32.813,32.813,0,0,1,89.1,247.268s-10.936-6.319-30.956-6.536c18,4.719,26.8,11.682,26.8,11.682A51.716,51.716,0,0,0,68,251.535c7.443,1.6,22.851,10.7,31.128,15.917Z" transform="translate(389.811 9459.867)" fill="#ba68c8"/>
    <g id="Grupo_261023" data-name="Grupo 261023" transform="translate(447.953 9697.723)" opacity="0.15">
      <g id="Grupo_261022" data-name="Grupo 261022" transform="translate(0 0)">
        <g id="Grupo_261021" data-name="Grupo 261021" clip-path="url(#clip-path-3)">
          <path id="Trazado_279869" data-name="Trazado 279869" d="M137.192,283.975c-6.354-25.889-38.565-43.172-59.332-46.121A32.813,32.813,0,0,1,89.1,247.268s-10.936-6.319-30.956-6.536c18,4.719,26.8,11.682,26.8,11.682A51.716,51.716,0,0,0,68,251.535c7.443,1.6,22.851,10.7,31.128,15.917Z" transform="translate(-58.142 -237.855)"/>
        </g>
      </g>
    </g>
    <path id="Trazado_279870" data-name="Trazado 279870" d="M69.439,258.349a57.565,57.565,0,0,0-23.869,8.878c5.31-1.163,13.414-2.187,18.866-1.331-12.645,4.526-20.839,8.647-28.971,16.636,12.771-6.02,21.85-8.01,34.483-8.019C65,276.3,60.521,279.528,56.1,283.464A80.324,80.324,0,0,1,73.779,280.3c-3.517,2.106-8.546,6.855-9.441,8.435,10.69-4.269,29.781-9.315,44.8-5.291h28.653s-11.171-13.484-26.814-19.641c-11.776-4.636-28.76-6.918-41.538-5.455" transform="translate(389.212 9460.396)" fill="#632059"/>
    <path id="Trazado_279871" data-name="Trazado 279871" d="M250.933,268.69c9.052-27.226,45.278-42.34,64.414-43.039a30.461,30.461,0,0,0-11.186,7.865s10.583-4.932,28.754-3.093C316.1,233.1,307.38,238.87,307.38,238.87a44.71,44.71,0,0,1,15.457.892c-6.916.767-21.848,7.909-29.9,12.059Z" transform="translate(394.9 9459.545)" fill="#ba68c8"/>
    <g id="Grupo_261026" data-name="Grupo 261026" transform="translate(645.833 9685.195)" opacity="0.15">
      <g id="Grupo_261025" data-name="Grupo 261025" transform="translate(0 0)">
        <g id="Grupo_261024" data-name="Grupo 261024" clip-path="url(#clip-path-4)">
          <path id="Trazado_279872" data-name="Trazado 279872" d="M250.933,268.69c9.052-27.226,45.278-42.34,64.414-43.039a30.461,30.461,0,0,0-11.186,7.865s10.583-4.932,28.754-3.093C316.1,233.1,307.38,238.87,307.38,238.87a44.71,44.71,0,0,1,15.457.892c-6.916.767-21.848,7.909-29.9,12.059Z" transform="translate(-250.933 -225.65)"/>
        </g>
      </g>
    </g>
    <path id="Trazado_279873" data-name="Trazado 279873" d="M326.622,244.147a57.831,57.831,0,0,1,23.13,10.763c-5.207-1.585-13.213-3.256-18.718-2.839,12.267,5.526,20.125,10.291,27.624,18.905-12.278-7.025-21.182-9.735-33.784-10.758,4.8,2.177,9.018,5.755,13.13,10.033a80.6,80.6,0,0,0-17.4-4.57c3.347,2.382,8,7.518,8.772,9.165-10.337-5.111-33.25-9.363-48.541-6.557l-29.9-.051s17.753-17.1,33.83-21.982c12.1-3.679,29.223-4.591,41.859-2.109" transform="translate(394.9 9459.996)" fill="#632059"/>
    <path id="Trazado_279874" data-name="Trazado 279874" d="M106.662,258.986c3.267,7.919-.192,12.176-2.817,17.645-3.059,6.367-4.175,12.889,4.488,16.666s18.155-2.277,25.735-6.214c9.645-5.01,15.791-9.074,15.791-9.074Z" transform="translate(390.958 9460.425)" fill="#e0e0e0"/>
    <g id="Grupo_261029" data-name="Grupo 261029" transform="translate(493.552 9729.771)" opacity="0.1">
      <g id="Grupo_261028" data-name="Grupo 261028" transform="translate(0 0)">
        <g id="Grupo_261027" data-name="Grupo 261027" clip-path="url(#clip-path-5)">
          <path id="Trazado_279875" data-name="Trazado 279875" d="M149.837,277.739s-6.154,4.066-15.8,9.074c-7.575,3.944-17.065,10-25.734,6.215a11.354,11.354,0,0,1-5.739-4.673c8.957,6.68,22.678-1.4,25.781-4.153,2.925-2.593-1.173-5.52-5.006-3.8a50.544,50.544,0,0,0-6.408,3.407s9.764-12.4,10.24-12.917c.112-.121,1.268-.821,2.981-1.815Z" transform="translate(-102.569 -269.08)"/>
        </g>
      </g>
    </g>
    <path id="Trazado_279876" data-name="Trazado 279876" d="M200.8,278.706c1.279-1.693,8.069-5.085,9.822-4.866s7.07,2.41,10.039,7.56c2.7,4.683,1.1,8.73,0,9.151s-14.06,0-14.06,0Z" transform="translate(393.576 9460.816)" fill="#263238"/>
    <path id="Trazado_279877" data-name="Trazado 279877" d="M227.061,263.822c-2.308,1.008-3.688,6.052-5.443,10.484s2.721,8.558,2.721,8.558l3.47-5.043v6.419s5.682,1.864,10.573-.429,5.692-5.443,6-7.484c.455-3.038-.617-7.484-1.1-7.918-4.461-1.67-16.215-4.587-16.215-4.587" transform="translate(394.115 9460.553)" fill="#263238"/>
    <path id="Trazado_279878" data-name="Trazado 279878" d="M167.16,317.912c-5.223,0-11.863-2.374-13.382-9.065-1.454-6.406,7.113-20.718,7.2-20.862a.5.5,0,0,0-.31-.737c-6.956-1.655-11.469-4.223-16.693-7.2a113.54,113.54,0,0,0-13.871-6.972c-9.024-3.705-14.97-11.749-16.744-22.652-.21-1.3-.412-1.913-.985-1.913-.55,0-.738.6-1.023,1.5-.051.164-.119.381-.189.578-.048-.165-.106-.381-.168-.664a50.418,50.418,0,0,0-3.707-9.941,55.188,55.188,0,0,1-3.409-8.767c-3.251-12.424,3.022-25.22,8.849-34.981.443-.742.973-1.612,1.535-2.436a13.075,13.075,0,0,1,4.719-4.554c2.245-1.141,4.779-1.239,7.462-1.343.916-.036,1.831-.072,2.732-.15,5.232-.459,10.119-2.416,14.622-4.463,22.352-10.16,43.568-24.28,58.208-38.739,11.447-11.306,24.96-21.8,46.137-22.08l.742,0c25.1,0,43.437,16.254,48.437,27.8,2.089,4.823,3.964,13.612,4.27,20.008.541,11.324-2.389,21.028-7.293,33.015a52.492,52.492,0,0,0-4.005,18.132c-.054.753-.109,1.493-.172,2.226-.476,5.44-1.654,11.677-9.654,16.85-2.532,1.637-5.685,3.6-9.024,5.675-7.547,4.693-16.1,10.012-20.445,13.448-5.06,4-5.074,7.005-5.1,12.456l-.009,1.294a11.03,11.03,0,0,1-7.25,2.494c-3.439,0-6.752-1.309-8.242-3.257a3.268,3.268,0,0,1-.664-2.949,104.046,104.046,0,0,1,4.934-11.8l.367-.79a.493.493,0,0,0-.158-.609.486.486,0,0,0-.289-.094.492.492,0,0,0-.339.134c-7.9,7.416-23.644,13.9-23.8,13.966a.482.482,0,0,0-.183.129c-.092.1-9.328,10.473-18.744,15.91a.494.494,0,0,0,.247.923.5.5,0,0,0,.191-.039c3-1.254,11.147-4.478,13.364-4.574,5.567,2.415,6.374,9.456,6.49,11.343a23.6,23.6,0,0,0-8.357,2.714c-2.6,1.314-7.215,4.643-12.1,8.169-6.956,5.023-14.841,10.717-18.9,12.047a17.23,17.23,0,0,1-5.3.814" transform="translate(390.994 9456.821)" fill="#fafafa"/>
    <path id="Trazado_279879" data-name="Trazado 279879" d="M248.9,122.981c24.88,0,43.037,16.081,47.983,27.5,2.069,4.777,3.927,13.489,4.23,19.835.536,11.233-2.379,20.88-7.257,32.8a52.893,52.893,0,0,0-4.04,18.282c-.055.752-.109,1.489-.172,2.22-.466,5.325-1.617,11.428-9.431,16.48-2.528,1.634-5.679,3.594-9.016,5.669-7.558,4.7-16.125,10.027-20.491,13.481-5.246,4.149-5.26,7.236-5.287,12.841,0,.344,0,.7-.006,1.064a10.606,10.606,0,0,1-6.76,2.232c-3.241,0-6.469-1.259-7.848-3.062a2.8,2.8,0,0,1-.588-2.491,103.835,103.835,0,0,1,4.913-11.749l.288-.618.131-.125c7.886-7.6,15.242-15.088,15.315-15.163a.989.989,0,0,0-1.315-1.471c-.541.424-13.125,10.313-15.758,15.575-7.869,7.3-23.362,13.681-23.519,13.746a.973.973,0,0,0-.366.26c-.091.1-9.276,10.414-18.62,15.809a.989.989,0,0,0,.876,1.769c4.06-1.7,11.042-4.36,13.084-4.53,4.832,2.177,5.84,8.109,6.051,10.4a25.233,25.233,0,0,0-8.05,2.72c-2.638,1.331-7.265,4.672-12.164,8.209-6.927,5-14.778,10.671-18.763,11.978a16.732,16.732,0,0,1-5.146.789c-5.042,0-11.445-2.273-12.9-8.68-1.41-6.211,7.054-20.355,7.141-20.5a.989.989,0,0,0-.618-1.472c-6.888-1.638-11.372-4.191-16.565-7.146a113.694,113.694,0,0,0-13.926-7c-8.86-3.638-14.7-11.548-16.443-22.274-.169-1.038-.379-2.329-1.474-2.329a1.224,1.224,0,0,0-1.129.842,55.7,55.7,0,0,0-3.509-9.073,54.848,54.848,0,0,1-3.38-8.688c-3.2-12.246,3.017-24.924,8.8-34.6.439-.737.964-1.6,1.519-2.411a12.6,12.6,0,0,1,4.535-4.391c2.148-1.093,4.63-1.189,7.258-1.29.9-.035,1.838-.071,2.755-.152,5.305-.464,10.24-2.44,14.784-4.5,22.4-10.184,43.67-24.339,58.351-38.838,11.375-11.232,24.795-21.664,45.8-21.936.246,0,.491-.005.736-.005m0-.988c-.249,0-.5,0-.748.005-19.694.255-32.936,8.848-46.478,22.222-15.836,15.64-37.844,29.448-58.064,38.641-4.612,2.1-9.415,3.978-14.462,4.421-3.51.307-7.233-.052-10.375,1.545a13.678,13.678,0,0,0-4.9,4.715c-.548.8-1.058,1.636-1.551,2.461-6.4,10.727-12.065,23.274-8.9,35.359,1.695,6.477,5.669,12.135,7.112,18.689.239,1.084.448,1.473.636,1.473.48,0,.832-2.5,1.227-2.5.156,0,.318.4.5,1.5,1.669,10.265,7.16,18.972,17.043,23.03,13.671,5.612,18.462,11.3,30.638,14.193,0,0-8.774,14.551-7.259,21.226,1.487,6.55,7.824,9.45,13.864,9.45a17.655,17.655,0,0,0,5.454-.839c7.024-2.3,24.829-17.1,31.064-20.244,5.174-2.609,8.265-2.687,8.615-2.687h.033s0-9.406-6.908-12.308c-2.618,0-13.65,4.614-13.65,4.614,9.6-5.542,18.866-16.01,18.866-16.01s15.9-6.5,23.954-14.063c2.357-5.058,15.558-15.393,15.558-15.393s-7.329,7.469-15.3,15.142c-.086.083-.174.167-.263.25h0a110.556,110.556,0,0,0-5.331,12.667c-1.014,3.736,4.016,6.829,9.382,6.829a11.437,11.437,0,0,0,7.744-2.764c.072-6.486-.383-9.392,4.922-13.586,6.229-4.927,21.147-13.738,29.431-19.1s9.412-11.884,9.878-17.224.388-11.035,4.143-20.214c4.462-10.907,7.905-21.164,7.329-33.226-.319-6.686-2.3-15.532-4.31-20.181-5.058-11.675-23.748-28.095-48.89-28.095" transform="translate(390.982 9456.809)" fill="#e7e7e7"/>
    <path id="Trazado_279880" data-name="Trazado 279880" d="M297.337,171.388c-3.85,10.735-11.016,20.19-11.531,26-.614,6.934-1.122,16.49,0,25.021.467-5.34.388-11.035,4.143-20.215,4.159-10.168,7.43-19.774,7.388-30.8" transform="translate(395.803 9458.112)" fill="#f0f0f0"/>
    <path id="Trazado_279881" data-name="Trazado 279881" d="M255.111,204.61c-4.359,7.551-4.953,17.272-7.247,23.095s-14.441,17.58-22.538,22.835-17.929,5.254-21.689,3.809-2.278,7.32-3.6,13.492-3.888,10.342-10.557,16.933c9.6-5.542,18.866-16.01,18.866-16.01s16.251-6.641,24.218-14.314q.762-.734,1.517-1.466l13.778-13.677c4.517-2.608,6.958-8.662,7.247-13.872s-1.736-11.283,0-20.826" transform="translate(393.278 9458.989)" fill="#f0f0f0"/>
    <path id="Trazado_279882" data-name="Trazado 279882" d="M277.478,238.041a21.61,21.61,0,0,0,6.759-6.587,25.483,25.483,0,0,1-9.637,6.232c-2.618.9-5.407,1.3-7.929,2.435-5.339,2.414-8.773,7.783-13.831,10.742-2.979,1.743-6.388,2.571-9.738,3.4-1.967.49-4.172,1.175-5.049,3-1.146,2.394.671,5.189.4,7.828-.324,3.1-3.571,5.217-6.681,5.378a13.958,13.958,0,0,1-5.348-.931c2.327,3.954,11.494,5.893,16.7,1.177.072-6.486-.384-9.391,4.922-13.586,6.228-4.927,21.146-13.738,29.431-19.1" transform="translate(394.253 9459.698)" fill="#f0f0f0"/>
    <path id="Trazado_279883" data-name="Trazado 279883" d="M203.61,278.216c-2.618,0-13.65,4.615-13.65,4.615-8.183,4.724-14.6,10.441-17.457,15.045s.476,3.017,6.669-2.064c5.648-4.634,19.882-12.19,28.77-13.971a9.8,9.8,0,0,0-4.331-3.624" transform="translate(392.802 9460.933)" fill="#f0f0f0"/>
    <path id="Trazado_279884" data-name="Trazado 279884" d="M212.974,191.912c-2.073-6.009-6.39-10.652-13.149-10.451-5.393.161-9.735,4.955-11.222,10.143-.871,3.044-.987,6.338-2.372,9.227-1.878,3.918-5.79,6.1-8.553,9.288a12.7,12.7,0,0,0-3.294,8.159c0,3.463,1.581,5.43,4.391,7.214,6.967,4.427,15.205,2.525,22.05-1.072,5.538-2.911,8.662-7.208,11.306-11.765,2.26-3.9,3.21-13.884.843-20.743" transform="translate(392.879 9458.378)" fill="#455a64"/>
    <path id="Trazado_279885" data-name="Trazado 279885" d="M233.8,123.318c2.645-.593,4.651,6.74,5.116,8.395,1.194,4.246,1.478,8.738-1.145,12.548-2.348,3.412-6.338,5.41-10.4,6.218s-8.251.558-12.385.3c-4.677-.29-7.033,1.649-10.016,4.93-5.48,6.026-16.6,6.826-24.361,4.454a166.3,166.3,0,0,0,19.159-16.058c10.476-10.347,20.788-17.811,34.031-20.788" transform="translate(393.044 9456.843)" fill="#455a64"/>
    <path id="Trazado_279886" data-name="Trazado 279886" d="M243.555,150.812c-3.062,3.138-5.9,6.092-10.242,8.111-3.314,1.541-6.917,2.513-9.963,4.532-2.737,1.814-3.769,5.8-3.577,8.958.723,11.87,18.1,14.285,26.982,12.219,8.987-2.091,18.231-10.486,21.257-19.19,1.786-5.135,2.057-12.748-1.4-17.246-2.688-3.5-7.884-6.165-12.305-5.07-3.131.774-5.792,2.82-8.121,5.052-.92.881-1.785,1.764-2.634,2.634" transform="translate(394.077 9457.36)" fill="#455a64"/>
    <path id="Trazado_279887" data-name="Trazado 279887" d="M270.6,128.122c1.091,6.713,5.826,16.106,7.437,18.4a127.646,127.646,0,0,0,9.489,11.21q5.361,6.032,10.139,12.549c0-.06,0-.118-.005-.178-.318-6.686-2.3-15.532-4.31-20.181-3.076-7.1-11.2-15.954-22.75-21.8" transform="translate(395.419 9456.971)" fill="#455a64"/>
    <path id="Trazado_279888" data-name="Trazado 279888" d="M112.443,194.5c.493-.825,1-1.659,1.552-2.461a13.675,13.675,0,0,1,4.9-4.715c3.142-1.6,6.865-1.238,10.376-1.545,5.046-.442,9.849-2.325,14.461-4.421,3.61-1.641,7.276-3.434,10.955-5.354a23.02,23.02,0,0,1,2.891,2.494c3.959,4.074,6.237,10.514,3.549,15.519-2.769,5.156-9.469,6.8-13.27,11.248-2.768,3.238-3.711,7.6-5.416,11.5a18.735,18.735,0,0,1-.942,1.878c-3.21,5.559-8.157,6.593-14.759,5.457-6.264-1.077-12.247-3.514-18.542-4.4a3.662,3.662,0,0,1-1.549-.449,3.5,3.5,0,0,1-1.081-1.5c-.609-1.28-1.211-2.565-1.783-3.862,1.7-6.769,5.058-13.368,8.656-19.393" transform="translate(391.016 9458.234)" fill="#455a64"/>
    <path id="Trazado_279889" data-name="Trazado 279889" d="M91.437,215.249c-.116-1.252,13.507-.534,14.723-.328,4.153.7,10.491,2.064,13.548,5.154,3.24,3.273,13.378,8.128,13.908,12.7,1.073,9.262,2.8,4.942,8.141,15.332,5.587,10.86,24.779,29.458,24.779,29.458s-3.442,5.133-5.506,8.462c-6.111-.951-14.423-1.81-22.621-4.182-7.226-2.091-13.674-4-22.7-10.587-7.178-5.24-9.477-11.447-10.892-18.568-1.447-7.275-1.324-10.541-4.537-19.08-2.471-6.566-8.131-10.692-8.841-18.364" transform="translate(390.689 9459.251)" fill="#f0f0f0"/>
    <g id="Grupo_261032" data-name="Grupo 261032" transform="translate(482.125 9673.78)" opacity="0.15">
      <g id="Grupo_261031" data-name="Grupo 261031" transform="translate(0 0)">
        <g id="Grupo_261030" data-name="Grupo 261030" clip-path="url(#clip-path-6)">
          <path id="Trazado_279890" data-name="Trazado 279890" d="M133.616,232.776c-.531-4.575-10.668-9.43-13.909-12.7-3.057-3.088-9.4-4.452-13.547-5.154-1.216-.205-14.839-.924-14.723.328.711,7.672,6.372,11.8,8.84,18.364a66.4,66.4,0,0,1,3.836,15.228,21.1,21.1,0,0,1,2.489-6.34,7.8,7.8,0,0,1,3.445-3.351,7.885,7.885,0,0,1,5.459.206c3.966,1.33,7.379,3.885,10.993,5.992,3.049,1.779,6.466,3.275,9.946,3.33a111.393,111.393,0,0,1-2.829-15.9" transform="translate(-91.436 -214.529)"/>
        </g>
      </g>
    </g>
    <path id="Trazado_279891" data-name="Trazado 279891" d="M307.151,174.265a18.664,18.664,0,0,1-9.825,8.456c-.223.091-.457.182-.69.263a55.873,55.873,0,0,1-10.484,2.292c-8.608,1.632-17.713,1.794-25.966,4.938a20.036,20.036,0,0,0-8.507,5.739,3.547,3.547,0,0,1-.862.831.991.991,0,0,1-1.125-.021c-.538-.466-.132-1.349.324-1.906a24.321,24.321,0,0,1,7.929-6.023c7.371-3.66,18.2-4.694,21.707-5.171a108.454,108.454,0,0,0,11.254-2.129,21.856,21.856,0,0,0,7.046-3.032,10.568,10.568,0,0,0,4.917-8.182c.488-8.314-2.575-16.831-9.318-21.454a38.562,38.562,0,0,0-7.1-9.845,28.637,28.637,0,0,1,13.232,7.3c4.217,4.015,7.776,9.278,9.085,14.9a18.238,18.238,0,0,1-1.623,13.049" transform="translate(394.86 9457.258)" fill="#263238"/>
    <path id="Trazado_279892" data-name="Trazado 279892" d="M251.375,192.3a7.7,7.7,0,0,0-1.787-.113,11.933,11.933,0,0,0-2.633.51,14.957,14.957,0,0,0-9.8,8.89,11.553,11.553,0,0,1,3.626-3.651,13.715,13.715,0,0,0-2.68,5.6,9.637,9.637,0,0,0-.237,2.837,10.854,10.854,0,0,0,.561,2.538,11.119,11.119,0,0,0,1.751,3.461c1.412,1.781,3.527,2.832,5.57,3.827-.578-.281-.94-2-1.055-2.563a7.6,7.6,0,0,1-.025-2.881c.392-2.105,1.994-3.126,3.575-4.409,3.127-2.537,6.329-6.893,5.467-11.176-.03-.144-.612-1.754-.789-1.626-.54.392-1.845-.526-1.548-1.245" transform="translate(394.536 9458.661)" fill="#37474f"/>
    <path id="Trazado_279893" data-name="Trazado 279893" d="M148.7,155.022c3.784-.832,3.914,4.519,3.779,6.946a27.406,27.406,0,0,1-2,9.589,21.008,21.008,0,0,1-6.14,7.382,42.922,42.922,0,0,0-4.1,3.212,4.782,4.782,0,0,0-1.607,3.549c0-.146-2.9-2.754-3.333-3.267a10.8,10.8,0,0,1-1.035-1.248,9.345,9.345,0,0,1-1.6-6.593c.682-4.792,2.784-12.121,16.044-19.569" transform="translate(391.775 9457.678)" fill="#ba68c8"/>
    <g id="Grupo_261035" data-name="Grupo 261035" transform="translate(524.348 9612.613)" opacity="0.6">
      <g id="Grupo_261034" data-name="Grupo 261034" transform="translate(0 0)">
        <g id="Grupo_261033" data-name="Grupo 261033" clip-path="url(#clip-path-7)">
          <path id="Trazado_279894" data-name="Trazado 279894" d="M148.7,155.022c3.784-.832,3.914,4.519,3.779,6.946a27.406,27.406,0,0,1-2,9.589,21.008,21.008,0,0,1-6.14,7.382,42.922,42.922,0,0,0-4.1,3.212,4.782,4.782,0,0,0-1.607,3.549c0-.146-2.9-2.754-3.333-3.267a10.8,10.8,0,0,1-1.035-1.248,9.345,9.345,0,0,1-1.6-6.593c.682-4.792,2.784-12.121,16.044-19.569" transform="translate(-132.573 -154.935)" fill="#fff"/>
        </g>
      </g>
    </g>
    <g id="Grupo_261038" data-name="Grupo 261038" transform="translate(524.348 9614.056)" opacity="0.2">
      <g id="Grupo_261037" data-name="Grupo 261037" transform="translate(0 0)">
        <g id="Grupo_261036" data-name="Grupo 261036" clip-path="url(#clip-path-8)">
          <path id="Trazado_279895" data-name="Trazado 279895" d="M146.413,156.34c-4.217,6.213-7.551,12.439-6.012,18.972a14.007,14.007,0,0,0,4.116-5.164c.079,2.889-1.771,5.438-3.575,7.7-1.555,1.947-3.2,4.033-3.716,6.42-.808-.762-1.706-1.6-1.931-1.869a10.817,10.817,0,0,1-1.035-1.249,9.345,9.345,0,0,1-1.6-6.593c.639-4.5,2.535-11.24,13.752-18.214" transform="translate(-132.573 -156.34)" fill="#ba68c8"/>
        </g>
      </g>
    </g>
    <path id="Trazado_279896" data-name="Trazado 279896" d="M138.366,168.41q.262-.6.553-1.2a34.4,34.4,0,0,1,9.864-12.187,34.563,34.563,0,0,0-12.3,6.914c-2.874,2.5-7.483,6.6-6.782,10.876.628,3.818,3.177,6.855,5.669,9.62a41.748,41.748,0,0,1,2.992-14.02" transform="translate(391.698 9457.681)" fill="#37474f"/>
    <path id="Trazado_279897" data-name="Trazado 279897" d="M121.3,164.291c6.694-5.64,4.643-15.181,7.1-14.188s7.847,8.589,5.287,18.36c-2.714,6.825-14.476,1.585-12.388-4.172" transform="translate(391.471 9457.549)" fill="#263238"/>
    <path id="Trazado_279898" data-name="Trazado 279898" d="M143.363,250.973a15.512,15.512,0,0,1-3.714-.439c-5.755-1.421-11.515-6.48-15.721-10.174-.772-.678-1.485-1.3-2.13-1.848-3.971-3.344-9.014-5.067-13.89-6.734-7.678-2.623-14.931-5.1-17.892-13.448a24.779,24.779,0,0,1-.224-14.865l.343-1.246c1.776-6.435,3.452-12.511,2.936-19.414-.226-3.035-.138-6.575,2.24-9.823,2.865-3.914,8.038-4.144,13.041-4.365,1.522-.068,2.958-.131,4.307-.3a42.379,42.379,0,0,0,6.352-1.416,24.414,24.414,0,0,1,6.389-1.213c3.439,0,8.576.938,13.441,9.051,3.651,6.089,4.439,14.373,5.072,21.029a54.763,54.763,0,0,0,1.033,7.6c1.593,6.141,8.441,16.412,12.1,20.076l.091.091.123.039c3.54,1.118,5.379,4.311,4.918,8.541l-.075.733c-.331,3.3-.945,9.448-5.116,13.017A22.3,22.3,0,0,1,143.363,250.973Z" transform="translate(390.619 9457.962)" fill="#fafafa"/>
    <path id="Trazado_279899" data-name="Trazado 279899" d="M125.413,166.229c3.312,0,8.261.911,12.988,8.793,3.589,5.986,4.371,14.2,5,20.807a54.894,54.894,0,0,0,1.048,7.685c1.612,6.22,8.538,16.613,12.242,20.317l.182.183.246.078c3.281,1.037,4.983,4.019,4.552,7.981-.025.225-.049.471-.075.736-.323,3.228-.924,9.238-4.933,12.67a22.034,22.034,0,0,1-13.287,4.979,14.987,14.987,0,0,1-3.587-.423c-5.63-1.39-11.335-6.4-15.5-10.059-.775-.68-1.491-1.31-2.138-1.854-4.047-3.409-9.137-5.147-14.06-6.83-7.554-2.581-14.69-5.02-17.566-13.126a24.254,24.254,0,0,1-.211-14.549l.344-1.249c1.787-6.479,3.474-12.6,2.952-19.591-.311-4.166.328-7,2.139-9.472,2.714-3.709,7.76-3.933,12.639-4.15,1.532-.068,2.98-.131,4.348-.3a42.881,42.881,0,0,0,6.43-1.432,24.039,24.039,0,0,1,6.246-1.193m0-1.056c-3.911,0-7.794,2.008-12.806,2.634-5.759.718-13.794-.475-17.708,4.876-2.283,3.118-2.612,6.53-2.34,10.174.542,7.252-1.37,13.59-3.261,20.482a25.53,25.53,0,0,0,.234,15.181c4.987,14.055,21.928,11.978,31.942,20.409,4.126,3.475,11.1,10.412,18.065,12.13a16,16,0,0,0,3.84.455,22.965,22.965,0,0,0,13.973-5.234c4.67-4,5.04-11.04,5.371-14.093.434-4-1.157-7.8-5.284-9.1-3.693-3.693-10.446-13.97-11.967-19.835s-.746-19.735-6.165-28.77c-4.833-8.059-9.984-9.306-13.893-9.306" transform="translate(390.606 9457.948)" fill="#e7e7e7"/>
    <path id="Trazado_279900" data-name="Trazado 279900" d="M121.472,238.737c1.7,1.436,3.9,3.461,6.375,5.467a28.257,28.257,0,0,0,2.838-4.583l3.015-5.733a9.687,9.687,0,0,0,1.343-3.72,9.232,9.232,0,0,0-.735-3.68A100.642,100.642,0,0,0,121.771,202.2a24.587,24.587,0,0,0-5.684-6.2c-2.907-2.045-6.5-2.923-9.431-4.939-4.192-2.887-8-9.583-10.145-14.2-.771-1.66-1.549-4.458-1.614-4.369-2.283,3.119-2.611,6.531-2.339,10.174.542,7.253-1.37,13.59-3.261,20.482a25.525,25.525,0,0,0,.234,15.182c4.987,14.054,21.928,11.978,31.94,20.409" transform="translate(390.606 9458.142)" fill="#455a64"/>
    <path id="Trazado_279901" data-name="Trazado 279901" d="M142.767,230.064c-4.027.148-10.038,3.7-7.93,10.028-2.013-.958-2.072-4.469-1.511-6.541.975-3.606,2.53-3.338-.059-8.437s-9.091-18.715-9.091-18.715,8.149,13.029,10.626,16.908c3.672,5.748,7.293,4.46,7.964,6.758" transform="translate(391.554 9459.037)" fill="#37474f"/>
    <path id="Trazado_279902" data-name="Trazado 279902" d="M138.548,249.725c6.869,1.7,14.19-1.677,17.813-4.779,4.67-4,5.04-11.04,5.371-14.095.435-3.995-1.156-7.8-5.284-9.1a46.188,46.188,0,0,1-4.768-6.006,22.43,22.43,0,0,0-2.42.074c-6.051.549-14.705,4.378-18.453,9.092-3.337,4.2-3.764,7.694-4.653,12.98-.155.923-.41,3.283-.449,4.223,3.758,3.152,8.3,6.492,12.841,7.613" transform="translate(391.594 9459.283)" fill="#37474f"/>
    <path id="Trazado_279903" data-name="Trazado 279903" d="M146.644,248.044a6.206,6.206,0,0,1,.488,1.369,28.064,28.064,0,0,1,.387,3.955,11.89,11.89,0,0,0,1.94,5.867,7.235,7.235,0,0,0,4.3,2.97,13.292,13.292,0,0,0,2.4.089,4.981,4.981,0,0,0,2.8-.757c2.143-1.413,1.81-4.171.9-6.212a20.09,20.09,0,0,1-1.69-7.754,19.034,19.034,0,0,0-.341-3.1c-.139-.648-.412-2.22-1.035-2.6-.573-.349-2.219.221-2.889.309a20.413,20.413,0,0,0-2.712.483,4.27,4.27,0,0,0-1.569.691c-.426.35-.759.822-1.2,1.179a8.565,8.565,0,0,1-3.47,1.695,4,4,0,0,1,1.688,1.814" transform="translate(392.102 9459.971)" fill="#ba68c8"/>
    <g id="Grupo_261041" data-name="Grupo 261041" transform="translate(537.058 9701.731)" opacity="0.3">
      <g id="Grupo_261040" data-name="Grupo 261040" transform="translate(0 0)">
        <g id="Grupo_261039" data-name="Grupo 261039" clip-path="url(#clip-path-9)">
          <path id="Trazado_279904" data-name="Trazado 279904" d="M146.644,248.044a6.206,6.206,0,0,1,.488,1.369,28.064,28.064,0,0,1,.387,3.955,11.89,11.89,0,0,0,1.94,5.867,7.235,7.235,0,0,0,4.3,2.97,13.292,13.292,0,0,0,2.4.089,4.981,4.981,0,0,0,2.8-.757c2.143-1.413,1.81-4.171.9-6.212a20.09,20.09,0,0,1-1.69-7.754,19.034,19.034,0,0,0-.341-3.1c-.139-.648-.412-2.22-1.035-2.6-.573-.349-2.219.221-2.889.309a20.413,20.413,0,0,0-2.712.483,4.27,4.27,0,0,0-1.569.691c-.426.35-.759.822-1.2,1.179a8.565,8.565,0,0,1-3.47,1.695,4,4,0,0,1,1.688,1.814" transform="translate(-144.956 -241.761)" fill="#fff"/>
        </g>
      </g>
    </g>
    <path id="Trazado_279905" data-name="Trazado 279905" d="M157.376,260.466c-1.365.416-1.895.72-3.3.166a5.538,5.538,0,0,1-2.567-2.185,10.416,10.416,0,0,1-1.387-4.666c-.154-1.631-.126-3.276-.333-4.9a6.15,6.15,0,0,1-.063-2.147c.323-1.4,2.079-2.074,3.285-2.46,1.472-.472,3.13-1,3.981-2.224a.9.9,0,0,0-.2-.176c-.573-.349-2.219.221-2.889.309a20.354,20.354,0,0,0-2.712.483,4.275,4.275,0,0,0-1.57.691c-.426.35-.759.822-1.2,1.179a8.56,8.56,0,0,1-3.469,1.695,4.005,4.005,0,0,1,1.687,1.814,6.188,6.188,0,0,1,.488,1.369,27.76,27.76,0,0,1,.387,3.955,11.9,11.9,0,0,0,1.94,5.867,7.24,7.24,0,0,0,4.306,2.97,13.281,13.281,0,0,0,2.4.089,4.987,4.987,0,0,0,2.8-.757,3.4,3.4,0,0,0,1.434-1.948c-.879.746-1.856.521-3.025.878" transform="translate(392.102 9459.971)" fill="#ba68c8"/>
    <path id="Trazado_279906" data-name="Trazado 279906" d="M155.712,256.317c-.256-1.153-.44-2.321-.647-3.483a21.184,21.184,0,0,0-2.1-6.54c-.03-.055-.069.032-.053.067a25.955,25.955,0,0,1,1.5,6.978c.309,2.16.6,4.526,1.832,6.373.142.211.359.071.314-.151-.224-1.1-.606-2.149-.848-3.244" transform="translate(392.312 9460.09)" fill="#ba68c8"/>
    <path id="Trazado_279907" data-name="Trazado 279907" d="M158.122,240.379a10.248,10.248,0,0,1-3.787,1.152,16.257,16.257,0,0,0-3.876.88,16.544,16.544,0,0,0-2.885,1.792,9.107,9.107,0,0,1-2.9,1.138c-3.471.613-6.783.222-9.5-2.4a6.877,6.877,0,0,0,4.5,3.3,13.242,13.242,0,0,0,7.751-.262c1.291-.555,2.347-1.309,3.639-1.863a9.49,9.49,0,0,1,2.6-.57,7.333,7.333,0,0,0,5.327-2.906,16.569,16.569,0,0,0,.829-1.851,6.286,6.286,0,0,1-1.7,1.591" transform="translate(391.844 9459.892)" fill="#263238"/>
    <path id="Trazado_279908" data-name="Trazado 279908" d="M145.992,234.651a2.584,2.584,0,0,1-.132,2.6c-1.315,1.6-3.659.737-4.434-.905-.551-1.166-.356-2.562-.813-3.768a7.6,7.6,0,0,0-2.622-2.976c-.124-.1-.258-.28-.149-.4a.3.3,0,0,1,.236-.057,8.034,8.034,0,0,1,3.7.959,9.88,9.88,0,0,1,3.943,3.947,5.556,5.556,0,0,1,.276.6" transform="translate(391.913 9459.638)" fill="#263238"/>
    <path id="Trazado_279909" data-name="Trazado 279909" d="M155.251,230.763c.017.955.811,3.922,2.376,2.672,1.121-.9.343-2.98-.043-4.045a6.7,6.7,0,0,1-.31-3.331c.079-.481.106-1.794-.589-.79a9.187,9.187,0,0,0-1.413,4.69c-.016.267-.026.536-.021.8" transform="translate(392.374 9459.525)" fill="#263238"/>
    <path id="Trazado_279910" data-name="Trazado 279910" d="M112.713,200.615a10.709,10.709,0,0,0-4-.959,7.646,7.646,0,0,0-2.3.216,4.741,4.741,0,0,0-1.787.863c-.079.068-.159.35-.027.339a17.2,17.2,0,0,1,2.271-.031,20.18,20.18,0,0,1,2.322.194,8.8,8.8,0,0,1,3.029.841,11,11,0,0,1,2.706,1.978c1.182,1.016,1.348,1.214,2.22,1.953.067.056.152-.108.145-.157-.325-2.265-2.606-4.339-4.582-5.237" transform="translate(391.035 9458.858)"/>
    <path id="Trazado_279911" data-name="Trazado 279911" d="M113.355,203.98a3.2,3.2,0,1,1-3.2-3.2,3.2,3.2,0,0,1,3.2,3.2" transform="translate(391.099 9458.889)"/>
    <path id="Trazado_279912" data-name="Trazado 279912" d="M103.732,167.85c-8.016-3.516-8.748-13.249-10.823-11.6s-5.1,10.457.121,19.105c4.534,5.779,14.334-2.574,10.7-7.505" transform="translate(390.655 9457.708)" fill="#263238"/>
    <path id="Trazado_279913" data-name="Trazado 279913" d="M68.246,165.792c-4.308,1.006-1.805,6.581-.472,9.014a31.289,31.289,0,0,0,6.783,8.89,23.992,23.992,0,0,0,9.959,4.579,48.842,48.842,0,0,1,5.807,1.287,6.128,6.128,0,0,1,2.562,1.59.8.8,0,0,0,1.353-.221c.5-1.3,1.195-3.053,1.312-3.51a12.361,12.361,0,0,0,.452-1.8,10.67,10.67,0,0,0-1.6-7.577c-3.061-4.6-8.834-11.113-26.158-12.255" transform="translate(390.014 9457.965)" fill="#ba68c8"/>
    <g id="Grupo_261044" data-name="Grupo 261044" transform="translate(455.845 9623.757)" opacity="0.6">
      <g id="Grupo_261043" data-name="Grupo 261043" transform="translate(0 0)">
        <g id="Grupo_261042" data-name="Grupo 261042" clip-path="url(#clip-path-10)">
          <path id="Trazado_279914" data-name="Trazado 279914" d="M68.246,165.792c-4.308,1.006-1.805,6.581-.472,9.014a31.289,31.289,0,0,0,6.783,8.89,23.992,23.992,0,0,0,9.959,4.579,48.842,48.842,0,0,1,5.807,1.287,6.128,6.128,0,0,1,2.562,1.59.8.8,0,0,0,1.353-.221c.5-1.3,1.195-3.053,1.312-3.51a12.361,12.361,0,0,0,.452-1.8,10.67,10.67,0,0,0-1.6-7.577c-3.061-4.6-8.834-11.113-26.158-12.255" transform="translate(-65.831 -165.792)" fill="#fff"/>
        </g>
      </g>
    </g>
    <g id="Grupo_261047" data-name="Grupo 261047" transform="translate(461.287 9624.022)" opacity="0.2">
      <g id="Grupo_261046" data-name="Grupo 261046" transform="translate(0 0)">
        <g id="Grupo_261045" data-name="Grupo 261045" clip-path="url(#clip-path-11)">
          <path id="Trazado_279915" data-name="Trazado 279915" d="M71.134,166.051c7.4,4.322,13.9,9.093,15.531,16.579a15.992,15.992,0,0,1-6.781-3.292c1.342,3.016,4.5,4.729,7.471,6.167,2.561,1.24,5.282,2.577,6.988,4.783.457-1.182.969-2.489,1.068-2.876a12.214,12.214,0,0,0,.451-1.8,10.658,10.658,0,0,0-1.6-7.577c-2.874-4.321-8.144-10.329-23.13-11.989" transform="translate(-71.134 -166.051)" fill="#ba68c8"/>
        </g>
      </g>
    </g>
    <path id="Trazado_279916" data-name="Trazado 279916" d="M85.5,174.464q-.565-.491-1.163-.966a39.255,39.255,0,0,0-16.158-7.7,39.444,39.444,0,0,1,16.067,1.067c4.191,1.163,10.957,3.115,12.338,7.861,1.234,4.241.116,8.642-1.088,12.717-2.795-4.9-5.756-9.3-10-12.984" transform="translate(390.076 9457.955)" fill="#455a64"/>
    <path id="Trazado_279917" data-name="Trazado 279917" d="M107,180.27a1.757,1.757,0,0,0,1.952.217c.576-.361.821-1.118,1.411-1.454a7.864,7.864,0,0,0,5.551,4.259c2.4.337,5.073-1.115,5.639-3.468a8.538,8.538,0,0,0,4.657,1.451,5.1,5.1,0,0,0,4.2-2.208c1.138-1.821.715-4.17.254-6.268,1.222.615,2.712-.7,2.754-2.072a5.22,5.22,0,0,0-1.805-3.56c-4-4.158-9.848-5.336-15.392-5.652-4.961-.282-11.922.816-15.662,4.463a11.367,11.367,0,0,0,2.2,1.409,12.324,12.324,0,0,1,1.695,4.1c.528,2.3.61,4.7,1.387,6.923a4.011,4.011,0,0,0,1.107,1.819l.049.039" transform="translate(390.93 9457.851)" fill="#ba68c8"/>
    <path id="Trazado_279918" data-name="Trazado 279918" d="M107,180.27a1.755,1.755,0,0,0,1.952.217c.576-.361.821-1.118,1.411-1.454a7.864,7.864,0,0,0,5.551,4.259c2.4.337,5.073-1.115,5.639-3.468a8.538,8.538,0,0,0,4.657,1.451,5.1,5.1,0,0,0,4.2-2.208c1.138-1.821.715-4.17.254-6.267,1.222.614,2.712-.705,2.754-2.073a5.22,5.22,0,0,0-1.805-3.56c-4-4.158-9.848-5.336-15.392-5.652-4.961-.282-11.922.816-15.662,4.463a11.367,11.367,0,0,0,2.2,1.409,12.323,12.323,0,0,1,1.695,4.1c.528,2.3.61,4.7,1.387,6.923a4.02,4.02,0,0,0,1.107,1.819l.049.039" transform="translate(390.93 9457.851)" fill="#632059"/>
    <g id="Grupo_261050" data-name="Grupo 261050" transform="translate(491.492 9621.425)" opacity="0.2">
      <g id="Grupo_261049" data-name="Grupo 261049" transform="translate(0 0)">
        <g id="Grupo_261048" data-name="Grupo 261048" clip-path="url(#clip-path-12)">
          <path id="Trazado_279919" data-name="Trazado 279919" d="M115.867,182.158c-1.946-1.151-2.844-3.445-3.61-5.572a5.144,5.144,0,0,1-3.378.711,1.543,1.543,0,0,1-1.1-.543,1.756,1.756,0,0,1-.119-1.289,30.141,30.141,0,0,0,.7-4.769,5.945,5.945,0,0,0-1.587-4.413c-.937-.888-2.386-1.571-2.6-2.763a12.941,12.941,0,0,0-3.611,2.4,11.319,11.319,0,0,0,2.2,1.409,12.323,12.323,0,0,1,1.695,4.1c.528,2.3.61,4.7,1.386,6.923a4.013,4.013,0,0,0,1.109,1.819l.049.039a1.755,1.755,0,0,0,1.952.217c.576-.361.82-1.118,1.411-1.454a7.862,7.862,0,0,0,5.551,4.259,5.42,5.42,0,0,0,2.956-.459,4.928,4.928,0,0,1-3-.62" transform="translate(-100.562 -163.52)" fill="#ba68c8"/>
        </g>
      </g>
    </g>
    <path id="Trazado_279920" data-name="Trazado 279920" d="M175.159,296.474c2.121,5.14-.123,7.9-1.828,11.453-1.985,4.132-2.71,8.366,2.913,10.817s11.784-1.478,16.7-4.034c6.26-3.252,10.25-5.889,10.25-5.889Z" transform="translate(392.813 9461.415)" fill="#e0e0e0"/>
    <g id="Grupo_261053" data-name="Grupo 261053" transform="translate(565.331 9764.612)" opacity="0.1">
      <g id="Grupo_261052" data-name="Grupo 261052" transform="translate(0 0)">
        <g id="Grupo_261051" data-name="Grupo 261051" clip-path="url(#clip-path-13)">
          <path id="Trazado_279921" data-name="Trazado 279921" d="M203.182,308.646s-3.995,2.639-10.253,5.889c-4.916,2.561-11.076,6.489-16.7,4.035a7.37,7.37,0,0,1-3.725-3.034c5.814,4.337,14.72-.909,16.733-2.7,1.9-1.682-.762-3.583-3.25-2.464a32.779,32.779,0,0,0-4.159,2.212s6.338-8.049,6.647-8.385c.073-.079.822-.533,1.935-1.178Z" transform="translate(-172.502 -303.025)"/>
        </g>
      </g>
    </g>
    <path id="Trazado_279922" data-name="Trazado 279922" d="M279.662,212.457a13.328,13.328,0,0,1,10.032,1.06,14.5,14.5,0,0,1,6.737,8.118,43.019,43.019,0,0,1,1.773,8.105c1.257,6.645,1.387,13.682,3.811,20.059a15.559,15.559,0,0,0,4.433,6.572,2.611,2.611,0,0,1,.647.659.773.773,0,0,1-.016.87c-.362.419-1.044.106-1.473-.244a18.859,18.859,0,0,1-4.652-6.128c-2.83-5.7-3.629-14.061-3.995-16.774a82.445,82.445,0,0,0-1.649-8.692c-1.067-4.343-3.687-8.953-8.659-9.244a13.275,13.275,0,0,0-5.492,1.039c-1.406.541-2.909,1.285-4.33.6-.838-.405-2.821-1.758-2.517-2.9.4-1.49,3.268-2.326,4.495-2.8.282-.11.568-.207.856-.295" transform="translate(395.516 9459.183)" fill="#263238"/>
    <path id="Trazado_279923" data-name="Trazado 279923" d="M303.938,255.747a9.654,9.654,0,0,0-.356,2.724,8.207,8.207,0,0,0,.536,2.868,7.122,7.122,0,0,0,3.509,3.906,6.692,6.692,0,0,1-1.865-3.034,8.227,8.227,0,0,0,3.94,2.64,11.878,11.878,0,0,0,6.778.092,12.336,12.336,0,0,0,1.855-.722c1.854-.874,3.709-2.2,4.233-4.184a4.8,4.8,0,0,1-6.006.129,12.92,12.92,0,0,1-1.772-2c-1.96-2.416-5.325-4.89-8.634-4.224-.111.022-1.356.472-1.256.61.3.417-.405,1.426-.962,1.195" transform="translate(396.29 9460.289)" fill="#37474f"/>
    <path id="Trazado_279924" data-name="Trazado 279924" d="M232.37,308.758c.76-1,4.79-3.02,5.832-2.889a9.606,9.606,0,0,1,5.96,4.488c1.6,2.782.65,5.183,0,5.434s-8.348,0-8.348,0Z" transform="translate(394.41 9461.662)" fill="#263238"/>
    <path id="Trazado_279925" data-name="Trazado 279925" d="M247.964,299.92c-1.37.6-2.189,3.592-3.232,6.224s1.617,5.082,1.617,5.082l2.06-2.994v3.811a9.57,9.57,0,0,0,6.277-.255c2.9-1.361,3.38-3.232,3.561-4.443a9.413,9.413,0,0,0-.655-4.7c-2.649-.993-9.628-2.724-9.628-2.724" transform="translate(394.73 9461.506)" fill="#263238"/>
    <path id="Trazado_279926" data-name="Trazado 279926" d="M212.943,332.391c-3.1,0-7.043-1.409-7.945-5.382-.424-1.868.573-5.313,2.806-9.7a.3.3,0,0,0-.01-.286,12.835,12.835,0,0,0-4.749-4.717,44.881,44.881,0,0,1-4.61-2.813,56.435,56.435,0,0,1-8.733-6.136c-2.991-2.5-6.214-4.939-9.842-4.939a9.2,9.2,0,0,0-5.175,1.7,2.13,2.13,0,0,1-.938.445h-.01a2.021,2.021,0,0,1-.821-.216,38.321,38.321,0,0,1-11.752-7.92l-.2-.2a23.328,23.328,0,0,1-4.27-5.09,15.77,15.77,0,0,1-1.183-5.7c-.043-.5-.085-.978-.134-1.431-.182-1.622-.492-3.191-.792-4.709a30.533,30.533,0,0,1-.86-8.4,4.36,4.36,0,0,1,.519-2.063,4.645,4.645,0,0,1,1.972-1.456q1.067-.528,2.141-1.048a73.318,73.318,0,0,0,9.6-5.277,73.312,73.312,0,0,0,7.463-6.182c1.811-1.641,3.682-3.337,5.642-4.849,5.7-4.4,12.415-6.532,18.907-8.6,6.588-2.094,13.4-4.26,19.193-8.788a104.664,104.664,0,0,0,9.85-9.175,107.845,107.845,0,0,1,9.55-8.937,34.884,34.884,0,0,1,21.58-7.986l.5,0A32.14,32.14,0,0,1,288.3,217.236a28.9,28.9,0,0,1,4.934,14.167,62.352,62.352,0,0,1-.671,18.715,54.75,54.75,0,0,1-4.133,14.22,31.142,31.142,0,0,0-2.377,10.765c-.033.449-.065.888-.1,1.323-.282,3.23-.982,6.933-5.732,10.005-1.5.972-3.377,2.137-5.358,3.369-4.48,2.787-9.56,5.944-12.138,7.984-3.005,2.376-3.012,4.159-3.028,7.4l-.006.768a6.545,6.545,0,0,1-4.3,1.481,6.379,6.379,0,0,1-4.893-1.934,1.942,1.942,0,0,1-.4-1.751,62.058,62.058,0,0,1,2.93-7.005l.219-.468a.294.294,0,0,0-.094-.361.289.289,0,0,0-.172-.056.293.293,0,0,0-.2.08c-4.674,4.394-14.039,8.253-14.134,8.292a.289.289,0,0,0-.109.077c-.054.062-5.537,6.218-11.128,9.446a.294.294,0,0,0,.147.548.3.3,0,0,0,.114-.024c1.78-.744,6.617-2.658,7.934-2.715,3.306,1.434,3.784,5.613,3.853,6.734a14,14,0,0,0-4.962,1.611,73.622,73.622,0,0,0-7.183,4.851c-4.13,2.983-8.811,6.363-11.22,7.152a10.233,10.233,0,0,1-3.147.483" transform="translate(392.332 9458.935)" fill="#fafafa"/>
    <path id="Trazado_279927" data-name="Trazado 279927" d="M260.642,202.841A31.85,31.85,0,0,1,288.06,217.4a28.318,28.318,0,0,1,4.89,14.043,62.173,62.173,0,0,1-.673,18.671,54.419,54.419,0,0,1-4.111,14.122,31.438,31.438,0,0,0-2.4,10.855c-.032.447-.064.884-.1,1.318-.276,3.161-.96,6.784-5.6,9.785-1.5.97-3.372,2.134-5.353,3.366-4.487,2.791-9.574,5.953-12.167,8-3.115,2.463-3.123,4.3-3.139,7.624,0,.2,0,.415,0,.632a6.294,6.294,0,0,1-4.013,1.325,6.173,6.173,0,0,1-4.66-1.818,1.652,1.652,0,0,1-.356-1.459,61.746,61.746,0,0,1,2.926-7l.217-.465a.587.587,0,0,0-.934-.675c-4.633,4.356-13.95,8.2-14.043,8.234a.6.6,0,0,0-.218.155c-.054.062-5.508,6.183-11.055,9.386a.587.587,0,0,0,.52,1.05c2.411-1.009,6.556-2.59,7.768-2.69,2.869,1.292,3.467,4.814,3.592,6.173a14.99,14.99,0,0,0-4.78,1.615,73.808,73.808,0,0,0-7.222,4.874c-4.113,2.969-8.774,6.336-11.139,7.112a9.956,9.956,0,0,1-3.056.468c-2.994,0-6.8-1.35-7.659-5.154-.409-1.8.579-5.176,2.782-9.5a.588.588,0,0,0-.022-.572,13.14,13.14,0,0,0-4.858-4.823,44.43,44.43,0,0,1-4.579-2.793.606.606,0,0,0-.054-.035,55.9,55.9,0,0,1-8.663-6.089c-3.032-2.534-6.3-5.008-10.03-5.008a9.489,9.489,0,0,0-5.337,1.754l-.05.034a1.746,1.746,0,0,1-.787.364,1.837,1.837,0,0,1-.654-.193,38.015,38.015,0,0,1-11.662-7.86l-.2-.193a23.157,23.157,0,0,1-4.222-5.022,15.573,15.573,0,0,1-1.15-5.593c-.043-.5-.085-.982-.135-1.437-.183-1.635-.495-3.212-.8-4.735a30.28,30.28,0,0,1-.856-8.32A4.142,4.142,0,0,1,154.5,265a4.422,4.422,0,0,1,1.856-1.352q1.068-.53,2.143-1.049a73.413,73.413,0,0,0,9.631-5.3,73.424,73.424,0,0,0,7.493-6.207c1.806-1.636,3.674-3.329,5.625-4.833,5.661-4.366,12.35-6.492,18.818-8.549,6.613-2.1,13.451-4.276,19.284-8.836a105.061,105.061,0,0,0,9.879-9.2,107.493,107.493,0,0,1,9.523-8.913,34.594,34.594,0,0,1,21.4-7.923c.165,0,.328,0,.493,0m0-.587c-.166,0-.333,0-.5,0a35.316,35.316,0,0,0-21.76,8.05c-6.945,5.51-12.446,12.675-19.4,18.112-11.453,8.954-26.566,8.487-38.1,17.382-4.52,3.487-8.391,7.784-13.093,11.021a93.055,93.055,0,0,1-11.7,6.3A4.941,4.941,0,0,0,154,264.687a4.636,4.636,0,0,0-.565,2.2c-.34,4.67,1.151,8.654,1.653,13.161.25,2.255.288,5.25,1.351,7.241a24.827,24.827,0,0,0,4.523,5.357,38.351,38.351,0,0,0,11.844,7.982,2.309,2.309,0,0,0,.885.24q.042,0,.083,0a2.36,2.36,0,0,0,1.079-.493,8.945,8.945,0,0,1,5.013-1.657c3.44,0,6.555,2.281,9.653,4.87a56.475,56.475,0,0,0,8.75,6.15,45.018,45.018,0,0,0,4.64,2.832,12.652,12.652,0,0,1,4.638,4.613c-1.464,2.875-3.409,7.349-2.831,9.9.883,3.888,4.645,5.61,8.232,5.61a10.48,10.48,0,0,0,3.238-.5c4.17-1.367,14.741-10.152,18.443-12.019a12.4,12.4,0,0,1,5.115-1.6h.021s0-5.586-4.1-7.308c-1.555,0-8.105,2.739-8.105,2.739,5.7-3.291,11.2-9.505,11.2-9.505s9.454-3.867,14.222-8.35a65.873,65.873,0,0,0-3.165,7.52c-.6,2.218,2.385,4.054,5.571,4.054a6.793,6.793,0,0,0,4.6-1.641c.042-3.85-.228-5.575,2.922-8.066,3.7-2.925,12.555-8.157,17.473-11.338s5.588-7.055,5.866-10.226.23-6.551,2.459-12a54.357,54.357,0,0,0,4.15-14.276,62.8,62.8,0,0,0,.674-18.8,29.044,29.044,0,0,0-4.976-14.295,32.589,32.589,0,0,0-27.916-14.833" transform="translate(392.325 9458.928)" fill="#e7e7e7"/>
    <path id="Trazado_279928" data-name="Trazado 279928" d="M211.893,306.995s-4.176.15-13.771-5.241-15.816-17.555-20.344-14.315-8.879,13.115-8.879,13.115a17.91,17.91,0,0,1,7.441-.139c5.807,1.366,7.613,3.462,12.493,8.914,6.371,7.116,17.906,7.168,17.906,7.168Z" transform="translate(392.734 9461.162)" fill="#f0f0f0"/>
    <path id="Trazado_279929" data-name="Trazado 279929" d="M289.689,245.039c-2.286,6.374-6.541,11.987-6.846,15.435a71.41,71.41,0,0,0,0,14.855c.277-3.171.23-6.551,2.459-12,2.47-6.037,4.413-11.741,4.387-18.288" transform="translate(395.732 9460.057)" fill="#f0f0f0"/>
    <path id="Trazado_279930" data-name="Trazado 279930" d="M264.618,264.765c-2.589,4.483-2.941,10.255-4.3,13.713s-8.574,10.437-13.381,13.558-10.645,3.119-12.877,2.261-1.352,4.347-2.135,8.011-2.308,6.14-6.267,10.053c5.7-3.29,11.2-9.505,11.2-9.505s9.649-3.942,14.379-8.5l.9-.87,8.18-8.121c2.683-1.549,4.132-5.143,4.3-8.236s-1.03-6.7,0-12.365" transform="translate(394.233 9460.577)" fill="#f0f0f0"/>
    <path id="Trazado_279931" data-name="Trazado 279931" d="M277.9,284.614a12.826,12.826,0,0,0,4.013-3.911,15.113,15.113,0,0,1-5.722,3.7c-1.555.533-3.211.77-4.707,1.446-3.171,1.434-5.209,4.622-8.212,6.378a21.591,21.591,0,0,1-5.782,2.022c-1.168.289-2.478.7-3,1.783-.681,1.421.4,3.08.235,4.647-.192,1.84-2.12,3.1-3.966,3.194a8.288,8.288,0,0,1-3.176-.552c1.382,2.347,6.825,3.5,9.918.7.043-3.851-.227-5.575,2.922-8.066,3.7-2.925,12.555-8.157,17.474-11.339" transform="translate(394.812 9460.998)" fill="#f0f0f0"/>
    <path id="Trazado_279932" data-name="Trazado 279932" d="M234.041,308.467c-1.555,0-8.1,2.739-8.1,2.739-4.859,2.805-8.668,6.2-10.365,8.933s.282,1.791,3.959-1.225c3.353-2.752,11.806-7.238,17.081-8.3a5.815,5.815,0,0,0-2.571-2.151" transform="translate(393.95 9461.731)" fill="#f0f0f0"/>
    <path id="Trazado_279933" data-name="Trazado 279933" d="M205.6,261.572a21.7,21.7,0,0,0-1.86,1.285,12.863,12.863,0,0,0-3.912,4.426,6.33,6.33,0,0,0-.072,5.733c1.106,1.986,3.434,2.972,5.675,3.354s4.555.307,6.761.86a12.207,12.207,0,0,1,4.747,2.387c2.284,1.872,4.518,4.752,7.758,4.279a8.616,8.616,0,0,0,6.929-5.853c2.262-7.747-5.622-16.689-12.674-18.566a16.651,16.651,0,0,0-13.352,2.093" transform="translate(393.532 9460.423)" fill="#455a64"/>
    <path id="Trazado_279934" data-name="Trazado 279934" d="M167.793,256a93.143,93.143,0,0,1-11.7,6.3,4.934,4.934,0,0,0-2.088,1.56,4.637,4.637,0,0,0-.566,2.2,20.6,20.6,0,0,0,.032,3.159c.49.055.981.1,1.469.137,3.216.26,6.609.488,9.511-.922,2.56-1.243,4.371-3.586,6.508-5.466a21.424,21.424,0,0,1,10.4-4.989c3.658-.639,7.437-.316,11.087-1A20.767,20.767,0,0,0,208.606,240.7a19.249,19.249,0,0,0-.143-7.319c-9.26,3.654-19.332,5.24-27.578,11.6-4.519,3.486-8.391,7.783-13.092,11.02" transform="translate(392.325 9459.749)" fill="#455a64"/>
    <path id="Trazado_279935" data-name="Trazado 279935" d="M220.977,225.149c.142.012.282.027.417.05a19.285,19.285,0,0,0,4.688.266c2.877-.206,5.96-1.11,7.958-3.307,1.757-1.933,3.146-3.076,5.9-2.9a28.4,28.4,0,0,0,7.3-.178,9.6,9.6,0,0,0,6.127-3.663c2.571-3.733.768-9.122-2.75-11.792-.135-.1-.3-.2-.437-.292a36.9,36.9,0,0,0-13.578,6.95c-5.639,4.474-10.336,10.026-15.621,14.87" transform="translate(394.109 9458.956)" fill="#455a64"/>
    <path id="Trazado_279936" data-name="Trazado 279936" d="M242.4,256.119c-.637.756-1.429,1.38-2.009,2.181a2.9,2.9,0,0,0-.52,2.813c.511,1.116,1.9,1.484,3.128,1.566a8.579,8.579,0,0,0,6.773-2.121,6.936,6.936,0,0,0,1.846-4.709,6.315,6.315,0,0,0-.868-3.426,3.354,3.354,0,0,0-4.038-1.2c-2.17,1.1-2.811,3.1-4.293,4.871l-.02.025" transform="translate(394.603 9460.213)" fill="#455a64"/>
    <path id="Trazado_279937" data-name="Trazado 279937" d="M285.506,217.02a32.119,32.119,0,0,0-14.649-12.23c-2.88,4.581-2,9.3-.189,14.109.147.387.293.778.436,1.17,1.017,2.785,1.894,5.674,1.569,8.6-.267,2.408-1.329,4.642-2.105,6.938a19.119,19.119,0,0,0-.807,10.654c1.246,4.99,6.7,9.62,11.627,10.812a19.87,19.87,0,0,0,6.839.422c.127-.424.26-.849.38-1.27a61.885,61.885,0,0,0,1.874-24.911,29.044,29.044,0,0,0-4.976-14.294" transform="translate(395.377 9458.994)" fill="#455a64"/>
    <path id="Trazado_279938" data-name="Trazado 279938" d="M264.6,232.078c.124,4.381-3.654,5.219-7.348,6.566-4.424,1.611-9.485,2.406-12.935,5.889-1.258,1.271-2.2,2.823-3.412,4.136a6.439,6.439,0,0,1-4.626,2.385A5.364,5.364,0,0,1,231.7,247.5a10.752,10.752,0,0,1-.226-6.053,22.487,22.487,0,0,1,8.035-13.06c5.076-4,12.919-6.689,19.2-3.984,2.738,1.179,5.31,3.462,5.789,6.557a8.957,8.957,0,0,1,.106,1.115" transform="translate(394.378 9459.483)" fill="#455a64"/>
    <path id="Trazado_279939" data-name="Trazado 279939" d="M134.482,273.155c-1.019,2.424,2.42,2.532,4,2.457a19.845,19.845,0,0,0,6.445-1.241,17.794,17.794,0,0,0,5.547-3.906,36.54,36.54,0,0,1,2.6-2.618,3.758,3.758,0,0,1,2.5-1.015c-.094,0-1.409-1.875-1.685-2.153a5.266,5.266,0,0,0-.674-.67,5.332,5.332,0,0,0-4.053-1.057c-3.18.415-8.179,1.731-14.673,10.2" transform="translate(391.821 9460.528)" fill="#ba68c8"/>
    <g id="Grupo_261056" data-name="Grupo 261056" transform="translate(526.118 9723.428)" opacity="0.4">
      <g id="Grupo_261055" data-name="Grupo 261055" transform="translate(0 0)">
        <g id="Grupo_261054" data-name="Grupo 261054" clip-path="url(#clip-path-14)">
          <path id="Trazado_279940" data-name="Trazado 279940" d="M134.482,273.155c-1.019,2.424,2.42,2.532,4,2.457a19.845,19.845,0,0,0,6.445-1.241,17.794,17.794,0,0,0,5.547-3.906,36.54,36.54,0,0,1,2.6-2.618,3.758,3.758,0,0,1,2.5-1.015c-.094,0-1.409-1.875-1.685-2.153a5.266,5.266,0,0,0-.674-.67,5.332,5.332,0,0,0-4.053-1.057c-3.18.415-8.179,1.731-14.673,10.2" transform="translate(-134.297 -262.899)" fill="#fff"/>
        </g>
      </g>
    </g>
    <g id="Grupo_261059" data-name="Grupo 261059" transform="translate(527.469 9723.428)" opacity="0.2">
      <g id="Grupo_261058" data-name="Grupo 261058" transform="translate(0 0)">
        <g id="Grupo_261057" data-name="Grupo 261057" clip-path="url(#clip-path-15)">
          <path id="Trazado_279941" data-name="Trazado 279941" d="M135.613,271.69c4.547-2.677,8.991-4.788,13.013-3.77a11.813,11.813,0,0,1-3.857,2.617c1.856.065,3.736-1.111,5.423-2.258a13.553,13.553,0,0,1,4.618-2.355c-.389-.521-.817-1.1-.962-1.248a5.261,5.261,0,0,0-.674-.669,5.328,5.328,0,0,0-4.053-1.057c-2.987.389-7.579,1.574-13.507,8.74" transform="translate(-135.613 -262.899)" fill="#ba68c8"/>
        </g>
      </g>
    </g>
    <path id="Trazado_279942" data-name="Trazado 279942" d="M144.446,266.6q-.422.165-.847.35a29.073,29.073,0,0,0-9.123,6.272,28.743,28.743,0,0,1,6.027-7.858c2.223-2.056,4.379-3.561,7.388-3.706a22.984,22.984,0,0,0,3.606-.245,3.921,3.921,0,0,0,2.267-1.138q-1.052,1.644-2.1,3.29a3.733,3.733,0,0,1-2.876,1.789,25.055,25.055,0,0,0-4.339,1.247" transform="translate(391.826 9460.459)" fill="#37474f"/>
    <path id="Trazado_279943" data-name="Trazado 279943" d="M166.956,261.035c3.721.655,8.926.16,11.422,3.721a9.417,9.417,0,0,1,1.442,6.6c-.313,3.608-.945,7.232-1.22,10.865a30.7,30.7,0,0,1-2.351,10.923,18.984,18.984,0,0,1-6.436,7.53c-2.95,2.012-6.259,3.457-9.088,5.65-2.694,2.089-7.255,6.3-11.771,7.167-4.456.856-9.012-1.529-11.333-3.64-2.994-2.72-3.183-7.245-3.377-9.214-.254-2.576.738-4.885,3.418-5.582,2.414-2.243,5.587-9.58,6.611-13.289s1.8-11.743,5.365-17.352c3.183-5,6.523-5.63,9.053-5.5s5.027,1.549,8.266,2.119" transform="translate(391.819 9460.423)" fill="#455a64"/>
    <path id="Trazado_279944" data-name="Trazado 279944" d="M160.419,306.194c-1.113.863-2.548,2.089-4.162,3.291a19.041,19.041,0,0,1-1.8-3.034q-.955-1.886-1.909-3.775a6.407,6.407,0,0,1-.843-2.429,5.732,5.732,0,0,1,.5-2.334,61.166,61.166,0,0,1,8.279-15.147,14.906,14.906,0,0,1,3.721-3.784c1.895-1.211,4.228-1.655,6.135-2.847,2.732-1.71,5.243-5.873,6.662-8.761.51-1.037,1.033-2.8,1.074-2.746a9.49,9.49,0,0,1,1.478,6.619c-.327,3.786,1.612,6.359,1.694,10.881.074,4.1-.233,7.572-2.074,11.457-3.453,7.285-13.052,8.192-18.75,12.61" transform="translate(392.28 9460.574)" fill="#37474f"/>
    <path id="Trazado_279945" data-name="Trazado 279945" d="M146.229,299.914c2.6.23,6.468,2.709,5.059,6.694,1.31-.547,1.372-2.795,1.023-4.143-.6-2.343-1.612-2.224.1-5.4s6.012-11.691,6.012-11.691-5.363,8.078-6.993,10.481c-2.416,3.561-4.748,2.613-5.2,4.064" transform="translate(392.136 9461.121)" fill="#263238"/>
    <path id="Trazado_279946" data-name="Trazado 279946" d="M149.11,312.68c-4.456.856-9.168-1.552-11.49-3.662-2.994-2.72-3.183-7.245-3.377-9.214-.253-2.576.8-4.96,3.482-5.656a12.866,12.866,0,0,0,2.564-3.669,9.887,9.887,0,0,1,2.128.109c3.911.555,9.482,3.3,11.873,6.448,2.129,2.8,2.381,5.058,2.919,8.476.093.6.242,2.118.261,2.722-2.453,1.894-5.414,3.882-8.36,4.447" transform="translate(391.819 9461.256)" fill="#ba68c8"/>
    <g id="Grupo_261062" data-name="Grupo 261062" transform="translate(526.027 9751.718)" opacity="0.4">
      <g id="Grupo_261061" data-name="Grupo 261061" transform="translate(0 0)">
        <g id="Grupo_261060" data-name="Grupo 261060" clip-path="url(#clip-path-16)">
          <path id="Trazado_279947" data-name="Trazado 279947" d="M149.11,312.68c-4.456.856-9.168-1.552-11.49-3.662-2.994-2.72-3.183-7.245-3.377-9.214-.253-2.576.8-4.96,3.482-5.656a12.866,12.866,0,0,0,2.564-3.669,9.887,9.887,0,0,1,2.128.109c3.911.555,9.482,3.3,11.873,6.448,2.129,2.8,2.381,5.058,2.919,8.476.093.6.242,2.118.261,2.722-2.453,1.894-5.414,3.882-8.36,4.447" transform="translate(-134.208 -290.462)" fill="#fff"/>
        </g>
      </g>
    </g>
    <path id="Trazado_279948" data-name="Trazado 279948" d="M136.158,306.219a3.761,3.761,0,0,0,2.09,1.122,10.5,10.5,0,0,1,2.51.336,14.787,14.787,0,0,1,2.174,1.376,7.317,7.317,0,0,0,8.216-.61,4.214,4.214,0,0,1-2.933,1.964,8.707,8.707,0,0,1-5.013-.428c-.831-.4-1.509-.918-2.34-1.317a6.4,6.4,0,0,0-1.681-.453,5,5,0,0,1-3.425-2.042,11.186,11.186,0,0,1-.524-1.213,8.276,8.276,0,0,0,.928,1.264" transform="translate(391.846 9461.639)" fill="#455a64"/>
    <path id="Trazado_279949" data-name="Trazado 279949" d="M143.939,302.746a1.652,1.652,0,0,0,.068,1.672,1.725,1.725,0,0,0,2.875-.431c.364-.729.248-1.63.552-2.388a4.608,4.608,0,0,1,1.716-1.819c.082-.06.169-.17.1-.248a.2.2,0,0,0-.152-.046,5.1,5.1,0,0,0-2.4.492,5.992,5.992,0,0,0-2.578,2.4,3.3,3.3,0,0,0-.183.373" transform="translate(392.07 9461.494)" fill="#263238"/>
    <path id="Trazado_279950" data-name="Trazado 279950" d="M137.885,299.944c-.017.612-.551,2.487-1.556,1.632-.718-.611-.2-1.921.056-2.591a4.212,4.212,0,0,0,.224-2.124c-.048-.312-.056-1.154.386-.488a6.04,6.04,0,0,1,.882,3.054c.009.171.013.344.008.516" transform="translate(391.865 9461.405)" fill="#263238"/>
    <path id="Trazado_279951" data-name="Trazado 279951" d="M170.015,271.105a1.135,1.135,0,0,1-1.265-.067c-.341-.29-.438-.8-.789-1.074a4.814,4.814,0,0,1-3.879,2.129,3.465,3.465,0,0,1-3.336-2.8,5.4,5.4,0,0,1-3.089.435,3.47,3.47,0,0,1-2.516-1.844c-.587-1.279-.133-2.729.324-4.015-.829.263-1.679-.733-1.6-1.607a3.182,3.182,0,0,1,1.431-2.075c2.881-2.227,6.71-2.364,10.277-1.984,3.193.339,7.557,1.767,9.666,4.479a6.952,6.952,0,0,1-1.515.666,7.5,7.5,0,0,0-1.4,2.434,39.786,39.786,0,0,1-1.424,4.26,2.429,2.429,0,0,1-.85,1.042l-.034.02" transform="translate(392.337 9460.4)" fill="#ba68c8"/>
    <path id="Trazado_279952" data-name="Trazado 279952" d="M170.016,271.105a1.135,1.135,0,0,1-1.265-.067c-.341-.29-.438-.8-.789-1.074a4.815,4.815,0,0,1-3.879,2.129,3.465,3.465,0,0,1-3.336-2.8,5.4,5.4,0,0,1-3.089.435,3.47,3.47,0,0,1-2.516-1.844c-.587-1.279-.133-2.729.324-4.015-.829.263-1.679-.733-1.6-1.607a3.182,3.182,0,0,1,1.431-2.075c2.881-2.227,6.71-2.364,10.277-1.985,3.193.34,7.557,1.768,9.666,4.48a6.951,6.951,0,0,1-1.515.666,7.5,7.5,0,0,0-1.4,2.434,39.786,39.786,0,0,1-1.424,4.26,2.429,2.429,0,0,1-.85,1.042l-.034.02" transform="translate(392.337 9460.4)" fill="#632059"/>
    <g id="Grupo_261065" data-name="Grupo 261065" transform="translate(554.567 9721.178)" opacity="0.2">
      <g id="Grupo_261064" data-name="Grupo 261064" transform="translate(0 0)">
        <g id="Grupo_261063" data-name="Grupo 261063" clip-path="url(#clip-path-17)">
          <path id="Trazado_279953" data-name="Trazado 279953" d="M163.982,271.341c1.333-.529,2.086-1.894,2.739-3.167a3.45,3.45,0,0,0,2.1.807.961.961,0,0,0,.748-.23,1.1,1.1,0,0,0,.177-.808,19.45,19.45,0,0,1-.077-3.108,3.647,3.647,0,0,1,1.357-2.642c.668-.467,1.647-.75,1.873-1.486a8.883,8.883,0,0,1,2.122,1.907,6.952,6.952,0,0,1-1.515.666,7.5,7.5,0,0,0-1.4,2.434,39.56,39.56,0,0,1-1.424,4.26,2.434,2.434,0,0,1-.849,1.042l-.035.02a1.136,1.136,0,0,1-1.265-.067c-.341-.29-.438-.8-.789-1.074a4.813,4.813,0,0,1-3.879,2.129,3.617,3.617,0,0,1-1.854-.6,3.149,3.149,0,0,0,1.968-.08" transform="translate(-162.014 -260.707)" fill="#ba68c8"/>
        </g>
      </g>
    </g>
    <path id="Trazado_279954" data-name="Trazado 279954" d="M164.321,284.689a4.979,4.979,0,0,1,2.518.223,3.425,3.425,0,0,1,1.2.684,2.966,2.966,0,0,1,.771,1.077c.028.071.007.309-.063.271a7.336,7.336,0,0,0-1.222-.533,8.289,8.289,0,0,0-1.3-.368,3.68,3.68,0,0,0-1.831-.02,4.526,4.526,0,0,0-1.915.944c-.906.75-1.189,1.146-1.432,1.075-.074-.022-.072-.158-.067-.2a3.992,3.992,0,0,1,3.347-3.154" transform="translate(392.525 9461.102)"/>
    <path id="Trazado_279955" data-name="Trazado 279955" d="M193.992,285.655c-.229,2.93-3.954,2.518-5.6,2.185a15.922,15.922,0,0,1-6.2-2.421,9.212,9.212,0,0,1-3.244-5.186c-.483-1.817-.544-3.738-1.157-5.517a4.021,4.021,0,0,1-.23-.81,2.851,2.851,0,0,1,.035-.77,9.851,9.851,0,0,1,.47-1.861.521.521,0,0,1,.151-.251.534.534,0,0,1,.333-.069,19.755,19.755,0,0,1,5.334.751c3.165.969,7.781,3.251,10.107,13.949" transform="translate(392.963 9460.741)" fill="#ba68c8"/>
    <g id="Grupo_261068" data-name="Grupo 261068" transform="translate(570.512 9731.696)" opacity="0.4">
      <g id="Grupo_261067" data-name="Grupo 261067" transform="translate(0 0)">
        <g id="Grupo_261066" data-name="Grupo 261066" clip-path="url(#clip-path-18)">
          <path id="Trazado_279956" data-name="Trazado 279956" d="M193.992,285.655c-.229,2.93-3.954,2.518-5.6,2.185a15.922,15.922,0,0,1-6.2-2.421,9.212,9.212,0,0,1-3.244-5.186c-.483-1.817-.544-3.738-1.157-5.517a4.021,4.021,0,0,1-.23-.81,2.851,2.851,0,0,1,.035-.77,9.851,9.851,0,0,1,.47-1.861.521.521,0,0,1,.151-.251.534.534,0,0,1,.333-.069,19.755,19.755,0,0,1,5.334.751c3.165.969,7.781,3.251,10.107,13.949" transform="translate(-177.549 -270.955)" fill="#fff"/>
        </g>
      </g>
    </g>
    <g id="Grupo_261071" data-name="Grupo 261071" transform="translate(570.512 9731.696)" opacity="0.2">
      <g id="Grupo_261070" data-name="Grupo 261070" transform="translate(0 0)">
        <g id="Grupo_261069" data-name="Grupo 261069" clip-path="url(#clip-path-19)">
          <path id="Trazado_279957" data-name="Trazado 279957" d="M183.885,271.706a19.8,19.8,0,0,0-5.334-.751.529.529,0,0,0-.332.069.523.523,0,0,0-.152.251,9.929,9.929,0,0,0-.47,1.861,2.851,2.851,0,0,0-.035.77,4.049,4.049,0,0,0,.23.811c.06.171.11.346.16.52.049.038.1.075.146.117a16.19,16.19,0,0,1,1.754,2.278c1.176,1.574,2.543,3.211,4.556,3.425a8.182,8.182,0,0,1-2.692-3.591c.619-.054,1.384-.057,1.523-.051a9.352,9.352,0,0,1,1.5.193,10.508,10.508,0,0,1,2.783,1.039,20.34,20.34,0,0,1,4.929,3.977c.346.36.7.706,1.058,1.055-2.439-9.011-6.665-11.066-9.626-11.972" transform="translate(-177.549 -270.955)" fill="#ba68c8"/>
        </g>
      </g>
    </g>
    <path id="Trazado_279958" data-name="Trazado 279958" d="M186.949,276.627q.36.254.713.532a20.12,20.12,0,0,1,6.322,8.59c-.025-4.492-1.142-10.759-5.082-13.321a13.044,13.044,0,0,0-4.917-1.723,14.319,14.319,0,0,1-3.266-.761,3.56,3.56,0,0,1-2.066-2.532c.177,1.038-.649,3.059-.77,4.175-.189,1.737.432,1.512,1.965,1.92a22.075,22.075,0,0,1,7.1,3.119" transform="translate(392.971 9460.647)" fill="#455a64"/>
  </g>
</svg>
