<svg xmlns="http://www.w3.org/2000/svg" xmlns:xlink="http://www.w3.org/1999/xlink" width="318.102" height="268.974" viewBox="0 0 318.102 268.974">
  <defs>
    <clipPath id="clip-path">
      <rect id="Rectángulo_325642" data-name="Rectángulo 325642" width="318.102" height="183.655" transform="translate(466.654 204.684)" fill="none"/>
    </clipPath>
    <clipPath id="clip-path-2">
      <rect id="Rectángulo_325643" data-name="Rectángulo 325643" width="20.313" height="28.719" transform="translate(473.095 284.666)" fill="none"/>
    </clipPath>
    <clipPath id="clip-path-3">
      <rect id="Rectángulo_325644" data-name="Rectángulo 325644" width="20.313" height="28.719" transform="translate(647.758 200.491)" fill="none"/>
    </clipPath>
    <clipPath id="clip-path-4">
      <rect id="Rectángulo_325645" data-name="Rectángulo 325645" width="20.312" height="28.719" transform="translate(739.647 307.163)" fill="none"/>
    </clipPath>
    <clipPath id="clip-path-5">
      <rect id="Rectángulo_325646" data-name="Rectángulo 325646" width="13.264" height="51.196" transform="translate(539.354 273.209)" fill="none"/>
    </clipPath>
    <clipPath id="clip-path-6">
      <rect id="Rectángulo_325647" data-name="Rectángulo 325647" width="45.148" height="50.651" transform="translate(570.163 135.546)" fill="none"/>
    </clipPath>
    <clipPath id="clip-path-7">
      <rect id="Rectángulo_325648" data-name="Rectángulo 325648" width="13.264" height="51.196" transform="translate(573.824 293.069)" fill="none"/>
    </clipPath>
    <clipPath id="clip-path-8">
      <rect id="Rectángulo_325649" data-name="Rectángulo 325649" width="34.788" height="88.391" transform="translate(694.175 195.507)" fill="none"/>
    </clipPath>
    <clipPath id="clip-path-9">
      <rect id="Rectángulo_325650" data-name="Rectángulo 325650" width="3.622" height="1.13" transform="translate(707.743 121.389)" fill="none"/>
    </clipPath>
    <clipPath id="clip-path-10">
      <rect id="Rectángulo_325651" data-name="Rectángulo 325651" width="13.146" height="12.117" transform="translate(693.094 155.953)" fill="none"/>
    </clipPath>
    <clipPath id="clip-path-11">
      <rect id="Rectángulo_325652" data-name="Rectángulo 325652" width="10.705" height="12.825" transform="translate(711.269 158.307)" fill="none"/>
    </clipPath>
    <clipPath id="clip-path-12">
      <rect id="Rectángulo_325653" data-name="Rectángulo 325653" width="17.655" height="14.662" transform="translate(690.24 171.833)" fill="none"/>
    </clipPath>
    <clipPath id="clip-path-13">
      <rect id="Rectángulo_325654" data-name="Rectángulo 325654" width="13.477" height="8.461" transform="translate(702.326 157.025)" fill="none"/>
    </clipPath>
    <clipPath id="clip-path-14">
      <rect id="Rectángulo_325655" data-name="Rectángulo 325655" width="4.689" height="9.363" transform="translate(713.576 154.751)" fill="none"/>
    </clipPath>
    <clipPath id="clip-path-15">
      <rect id="Rectángulo_325656" data-name="Rectángulo 325656" width="13.54" height="12.768" transform="translate(702.838 188.378)" fill="none"/>
    </clipPath>
    <clipPath id="clip-path-16">
      <rect id="Rectángulo_325657" data-name="Rectángulo 325657" width="12.452" height="12.11" transform="translate(702.838 189.036)" fill="none"/>
    </clipPath>
  </defs>
  <g id="Grupo_1075561" data-name="Grupo 1075561" transform="translate(-855.866 -9576.174)">
    <g id="Grupo_260967" data-name="Grupo 260967" transform="translate(389.212 9456.809)" opacity="0.29" style="isolation: isolate">
      <g id="Grupo_260966" data-name="Grupo 260966">
        <g id="Grupo_260965" data-name="Grupo 260965" clip-path="url(#clip-path)">
          <path id="Trazado_279704" data-name="Trazado 279704" d="M513.237,231.58c-62.112,35.861-62.111,94,0,129.863s162.82,35.861,224.933,0,62.11-94,0-129.863-162.82-35.861-224.932,0" fill="#3b5620"/>
        </g>
      </g>
    </g>
    <path id="Trazado_279705" data-name="Trazado 279705" d="M646.653,221.537l-160.98,92.942,12.209,7.049,160.981-92.942Z" transform="translate(389.212 9456.809)" fill="#e0e0e0"/>
    <path id="Trazado_279706" data-name="Trazado 279706" d="M671.768,321.6c-19.716-11.383-19.716-29.838,0-41.221s51.68-11.383,71.4,0,19.716,29.838,0,41.221-51.681,11.383-71.4,0" transform="translate(389.212 9456.809)" fill="#e0e0e0"/>
    <path id="Trazado_279707" data-name="Trazado 279707" d="M523.922,322.8c-5.361,3.984-10.374,8.013-11.354,15.06a16.005,16.005,0,0,0,5.325,14.682c17.529,14.844,42.508,22.566,64.095,14.719,13.483-4.9,24.213-15.1,35.727-23.66,9.546-7.093,20.073-12.685,30.687-17.988,5-2.5,9.631-5.27,14.829-7.27,5.793-2.228,11.564-4.522,17.228-7.066a49.56,49.56,0,0,0,11.7-6.757c3.468-2.9,6.278-6.789,7.085-11.235,1.444-7.96-3.713-15.681-9.785-21.028a56.58,56.58,0,0,0-32.1-13.735c-12.019-1.078-22.958,3.5-33.239,9.359-5.674,3.234-11.121,6.823-16.511,10.524q-11.4,7.827-23.3,14.893c-7.548,4.51-14.68,7.751-22.6,11.471-7.339,3.45-16.4,6.934-23.885,10.267a72.014,72.014,0,0,0-13.905,7.764" transform="translate(389.212 9456.809)" fill="#e0e0e0"/>
    <path id="Trazado_279708" data-name="Trazado 279708" d="M473.1,300.355a40.4,40.4,0,0,1,12.8,13.03h10.519c.047-2.162-1.033-17.805-13.992-28.719,4.172,6.666,5.995,14.837,6.6,22.678-3.47-4.487-10.262-7.158-15.932-6.989" transform="translate(389.212 9456.809)" fill="#ba68c8"/>
    <g id="Grupo_260970" data-name="Grupo 260970" transform="translate(389.212 9456.809)" opacity="0.15">
      <g id="Grupo_260969" data-name="Grupo 260969">
        <g id="Grupo_260968" data-name="Grupo 260968" clip-path="url(#clip-path-2)">
          <path id="Trazado_279709" data-name="Trazado 279709" d="M489.028,307.344c.193,2.614.274,4.716.309,6.041h4.071s-1.509-18.8-10.98-28.719c4.171,6.666,5.995,14.838,6.6,22.678"/>
          <path id="Trazado_279710" data-name="Trazado 279710" d="M485.9,313.385h3.357c-2.416-6.353-9.43-11.134-16.162-13.03a40.393,40.393,0,0,1,12.8,13.03"/>
        </g>
      </g>
    </g>
    <path id="Trazado_279711" data-name="Trazado 279711" d="M668.071,216.18a40.39,40.39,0,0,0-12.8,13.03h-10.52c-.047-2.162,1.033-17.8,13.992-28.719-4.172,6.666-5.995,14.837-6.6,22.678,3.47-4.487,10.262-7.158,15.932-6.989" transform="translate(389.212 9456.809)" fill="#ba68c8"/>
    <g id="Grupo_260973" data-name="Grupo 260973" transform="translate(389.212 9456.809)" opacity="0.15">
      <g id="Grupo_260972" data-name="Grupo 260972">
        <g id="Grupo_260971" data-name="Grupo 260971" clip-path="url(#clip-path-3)">
          <path id="Trazado_279712" data-name="Trazado 279712" d="M652.138,223.168c-.193,2.614-.274,4.717-.309,6.042h-4.071s1.509-18.8,10.98-28.72c-4.171,6.666-5.994,14.838-6.6,22.678"/>
          <path id="Trazado_279713" data-name="Trazado 279713" d="M655.266,229.21h-3.357c2.416-6.353,9.43-11.134,16.161-13.03a40.4,40.4,0,0,0-12.8,13.03"/>
        </g>
      </g>
    </g>
    <path id="Trazado_279714" data-name="Trazado 279714" d="M502.615,205.822a2.3,2.3,0,0,0-1.353-1.884,7.211,7.211,0,0,0-6.527,0,2.291,2.291,0,0,0-1.352,1.884V313.115A2.293,2.293,0,0,0,494.735,315a7.211,7.211,0,0,0,6.527,0,2.293,2.293,0,0,0,1.353-1.884Z" transform="translate(389.212 9456.809)" fill="#af6152"/>
    <path id="Trazado_279715" data-name="Trazado 279715" d="M494.735,203.938a1.989,1.989,0,0,0,0,3.769,7.219,7.219,0,0,0,6.528,0,1.99,1.99,0,0,0,0-3.769,7.211,7.211,0,0,0-6.527,0" transform="translate(389.212 9456.809)" fill="#c8856a"/>
    <path id="Trazado_279716" data-name="Trazado 279716" d="M647.761,122.03a2.293,2.293,0,0,0-1.352-1.884,7.211,7.211,0,0,0-6.527,0,2.291,2.291,0,0,0-1.352,1.884V229.323a2.293,2.293,0,0,0,1.352,1.884,7.211,7.211,0,0,0,6.527,0,2.291,2.291,0,0,0,1.352-1.884Z" transform="translate(389.212 9456.809)" fill="#af6152"/>
    <path id="Trazado_279717" data-name="Trazado 279717" d="M639.882,120.146a1.989,1.989,0,0,0,0,3.768,7.213,7.213,0,0,0,6.528,0,1.989,1.989,0,0,0,0-3.768,7.211,7.211,0,0,0-6.527,0" transform="translate(389.212 9456.809)" fill="#c8856a"/>
    <path id="Trazado_279718" data-name="Trazado 279718" d="M501.267,262.421v-9.859l145.14-83.8v9.859Z" transform="translate(389.212 9456.809)" fill="#af6152"/>
    <path id="Trazado_279719" data-name="Trazado 279719" d="M501.267,262.421v-9.859l-2.845-1.643v9.859Z" transform="translate(389.212 9456.809)" fill="#9a4a4d"/>
    <path id="Trazado_279720" data-name="Trazado 279720" d="M646.407,168.765l-2.845-1.643-145.14,83.8,2.845,1.643Z" transform="translate(389.212 9456.809)" fill="#c8856a"/>
    <path id="Trazado_279721" data-name="Trazado 279721" d="M501.267,295.282v-9.858l145.14-83.8v9.859Z" transform="translate(389.212 9456.809)" fill="#af6152"/>
    <path id="Trazado_279722" data-name="Trazado 279722" d="M501.267,295.282v-9.858l-2.845-1.644v9.859Z" transform="translate(389.212 9456.809)" fill="#9a4a4d"/>
    <path id="Trazado_279723" data-name="Trazado 279723" d="M646.407,201.627l-2.845-1.643-145.14,83.8,2.845,1.643Z" transform="translate(389.212 9456.809)" fill="#c8856a"/>
    <path id="Trazado_279724" data-name="Trazado 279724" d="M646.407,168.765v9.859l-7.877,4.547v2.389l8.617-6.51Z" transform="translate(389.212 9456.809)" fill="#9a4a4d"/>
    <path id="Trazado_279725" data-name="Trazado 279725" d="M646.407,201.627v9.859l-7.877,4.547v2.389l8.617-6.51Z" transform="translate(389.212 9456.809)" fill="#9a4a4d"/>
    <path id="Trazado_279726" data-name="Trazado 279726" d="M503.354,255.19a1.22,1.22,0,0,0,.552-.956.336.336,0,0,0-.552-.319,1.22,1.22,0,0,0-.552.956.336.336,0,0,0,.552.319m0,2.377a1.22,1.22,0,0,0-.552.957.336.336,0,0,0,.552.318,1.22,1.22,0,0,0,.552-.956.336.336,0,0,0-.552-.319" transform="translate(389.212 9456.809)" fill="#fafafa"/>
    <path id="Trazado_279727" data-name="Trazado 279727" d="M503.354,288.091a1.22,1.22,0,0,0,.552-.956.336.336,0,0,0-.552-.319,1.22,1.22,0,0,0-.552.956.336.336,0,0,0,.552.319m0,2.377a1.22,1.22,0,0,0-.552.957.337.337,0,0,0,.552.319,1.223,1.223,0,0,0,.552-.957.336.336,0,0,0-.552-.319" transform="translate(389.212 9456.809)" fill="#fafafa"/>
    <path id="Trazado_279728" data-name="Trazado 279728" d="M643.943,173.926a1.22,1.22,0,0,0,.552-.956.336.336,0,0,0-.552-.319,1.22,1.22,0,0,0-.552.956.336.336,0,0,0,.552.319m0,2.377a1.22,1.22,0,0,0-.552.957.336.336,0,0,0,.552.318,1.22,1.22,0,0,0,.552-.956.336.336,0,0,0-.552-.319" transform="translate(389.212 9456.809)" fill="#fafafa"/>
    <path id="Trazado_279729" data-name="Trazado 279729" d="M501.267,227.561V217.7l145.14-83.8v9.859Z" transform="translate(389.212 9456.809)" fill="#af6152"/>
    <path id="Trazado_279730" data-name="Trazado 279730" d="M501.267,227.561V217.7l-2.845-1.643v9.859Z" transform="translate(389.212 9456.809)" fill="#9a4a4d"/>
    <path id="Trazado_279731" data-name="Trazado 279731" d="M646.407,133.906l-2.845-1.643-145.14,83.8,2.845,1.643Z" transform="translate(389.212 9456.809)" fill="#c8856a"/>
    <path id="Trazado_279732" data-name="Trazado 279732" d="M646.407,133.906v9.859l-7.877,4.547V150.7l8.617-6.51Z" transform="translate(389.212 9456.809)" fill="#9a4a4d"/>
    <path id="Trazado_279733" data-name="Trazado 279733" d="M503.354,220.33a1.22,1.22,0,0,0,.552-.956.336.336,0,0,0-.552-.319,1.22,1.22,0,0,0-.552.956.336.336,0,0,0,.552.319m0,2.377a1.22,1.22,0,0,0-.552.957.336.336,0,0,0,.552.318,1.22,1.22,0,0,0,.552-.956.336.336,0,0,0-.552-.319" transform="translate(389.212 9456.809)" fill="#fafafa"/>
    <path id="Trazado_279734" data-name="Trazado 279734" d="M643.943,139.067a1.22,1.22,0,0,0,.552-.956.336.336,0,0,0-.552-.319,1.22,1.22,0,0,0-.552.956.336.336,0,0,0,.552.319m0,2.377a1.22,1.22,0,0,0-.552.956.336.336,0,0,0,.552.319,1.22,1.22,0,0,0,.552-.956.336.336,0,0,0-.552-.319" transform="translate(389.212 9456.809)" fill="#fafafa"/>
    <path id="Trazado_279735" data-name="Trazado 279735" d="M643.943,206.828a1.22,1.22,0,0,0,.552-.956.336.336,0,0,0-.552-.319,1.22,1.22,0,0,0-.552.956.336.336,0,0,0,.552.319m0,2.377a1.22,1.22,0,0,0-.552.957.336.336,0,0,0,.552.318,1.22,1.22,0,0,0,.552-.956.336.336,0,0,0-.552-.319" transform="translate(389.212 9456.809)" fill="#fafafa"/>
    <path id="Trazado_279736" data-name="Trazado 279736" d="M759.959,322.852a40.4,40.4,0,0,0-12.8,13.03H736.635c-.047-2.162,1.033-17.8,13.992-28.719-4.172,6.666-5.995,14.837-6.6,22.678,3.47-4.487,10.262-7.158,15.932-6.989" transform="translate(389.212 9456.809)" fill="#ba68c8"/>
    <g id="Grupo_260976" data-name="Grupo 260976" transform="translate(389.212 9456.809)" opacity="0.15">
      <g id="Grupo_260975" data-name="Grupo 260975">
        <g id="Grupo_260974" data-name="Grupo 260974" clip-path="url(#clip-path-4)">
          <path id="Trazado_279737" data-name="Trazado 279737" d="M744.026,329.841c-.193,2.614-.274,4.716-.309,6.041h-4.071s1.509-18.8,10.98-28.719c-4.171,6.666-5.994,14.838-6.6,22.678"/>
          <path id="Trazado_279738" data-name="Trazado 279738" d="M747.154,335.882H743.8c2.416-6.353,9.43-11.134,16.162-13.03a40.393,40.393,0,0,0-12.8,13.03"/>
        </g>
      </g>
    </g>
    <path id="Trazado_279739" data-name="Trazado 279739" d="M525.593,221.6c-.887,16.7,4.157,23.767,6.868,30.727a111.472,111.472,0,0,1,6.732,27.28c.432,1.288,1.622.659,2.508-.764a19.553,19.553,0,0,1,1.754-3.274,6.827,6.827,0,0,1,4.641-2.358c-.19-6.314,0-11.937.167-14.759.9-15.43,1.247-24.956,5.294-26.616Z" transform="translate(389.212 9456.809)" fill="#263238"/>
    <path id="Trazado_279740" data-name="Trazado 279740" d="M536.716,319.72c-1.753,3.415-2.819,9.216-3.046,11.083-.082.668.2,2.719,3.694,4.385,4.46,2.13,9.187.309,11.359-1.113,3.473-2.272,3.867-4.557,4.1-5.179l-1.813-5.814Z" transform="translate(389.212 9456.809)" fill="#263238"/>
    <path id="Trazado_279741" data-name="Trazado 279741" d="M539.193,279.606c1.012,7.963,1.394,14.834,1.061,18.639-.851,9.607-2.065,16.145-3.176,19.527-2.09,6.362,5.6,8.187,13.931,5.31,1.052-1.456.056-3.522-1.723-5.509s2.531-5.229,3.226-7.345-2.253-3.02-2.936-10.795c-.416-4.753-1.174-16.308-1.481-26.224a6.835,6.835,0,0,0-4.641,2.359,18.286,18.286,0,0,0-2,3.127c-.822,1.379-1.687,1.836-2.264.911" transform="translate(389.212 9456.809)" fill="#f5f5f5"/>
    <g id="Grupo_260979" data-name="Grupo 260979" transform="translate(389.212 9456.809)" opacity="0.1">
      <g id="Grupo_260978" data-name="Grupo 260978">
        <g id="Grupo_260977" data-name="Grupo 260977" clip-path="url(#clip-path-5)">
          <path id="Trazado_279742" data-name="Trazado 279742" d="M544.864,287.4s-1.7-11.66-1.409-11.831a6.833,6.833,0,0,1,4.641-2.358c.307,9.916,1.065,21.471,1.481,26.224.683,7.775,3.633,8.672,2.936,10.795s-5.005,5.357-3.226,7.344,2.775,4.053,1.723,5.509c-4.59,1.586-8.983,1.741-11.655.5,4.761.286,7.8-3.636,5.212-6.379s2.224-4.95,3.495-7.044-1-4.794-1.368-7.928-1.83-14.83-1.83-14.83"/>
        </g>
      </g>
    </g>
    <path id="Trazado_279743" data-name="Trazado 279743" d="M648.078,203.506c-3.849-7.472-4.217-14.455-1.833-22.495,1.844-6.223,4.381-12.236,4.79-18.787L621.19,190.441a48.991,48.991,0,0,1,10.091,6.994,22.142,22.142,0,0,1,4.493,5.257c3.024,5.256,1.479,12.449,1.355,18.228-.011.533-.007,1.863.055,2.495a2.141,2.141,0,0,0,.382,1.121c.615.786,1.831.631,2.791.36a5.533,5.533,0,0,0,2.634-1.333,5.959,5.959,0,0,0,.968-1.617c1.211-2.62,2.658-4.745,3.6-7.526a32.176,32.176,0,0,0,.936-4.644c.273-1.584.876-3.12.349-4.639a12.792,12.792,0,0,0-.764-1.631" transform="translate(389.212 9456.809)" fill="#455a64"/>
    <path id="Trazado_279744" data-name="Trazado 279744" d="M648.841,205.138a12.6,12.6,0,0,0-.764-1.631c-.262-.511-.506-1.019-.736-1.525a11.4,11.4,0,0,1-.168,5.964,2.845,2.845,0,0,1-1.459,1.822c-1.05.409-2.211-.295-2.964-1.134A16.049,16.049,0,0,1,640,203.256c-1.64-4.473-3.516-8.979-6.489-12.749-3.028-3.838-7.452-6.42-9.519-11.032l-2.8,10.967a48.982,48.982,0,0,1,10.09,6.993,22.148,22.148,0,0,1,4.494,5.257c3.023,5.257,1.478,12.449,1.355,18.228-.012.533-.007,1.864.055,2.5a2.141,2.141,0,0,0,.382,1.12c.614.787,1.83.631,2.791.361a5.536,5.536,0,0,0,2.633-1.334,5.928,5.928,0,0,0,.968-1.616c1.211-2.621,2.659-4.745,3.6-7.526a32.45,32.45,0,0,0,.936-4.644c.272-1.585.876-3.12.348-4.639" transform="translate(389.212 9456.809)" fill="#263238"/>
    <path id="Trazado_279745" data-name="Trazado 279745" d="M633.38,266.19c-.759,1.929-1.9,8.751-1.434,9.764s4.714,4.255,10.742,3.146,9.244-7.532,9.015-9.981l-3.5-7.387Z" transform="translate(389.212 9456.809)" fill="#263238"/>
    <path id="Trazado_279746" data-name="Trazado 279746" d="M641.883,267.6c-3.39.87-7.315.786-8.5-1.414.42-3.742,1.188-5.989.546-9.641-.761-4.336-2.352-5.338.274-12.835,2.289-6.533,2.813-16.873,2.93-22.793,1.073,1.529,3.469.571,4.38-.738,1.819-2.615,3.464-4.071,6.582-7.962a37.462,37.462,0,0,1-1.152,5.183,49.7,49.7,0,0,0-1.665,23.762c1.644,9.16.415,9.323-.832,12.783-1.392,3.86.941,5.246,3.765,7.784.6,3.365-2.934,5-6.324,5.871" transform="translate(389.212 9456.809)" fill="#f5f5f5"/>
    <path id="Trazado_279747" data-name="Trazado 279747" d="M641.765,262.8c-3.063-2.661-1.243-9.983.561-13.882s-1.9-10.859-1.865-17.153c.035-5.6,3.55-10.741,2.719-13.8,1.2-1.478,2.784-3.091,4.911-5.745a37.462,37.462,0,0,1-1.152,5.183,49.7,49.7,0,0,0-1.665,23.762c1.644,9.16.415,9.323-.832,12.783-1.392,3.86.941,5.246,3.765,7.784.6,3.365-2.934,5-6.324,5.871a16.954,16.954,0,0,1-1.781.356c1.4-.959,3.973-3.156,1.663-5.163" transform="translate(389.212 9456.809)" fill="#e0e0e0"/>
    <path id="Trazado_279748" data-name="Trazado 279748" d="M690.565,191.932a24.183,24.183,0,0,1,1.8-5.656c-.066,5.881-.006,12.192,3.357,17.016a26.171,26.171,0,0,1-.149-11.074c.767-3.774,2.362-7.339,3.157-11.107a41.324,41.324,0,0,0,.677-9.6c-.191-7.425-1.358-14.988-4.844-21.546-9.164-17.237-26.221-18.98-34.8-10.608-2.01,1.962-.937,3.335,1.8,5.12,1.592,1.038,2.214-.415,4.428-1.8,2.79-1.743,6.334-.486,8.144,1.86a15.187,15.187,0,0,1,2.626,7.477c.558,4.4.125,8.833.262,13.249.167,5.375.521,10.772.68,16.189a63.793,63.793,0,0,0,.7,9.061c1.011,5.81,3.6,11.2,5.834,16.66s4.145,11.256,3.685,17.135c4.249-10.005.618-21.891,2.65-32.375" transform="translate(389.212 9456.809)" fill="#263238"/>
    <path id="Trazado_279749" data-name="Trazado 279749" d="M685.8,182.655c.591-9.355.614-34.368-24-43.253s-40.639,2.143-52.313,10.878-31.64,19.831-38.117,18.634c-5.666-1.045-12.31-12.832-23.422-22.187L525.4,195.661c.591,4.568-.008,14.552.2,25.937.007.364.015.735.03,1.106.258,5.568,1.065,12.543,5,17.861,5.1,6.878,12.547,10.174,18.153,12.931a.463.463,0,0,0-.038.061,27.421,27.421,0,0,0,10.461,2.687,144.02,144.02,0,0,1,7.728,15.941,111.466,111.466,0,0,1,6.732,27.28c1.112,2.609,2.991-.642,4.261-4.038a6.833,6.833,0,0,1,4.642-2.359c-.191-6.313,0-11.936.167-14.759.9-15.429,2.708-21.274,6.756-22.934,3.043-1.248,14.091-5.42,18.7-8.416,10.445-6.79,15.464-13.058,20.726-21.058a47.41,47.41,0,0,1,13.93-13.764c3.188-1.908,9.939-2.931,13.113-1.264a48.987,48.987,0,0,1,10.091,6.993,22.144,22.144,0,0,1,4.493,5.257c3.024,5.257,1.478,12.449,1.355,18.228-.011.533-.007,1.864.055,2.5a2.14,2.14,0,0,0,.382,1.12c.615.787,1.831.631,2.791.361a5.535,5.535,0,0,0,2.634-1.334,5.944,5.944,0,0,0,.968-1.617c1.211-2.62,2.658-4.744,3.6-7.525a32.33,32.33,0,0,0,.936-4.645c.273-1.584.876-3.119.349-4.638a12.94,12.94,0,0,0-.764-1.632c-3.85-7.471-4.217-14.454-1.833-22.495,1.844-6.223,4.381-12.236,4.79-18.787" transform="translate(389.212 9456.809)" fill="#455a64"/>
    <path id="Trazado_279750" data-name="Trazado 279750" d="M589.328,128.766c6.312-5.27,13.059-5.217,13.386-4.9,0,0-4.418,6.961-5.726,9.922-1-.035-7.66-5.026-7.66-5.026" transform="translate(389.212 9456.809)" fill="#455a64"/>
    <path id="Trazado_279751" data-name="Trazado 279751" d="M616.7,177.3c-2.437-1.359-4.779-8.4-7.488-13.769s-4.39-9.845-3.977-15.333c.441-5.863-4.05-10.978-8.275-14.43a57.254,57.254,0,0,0-10.448-6.166,26.627,26.627,0,0,0-11.367-2.809c-5.138-.246-13.6.812-18.183,4.063-4.5,3.194-10.056,3.882-21.629,24.042-5.547,9.663-17.382,34.527-9.069,76.4l56.708-42.016A70.647,70.647,0,0,1,575.031,177c-1.449-2.082-4.667-10.412-3.1-13.437a13.12,13.12,0,0,0,3.027,6.762c4.53,4.656,9.783,5.907,15.5,9.445,6.212,3.852,5.653,7.527,9.79,12.827s8.307,5.919,13.227,3.374,4.6-7.769,5.731-10.337-.069-6.966-2.5-8.332" transform="translate(389.212 9456.809)" fill="#455a64"/>
    <path id="Trazado_279752" data-name="Trazado 279752" d="M616.508,182.8c-3.018.738-4.956,1.936-5.843-.2s-1.823-1.98-4.514-2.819-7.3-6.75-9.05-9.915-1.668-8.4-2.726-11.865-3.308-5.262-6.813-6.209-6.166-.849-5.687,2.209,4.566,5.983,5.814,8.783,1.768,7.983,3.234,11.494,5.506,11.917,5.506,11.917v0a37.821,37.821,0,0,0,3.816,6.393c4.139,5.294,8.3,5.922,13.222,3.379s4.6-7.775,5.735-10.342-.069-6.962-2.5-8.328c.983,1.053,2.828,4.765-.19,5.5" transform="translate(389.212 9456.809)" fill="#37474f"/>
    <path id="Trazado_279753" data-name="Trazado 279753" d="M582.972,187.278c-4.71-4.846-9.345-10.3-11.187-16.937-.591-2.294-1.295-4.645-.33-7.025l.67-1.451.321,1.6c.95,7.421,8.126,10.581,14.136,13.574,3.128,1.622,6.385,3.432,8.5,6.359,2.062,2.924,3.012,6.343,5.163,9.2-2.349-2.6-3.616-6.045-5.712-8.784-6.669-7.8-21.656-7.935-23.123-20.151l.991.143c-.793,1.872-.159,4.314.284,6.293,1.606,6.61,6,12.061,10.291,17.183" transform="translate(389.212 9456.809)" fill="#263238"/>
    <path id="Trazado_279754" data-name="Trazado 279754" d="M607.882,182.063c-1.015-1.088-1.55,1.353-1.916,3.516s3.307,4.319,4.06,3.518.428-2.289-.574-3.8-.526-2.111-1.57-3.229" transform="translate(389.212 9456.809)" fill="#263238"/>
    <path id="Trazado_279755" data-name="Trazado 279755" d="M586.532,158.129a2.678,2.678,0,0,1-.473-.363,3.844,3.844,0,0,1-.756-3.126.6.6,0,0,1,.114-.324.577.577,0,0,1,.269-.152,3.22,3.22,0,0,1,1.5.114,5.517,5.517,0,0,1,1.524.606,5.785,5.785,0,0,1,1.747,1.526c.281.382.962,1.571.425,1.976a.661.661,0,0,1-.449.11c-.319-.028-.6-.252-.927-.218-.433.044-.842.226-1.282.255a2.93,2.93,0,0,1-1.692-.4" transform="translate(389.212 9456.809)" fill="#263238"/>
    <path id="Trazado_279756" data-name="Trazado 279756" d="M587.19,155.844a.487.487,0,1,1-.487-.487.487.487,0,0,1,.487.487" transform="translate(389.212 9456.809)" fill="#fafafa"/>
    <path id="Trazado_279757" data-name="Trazado 279757" d="M593.9,137.668c.219.559,3.143,5.753.914,8.778-1.418,1.926,3.02,1.491,5.687,7.579,1.643,3.75,2.479,5.676,2.428,3.068s-1.2-7.644-.556-10.687-.316-1.773-2.771-4.464-6.493-6.3-5.7-4.274" transform="translate(389.212 9456.809)" fill="#fafafa"/>
    <path id="Trazado_279758" data-name="Trazado 279758" d="M568.205,141.753a53,53,0,0,1,11.727-11.593c.128-.093,3.014-1.707,3.011-1.334,0,0-.063,5.123.359,5.491,2.24,3.756,2.867,10.05-.023,14.134,3.546-1.232,7.878-4.061,7.976-5.359a17.291,17.291,0,0,0,.164,4.606c-.064-.365,2.7-2.721,3.071-3.147a23.276,23.276,0,0,0,2.346-3.129,8.683,8.683,0,0,0,1.537-5.78c-.539-3.28-3.222-5.5-6.1-6.809-4.93-2.234-9.628-4.844-16.688-5.084a38.33,38.33,0,0,0-14.935,1.981,44.671,44.671,0,0,0-18.232,11.7,66.908,66.908,0,0,0-6.965,9.642,78,78,0,0,0-5.3,9.271c-5.672,12.44-7.775,26.739-2.755,39.786.764-7.91,4.771-15.239,10.031-21.2,4.935-5.587,11.251-10.568,13.165-17.772a37.316,37.316,0,0,1-3.2,16.987,30.1,30.1,0,0,0,9.336-9.2c2.8-4.35,4.419-9.332,6.386-14.118a43.735,43.735,0,0,1,5.09-9.076" transform="translate(389.212 9456.809)" fill="#263238"/>
    <path id="Trazado_279759" data-name="Trazado 279759" d="M613.193,171.91c-5.151-1.865-14.634,2.513-18.235,8.377-3.113-2.892-8.724-8.563-11.422-14.146-2.882-5.963-5.313-12.265-5.693-19.941,3.41.089,12.633-.018,19.409-3.35,4.937-2.427,4.137-4.724,4.137-4.724a12.363,12.363,0,0,0-2.4-2.58c.779,1.732-4.9,6.775-23.65,6.546a23.911,23.911,0,0,0-4.624,10.5c-1.578,7.943.4,14.041,3.93,18.175a17.184,17.184,0,0,0,4.913,3.805c-2.3-1.9-7.725-10.644-6.483-19.806a19.29,19.29,0,0,1,2.486-7.336c.062,6.986,2.975,13.277,5.285,18.5,3.577,8.086,13.074,16.558,13.074,16.558l2.512,3.712c2.261-6.9,13.1-12.339,18.881-10.247Z" transform="translate(389.212 9456.809)" fill="#ba68c8"/>
    <g id="Grupo_260982" data-name="Grupo 260982" transform="translate(389.212 9456.809)" opacity="0.3">
      <g id="Grupo_260981" data-name="Grupo 260981">
        <g id="Grupo_260980" data-name="Grupo 260980" clip-path="url(#clip-path-6)">
          <path id="Trazado_279760" data-name="Trazado 279760" d="M613.193,171.91c-5.151-1.865-14.634,2.513-18.235,8.377-3.113-2.892-8.724-8.563-11.422-14.146-2.882-5.963-5.313-12.265-5.693-19.941,3.41.089,12.633-.018,19.409-3.35,4.937-2.427,4.137-4.724,4.137-4.724a12.363,12.363,0,0,0-2.4-2.58c.779,1.732-4.9,6.775-23.65,6.546a23.911,23.911,0,0,0-4.624,10.5c-1.578,7.943.4,14.041,3.93,18.175a17.318,17.318,0,0,0,4.913,3.805c-2.3-1.9-7.725-10.644-6.483-19.806a19.29,19.29,0,0,1,2.486-7.336c.062,6.986,2.975,13.277,5.285,18.5,3.577,8.086,13.074,16.558,13.074,16.558l2.512,3.712c2.261-6.9,13.1-12.339,18.881-10.247Z"/>
        </g>
      </g>
    </g>
    <path id="Trazado_279761" data-name="Trazado 279761" d="M613.193,171.91c-2.669-.967-6.5-.247-10.074,1.477a28.194,28.194,0,0,0,2.895,3.61c3.308-1.441,6.782-1.957,9.3-1.047Z" transform="translate(389.212 9456.809)" fill="#ba68c8"/>
    <path id="Trazado_279762" data-name="Trazado 279762" d="M597.253,142.85c4.936-2.427,4.136-4.724,4.136-4.724a12.37,12.37,0,0,0-2.4-2.581c.554,1.231-2.163,4.133-10.506,5.628a32.486,32.486,0,0,1,2.664,3.782,28.918,28.918,0,0,0,6.109-2.1" transform="translate(389.212 9456.809)" fill="#ba68c8"/>
    <path id="Trazado_279763" data-name="Trazado 279763" d="M577.686,141.329c.435-3.175,4.083-11,5.6-12.473a17.569,17.569,0,0,1,1.285,8.489c-.768,2.386-6.883,3.984-6.883,3.984" transform="translate(389.212 9456.809)" fill="#37474f"/>
    <path id="Trazado_279764" data-name="Trazado 279764" d="M682.917,224.075a8.587,8.587,0,0,1-1.111,5.087,2.969,2.969,0,0,1-1.323,1.038c-1.05.409-2.211-.295-2.964-1.134-2.155-2.4-2.786-5.782-4.1-8.626a27.088,27.088,0,0,0-6.373-7.986c-3.305-3.112-6.891-6.195-8.646-10.382-1.681-4.013-1.5-8.669-3.5-12.533-.286-.552-.8-1.163-1.4-1a1.3,1.3,0,0,0-.6.432,12.819,12.819,0,0,0-1.789,2.908c-3.793,7.782-5.463,11.462-15.042,20.876-8.888,8.734-20.08,24.215-34.2,20.119-1.495-.732-2.906-1.942-4.567-1.836-1.557.1-2.78,1.339-3.726,2.579-2.881,3.774-3.967,7.968-5.477,12.365a143.168,143.168,0,0,0-3.185,15.785h0c1.072-3.651,2.541-5.552,4.581-6.388,3.043-1.248,14.091-5.42,18.7-8.417,10.445-6.789,15.464-13.057,20.726-21.058a47.392,47.392,0,0,1,13.93-13.763c3.188-1.909,9.939-2.931,13.113-1.265a48.984,48.984,0,0,1,10.09,6.994,22.148,22.148,0,0,1,4.494,5.257c3.024,5.256,1.478,12.449,1.355,18.228-.011.533-.007,1.863.055,2.495a2.141,2.141,0,0,0,.382,1.121c.615.787,1.83.631,2.791.36a5.533,5.533,0,0,0,2.634-1.333,5.959,5.959,0,0,0,.968-1.617c1.211-2.62,2.658-4.745,3.6-7.525a32.33,32.33,0,0,0,.936-4.645c.273-1.584.876-3.12.348-4.638a11.241,11.241,0,0,0-.693-1.5" transform="translate(389.212 9456.809)" fill="#37474f"/>
    <path id="Trazado_279765" data-name="Trazado 279765" d="M571.186,339.58c-1.754,3.415-2.819,9.216-3.046,11.083-.082.668.2,2.719,3.694,4.385,4.46,2.13,9.187.309,11.359-1.113,3.473-2.272,3.867-4.557,4.1-5.179l-1.813-5.814Z" transform="translate(389.212 9456.809)" fill="#263238"/>
    <path id="Trazado_279766" data-name="Trazado 279766" d="M573.663,299.465c1.012,7.963,1.394,14.834,1.061,18.639-.851,9.607-2.066,16.145-3.177,19.527-2.089,6.362,5.6,8.187,13.932,5.31,1.052-1.456.056-3.522-1.723-5.509s2.531-5.229,3.226-7.345-2.253-3.02-2.936-10.8c-.417-4.753-1.174-16.308-1.481-26.224a6.839,6.839,0,0,0-4.642,2.359,23.565,23.565,0,0,0-2.227,3.165c-.678,1.064-1.624,1.653-2.033.873" transform="translate(389.212 9456.809)" fill="#f5f5f5"/>
    <g id="Grupo_260985" data-name="Grupo 260985" transform="translate(389.212 9456.809)" opacity="0.1">
      <g id="Grupo_260984" data-name="Grupo 260984">
        <g id="Grupo_260983" data-name="Grupo 260983" clip-path="url(#clip-path-7)">
          <path id="Trazado_279767" data-name="Trazado 279767" d="M579.333,307.258s-1.7-11.66-1.409-11.831a6.833,6.833,0,0,1,4.641-2.358c.307,9.916,1.064,21.471,1.481,26.224.683,7.775,3.633,8.672,2.936,10.8s-5.005,5.357-3.226,7.344,2.775,4.053,1.723,5.509c-4.59,1.586-8.983,1.741-11.655.5,4.761.286,7.8-3.636,5.212-6.379s2.224-4.95,3.495-7.044-1-4.794-1.368-7.928-1.83-14.83-1.83-14.83"/>
        </g>
      </g>
    </g>
    <path id="Trazado_279768" data-name="Trazado 279768" d="M668.149,286.621c-.758,1.929-1.894,8.751-1.433,9.764s4.714,4.255,10.741,3.146,9.245-7.532,9.015-9.981l-3.495-7.387Z" transform="translate(389.212 9456.809)" fill="#263238"/>
    <path id="Trazado_279769" data-name="Trazado 279769" d="M676.652,288.035c-3.39.87-7.316.786-8.5-1.414.42-3.742,1.188-5.989.546-9.641-.761-4.336-2.352-5.338.274-12.835,2.289-6.533,2.813-16.873,2.93-22.793,1.1,2.084,3.469.571,4.38-.738,1.819-2.615,3.464-4.071,6.582-7.962a37.462,37.462,0,0,1-1.152,5.183,49.7,49.7,0,0,0-1.665,23.762c1.644,9.16.415,9.323-.832,12.783-1.392,3.86.941,5.246,3.765,7.784.6,3.365-2.934,5-6.324,5.871" transform="translate(389.212 9456.809)" fill="#f5f5f5"/>
    <path id="Trazado_279770" data-name="Trazado 279770" d="M676.535,283.228c-3.063-2.661-1.244-9.983.561-13.882s-1.905-10.859-1.865-17.154c.035-5.6,3.55-10.74,2.719-13.795,1.2-1.478,2.784-3.091,4.911-5.745a37.467,37.467,0,0,1-1.152,5.183,49.7,49.7,0,0,0-1.665,23.762c1.644,9.16.415,9.323-.832,12.783-1.392,3.86.941,5.246,3.765,7.784.6,3.365-2.934,5-6.324,5.871a17.208,17.208,0,0,1-1.781.356c1.4-.959,3.973-3.156,1.663-5.163" transform="translate(389.212 9456.809)" fill="#e0e0e0"/>
    <path id="Trazado_279771" data-name="Trazado 279771" d="M559.2,256.244a35.973,35.973,0,0,1-2.674-7.138c-1-5.91.271-11.9.544-17.816.075-1.612-.2-3.643-1.741-4.133-1.244-.4-2.5.528-3.393,1.482a18.47,18.47,0,0,0-3.565,5.552,6.685,6.685,0,0,1-1.313,2.383c-1.329,1.28-3.527.958-5.192.162a19.6,19.6,0,0,1-5.765-4.62,62.978,62.978,0,0,1-12.335-20.889c.423,5.628.568,11.646,1.843,18.067a26.946,26.946,0,0,0,5.014,11.271c5.1,6.878,12.548,10.174,18.154,12.932a.363.363,0,0,0-.038.06,27.417,27.417,0,0,0,10.461,2.687" transform="translate(389.212 9456.809)" fill="#37474f"/>
    <path id="Trazado_279772" data-name="Trazado 279772" d="M721.142,287.19c-.405-1.616-.854-3.216-1.354-4.834-1.991-6.439-4.05-12.857-6.012-19.3a293.869,293.869,0,0,1-7.094-30.239l-3.163,17.752a32.187,32.187,0,0,1,1.206,11.107c-.435,5.216-1.883,12.153-2.419,18.871a15.137,15.137,0,0,0,.933,7.335c.745,2.321.62,5-1.531,5.873-3.285,1.329-4.39,4.3-5.864,5.769a8.815,8.815,0,0,1-4.327,2.724,15.235,15.235,0,0,1-5.823.611c-3.34-.224-4.083-1.073-4.267-2.394-.173-1.245,1.016-1.936,2.479-2.856,2.765-1.738,6.677-7.153,7.955-9.382s1.182-5.254.909-7.674c-1.476-13.045-3.014-25.312-3.739-32.537-.218-2.167-.433-12.789-.433-23.563,0-13.028.508-20.688.758-24.1,4.045,1.122,15.336,3.269,21.065,2.339,2.431-.395,12.186-2.434,13.832-3.752a36.287,36.287,0,0,1,3.151,11.912,86.417,86.417,0,0,1,.116,12.366c-.57,15.825-.6,22.293-.6,22.293s.15,4.932.777,9.4c.391,2.784,2.324,9.1,2.409,14.866.034,2.321-.032,4.643-.014,6.965a62.786,62.786,0,0,0,2.6,17.11c.6,2.057,1.277,4.1,1.682,6.2a18.886,18.886,0,0,1-1.258,10.923,14.443,14.443,0,0,1-.987,1.96,7.825,7.825,0,0,1-1.005,1.612,1.132,1.132,0,0,1-.393.263,1.166,1.166,0,0,1-.509.043c-1.606-.161-2.826-1.829-3.634-3.076a16.372,16.372,0,0,1-2.045-4.87,59.941,59.941,0,0,1-1.165-7.58q-.54-4.407-1.459-8.754c-.241-1.142-.5-2.264-.78-3.378" transform="translate(389.212 9456.809)" fill="#ba68c8"/>
    <path id="Trazado_279773" data-name="Trazado 279773" d="M721.142,287.19c-.405-1.616-.854-3.216-1.354-4.834-1.991-6.439-4.05-12.857-6.012-19.3a293.869,293.869,0,0,1-7.094-30.239l-3.163,17.752a32.187,32.187,0,0,1,1.206,11.107c-.435,5.216-1.883,12.153-2.419,18.871a15.137,15.137,0,0,0,.933,7.335c.745,2.321.62,5-1.531,5.873-3.285,1.329-4.39,4.3-5.864,5.769a8.815,8.815,0,0,1-4.327,2.724,15.235,15.235,0,0,1-5.823.611c-3.34-.224-4.083-1.073-4.267-2.394-.173-1.245,1.016-1.936,2.479-2.856,2.765-1.738,6.677-7.153,7.955-9.382s1.182-5.254.909-7.674c-1.476-13.045-3.014-25.312-3.739-32.537-.218-2.167-.433-12.789-.433-23.563,0-13.028.508-20.688.758-24.1,4.045,1.122,15.336,3.269,21.065,2.339,2.431-.395,12.186-2.434,13.832-3.752a36.287,36.287,0,0,1,3.151,11.912,86.417,86.417,0,0,1,.116,12.366c-.57,15.825-.6,22.293-.6,22.293s.15,4.932.777,9.4c.391,2.784,2.324,9.1,2.409,14.866.034,2.321-.032,4.643-.014,6.965a62.786,62.786,0,0,0,2.6,17.11c.6,2.057,1.277,4.1,1.682,6.2a18.886,18.886,0,0,1-1.258,10.923,14.443,14.443,0,0,1-.987,1.96,7.825,7.825,0,0,1-1.005,1.612,1.132,1.132,0,0,1-.393.263,1.166,1.166,0,0,1-.509.043c-1.606-.161-2.826-1.829-3.634-3.076a16.372,16.372,0,0,1-2.045-4.87,59.941,59.941,0,0,1-1.165-7.58q-.54-4.407-1.459-8.754c-.241-1.142-.5-2.264-.78-3.378" transform="translate(389.212 9456.809)" fill="#632059"/>
    <g id="Grupo_260988" data-name="Grupo 260988" transform="translate(389.212 9456.809)" opacity="0.6">
      <g id="Grupo_260987" data-name="Grupo 260987">
        <g id="Grupo_260986" data-name="Grupo 260986" clip-path="url(#clip-path-8)">
          <path id="Trazado_279774" data-name="Trazado 279774" d="M706.681,232.815l-2.364-17.864s-8.281-3.421-10.143-7.126c0,0,.155,4.11,7.709,8.714l3.179,16.317-1.543,17.711Z" fill="#ba68c8"/>
          <path id="Trazado_279775" data-name="Trazado 279775" d="M713.892,197.889q-.329.144-.654.281c.116.324.231.649.336.978.932,2.921,1.226,6.164,2.972,8.764a6.942,6.942,0,0,0,3.013,2.6,4.839,4.839,0,0,0,3.46.181c.545,5.97.11,11.971-.209,17.941a126.81,126.81,0,0,0,.19,18.45c.564,6.114,1.614,12.183,2.531,18.252.926,6.128,1.882,12.251,2.831,18.375.051.329.646.191.6-.139q-.168-1.146-.337-2.292-1.365-9.261-2.749-18.518c-.916-6.064-1.931-12.127-2.353-18.251a150.926,150.926,0,0,1,.176-18.638,91.8,91.8,0,0,0-.2-17.527,35.7,35.7,0,0,0-4.047-12.838q-.294.095-.587.2a38.9,38.9,0,0,1,4.1,14.451,4.836,4.836,0,0,1-3.887-.606c-2.428-1.534-3.262-4.574-3.9-7.188a44.288,44.288,0,0,0-1.244-4.367l-.04-.1M700.651,256.41a86.081,86.081,0,0,1,.2,9.029c-.005.175.2.1.218-.028a42.979,42.979,0,0,0,.184-10.158c-.188-2.94-.358-5.873-.277-8.82s.267-5.912.527-8.853a77.609,77.609,0,0,1,1.427-8.754c.3-1.444.587-2.891.881-4.336.15-.734.3-1.469.434-2.205a16.122,16.122,0,0,0,.334-2.33c.008-.225-.325-.1-.373.035a33.89,33.89,0,0,0-1.161,4.783c-.347,1.648-.7,3.3-1.041,4.946a68.508,68.508,0,0,0-1.322,8.712c-.228,3-.412,6.013-.44,9.021-.028,2.991.194,5.977.407,8.958" fill="#ba68c8"/>
        </g>
      </g>
    </g>
    <path id="Trazado_279776" data-name="Trazado 279776" d="M729.249,259.383c1.395,7.3,1.7,13.479,1.992,21.6s2.044,12.136,3.868,17.5-1.459,16.283-3.928,17.678-6.225-3.112-7.3-7.406-.933-9.986-2.34-16.5c-1.5-6.938-7.105-22.156-8.286-28.684,0,0,2.039-4.723,5.581-5.689s6.655-.322,10.411,1.5" transform="translate(389.212 9456.809)" fill="#455a64"/>
    <path id="Trazado_279777" data-name="Trazado 279777" d="M723.882,308.755a77.947,77.947,0,0,1-1.267-9.572,1.4,1.4,0,0,0,.207.033,2.432,2.432,0,0,0,1.689-.5c1.119-.925.521-2.737.2-3.907a24.5,24.5,0,0,0-1.667-4.221c-.546-1.115-1.375-2.51-1.307-3.792a.826.826,0,0,1,1.1-.828c1.09.277,1.582,1.5,2.623,1.874,1.5.533,1.973-.933,2.537-1.982.357-.665.919-1.691,1.725-.823a2.066,2.066,0,0,1,.431.856,10.792,10.792,0,0,1,.249,3.251q-.069,2.7-.136,5.4a6.111,6.111,0,0,0,.158,1.934,2.061,2.061,0,0,0,1.242,1.4c1.68.54,1.615-1.471,2.01-2.427a1.823,1.823,0,0,1,.239-.419c.384,1.121.786,2.248,1.192,3.442,1.824,5.367-1.46,16.283-3.929,17.679s-6.225-3.113-7.3-7.406" transform="translate(389.212 9456.809)" fill="#37474f"/>
    <path id="Trazado_279778" data-name="Trazado 279778" d="M723.079,267.71a2.721,2.721,0,0,1,.19-.285.274.274,0,0,1,.1-.082.194.194,0,0,1,.11-.037l.074.01a.157.157,0,0,1,.089.066.126.126,0,0,1,.041.067.266.266,0,0,1,.032.127.545.545,0,0,1-.07.3c-.024.04-.045.082-.066.123s-.03.068-.042.1-.017.05-.026.075a.984.984,0,0,1-.165.245.246.246,0,0,1-.244.119.191.191,0,0,1-.107-.076.318.318,0,0,1-.053-.143c0,.018-.005-.008-.006-.011l-.007-.029a.469.469,0,0,1-.016-.116.41.41,0,0,1,.026-.16.232.232,0,0,1,.021-.063c.035-.078.074-.154.116-.229" transform="translate(389.212 9456.809)" fill="#37474f"/>
    <path id="Trazado_279779" data-name="Trazado 279779" d="M719.794,266.111c.094.031.187.065.278.1a.652.652,0,0,1,.065.032.338.338,0,0,1,.032.019c.217.124.114.083.355.38a.369.369,0,0,1,.033.173.159.159,0,0,1-.039.107.15.15,0,0,1-.083.075.274.274,0,0,1-.16.016,1.223,1.223,0,0,1-.278-.073l-.02-.01-.047-.02c-.03-.014-.058-.03-.088-.045-.046-.024-.094-.044-.142-.065-.069-.025-.138-.05-.209-.07a.6.6,0,0,1-.277-.2.452.452,0,0,1-.1-.232.271.271,0,0,1,.05-.2.279.279,0,0,1,.239-.084,3.515,3.515,0,0,1,.393.094" transform="translate(389.212 9456.809)" fill="#37474f"/>
    <path id="Trazado_279780" data-name="Trazado 279780" d="M722.238,267.455a.412.412,0,0,1,.094.132.469.469,0,0,1,.038.111l.006.029s0,.031,0,.012a.332.332,0,0,1,.015.153.185.185,0,0,1-.062.115.249.249,0,0,1-.272,0,1.024,1.024,0,0,1-.255-.147c-.02-.019-.038-.038-.057-.057s-.055-.049-.083-.073-.074-.056-.113-.081a.555.555,0,0,1-.194-.235.275.275,0,0,1-.028-.128.134.134,0,0,1,.008-.079.159.159,0,0,1,.051-.1l.061-.042a.212.212,0,0,1,.116-.015.285.285,0,0,1,.128.028,2.828,2.828,0,0,1,.3.172c.07.049.139.1.205.155a.205.205,0,0,1,.046.047" transform="translate(389.212 9456.809)" fill="#37474f"/>
    <path id="Trazado_279781" data-name="Trazado 279781" d="M717.126,267a6.02,6.02,0,0,1,3.1.623,8.143,8.143,0,0,1,2.278,1.941c.468.489.747.463,1.083-.1.218-.367.379-.764.6-1.13a6.729,6.729,0,0,1,2.51-2.359,6.3,6.3,0,0,1,3.474-.775q.069.548.133,1.093a5.023,5.023,0,0,0-3.971,1.017,7.286,7.286,0,0,0-1.658,2.381,2.425,2.425,0,0,1-1.665,1.434c-.908.13-1.439-.54-1.967-1.157a5.1,5.1,0,0,0-2.4-1.582,4.894,4.894,0,0,0-4.061.56q-.138-.484-.266-.951a6.038,6.038,0,0,1,2.806-1" transform="translate(389.212 9456.809)" fill="#37474f"/>
    <path id="Trazado_279782" data-name="Trazado 279782" d="M718.257,266.393l-.1.011c-.079-.008-.159-.006-.238-.021-.041-.009-.082-.013-.123-.018a2.832,2.832,0,0,1-.631-.023.475.475,0,0,1-.223-.144.437.437,0,0,1-.114-.241.279.279,0,0,1,.018-.151c.015-.022.03-.044.046-.066l.016-.019a.553.553,0,0,1,.236-.133.965.965,0,0,1,.2-.03c.037,0,.074-.007.112-.008a2.54,2.54,0,0,1,.326.016.807.807,0,0,1,.219.048c.044.019.087.041.129.064a.58.58,0,0,1,.335.441.255.255,0,0,1-.083.207.212.212,0,0,1-.12.067" transform="translate(389.212 9456.809)" fill="#37474f"/>
    <path id="Trazado_279783" data-name="Trazado 279783" d="M724.339,265.932q.1-.109.2-.213a3.366,3.366,0,0,1,.312-.258.278.278,0,0,1,.252-.03.268.268,0,0,1,.134.161.445.445,0,0,1,.011.253.586.586,0,0,1-.163.3c-.054.05-.106.1-.157.156-.033.039-.067.079-.1.12s-.039.053-.06.079l-.032.039-.015.018a1.146,1.146,0,0,1-.216.188.269.269,0,0,1-.151.056.148.148,0,0,1-.108-.03.168.168,0,0,1-.082-.08.37.37,0,0,1-.047-.169c.086-.373.012-.29.151-.5l.021-.031c.014-.02.028-.039.044-.058" transform="translate(389.212 9456.809)" fill="#37474f"/>
    <path id="Trazado_279784" data-name="Trazado 279784" d="M729.424,264.153c-.026.112-.1.259-.225.279a1.471,1.471,0,0,1-.218.032c-.055,0-.111,0-.166,0s-.106.007-.158.014c-.03,0-.059.008-.088.013-.012,0-.023.005-.035.006a.262.262,0,0,1-.165-.053l.066.038-.043-.023c-.043-.018-.085-.038-.129-.053-.064-.022-.093-.107-.1-.175a.159.159,0,0,1,0-.031v-.019a.257.257,0,0,1,0-.03.364.364,0,0,1,.015-.065.377.377,0,0,1,.012-.046c0-.005,0-.012,0-.017a.234.234,0,0,1,.042-.051c.009-.012.013-.028.025-.037l0,.009c.008-.007.012-.017.02-.024a1.628,1.628,0,0,1,.132-.1c.031-.021.063-.043.1-.063a.394.394,0,0,1,.173-.057,1.036,1.036,0,0,1,.111-.008,1.583,1.583,0,0,1,.207,0,.841.841,0,0,1,.183.022.83.83,0,0,1,.155.087.339.339,0,0,1,.1.345" transform="translate(389.212 9456.809)" fill="#37474f"/>
    <path id="Trazado_279785" data-name="Trazado 279785" d="M715.786,266.681l-.029.039.042-.063a.258.258,0,0,1-.124.12.217.217,0,0,1-.034.01l-.085.027c-.05.017-.1.036-.148.057s-.1.047-.151.072a1.451,1.451,0,0,1-.209.066c-.124.039-.252-.062-.325-.15a.339.339,0,0,1-.064-.353.791.791,0,0,1,.1-.147.867.867,0,0,1,.154-.1,1.606,1.606,0,0,1,.184-.1c.034-.014.068-.029.1-.041a.4.4,0,0,1,.181-.025c.038,0,.076.009.114.015a1.538,1.538,0,0,1,.162.031.231.231,0,0,1,.028.012l-.006-.007c.015,0,.025.016.039.022a.271.271,0,0,1,.06.028c.005,0,.007.01.012.014a.359.359,0,0,1,.03.036.527.527,0,0,1,.043.051.233.233,0,0,1,.011.028l0,0,.005.014a.141.141,0,0,1,.01.029.207.207,0,0,1-.016.2c-.032.033-.061.069-.091.1" transform="translate(389.212 9456.809)" fill="#37474f"/>
    <path id="Trazado_279786" data-name="Trazado 279786" d="M726.113,264.34a2.416,2.416,0,0,1,.285-.159c.034-.015.069-.029.1-.042a.962.962,0,0,1,.189-.059.537.537,0,0,1,.27.016l.023.01.07.038a.288.288,0,0,1,.083.128.447.447,0,0,1,0,.266.474.474,0,0,1-.137.228,2.782,2.782,0,0,1-.556.3c-.035.023-.07.045-.1.07a2.357,2.357,0,0,1-.2.124l-.095.035a.208.208,0,0,1-.137-.008.257.257,0,0,1-.166-.148.583.583,0,0,1,.106-.545c.028-.038.057-.077.088-.113a.77.77,0,0,1,.176-.14" transform="translate(389.212 9456.809)" fill="#37474f"/>
    <path id="Trazado_279787" data-name="Trazado 279787" d="M700.006,299.5l-3.059-1.24,3.059-1.374Z" transform="translate(389.212 9456.809)"/>
    <path id="Trazado_279788" data-name="Trazado 279788" d="M704.214,292.725a19.42,19.42,0,0,1-.4,4.005,19.883,19.883,0,0,1-3.81,2.766v-2.614a20.6,20.6,0,0,0-2.391,2.56,12.157,12.157,0,0,1-4.867,3.986,17.7,17.7,0,0,1-8.1,1.3c-3.357-.168-5.581-.546-5.455-2.392Z" transform="translate(389.212 9456.809)" fill="#263238"/>
    <path id="Trazado_279789" data-name="Trazado 279789" d="M704.945,254.824a59.023,59.023,0,0,1-1.039,16.322c-.823,4.771-1.588,10.646-.654,14.384s1.27,5.419.962,7.2a6.894,6.894,0,0,1-2.643,2.149,14.51,14.51,0,0,0-4.2,3.831,12.935,12.935,0,0,1-8.036,4.859c-3.831.56-8.315.533-9.716-.682s.168-3.212,4.2-6.139,7.569-7.674,8.036-9.817.093-7.283-.934-14.851-1.963-17.251-1.963-17.251,1.984-3.041,7.226.449c4.463,2.971,5.317,4.37,5.317,4.37s1.384-3.354,3.446-4.819" transform="translate(389.212 9456.809)" fill="#455a64"/>
    <path id="Trazado_279790" data-name="Trazado 279790" d="M702.362,256.784s.279,2.983.223,5.045l-2.157.112a28.871,28.871,0,0,0-.252-4.951Z" transform="translate(389.212 9456.809)" fill="#37474f"/>
    <path id="Trazado_279791" data-name="Trazado 279791" d="M700.716,260.359a.06.06,0,0,1,.029.054.949.949,0,0,0,.058.253,1.6,1.6,0,0,0,.125.23c.017.03,0,.089-.035.05a.8.8,0,0,1-.147-.264,1.106,1.106,0,0,1-.06-.3c0-.018.012-.035.03-.028" transform="translate(389.212 9456.809)" fill="#37474f"/>
    <path id="Trazado_279792" data-name="Trazado 279792" d="M692.926,263.321a9.555,9.555,0,0,0-1.177,2.256,1.9,1.9,0,0,1-1.525.991c-.041-.341-.081-.682-.12-1.021.432.181.83.13,1.049-.588a5.8,5.8,0,0,1,1.04-2.112,3.709,3.709,0,0,1,4.517-.87,8.084,8.084,0,0,1,2.078,1.474c.581.536,1.26,1.493,2.053,1.7.827.219,1.756-.792,2.493-1.068a4.2,4.2,0,0,1,1.588-.267c-.024.262-.049.522-.076.783a4.51,4.51,0,0,0-2.341.84,2.4,2.4,0,0,1-2.266.618,7.885,7.885,0,0,1-2.09-1.72,6.837,6.837,0,0,0-2.45-1.553,2.621,2.621,0,0,0-2.773.533" transform="translate(389.212 9456.809)" fill="#37474f"/>
    <path id="Trazado_279793" data-name="Trazado 279793" d="M701.588,263.935l.049-.023.021-.009c-.083.044-.109.056-.07.032" transform="translate(389.212 9456.809)" fill="#37474f"/>
    <path id="Trazado_279794" data-name="Trazado 279794" d="M701.637,263.912l.025-.011h0l-.022.01" transform="translate(389.212 9456.809)" fill="#37474f"/>
    <path id="Trazado_279795" data-name="Trazado 279795" d="M701.659,263.9h0" transform="translate(389.212 9456.809)" fill="#37474f"/>
    <path id="Trazado_279796" data-name="Trazado 279796" d="M702.094,263.7l-.036.019h0l.037-.019" transform="translate(389.212 9456.809)" fill="#37474f"/>
    <path id="Trazado_279797" data-name="Trazado 279797" d="M701.67,263.9l.04-.018-.048.022h0l.006,0" transform="translate(389.212 9456.809)" fill="#37474f"/>
    <path id="Trazado_279798" data-name="Trazado 279798" d="M701.664,263.9h0" transform="translate(389.212 9456.809)" fill="#37474f"/>
    <path id="Trazado_279799" data-name="Trazado 279799" d="M701.633,263.914l0,0h0l0,0" transform="translate(389.212 9456.809)" fill="#37474f"/>
    <path id="Trazado_279800" data-name="Trazado 279800" d="M700.716,263.955l-.013-.012c-.008-.009-.013-.019-.022-.029l.035.041" transform="translate(389.212 9456.809)" fill="#37474f"/>
    <path id="Trazado_279801" data-name="Trazado 279801" d="M696.745,261.033l-.018-.01-.04-.029.058.039" transform="translate(389.212 9456.809)" fill="#37474f"/>
    <path id="Trazado_279802" data-name="Trazado 279802" d="M690.075,264.538h-.009c.021,0,.032,0,.03,0h-.021" transform="translate(389.212 9456.809)" fill="#37474f"/>
    <path id="Trazado_279803" data-name="Trazado 279803" d="M703.063,263.123a.329.329,0,0,0-.041.273.4.4,0,0,0,.18.225.445.445,0,0,0,.3.055c.147-.03.293-.075.437-.119l.227-.071a1,1,0,0,0,.116-.041c.057-.024.114-.049.169-.077a.354.354,0,0,0,.081-.056c.016-.014.019-.018.01-.011a.28.28,0,0,0,.077-.283.34.34,0,0,0-.335-.2c-.063,0-.15,0-.223.008s-.174.031-.223.039l.1-.016c-.128.022-.259.037-.385.066l-.158.035-.074.016-.025.008.005,0-.008,0a.469.469,0,0,0-.085.026l-.081.051.027-.012a.343.343,0,0,0-.09.081m-1.584.922a.247.247,0,0,0-.013.217.294.294,0,0,0,.166.151.388.388,0,0,0,.256.005,2.183,2.183,0,0,0,.337-.155c.046-.026.091-.053.135-.08l.064-.041a.768.768,0,0,0,.136-.137l.045-.054a.259.259,0,0,0,.041-.139.185.185,0,0,0-.042-.115l-.046-.042a.274.274,0,0,0-.2-.041.917.917,0,0,0-.206.06l.079-.026c-.036.012-.076.024-.112.037a.69.69,0,0,0-.1.049l.06-.031-.026.013,0,0-.057.029-.04.02c-.1.046-.2.088-.3.134a.354.354,0,0,0-.136.083c-.015.021-.031.041-.046.061m.543-.31.007,0Zm-2.378-.2a.235.235,0,0,0,.015.2.372.372,0,0,0,.055.081c.032.04.065.079.1.115a1.4,1.4,0,0,0,.149.129,1.96,1.96,0,0,0,.189.122,1.117,1.117,0,0,0,.1.055l.076.034.076.03c.011,0,.038.013.013,0a.213.213,0,0,0,.176.008.284.284,0,0,0,.14-.111.2.2,0,0,0,.033-.173.27.27,0,0,0-.066-.084,1.183,1.183,0,0,0-.149-.142l-.1-.077a1.474,1.474,0,0,1-.2-.183l-.055-.074a.324.324,0,0,0-.406-.084.308.308,0,0,0-.15.156m-1.732-1.686a.285.285,0,0,0-.094.155.245.245,0,0,0,.062.2.592.592,0,0,0,.078.072l.072.064.148.134c.05.045.1.093.15.136l.088.07.05.04a.515.515,0,0,0,.219.11.229.229,0,0,0,.181-.041.284.284,0,0,0,.117-.159.193.193,0,0,0-.038-.207.282.282,0,0,1-.019-.029c-.038-.048-.086-.1-.125-.142l.044.052a3.292,3.292,0,0,0-.248-.254l-.1-.1a1.32,1.32,0,0,0-.159-.14.364.364,0,0,0-.421.039M695.6,261a.284.284,0,0,0,.256.331,2.176,2.176,0,0,1,.253.037c.081.022.161.049.241.075s.164.071.247.1a.292.292,0,0,0,.292-.068.256.256,0,0,0,.077-.129.165.165,0,0,0-.015-.132.863.863,0,0,0-.223-.195,1.414,1.414,0,0,0-.367-.172,2.192,2.192,0,0,0-.252-.061l-.07-.011-.043,0a.518.518,0,0,0-.131,0h0c-.057.009-.064.012-.03.011a.368.368,0,0,0-.092.031.3.3,0,0,0-.141.179m-2.387.094a.238.238,0,0,0-.018.3.326.326,0,0,0,.313.114.649.649,0,0,0,.2-.054l.046-.02c.022-.01.051-.027.013-.007a.386.386,0,0,1,.057-.021,2.447,2.447,0,0,1,.233-.079c.04-.012.08-.021.121-.031l.052-.009a1.49,1.49,0,0,0,.342-.073.362.362,0,0,0,.181-.107.291.291,0,0,0,.056-.111.191.191,0,0,0-.148-.223,1.363,1.363,0,0,0-.5-.036,3,3,0,0,0-.341.06,1.843,1.843,0,0,0-.3.1c-.045.018-.09.037-.134.058a.6.6,0,0,0-.057.028.523.523,0,0,0-.125.119m-1.643,1.543a.33.33,0,0,0,.187,0,.325.325,0,0,0,.135-.074.951.951,0,0,0,.083-.085c.017-.023.032-.047.049-.07a.988.988,0,0,1,.1-.11c.053-.049.107-.1.164-.142a1.377,1.377,0,0,0,.118-.1c.072-.07.142-.143.215-.212a.208.208,0,0,0,.048-.283.245.245,0,0,0-.3-.026c-.074.036-.148.075-.221.112l.068-.033c-.054.026-.111.052-.164.081s-.1.067-.15.1-.106.074-.156.115a1.537,1.537,0,0,0-.2.189.876.876,0,0,0-.093.133.46.46,0,0,0-.049.186.221.221,0,0,0,.174.214m-.81,1.294a.261.261,0,0,0,.242.082.345.345,0,0,0,.146-.035.172.172,0,0,0,.072-.041.3.3,0,0,0,.085-.09.755.755,0,0,0,.039-.093.876.876,0,0,0,.025-.084,1.4,1.4,0,0,1,.063-.189.884.884,0,0,0,.049-.109c-.01.023-.019.046-.028.069.018-.045.037-.09.056-.135a.522.522,0,0,0,.03-.188.184.184,0,0,0-.121-.162.3.3,0,0,0-.235,0,.457.457,0,0,0-.154.074l-.1.085-.016.015a.558.558,0,0,0-.075.093,1.251,1.251,0,0,0-.08.154,1.4,1.4,0,0,0-.066.161.57.57,0,0,0-.024.141.294.294,0,0,0,.089.249m-.776.56c.022.189.043.379.065.57.035,0,.069,0,.1,0a.948.948,0,0,0,.31-.1.78.78,0,0,0,.177-.112l.065-.059a.245.245,0,0,0,.057-.067.372.372,0,0,1,.062-.082.2.2,0,0,0,.035-.217.167.167,0,0,0-.2-.067c-.091.029-.185.046-.274.081-.061.024-.12.045-.179.071l-.041.017-.061.013h-.01a.052.052,0,0,1-.021,0l-.022,0h.013l-.028-.008-.034-.019-.022-.018" transform="translate(389.212 9456.809)" fill="#37474f"/>
    <path id="Trazado_279804" data-name="Trazado 279804" d="M697.366,298.7a12.935,12.935,0,0,1-8.036,4.859c-3.831.56-8.315.533-9.716-.682s.169-3.212,4.2-6.139,7.569-7.673,8.036-9.817a21.639,21.639,0,0,0,.1-5.239,4.5,4.5,0,0,1,.68,1.247c.632,1.419,1.827,1.35,2.867.364a6.368,6.368,0,0,1,1.367-1.151c.907-.466,1.092.111,1.088.872a13.266,13.266,0,0,1-3.185,8.086,4.989,4.989,0,0,0-1.2,1.986,1.459,1.459,0,0,0,1.047,1.793,1.779,1.779,0,0,0,1.024-.3c1.739-.988,2.881-2.734,4.235-4.2a7.218,7.218,0,0,1,3.955-2.429,11.769,11.769,0,0,1,.38,4.773,6.886,6.886,0,0,1-2.643,2.149,14.523,14.523,0,0,0-4.2,3.831" transform="translate(389.212 9456.809)" fill="#37474f"/>
    <path id="Trazado_279805" data-name="Trazado 279805" d="M689.269,152.189a77.715,77.715,0,0,0-8.595-3.174c-2.034-.528-5.648-.033-8.494.189,0,0-10.936.874-12.93,1.119-1.567.193-3.189.456-4.091.657-.749.167-3.023,1.047-4.028,1.359-1.055.327-2.224.723-3.24,1.157a40.406,40.406,0,0,0-5.573,3.121.763.763,0,0,0-.29.261c-.266.5.6.712.913.689a3.033,3.033,0,0,0,.856-.234c.9-.348,1.644-.83,2.543-1.181l.051-.021c-.083.046-.17.087-.253.135a16.006,16.006,0,0,0-1.377.9,11.9,11.9,0,0,0-2.118,1.925.921.921,0,0,0-.2.313.606.606,0,0,0,.1.514,1.282,1.282,0,0,0,.407.353c-.037-.022-.383.407-.409.454-.23.416.19.669.556.76a1.768,1.768,0,0,0,.935-.042,17.224,17.224,0,0,0,2.1-1.192c.469-.278,1.066-.571,1.595-.85a21.558,21.558,0,0,0-2.616,2.584c-.14.162-.284.373-.209.574a.517.517,0,0,0,.364.275,1.993,1.993,0,0,0,1.419-.194,8.923,8.923,0,0,0,1.217-.813c.714-.515,1.466-.974,2.224-1.419a6.367,6.367,0,0,1,2.265-1.017c.125.136.025.354-.092.5a11.229,11.229,0,0,1-1.082,1.019,2.317,2.317,0,0,0-.773,1.241c-.1.567.208,1.391.891.979l1.67-1.009a12.787,12.787,0,0,0,1.82-1.247c1.046-.909,1.782-1.847,2.873-2.712,1.134-.9,2.4-1.13,4.956-1.13,2.712,0,10.892.481,14.994.906A163.59,163.59,0,0,1,694.5,168.069l5.322-11.983a110.423,110.423,0,0,1-10.554-3.9" transform="translate(389.212 9456.809)" fill="#ffbda7"/>
    <path id="Trazado_279806" data-name="Trazado 279806" d="M642.619,161.257c-.29-.436.243-.834.849-1.288a29.778,29.778,0,0,1,2.938-2.044c.644-.308,2.992-1.457,2.992-1.457s-2.686,1.059-3.355,1.461-1.91,1.323-2.5,1.753-1.426,1.159-.923,1.575" transform="translate(389.212 9456.809)" fill="#f0997a"/>
    <path id="Trazado_279807" data-name="Trazado 279807" d="M646.73,155.724a8.417,8.417,0,0,0-1.533.956c.369-.186.74-.371,1.143-.528a24.244,24.244,0,0,1,2.532-1.159,7.029,7.029,0,0,0-2.142.731" transform="translate(389.212 9456.809)" fill="#f0997a"/>
    <path id="Trazado_279808" data-name="Trazado 279808" d="M647.733,159.4a13.194,13.194,0,0,1,2.308-1.68,6.533,6.533,0,0,0-2.854,1.963Z" transform="translate(389.212 9456.809)" fill="#f0997a"/>
    <path id="Trazado_279809" data-name="Trazado 279809" d="M700.058,155.679c-3.936-1.2-11.149-4.292-12.749-4.785s-5.534-2.787-9.586-2.427-5.453.493-5.453.493,1.935,1.125,1.935,4.679-1.372,4.253-1.372,4.253l4.855.533s5.7,3.05,7.88,4.6,4.82,3.03,6.72,7.111c5.041-3.24,7.735-7.992,7.77-14.459" transform="translate(389.212 9456.809)" fill="#ebebeb"/>
    <path id="Trazado_279810" data-name="Trazado 279810" d="M671.083,149.277l.649-.036s1.806.974,2.23,4.229a5.944,5.944,0,0,1-1.2,4.054l-.962-.067s0,.358.593.715c.643.386,1.737.174,2.389.253s3.076,1.04,4.158-1.7.914-7.335-.622-8.521c-.878-.678-2.025-.32-3.611,0-1.606.324-2.97-.172-3.621,1.076" transform="translate(389.212 9456.809)" fill="#e0e0e0"/>
    <path id="Trazado_279811" data-name="Trazado 279811" d="M721.223,139.3c-.71,1.563-2.453,2.657-5.06,2.912-5.215.509-11.914-2.534-14.962-6.795-1.524-2.131-1.847-4.163-1.137-5.726.431-.949,2.07-4.559,2.5-5.508a6,6,0,0,1,2.769-2.79,3.385,3.385,0,0,1,3.417.1,10.186,10.186,0,0,0,.853.616,3.01,3.01,0,0,0,1.494.28c1.4-.024,2.831-.407,4.185-.045a6.967,6.967,0,0,1,1.45.62,16.726,16.726,0,0,1,5.854,5.1c1.524,2.131,1.846,4.163,1.136,5.726l-2.5,5.508" transform="translate(389.212 9456.809)" fill="#ba68c8"/>
    <g id="Grupo_260991" data-name="Grupo 260991" transform="translate(389.212 9456.809)" opacity="0.2">
      <g id="Grupo_260990" data-name="Grupo 260990">
        <g id="Grupo_260989" data-name="Grupo 260989" clip-path="url(#clip-path-9)">
          <path id="Trazado_279812" data-name="Trazado 279812" d="M707.8,122.187c-.251-.3.345-.621.771-.8.059.035.121.063.178.1a9.976,9.976,0,0,0,.853.617,3.012,3.012,0,0,0,1.494.28c.087,0,.173-.008.26-.012l.006,0c-1.85.169-3.187.264-3.562-.192"/>
        </g>
      </g>
    </g>
    <path id="Trazado_279813" data-name="Trazado 279813" d="M701.2,135.417c-1.524-2.131-1.847-4.163-1.137-5.726s2.453-2.657,5.06-2.912c5.215-.509,11.914,2.534,14.962,6.8,1.524,2.131,1.847,4.163,1.137,5.726s-2.453,2.657-5.06,2.912c-5.215.509-11.914-2.533-14.962-6.795" transform="translate(389.212 9456.809)" fill="#455a64"/>
    <path id="Trazado_279814" data-name="Trazado 279814" d="M698.666,126.1a9.381,9.381,0,0,0-3.325-2.039c-2.838-.608-4.676,2.451-5.118,4.189a19.249,19.249,0,0,0,.145,7.852,20.343,20.343,0,0,0,2.887,6.789,17.234,17.234,0,0,0,7.04,6.379,29.561,29.561,0,0,0,7.163,2.533,51.385,51.385,0,0,0,12.162,1.046c5.311-.057,11.191-2.754,11.466-7.715.235-4.236-1.495-8.036-4.5-11.549a15.983,15.983,0,0,0-10.789-6.046c-2.591-.323-5.1.351-7.627.607-3.234.328-7.039.074-9.505-2.046" transform="translate(389.212 9456.809)" fill="#ba68c8"/>
    <path id="Trazado_279815" data-name="Trazado 279815" d="M698.666,126.1a9.381,9.381,0,0,0-3.325-2.039c-2.838-.608-4.676,2.451-5.118,4.189a19.249,19.249,0,0,0,.145,7.852,20.343,20.343,0,0,0,2.887,6.789,17.234,17.234,0,0,0,7.04,6.379,29.561,29.561,0,0,0,7.163,2.533,51.385,51.385,0,0,0,12.162,1.046c5.311-.057,11.191-2.754,11.466-7.715.235-4.236-1.495-8.036-4.5-11.549a15.983,15.983,0,0,0-10.789-6.046c-2.591-.323-5.1.351-7.627.607-3.234.328-7.039.074-9.505-2.046" transform="translate(389.212 9456.809)" fill="#632059"/>
    <path id="Trazado_279816" data-name="Trazado 279816" d="M720.742,145.223c1.321.8,2.64,1.332,3.111,3.108.183.692.16,1.424.32,2.121a4.1,4.1,0,0,0,6.691,2.168,5.025,5.025,0,0,1-3.38,2.883,5.439,5.439,0,0,1,2.612,5.511,8.923,8.923,0,0,1-3.259,5.453,26.5,26.5,0,0,1-5.555,3.342c.564-2.143.8-4.694-.7-6.321-1.188-1.288-3.073-1.565-4.744-2.09a14.026,14.026,0,0,1-9.705-15.2,5.866,5.866,0,0,1,1.139-3.045c2.38-2.847,6.491-1.385,9.5-.661,1.793.431,1.929,1.3,3.279,2.281.227.165.458.313.689.453" transform="translate(389.212 9456.809)" fill="#37474f"/>
    <path id="Trazado_279817" data-name="Trazado 279817" d="M692.076,188.535c-.272,3.811-1.852,6.172-1.161,9.088a.934.934,0,0,0,.043.1c.218.449,1.3,2.274,4.941,2.965a26.283,26.283,0,0,0,16.44-2.149c7.111-3.589,10.8-3.744,10.8-3.744-.982-1.673-1.915-2.971-2.861-4.329a6,6,0,0,1-1.239-3.511c0-4.062,3.86-7.358,5.873-13.766s-2.942-14.344-2.942-14.344l-6.382-.882-10.235-1.6-5.3-.685s-9.61,13.172-10.543,17.773a8.99,8.99,0,0,0,2.561,7.839,54.36,54.36,0,0,1,0,7.244" transform="translate(389.212 9456.809)" fill="#fafafa"/>
    <path id="Trazado_279818" data-name="Trazado 279818" d="M700.361,156.38l4.895.632,10.246,1.6,6.069.839c.8,1.4,4.425,8.132,2.719,13.541a34.616,34.616,0,0,1-3.322,7.088c-1.385,2.414-2.581,4.5-2.581,6.875,0,.023,0,.046,0,.069.009.086.017.173.025.261a6.45,6.45,0,0,0,1.328,3.556l.351.5c.669.956,1.307,1.87,1.967,2.93a37.349,37.349,0,0,0-10.019,3.679A25.178,25.178,0,0,1,700.9,200.5a26.214,26.214,0,0,1-4.878-.456c-3.325-.631-4.295-2.249-4.478-2.614a9.71,9.71,0,0,1,.423-4.641,23.575,23.575,0,0,0,.765-4.2,54.329,54.329,0,0,0,0-7.342.656.656,0,0,0-.207-.429c-.033-.03-3.211-3.052-2.365-7.228.817-4.024,8.751-15.184,10.2-17.2m-.3-.7s-9.609,13.171-10.543,17.773a8.992,8.992,0,0,0,2.561,7.838,54.377,54.377,0,0,1,0,7.245c-.272,3.811-1.851,6.172-1.16,9.088a.862.862,0,0,0,.042.1c.218.449,1.3,2.274,4.941,2.964a26.813,26.813,0,0,0,5,.468,25.648,25.648,0,0,0,11.44-2.616c7.111-3.589,10.8-3.744,10.8-3.744-.982-1.673-1.916-2.971-2.862-4.329a6,6,0,0,1-1.238-3.511c0-4.062,3.86-7.359,5.872-13.767s-2.941-14.343-2.941-14.343l-6.383-.882-10.235-1.6Z" transform="translate(389.212 9456.809)" fill="#e0e0e0"/>
    <path id="Trazado_279819" data-name="Trazado 279819" d="M701.058,181.818a12.867,12.867,0,0,0,15.4-3.537c-1.249,5.67-9.987,8.323-15.4,3.537" transform="translate(389.212 9456.809)" fill="#ebebeb"/>
    <path id="Trazado_279820" data-name="Trazado 279820" d="M696.513,198.112a29.906,29.906,0,0,1,.3-3.611,30.337,30.337,0,0,1,.734-3.518,16.514,16.514,0,0,0,.4-1.738,8.267,8.267,0,0,0,.027-1.893c-.044-.6-.112-1.2-.122-1.805s.038-1.2.014-1.8a5.023,5.023,0,0,0-.378-1.7,10.451,10.451,0,0,1-.559-1.558c-.481-2.148.232-4.517,1.087-6.481a24.032,24.032,0,0,1,4.106-6.179c.152-.174.515-.052.351.188a43.22,43.22,0,0,0-3.443,5.635,16.117,16.117,0,0,0-1.1,3.008,8.363,8.363,0,0,0-.281,3.447c.188,1.082.823,2.015.963,3.111a11.621,11.621,0,0,1,.032,1.78,16.328,16.328,0,0,0,.061,1.727,10.893,10.893,0,0,1-.194,3.632c-.285,1.139-.6,2.263-.8,3.421a28.6,28.6,0,0,0-.425,3.991c-.023.664-.014,1.326,0,1.99a6.151,6.151,0,0,1-.052,1.809c-.05.173-.336.295-.425.09a5.164,5.164,0,0,1-.275-1.746c-.038-.6-.03-1.205-.016-1.805" transform="translate(389.212 9456.809)" fill="#e0e0e0"/>
    <path id="Trazado_279821" data-name="Trazado 279821" d="M693.094,166.4a113.737,113.737,0,0,1,9.082-10.447l4.064.25c-2.753,2.058-7.723,8.3-10.218,11.866-1.5-.361-2.836-.943-2.928-1.669" transform="translate(389.212 9456.809)" fill="#ba68c8"/>
    <g id="Grupo_260994" data-name="Grupo 260994" transform="translate(389.212 9456.809)" opacity="0.2">
      <g id="Grupo_260993" data-name="Grupo 260993">
        <g id="Grupo_260992" data-name="Grupo 260992" clip-path="url(#clip-path-10)">
          <path id="Trazado_279822" data-name="Trazado 279822" d="M693.094,166.4a113.737,113.737,0,0,1,9.082-10.447l4.064.25c-2.753,2.058-7.723,8.3-10.218,11.866-1.5-.361-2.836-.943-2.928-1.669" fill="#fff"/>
        </g>
      </g>
    </g>
    <path id="Trazado_279823" data-name="Trazado 279823" d="M711.269,170.482a117.73,117.73,0,0,1,6.986-12.175l3.719.535c-2.312,2.544-5.323,8.316-7.095,12.29-1.539-.071-3.382.045-3.61-.65" transform="translate(389.212 9456.809)" fill="#ba68c8"/>
    <g id="Grupo_260997" data-name="Grupo 260997" transform="translate(389.212 9456.809)" opacity="0.2">
      <g id="Grupo_260996" data-name="Grupo 260996">
        <g id="Grupo_260995" data-name="Grupo 260995" clip-path="url(#clip-path-11)">
          <path id="Trazado_279824" data-name="Trazado 279824" d="M711.269,170.482a117.73,117.73,0,0,1,6.986-12.175l3.719.535c-2.312,2.544-5.323,8.316-7.095,12.29-1.539-.071-3.382.045-3.61-.65" fill="#fff"/>
        </g>
      </g>
    </g>
    <path id="Trazado_279825" data-name="Trazado 279825" d="M689.356,200.348c.137-8.07.7-14.728.5-16.563s-1.9-4.745-.992-8.929,4.232-8.456,4.232-8.456,3.109,2.3,9.743,3.131,12.342.926,12.342.926-2.314,12.407-.613,17.569,7.3,5.052,7.3,5.052,1.476,3.751,2.8,6.819c0,0-18.971,8.939-35.307.451" transform="translate(389.212 9456.809)" fill="#ba68c8"/>
    <path id="Trazado_279826" data-name="Trazado 279826" d="M689.356,200.348c.137-8.07.7-14.728.5-16.563s-1.9-4.745-.992-8.929,4.232-8.456,4.232-8.456,3.109,2.3,9.743,3.131,12.342.926,12.342.926-2.314,12.407-.613,17.569,7.3,5.052,7.3,5.052,1.476,3.751,2.8,6.819c0,0-18.971,8.939-35.307.451" transform="translate(389.212 9456.809)" fill="#632059"/>
    <g id="Grupo_261000" data-name="Grupo 261000" transform="translate(389.212 9456.809)" opacity="0.7">
      <g id="Grupo_260999" data-name="Grupo 260999">
        <g id="Grupo_260998" data-name="Grupo 260998" clip-path="url(#clip-path-12)">
          <path id="Trazado_279827" data-name="Trazado 279827" d="M697.377,186.494a5.829,5.829,0,0,1-.919-.058c-2.295-.387-5.581-4.444-6.027-6.124-.816-3.082,1.236-8,1.324-8.212l.113-.267.253.142c.058.032,5.958,3.274,15.488,3.494l.286.006-.034.285c-.006.05-.6,5.042-.623,7.247a1.592,1.592,0,0,1-.67,1.185c-1.784,1.493-6.764,2.3-9.191,2.3m-5.248-13.93c-.412,1.06-1.864,5.092-1.2,7.615.408,1.537,3.525,5.393,5.611,5.744,1.622.273,7.768-.52,9.69-2.13a1.115,1.115,0,0,0,.485-.791c.019-1.953.465-5.919.593-7.021a37.627,37.627,0,0,1-15.183-3.417" fill="#ba68c8"/>
        </g>
      </g>
    </g>
    <path id="Trazado_279828" data-name="Trazado 279828" d="M699.544,140.229a11.469,11.469,0,0,0,1.319.955,8.106,8.106,0,0,1,1.2,1.066,18.476,18.476,0,0,0,2.6,2.06,20.274,20.274,0,0,0,6.16,2.74,14.765,14.765,0,0,0,4.328.477,6.748,6.748,0,0,0,4.716-1.816c.3-.484.608-.989.9-1.505.511-1.51.181-3.413-1.127-5.442-2.956-4.571-9.751-8.059-15.189-7.786-3.32.166-6.1,2.07-6.463,5.546a4.513,4.513,0,0,0,.024,1.308,4.149,4.149,0,0,0,1.268,2.16c.084.082.171.16.26.237" transform="translate(389.212 9456.809)" fill="#37474f"/>
    <path id="Trazado_279829" data-name="Trazado 279829" d="M698.274,138.784c.079,1.074-.447,2.708-.518,4.713-.266,7.578,1.917,8.911,3.935,9.877a7.645,7.645,0,0,0,3.825.732l-.1,2.866s-2.009,2.268-2.3,8.468c10.151-4.561,12.4-7.981,12.408-7.994l.557-8.236a2.41,2.41,0,0,0,2.582.08c2.069-1.111,3.3-4.165,2-5.812a2.362,2.362,0,0,0-4.048.115c-.906,1.388-2.332.857-1.623-1.276-.03.09-.961-.787-1.019-.875-.809-1.225-.335-2.728-.272-4.08a4.991,4.991,0,0,0-.178-1.872,2.013,2.013,0,0,0-1.258-1.316,3.349,3.349,0,0,0-2.379.614,11.712,11.712,0,0,1-3.093,1.174,6.453,6.453,0,0,1-3.28-.124,2.79,2.79,0,0,0,2.464-1.42c-1.093.759-2.505.817-3.79,1.164-1.46.393-4.057,1.321-3.918,3.2" transform="translate(389.212 9456.809)" fill="#ffbda7"/>
    <path id="Trazado_279830" data-name="Trazado 279830" d="M707.666,146.621l-3.545,1.11a1.783,1.783,0,0,0,2.265,1.253,1.953,1.953,0,0,0,1.28-2.363" transform="translate(389.212 9456.809)" fill="#b16668"/>
    <path id="Trazado_279831" data-name="Trazado 279831" d="M705.572,149.04a1.649,1.649,0,0,1,2.114-1.528,1.934,1.934,0,0,1-1.3,1.472,1.786,1.786,0,0,1-.814.056" transform="translate(389.212 9456.809)" fill="#ffa8a7"/>
    <path id="Trazado_279832" data-name="Trazado 279832" d="M705.787,139.252l-1.126,6.236-3.257-1.464Z" transform="translate(389.212 9456.809)" fill="#f0997a"/>
    <path id="Trazado_279833" data-name="Trazado 279833" d="M705.517,154.106c2.438-.05,7.678-1.2,9.057-4.383,0,0-.27,2.3-3.315,3.977a15.674,15.674,0,0,1-5.77,1.5Z" transform="translate(389.212 9456.809)" fill="#f0997a"/>
    <path id="Trazado_279834" data-name="Trazado 279834" d="M707.321,141.307a1.076,1.076,0,1,0,1.014-1.135,1.077,1.077,0,0,0-1.014,1.135" transform="translate(389.212 9456.809)" fill="#263238"/>
    <path id="Trazado_279835" data-name="Trazado 279835" d="M700.156,140.735a1.076,1.076,0,1,0,.851-1.262,1.078,1.078,0,0,0-.851,1.262" transform="translate(389.212 9456.809)" fill="#263238"/>
    <path id="Trazado_279836" data-name="Trazado 279836" d="M701.161,136.819a1.28,1.28,0,0,1,1.511,1l-2.509.514a1.281,1.281,0,0,1,1-1.512" transform="translate(389.212 9456.809)" fill="#37474f"/>
    <path id="Trazado_279837" data-name="Trazado 279837" d="M709.421,137.822a1.293,1.293,0,0,1,.623,1.719l-2.343-1.1a1.294,1.294,0,0,1,1.72-.623" transform="translate(389.212 9456.809)" fill="#37474f"/>
    <path id="Trazado_279838" data-name="Trazado 279838" d="M715.713,154.751a1.507,1.507,0,0,1,1.219,1.5c-.048.663,1.159.721,1.292,1.567.568,4.74-4.758,10.521-18.438,15.043-1.637-6.093,1.7-14.736,2.7-15.889a2.57,2.57,0,0,1,1.856-1.1,1.335,1.335,0,0,1,1.168-1.286l-.048,1.294a2.611,2.611,0,0,0,2.277,2.906,7.914,7.914,0,0,0,7.926-3.247Z" transform="translate(389.212 9456.809)" fill="#ba68c8"/>
    <g id="Grupo_261003" data-name="Grupo 261003" transform="translate(389.212 9456.809)" opacity="0.15">
      <g id="Grupo_261002" data-name="Grupo 261002">
        <g id="Grupo_261001" data-name="Grupo 261001" clip-path="url(#clip-path-13)">
          <path id="Trazado_279839" data-name="Trazado 279839" d="M715.8,157.526c.015-.028-.023-.109-.048-.069a7.673,7.673,0,0,1-2.306,2.388,11.083,11.083,0,0,1-6.148,1.684,3.412,3.412,0,0,1-2.8-1.155,5.049,5.049,0,0,1-.65-3.337c0-.007-.012-.019-.013-.008a5.336,5.336,0,0,0,.684,3.775,3.4,3.4,0,0,0,2.771,1.083,11.81,11.81,0,0,0,3.778-.512,8.014,8.014,0,0,0,4.734-3.849m-9.884,7.865a4.11,4.11,0,0,0,1.3.081,9.739,9.739,0,0,0,1.393-.169,10.4,10.4,0,0,0,2.555-.847,9.423,9.423,0,0,0,3.962-3.52c.01-.018-.012-.064-.029-.041a10.875,10.875,0,0,1-4.22,3.385,10.114,10.114,0,0,1-2.4.738,9.977,9.977,0,0,1-1.194.131c-.443.023-.89-.011-1.332.026-.088.007-.114.19-.026.216m-2.057-2.069a6.315,6.315,0,0,0,4.162.206c.05-.01.04-.122-.011-.116a7.512,7.512,0,0,1-3.836-.264,2.963,2.963,0,0,1-1.389-1.159,3.972,3.972,0,0,1-.413-1.881c0-.023-.036-.048-.038-.013a3.292,3.292,0,0,0,1.525,3.227"/>
        </g>
      </g>
    </g>
    <g id="Grupo_261006" data-name="Grupo 261006" transform="translate(389.212 9456.809)" opacity="0.15">
      <g id="Grupo_261005" data-name="Grupo 261005">
        <g id="Grupo_261004" data-name="Grupo 261004" clip-path="url(#clip-path-14)">
          <path id="Trazado_279840" data-name="Trazado 279840" d="M716.229,161.157a.954.954,0,0,0-.142-.441,1.73,1.73,0,0,0-.33-.29c-.22-.182-.377-.428-.59-.618a.77.77,0,0,0-.781-.21,3.331,3.331,0,0,0-.182-1.334,1.37,1.37,0,0,0-.628-.692,8.028,8.028,0,0,0,2.083-2.039l.053-.783a1.506,1.506,0,0,1,1.219,1.5c-.047.663,1.16.721,1.293,1.567.236,1.973-.554,4.127-2.539,6.3a5.354,5.354,0,0,0,.544-2.957"/>
        </g>
      </g>
    </g>
    <path id="Trazado_279841" data-name="Trazado 279841" d="M715.908,199.169a2.543,2.543,0,0,1-.907.9l-1.117.645c-1.214.7-3.117.565-5.2-.544-3.421-1.819-6.033-5.569-5.833-8.375a2.765,2.765,0,0,1,1.344-2.326c.192-.112.952-.549,1.14-.659,1.214-.7,3.121-.571,5.211.54a12.3,12.3,0,0,1,4.245,3.778,8.08,8.08,0,0,1,1.59,4.16,4.5,4.5,0,0,1-.078.776,3.181,3.181,0,0,1-.319.975c-.023.044-.047.087-.073.128" transform="translate(389.212 9456.809)" fill="#ba68c8"/>
    <g id="Grupo_261009" data-name="Grupo 261009" transform="translate(389.212 9456.809)" opacity="0.4">
      <g id="Grupo_261008" data-name="Grupo 261008">
        <g id="Grupo_261007" data-name="Grupo 261007" clip-path="url(#clip-path-15)">
          <path id="Trazado_279842" data-name="Trazado 279842" d="M715.908,199.169a2.543,2.543,0,0,1-.907.9l-1.117.645c-1.214.7-3.117.565-5.2-.544-3.421-1.819-6.033-5.569-5.833-8.375a2.765,2.765,0,0,1,1.344-2.326c.192-.112.952-.549,1.14-.659,1.214-.7,3.121-.571,5.211.54a12.3,12.3,0,0,1,4.245,3.778,8.08,8.08,0,0,1,1.59,4.16,4.5,4.5,0,0,1-.078.776,3.181,3.181,0,0,1-.319.975c-.023.044-.047.087-.073.128"/>
        </g>
      </g>
    </g>
    <path id="Trazado_279843" data-name="Trazado 279843" d="M714.855,199.739a2.626,2.626,0,0,1-.638.752,3.755,3.755,0,0,1-2.91.6,8.206,8.206,0,0,1-2.626-.913c-3.421-1.819-6.032-5.569-5.833-8.375s3.134-3.606,6.555-1.787a12.253,12.253,0,0,1,3.3,2.6,10.734,10.734,0,0,1,2.095,3.3c.109.283.22.569.3.862.048.174.1.348.127.525a3.79,3.79,0,0,1-.377,2.436" transform="translate(389.212 9456.809)" fill="#ba68c8"/>
    <g id="Grupo_261012" data-name="Grupo 261012" transform="translate(389.212 9456.809)" opacity="0.2">
      <g id="Grupo_261011" data-name="Grupo 261011">
        <g id="Grupo_261010" data-name="Grupo 261010" clip-path="url(#clip-path-16)">
          <path id="Trazado_279844" data-name="Trazado 279844" d="M714.855,199.739a2.626,2.626,0,0,1-.638.752,3.755,3.755,0,0,1-2.91.6,8.206,8.206,0,0,1-2.626-.913c-3.421-1.819-6.032-5.569-5.833-8.375s3.134-3.606,6.555-1.787a12.253,12.253,0,0,1,3.3,2.6,10.734,10.734,0,0,1,2.095,3.3c.109.283.22.569.3.862.048.174.1.348.127.525a3.79,3.79,0,0,1-.377,2.436"/>
        </g>
      </g>
    </g>
    <path id="Trazado_279845" data-name="Trazado 279845" d="M711.621,201.6c-1.084.72-2.923.578-4.979-.56-3.212-1.776-5.735-5.3-5.635-7.879a2.334,2.334,0,0,1,1.31-2.173l2.384-1.12h0c1.071-.493,2.706-.288,4.515.713,3.109,1.72,5.552,5.135,5.456,7.629a2.337,2.337,0,0,1-.91,1.893Z" transform="translate(389.212 9456.809)" fill="#37474f"/>
    <path id="Trazado_279846" data-name="Trazado 279846" d="M700.8,193.025a1.744,1.744,0,0,1,.293-.342l-.382-.11a3.8,3.8,0,0,1,.945-1.123,2.527,2.527,0,0,1,1.478-.732c.51-.074,1.024.11,1.506-.127a.3.3,0,0,0,.229.36.959.959,0,0,0,.475-.05.708.708,0,0,1,.474-.008c-.13.041-.14.241-.043.336a.479.479,0,0,0,.381.1,1.253,1.253,0,0,1,.405,0c-.127.046-.135.243-.04.339a.489.489,0,0,0,.379.105,1.237,1.237,0,0,1,.4,0,.2.2,0,0,0-.008.264.5.5,0,0,0,.246.149,2.319,2.319,0,0,0,1.065.1c-.167.022-.216.265-.118.4a.744.744,0,0,0,.435.233l.579.157a.615.615,0,0,0,.318.792,4.614,4.614,0,0,0,.916.263.557.557,0,0,0,.3.989c.152.015.348-.012.417.124a.411.411,0,0,1,.024.175.82.82,0,0,0,.827.765c-.144.276-.279.717.083.9a.824.824,0,0,0,.352.063,1.259,1.259,0,0,0-.227.38.516.516,0,0,0,.031.43.329.329,0,0,0,.385.142c-.127.231-.362.433-.342.7a.406.406,0,0,0,.437.358c-.336.319-.31.692-.456,1.089a2.827,2.827,0,0,1-.633,1.113,2.308,2.308,0,0,1-.782.492,8.848,8.848,0,0,1-1,.471.27.27,0,0,1-.218-.011c-.063-.042-.063-.162.011-.176a3.242,3.242,0,0,1-.791.089.268.268,0,0,0,.087-.232,1.658,1.658,0,0,1-1.255.164.814.814,0,0,0,.36-.332c-.3.076-.662.133-.863-.1a.343.343,0,0,0-.111-.107.591.591,0,0,0-.147-.016.231.231,0,0,1-.124-.374,1.831,1.831,0,0,1-1.131-.116.23.23,0,0,0-.007-.454c-.14-.022-.325.071-.4-.048-.029-.045-.027-.106-.061-.149-.052-.066-.155-.049-.239-.056a.37.37,0,0,1-.32-.424.429.429,0,0,1-.4-.609,2.33,2.33,0,0,1-1.065-.153,1.022,1.022,0,0,0,.3-.44,1.019,1.019,0,0,1-.509-.074.35.35,0,0,1-.182-.433l-.511-.116c.029-.158.059-.316.088-.474a.222.222,0,0,0,0-.142.2.2,0,0,0-.2-.071.777.777,0,0,0-.567.35,1.591,1.591,0,0,1,.087-1.313.876.876,0,0,0-.546-.114.774.774,0,0,1,.087-.472c-.154.084-.346-.087-.353-.262a.784.784,0,0,1,.208-.472,2.636,2.636,0,0,1-.985-.411,1.114,1.114,0,0,0,.7-.8.314.314,0,0,1-.142-.536l-.316-.05a1.712,1.712,0,0,1,.178-.355" transform="translate(389.212 9456.809)" fill="#455a64"/>
    <path id="Trazado_279847" data-name="Trazado 279847" d="M709.247,191.463c.086-.043.207-.077.26-.164.019-.033-.009-.052-.041-.048a.982.982,0,0,0-.356.147c-.1.054-.2.109-.3.165s-.2.113-.3.174c-.053.033-.1.067-.157.1a.262.262,0,0,0-.1.1c-.01.02.006.028.022.027h0a.79.79,0,0,0,.23-.1c.047-.025.094-.049.14-.075.1-.056.2-.111.3-.165s.2-.107.306-.159m-.363.654a1.725,1.725,0,0,0,.51-.291c.077-.06.151-.122.228-.182a.911.911,0,0,0,.217-.2c.019-.029-.011-.05-.039-.043a.679.679,0,0,0-.168.062,1.228,1.228,0,0,0-.117.088c-.071.056-.14.115-.211.172a1.678,1.678,0,0,1-.473.3c-.026.01-.056.038-.039.068s.064.029.092.02m1.1,1.189a1.539,1.539,0,0,0,.282-.153L710.5,193l.246-.156c.069-.043.187-.09.2-.181.005-.032-.031-.047-.057-.046a.565.565,0,0,0-.292.137l-.235.156-.234.156a1.164,1.164,0,0,0-.225.176c-.049.053.04.075.079.06m-1.874-2.443a.821.821,0,0,0,.291-.181c.025-.03-.015-.048-.04-.045a1.239,1.239,0,0,0-.4.147c-.124.062-.246.126-.367.193s-.236.134-.351.206c-.088.056-.216.112-.266.207-.016.03.025.047.048.042a1.509,1.509,0,0,0,.389-.2c.111-.063.223-.127.336-.187s.236-.125.356-.183m-1.74-.648a1.145,1.145,0,0,0,.353-.157c.025-.021.016-.057-.019-.055a1.461,1.461,0,0,0-.425.109c-.126.044-.252.09-.377.137s-.249.1-.373.145c-.065.026-.128.053-.192.082a.309.309,0,0,0-.138.088.031.031,0,0,0,.029.051,1.228,1.228,0,0,0,.391-.123c.124-.049.249-.1.374-.142s.251-.091.377-.135m.7-.075a1.586,1.586,0,0,0,.355-.155c.036-.026,0-.055-.032-.051a1.626,1.626,0,0,0-.376.124c-.125.05-.249.1-.372.157-.255.115-.5.246-.747.384-.07.04-.008.1.051.07.24-.132.486-.252.735-.364.128-.058.256-.113.386-.165m6.1,8.422a.862.862,0,0,0,.249-.221c.079-.094.159-.189.236-.286l.234-.291a1.5,1.5,0,0,0,.12-.156.618.618,0,0,0,.094-.173c.01-.043-.063-.041-.084-.029a1.018,1.018,0,0,0-.255.248l-.235.288c-.079.1-.156.194-.233.292a2.372,2.372,0,0,1-.224.265.04.04,0,0,0,.005.065.094.094,0,0,0,.093,0m-.233-.68a3.4,3.4,0,0,0,.567-.326c.081-.054.161-.11.241-.166a1.166,1.166,0,0,0,.119-.09.374.374,0,0,0,.1-.107c.017-.039-.038-.043-.062-.037a1,1,0,0,0-.268.154c-.084.056-.168.112-.254.165s-.178.112-.268.167-.177.1-.258.164c-.063.048.039.1.084.076m-1.284-2.92a.609.609,0,0,0,.217-.246c.052-.085.095-.176.147-.262s.111-.172.172-.253c.032-.042.066-.082.1-.125a.316.316,0,0,0,.079-.135c.008-.049-.062-.049-.091-.038a.653.653,0,0,0-.24.233c-.062.08-.12.163-.174.248s-.1.17-.151.258a1.388,1.388,0,0,1-.076.136c-.028.043-.066.079-.093.122-.044.069.074.081.113.062m-.016-.794a5.377,5.377,0,0,0,.444-.462c.022-.026-.018-.027-.033-.015l-.005,0c.01-.014.023-.027.033-.041.02-.031-.032-.025-.045-.016a2.324,2.324,0,0,0-.255.222c-.093.086-.191.164-.281.252s-.157.154-.237.229c-.057.053-.168.113-.182.194a.013.013,0,0,0,.015.016.147.147,0,0,0,.035-.008.048.048,0,0,0,.041,0,1.58,1.58,0,0,0,.47-.377m.862,2.365a.464.464,0,0,0,.328-.183c.1-.1.185-.205.275-.309s.182-.214.271-.323l.141-.175c.038-.048.1-.1.1-.162s-.059-.064-.1-.049a.391.391,0,0,0-.158.144l-.124.152-.261.314c-.086.1-.171.208-.261.309a1.225,1.225,0,0,1-.142.137c-.036.031-.089.054-.1.1-.008.025.009.042.034.044" transform="translate(389.212 9456.809)" fill="#263238"/>
    <path id="Trazado_279848" data-name="Trazado 279848" d="M721.771,189.34a63.523,63.523,0,0,0,9.954-3.16s-7.155-7.876-10.033-10.77c-3.322-7.962-2.134-12.191.419-16.126,5.519,1.742,6.295,2.393,9.676,7.211,2.872,4.094,9.314,12.463,11.877,17.806,1.582,3.295,1.749,7.178-1.756,8.64-4.838,2.018-9.7,2.279-17.954,2.981Z" transform="translate(389.212 9456.809)" fill="#ffbda7"/>
    <path id="Trazado_279849" data-name="Trazado 279849" d="M730.758,185.163l.968,1.017c3.486-1.566,8-1.429,9.3-.452-2-2.486-5.776-2.489-10.266-.565" transform="translate(389.212 9456.809)" fill="#f28f8f"/>
    <path id="Trazado_279850" data-name="Trazado 279850" d="M706.041,194.253a2.288,2.288,0,0,0,1.711-1.218s.541-.658.949-1.233c.072-.1.128-.185.173-.256.223-.348.224-.428.484-.566a1.681,1.681,0,0,1,.4-.13,4.816,4.816,0,0,0,.665-.189c.539-.2.677-.2.879-.023,0,0-.386.359-.766.71l-.653.606a.437.437,0,0,0-.116.17,1.589,1.589,0,0,0,.171,1.187,8,8,0,0,0,.8,1.568,1.861,1.861,0,0,0,1.283.474s.346.4.565.684.439.524,1.149.346a5.058,5.058,0,0,0,1.461-.4.551.551,0,0,0,.112-.223c.144-.717-.436-.79-1.489-.975a1.964,1.964,0,0,0,.533-.806.987.987,0,0,0,.375.033c.122-.009.325-.115.436-.094s.253.212.324.3a9.391,9.391,0,0,1,.511.793,3.249,3.249,0,0,0,2.262,1.461,7.23,7.23,0,0,0,1.521.052c.533-.052,1.049-.191,1.575-.283,1.913-.336,5.6-.542,5.6-.542,1.007-1.623.415-5.713-2.225-7.088-3.194.718-4.146,1.261-6.256.083-1.228-.684-2.958-1.549-3.66-2.006a2.457,2.457,0,0,0-2.25-.39,19.16,19.16,0,0,1-3.646.388.862.862,0,0,0-.386.078c-.456.2-.862.784-1.611,1.518a6.35,6.35,0,0,1-1.478,1c-.527.286-.951.5-.993.741-.082.464.426,1.117,1.533.822a6.03,6.03,0,0,0,1.155-.449,5.322,5.322,0,0,0,.49-.27l-.285.406c-.278.4-.675.973-.8,1.182-.2.333-.629,1.276-.946,1.871-.17.319-.141.654.459.67m6.466-1.647c.1-.007.184.028.174.111a.087.087,0,0,1-.009.042,8.713,8.713,0,0,1-.5.953c-.024.048-.053.092-.079.137-.053-.029-.139-.061-.232-.111a1.131,1.131,0,0,1-.155-.332c-.027-.078-.055-.162-.09-.244.2-.11.577-.413.72-.5a.377.377,0,0,1,.17-.052" transform="translate(389.212 9456.809)" fill="#ffbda7"/>
    <path id="Trazado_279851" data-name="Trazado 279851" d="M705.969,190.845a1.346,1.346,0,0,1-1.277-.183,2.2,2.2,0,0,0,1.988-.419,12.644,12.644,0,0,0,1.412-1.487,3.621,3.621,0,0,1,1.779-.656c.58-.1,1.616-.3,2.3-.4a7.234,7.234,0,0,1-1.688.6,7.683,7.683,0,0,0-2.021.69,6.729,6.729,0,0,0-.852,1.137,6.7,6.7,0,0,1-1.644.72" transform="translate(389.212 9456.809)" fill="#f0997a"/>
    <path id="Trazado_279852" data-name="Trazado 279852" d="M710.513,190.626h0s1.256-.746,1.394-1.2a1.708,1.708,0,0,1-.607,1.217c-.193-.166-.328-.176-.786-.013" transform="translate(389.212 9456.809)" fill="#f0997a"/>
    <path id="Trazado_279853" data-name="Trazado 279853" d="M712.336,192.657a2.524,2.524,0,0,0,.584-1.61,1.915,1.915,0,0,1-.247,1.712c.07-.17-.193-.193-.337-.1" transform="translate(389.212 9456.809)" fill="#f0997a"/>
    <path id="Trazado_279854" data-name="Trazado 279854" d="M713.975,194.264a.664.664,0,0,0-.076-.861.589.589,0,0,1,.445.574,1.966,1.966,0,0,1-.536.81,2.217,2.217,0,0,0-.939.256c.236-.391.871-.442,1.106-.779" transform="translate(389.212 9456.809)" fill="#f0997a"/>
    <path id="Trazado_279855" data-name="Trazado 279855" d="M711.5,195.292a1,1,0,0,1-.083-.649,1.928,1.928,0,0,1,.529-.865c.057.028.11.051.146.07-.334.733-.514.878-.081,1.5a2.7,2.7,0,0,1-.511-.06" transform="translate(389.212 9456.809)" fill="#f0997a"/>
    <path id="Trazado_279856" data-name="Trazado 279856" d="M712.652,188.22c-.014-.025.01-.064.035-.1a1.232,1.232,0,0,1,.178-.183.918.918,0,0,1,.136-.113.866.866,0,0,1,.223-.1c.266-.076.567.155.755.325.065.059.121.144-.013.12a2.312,2.312,0,0,0-.592-.108,1.418,1.418,0,0,0-.191.042.537.537,0,0,0-.138.028c-.033.016-.059.04-.094.055a.488.488,0,0,1-.25.059.06.06,0,0,1-.049-.023" transform="translate(389.212 9456.809)" fill="#f0997a"/>
    <path id="Trazado_279857" data-name="Trazado 279857" d="M713.2,189.865c-.018-.022,0-.064.019-.1a1.316,1.316,0,0,1,.148-.208.927.927,0,0,1,.118-.132.871.871,0,0,1,.2-.135c.253-.116.585.067.8.207.073.048.141.123.005.12a2.337,2.337,0,0,0-.6-.017,1.546,1.546,0,0,0-.182.07.6.6,0,0,0-.133.049c-.029.021-.052.049-.084.069a.5.5,0,0,1-.238.1.064.064,0,0,1-.052-.016" transform="translate(389.212 9456.809)" fill="#f0997a"/>
    <path id="Trazado_279858" data-name="Trazado 279858" d="M713.711,192.269c-.021-.019-.012-.063,0-.1a1.193,1.193,0,0,1,.108-.232.908.908,0,0,1,.092-.152.831.831,0,0,1,.176-.169c.227-.16.587-.041.821.059.081.034.161.1.027.117a2.374,2.374,0,0,0-.595.092,1.448,1.448,0,0,0-.167.1.509.509,0,0,0-.121.072c-.025.026-.042.057-.07.083a.5.5,0,0,1-.217.138.059.059,0,0,1-.054-.006" transform="translate(389.212 9456.809)" fill="#f0997a"/>
    <path id="Trazado_279859" data-name="Trazado 279859" d="M721.974,158.842c3.839.849,5.636,1.16,9.662,6.551s10.272,15.358,10.272,15.358c-1.788,3.407-7.948,5.811-11.265,4.643L720.591,174.9s-4.84-10.689,1.383-16.06" transform="translate(389.212 9456.809)" fill="#ebebeb"/>
    <path id="Trazado_279860" data-name="Trazado 279860" d="M739.564,177.072l.392.61s-.863,2.295-4.408,4.021a16.74,16.74,0,0,1-6.833,1.679l-.646-.674a1.073,1.073,0,0,0-.155.889c.275.787,1.642,1.031,1.746,1.813s1.136,1.589,4.651,2.022,8.1-1.453,8.884-3.647c.178-.5.168-1.76-.983-3.358s-.759-4.357-2.648-3.355" transform="translate(389.212 9456.809)" fill="#e0e0e0"/>
  </g>
</svg>
