<svg xmlns="http://www.w3.org/2000/svg" xmlns:xlink="http://www.w3.org/1999/xlink" width="190" height="136" viewBox="0 0 190 136">
  <defs>
    <linearGradient id="linear-gradient" x1="0.5" x2="0.5" y2="1" gradientUnits="objectBoundingBox">
      <stop offset="0" stop-color="#f9fef5"/>
      <stop offset="1" stop-color="#e7f7f8"/>
    </linearGradient>
    <clipPath id="clip-path">
      <rect id="Rectángulo_326208" data-name="Rectángulo 326208" width="39.582" height="80.016" fill="none"/>
    </clipPath>
    <clipPath id="clip-path-2">
      <rect id="Rectángulo_326210" data-name="Rectángulo 326210" width="72.892" height="67.031" fill="none"/>
    </clipPath>
  </defs>
  <g id="Grupo_1075884" data-name="Grupo 1075884" transform="translate(-180 -11118.811)">
    <rect id="Rectángulo_378349" data-name="Rectángulo 378349" width="190" height="136" transform="translate(180 11118.811)" fill="url(#linear-gradient)"/>
    <g id="Grupo_262356" data-name="Grupo 262356" transform="translate(0 -574)">
      <rect id="Rectángulo_326302" data-name="Rectángulo 326302" width="190" height="99" transform="translate(180 11704.811)" fill="none"/>
      <g id="Grupo_262167" data-name="Grupo 262167" transform="translate(202.438 11717.302)">
        <g id="Grupo_262159" data-name="Grupo 262159" clip-path="url(#clip-path)">
          <path id="Trazado_280623" data-name="Trazado 280623" d="M8.582,57.044a1.289,1.289,0,0,0-1.821-.284L.517,61.43A1.288,1.288,0,0,0,2.06,63.494l5.188-3.881,8.865,12.441v6.674a1.288,1.288,0,0,0,2.577,0V75.271L34.132,53.345l3.381,2.572a1.288,1.288,0,1,0,1.56-2.051l-4.445-3.382a1.288,1.288,0,0,0-1.834.283L18.69,70.8V50.062a6.03,6.03,0,0,0,3.98,1.228,14.955,14.955,0,0,0,5.931-1.4c4.589-2.062,6.4-7.63,6.475-7.866a1.288,1.288,0,0,0-.7-1.566,16.189,16.189,0,0,0-5.955-1.228,10.246,10.246,0,0,0-4.226.846A14.506,14.506,0,0,0,18.943,43.9c-.093.113-.169.227-.253.34V38.175A6.03,6.03,0,0,0,22.67,39.4a14.949,14.949,0,0,0,5.931-1.4c4.589-2.062,6.4-7.63,6.475-7.866a1.288,1.288,0,0,0-.7-1.566,16.2,16.2,0,0,0-5.955-1.228,10.246,10.246,0,0,0-4.226.846,14.506,14.506,0,0,0-5.248,3.822c-.093.113-.169.227-.253.34V26.288a6.03,6.03,0,0,0,3.98,1.228,14.954,14.954,0,0,0,5.931-1.4c4.589-2.062,6.4-7.63,6.475-7.866a1.288,1.288,0,0,0-.7-1.566,16.2,16.2,0,0,0-5.955-1.228,10.246,10.246,0,0,0-4.226.846,14.505,14.505,0,0,0-5.248,3.821c-.093.113-.169.227-.253.341V18.726c2.492-.859,4.258-4.557,4.258-9.268,0-5.03-4.336-8.965-4.521-9.13a1.289,1.289,0,0,0-1.718,0c-.185.165-4.521,4.1-4.521,9.13,0,4.5,1.611,8.062,3.925,9.125v1.453a14.605,14.605,0,0,0-5.168-3.731,10.252,10.252,0,0,0-4.226-.846A16.2,16.2,0,0,0,.764,16.687a1.289,1.289,0,0,0-.7,1.566c.075.236,1.886,5.8,6.475,7.866a14.952,14.952,0,0,0,5.931,1.4,6.421,6.421,0,0,0,3.648-.959v5.367a14.6,14.6,0,0,0-5.168-3.731,10.246,10.246,0,0,0-4.226-.846A16.2,16.2,0,0,0,.764,28.575a1.289,1.289,0,0,0-.7,1.566c.075.236,1.886,5.8,6.475,7.866a14.951,14.951,0,0,0,5.931,1.4h0a6.42,6.42,0,0,0,3.647-.959V43.81a14.6,14.6,0,0,0-5.168-3.73,10.246,10.246,0,0,0-4.226-.846A16.192,16.192,0,0,0,.764,40.462a1.289,1.289,0,0,0-.7,1.566c.075.236,1.886,5.8,6.475,7.866a14.957,14.957,0,0,0,5.931,1.4h0a6.42,6.42,0,0,0,3.647-.959V67.613ZM20.94,45.53a12.08,12.08,0,0,1,4.308-3.1,7.694,7.694,0,0,1,3.17-.62,13.258,13.258,0,0,1,3.736.591,14.649,14.649,0,0,1-.752,1.418,9.275,9.275,0,0,1-3.856,3.725,12.34,12.34,0,0,1-4.875,1.169c-1.322,0-2.3-.347-2.55-.905-.227-.506.087-1.378.82-2.277m0-11.887a12.081,12.081,0,0,1,4.308-3.1,7.7,7.7,0,0,1,3.17-.62,13.268,13.268,0,0,1,3.734.59c-.693,1.5-2.177,4.052-4.606,5.143a12.341,12.341,0,0,1-4.875,1.169c-1.322,0-2.3-.347-2.55-.905-.227-.506.087-1.378.82-2.277m0-11.887a12.08,12.08,0,0,1,4.308-3.1,7.694,7.694,0,0,1,3.17-.62,13.257,13.257,0,0,1,3.736.591,14.647,14.647,0,0,1-.752,1.418,9.272,9.272,0,0,1-3.856,3.724,12.335,12.335,0,0,1-4.875,1.169c-1.322,0-2.3-.347-2.55-.905-.227-.506.087-1.378.82-2.277m-5.923,2.277c-.251.558-1.229.905-2.551.905a12.338,12.338,0,0,1-4.875-1.169c-2.43-1.092-3.914-3.647-4.607-5.145a13.208,13.208,0,0,1,3.735-.588,7.7,7.7,0,0,1,3.17.62,12.085,12.085,0,0,1,4.308,3.1c.733.9,1.047,1.772.82,2.277m0,11.887c-.251.558-1.228.905-2.551.905a12.344,12.344,0,0,1-4.875-1.169c-2.429-1.092-3.913-3.645-4.606-5.143a13.256,13.256,0,0,1,3.734-.59,7.7,7.7,0,0,1,3.17.62,12.081,12.081,0,0,1,4.308,3.1c.733.9,1.047,1.771.82,2.277m0,11.887c-.251.558-1.228.905-2.551.905a12.343,12.343,0,0,1-4.875-1.169C5.161,46.452,3.677,43.9,2.984,42.4a13.209,13.209,0,0,1,3.735-.588,7.694,7.694,0,0,1,3.17.62,12.08,12.08,0,0,1,4.308,3.1c.733.9,1.047,1.771.82,2.277M14.765,9.458c0-2.664,1.723-5.065,2.8-6.311a14.619,14.619,0,0,1,.985,1.267,9.274,9.274,0,0,1,1.817,5.044c0,4.2-1.66,6.881-2.8,6.881s-2.8-2.681-2.8-6.881" transform="translate(0 0)" fill="#3b5620"/>
        </g>
      </g>
      <g id="Grupo_262166" data-name="Grupo 262166" transform="translate(285 11723.794)">
        <g id="Grupo_262165" data-name="Grupo 262165" clip-path="url(#clip-path-2)">
          <path id="Trazado_280648" data-name="Trazado 280648" d="M72.85,10.639A23.022,23.022,0,0,0,69.937.633a1.345,1.345,0,0,0-2.487.712c0,.677-.953,1.539-2.548,2.306A18.549,18.549,0,0,1,61.84,4.77c-8.229,1.179-12.979,7.58-14.583,10.162A32.528,32.528,0,0,0,36.5,13.13h-.1a32.528,32.528,0,0,0-10.759,1.8C24.03,12.35,19.277,5.946,11.046,4.769,8.732,4.187,5.441,2.651,5.441,1.345A1.345,1.345,0,0,0,2.955.633,23.016,23.016,0,0,0,.042,10.639c-.32,5.247,1.061,13,9.295,20.463a19.77,19.77,0,0,0-.711,4.967c-.753,1.848-4.646,12.409.855,20.839,4.383,6.718,13.456,10.124,26.966,10.124,13.665,0,22.8-3.423,27.158-10.174,5.433-8.42,1.442-18.935.663-20.8a19.78,19.78,0,0,0-.711-4.96c8.233-7.463,9.615-15.216,9.295-20.463M2.72,10.921a21.529,21.529,0,0,1,1.446-6.6,10.29,10.29,0,0,0,2.7,1.769,20.987,20.987,0,0,0,3.6,1.3,1.344,1.344,0,0,0,.136.026c6.707.931,10.872,6.11,12.482,8.536q-.825.377-1.62.8C19.932,15.049,15.829,10.9,11.8,10.6,9.684,10.448,7.6,9.14,7.288,8.368a1.345,1.345,0,0,0-2.544.159c-.1.363-2.218,8.727,6.563,17.829a20.95,20.95,0,0,0-.994,1.971c-5.386-5.2-7.944-11.045-7.593-17.406M12.828,24.046a20.876,20.876,0,0,1-5.394-9.917,14.821,14.821,0,0,1-.276-2.3A10.556,10.556,0,0,0,11.6,13.288c2.371.175,5.269,2.609,7.069,4.435-2.482,1.363-4.453,4.1-5.607,6.015-.08.1-.16.205-.238.309M61.335,55.411c-3.833,5.925-12.207,8.93-24.889,8.93-12.533,0-20.845-2.992-24.7-8.891-5.131-7.844-.588-18.46-.542-18.565a1.347,1.347,0,0,0,.114-.542,17.386,17.386,0,0,1,2.42-8.787,1.345,1.345,0,0,0,.666-.65c.005-.011.333-.7.905-1.649a24.286,24.286,0,0,1,10.084-7.351,1.366,1.366,0,0,0,.267-.1l.021-.014A29.612,29.612,0,0,1,36.394,15.82h.1a29.611,29.611,0,0,1,10.717,1.973l.021.014a1.366,1.366,0,0,0,.267.1,24.288,24.288,0,0,1,10.082,7.348c.572.954.9,1.642.908,1.653a1.346,1.346,0,0,0,.665.649,17.387,17.387,0,0,1,2.42,8.787,1.354,1.354,0,0,0,.119.553c.047.106,4.7,10.682-.362,18.514M59.757,23.648c-.349-.57-.766-1.208-1.246-1.86a13.955,13.955,0,0,0-4.292-4.067c1.8-1.826,4.7-4.258,7.068-4.434a10.552,10.552,0,0,0,4.45-1.464c-.109,2.723-1.11,7.287-5.674,12.223-.1-.134-.2-.267-.307-.4m1.828,2.707c8.781-9.1,6.661-17.466,6.563-17.829A1.345,1.345,0,0,0,65.6,8.368c-.315.772-2.4,2.08-4.515,2.237-4.026.3-8.13,4.444-9.664,6.158q-.8-.425-1.623-.8c1.6-2.425,5.75-7.6,12.485-8.535a1.288,1.288,0,0,0,.136-.026,20.985,20.985,0,0,0,3.605-1.3,10.274,10.274,0,0,0,2.7-1.773A21.484,21.484,0,0,1,70.165,10.8c.391,6.405-2.165,12.292-7.586,17.524a21.038,21.038,0,0,0-.994-1.971" transform="translate(0 0)" fill="#3b5620"/>
          <path id="Trazado_280649" data-name="Trazado 280649" d="M88.835,106.8c-1.842-1.39-4.408-2.066-7.843-2.066-2.609,0-5.578.214-7.811,1.8-2.342,1.661-3.48,4.5-3.48,8.669,0,3.845,4.178,6.051,11.462,6.051,9.675,0,11.119-3.791,11.119-6.051,0-3.847-1.16-6.673-3.448-8.4m-7.672,11.76c-4.241,0-8.773-.883-8.773-3.36,0-4.811,1.766-6.063,2.346-6.475,1.617-1.147,4.069-1.3,6.254-1.3,6.109,0,8.6,2.253,8.6,7.776,0,3.033-5.895,3.36-8.429,3.36" transform="translate(-44.063 -66.209)" fill="#3b5620"/>
          <path id="Trazado_280650" data-name="Trazado 280650" d="M84.949,121.7a2.019,2.019,0,1,0,2.019,2.019,2.019,2.019,0,0,0-2.019-2.019" transform="translate(-52.425 -76.931)" fill="#3b5620"/>
          <path id="Trazado_280651" data-name="Trazado 280651" d="M108.9,121.7a2.019,2.019,0,1,0,2.019,2.019A2.019,2.019,0,0,0,108.9,121.7" transform="translate(-67.568 -76.931)" fill="#3b5620"/>
          <path id="Trazado_280652" data-name="Trazado 280652" d="M63.111,81.956A3.644,3.644,0,1,0,59.467,85.6a3.648,3.648,0,0,0,3.644-3.644m-3.644.953a.953.953,0,1,1,.953-.953.954.954,0,0,1-.953.953" transform="translate(-35.289 -49.506)" fill="#3b5620"/>
          <path id="Trazado_280653" data-name="Trazado 280653" d="M126.175,78.312a3.644,3.644,0,1,0,3.644,3.644,3.648,3.648,0,0,0-3.644-3.644m0,4.6a.953.953,0,1,1,.953-.953.954.954,0,0,1-.953.953" transform="translate(-77.46 -49.506)" fill="#3b5620"/>
        </g>
      </g>
    </g>
  </g>
</svg>
