<svg xmlns="http://www.w3.org/2000/svg" width="78.242" height="91.766" viewBox="0 0 78.242 91.766">
  <g id="Grupo_1075852" data-name="Grupo 1075852" transform="translate(-678.201 -4087.709)">
    <path id="Trazado_814914" data-name="Trazado 814914" d="M499.794,508.8a1.411,1.411,0,0,1-1.3-1.616c.016-4.328-.043-8.658.026-12.985a11.339,11.339,0,0,1,10.892-11.124c1.7-.07,3.4-.044,5.1-.013a.832.832,0,0,0,.993-.7,6.782,6.782,0,0,1,6.636-4.883c2.029-.031,4.06,0,6.09-.01.341,0,.666.084.794-.456a8.684,8.684,0,0,1,6.713-6.791c.119-.031.227-.057.255-.2h2.868c.606.184,1.229.325,1.816.558a8.624,8.624,0,0,1,5.451,6.181c.155.615.4.727.954.719,1.941-.027,3.882-.022,5.824-.007a6.832,6.832,0,0,1,6.841,4.987c.149.467.33.6.792.594,1.523-.025,3.046-.018,4.569-.007a11.372,11.372,0,0,1,11.6,11.626q.028,27.731,0,55.461a11.407,11.407,0,0,1-11.682,11.648q-27.461.011-54.923,0a11.393,11.393,0,0,1-11.6-11.544c-.026-12.335,0-24.67-.019-37,0-.979.323-1.609,1.318-1.806,1.159.36,1.383.668,1.384,1.947q0,18.324.006,36.649A8.719,8.719,0,0,0,510.2,559.1q27.42.015,54.84.006a9.32,9.32,0,0,0,2.479-.307,8.748,8.748,0,0,0,6.505-8.88q.009-27.51,0-55.019a10.354,10.354,0,0,0-.122-1.873c-.874-4.717-4.8-7.61-9.773-7.237-1.068-.013-2.14.022-3.2-.055-.779-.057-.905.246-.917.955-.034,1.951.262,3.923-.258,5.852-.134.5.223.39.45.386a7.172,7.172,0,0,1,3.4.907,6.821,6.821,0,0,1,3.252,5.929q-.012,13.35.006,26.7c0,.952-.348,1.543-1.316,1.7-1.1-.264-1.381-.629-1.382-1.824q0-7.645,0-15.291c0-3.785.005-7.571,0-11.356a3.677,3.677,0,0,0-1.8-3.37c-1.179-.986-2.6-.638-3.944-.715a1.344,1.344,0,0,0-.967.348,6.5,6.5,0,0,1-4.117,1.511q-15.721.008-31.443,0a6.505,6.505,0,0,1-3.688-1.191,5.25,5.25,0,0,0-5.34.046,3.947,3.947,0,0,0-1.806,3.734q.018,22.346.008,44.691c0,2.883,1.6,4.486,4.485,4.486q22.077,0,44.154,0c2.827,0,4.453-1.617,4.457-4.426.005-4.06,0-8.12,0-12.181,0-1.181.236-1.482,1.39-1.848a1.593,1.593,0,0,1,1.313,1.826c-.033,4.12-.011,8.24-.019,12.36a7.717,7.717,0,0,1-.117,1.513,6.722,6.722,0,0,1-6.985,5.446c-14.66,0-29.319-.059-43.978.039a7.142,7.142,0,0,1-7.439-7.426c.115-14.718.07-29.438.021-44.157a7.245,7.245,0,0,1,3.272-6.551,8.138,8.138,0,0,1,2.247-.814c.525-.083,1.061-.1,1.592-.144-.082-.547-.177-1.093-.242-1.642a7.547,7.547,0,0,1-.024-.89c0-1.307-.018-2.615.007-3.921.009-.48-.105-.7-.636-.681-1.157.043-2.315.035-3.472.048a9.588,9.588,0,0,0-2.764.1,8.659,8.659,0,0,0-7.121,8.557c-.051,4.18-.011,8.362-.016,12.544,0,1.2-.3,1.573-1.4,1.811m37.772-14.01q7.616,0,15.23,0a4.2,4.2,0,0,0,4.544-4.5q.012-2.821,0-5.644a4.189,4.189,0,0,0-4.482-4.473c-2.389-.012-4.778,0-7.167,0-1.566,0-1.876-.292-2-1.84a6.1,6.1,0,0,0-12.161.091c-.092,1.38-.453,1.741-1.82,1.747-2.479.011-4.957-.011-7.436.008a4.166,4.166,0,0,0-4.389,4.383c-.012,1.821.093,3.649-.025,5.463a4.457,4.457,0,0,0,4.837,4.8c4.954-.123,9.913-.033,14.87-.033" transform="translate(179.715 3617.679)" fill="#030303"/>
    <path id="Trazado_814915" data-name="Trazado 814915" d="M564.131,485.789c4.977-.373,8.9,2.52,9.772,7.237a10.354,10.354,0,0,1,.122,1.873q.01,27.51,0,55.019a8.748,8.748,0,0,1-6.506,8.88,9.312,9.312,0,0,1-2.478.307q-27.42,0-54.841-.006a8.719,8.719,0,0,1-9.005-9.068q-.024-18.324-.006-36.649c0-1.279-.224-1.587-1.384-1.947q-.008-1.315-.014-2.631c1.1-.238,1.4-.608,1.4-1.811.006-4.182-.034-8.363.017-12.544a8.658,8.658,0,0,1,7.121-8.557,9.586,9.586,0,0,1,2.764-.1c0,.327,0,.654,0,.981.021,2.366-.167,4.748.528,7.063a7.245,7.245,0,0,0-3.272,6.551c.049,14.719.094,29.439-.021,44.157a7.141,7.141,0,0,0,7.438,7.426c14.659-.1,29.319-.035,43.978-.039a6.722,6.722,0,0,0,6.985-5.446,7.643,7.643,0,0,0,.117-1.513c.009-4.12-.014-8.24.019-12.36a1.593,1.593,0,0,0-1.312-1.826q0-1.308-.008-2.614c.967-.16,1.317-.752,1.315-1.7q-.021-13.352-.006-26.7a6.815,6.815,0,0,0-3.251-5.928c.059-.259.117-.519.177-.777.553-2.4.294-4.843.351-7.269" transform="translate(179.715 3617.679)" fill="#83e0ea"/>
    <path id="Trazado_814916" data-name="Trazado 814916" d="M565.544,528.169q0,1.306.008,2.614c-1.154.366-1.389.668-1.39,1.849,0,4.06,0,8.12,0,12.18,0,2.809-1.63,4.426-4.457,4.426q-22.077,0-44.154,0c-2.883,0-4.485-1.6-4.485-4.486q0-22.345-.008-44.692a3.947,3.947,0,0,1,1.806-3.734,5.943,5.943,0,0,0,1.187,1.659,11.246,11.246,0,0,0,8.453,3.582c3.7.022,7.4,0,11.1.011.337,0,.73-.143.987.233a3.825,3.825,0,0,0-2.639,4.013c.033,1.223-.025,2.449.019,3.671.022.613-.144.832-.79.811-1.4-.047-2.806-.044-4.207,0a3.527,3.527,0,0,0-3.56,3.6c-.031,1.283-.02,2.567-.006,3.85a3.62,3.62,0,0,0,3.889,3.837c1.313.011,2.628.034,3.939-.012.607-.021.75.19.734.759-.037,1.342-.035,2.686-.006,4.028a3.6,3.6,0,0,0,3.767,3.784c1.223.028,2.447.022,3.671,0a3.624,3.624,0,0,0,3.862-3.87c.02-1.283.039-2.568-.01-3.85-.024-.644.117-.891.821-.856,1.28.062,2.566.026,3.849.016a3.626,3.626,0,0,0,3.894-3.834q.024-1.835,0-3.671a3.583,3.583,0,0,0-3.831-3.788c-1.343-.015-2.687-.029-4.029.009-.565.017-.715-.178-.7-.716.034-1.253-.015-2.507.016-3.76a3.827,3.827,0,0,0-2.639-4.014c.257-.378.649-.227.987-.236,4.318-.111,8.651.282,12.955-.206a10.037,10.037,0,0,0,7.785-5.044,3.675,3.675,0,0,1,1.8,3.369c.009,3.786,0,7.571,0,11.357q0,7.646,0,15.29c0,1.2.285,1.561,1.382,1.825m-27.94,8.387q6.357,0,12.714,0c.951,0,1.473-.481,1.488-1.294a1.345,1.345,0,0,0-1.429-1.389c-.208-.015-.418-.005-.627-.005q-12.132,0-24.265,0a4.759,4.759,0,0,0-.979.053,1.247,1.247,0,0,0-1.089,1.235c-.048.879.514,1.4,1.562,1.4q6.312.011,12.625,0m-.084,6.97q6.4,0,12.8,0a1.306,1.306,0,0,0,1.483-1.309,1.291,1.291,0,0,0-1.347-1.364q-12.848-.023-25.7,0a1.246,1.246,0,0,0-1.336,1.184c-.11.907.491,1.488,1.558,1.49q6.267.011,12.535,0" transform="translate(179.715 3617.679)" fill="#e8e8e8"/>
    <path id="Trazado_814917" data-name="Trazado 814917" d="M537.566,494.794c-4.957,0-9.916-.089-14.87.033a4.457,4.457,0,0,1-4.837-4.8c.118-1.814.013-3.642.025-5.463a4.166,4.166,0,0,1,4.39-4.382c2.478-.02,4.957,0,7.435-.008,1.367-.006,1.728-.368,1.82-1.748a6.1,6.1,0,0,1,12.161-.09c.125,1.547.436,1.837,2,1.84,2.389,0,4.778-.008,7.167,0a4.189,4.189,0,0,1,4.482,4.473q.013,2.821,0,5.644a4.2,4.2,0,0,1-4.544,4.5q-7.614.014-15.23,0m-.154-4.528a5.605,5.605,0,0,0,4.075-1.666,1.389,1.389,0,0,0,.11-1.993,1.317,1.317,0,0,0-1.978.054c-1.431,1.23-2.578,1.227-4.025-.009a1.316,1.316,0,0,0-1.978-.036,1.373,1.373,0,0,0,.132,1.988,5.356,5.356,0,0,0,3.664,1.662m.212-9.191a2.261,2.261,0,1,0-2.273-2.272,2.29,2.29,0,0,0,2.273,2.272m-10.194,5.418c0-.415.029-.833-.007-1.245a1.226,1.226,0,0,0-1.222-1.19,1.2,1.2,0,0,0-1.363,1.02,7.893,7.893,0,0,0,0,2.83,1.191,1.191,0,0,0,1.366,1.011,1.2,1.2,0,0,0,1.22-1.18c.037-.412.007-.83.008-1.246m20.364,0c0,.415-.031.833.007,1.246a1.206,1.206,0,0,0,1.222,1.178,1.168,1.168,0,0,0,1.336-.93,7.1,7.1,0,0,0,0-3,1.175,1.175,0,0,0-1.337-.933,1.229,1.229,0,0,0-1.22,1.192c-.035.413-.006.831-.005,1.246" transform="translate(179.715 3617.679)" fill="#c5c3c9"/>
    <path id="Trazado_814918" data-name="Trazado 814918" d="M562.36,496.327a10.034,10.034,0,0,1-7.786,5.044c-4.3.49-8.636.1-12.954.206-.338.009-.731-.142-.987.237a49.544,49.544,0,0,0-6.044,0c-.257-.376-.65-.232-.987-.233-3.7-.009-7.4.012-11.1-.01a11.25,11.25,0,0,1-8.453-3.582,5.953,5.953,0,0,1-1.188-1.659,5.252,5.252,0,0,1,5.34-.046,6.51,6.51,0,0,0,3.689,1.19q15.722.006,31.443,0a6.508,6.508,0,0,0,4.117-1.51,1.336,1.336,0,0,1,.967-.349c1.345.077,2.764-.271,3.944.715" transform="translate(179.715 3617.679)" fill="#d9d9d7"/>
    <path id="Trazado_814919" data-name="Trazado 814919" d="M511.621,493.833c-.7-2.316-.508-4.7-.529-7.063,0-.327,0-.654,0-.981,1.158-.013,2.315-.005,3.471-.048.532-.02.646.2.638.681-.027,1.306-.011,2.614-.008,3.921a7.547,7.547,0,0,0,.024.89c.065.549.159,1.1.242,1.642-.531.046-1.067.061-1.592.144a8.108,8.108,0,0,0-2.246.814" transform="translate(179.715 3617.679)" fill="#73c2c6"/>
    <path id="Trazado_814920" data-name="Trazado 814920" d="M564.131,485.789c-.057,2.426.2,4.867-.351,7.269-.06.258-.118.518-.177.777a7.178,7.178,0,0,0-3.4-.908c-.226.005-.583.112-.449-.386.52-1.928.224-3.9.257-5.852.012-.709.139-1.012.918-.955,1.063.077,2.135.042,3.2.055" transform="translate(179.715 3617.679)" fill="#73c2c6"/>
    <path id="Trazado_814921" data-name="Trazado 814921" d="M534.589,501.812a49.56,49.56,0,0,1,6.045,0,3.83,3.83,0,0,1,2.639,4.015c-.031,1.252.017,2.507-.017,3.76-.014.538.135.733.7.716,1.342-.039,2.686-.024,4.029-.009a3.584,3.584,0,0,1,3.832,3.788q.025,1.836,0,3.671a3.624,3.624,0,0,1-3.894,3.833c-1.283.011-2.569.047-3.849-.016-.7-.034-.846.213-.821.857.048,1.281.03,2.566.01,3.849a3.626,3.626,0,0,1-3.863,3.871c-1.223.019-2.448.026-3.671,0a3.6,3.6,0,0,1-3.766-3.783c-.029-1.342-.032-2.687.005-4.029.016-.568-.126-.779-.733-.758-1.312.046-2.626.023-3.939.012a3.619,3.619,0,0,1-3.889-3.837c-.015-1.283-.026-2.567.006-3.85a3.524,3.524,0,0,1,3.559-3.6c1.4-.041,2.807-.044,4.208,0,.645.021.811-.2.789-.812-.043-1.222.014-2.447-.019-3.67a3.826,3.826,0,0,1,2.639-4.013m10.44,17.086c.985,0,1.971,0,2.956,0a1.006,1.006,0,0,0,1.144-1.157c-.013-1.164.007-2.329-.005-3.493-.01-1.041-.224-1.251-1.285-1.256-1.732-.01-3.464,0-5.2,0-1.712,0-2.071-.35-2.075-2.03,0-1.7,0-3.4,0-5.105,0-1.217-.212-1.427-1.389-1.431q-1.568-.006-3.135,0c-1.149,0-1.376.217-1.382,1.346-.009,1.732,0,3.463,0,5.2,0,1.648-.374,2.022-1.992,2.025-1.792,0-3.583.013-5.375,0-.822-.008-1.212.342-1.2,1.179.02,1.134,0,2.269.007,3.4.008,1.06.265,1.324,1.322,1.33,1.822.01,3.643,0,5.464.006,1.345.007,1.758.419,1.768,1.774.013,1.791,0,3.583.006,5.374.005,1.186.222,1.4,1.432,1.4q1.523.009,3.045,0c1.2-.008,1.424-.221,1.429-1.408.008-1.851-.014-3.7.01-5.553.015-1.126.469-1.566,1.588-1.588.955-.019,1.911,0,2.866-.006" transform="translate(179.715 3617.679)" fill="#050405"/>
    <path id="Trazado_814922" data-name="Trazado 814922" d="M537.6,536.556q-6.312,0-12.625,0c-1.048,0-1.61-.52-1.562-1.4a1.248,1.248,0,0,1,1.089-1.235,4.765,4.765,0,0,1,.98-.053q12.132,0,24.265,0c.209,0,.418-.01.626.005a1.345,1.345,0,0,1,1.429,1.388c-.015.814-.537,1.293-1.487,1.295q-6.358.013-12.715,0" transform="translate(179.715 3617.679)" fill="#040404"/>
    <path id="Trazado_814923" data-name="Trazado 814923" d="M537.52,543.526q-6.267,0-12.535,0c-1.067,0-1.668-.583-1.558-1.49a1.246,1.246,0,0,1,1.336-1.184q12.849-.023,25.7,0a1.291,1.291,0,0,1,1.347,1.364,1.306,1.306,0,0,1-1.483,1.309q-6.4.014-12.8,0" transform="translate(179.715 3617.679)" fill="#020202"/>
    <path id="Trazado_814924" data-name="Trazado 814924" d="M537.412,490.266a5.355,5.355,0,0,1-3.664-1.661,1.375,1.375,0,0,1-.132-1.989,1.317,1.317,0,0,1,1.978.037c1.447,1.235,2.594,1.238,4.025.008a1.317,1.317,0,0,1,1.978-.054,1.389,1.389,0,0,1-.11,1.993,5.605,5.605,0,0,1-4.075,1.666" transform="translate(179.715 3617.679)" fill="#c5c3c9"/>
    <path id="Trazado_814925" data-name="Trazado 814925" d="M537.623,481.075a2.261,2.261,0,1,1,2.247-2.3,2.292,2.292,0,0,1-2.247,2.3" transform="translate(179.715 3617.679)" fill="#030303"/>
    <path id="Trazado_814926" data-name="Trazado 814926" d="M527.429,486.493c0,.415.03.834-.007,1.246a1.2,1.2,0,0,1-1.22,1.18,1.191,1.191,0,0,1-1.366-1.011,7.893,7.893,0,0,1,0-2.83,1.2,1.2,0,0,1,1.364-1.02,1.226,1.226,0,0,1,1.222,1.189c.036.413.006.831.006,1.246" transform="translate(179.715 3617.679)" fill="#c5c3c9"/>
    <path id="Trazado_814927" data-name="Trazado 814927" d="M547.8,485.25a1.228,1.228,0,0,1,1.22-1.192,1.174,1.174,0,0,1,1.337.933,7.1,7.1,0,0,1,0,3,1.167,1.167,0,0,1-1.336.929,1.2,1.2,0,0,1-1.222-1.178" transform="translate(179.715 3617.679)" fill="#c5c3c9"/>
    <path id="Trazado_814928" data-name="Trazado 814928" d="M545.029,518.9c-.955,0-1.911-.014-2.866.005-1.119.022-1.573.462-1.588,1.588-.024,1.851,0,3.7-.01,5.553-.005,1.187-.226,1.4-1.429,1.408q-1.523.011-3.045,0c-1.21-.008-1.427-.217-1.432-1.4-.008-1.791.007-3.583-.006-5.374-.01-1.355-.423-1.767-1.768-1.774-1.821-.01-3.642,0-5.464-.006-1.057-.006-1.314-.27-1.322-1.33-.008-1.135.013-2.27-.007-3.4-.015-.837.375-1.187,1.2-1.179,1.792.017,3.583.007,5.375,0,1.618,0,1.988-.377,1.992-2.025,0-1.731-.006-3.463,0-5.2.006-1.129.233-1.342,1.382-1.346q1.567-.006,3.135,0c1.177,0,1.385.214,1.389,1.431.007,1.7,0,3.4,0,5.105,0,1.68.363,2.029,2.075,2.03,1.732,0,3.464-.006,5.2,0,1.061,0,1.275.215,1.285,1.256.012,1.164-.008,2.329.005,3.493a1.006,1.006,0,0,1-1.144,1.157c-.985,0-1.971,0-2.956,0" transform="translate(179.715 3617.679)" fill="#fa869b"/>
  </g>
</svg>
