<svg xmlns="http://www.w3.org/2000/svg" width="208.393" height="208.392" viewBox="0 0 208.393 208.392">
  <g id="Grupo_1075566" data-name="Grupo 1075566" transform="translate(-17920.246 -3520.27)">
    <path id="Trazado_280277" data-name="Trazado 280277" d="M1144.76,113.775a104.2,104.2,0,1,1-104.2-104.2,104.2,104.2,0,0,1,104.2,104.2" transform="translate(16983.879 3510.69)" fill="#e2e8ec"/>
    <path id="Trazado_280278" data-name="Trazado 280278" d="M1115.454,161.477c0,8.83-30.886,15.988-68.987,15.988s-68.986-7.158-68.986-15.988,30.886-15.988,68.986-15.988,68.987,7.158,68.987,15.988" transform="translate(16983.879 3510.69)" fill="#96dd3d"/>
    <path id="Trazado_280279" data-name="Trazado 280279" d="M1115.014,158.441c0,8.83-30.886,15.988-68.987,15.988s-68.986-7.158-68.986-15.988,30.886-15.988,68.986-15.988,68.987,7.158,68.987,15.988" transform="translate(16983.879 3510.69)" fill="#59c26a"/>
    <path id="Trazado_280280" data-name="Trazado 280280" d="M980.321,74.241a7.967,7.967,0,0,0,2.386,3.159,5.468,5.468,0,0,0,6.787-.566c.673-.615,1.338-1.142,2.311-.69a1.963,1.963,0,0,1,1.12,2.153,29.161,29.161,0,0,0,3.359-2.4,5.493,5.493,0,0,0-8.975-2.076c-1.089.988-2.006,1.065-2.8.237-.723-.759-.585-1.847.381-2.834.859-.879,1.759-1.72,2.6-2.619a3.894,3.894,0,0,0,.34-5.015,1.942,1.942,0,0,0-2.568-.8,1.774,1.774,0,0,0-.655,2.569c.335.657.007.929-.36,1.3-1.5,1.506-3.181,2.864-3.927,4.964Z" transform="translate(16983.879 3510.69)" fill="#fd9aa1"/>
    <path id="Trazado_280281" data-name="Trazado 280281" d="M1008.3,127.533a1.594,1.594,0,0,0-1.028-.155c-.4-.838-.952-.909-1.709-.427-2.73,1.736-5.451,3.486-8.227,5.146a1.6,1.6,0,0,0-.745,2.334c1.045,2.638,2,5.313,2.987,7.973l-13.4-.038a37.4,37.4,0,0,1-3.85-5.506,4.34,4.34,0,0,1-.278-4.11q1.616-4.214,3.338-8.385a1.835,1.835,0,0,0-.277-2.146,18.211,18.211,0,0,1-4.068-11.882c-.028-5.556-.017-11.113,0-16.669a10.088,10.088,0,0,1,1.054-4.46c1.236-2.521,3.578-3.992,5.526-5.819a14.644,14.644,0,0,1,3.117-2.73c17.619-1.049,35.254-.253,52.88-.422a39.3,39.3,0,0,1,17.358,4.121c.128.061.2.233.3.353-2.653,0-5.306,0-7.958.012a2.879,2.879,0,0,0-3.138,2.616,29.742,29.742,0,0,0,.092,6.857,2.577,2.577,0,0,0,2.448,2.355,19.874,19.874,0,0,0,5.9-.124,7.35,7.35,0,0,0,5.753-7.3q0-1.367.009-2.732a21.87,21.87,0,0,1,4.764,3.247,37.06,37.06,0,0,1,9.345,11.065c2.068,3.781,3.866,7.712,5.733,11.6,1.766,3.677,4.524,5.788,8.715,5.765a1.953,1.953,0,0,0,1.442,2.256,1.683,1.683,0,0,0,1.781-.59c.45-.4.347-.926.382-1.426l5.668-.017c.009,1.664.053,3.329.018,4.993a2.21,2.21,0,0,1-2.471,2.395,64.6,64.6,0,0,0-11.458.672c-4.493.811-9.041,1.315-13.56,1.991a1.608,1.608,0,0,0-1.505,1.817c.278,3.977.633,7.948.683,11.938l-11.65.06a20.2,20.2,0,0,0-.724-3.586,4.11,4.11,0,0,0-1.191-3.34c-.858-.87-1.6-1.857-2.422-2.761a2.1,2.1,0,0,0-2.462-.611,54.985,54.985,0,0,1-9.461,2.637c-2.371.417-4.766.577-7.162.793a52.376,52.376,0,0,1-9.783-.452c-2.561-.244-5.009-1.044-7.524-1.511a83.62,83.62,0,0,1-13.253-5.8m72.275-20.884a1.763,1.763,0,0,0-1.681-1.822,1.634,1.634,0,0,0-1.9,1.4,11.635,11.635,0,0,0,.011,4.691,1.68,1.68,0,0,0,1.934,1.377,1.722,1.722,0,0,0,1.629-1.735c.049-.668.009-1.341.009-2.012h0c0-.632.011-1.264,0-1.895" transform="translate(16983.879 3510.69)" fill="#fec3c7"/>
    <path id="Trazado_280282" data-name="Trazado 280282" d="M1064.4,86.393a21.87,21.87,0,0,1,4.764,3.247,37.06,37.06,0,0,1,9.345,11.065c2.068,3.781,3.866,7.713,5.733,11.6,1.766,3.676,4.524,5.787,8.715,5.764.005-1.861-.007-3.721.021-5.581.012-.769.069-1.564,1.158-1.562q-3.552-7.388-7.1-14.775a38.461,38.461,0,0,0-5.352-7.821c-.178-.214-.4-.4-.335-.718a1.6,1.6,0,0,1-1.055-.7,71.373,71.373,0,0,0-5.868-5.25c-1.478-.833-2.942-1.692-4.435-2.5a39.594,39.594,0,0,0-14.264-4.485,37.61,37.61,0,0,0-4.38-.216c-16.257-.013-32.515.015-48.773-.038a16.384,16.384,0,0,0-6.285,1.472,29.329,29.329,0,0,1-3.359,2.395q-1.087,1.182-2.176,2.362c17.618-1.049,35.253-.253,52.879-.422a39.3,39.3,0,0,1,17.358,4.121c.128.061.2.233.3.353.464,0,.928.008,1.391.009,1.433.006,1.606.174,1.719,1.673" transform="translate(16983.879 3510.69)" fill="#fcb3b9"/>
    <path id="Trazado_280283" data-name="Trazado 280283" d="M1021.558,133.329a83.62,83.62,0,0,1-13.253-5.8,1.594,1.594,0,0,0-1.028-.155c-.472,1.635-.931,3.274-1.421,4.9a4.313,4.313,0,0,0,.457,3.769c1.505,2.229,3.134,4.374,4.712,6.554,3.826-.016,7.651-.034,11.473-.26-1.619-2.869-.831-5.989-.94-9.015" transform="translate(16983.879 3510.69)" fill="#fc99a0"/>
    <path id="Trazado_280284" data-name="Trazado 280284" d="M1061.563,138.574a4.11,4.11,0,0,0-1.191-3.34c-.858-.87-1.6-1.857-2.422-2.761a2.1,2.1,0,0,0-2.462-.612,54.921,54.921,0,0,1-9.461,2.638q.218,3.966.434,7.931l13.1.222,2.005-4.078" transform="translate(16983.879 3510.69)" fill="#fd99a0"/>
    <path id="Trazado_280285" data-name="Trazado 280285" d="M1074.421,81.664a71.557,71.557,0,0,1,5.868,5.25,1.592,1.592,0,0,0,1.055.7,7.226,7.226,0,0,0,7.379-7.55,29.369,29.369,0,0,1,0-2.967,1.2,1.2,0,0,0-1.358-1.4c-3.244-.013-6.489-.049-9.732.013a2.965,2.965,0,0,0-3.021,3.127,8.764,8.764,0,0,1-.189,2.824" transform="translate(16983.879 3510.69)" fill="#fd99a0"/>
    <path id="Trazado_280286" data-name="Trazado 280286" d="M999.583,142.4l-13.4-.038a2.044,2.044,0,0,0,.523,1.17c1.191,1.772,2.411,3.525,3.573,5.316a1.712,1.712,0,0,0,1.633.906c2.928-.043,5.856-.01,8.784-.02,1.281-.005,1.583-.414,1.124-1.605-.737-1.913-1.332-3.882-2.24-5.729" transform="translate(16983.879 3510.69)" fill="#938392"/>
    <path id="Trazado_280287" data-name="Trazado 280287" d="M1073.937,142.1l-11.65.06c.328,2.029.666,4.056.978,6.087a1.558,1.558,0,0,0,1.846,1.515c2.575-.072,5.153-.016,7.73-.025,1.328-.005,1.587-.279,1.558-1.63a41.529,41.529,0,0,0-.462-6.007" transform="translate(16983.879 3510.69)" fill="#928291"/>
    <path id="Trazado_280288" data-name="Trazado 280288" d="M1059.558,142.652l-13.1-.222c-.018.14-.036.279-.055.418.02.147.041.295.061.443.137,1.735.027,3.479.25,5.215.114.883.493,1.25,1.374,1.241q3.563-.034,7.125,0a1.358,1.358,0,0,0,1.376-.9c.977-2.072,1.976-4.135,2.966-6.2" transform="translate(16983.879 3510.69)" fill="#928291"/>
    <path id="Trazado_280289" data-name="Trazado 280289" d="M1022.5,142.344c-3.821.226-7.647.244-11.473.26,1.4,2.255,3.059,4.332,4.615,6.478a1.58,1.58,0,0,0,1.339.656c2.38,0,4.761.02,7.141-.009.944-.011,1.3-.536.945-1.411-.823-2-1.708-3.984-2.567-5.974" transform="translate(16983.879 3510.69)" fill="#928291"/>
    <path id="Trazado_280290" data-name="Trazado 280290" d="M1096.562,118.311l5.668-.017c.01-1.219.042-2.437.023-3.655a2.167,2.167,0,0,0-2.3-2.285c-1.139-.02-2.279.011-3.419.02q.015,2.968.029,5.937" transform="translate(16983.879 3510.69)" fill="#fcb3b9"/>
    <path id="Trazado_280291" data-name="Trazado 280291" d="M1096.562,118.311q-.015-2.968-.029-5.937a1.905,1.905,0,0,1-2.4-1.446c-1.089,0-1.146.793-1.158,1.562-.027,1.86-.016,3.72-.021,5.581a1.953,1.953,0,0,0,1.442,2.256,1.687,1.687,0,0,0,1.781-.59c.45-.4.348-.926.382-1.426" transform="translate(16983.879 3510.69)" fill="#fd99a0"/>
    <path id="Trazado_280292" data-name="Trazado 280292" d="M1046.467,143.291c-.021-.148-.041-.295-.061-.443a.346.346,0,0,0,.061.443" transform="translate(16983.879 3510.69)" fill="#fd99a0"/>
    <path id="Trazado_280293" data-name="Trazado 280293" d="M1064.4,86.393c-.113-1.5-.286-1.667-1.719-1.673-.463,0-.927-.006-1.391-.009-2.653,0-5.306,0-7.958.012a2.879,2.879,0,0,0-3.138,2.616,29.742,29.742,0,0,0,.092,6.857,2.577,2.577,0,0,0,2.448,2.355,19.882,19.882,0,0,0,5.905-.124,7.35,7.35,0,0,0,5.752-7.3q0-1.367.009-2.732" transform="translate(16983.879 3510.69)" fill="#fd99a0"/>
    <path id="Trazado_280294" data-name="Trazado 280294" d="M1080.583,108.543c0-.632.011-1.263,0-1.895a1.762,1.762,0,0,0-1.681-1.821,1.632,1.632,0,0,0-1.9,1.395,11.658,11.658,0,0,0,.011,4.692,1.68,1.68,0,0,0,1.934,1.376,1.721,1.721,0,0,0,1.628-1.735c.05-.667.01-1.341.01-2.012Z" transform="translate(16983.879 3510.69)" fill="#928391"/>
    <path id="Trazado_280295" data-name="Trazado 280295" d="M1112.951,131.494a3.157,3.157,0,0,1-.948,1.254,2.171,2.171,0,0,1-2.7-.224c-.267-.245-.531-.454-.917-.274a.778.778,0,0,0-.445.855,11.48,11.48,0,0,1-1.334-.952,2.181,2.181,0,0,1,3.564-.824c.433.392.8.423,1.11.094.288-.3.232-.734-.151-1.126-.341-.349-.7-.682-1.031-1.039a1.546,1.546,0,0,1-.135-1.992.77.77,0,0,1,1.02-.319.7.7,0,0,1,.259,1.02c-.133.261,0,.369.144.515a5.622,5.622,0,0,1,1.559,1.972Z" transform="translate(16983.879 3510.69)" fill="#fd9aa1"/>
    <path id="Trazado_280296" data-name="Trazado 280296" d="M1096.575,154.958c-1,.185-1.971.5-2.988.6a20.814,20.814,0,0,1-3.885.179c-.951-.086-1.9-.149-2.844-.315a21.835,21.835,0,0,1-3.757-1.047.832.832,0,0,0-.978.243c-.327.359-.621.751-.961,1.1a1.631,1.631,0,0,0-.473,1.326,8.059,8.059,0,0,0-.288,1.425l-4.626-.024c.02-1.585.161-3.162.271-4.741a.639.639,0,0,0-.6-.722c-1.795-.268-3.6-.468-5.385-.79a25.7,25.7,0,0,0-4.55-.267.878.878,0,0,1-.982-.951c-.013-.661,0-1.322.007-1.983l2.251.007c.014.2-.027.407.152.566a.669.669,0,0,0,.707.234.776.776,0,0,0,.573-.9,3.6,3.6,0,0,0,3.461-2.289c.741-1.544,1.455-3.1,2.277-4.607a14.716,14.716,0,0,1,3.71-4.394,8.7,8.7,0,0,1,1.892-1.289c0,.361,0,.723,0,1.085a2.919,2.919,0,0,0,2.284,2.9,7.911,7.911,0,0,0,2.345.049,1.024,1.024,0,0,0,.972-.935,11.818,11.818,0,0,0,.037-2.724,1.144,1.144,0,0,0-1.247-1.038c-1.053-.005-2.106,0-3.16-.005.04-.048.07-.116.121-.14a15.6,15.6,0,0,1,6.893-1.637c7,.067,14-.249,21,.168a5.8,5.8,0,0,1,1.238,1.084,8.651,8.651,0,0,1,2.194,2.311,4,4,0,0,1,.419,1.771c.007,2.206.011,4.413,0,6.619a7.239,7.239,0,0,1-1.615,4.719.728.728,0,0,0-.111.852q.682,1.658,1.326,3.33a1.726,1.726,0,0,1-.11,1.632,14.978,14.978,0,0,1-1.529,2.186l-5.32.015c.392-1.056.771-2.118,1.186-3.166a.636.636,0,0,0-.3-.927c-1.1-.659-2.183-1.354-3.267-2.043-.3-.192-.521-.163-.679.169a.631.631,0,0,0-.408.062,33.3,33.3,0,0,1-5.263,2.3m-23.439-9.843h0c0,.266-.016.534,0,.8a.685.685,0,0,0,.647.689.666.666,0,0,0,.768-.547,4.621,4.621,0,0,0,.005-1.863.649.649,0,0,0-.756-.554.7.7,0,0,0-.668.724c-.005.25,0,.5,0,.752" transform="translate(16983.879 3510.69)" fill="#f9cfd3"/>
    <path id="Trazado_280297" data-name="Trazado 280297" d="M1079.562,136.319a8.645,8.645,0,0,0-1.892,1.29,14.73,14.73,0,0,0-3.711,4.393c-.821,1.5-1.535,3.063-2.277,4.608a3.6,3.6,0,0,1-3.46,2.289c0-.739,0-1.478-.009-2.217,0-.305-.027-.621-.459-.62q1.41-2.934,2.821-5.867a15.282,15.282,0,0,1,2.125-3.106c.071-.085.159-.157.133-.285a.631.631,0,0,0,.419-.278,28.262,28.262,0,0,1,2.331-2.085c.586-.331,1.168-.672,1.761-.991a15.722,15.722,0,0,1,5.664-1.781,15.133,15.133,0,0,1,1.739-.086c6.456,0,12.913.006,19.369-.014a6.5,6.5,0,0,1,2.5.584,11.677,11.677,0,0,0,1.333.951l.865.938c-7-.417-14-.1-21-.168a15.6,15.6,0,0,0-6.893,1.637c-.051.024-.081.092-.121.14l-.552,0c-.569,0-.638.069-.683.664" transform="translate(16983.879 3510.69)" fill="#f9c5cb"/>
    <path id="Trazado_280298" data-name="Trazado 280298" d="M1096.575,154.958a33.209,33.209,0,0,0,5.263-2.3.637.637,0,0,1,.408-.061c.188.649.37,1.3.564,1.947a1.713,1.713,0,0,1-.181,1.5c-.6.886-1.245,1.738-1.871,2.6-1.519-.006-3.039-.013-4.556-.1.643-1.139.33-2.378.373-3.58" transform="translate(16983.879 3510.69)" fill="#fc99a0"/>
    <path id="Trazado_280299" data-name="Trazado 280299" d="M1080.689,157.041a1.632,1.632,0,0,1,.472-1.326c.342-.346.635-.738.963-1.1a.835.835,0,0,1,.978-.243,21.809,21.809,0,0,0,3.757,1.048q-.087,1.575-.173,3.149l-5.2.088q-.4-.809-.8-1.619" transform="translate(16983.879 3510.69)" fill="#fd99a0"/>
    <path id="Trazado_280300" data-name="Trazado 280300" d="M1075.583,134.441a28.247,28.247,0,0,0-2.33,2.085.634.634,0,0,1-.419.278,2.87,2.87,0,0,1-2.931-3,11.285,11.285,0,0,0,0-1.178.476.476,0,0,1,.54-.555c1.288-.006,2.577-.02,3.864.005a1.177,1.177,0,0,1,1.2,1.242,3.462,3.462,0,0,0,.075,1.121" transform="translate(16983.879 3510.69)" fill="#fd99a0"/>
    <path id="Trazado_280301" data-name="Trazado 280301" d="M1105.3,158.562l5.319-.015a.806.806,0,0,1-.208.464c-.473.7-.957,1.4-1.418,2.112a.68.68,0,0,1-.649.359c-1.163-.017-2.325,0-3.488-.008-.509,0-.629-.164-.447-.637.293-.76.53-1.542.891-2.275" transform="translate(16983.879 3510.69)" fill="#938392"/>
    <path id="Trazado_280302" data-name="Trazado 280302" d="M1075.775,158.441l4.626.024c-.13.806-.264,1.611-.388,2.417a.619.619,0,0,1-.733.6c-1.023-.029-2.046-.007-3.07-.01-.527,0-.63-.111-.619-.648a16.431,16.431,0,0,1,.184-2.385" transform="translate(16983.879 3510.69)" fill="#928291"/>
    <path id="Trazado_280303" data-name="Trazado 280303" d="M1081.485,158.66l5.2-.088c.007.055.014.111.022.166-.008.058-.016.117-.025.176-.054.689-.01,1.381-.1,2.071-.045.35-.2.5-.545.493q-1.414-.015-2.83,0a.54.54,0,0,1-.546-.355c-.388-.823-.785-1.642-1.178-2.463" transform="translate(16983.879 3510.69)" fill="#928291"/>
    <path id="Trazado_280304" data-name="Trazado 280304" d="M1096.2,158.538c1.517.09,3.037.1,4.556.1-.558.9-1.215,1.72-1.833,2.573a.627.627,0,0,1-.531.26c-.946,0-1.891.008-2.836,0-.375,0-.518-.213-.375-.561.326-.8.678-1.582,1.019-2.372" transform="translate(16983.879 3510.69)" fill="#928291"/>
    <path id="Trazado_280305" data-name="Trazado 280305" d="M1066.79,148.994l-2.251-.007c0-.484-.016-.968-.009-1.451a.862.862,0,0,1,.914-.908c.452-.007.905,0,1.357.008Z" transform="translate(16983.879 3510.69)" fill="#fcb3b9"/>
    <path id="Trazado_280306" data-name="Trazado 280306" d="M1066.79,148.994l.011-2.358a.756.756,0,0,0,.952-.574c.433,0,.456.315.46.62.011.739.007,1.478.009,2.217a.777.777,0,0,1-.573.9.669.669,0,0,1-.707-.235c-.179-.158-.138-.368-.152-.566" transform="translate(16983.879 3510.69)" fill="#fd99a0"/>
    <path id="Trazado_280307" data-name="Trazado 280307" d="M1086.683,158.914l.024-.176a.137.137,0,0,1-.024.176" transform="translate(16983.879 3510.69)" fill="#fd99a0"/>
    <path id="Trazado_280308" data-name="Trazado 280308" d="M1079.562,136.319c.045-.6.114-.662.683-.664l.552,0c1.054,0,2.107,0,3.16.005a1.142,1.142,0,0,1,1.246,1.039,11.755,11.755,0,0,1-.036,2.723,1.024,1.024,0,0,1-.972.935,7.911,7.911,0,0,1-2.345-.049,2.919,2.919,0,0,1-2.284-2.9c0-.362,0-.723,0-1.085" transform="translate(16983.879 3510.69)" fill="#fd99a0"/>
    <path id="Trazado_280309" data-name="Trazado 280309" d="M1073.136,145.115c0-.251,0-.5,0-.752a.7.7,0,0,1,.668-.724.649.649,0,0,1,.756.554,4.621,4.621,0,0,1-.005,1.863.666.666,0,0,1-.768.547.685.685,0,0,1-.647-.689c-.019-.265,0-.533,0-.8Z" transform="translate(16983.879 3510.69)" fill="#928391"/>
  </g>
</svg>
