<svg xmlns="http://www.w3.org/2000/svg" width="1030" height="478.145" viewBox="0 0 1030 478.145">
  <g id="Grupo_1075573" data-name="Grupo 1075573" transform="translate(-285 -1298.666)">
    <rect id="Rectángulo_323929" data-name="Rectángulo 323929" width="998.428" height="99.051" transform="translate(299.506 1312.647)" fill="#def1f0"/>
    <rect id="Rectángulo_323934" data-name="Rectángulo 323934" width="998.428" height="99.051" transform="translate(299.506 1428.867)" fill="#def1f0"/>
    <rect id="Rectángulo_323939" data-name="Rectángulo 323939" width="998.428" height="99.051" transform="translate(300.992 1545.086)" fill="#def1f0"/>
    <rect id="Rectángulo_323944" data-name="Rectángulo 323944" width="998.428" height="99.051" transform="translate(299.506 1661.305)" fill="#def1f0"/>
    <line id="Línea_966" data-name="Línea 966" y2="77.135" transform="translate(588.734 1376.341)" fill="none" stroke="#12263f" stroke-miterlimit="10" stroke-width="3"/>
    <line id="Línea_967" data-name="Línea 967" y2="77.781" transform="translate(672.808 1375.695)" fill="none" stroke="#12263f" stroke-miterlimit="10" stroke-width="3"/>
    <line id="Línea_968" data-name="Línea 968" y2="77.781" transform="translate(812.972 1375.695)" fill="none" stroke="#12263f" stroke-miterlimit="10" stroke-width="3"/>
    <line id="Línea_969" data-name="Línea 969" y2="57.371" transform="translate(812.972 1501.914)" fill="none" stroke="#12263f" stroke-miterlimit="10" stroke-width="3"/>
    <line id="Línea_970" data-name="Línea 970" y2="6.789" transform="translate(1199.588 1376.341)" fill="none" stroke="#12263f" stroke-miterlimit="10" stroke-width="3.138"/>
    <line id="Línea_971" data-name="Línea 971" y2="45.655" transform="translate(1199.588 1396.174)" fill="none" stroke="#12263f" stroke-miterlimit="10" stroke-width="3.138" stroke-dasharray="13.449 13.449"/>
    <line id="Línea_972" data-name="Línea 972" y2="6.789" transform="translate(1199.588 1448.352)" fill="none" stroke="#12263f" stroke-miterlimit="10" stroke-width="3.138"/>
    <line id="Línea_973" data-name="Línea 973" y2="6.789" transform="translate(1016.222 1376.341)" fill="none" stroke="#12263f" stroke-miterlimit="10" stroke-width="3"/>
    <line id="Línea_974" data-name="Línea 974" y2="159.65" transform="translate(1016.222 1397.013)" fill="none" stroke="#12263f" stroke-miterlimit="10" stroke-width="3" stroke-dasharray="14.314 14.314"/>
    <line id="Línea_975" data-name="Línea 975" y2="6.789" transform="translate(1016.222 1563.603)" fill="none" stroke="#12263f" stroke-miterlimit="10" stroke-width="3"/>
    <line id="Línea_976" data-name="Línea 976" y2="6.789" transform="translate(874.989 1375.695)" fill="none" stroke="#12263f" stroke-miterlimit="10" stroke-width="3"/>
    <line id="Línea_977" data-name="Línea 977" y2="276.1" transform="translate(874.989 1396.644)" fill="none" stroke="#12263f" stroke-miterlimit="10" stroke-width="3" stroke-dasharray="14.599 14.599"/>
    <line id="Línea_978" data-name="Línea 978" y2="6.789" transform="translate(874.989 1679.823)" fill="none" stroke="#12263f" stroke-miterlimit="10" stroke-width="3"/>
    <line id="Línea_979" data-name="Línea 979" y2="6.789" transform="translate(639.017 1375.695)" fill="none" stroke="#12263f" stroke-miterlimit="10" stroke-width="3"/>
    <line id="Línea_980" data-name="Línea 980" y2="164.299" transform="translate(639.017 1396.771)" fill="none" stroke="#12263f" stroke-miterlimit="10" stroke-width="3" stroke-dasharray="14.731 14.731"/>
    <line id="Línea_981" data-name="Línea 981" y2="6.789" transform="translate(639.017 1568.213)" fill="none" stroke="#12263f" stroke-miterlimit="10" stroke-width="3"/>
    <rect id="Rectángulo_323945" data-name="Rectángulo 323945" width="118.86" height="48.437" transform="translate(575.858 1327.258)" fill="#dbf9bd"/>
    <rect id="Rectángulo_323946" data-name="Rectángulo 323946" width="118.86" height="48.437" transform="translate(575.858 1327.258)" fill="none" stroke="#12263f" stroke-miterlimit="10" stroke-width="3"/>
    <rect id="Rectángulo_323947" data-name="Rectángulo 323947" width="82.326" height="48.437" transform="translate(583.405 1575.003)" fill="#dbf9bd"/>
    <rect id="Rectángulo_323948" data-name="Rectángulo 323948" width="82.326" height="48.437" transform="translate(583.405 1575.003)" fill="none" stroke="#12263f" stroke-miterlimit="10" stroke-width="3"/>
    <rect id="Rectángulo_323949" data-name="Rectángulo 323949" width="211.185" height="48.437" transform="translate(515.617 1686.612)" fill="#dbf9bd"/>
    <rect id="Rectángulo_323950" data-name="Rectángulo 323950" width="211.185" height="48.437" transform="translate(515.617 1686.612)" fill="none" stroke="#12263f" stroke-miterlimit="10" stroke-width="3"/>
    <rect id="Rectángulo_323951" data-name="Rectángulo 323951" width="136.716" height="48.437" transform="translate(807.759 1686.2)" fill="#dbf9bd"/>
    <rect id="Rectángulo_323952" data-name="Rectángulo 323952" width="136.716" height="48.437" transform="translate(807.759 1686.2)" fill="none" stroke="#12263f" stroke-miterlimit="10" stroke-width="3"/>
    <rect id="Rectángulo_323953" data-name="Rectángulo 323953" width="82.326" height="48.437" transform="translate(975.709 1572.334)" fill="#dbf9bd"/>
    <rect id="Rectángulo_323954" data-name="Rectángulo 323954" width="82.326" height="48.437" transform="translate(975.709 1572.334)" fill="none" stroke="#12263f" stroke-miterlimit="10" stroke-width="3"/>
    <rect id="Rectángulo_323955" data-name="Rectángulo 323955" width="142.88" height="68.338" transform="translate(720.471 1559.282)" fill="#dbf9bd"/>
    <rect id="Rectángulo_323956" data-name="Rectángulo 323956" width="142.88" height="68.338" transform="translate(720.471 1559.282)" fill="none" stroke="#12263f" stroke-miterlimit="10" stroke-width="3"/>
    <rect id="Rectángulo_323957" data-name="Rectángulo 323957" width="118.86" height="48.437" transform="translate(775.452 1327.258)" fill="#dbf9bd"/>
    <rect id="Rectángulo_323958" data-name="Rectángulo 323958" width="118.86" height="48.437" transform="translate(775.452 1327.258)" fill="none" stroke="#12263f" stroke-miterlimit="10" stroke-width="3"/>
    <rect id="Rectángulo_323959" data-name="Rectángulo 323959" width="118.86" height="48.437" transform="translate(957.109 1328.717)" fill="#dbf9bd"/>
    <rect id="Rectángulo_323960" data-name="Rectángulo 323960" width="118.86" height="48.437" transform="translate(957.109 1328.717)" fill="none" stroke="#12263f" stroke-miterlimit="10" stroke-width="3"/>
    <rect id="Rectángulo_323961" data-name="Rectángulo 323961" width="118.86" height="48.437" transform="translate(1139.187 1329.688)" fill="#dbf9bd"/>
    <rect id="Rectángulo_323962" data-name="Rectángulo 323962" width="118.86" height="48.437" transform="translate(1139.187 1329.688)" fill="none" stroke="#12263f" stroke-miterlimit="10" stroke-width="3"/>
    <path id="Trazado_815083" data-name="Trazado 815083" d="M3.359-4.008V0H1.016V-11.375H5.453a5.134,5.134,0,0,1,2.254.469A3.454,3.454,0,0,1,9.2-9.574a3.714,3.714,0,0,1,.523,1.965A3.266,3.266,0,0,1,8.582-4.973a4.767,4.767,0,0,1-3.168.965Zm0-1.9H5.453a2.059,2.059,0,0,0,1.418-.437,1.591,1.591,0,0,0,.488-1.25,1.876,1.876,0,0,0-.492-1.352,1.839,1.839,0,0,0-1.359-.531H3.359Zm7.279,1.6a5.013,5.013,0,0,1,.484-2.242A3.546,3.546,0,0,1,12.517-8.07a4.069,4.069,0,0,1,2.113-.539,3.849,3.849,0,0,1,2.793,1.047,4.2,4.2,0,0,1,1.207,2.844l.016.578A4.418,4.418,0,0,1,17.56-1.02,3.775,3.775,0,0,1,14.646.156a3.793,3.793,0,0,1-2.918-1.172A4.5,4.5,0,0,1,10.638-4.2Zm2.258.16A3.16,3.16,0,0,0,13.349-2.3a1.5,1.5,0,0,0,1.3.638,1.5,1.5,0,0,0,1.281-.63,3.457,3.457,0,0,0,.461-2.015,3.128,3.128,0,0,0-.461-1.831,1.5,1.5,0,0,0-1.3-.649,1.474,1.474,0,0,0-1.281.646A3.516,3.516,0,0,0,12.9-4.144ZM22.42,0H20.154V-12H22.42Zm4.3,0H24.459V-8.453h2.258Zm-.664-11.883h2.461L26.349-9.461H24.513Zm5.313,1.352v2.078H32.81V-6.8H31.365v4.219a1.007,1.007,0,0,0,.18.672.9.9,0,0,0,.688.2,3.6,3.6,0,0,0,.664-.055V-.047a4.648,4.648,0,0,1-1.367.2,2.156,2.156,0,0,1-2.422-2.4V-6.8H27.873V-8.453h1.234v-2.078ZM36.451,0H34.185V-8.453h2.266Zm-2.4-10.641a1.112,1.112,0,0,1,.34-.836,1.277,1.277,0,0,1,.926-.328,1.28,1.28,0,0,1,.922.328,1.105,1.105,0,0,1,.344.836,1.108,1.108,0,0,1-.348.844,1.283,1.283,0,0,1-.918.328A1.283,1.283,0,0,1,34.4-9.8,1.108,1.108,0,0,1,34.052-10.641Zm7.773,8.977a1.481,1.481,0,0,0,1.016-.344,1.2,1.2,0,0,0,.406-.914h2.117A2.9,2.9,0,0,1,44.9-1.348,3.093,3.093,0,0,1,43.634-.238a3.949,3.949,0,0,1-1.77.395A3.67,3.67,0,0,1,39.006-1,4.56,4.56,0,0,1,37.959-4.18v-.148A4.508,4.508,0,0,1,39-7.445a3.627,3.627,0,0,1,2.852-1.164,3.555,3.555,0,0,1,2.543.9,3.2,3.2,0,0,1,.973,2.4H43.248a1.551,1.551,0,0,0-.406-1.072,1.354,1.354,0,0,0-1.031-.412,1.36,1.36,0,0,0-1.191.575,3.333,3.333,0,0,0-.4,1.866v.235a3.375,3.375,0,0,0,.4,1.878A1.377,1.377,0,0,0,41.826-1.664ZM51.552,0a2.507,2.507,0,0,1-.227-.758,2.732,2.732,0,0,1-2.133.914,3,3,0,0,1-2.059-.719,2.312,2.312,0,0,1-.816-1.812,2.389,2.389,0,0,1,1-2.062,4.915,4.915,0,0,1,2.879-.727h1.039v-.484a1.393,1.393,0,0,0-.3-.937,1.183,1.183,0,0,0-.949-.352,1.345,1.345,0,0,0-.895.273.929.929,0,0,0-.324.75H46.506a2.268,2.268,0,0,1,.453-1.359,3,3,0,0,1,1.281-.98A4.669,4.669,0,0,1,50.1-8.609a3.689,3.689,0,0,1,2.48.785A2.747,2.747,0,0,1,53.5-5.617v3.664a4.041,4.041,0,0,0,.336,1.82V0ZM49.685-1.57a1.945,1.945,0,0,0,.922-.223,1.462,1.462,0,0,0,.625-.6V-3.844h-.844q-1.7,0-1.8,1.172l-.008.133a.9.9,0,0,0,.3.7A1.153,1.153,0,0,0,49.685-1.57Zm18.68.133A4.068,4.068,0,0,1,66.576-.262a7.492,7.492,0,0,1-2.562.418,5.076,5.076,0,0,1-2.59-.645A4.3,4.3,0,0,1,59.7-2.359a6.585,6.585,0,0,1-.621-2.883v-.773a6.994,6.994,0,0,1,.574-2.949,4.248,4.248,0,0,1,1.656-1.906,4.771,4.771,0,0,1,2.535-.66,4.751,4.751,0,0,1,3.164.965,4.123,4.123,0,0,1,1.352,2.809H66.084a2.268,2.268,0,0,0-.691-1.43,2.208,2.208,0,0,0-1.473-.453,2.078,2.078,0,0,0-1.82.9,4.724,4.724,0,0,0-.633,2.672v.727a4.5,4.5,0,0,0,.68,2.7,2.327,2.327,0,0,0,1.992.914,2.6,2.6,0,0,0,1.883-.562V-4.25H63.888V-5.977h4.477ZM74.006.156A4.15,4.15,0,0,1,70.978-.984,4.054,4.054,0,0,1,69.81-4.023v-.219A5.106,5.106,0,0,1,70.3-6.52,3.612,3.612,0,0,1,71.7-8.066a3.914,3.914,0,0,1,2.059-.543,3.508,3.508,0,0,1,2.73,1.094,4.444,4.444,0,0,1,1,3.1v.922H72.1a2.1,2.1,0,0,0,.66,1.328,2,2,0,0,0,1.395.5,2.437,2.437,0,0,0,2.039-.945L77.3-1.367A3.389,3.389,0,0,1,75.927-.246,4.511,4.511,0,0,1,74.006.156Zm-.258-6.945a1.411,1.411,0,0,0-1.09.455,2.357,2.357,0,0,0-.535,1.3h3.141v-.181a1.681,1.681,0,0,0-.406-1.165A1.456,1.456,0,0,0,73.748-6.789Zm7.094-1.664.07.977a2.951,2.951,0,0,1,2.43-1.133,2.453,2.453,0,0,1,2,.789,3.682,3.682,0,0,1,.672,2.359V0H83.756V-5.406a1.465,1.465,0,0,0-.312-1.043A1.4,1.4,0,0,0,82.4-6.773a1.553,1.553,0,0,0-1.43.813V0H78.716V-8.453ZM91.615.156A4.15,4.15,0,0,1,88.588-.984,4.054,4.054,0,0,1,87.42-4.023v-.219a5.106,5.106,0,0,1,.492-2.277,3.612,3.612,0,0,1,1.395-1.547,3.914,3.914,0,0,1,2.059-.543A3.508,3.508,0,0,1,94.1-7.516a4.444,4.444,0,0,1,1,3.1v.922H89.709a2.1,2.1,0,0,0,.66,1.328,2,2,0,0,0,1.395.5A2.437,2.437,0,0,0,93.8-2.609l1.109,1.242A3.389,3.389,0,0,1,93.537-.246,4.511,4.511,0,0,1,91.615.156Zm-.258-6.945a1.411,1.411,0,0,0-1.09.455,2.357,2.357,0,0,0-.535,1.3h3.141v-.181a1.681,1.681,0,0,0-.406-1.165A1.456,1.456,0,0,0,91.357-6.789Zm9.766.453a6.134,6.134,0,0,0-.812-.062,1.654,1.654,0,0,0-1.68.867V0H96.373V-8.453h2.133l.063,1.008a2.092,2.092,0,0,1,1.883-1.164,2.366,2.366,0,0,1,.7.1ZM106.873,0a2.507,2.507,0,0,1-.227-.758,2.732,2.732,0,0,1-2.133.914,3,3,0,0,1-2.059-.719,2.312,2.312,0,0,1-.816-1.812,2.389,2.389,0,0,1,1-2.062,4.915,4.915,0,0,1,2.879-.727h1.039v-.484a1.393,1.393,0,0,0-.3-.937,1.183,1.183,0,0,0-.949-.352,1.345,1.345,0,0,0-.895.273.929.929,0,0,0-.324.75h-2.258a2.268,2.268,0,0,1,.453-1.359,3,3,0,0,1,1.281-.98,4.669,4.669,0,0,1,1.859-.355,3.689,3.689,0,0,1,2.48.785,2.747,2.747,0,0,1,.918,2.207v3.664a4.041,4.041,0,0,0,.336,1.82V0Zm-1.867-1.57a1.945,1.945,0,0,0,.922-.223,1.462,1.462,0,0,0,.625-.6V-3.844h-.844q-1.7,0-1.8,1.172l-.008.133a.9.9,0,0,0,.3.7A1.153,1.153,0,0,0,105.006-1.57ZM112.935,0H110.67V-12h2.266Z" transform="translate(322.115 1364.745)" fill="#12263f"/>
    <path id="Trazado_815084" data-name="Trazado 815084" d="M5.607-15.641,9.625-4.3l4-11.344h4.232V0H14.62V-4.275l.322-7.38L10.721,0H8.508L4.3-11.645l.322,7.369V0H1.4V-15.641ZM23.891-5.511V0H20.668V-15.641h6.1a7.059,7.059,0,0,1,3.1.645,4.75,4.75,0,0,1,2.057,1.832,5.107,5.107,0,0,1,.72,2.7,4.491,4.491,0,0,1-1.574,3.625,6.555,6.555,0,0,1-4.356,1.327Zm0-2.61H26.77a2.831,2.831,0,0,0,1.95-.6,2.188,2.188,0,0,0,.671-1.719,2.58,2.58,0,0,0-.677-1.858,2.528,2.528,0,0,0-1.869-.73H23.891ZM42.969-4.1a1.654,1.654,0,0,0-.645-1.4A8.454,8.454,0,0,0,40-6.537a16.448,16.448,0,0,1-2.653-1.069,4.335,4.335,0,0,1-2.664-3.878,3.777,3.777,0,0,1,.714-2.261A4.66,4.66,0,0,1,37.453-15.3a7.723,7.723,0,0,1,3-.559,7.029,7.029,0,0,1,2.986.607,4.755,4.755,0,0,1,2.036,1.713,4.483,4.483,0,0,1,.725,2.514H42.979a2.109,2.109,0,0,0-.677-1.67,2.782,2.782,0,0,0-1.9-.6,2.972,2.972,0,0,0-1.837.5,1.576,1.576,0,0,0-.655,1.316,1.509,1.509,0,0,0,.768,1.278,8.678,8.678,0,0,0,2.261.967,9.77,9.77,0,0,1,4.007,2.052A4.086,4.086,0,0,1,46.2-4.125,3.764,3.764,0,0,1,44.666-.94,6.725,6.725,0,0,1,40.53.215a7.986,7.986,0,0,1-3.287-.661,5.2,5.2,0,0,1-2.261-1.81A4.635,4.635,0,0,1,34.2-4.92h3.233q0,2.589,3.094,2.589A3.01,3.01,0,0,0,42.324-2.8,1.52,1.52,0,0,0,42.969-4.1Z" transform="translate(611.342 1359.595)" fill="#12263f"/>
    <path id="Trazado_815085" data-name="Trazado 815085" d="M5.607-15.641,9.625-4.3l4-11.344h4.232V0H14.62V-4.275l.322-7.38L10.721,0H8.508L4.3-11.645l.322,7.369V0H1.4V-15.641ZM29.867-3.223h-5.65L23.143,0H19.716l5.822-15.641h2.986L34.379,0H30.952Zm-4.78-2.61H29l-1.966-5.854ZM35.84,0V-15.641h4.813a7.308,7.308,0,0,1,3.69.929,6.479,6.479,0,0,1,2.541,2.643A8.151,8.151,0,0,1,47.8-8.175v.72a8.174,8.174,0,0,1-.9,3.878,6.424,6.424,0,0,1-2.53,2.632A7.363,7.363,0,0,1,40.685,0Zm3.223-13.03V-2.589H40.62a3.5,3.5,0,0,0,2.89-1.235A5.582,5.582,0,0,0,44.53-7.358v-.827a5.671,5.671,0,0,0-.988-3.615,3.488,3.488,0,0,0-2.89-1.23Zm16.865,7.3H53.361V0H50.138V-15.641h5.812a6.57,6.57,0,0,1,4.275,1.235,4.264,4.264,0,0,1,1.5,3.491,4.812,4.812,0,0,1-.693,2.669,4.725,4.725,0,0,1-2.1,1.7L62.32-.15V0H58.861Zm-2.567-2.61h2.6a2.662,2.662,0,0,0,1.88-.618,2.208,2.208,0,0,0,.666-1.7,2.363,2.363,0,0,0-.628-1.74,2.612,2.612,0,0,0-1.928-.634H53.361Z" transform="translate(802.142 1359.595)" fill="#12263f"/>
    <path id="Trazado_815100" data-name="Trazado 815100" d="M13.675-5.21a5.535,5.535,0,0,1-1.864,3.975A6.546,6.546,0,0,1,7.38.215,5.886,5.886,0,0,1,2.648-1.81,8.3,8.3,0,0,1,.924-7.369v-.956A9.376,9.376,0,0,1,1.719-12.3a5.957,5.957,0,0,1,2.272-2.637,6.364,6.364,0,0,1,3.432-.918,6.376,6.376,0,0,1,4.361,1.45A5.948,5.948,0,0,1,13.7-10.334H10.474a3.266,3.266,0,0,0-.843-2.2,3.123,3.123,0,0,0-2.208-.682,2.738,2.738,0,0,0-2.412,1.155,6.472,6.472,0,0,0-.822,3.583v1.182a6.927,6.927,0,0,0,.768,3.706A2.687,2.687,0,0,0,7.38-2.417,3.182,3.182,0,0,0,9.609-3.1a3.081,3.081,0,0,0,.843-2.111ZM28.639-7.466a9.442,9.442,0,0,1-.816,4.05A6.148,6.148,0,0,1,25.486-.73,6.463,6.463,0,0,1,22,.215,6.507,6.507,0,0,1,18.53-.72a6.209,6.209,0,0,1-2.363-2.669,9.172,9.172,0,0,1-.849-3.991v-.773a9.392,9.392,0,0,1,.833-4.066,6.2,6.2,0,0,1,2.353-2.7,6.471,6.471,0,0,1,3.475-.94,6.471,6.471,0,0,1,3.475.94,6.2,6.2,0,0,1,2.353,2.7,9.366,9.366,0,0,1,.833,4.055Zm-3.266-.709a6.582,6.582,0,0,0-.881-3.738,2.871,2.871,0,0,0-2.514-1.278,2.872,2.872,0,0,0-2.5,1.262,6.507,6.507,0,0,0-.892,3.7v.763a6.664,6.664,0,0,0,.881,3.717A2.863,2.863,0,0,0,22-2.428,2.837,2.837,0,0,0,24.492-3.7a6.626,6.626,0,0,0,.881-3.711Zm11.4,2.449H34.2V0H30.98V-15.641h5.812a6.57,6.57,0,0,1,4.275,1.235,4.264,4.264,0,0,1,1.5,3.491,4.812,4.812,0,0,1-.693,2.669,4.725,4.725,0,0,1-2.1,1.7L43.162-.15V0H39.7ZM34.2-8.336h2.6a2.662,2.662,0,0,0,1.88-.618,2.208,2.208,0,0,0,.666-1.7,2.363,2.363,0,0,0-.628-1.74,2.612,2.612,0,0,0-1.928-.634H34.2Zm14.04,2.825V0H45.021V-15.641h6.1a7.059,7.059,0,0,1,3.1.645,4.75,4.75,0,0,1,2.057,1.832,5.107,5.107,0,0,1,.72,2.7,4.491,4.491,0,0,1-1.574,3.625,6.555,6.555,0,0,1-4.356,1.327Zm0-2.61h2.879a2.831,2.831,0,0,0,1.95-.6,2.188,2.188,0,0,0,.671-1.719,2.58,2.58,0,0,0-.677-1.858,2.528,2.528,0,0,0-1.869-.73H48.243Zm23.815.655a9.442,9.442,0,0,1-.816,4.05A6.148,6.148,0,0,1,68.906-.73,6.463,6.463,0,0,1,65.42.215,6.507,6.507,0,0,1,61.95-.72a6.209,6.209,0,0,1-2.363-2.669,9.172,9.172,0,0,1-.849-3.991v-.773a9.392,9.392,0,0,1,.833-4.066,6.2,6.2,0,0,1,2.353-2.7,6.471,6.471,0,0,1,3.475-.94,6.471,6.471,0,0,1,3.475.94,6.2,6.2,0,0,1,2.353,2.7,9.366,9.366,0,0,1,.833,4.055Zm-3.266-.709a6.582,6.582,0,0,0-.881-3.738A2.871,2.871,0,0,0,65.4-13.191a2.872,2.872,0,0,0-2.5,1.262A6.507,6.507,0,0,0,62-8.229v.763a6.664,6.664,0,0,0,.881,3.717A2.863,2.863,0,0,0,65.42-2.428,2.837,2.837,0,0,0,67.912-3.7a6.626,6.626,0,0,0,.881-3.711ZM77.827,0H74.6V-15.641h3.223ZM93.092-5.21a5.535,5.535,0,0,1-1.864,3.975A6.546,6.546,0,0,1,86.8.215,5.886,5.886,0,0,1,82.065-1.81a8.3,8.3,0,0,1-1.724-5.559v-.956a9.376,9.376,0,0,1,.795-3.975,5.957,5.957,0,0,1,2.272-2.637,6.364,6.364,0,0,1,3.432-.918,6.376,6.376,0,0,1,4.361,1.45,5.948,5.948,0,0,1,1.912,4.071H89.891a3.266,3.266,0,0,0-.843-2.2,3.123,3.123,0,0,0-2.208-.682,2.738,2.738,0,0,0-2.412,1.155,6.472,6.472,0,0,0-.822,3.583v1.182a6.927,6.927,0,0,0,.768,3.706A2.687,2.687,0,0,0,86.8-2.417,3.182,3.182,0,0,0,89.026-3.1a3.081,3.081,0,0,0,.843-2.111Zm10.946,1.987h-5.65L97.313,0H93.887l5.822-15.641H102.7L108.55,0h-3.427Zm-4.78-2.61h3.91L101.2-11.687Z" transform="translate(820.81 1715.148)" fill="#12263f"/>
    <path id="Trazado_815086" data-name="Trazado 815086" d="M5.607-15.641,9.625-4.3l4-11.344h4.232V0H14.62V-4.275l.322-7.38L10.721,0H8.508L4.3-11.645l.322,7.369V0H1.4V-15.641ZM29.867-3.223h-5.65L23.143,0H19.716l5.822-15.641h2.986L34.379,0H30.952Zm-4.78-2.61H29l-1.966-5.854ZM39.978-3.878l3.545-11.763h3.588L41.665,0H38.3L32.878-15.641h3.577ZM48.583,0V-15.641H53.4a7.308,7.308,0,0,1,3.69.929,6.479,6.479,0,0,1,2.541,2.643,8.151,8.151,0,0,1,.913,3.894v.72a8.174,8.174,0,0,1-.9,3.878,6.424,6.424,0,0,1-2.53,2.632A7.363,7.363,0,0,1,53.427,0Zm3.223-13.03V-2.589h1.558a3.5,3.5,0,0,0,2.89-1.235,5.582,5.582,0,0,0,1.021-3.534v-.827a5.671,5.671,0,0,0-.988-3.615,3.488,3.488,0,0,0-2.89-1.23Zm21.65,0H68.664V0H65.441V-13.03H60.715v-2.61h12.74Z" transform="translate(982.328 1359.595)" fill="#12263f"/>
    <path id="Trazado_815087" data-name="Trazado 815087" d="M5.607-15.641,9.625-4.3l4-11.344h4.232V0H14.62V-4.275l.322-7.38L10.721,0H8.508L4.3-11.645l.322,7.369V0H1.4V-15.641ZM32.946-5.21a5.535,5.535,0,0,1-1.864,3.975A6.546,6.546,0,0,1,26.651.215,5.886,5.886,0,0,1,21.919-1.81,8.3,8.3,0,0,1,20.2-7.369v-.956A9.376,9.376,0,0,1,20.99-12.3a5.957,5.957,0,0,1,2.272-2.637,6.364,6.364,0,0,1,3.432-.918,6.376,6.376,0,0,1,4.361,1.45,5.948,5.948,0,0,1,1.912,4.071H29.745a3.266,3.266,0,0,0-.843-2.2,3.123,3.123,0,0,0-2.208-.682,2.738,2.738,0,0,0-2.412,1.155,6.472,6.472,0,0,0-.822,3.583v1.182a6.927,6.927,0,0,0,.768,3.706,2.687,2.687,0,0,0,2.422,1.171A3.182,3.182,0,0,0,28.88-3.1a3.081,3.081,0,0,0,.843-2.111ZM38.489,0H35.267V-15.641h3.223ZM52.652-13.03H47.86V0H44.638V-13.03H39.911v-2.61h12.74Z" transform="translate(1173.873 1360.572)" fill="#12263f"/>
    <rect id="Rectángulo_323963" data-name="Rectángulo 323963" width="82.326" height="48.437" transform="translate(1157.455 1453.476)" fill="#dbf9bd"/>
    <rect id="Rectángulo_323964" data-name="Rectángulo 323964" width="82.326" height="48.437" transform="translate(1157.455 1453.476)" fill="none" stroke="#12263f" stroke-miterlimit="10" stroke-width="3"/>
    <path id="Trazado_815088" data-name="Trazado 815088" d="M9.507-4.1a1.654,1.654,0,0,0-.645-1.4,8.454,8.454,0,0,0-2.32-1.031A16.448,16.448,0,0,1,3.889-7.605a4.335,4.335,0,0,1-2.664-3.878,3.777,3.777,0,0,1,.714-2.261A4.66,4.66,0,0,1,3.991-15.3a7.723,7.723,0,0,1,3-.559,7.029,7.029,0,0,1,2.986.607,4.755,4.755,0,0,1,2.036,1.713,4.483,4.483,0,0,1,.725,2.514H9.518a2.109,2.109,0,0,0-.677-1.67,2.782,2.782,0,0,0-1.9-.6,2.972,2.972,0,0,0-1.837.5,1.576,1.576,0,0,0-.655,1.316,1.509,1.509,0,0,0,.768,1.278,8.677,8.677,0,0,0,2.261.967,9.77,9.77,0,0,1,4.007,2.052A4.086,4.086,0,0,1,12.74-4.125,3.764,3.764,0,0,1,11.2-.94,6.725,6.725,0,0,1,7.068.215,7.986,7.986,0,0,1,3.781-.446,5.2,5.2,0,0,1,1.52-2.256,4.635,4.635,0,0,1,.741-4.92H3.975q0,2.589,3.094,2.589A3.01,3.01,0,0,0,8.862-2.8,1.52,1.52,0,0,0,9.507-4.1ZM18.348,0H15.125V-15.641h3.223ZM33.612-5.21a5.535,5.535,0,0,1-1.864,3.975A6.546,6.546,0,0,1,27.317.215,5.886,5.886,0,0,1,22.585-1.81a8.3,8.3,0,0,1-1.724-5.559v-.956a9.376,9.376,0,0,1,.795-3.975,5.957,5.957,0,0,1,2.272-2.637,6.364,6.364,0,0,1,3.432-.918,6.376,6.376,0,0,1,4.361,1.45,5.948,5.948,0,0,1,1.912,4.071H30.411a3.266,3.266,0,0,0-.843-2.2,3.123,3.123,0,0,0-2.208-.682,2.738,2.738,0,0,0-2.412,1.155,6.472,6.472,0,0,0-.822,3.583v1.182A6.927,6.927,0,0,0,24.9-3.588a2.687,2.687,0,0,0,2.422,1.171A3.182,3.182,0,0,0,29.546-3.1,3.081,3.081,0,0,0,30.39-5.21Z" transform="translate(1179.827 1487.015)" fill="#12263f"/>
    <rect id="Rectángulo_323965" data-name="Rectángulo 323965" width="82.326" height="48.437" transform="translate(771.809 1453.476)" fill="#dbf9bd"/>
    <rect id="Rectángulo_323966" data-name="Rectángulo 323966" width="82.326" height="48.437" transform="translate(771.809 1453.476)" fill="none" stroke="#12263f" stroke-miterlimit="10" stroke-width="3"/>
    <path id="Trazado_815089" data-name="Trazado 815089" d="M4.823,0H1.6V-15.641H4.823ZM20.088-5.21a5.535,5.535,0,0,1-1.864,3.975A6.546,6.546,0,0,1,13.793.215,5.886,5.886,0,0,1,9.061-1.81,8.3,8.3,0,0,1,7.337-7.369v-.956A9.376,9.376,0,0,1,8.132-12.3,5.957,5.957,0,0,1,10.4-14.937a6.364,6.364,0,0,1,3.432-.918,6.376,6.376,0,0,1,4.361,1.45,5.948,5.948,0,0,1,1.912,4.071H16.887a3.266,3.266,0,0,0-.843-2.2,3.123,3.123,0,0,0-2.208-.682,2.738,2.738,0,0,0-2.412,1.155A6.472,6.472,0,0,0,10.6-8.476v1.182a6.927,6.927,0,0,0,.768,3.706,2.687,2.687,0,0,0,2.422,1.171A3.182,3.182,0,0,0,16.022-3.1a3.081,3.081,0,0,0,.843-2.111ZM31.034-3.223h-5.65L24.31,0H20.883l5.822-15.641h2.986L35.546,0H32.119Zm-4.78-2.61h3.91L28.2-11.687Z" transform="translate(796.885 1482.415)" fill="#12263f"/>
    <rect id="Rectángulo_323967" data-name="Rectángulo 323967" width="82.326" height="48.437" transform="translate(648.793 1453.476)" fill="#dbf9bd"/>
    <rect id="Rectángulo_323968" data-name="Rectángulo 323968" width="82.326" height="48.437" transform="translate(648.793 1453.476)" fill="none" stroke="#12263f" stroke-miterlimit="10" stroke-width="3"/>
    <path id="Trazado_815090" data-name="Trazado 815090" d="M4.823,0H1.6V-15.641H4.823ZM20.528,0H17.306L11.032-10.291V0H7.81V-15.641h3.223L17.316-5.328V-15.641h3.212ZM31.453-4.1a1.654,1.654,0,0,0-.645-1.4,8.454,8.454,0,0,0-2.32-1.031,16.449,16.449,0,0,1-2.653-1.069,4.335,4.335,0,0,1-2.664-3.878,3.777,3.777,0,0,1,.714-2.261A4.66,4.66,0,0,1,25.937-15.3a7.723,7.723,0,0,1,3-.559,7.029,7.029,0,0,1,2.986.607,4.755,4.755,0,0,1,2.036,1.713,4.483,4.483,0,0,1,.725,2.514H31.464a2.109,2.109,0,0,0-.677-1.67,2.782,2.782,0,0,0-1.9-.6,2.972,2.972,0,0,0-1.837.5,1.576,1.576,0,0,0-.655,1.316,1.509,1.509,0,0,0,.768,1.278,8.678,8.678,0,0,0,2.261.967A9.77,9.77,0,0,1,33.43-7.176a4.086,4.086,0,0,1,1.257,3.051A3.764,3.764,0,0,1,33.15-.94,6.725,6.725,0,0,1,29.015.215a7.986,7.986,0,0,1-3.287-.661,5.2,5.2,0,0,1-2.261-1.81,4.635,4.635,0,0,1-.779-2.664h3.233q0,2.589,3.094,2.589A3.01,3.01,0,0,0,30.809-2.8,1.52,1.52,0,0,0,31.453-4.1Z" transform="translate(672.807 1482.415)" fill="#12263f"/>
    <rect id="Rectángulo_323969" data-name="Rectángulo 323969" width="118.86" height="48.437" transform="translate(506.522 1453.476)" fill="#dbf9bd"/>
    <rect id="Rectángulo_323970" data-name="Rectángulo 323970" width="118.86" height="48.437" transform="translate(506.522 1453.476)" fill="none" stroke="#12263f" stroke-miterlimit="10" stroke-width="3"/>
    <path id="Trazado_815091" data-name="Trazado 815091" d="M4.823,0H1.6V-15.641H4.823ZM20.528,0H17.306L11.032-10.291V0H7.81V-15.641h3.223L17.316-5.328V-15.641h3.212Zm8.594-3.878,3.545-11.763h3.588L30.809,0H27.446L22.021-15.641H25.6ZM41.153,0H37.931V-15.641h3.223Zm7.2-15.641L52.368-4.3l4-11.344H60.6V0H57.363V-4.275l.322-7.38L53.464,0H51.251L47.04-11.645l.322,7.369V0H44.14V-15.641ZM72.633-3.223h-5.65L65.908,0H62.481L68.3-15.641H71.29L77.144,0H73.718Zm-4.78-2.61h3.91L69.8-11.687Z" transform="translate(528.42 1482.414)" fill="#12263f"/>
    <path id="Trazado_815096" data-name="Trazado 815096" d="M10.807-6.778H4.619v4.189h7.262V0H1.4V-15.641H11.859v2.61H4.619V-9.3h6.188ZM25.76-13.03H20.969V0H17.746V-13.03H13.02v-2.61H25.76ZM35.553-4.1a1.654,1.654,0,0,0-.645-1.4,8.454,8.454,0,0,0-2.32-1.031,16.449,16.449,0,0,1-2.653-1.069,4.335,4.335,0,0,1-2.664-3.878,3.777,3.777,0,0,1,.714-2.261A4.66,4.66,0,0,1,30.037-15.3a7.723,7.723,0,0,1,3-.559,7.029,7.029,0,0,1,2.986.607,4.755,4.755,0,0,1,2.036,1.713,4.483,4.483,0,0,1,.725,2.514H35.564a2.109,2.109,0,0,0-.677-1.67,2.782,2.782,0,0,0-1.9-.6,2.972,2.972,0,0,0-1.837.5,1.576,1.576,0,0,0-.655,1.316,1.509,1.509,0,0,0,.768,1.278,8.678,8.678,0,0,0,2.261.967A9.77,9.77,0,0,1,37.53-7.176a4.086,4.086,0,0,1,1.257,3.051A3.764,3.764,0,0,1,37.25-.94,6.725,6.725,0,0,1,33.115.215a7.986,7.986,0,0,1-3.287-.661,5.2,5.2,0,0,1-2.261-1.81,4.635,4.635,0,0,1-.779-2.664h3.233q0,2.589,3.094,2.589A3.01,3.01,0,0,0,34.909-2.8,1.52,1.52,0,0,0,35.553-4.1Z" transform="translate(604.954 1604.245)" fill="#12263f"/>
    <path id="Trazado_815099" data-name="Trazado 815099" d="M13.675-5.21a5.535,5.535,0,0,1-1.864,3.975A6.546,6.546,0,0,1,7.38.215,5.886,5.886,0,0,1,2.648-1.81,8.3,8.3,0,0,1,.924-7.369v-.956A9.376,9.376,0,0,1,1.719-12.3a5.957,5.957,0,0,1,2.272-2.637,6.364,6.364,0,0,1,3.432-.918,6.376,6.376,0,0,1,4.361,1.45A5.948,5.948,0,0,1,13.7-10.334H10.474a3.266,3.266,0,0,0-.843-2.2,3.123,3.123,0,0,0-2.208-.682,2.738,2.738,0,0,0-2.412,1.155,6.472,6.472,0,0,0-.822,3.583v1.182a6.927,6.927,0,0,0,.768,3.706A2.687,2.687,0,0,0,7.38-2.417,3.182,3.182,0,0,0,9.609-3.1a3.081,3.081,0,0,0,.843-2.111ZM24.621-3.223h-5.65L17.9,0H14.47l5.822-15.641h2.986L29.133,0H25.706Zm-4.78-2.61h3.91l-1.966-5.854Zm16.543.107H33.816V0H30.594V-15.641h5.812a6.57,6.57,0,0,1,4.275,1.235,4.264,4.264,0,0,1,1.5,3.491,4.812,4.812,0,0,1-.693,2.669,4.725,4.725,0,0,1-2.1,1.7L42.775-.15V0H39.316Zm-2.567-2.61h2.6a2.662,2.662,0,0,0,1.88-.618,2.208,2.208,0,0,0,.666-1.7,2.363,2.363,0,0,0-.628-1.74,2.612,2.612,0,0,0-1.928-.634H33.816ZM52.744-4.1a1.654,1.654,0,0,0-.645-1.4,8.454,8.454,0,0,0-2.32-1.031,16.448,16.448,0,0,1-2.653-1.069,4.335,4.335,0,0,1-2.664-3.878,3.777,3.777,0,0,1,.714-2.261A4.66,4.66,0,0,1,47.228-15.3a7.723,7.723,0,0,1,3-.559,7.029,7.029,0,0,1,2.986.607,4.755,4.755,0,0,1,2.036,1.713,4.483,4.483,0,0,1,.725,2.514H52.755a2.109,2.109,0,0,0-.677-1.67,2.782,2.782,0,0,0-1.9-.6,2.972,2.972,0,0,0-1.837.5,1.576,1.576,0,0,0-.655,1.316,1.509,1.509,0,0,0,.768,1.278,8.678,8.678,0,0,0,2.261.967,9.77,9.77,0,0,1,4.007,2.052,4.086,4.086,0,0,1,1.257,3.051A3.764,3.764,0,0,1,54.441-.94,6.725,6.725,0,0,1,50.306.215a7.986,7.986,0,0,1-3.287-.661,5.2,5.2,0,0,1-2.261-1.81,4.635,4.635,0,0,1-.779-2.664h3.233q0,2.589,3.094,2.589A3.01,3.01,0,0,0,52.1-2.8,1.52,1.52,0,0,0,52.744-4.1Z" transform="translate(988.743 1601.266)" fill="#12263f"/>
    <path id="Trazado_815101" data-name="Trazado 815101" d="M13.675-5.21a5.535,5.535,0,0,1-1.864,3.975A6.546,6.546,0,0,1,7.38.215,5.886,5.886,0,0,1,2.648-1.81,8.3,8.3,0,0,1,.924-7.369v-.956A9.376,9.376,0,0,1,1.719-12.3a5.957,5.957,0,0,1,2.272-2.637,6.364,6.364,0,0,1,3.432-.918,6.376,6.376,0,0,1,4.361,1.45A5.948,5.948,0,0,1,13.7-10.334H10.474a3.266,3.266,0,0,0-.843-2.2,3.123,3.123,0,0,0-2.208-.682,2.738,2.738,0,0,0-2.412,1.155,6.472,6.472,0,0,0-.822,3.583v1.182a6.927,6.927,0,0,0,.768,3.706A2.687,2.687,0,0,0,7.38-2.417,3.182,3.182,0,0,0,9.609-3.1a3.081,3.081,0,0,0,.843-2.111ZM19.218,0H16V-15.641h3.223Zm3.588,3.921-1.622-.849.387-.7a5.582,5.582,0,0,0,.741-2.61V-2.643h2.621L24.922-.494a5.581,5.581,0,0,1-.6,2.406A6.169,6.169,0,0,1,22.806,3.921ZM44.892-15.641v10.3a5.274,5.274,0,0,1-1.606,4.061A6.191,6.191,0,0,1,38.9.215a6.261,6.261,0,0,1-4.351-1.45A5.184,5.184,0,0,1,32.9-5.221v-10.42h3.223V-5.317a2.98,2.98,0,0,0,.736,2.24,2.825,2.825,0,0,0,2.036.7q2.718,0,2.761-2.857V-15.641Zm5.3,4.018.1,1.343a4.058,4.058,0,0,1,3.341-1.558,3.372,3.372,0,0,1,2.75,1.085A5.062,5.062,0,0,1,57.3-7.509V0h-3.1V-7.434a2.014,2.014,0,0,0-.43-1.434,1.924,1.924,0,0,0-1.429-.446A2.136,2.136,0,0,0,50.37-8.2V0h-3.1V-11.623ZM62.928,0H59.813V-11.623h3.115Zm-3.3-14.631A1.529,1.529,0,0,1,60.1-15.78a1.755,1.755,0,0,1,1.273-.451,1.759,1.759,0,0,1,1.268.451,1.52,1.52,0,0,1,.473,1.149,1.524,1.524,0,0,1-.478,1.16,1.764,1.764,0,0,1-1.262.451,1.764,1.764,0,0,1-1.262-.451A1.524,1.524,0,0,1,59.63-14.631ZM69.835-3.792l2.159-7.831h3.244L71.317,0H68.353L64.432-11.623h3.244ZM81.7.215A5.706,5.706,0,0,1,77.54-1.354a5.575,5.575,0,0,1-1.606-4.179v-.3a7.021,7.021,0,0,1,.677-3.131,4.967,4.967,0,0,1,1.917-2.127,5.382,5.382,0,0,1,2.831-.747,4.824,4.824,0,0,1,3.754,1.5,6.111,6.111,0,0,1,1.37,4.265V-4.8h-7.4a2.884,2.884,0,0,0,.908,1.826,2.744,2.744,0,0,0,1.917.688,3.351,3.351,0,0,0,2.8-1.3L86.236-1.88A4.66,4.66,0,0,1,84.345-.338,6.2,6.2,0,0,1,81.7.215Zm-.354-9.55a1.94,1.94,0,0,0-1.5.626,3.241,3.241,0,0,0-.736,1.791h4.318v-.248a2.311,2.311,0,0,0-.559-1.6A2,2,0,0,0,81.348-9.335Zm13.428.623A8.434,8.434,0,0,0,93.659-8.8a2.274,2.274,0,0,0-2.31,1.192V0h-3.1V-11.623h2.933l.086,1.386a2.877,2.877,0,0,1,2.589-1.6,3.253,3.253,0,0,1,.967.14Zm7.788,5.5a1,1,0,0,0-.564-.9,6.406,6.406,0,0,0-1.81-.585q-4.146-.87-4.146-3.523A3.194,3.194,0,0,1,97.327-10.8a5.178,5.178,0,0,1,3.357-1.037,5.573,5.573,0,0,1,3.54,1.042,3.284,3.284,0,0,1,1.327,2.707h-3.1a1.5,1.5,0,0,0-.43-1.1,1.818,1.818,0,0,0-1.343-.435,1.858,1.858,0,0,0-1.214.354,1.119,1.119,0,0,0-.43.9.957.957,0,0,0,.489.833,5.028,5.028,0,0,0,1.649.548,13.468,13.468,0,0,1,1.955.521,3.212,3.212,0,0,1,2.46,3.126,3.032,3.032,0,0,1-1.364,2.573,5.885,5.885,0,0,1-3.523.983A6.147,6.147,0,0,1,98.1-.306a4.353,4.353,0,0,1-1.778-1.429,3.32,3.32,0,0,1-.645-1.96h2.943a1.621,1.621,0,0,0,.612,1.268,2.429,2.429,0,0,0,1.525.44,2.248,2.248,0,0,0,1.348-.338A1.053,1.053,0,0,0,102.564-3.212ZM110.857,0h-3.115V-11.623h3.115Zm-3.3-14.631a1.529,1.529,0,0,1,.467-1.149,1.755,1.755,0,0,1,1.273-.451,1.759,1.759,0,0,1,1.268.451,1.52,1.52,0,0,1,.473,1.149,1.524,1.524,0,0,1-.478,1.16,1.764,1.764,0,0,1-1.262.451,1.764,1.764,0,0,1-1.262-.451A1.524,1.524,0,0,1,107.559-14.631ZM112.93-5.9a7,7,0,0,1,1.219-4.329,3.956,3.956,0,0,1,3.335-1.611,3.56,3.56,0,0,1,2.8,1.268V-16.5H123.4V0h-2.8l-.15-1.235a3.653,3.653,0,0,1-2.986,1.45A3.945,3.945,0,0,1,114.171-1.4,7.23,7.23,0,0,1,112.93-5.9Zm3.1.231A4.588,4.588,0,0,0,116.6-3.16a1.855,1.855,0,0,0,1.654.871,2.077,2.077,0,0,0,2.03-1.216V-8.1a2.048,2.048,0,0,0-2.009-1.216Q116.035-9.313,116.035-5.666ZM132.545,0a3.447,3.447,0,0,1-.312-1.042A3.756,3.756,0,0,1,129.3.215a4.127,4.127,0,0,1-2.831-.988,3.178,3.178,0,0,1-1.123-2.492,3.285,3.285,0,0,1,1.37-2.836,6.758,6.758,0,0,1,3.958-1H132.1v-.666a1.915,1.915,0,0,0-.414-1.289,1.627,1.627,0,0,0-1.305-.483,1.85,1.85,0,0,0-1.23.376,1.277,1.277,0,0,0-.446,1.031h-3.1A3.118,3.118,0,0,1,126.229-10a4.118,4.118,0,0,1,1.762-1.348,6.42,6.42,0,0,1,2.557-.489,5.073,5.073,0,0,1,3.411,1.08,3.777,3.777,0,0,1,1.262,3.035v5.038a5.557,5.557,0,0,0,.462,2.5V0Zm-2.567-2.159a2.674,2.674,0,0,0,1.268-.306,2.011,2.011,0,0,0,.859-.822v-2h-1.16q-2.331,0-2.481,1.611l-.011.183a1.243,1.243,0,0,0,.408.956A1.586,1.586,0,0,0,129.978-2.159ZM137.121-5.9a7,7,0,0,1,1.219-4.329,3.956,3.956,0,0,1,3.335-1.611,3.56,3.56,0,0,1,2.8,1.268V-16.5H147.6V0h-2.8l-.15-1.235a3.653,3.653,0,0,1-2.986,1.45A3.945,3.945,0,0,1,138.362-1.4,7.23,7.23,0,0,1,137.121-5.9Zm3.1.231A4.588,4.588,0,0,0,140.8-3.16a1.855,1.855,0,0,0,1.654.871A2.077,2.077,0,0,0,144.48-3.5V-8.1a2.048,2.048,0,0,0-2.009-1.216Q140.226-9.313,140.226-5.666ZM155.351.215a5.706,5.706,0,0,1-4.163-1.568,5.575,5.575,0,0,1-1.606-4.179v-.3a7.021,7.021,0,0,1,.677-3.131,4.967,4.967,0,0,1,1.917-2.127,5.382,5.382,0,0,1,2.831-.747,4.824,4.824,0,0,1,3.754,1.5,6.111,6.111,0,0,1,1.37,4.265V-4.8h-7.4a2.884,2.884,0,0,0,.908,1.826,2.744,2.744,0,0,0,1.917.688,3.351,3.351,0,0,0,2.8-1.3l1.525,1.708a4.66,4.66,0,0,1-1.891,1.542A6.2,6.2,0,0,1,155.351.215ZM155-9.335a1.94,1.94,0,0,0-1.5.626,3.241,3.241,0,0,0-.736,1.791h4.318v-.248a2.311,2.311,0,0,0-.559-1.6A2,2,0,0,0,155-9.335Zm13.191,6.123a1,1,0,0,0-.564-.9,6.406,6.406,0,0,0-1.81-.585q-4.146-.87-4.146-3.523a3.194,3.194,0,0,1,1.284-2.583,5.178,5.178,0,0,1,3.357-1.037,5.573,5.573,0,0,1,3.54,1.042,3.284,3.284,0,0,1,1.327,2.707h-3.1a1.5,1.5,0,0,0-.43-1.1,1.818,1.818,0,0,0-1.343-.435,1.858,1.858,0,0,0-1.214.354,1.119,1.119,0,0,0-.43.9.957.957,0,0,0,.489.833,5.028,5.028,0,0,0,1.649.548,13.468,13.468,0,0,1,1.955.521,3.212,3.212,0,0,1,2.46,3.126,3.032,3.032,0,0,1-1.364,2.573,5.885,5.885,0,0,1-3.523.983,6.147,6.147,0,0,1-2.594-.521,4.353,4.353,0,0,1-1.778-1.429A3.32,3.32,0,0,1,161.3-3.7h2.943a1.621,1.621,0,0,0,.612,1.268,2.429,2.429,0,0,0,1.525.44,2.248,2.248,0,0,0,1.348-.338A1.053,1.053,0,0,0,168.188-3.212Z" transform="translate(528.676 1717.067)" fill="#12263f"/>
    <path id="Trazado_815097" data-name="Trazado 815097" d="M7.187-5.726H4.619V0H1.4V-15.641H7.208a6.57,6.57,0,0,1,4.275,1.235,4.264,4.264,0,0,1,1.5,3.491,4.812,4.812,0,0,1-.693,2.669,4.725,4.725,0,0,1-2.1,1.7L13.578-.15V0H10.119ZM4.619-8.336h2.6A2.662,2.662,0,0,0,9.1-8.954a2.208,2.208,0,0,0,.666-1.7,2.363,2.363,0,0,0-.628-1.74,2.612,2.612,0,0,0-1.928-.634H4.619ZM20.582.215a5.706,5.706,0,0,1-4.163-1.568,5.575,5.575,0,0,1-1.606-4.179v-.3a7.021,7.021,0,0,1,.677-3.131,4.967,4.967,0,0,1,1.917-2.127,5.382,5.382,0,0,1,2.831-.747,4.824,4.824,0,0,1,3.754,1.5,6.111,6.111,0,0,1,1.37,4.265V-4.8h-7.4a2.884,2.884,0,0,0,.908,1.826,2.744,2.744,0,0,0,1.917.688,3.351,3.351,0,0,0,2.8-1.3L25.115-1.88A4.66,4.66,0,0,1,23.225-.338,6.2,6.2,0,0,1,20.582.215Zm-.354-9.55a1.94,1.94,0,0,0-1.5.626,3.241,3.241,0,0,0-.736,1.791h4.318v-.248a2.311,2.311,0,0,0-.559-1.6A2,2,0,0,0,20.228-9.335ZM26.673-5.9a6.812,6.812,0,0,1,1.273-4.308,4.125,4.125,0,0,1,3.432-1.633,3.617,3.617,0,0,1,2.976,1.311l.129-1.1H37.3V-.387A4.968,4.968,0,0,1,36.6,2.267a4.45,4.45,0,0,1-1.95,1.719,6.854,6.854,0,0,1-2.943.591,6.373,6.373,0,0,1-2.492-.51A4.423,4.423,0,0,1,27.382,2.75L28.757.859a3.637,3.637,0,0,0,2.814,1.3A2.662,2.662,0,0,0,33.494,1.5a2.478,2.478,0,0,0,.688-1.875V-1A3.591,3.591,0,0,1,31.356.215a4.114,4.114,0,0,1-3.389-1.638,6.81,6.81,0,0,1-1.294-4.345Zm3.1.231a4.242,4.242,0,0,0,.634,2.48,2.016,2.016,0,0,0,1.74.9,2.156,2.156,0,0,0,2.03-1.065v-4.9a2.151,2.151,0,0,0-2.009-1.065,2.029,2.029,0,0,0-1.756.915A4.781,4.781,0,0,0,29.777-5.666ZM42.958,0H39.843V-11.623h3.115Zm-3.3-14.631a1.529,1.529,0,0,1,.467-1.149,1.755,1.755,0,0,1,1.273-.451,1.759,1.759,0,0,1,1.268.451,1.52,1.52,0,0,1,.473,1.149,1.524,1.524,0,0,1-.478,1.16,1.764,1.764,0,0,1-1.262.451,1.764,1.764,0,0,1-1.262-.451A1.524,1.524,0,0,1,39.66-14.631Zm5.371,8.712A6.893,6.893,0,0,1,45.7-9,4.876,4.876,0,0,1,47.615-11.1a5.594,5.594,0,0,1,2.906-.741,5.293,5.293,0,0,1,3.84,1.439,5.777,5.777,0,0,1,1.66,3.91l.021.795A6.075,6.075,0,0,1,54.549-1.4,5.19,5.19,0,0,1,50.542.215,5.216,5.216,0,0,1,46.53-1.4a6.182,6.182,0,0,1-1.5-4.383Zm3.1.22a4.345,4.345,0,0,0,.623,2.534,2.055,2.055,0,0,0,1.783.877A2.06,2.06,0,0,0,52.3-3.154a4.754,4.754,0,0,0,.634-2.77A4.3,4.3,0,0,0,52.3-8.442a2.06,2.06,0,0,0-1.783-.893,2.027,2.027,0,0,0-1.762.888A4.834,4.834,0,0,0,48.136-5.7Zm12.676-5.924.1,1.343a4.058,4.058,0,0,1,3.341-1.558A3.372,3.372,0,0,1,67-10.753a5.062,5.062,0,0,1,.924,3.244V0h-3.1V-7.434a2.014,2.014,0,0,0-.43-1.434,1.924,1.924,0,0,0-1.429-.446A2.136,2.136,0,0,0,60.994-8.2V0h-3.1V-11.623ZM77.011,0A3.448,3.448,0,0,1,76.7-1.042,3.756,3.756,0,0,1,73.767.215a4.127,4.127,0,0,1-2.831-.988,3.178,3.178,0,0,1-1.123-2.492A3.285,3.285,0,0,1,71.183-6.1a6.758,6.758,0,0,1,3.958-1H76.57v-.666a1.915,1.915,0,0,0-.414-1.289,1.627,1.627,0,0,0-1.305-.483,1.85,1.85,0,0,0-1.23.376,1.277,1.277,0,0,0-.446,1.031h-3.1A3.118,3.118,0,0,1,70.694-10a4.118,4.118,0,0,1,1.762-1.348,6.42,6.42,0,0,1,2.557-.489,5.073,5.073,0,0,1,3.411,1.08,3.777,3.777,0,0,1,1.262,3.035v5.038a5.557,5.557,0,0,0,.462,2.5V0ZM74.443-2.159a2.674,2.674,0,0,0,1.268-.306,2.011,2.011,0,0,0,.859-.822v-2H75.41q-2.331,0-2.481,1.611l-.011.183a1.243,1.243,0,0,0,.408.956A1.586,1.586,0,0,0,74.443-2.159ZM85.347,0H82.231V-16.5h3.115Zm7.906.215A5.706,5.706,0,0,1,89.09-1.354a5.575,5.575,0,0,1-1.606-4.179v-.3a7.021,7.021,0,0,1,.677-3.131,4.967,4.967,0,0,1,1.917-2.127,5.382,5.382,0,0,1,2.831-.747,4.824,4.824,0,0,1,3.754,1.5,6.111,6.111,0,0,1,1.37,4.265V-4.8h-7.4a2.884,2.884,0,0,0,.908,1.826,2.744,2.744,0,0,0,1.917.688,3.351,3.351,0,0,0,2.8-1.3L97.786-1.88A4.66,4.66,0,0,1,95.9-.338,6.2,6.2,0,0,1,93.253.215ZM92.9-9.335a1.94,1.94,0,0,0-1.5.626,3.241,3.241,0,0,0-.736,1.791h4.318v-.248a2.311,2.311,0,0,0-.559-1.6A2,2,0,0,0,92.9-9.335ZM106.09-3.212a1,1,0,0,0-.564-.9,6.406,6.406,0,0,0-1.81-.585q-4.146-.87-4.146-3.523a3.194,3.194,0,0,1,1.284-2.583,5.178,5.178,0,0,1,3.357-1.037,5.573,5.573,0,0,1,3.54,1.042,3.284,3.284,0,0,1,1.327,2.707h-3.1a1.5,1.5,0,0,0-.43-1.1,1.818,1.818,0,0,0-1.343-.435,1.858,1.858,0,0,0-1.214.354,1.119,1.119,0,0,0-.43.9.957.957,0,0,0,.489.833,5.028,5.028,0,0,0,1.649.548,13.468,13.468,0,0,1,1.955.521,3.212,3.212,0,0,1,2.46,3.126,3.032,3.032,0,0,1-1.364,2.573,5.885,5.885,0,0,1-3.523.983,6.147,6.147,0,0,1-2.594-.521,4.353,4.353,0,0,1-1.778-1.429A3.32,3.32,0,0,1,99.2-3.7h2.943a1.621,1.621,0,0,0,.612,1.268,2.429,2.429,0,0,0,1.525.44,2.248,2.248,0,0,0,1.348-.338A1.053,1.053,0,0,0,106.09-3.212Z" transform="translate(730.602 1587.857)" fill="#12263f"/>
    <path id="Trazado_815098" data-name="Trazado 815098" d="M4.823,0H1.6V-15.641H4.823ZM20.088-5.21a5.535,5.535,0,0,1-1.864,3.975A6.546,6.546,0,0,1,13.793.215,5.886,5.886,0,0,1,9.061-1.81,8.3,8.3,0,0,1,7.337-7.369v-.956A9.376,9.376,0,0,1,8.132-12.3,5.957,5.957,0,0,1,10.4-14.937a6.364,6.364,0,0,1,3.432-.918,6.376,6.376,0,0,1,4.361,1.45,5.948,5.948,0,0,1,1.912,4.071H16.887a3.266,3.266,0,0,0-.843-2.2,3.123,3.123,0,0,0-2.208-.682,2.738,2.738,0,0,0-2.412,1.155A6.472,6.472,0,0,0,10.6-8.476v1.182a6.927,6.927,0,0,0,.768,3.706,2.687,2.687,0,0,0,2.422,1.171A3.182,3.182,0,0,0,16.022-3.1a3.081,3.081,0,0,0,.843-2.111ZM31.034-3.223h-5.65L24.31,0H20.883l5.822-15.641h2.986L35.546,0H32.119Zm-4.78-2.61h3.91L28.2-11.687Z" transform="translate(770.15 1611.134)" fill="#12263f"/>
    <path id="Trazado_815092" data-name="Trazado 815092" d="M9.945-3.789A4.025,4.025,0,0,1,8.59-.9,4.76,4.76,0,0,1,5.367.156,4.28,4.28,0,0,1,1.926-1.316,6.038,6.038,0,0,1,.672-5.359v-.7A6.819,6.819,0,0,1,1.25-8.945,4.332,4.332,0,0,1,2.9-10.863a4.629,4.629,0,0,1,2.5-.668A4.637,4.637,0,0,1,8.57-10.477,4.326,4.326,0,0,1,9.961-7.516H7.617A2.376,2.376,0,0,0,7-9.113a2.271,2.271,0,0,0-1.605-.5,1.991,1.991,0,0,0-1.754.84,4.707,4.707,0,0,0-.6,2.605V-5.3a5.038,5.038,0,0,0,.559,2.7,1.954,1.954,0,0,0,1.762.852,2.314,2.314,0,0,0,1.621-.5A2.241,2.241,0,0,0,7.6-3.789ZM10.984-4.3a5.013,5.013,0,0,1,.484-2.242A3.546,3.546,0,0,1,12.863-8.07a4.069,4.069,0,0,1,2.113-.539A3.849,3.849,0,0,1,17.77-7.562a4.2,4.2,0,0,1,1.207,2.844l.016.578A4.418,4.418,0,0,1,17.906-1.02,3.775,3.775,0,0,1,14.992.156a3.793,3.793,0,0,1-2.918-1.172A4.5,4.5,0,0,1,10.984-4.2Zm2.258.16A3.16,3.16,0,0,0,13.7-2.3a1.5,1.5,0,0,0,1.3.638,1.5,1.5,0,0,0,1.281-.63,3.457,3.457,0,0,0,.461-2.015,3.128,3.128,0,0,0-.461-1.831,1.5,1.5,0,0,0-1.3-.649,1.474,1.474,0,0,0-1.281.646A3.516,3.516,0,0,0,13.242-4.144Zm6.789-.16a5.013,5.013,0,0,1,.484-2.242A3.546,3.546,0,0,1,21.91-8.07a4.069,4.069,0,0,1,2.113-.539,3.849,3.849,0,0,1,2.793,1.047,4.2,4.2,0,0,1,1.207,2.844l.016.578A4.418,4.418,0,0,1,26.953-1.02,3.775,3.775,0,0,1,24.039.156a3.793,3.793,0,0,1-2.918-1.172A4.5,4.5,0,0,1,20.031-4.2Zm2.258.16A3.16,3.16,0,0,0,22.742-2.3a1.5,1.5,0,0,0,1.3.638,1.5,1.5,0,0,0,1.281-.63,3.457,3.457,0,0,0,.461-2.015A3.128,3.128,0,0,0,25.32-6.14a1.5,1.5,0,0,0-1.3-.649,1.474,1.474,0,0,0-1.281.646A3.516,3.516,0,0,0,22.289-4.144ZM34.18-6.336a6.134,6.134,0,0,0-.812-.062,1.654,1.654,0,0,0-1.68.867V0H29.43V-8.453h2.133l.063,1.008a2.092,2.092,0,0,1,1.883-1.164,2.366,2.366,0,0,1,.7.1Zm.458,2.047a5.094,5.094,0,0,1,.887-3.148A2.877,2.877,0,0,1,37.95-8.609a2.589,2.589,0,0,1,2.039.922V-12h2.266V0H40.216l-.109-.9A2.657,2.657,0,0,1,37.935.156,2.869,2.869,0,0,1,35.54-1.02,5.258,5.258,0,0,1,34.638-4.289Zm2.258.168A3.337,3.337,0,0,0,37.31-2.3a1.349,1.349,0,0,0,1.2.634,1.511,1.511,0,0,0,1.477-.884V-5.889a1.489,1.489,0,0,0-1.461-.884Q36.9-6.773,36.9-4.121ZM46.388,0H44.122V-8.453h2.266Zm-2.4-10.641a1.112,1.112,0,0,1,.34-.836,1.277,1.277,0,0,1,.926-.328,1.28,1.28,0,0,1,.922.328,1.105,1.105,0,0,1,.344.836,1.108,1.108,0,0,1-.348.844,1.283,1.283,0,0,1-.918.328,1.283,1.283,0,0,1-.918-.328A1.108,1.108,0,0,1,43.989-10.641Zm6.336,2.188.07.977a2.951,2.951,0,0,1,2.43-1.133,2.453,2.453,0,0,1,2,.789A3.682,3.682,0,0,1,55.5-5.461V0H53.239V-5.406a1.465,1.465,0,0,0-.312-1.043,1.4,1.4,0,0,0-1.039-.324,1.553,1.553,0,0,0-1.43.813V0H48.2V-8.453ZM62.106,0a2.507,2.507,0,0,1-.227-.758,2.732,2.732,0,0,1-2.133.914,3,3,0,0,1-2.059-.719,2.312,2.312,0,0,1-.816-1.812,2.389,2.389,0,0,1,1-2.062,4.915,4.915,0,0,1,2.879-.727h1.039v-.484a1.393,1.393,0,0,0-.3-.937,1.183,1.183,0,0,0-.949-.352,1.345,1.345,0,0,0-.895.273.929.929,0,0,0-.324.75H57.06a2.268,2.268,0,0,1,.453-1.359,3,3,0,0,1,1.281-.98,4.669,4.669,0,0,1,1.859-.355,3.689,3.689,0,0,1,2.48.785,2.747,2.747,0,0,1,.918,2.207v3.664a4.041,4.041,0,0,0,.336,1.82V0ZM60.239-1.57a1.945,1.945,0,0,0,.922-.223,1.462,1.462,0,0,0,.625-.6V-3.844h-.844q-1.7,0-1.8,1.172l-.008.133a.9.9,0,0,0,.3.7A1.153,1.153,0,0,0,60.239-1.57ZM69.3-1.664a1.481,1.481,0,0,0,1.016-.344,1.2,1.2,0,0,0,.406-.914h2.117a2.9,2.9,0,0,1-.469,1.574A3.093,3.093,0,0,1,71.11-.238a3.949,3.949,0,0,1-1.77.395A3.67,3.67,0,0,1,66.481-1,4.56,4.56,0,0,1,65.435-4.18v-.148a4.508,4.508,0,0,1,1.039-3.117,3.627,3.627,0,0,1,2.852-1.164,3.555,3.555,0,0,1,2.543.9,3.2,3.2,0,0,1,.973,2.4H70.724a1.551,1.551,0,0,0-.406-1.072,1.354,1.354,0,0,0-1.031-.412,1.36,1.36,0,0,0-1.191.575,3.333,3.333,0,0,0-.4,1.866v.235a3.375,3.375,0,0,0,.4,1.878A1.377,1.377,0,0,0,69.3-1.664ZM76.513,0H74.247V-8.453h2.266Zm-2.4-10.641a1.112,1.112,0,0,1,.34-.836,1.277,1.277,0,0,1,.926-.328,1.28,1.28,0,0,1,.922.328,1.105,1.105,0,0,1,.344.836A1.108,1.108,0,0,1,76.3-9.8a1.283,1.283,0,0,1-.918.328,1.283,1.283,0,0,1-.918-.328A1.108,1.108,0,0,1,74.114-10.641ZM78.02-4.3A5.013,5.013,0,0,1,78.5-6.547,3.546,3.546,0,0,1,79.9-8.07a4.069,4.069,0,0,1,2.113-.539,3.849,3.849,0,0,1,2.793,1.047,4.2,4.2,0,0,1,1.207,2.844l.016.578A4.418,4.418,0,0,1,84.942-1.02,3.775,3.775,0,0,1,82.028.156,3.793,3.793,0,0,1,79.11-1.016,4.5,4.5,0,0,1,78.02-4.2Zm2.258.16A3.16,3.16,0,0,0,80.731-2.3a1.5,1.5,0,0,0,1.3.638,1.5,1.5,0,0,0,1.281-.63,3.457,3.457,0,0,0,.461-2.015A3.128,3.128,0,0,0,83.31-6.14a1.5,1.5,0,0,0-1.3-.649,1.474,1.474,0,0,0-1.281.646A3.516,3.516,0,0,0,80.278-4.144ZM82.458-12h2.461L82.755-9.578H80.919ZM89.5-8.453l.07.977A2.951,2.951,0,0,1,92-8.609a2.453,2.453,0,0,1,2,.789,3.682,3.682,0,0,1,.672,2.359V0H92.411V-5.406A1.465,1.465,0,0,0,92.1-6.449a1.4,1.4,0,0,0-1.039-.324,1.553,1.553,0,0,0-1.43.813V0H87.372V-8.453Z" transform="translate(322.115 1467.784)" fill="#12263f"/>
    <path id="Trazado_815093" data-name="Trazado 815093" d="M3.57-10.531v2.078H5.016V-6.8H3.57v4.219a1.007,1.007,0,0,0,.18.672.9.9,0,0,0,.688.2A3.6,3.6,0,0,0,5.1-1.758V-.047a4.648,4.648,0,0,1-1.367.2,2.156,2.156,0,0,1-2.422-2.4V-6.8H.078V-8.453H1.313v-2.078ZM10.164.156A4.15,4.15,0,0,1,7.137-.984,4.054,4.054,0,0,1,5.969-4.023v-.219A5.106,5.106,0,0,1,6.461-6.52,3.612,3.612,0,0,1,7.855-8.066a3.914,3.914,0,0,1,2.059-.543,3.508,3.508,0,0,1,2.73,1.094,4.444,4.444,0,0,1,1,3.1v.922H8.258a2.1,2.1,0,0,0,.66,1.328,2,2,0,0,0,1.395.5,2.437,2.437,0,0,0,2.039-.945l1.109,1.242A3.389,3.389,0,0,1,12.086-.246,4.511,4.511,0,0,1,10.164.156ZM9.906-6.789a1.411,1.411,0,0,0-1.09.455,2.357,2.357,0,0,0-.535,1.3h3.141v-.181a1.681,1.681,0,0,0-.406-1.165A1.456,1.456,0,0,0,9.906-6.789Zm.2-5.211H12.57L10.406-9.578H8.57ZM18.438-1.664a1.481,1.481,0,0,0,1.016-.344,1.2,1.2,0,0,0,.406-.914h2.117a2.9,2.9,0,0,1-.469,1.574A3.093,3.093,0,0,1,20.246-.238a3.949,3.949,0,0,1-1.77.395A3.67,3.67,0,0,1,15.617-1,4.56,4.56,0,0,1,14.57-4.18v-.148a4.508,4.508,0,0,1,1.039-3.117,3.627,3.627,0,0,1,2.852-1.164,3.555,3.555,0,0,1,2.543.9,3.2,3.2,0,0,1,.973,2.4H19.859a1.551,1.551,0,0,0-.406-1.072,1.354,1.354,0,0,0-1.031-.412,1.36,1.36,0,0,0-1.191.575,3.333,3.333,0,0,0-.4,1.866v.235a3.375,3.375,0,0,0,.4,1.878A1.377,1.377,0,0,0,18.438-1.664Zm6.906-6.789.07.977a2.951,2.951,0,0,1,2.43-1.133,2.453,2.453,0,0,1,2,.789,3.682,3.682,0,0,1,.672,2.359V0H28.258V-5.406a1.465,1.465,0,0,0-.312-1.043,1.4,1.4,0,0,0-1.039-.324,1.553,1.553,0,0,0-1.43.813V0H23.219V-8.453ZM34.609,0H32.344V-8.453h2.266Zm-2.4-10.641a1.112,1.112,0,0,1,.34-.836,1.277,1.277,0,0,1,.926-.328,1.28,1.28,0,0,1,.922.328,1.105,1.105,0,0,1,.344.836,1.108,1.108,0,0,1-.348.844,1.283,1.283,0,0,1-.918.328,1.283,1.283,0,0,1-.918-.328A1.108,1.108,0,0,1,32.211-10.641Zm7.773,8.977A1.481,1.481,0,0,0,41-2.008a1.2,1.2,0,0,0,.406-.914h2.117a2.9,2.9,0,0,1-.469,1.574A3.093,3.093,0,0,1,41.793-.238a3.949,3.949,0,0,1-1.77.395A3.67,3.67,0,0,1,37.164-1,4.56,4.56,0,0,1,36.117-4.18v-.148a4.508,4.508,0,0,1,1.039-3.117,3.627,3.627,0,0,1,2.852-1.164,3.555,3.555,0,0,1,2.543.9,3.2,3.2,0,0,1,.973,2.4H41.406A1.551,1.551,0,0,0,41-6.377a1.354,1.354,0,0,0-1.031-.412,1.36,1.36,0,0,0-1.191.575,3.333,3.333,0,0,0-.4,1.866v.235a3.375,3.375,0,0,0,.4,1.878A1.377,1.377,0,0,0,39.984-1.664ZM49.711,0a2.507,2.507,0,0,1-.227-.758,2.732,2.732,0,0,1-2.133.914,3,3,0,0,1-2.059-.719,2.312,2.312,0,0,1-.816-1.812,2.389,2.389,0,0,1,1-2.062,4.915,4.915,0,0,1,2.879-.727h1.039v-.484a1.393,1.393,0,0,0-.3-.937,1.183,1.183,0,0,0-.949-.352,1.345,1.345,0,0,0-.895.273.929.929,0,0,0-.324.75H44.664a2.268,2.268,0,0,1,.453-1.359,3,3,0,0,1,1.281-.98,4.669,4.669,0,0,1,1.859-.355,3.689,3.689,0,0,1,2.48.785,2.747,2.747,0,0,1,.918,2.207v3.664a4.041,4.041,0,0,0,.336,1.82V0ZM47.844-1.57a1.945,1.945,0,0,0,.922-.223,1.462,1.462,0,0,0,.625-.6V-3.844h-.844q-1.7,0-1.8,1.172l-.008.133a.9.9,0,0,0,.3.7A1.153,1.153,0,0,0,47.844-1.57Zm13.047-.094a1.481,1.481,0,0,0,1.016-.344,1.2,1.2,0,0,0,.406-.914H64.43a2.9,2.9,0,0,1-.469,1.574A3.093,3.093,0,0,1,62.7-.238a3.949,3.949,0,0,1-1.77.395A3.67,3.67,0,0,1,58.07-1,4.56,4.56,0,0,1,57.023-4.18v-.148a4.508,4.508,0,0,1,1.039-3.117,3.627,3.627,0,0,1,2.852-1.164,3.555,3.555,0,0,1,2.543.9,3.2,3.2,0,0,1,.973,2.4H62.313a1.551,1.551,0,0,0-.406-1.072,1.354,1.354,0,0,0-1.031-.412,1.36,1.36,0,0,0-1.191.575,3.333,3.333,0,0,0-.4,1.866v.235a3.375,3.375,0,0,0,.4,1.878A1.377,1.377,0,0,0,60.891-1.664ZM69.609.156A4.15,4.15,0,0,1,66.582-.984a4.054,4.054,0,0,1-1.168-3.039v-.219a5.106,5.106,0,0,1,.492-2.277A3.612,3.612,0,0,1,67.3-8.066a3.914,3.914,0,0,1,2.059-.543,3.508,3.508,0,0,1,2.73,1.094,4.444,4.444,0,0,1,1,3.1v.922H67.7a2.1,2.1,0,0,0,.66,1.328,2,2,0,0,0,1.395.5A2.437,2.437,0,0,0,71.8-2.609l1.109,1.242A3.389,3.389,0,0,1,71.531-.246,4.511,4.511,0,0,1,69.609.156Zm-.258-6.945a1.411,1.411,0,0,0-1.09.455,2.357,2.357,0,0,0-.535,1.3h3.141v-.181a1.681,1.681,0,0,0-.406-1.165A1.456,1.456,0,0,0,69.352-6.789Zm7.094-1.664.07.977a2.951,2.951,0,0,1,2.43-1.133,2.453,2.453,0,0,1,2,.789,3.682,3.682,0,0,1,.672,2.359V0H79.359V-5.406a1.465,1.465,0,0,0-.312-1.043,1.4,1.4,0,0,0-1.039-.324,1.553,1.553,0,0,0-1.43.813V0H74.32V-8.453Zm9.586-2.078v2.078h1.445V-6.8H86.031v4.219a1.007,1.007,0,0,0,.18.672.9.9,0,0,0,.688.2,3.6,3.6,0,0,0,.664-.055V-.047a4.648,4.648,0,0,1-1.367.2,2.156,2.156,0,0,1-2.422-2.4V-6.8H82.539V-8.453h1.234v-2.078Zm7.453,4.2a6.134,6.134,0,0,0-.812-.062,1.654,1.654,0,0,0-1.68.867V0H88.734V-8.453h2.133l.063,1.008a2.092,2.092,0,0,1,1.883-1.164,2.366,2.366,0,0,1,.7.1ZM99.234,0a2.507,2.507,0,0,1-.227-.758,2.732,2.732,0,0,1-2.133.914,3,3,0,0,1-2.059-.719A2.312,2.312,0,0,1,94-2.375a2.389,2.389,0,0,1,1-2.062,4.915,4.915,0,0,1,2.879-.727h1.039v-.484a1.393,1.393,0,0,0-.3-.937,1.183,1.183,0,0,0-.949-.352,1.345,1.345,0,0,0-.895.273.929.929,0,0,0-.324.75H94.188a2.268,2.268,0,0,1,.453-1.359,3,3,0,0,1,1.281-.98,4.669,4.669,0,0,1,1.859-.355,3.689,3.689,0,0,1,2.48.785,2.747,2.747,0,0,1,.918,2.207v3.664a4.041,4.041,0,0,0,.336,1.82V0ZM97.367-1.57a1.945,1.945,0,0,0,.922-.223,1.462,1.462,0,0,0,.625-.6V-3.844H98.07q-1.7,0-1.8,1.172l-.008.133a.9.9,0,0,0,.3.7A1.153,1.153,0,0,0,97.367-1.57ZM105.3,0h-2.266V-12H105.3Z" transform="translate(322.115 1491.056)" fill="#12263f"/>
    <path id="Trazado_815094" data-name="Trazado 815094" d="M7.859-4.93h-4.5v3.047H8.641V0H1.016V-11.375H8.625v1.9H3.359v2.711h4.5Zm4.086-3.523.07.977a2.951,2.951,0,0,1,2.43-1.133,2.453,2.453,0,0,1,2,.789,3.682,3.682,0,0,1,.672,2.359V0H14.859V-5.406a1.465,1.465,0,0,0-.312-1.043,1.4,1.4,0,0,0-1.039-.324,1.553,1.553,0,0,0-1.43.813V0H9.82V-8.453Zm9.586-2.078v2.078h1.445V-6.8H21.531v4.219a1.007,1.007,0,0,0,.18.672.9.9,0,0,0,.688.2,3.6,3.6,0,0,0,.664-.055V-.047a4.648,4.648,0,0,1-1.367.2,2.156,2.156,0,0,1-2.422-2.4V-6.8H18.039V-8.453h1.234v-2.078ZM28.125.156A4.15,4.15,0,0,1,25.1-.984,4.054,4.054,0,0,1,23.93-4.023v-.219a5.106,5.106,0,0,1,.492-2.277,3.612,3.612,0,0,1,1.395-1.547,3.914,3.914,0,0,1,2.059-.543,3.508,3.508,0,0,1,2.73,1.094,4.444,4.444,0,0,1,1,3.1v.922H26.219a2.1,2.1,0,0,0,.66,1.328,2,2,0,0,0,1.395.5,2.437,2.437,0,0,0,2.039-.945l1.109,1.242A3.389,3.389,0,0,1,30.047-.246,4.511,4.511,0,0,1,28.125.156Zm-.258-6.945a1.411,1.411,0,0,0-1.09.455,2.357,2.357,0,0,0-.535,1.3h3.141v-.181a1.681,1.681,0,0,0-.406-1.165A1.456,1.456,0,0,0,27.867-6.789Zm9.594,4.453a.727.727,0,0,0-.41-.652,4.659,4.659,0,0,0-1.316-.426q-3.016-.633-3.016-2.562a2.323,2.323,0,0,1,.934-1.879,3.766,3.766,0,0,1,2.441-.754,4.053,4.053,0,0,1,2.574.758,2.388,2.388,0,0,1,.965,1.969H37.375a1.092,1.092,0,0,0-.312-.8A1.322,1.322,0,0,0,36.086-7a1.351,1.351,0,0,0-.883.258.814.814,0,0,0-.312.656.7.7,0,0,0,.355.605,3.657,3.657,0,0,0,1.2.4,9.8,9.8,0,0,1,1.422.379A2.336,2.336,0,0,1,39.656-2.43a2.2,2.2,0,0,1-.992,1.871A4.28,4.28,0,0,1,36.1.156a4.47,4.47,0,0,1-1.887-.379,3.166,3.166,0,0,1-1.293-1.039,2.414,2.414,0,0,1-.469-1.426h2.141a1.179,1.179,0,0,0,.445.922,1.766,1.766,0,0,0,1.109.32,1.635,1.635,0,0,0,.98-.246A.766.766,0,0,0,37.461-2.336ZM44.742-4.3a5.013,5.013,0,0,1,.484-2.242A3.546,3.546,0,0,1,46.621-8.07a4.069,4.069,0,0,1,2.113-.539,3.849,3.849,0,0,1,2.793,1.047,4.2,4.2,0,0,1,1.207,2.844l.016.578A4.418,4.418,0,0,1,51.664-1.02,3.775,3.775,0,0,1,48.75.156a3.793,3.793,0,0,1-2.918-1.172A4.5,4.5,0,0,1,44.742-4.2ZM47-4.144A3.16,3.16,0,0,0,47.453-2.3a1.5,1.5,0,0,0,1.3.638,1.5,1.5,0,0,0,1.281-.63,3.457,3.457,0,0,0,.461-2.015,3.128,3.128,0,0,0-.461-1.831,1.5,1.5,0,0,0-1.3-.649,1.474,1.474,0,0,0-1.281.646A3.516,3.516,0,0,0,47-4.144Zm14.75,0a5.07,5.07,0,0,1-.887,3.129A2.843,2.843,0,0,1,58.469.156,2.633,2.633,0,0,1,56.4-.734V3.25H54.141v-11.7h2.094l.078.828a2.654,2.654,0,0,1,2.141-.984,2.862,2.862,0,0,1,2.43,1.156,5.207,5.207,0,0,1,.867,3.188Zm-2.258-.164a3.327,3.327,0,0,0-.418-1.82,1.361,1.361,0,0,0-1.215-.641,1.479,1.479,0,0,0-1.461.813V-2.5a1.5,1.5,0,0,0,1.477.836Q59.492-1.664,59.492-4.312ZM67.039.156A4.15,4.15,0,0,1,64.012-.984a4.054,4.054,0,0,1-1.168-3.039v-.219a5.106,5.106,0,0,1,.492-2.277A3.612,3.612,0,0,1,64.73-8.066a3.914,3.914,0,0,1,2.059-.543,3.508,3.508,0,0,1,2.73,1.094,4.444,4.444,0,0,1,1,3.1v.922H65.133a2.1,2.1,0,0,0,.66,1.328,2,2,0,0,0,1.395.5,2.437,2.437,0,0,0,2.039-.945l1.109,1.242A3.389,3.389,0,0,1,68.961-.246,4.511,4.511,0,0,1,67.039.156Zm-.258-6.945a1.411,1.411,0,0,0-1.09.455,2.357,2.357,0,0,0-.535,1.3H68.3v-.181a1.681,1.681,0,0,0-.406-1.165A1.456,1.456,0,0,0,66.781-6.789Zm9.766.453a6.134,6.134,0,0,0-.812-.062,1.654,1.654,0,0,0-1.68.867V0H71.8V-8.453H73.93l.063,1.008a2.092,2.092,0,0,1,1.883-1.164,2.366,2.366,0,0,1,.7.1ZM82.3,0a2.507,2.507,0,0,1-.227-.758,2.732,2.732,0,0,1-2.133.914,3,3,0,0,1-2.059-.719,2.312,2.312,0,0,1-.816-1.812,2.389,2.389,0,0,1,1-2.062,4.915,4.915,0,0,1,2.879-.727h1.039v-.484a1.393,1.393,0,0,0-.3-.937,1.183,1.183,0,0,0-.949-.352,1.345,1.345,0,0,0-.895.273.929.929,0,0,0-.324.75H77.25A2.268,2.268,0,0,1,77.7-7.273a3,3,0,0,1,1.281-.98,4.669,4.669,0,0,1,1.859-.355,3.689,3.689,0,0,1,2.48.785,2.747,2.747,0,0,1,.918,2.207v3.664a4.041,4.041,0,0,0,.336,1.82V0ZM80.43-1.57a1.945,1.945,0,0,0,.922-.223,1.462,1.462,0,0,0,.625-.6V-3.844h-.844q-1.7,0-1.8,1.172l-.008.133a.9.9,0,0,0,.3.7A1.153,1.153,0,0,0,80.43-1.57Zm8.25-8.961v2.078h1.445V-6.8H88.68v4.219a1.007,1.007,0,0,0,.18.672.9.9,0,0,0,.688.2,3.6,3.6,0,0,0,.664-.055V-.047a4.648,4.648,0,0,1-1.367.2,2.156,2.156,0,0,1-2.422-2.4V-6.8H85.188V-8.453h1.234v-2.078ZM93.766,0H91.5V-8.453h2.266Zm-2.4-10.641a1.112,1.112,0,0,1,.34-.836,1.277,1.277,0,0,1,.926-.328,1.28,1.28,0,0,1,.922.328,1.105,1.105,0,0,1,.344.836,1.108,1.108,0,0,1-.348.844,1.283,1.283,0,0,1-.918.328,1.283,1.283,0,0,1-.918-.328A1.108,1.108,0,0,1,91.367-10.641Zm7.422,7.883,1.57-5.7h2.359L99.867,0H97.711L94.859-8.453h2.359ZM103.162-4.3a5.013,5.013,0,0,1,.484-2.242,3.546,3.546,0,0,1,1.395-1.523,4.069,4.069,0,0,1,2.113-.539,3.849,3.849,0,0,1,2.793,1.047,4.2,4.2,0,0,1,1.207,2.844l.016.578a4.418,4.418,0,0,1-1.086,3.121A3.775,3.775,0,0,1,107.17.156a3.793,3.793,0,0,1-2.918-1.172,4.5,4.5,0,0,1-1.09-3.187Zm2.258.16a3.16,3.16,0,0,0,.453,1.843,1.5,1.5,0,0,0,1.3.638,1.5,1.5,0,0,0,1.281-.63,3.457,3.457,0,0,0,.461-2.015,3.128,3.128,0,0,0-.461-1.831,1.5,1.5,0,0,0-1.3-.649,1.474,1.474,0,0,0-1.281.646A3.516,3.516,0,0,0,105.42-4.144Zm11.719,1.808a.727.727,0,0,0-.41-.652,4.659,4.659,0,0,0-1.316-.426Q112.4-4.047,112.4-5.977a2.323,2.323,0,0,1,.934-1.879,3.766,3.766,0,0,1,2.441-.754,4.053,4.053,0,0,1,2.574.758,2.388,2.388,0,0,1,.965,1.969h-2.258a1.092,1.092,0,0,0-.312-.8A1.322,1.322,0,0,0,115.764-7a1.351,1.351,0,0,0-.883.258.814.814,0,0,0-.312.656.7.7,0,0,0,.355.605,3.657,3.657,0,0,0,1.2.4,9.8,9.8,0,0,1,1.422.379,2.336,2.336,0,0,1,1.789,2.273,2.2,2.2,0,0,1-.992,1.871,4.28,4.28,0,0,1-2.562.715,4.47,4.47,0,0,1-1.887-.379A3.166,3.166,0,0,1,112.6-1.262a2.414,2.414,0,0,1-.469-1.426h2.141a1.179,1.179,0,0,0,.445.922,1.766,1.766,0,0,0,1.109.32,1.635,1.635,0,0,0,.98-.246A.766.766,0,0,0,117.139-2.336Z" transform="translate(322.115 1583.669)" fill="#12263f"/>
    <path id="Trazado_815095" data-name="Trazado 815095" d="M3.25,0H.984V-12H3.25ZM4.758-4.3a5.013,5.013,0,0,1,.484-2.242A3.546,3.546,0,0,1,6.637-8.07,4.069,4.069,0,0,1,8.75-8.609a3.849,3.849,0,0,1,2.793,1.047A4.2,4.2,0,0,1,12.75-4.719l.016.578A4.418,4.418,0,0,1,11.68-1.02,3.775,3.775,0,0,1,8.766.156,3.793,3.793,0,0,1,5.848-1.016,4.5,4.5,0,0,1,4.758-4.2Zm2.258.16A3.16,3.16,0,0,0,7.469-2.3a1.5,1.5,0,0,0,1.3.638,1.5,1.5,0,0,0,1.281-.63,3.457,3.457,0,0,0,.461-2.015,3.128,3.128,0,0,0-.461-1.831,1.5,1.5,0,0,0-1.3-.649,1.474,1.474,0,0,0-1.281.646A3.516,3.516,0,0,0,7.016-4.144Zm10.656,2.48a1.481,1.481,0,0,0,1.016-.344,1.2,1.2,0,0,0,.406-.914h2.117a2.9,2.9,0,0,1-.469,1.574A3.093,3.093,0,0,1,19.48-.238a3.949,3.949,0,0,1-1.77.395A3.67,3.67,0,0,1,14.852-1,4.56,4.56,0,0,1,13.8-4.18v-.148a4.508,4.508,0,0,1,1.039-3.117A3.627,3.627,0,0,1,17.7-8.609a3.555,3.555,0,0,1,2.543.9,3.2,3.2,0,0,1,.973,2.4H19.094a1.551,1.551,0,0,0-.406-1.072,1.354,1.354,0,0,0-1.031-.412,1.36,1.36,0,0,0-1.191.575,3.333,3.333,0,0,0-.4,1.866v.235a3.375,3.375,0,0,0,.4,1.878A1.377,1.377,0,0,0,17.672-1.664ZM27.4,0a2.507,2.507,0,0,1-.227-.758,2.732,2.732,0,0,1-2.133.914A3,3,0,0,1,22.98-.562a2.312,2.312,0,0,1-.816-1.812,2.389,2.389,0,0,1,1-2.062,4.915,4.915,0,0,1,2.879-.727h1.039v-.484a1.393,1.393,0,0,0-.3-.937,1.183,1.183,0,0,0-.949-.352,1.345,1.345,0,0,0-.895.273.929.929,0,0,0-.324.75H22.352A2.268,2.268,0,0,1,22.8-7.273a3,3,0,0,1,1.281-.98,4.669,4.669,0,0,1,1.859-.355,3.689,3.689,0,0,1,2.48.785,2.747,2.747,0,0,1,.918,2.207v3.664a4.041,4.041,0,0,0,.336,1.82V0ZM25.531-1.57a1.945,1.945,0,0,0,.922-.223,1.462,1.462,0,0,0,.625-.6V-3.844h-.844q-1.7,0-1.8,1.172l-.008.133a.9.9,0,0,0,.3.7A1.153,1.153,0,0,0,25.531-1.57ZM33.461,0H31.2V-12h2.266Zm5.75.156A4.15,4.15,0,0,1,36.184-.984a4.054,4.054,0,0,1-1.168-3.039v-.219a5.106,5.106,0,0,1,.492-2.277A3.612,3.612,0,0,1,36.9-8.066a3.914,3.914,0,0,1,2.059-.543,3.508,3.508,0,0,1,2.73,1.094,4.444,4.444,0,0,1,1,3.1v.922H37.3a2.1,2.1,0,0,0,.66,1.328,2,2,0,0,0,1.395.5A2.437,2.437,0,0,0,41.4-2.609l1.109,1.242A3.389,3.389,0,0,1,41.133-.246,4.511,4.511,0,0,1,39.211.156Zm-.258-6.945a1.411,1.411,0,0,0-1.09.455,2.357,2.357,0,0,0-.535,1.3h3.141v-.181a1.681,1.681,0,0,0-.406-1.165A1.456,1.456,0,0,0,38.953-6.789Zm9.594,4.453a.727.727,0,0,0-.41-.652,4.659,4.659,0,0,0-1.316-.426Q43.8-4.047,43.8-5.977a2.323,2.323,0,0,1,.934-1.879,3.766,3.766,0,0,1,2.441-.754,4.053,4.053,0,0,1,2.574.758,2.388,2.388,0,0,1,.965,1.969H48.461a1.092,1.092,0,0,0-.312-.8A1.322,1.322,0,0,0,47.172-7a1.351,1.351,0,0,0-.883.258.814.814,0,0,0-.312.656.7.7,0,0,0,.355.605,3.657,3.657,0,0,0,1.2.4,9.8,9.8,0,0,1,1.422.379A2.336,2.336,0,0,1,50.742-2.43,2.2,2.2,0,0,1,49.75-.559a4.28,4.28,0,0,1-2.562.715A4.47,4.47,0,0,1,45.3-.223a3.166,3.166,0,0,1-1.293-1.039,2.414,2.414,0,0,1-.469-1.426H45.68a1.179,1.179,0,0,0,.445.922,1.766,1.766,0,0,0,1.109.32,1.635,1.635,0,0,0,.98-.246A.766.766,0,0,0,48.547-2.336Z" transform="translate(322.115 1606.939)" fill="#12263f"/>
    <path id="Trazado_815102" data-name="Trazado 815102" d="M7.438-2.344H3.328L2.547,0H.055L4.289-11.375H6.461L10.719,0H8.227Zm-3.477-1.9H6.8L5.375-8.5ZM15.148-1.664a1.481,1.481,0,0,0,1.016-.344,1.2,1.2,0,0,0,.406-.914h2.117a2.9,2.9,0,0,1-.469,1.574A3.093,3.093,0,0,1,16.957-.238a3.949,3.949,0,0,1-1.77.395A3.67,3.67,0,0,1,12.328-1,4.56,4.56,0,0,1,11.281-4.18v-.148A4.508,4.508,0,0,1,12.32-7.445a3.627,3.627,0,0,1,2.852-1.164,3.555,3.555,0,0,1,2.543.9,3.2,3.2,0,0,1,.973,2.4H16.57a1.551,1.551,0,0,0-.406-1.072,1.354,1.354,0,0,0-1.031-.412,1.36,1.36,0,0,0-1.191.575,3.333,3.333,0,0,0-.4,1.866v.235a3.375,3.375,0,0,0,.4,1.878A1.377,1.377,0,0,0,15.148-1.664Zm7.531-8.867v2.078h1.445V-6.8H22.68v4.219a1.007,1.007,0,0,0,.18.672.9.9,0,0,0,.688.2,3.6,3.6,0,0,0,.664-.055V-.047a4.648,4.648,0,0,1-1.367.2,2.156,2.156,0,0,1-2.422-2.4V-6.8H19.188V-8.453h1.234v-2.078ZM27.766,0H25.5V-8.453h2.266Zm-2.4-10.641a1.112,1.112,0,0,1,.34-.836,1.277,1.277,0,0,1,.926-.328,1.28,1.28,0,0,1,.922.328,1.105,1.105,0,0,1,.344.836,1.108,1.108,0,0,1-.348.844,1.283,1.283,0,0,1-.918.328,1.283,1.283,0,0,1-.918-.328A1.108,1.108,0,0,1,25.367-10.641Zm7.422,7.883,1.57-5.7h2.359L33.867,0H31.711L28.859-8.453h2.359ZM40.094,0H37.828V-8.453h2.266ZM37.7-10.641a1.112,1.112,0,0,1,.34-.836,1.277,1.277,0,0,1,.926-.328,1.28,1.28,0,0,1,.922.328,1.105,1.105,0,0,1,.344.836,1.108,1.108,0,0,1-.348.844,1.283,1.283,0,0,1-.918.328,1.283,1.283,0,0,1-.918-.328A1.108,1.108,0,0,1,37.7-10.641ZM41.6-4.289a5.094,5.094,0,0,1,.887-3.148,2.877,2.877,0,0,1,2.426-1.172,2.589,2.589,0,0,1,2.039.922V-12h2.266V0H47.18L47.07-.9A2.657,2.657,0,0,1,44.9.156,2.869,2.869,0,0,1,42.5-1.02,5.258,5.258,0,0,1,41.6-4.289Zm2.258.168A3.337,3.337,0,0,0,44.273-2.3a1.349,1.349,0,0,0,1.2.634,1.511,1.511,0,0,0,1.477-.884V-5.889a1.489,1.489,0,0,0-1.461-.884Q43.859-6.773,43.859-4.121ZM55.867,0a2.507,2.507,0,0,1-.227-.758,2.732,2.732,0,0,1-2.133.914,3,3,0,0,1-2.059-.719,2.312,2.312,0,0,1-.816-1.812,2.389,2.389,0,0,1,1-2.062,4.915,4.915,0,0,1,2.879-.727h1.039v-.484a1.393,1.393,0,0,0-.3-.937,1.183,1.183,0,0,0-.949-.352,1.345,1.345,0,0,0-.895.273.929.929,0,0,0-.324.75H50.82a2.268,2.268,0,0,1,.453-1.359,3,3,0,0,1,1.281-.98,4.669,4.669,0,0,1,1.859-.355,3.689,3.689,0,0,1,2.48.785,2.747,2.747,0,0,1,.918,2.207v3.664a4.041,4.041,0,0,0,.336,1.82V0ZM54-1.57a1.945,1.945,0,0,0,.922-.223,1.462,1.462,0,0,0,.625-.6V-3.844H54.7q-1.7,0-1.8,1.172l-.008.133a.9.9,0,0,0,.3.7A1.153,1.153,0,0,0,54-1.57Zm5.2-2.719a5.094,5.094,0,0,1,.887-3.148,2.877,2.877,0,0,1,2.426-1.172,2.589,2.589,0,0,1,2.039.922V-12h2.266V0H64.773l-.109-.9A2.657,2.657,0,0,1,62.492.156,2.869,2.869,0,0,1,60.1-1.02,5.258,5.258,0,0,1,59.2-4.289Zm2.258.168A3.337,3.337,0,0,0,61.867-2.3a1.349,1.349,0,0,0,1.2.634,1.511,1.511,0,0,0,1.477-.884V-5.889a1.489,1.489,0,0,0-1.461-.884Q61.453-6.773,61.453-4.121Zm11,4.277A4.15,4.15,0,0,1,69.426-.984a4.054,4.054,0,0,1-1.168-3.039v-.219A5.106,5.106,0,0,1,68.75-6.52a3.612,3.612,0,0,1,1.395-1.547A3.914,3.914,0,0,1,72.2-8.609a3.508,3.508,0,0,1,2.73,1.094,4.444,4.444,0,0,1,1,3.1v.922H70.547a2.1,2.1,0,0,0,.66,1.328,2,2,0,0,0,1.395.5,2.437,2.437,0,0,0,2.039-.945L75.75-1.367A3.389,3.389,0,0,1,74.375-.246,4.511,4.511,0,0,1,72.453.156ZM72.2-6.789a1.411,1.411,0,0,0-1.09.455,2.357,2.357,0,0,0-.535,1.3h3.141v-.181A1.681,1.681,0,0,0,73.3-6.377,1.456,1.456,0,0,0,72.2-6.789Zm9.594,4.453a.727.727,0,0,0-.41-.652,4.659,4.659,0,0,0-1.316-.426q-3.016-.633-3.016-2.562a2.323,2.323,0,0,1,.934-1.879,3.766,3.766,0,0,1,2.441-.754A4.053,4.053,0,0,1,83-7.852a2.388,2.388,0,0,1,.965,1.969H81.7a1.092,1.092,0,0,0-.312-.8A1.322,1.322,0,0,0,80.414-7a1.351,1.351,0,0,0-.883.258.814.814,0,0,0-.312.656.7.7,0,0,0,.355.605,3.657,3.657,0,0,0,1.2.4A9.8,9.8,0,0,1,82.2-4.7,2.336,2.336,0,0,1,83.984-2.43a2.2,2.2,0,0,1-.992,1.871A4.28,4.28,0,0,1,80.43.156a4.47,4.47,0,0,1-1.887-.379A3.166,3.166,0,0,1,77.25-1.262a2.414,2.414,0,0,1-.469-1.426h2.141a1.179,1.179,0,0,0,.445.922,1.766,1.766,0,0,0,1.109.32,1.635,1.635,0,0,0,.98-.246A.766.766,0,0,0,81.789-2.336Z" transform="translate(322.115 1699.553)" fill="#12263f"/>
    <path id="Trazado_815103" data-name="Trazado 815103" d="M5.445-2.336a.727.727,0,0,0-.41-.652,4.659,4.659,0,0,0-1.316-.426Q.7-4.047.7-5.977a2.323,2.323,0,0,1,.934-1.879,3.766,3.766,0,0,1,2.441-.754,4.053,4.053,0,0,1,2.574.758,2.388,2.388,0,0,1,.965,1.969H5.359a1.092,1.092,0,0,0-.312-.8A1.322,1.322,0,0,0,4.07-7a1.351,1.351,0,0,0-.883.258.814.814,0,0,0-.312.656.7.7,0,0,0,.355.605,3.657,3.657,0,0,0,1.2.4A9.8,9.8,0,0,1,5.852-4.7,2.336,2.336,0,0,1,7.641-2.43,2.2,2.2,0,0,1,6.648-.559,4.28,4.28,0,0,1,4.086.156,4.47,4.47,0,0,1,2.2-.223,3.166,3.166,0,0,1,.906-1.262,2.414,2.414,0,0,1,.438-2.687H2.578a1.179,1.179,0,0,0,.445.922,1.766,1.766,0,0,0,1.109.32,1.635,1.635,0,0,0,.98-.246A.766.766,0,0,0,5.445-2.336ZM8.742-4.3a5.013,5.013,0,0,1,.484-2.242A3.546,3.546,0,0,1,10.621-8.07a4.069,4.069,0,0,1,2.113-.539,3.849,3.849,0,0,1,2.793,1.047,4.2,4.2,0,0,1,1.207,2.844l.016.578A4.418,4.418,0,0,1,15.664-1.02,3.775,3.775,0,0,1,12.75.156,3.793,3.793,0,0,1,9.832-1.016,4.5,4.5,0,0,1,8.742-4.2ZM11-4.144A3.16,3.16,0,0,0,11.453-2.3a1.5,1.5,0,0,0,1.3.638,1.5,1.5,0,0,0,1.281-.63,3.457,3.457,0,0,0,.461-2.015,3.128,3.128,0,0,0-.461-1.831,1.5,1.5,0,0,0-1.3-.649,1.474,1.474,0,0,0-1.281.646A3.516,3.516,0,0,0,11-4.144Zm14.75,0a5.07,5.07,0,0,1-.887,3.129A2.843,2.843,0,0,1,22.469.156,2.633,2.633,0,0,1,20.4-.734V3.25H18.141v-11.7h2.094l.078.828a2.654,2.654,0,0,1,2.141-.984,2.862,2.862,0,0,1,2.43,1.156,5.207,5.207,0,0,1,.867,3.188Zm-2.258-.164a3.327,3.327,0,0,0-.418-1.82,1.361,1.361,0,0,0-1.215-.641,1.478,1.478,0,0,0-1.461.813V-2.5a1.5,1.5,0,0,0,1.477.836Q23.492-1.664,23.492-4.312Zm3.3.008a5.013,5.013,0,0,1,.484-2.242A3.546,3.546,0,0,1,28.676-8.07a4.069,4.069,0,0,1,2.113-.539,3.849,3.849,0,0,1,2.793,1.047,4.2,4.2,0,0,1,1.207,2.844l.016.578A4.418,4.418,0,0,1,33.719-1.02,3.775,3.775,0,0,1,30.8.156a3.793,3.793,0,0,1-2.918-1.172A4.5,4.5,0,0,1,26.8-4.2Zm2.258.16A3.16,3.16,0,0,0,29.508-2.3a1.5,1.5,0,0,0,1.3.638,1.5,1.5,0,0,0,1.281-.63,3.457,3.457,0,0,0,.461-2.015,3.128,3.128,0,0,0-.461-1.831,1.5,1.5,0,0,0-1.3-.649,1.474,1.474,0,0,0-1.281.646A3.516,3.516,0,0,0,29.055-4.144ZM40.945-6.336a6.134,6.134,0,0,0-.812-.062,1.654,1.654,0,0,0-1.68.867V0H36.2V-8.453h2.133l.063,1.008a2.092,2.092,0,0,1,1.883-1.164,2.366,2.366,0,0,1,.7.1Zm4.324-4.2v2.078h1.445V-6.8H45.269v4.219a1.007,1.007,0,0,0,.18.672.9.9,0,0,0,.688.2,3.6,3.6,0,0,0,.664-.055V-.047a4.648,4.648,0,0,1-1.367.2,2.156,2.156,0,0,1-2.422-2.4V-6.8H41.777V-8.453h1.234v-2.078ZM51.863.156A4.15,4.15,0,0,1,48.835-.984a4.054,4.054,0,0,1-1.168-3.039v-.219A5.106,5.106,0,0,1,48.16-6.52a3.612,3.612,0,0,1,1.395-1.547,3.914,3.914,0,0,1,2.059-.543,3.508,3.508,0,0,1,2.73,1.094,4.444,4.444,0,0,1,1,3.1v.922H49.957a2.1,2.1,0,0,0,.66,1.328,2,2,0,0,0,1.395.5,2.437,2.437,0,0,0,2.039-.945L55.16-1.367A3.389,3.389,0,0,1,53.785-.246,4.511,4.511,0,0,1,51.863.156ZM51.6-6.789a1.411,1.411,0,0,0-1.09.455,2.357,2.357,0,0,0-.535,1.3h3.141v-.181a1.681,1.681,0,0,0-.406-1.165A1.456,1.456,0,0,0,51.6-6.789Z" transform="translate(322.115 1722.822)" fill="#12263f"/>
    <path id="Trazado_280835" data-name="Trazado 280835" d="M1030,0V478.145H0Z" transform="translate(285 1298.666)" fill="none"/>
  </g>
</svg>
