<svg xmlns="http://www.w3.org/2000/svg" width="67" height="67" viewBox="0 0 67 67">
  <g id="Grupo_1075882" data-name="Grupo 1075882" transform="translate(-285 -1680.811)">
    <g id="Elipse_4292" data-name="Elipse 4292" transform="translate(285 1680.811)" fill="#3b5620" stroke="#707070" stroke-width="1">
      <circle cx="33.5" cy="33.5" r="33.5" stroke="none"/>
      <circle cx="33.5" cy="33.5" r="33" fill="none"/>
    </g>
    <path id="Trazado_816304" data-name="Trazado 816304" d="M2.022-13.2,3.674-27.016h15.79v4.861H8.758l-.612,5.367a7.375,7.375,0,0,1,1.753-.69,8,8,0,0,1,2.125-.3,7.926,7.926,0,0,1,6.188,2.384A9.6,9.6,0,0,1,20.373-8.7,9.587,9.587,0,0,1,19.213-4,7.971,7.971,0,0,1,15.957-.761,10.281,10.281,0,0,1,11,.371,11.062,11.062,0,0,1,6.234-.676,8.555,8.555,0,0,1,2.746-3.55,6.983,6.983,0,0,1,1.5-7.675H7.774a3.547,3.547,0,0,0,.946,2.352,3,3,0,0,0,2.245.87q3.154,0,3.154-4.666,0-4.314-3.859-4.314A3.851,3.851,0,0,0,7-12.026Z" transform="translate(308 1727.811)" fill="#dbf9bd"/>
  </g>
</svg>
